<?xml version="1.0" encoding="UTF-8" standalone="no"?>
<!DOCTYPE svg PUBLIC "-//W3C//DTD SVG 1.1//EN"
 "http://www.w3.org/Graphics/SVG/1.1/DTD/svg11.dtd">
<!-- Generated by graphviz version 2.43.0 (0)
 -->
<!-- Title: Abelian.hpp Pages: 1 -->
<svg width="464pt" height="252pt"
 viewBox="0.00 0.00 463.50 252.00" xmlns="http://www.w3.org/2000/svg" xmlns:xlink="http://www.w3.org/1999/xlink">
<g id="graph0" class="graph" transform="scale(1 1) rotate(0) translate(4 248)">
<title>Abelian.hpp</title>
<polygon fill="white" stroke="transparent" points="-4,4 -4,-248 459.5,-248 459.5,4 -4,4"/>
<!-- Node1 -->
<g id="node1" class="node">
<title>Node1</title>
<g id="a_node1"><a xlink:title="Contains the class mackey::AbelianGroup.">
<polygon fill="#bfbfbf" stroke="black" points="256.5,-224.5 256.5,-243.5 330.5,-243.5 330.5,-224.5 256.5,-224.5"/>
<text text-anchor="middle" x="293.5" y="-231.5" font-family="Helvetica,sans-Serif" font-size="10.00">Abelian.hpp</text>
</a>
</g>
</g>
<!-- Node2 -->
<g id="node2" class="node">
<title>Node2</title>
<g id="a_node2"><a xlink:href="General_8hpp.html" target="_top" xlink:title="Contains general functions and vector overloads independent of everything else.">
<polygon fill="white" stroke="black" points="179,-168.5 179,-187.5 288,-187.5 288,-168.5 179,-168.5"/>
<text text-anchor="middle" x="233.5" y="-175.5" font-family="Helvetica,sans-Serif" font-size="10.00">Utility/General.hpp</text>
</a>
</g>
</g>
<!-- Node1&#45;&gt;Node2 -->
<g id="edge1" class="edge">
<title>Node1&#45;&gt;Node2</title>
<path fill="none" stroke="midnightblue" d="M283.86,-224.32C274.99,-216.34 261.63,-204.31 250.89,-194.65"/>
<polygon fill="midnightblue" stroke="midnightblue" points="253.09,-191.92 243.32,-187.83 248.41,-197.13 253.09,-191.92"/>
</g>
<!-- Node12 -->
<g id="node12" class="node">
<title>Node12</title>
<g id="a_node12"><a xlink:title=" ">
<polygon fill="white" stroke="#bfbfbf" points="306.5,-168.5 306.5,-187.5 402.5,-187.5 402.5,-168.5 306.5,-168.5"/>
<text text-anchor="middle" x="354.5" y="-175.5" font-family="Helvetica,sans-Serif" font-size="10.00">impl/Abelian.ipp</text>
</a>
</g>
</g>
<!-- Node1&#45;&gt;Node12 -->
<g id="edge11" class="edge">
<title>Node1&#45;&gt;Node12</title>
<path fill="none" stroke="midnightblue" d="M303.3,-224.32C312.32,-216.34 325.91,-204.31 336.82,-194.65"/>
<polygon fill="midnightblue" stroke="midnightblue" points="339.35,-197.08 344.52,-187.83 334.71,-191.84 339.35,-197.08"/>
</g>
<!-- Node3 -->
<g id="node3" class="node">
<title>Node3</title>
<g id="a_node3"><a xlink:title=" ">
<polygon fill="white" stroke="#bfbfbf" points="18,-112.5 18,-131.5 65,-131.5 65,-112.5 18,-112.5"/>
<text text-anchor="middle" x="41.5" y="-119.5" font-family="Helvetica,sans-Serif" font-size="10.00">vector</text>
</a>
</g>
</g>
<!-- Node2&#45;&gt;Node3 -->
<g id="edge2" class="edge">
<title>Node2&#45;&gt;Node3</title>
<path fill="none" stroke="midnightblue" d="M203.08,-168.44C168.24,-158.65 111.33,-142.64 75.18,-132.47"/>
<polygon fill="midnightblue" stroke="midnightblue" points="75.7,-128.98 65.12,-129.64 73.8,-135.72 75.7,-128.98"/>
</g>
<!-- Node4 -->
<g id="node4" class="node">
<title>Node4</title>
<g id="a_node4"><a xlink:href="Aliases_8hpp.html" target="_top" xlink:title="Contains general template aliases.">
<polygon fill="white" stroke="black" points="83.5,-112.5 83.5,-131.5 187.5,-131.5 187.5,-112.5 83.5,-112.5"/>
<text text-anchor="middle" x="135.5" y="-119.5" font-family="Helvetica,sans-Serif" font-size="10.00">Types/Aliases.hpp</text>
</a>
</g>
</g>
<!-- Node2&#45;&gt;Node4 -->
<g id="edge3" class="edge">
<title>Node2&#45;&gt;Node4</title>
<path fill="none" stroke="midnightblue" d="M217.75,-168.32C202.18,-159.74 178.12,-146.49 160.04,-136.52"/>
<polygon fill="midnightblue" stroke="midnightblue" points="161.65,-133.42 151.21,-131.65 158.28,-139.55 161.65,-133.42"/>
</g>
<!-- Node9 -->
<g id="node9" class="node">
<title>Node9</title>
<g id="a_node9"><a xlink:title=" ">
<polygon fill="white" stroke="#bfbfbf" points="205.5,-112.5 205.5,-131.5 261.5,-131.5 261.5,-112.5 205.5,-112.5"/>
<text text-anchor="middle" x="233.5" y="-119.5" font-family="Helvetica,sans-Serif" font-size="10.00">numeric</text>
</a>
</g>
</g>
<!-- Node2&#45;&gt;Node9 -->
<g id="edge8" class="edge">
<title>Node2&#45;&gt;Node9</title>
<path fill="none" stroke="midnightblue" d="M233.5,-168.08C233.5,-161.01 233.5,-150.86 233.5,-141.99"/>
<polygon fill="midnightblue" stroke="midnightblue" points="237,-141.75 233.5,-131.75 230,-141.75 237,-141.75"/>
</g>
<!-- Node10 -->
<g id="node10" class="node">
<title>Node10</title>
<g id="a_node10"><a xlink:title=" ">
<polygon fill="white" stroke="#bfbfbf" points="279.5,-112.5 279.5,-131.5 339.5,-131.5 339.5,-112.5 279.5,-112.5"/>
<text text-anchor="middle" x="309.5" y="-119.5" font-family="Helvetica,sans-Serif" font-size="10.00">iostream</text>
</a>
</g>
</g>
<!-- Node2&#45;&gt;Node10 -->
<g id="edge9" class="edge">
<title>Node2&#45;&gt;Node10</title>
<path fill="none" stroke="midnightblue" d="M245.71,-168.32C257.28,-160.11 274.88,-147.6 288.66,-137.81"/>
<polygon fill="midnightblue" stroke="midnightblue" points="290.94,-140.48 297.07,-131.83 286.89,-134.77 290.94,-140.48"/>
</g>
<!-- Node11 -->
<g id="node11" class="node">
<title>Node11</title>
<g id="a_node11"><a xlink:title=" ">
<polygon fill="white" stroke="#bfbfbf" points="357.5,-112.5 357.5,-131.5 455.5,-131.5 455.5,-112.5 357.5,-112.5"/>
<text text-anchor="middle" x="406.5" y="-119.5" font-family="Helvetica,sans-Serif" font-size="10.00">impl/General.ipp</text>
</a>
</g>
</g>
<!-- Node2&#45;&gt;Node11 -->
<g id="edge10" class="edge">
<title>Node2&#45;&gt;Node11</title>
<path fill="none" stroke="midnightblue" d="M260.91,-168.44C290.27,-159.28 337.02,-144.69 369.6,-134.52"/>
<polygon fill="midnightblue" stroke="midnightblue" points="370.71,-137.84 379.22,-131.52 368.63,-131.16 370.71,-137.84"/>
</g>
<!-- Node5 -->
<g id="node5" class="node">
<title>Node5</title>
<g id="a_node5"><a xlink:title=" ">
<polygon fill="white" stroke="#bfbfbf" points="0,-56.5 0,-75.5 77,-75.5 77,-56.5 0,-56.5"/>
<text text-anchor="middle" x="38.5" y="-63.5" font-family="Helvetica,sans-Serif" font-size="10.00">Eigen/Dense</text>
</a>
</g>
</g>
<!-- Node4&#45;&gt;Node5 -->
<g id="edge4" class="edge">
<title>Node4&#45;&gt;Node5</title>
<path fill="none" stroke="midnightblue" d="M119.92,-112.32C104.5,-103.74 80.69,-90.49 62.79,-80.52"/>
<polygon fill="midnightblue" stroke="midnightblue" points="64.49,-77.46 54.05,-75.65 61.08,-83.58 64.49,-77.46"/>
</g>
<!-- Node6 -->
<g id="node6" class="node">
<title>Node6</title>
<g id="a_node6"><a xlink:title=" ">
<polygon fill="white" stroke="#bfbfbf" points="95.5,-56.5 95.5,-75.5 175.5,-75.5 175.5,-56.5 95.5,-56.5"/>
<text text-anchor="middle" x="135.5" y="-63.5" font-family="Helvetica,sans-Serif" font-size="10.00">Eigen/Sparse</text>
</a>
</g>
</g>
<!-- Node4&#45;&gt;Node6 -->
<g id="edge5" class="edge">
<title>Node4&#45;&gt;Node6</title>
<path fill="none" stroke="midnightblue" d="M135.5,-112.08C135.5,-105.01 135.5,-94.86 135.5,-85.99"/>
<polygon fill="midnightblue" stroke="midnightblue" points="139,-85.75 135.5,-75.75 132,-85.75 139,-85.75"/>
</g>
<!-- Node7 -->
<g id="node7" class="node">
<title>Node7</title>
<g id="a_node7"><a xlink:href="SFINAE_8hpp.html" target="_top" xlink:title="Contains all the SFINAE tricks.">
<polygon fill="white" stroke="black" points="194,-56.5 194,-75.5 267,-75.5 267,-56.5 194,-56.5"/>
<text text-anchor="middle" x="230.5" y="-63.5" font-family="Helvetica,sans-Serif" font-size="10.00">SFINAE.hpp</text>
</a>
</g>
</g>
<!-- Node4&#45;&gt;Node7 -->
<g id="edge6" class="edge">
<title>Node4&#45;&gt;Node7</title>
<path fill="none" stroke="midnightblue" d="M150.76,-112.32C165.72,-103.82 188.75,-90.73 206.23,-80.8"/>
<polygon fill="midnightblue" stroke="midnightblue" points="208.31,-83.64 215.27,-75.65 204.85,-77.55 208.31,-83.64"/>
</g>
<!-- Node8 -->
<g id="node8" class="node">
<title>Node8</title>
<g id="a_node8"><a xlink:title=" ">
<polygon fill="white" stroke="#bfbfbf" points="196,-0.5 196,-19.5 265,-19.5 265,-0.5 196,-0.5"/>
<text text-anchor="middle" x="230.5" y="-7.5" font-family="Helvetica,sans-Serif" font-size="10.00">type_traits</text>
</a>
</g>
</g>
<!-- Node7&#45;&gt;Node8 -->
<g id="edge7" class="edge">
<title>Node7&#45;&gt;Node8</title>
<path fill="none" stroke="midnightblue" d="M230.5,-56.08C230.5,-49.01 230.5,-38.86 230.5,-29.99"/>
<polygon fill="midnightblue" stroke="midnightblue" points="234,-29.75 230.5,-19.75 227,-29.75 234,-29.75"/>
</g>
</g>
</svg>
