<?xml version="1.0" encoding="UTF-8" standalone="no"?>
<!DOCTYPE svg PUBLIC "-//W3C//DTD SVG 1.1//EN"
 "http://www.w3.org/Graphics/SVG/1.1/DTD/svg11.dtd">
<!-- Generated by graphviz version 2.43.0 (0)
 -->
<!-- Title: Abelian.hpp Pages: 1 -->
<!--zoomable 532 -->
<svg id="main" version="1.1" xmlns="http://www.w3.org/2000/svg" xmlns:xlink="http://www.w3.org/1999/xlink" xml:space="preserve" onload="init(evt)">
<style type="text/css"><![CDATA[
.edge:hover path { stroke: red; }
.edge:hover polygon { stroke: red; fill: red; }
]]></style>
<script type="text/javascript"><![CDATA[
var edges = document.getElementsByTagName('g');
if (edges && edges.length) {
  for (var i=0;i<edges.length;i++) {
    if (edges[i].id.substr(0,4)=='edge') {
      edges[i].setAttribute('class','edge');
    }
  }
}
]]></script>
        <defs>
                <circle id="rim" cx="0" cy="0" r="7"/>
                <circle id="rim2" cx="0" cy="0" r="3.5"/>
                <g id="zoomPlus">
                        <use xlink:href="#rim" fill="#404040">
                                <set attributeName="fill" to="#808080" begin="zoomplus.mouseover" end="zoomplus.mouseout"/>
                        </use>
                        <path d="M-4,0h8M0,-4v8" fill="none" stroke="white" stroke-width="1.5" pointer-events="none"/>
                </g>
                <g id="zoomMin">
                        <use xlink:href="#rim" fill="#404040">
                                <set attributeName="fill" to="#808080" begin="zoomminus.mouseover" end="zoomminus.mouseout"/>
                        </use>
                        <path d="M-4,0h8" fill="none" stroke="white" stroke-width="1.5" pointer-events="none"/>
                </g>
                <g id="dirArrow">
                        <path fill="none" stroke="white" stroke-width="1.5" d="M0,-3.0v7 M-2.5,-0.5L0,-3.0L2.5,-0.5"/>
                </g>
               <g id="resetDef">
                       <use xlink:href="#rim2" fill="#404040">
                               <set attributeName="fill" to="#808080" begin="reset.mouseover" end="reset.mouseout"/>
                       </use>
               </g>
        </defs>

<script type="text/javascript">
var viewWidth = 361;
var viewHeight = 532;
var sectionId = 'dynsection-1';
</script>
<script xlink:href="svgpan.js"/>
<svg id="graph" class="graph">
<g id="viewport">
<title>Abelian.hpp</title>
<polygon fill="white" stroke="transparent" points="-4,4 -4,-528 357.23,-528 357.23,4 -4,4"/>
<!-- Node1 -->
<g id="node1" class="node">
<title>Node1</title>
<g id="a_node1"><a xlink:title="Contains the methods for finding the automorphisms of finitely generated abelian groups.">
<polygon fill="#bfbfbf" stroke="black" points="126.23,-504.5 126.23,-523.5 200.23,-523.5 200.23,-504.5 126.23,-504.5"/>
<text text-anchor="middle" x="163.23" y="-511.5" font-family="Helvetica,sans-Serif" font-size="10.00">Abelian.hpp</text>
</a>
</g>
</g>
<!-- Node2 -->
<g id="node2" class="node">
<title>Node2</title>
<g id="a_node2"><a xlink:href="Homology_8hpp.html" target="_top" xlink:title="Contains the Homology class and algorithms.">
<polygon fill="white" stroke="black" points="178.23,-448.5 178.23,-467.5 264.23,-467.5 264.23,-448.5 178.23,-448.5"/>
<text text-anchor="middle" x="221.23" y="-455.5" font-family="Helvetica,sans-Serif" font-size="10.00">Homology.hpp</text>
</a>
</g>
</g>
<!-- Node1&#45;&gt;Node2 -->
<g id="edge1" class="edge">
<title>Node1&#45;&gt;Node2</title>
<path fill="none" stroke="midnightblue" d="M180.14,-497.25C190.43,-487.67 203.2,-475.79 211.74,-467.83"/>
<polygon fill="midnightblue" stroke="midnightblue" points="177.48,-494.95 172.55,-504.32 182.25,-500.07 177.48,-494.95"/>
</g>
<!-- Node17 -->
<g id="node17" class="node">
<title>Node17</title>
<g id="a_node17"><a xlink:href="MackeyFunctor_8hpp.html" target="_top" xlink:title="Contains the class describing Mackey Functors.">
<polygon fill="white" stroke="black" points="50.23,-448.5 50.23,-467.5 160.23,-467.5 160.23,-448.5 50.23,-448.5"/>
<text text-anchor="middle" x="105.23" y="-455.5" font-family="Helvetica,sans-Serif" font-size="10.00">MackeyFunctor.hpp</text>
</a>
</g>
</g>
<!-- Node1&#45;&gt;Node17 -->
<g id="edge21" class="edge">
<title>Node1&#45;&gt;Node17</title>
<path fill="none" stroke="midnightblue" d="M146.32,-497.25C136.03,-487.67 123.27,-475.79 114.72,-467.83"/>
<polygon fill="midnightblue" stroke="midnightblue" points="144.21,-500.07 153.91,-504.32 148.98,-494.95 144.21,-500.07"/>
</g>
<!-- Node3 -->
<g id="node3" class="node">
<title>Node3</title>
<g id="a_node3"><a xlink:href="Identify_8hpp.html" target="_top" xlink:title="Contains the identification classes.">
<polygon fill="white" stroke="black" points="95.73,-392.5 95.73,-411.5 168.73,-411.5 168.73,-392.5 95.73,-392.5"/>
<text text-anchor="middle" x="132.23" y="-399.5" font-family="Helvetica,sans-Serif" font-size="10.00">Identify.hpp</text>
</a>
</g>
</g>
<!-- Node2&#45;&gt;Node3 -->
<g id="edge2" class="edge">
<title>Node2&#45;&gt;Node3</title>
<path fill="none" stroke="midnightblue" d="M197.99,-442.9C181.67,-433 160.37,-420.07 146.5,-411.65"/>
<polygon fill="midnightblue" stroke="midnightblue" points="196.57,-446.13 206.93,-448.32 200.2,-440.14 196.57,-446.13"/>
</g>
<!-- Node16 -->
<g id="node16" class="node">
<title>Node16</title>
<g id="a_node16"><a xlink:href="Levels_8hpp.html" target="_top" xlink:title="Contains the methods for transfering, restricting and Weyl&#45;group&#45;acting.">
<polygon fill="white" stroke="black" points="186.73,-392.5 186.73,-411.5 255.73,-411.5 255.73,-392.5 186.73,-392.5"/>
<text text-anchor="middle" x="221.23" y="-399.5" font-family="Helvetica,sans-Serif" font-size="10.00">Levels.hpp</text>
</a>
</g>
</g>
<!-- Node2&#45;&gt;Node16 -->
<g id="edge19" class="edge">
<title>Node2&#45;&gt;Node16</title>
<path fill="none" stroke="midnightblue" d="M221.23,-437.8C221.23,-428.91 221.23,-418.78 221.23,-411.75"/>
<polygon fill="midnightblue" stroke="midnightblue" points="217.73,-438.08 221.23,-448.08 224.73,-438.08 217.73,-438.08"/>
</g>
<!-- Node4 -->
<g id="node4" class="node">
<title>Node4</title>
<g id="a_node4"><a xlink:href="Green_8hpp.html" target="_top" xlink:title="Contains the class and methods for multiplying generators.">
<polygon fill="white" stroke="black" points="142.73,-336.5 142.73,-355.5 209.73,-355.5 209.73,-336.5 142.73,-336.5"/>
<text text-anchor="middle" x="176.23" y="-343.5" font-family="Helvetica,sans-Serif" font-size="10.00">Green.hpp</text>
</a>
</g>
</g>
<!-- Node3&#45;&gt;Node4 -->
<g id="edge3" class="edge">
<title>Node3&#45;&gt;Node4</title>
<path fill="none" stroke="midnightblue" d="M145.97,-384.14C153.63,-374.74 162.86,-363.4 169.1,-355.75"/>
<polygon fill="midnightblue" stroke="midnightblue" points="143.1,-382.12 139.5,-392.08 148.53,-386.54 143.1,-382.12"/>
</g>
<!-- Node5 -->
<g id="node5" class="node">
<title>Node5</title>
<g id="a_node5"><a xlink:href="Massey_8hpp.html" target="_top" xlink:title="Contains the class and methods for Massey Products.">
<polygon fill="white" stroke="black" points="139.23,-280.5 139.23,-299.5 213.23,-299.5 213.23,-280.5 139.23,-280.5"/>
<text text-anchor="middle" x="176.23" y="-287.5" font-family="Helvetica,sans-Serif" font-size="10.00">Massey.hpp</text>
</a>
</g>
</g>
<!-- Node4&#45;&gt;Node5 -->
<g id="edge4" class="edge">
<title>Node4&#45;&gt;Node5</title>
<path fill="none" stroke="midnightblue" d="M176.23,-325.8C176.23,-316.91 176.23,-306.78 176.23,-299.75"/>
<polygon fill="midnightblue" stroke="midnightblue" points="172.73,-326.08 176.23,-336.08 179.73,-326.08 172.73,-326.08"/>
</g>
<!-- Node6 -->
<g id="node6" class="node">
<title>Node6</title>
<g id="a_node6"><a xlink:href="Point_8hpp.html" target="_top" xlink:title="Contains the computations for RO(G) homology of a point.">
<polygon fill="white" stroke="black" points="145.23,-224.5 145.23,-243.5 207.23,-243.5 207.23,-224.5 145.23,-224.5"/>
<text text-anchor="middle" x="176.23" y="-231.5" font-family="Helvetica,sans-Serif" font-size="10.00">Point.hpp</text>
</a>
</g>
</g>
<!-- Node5&#45;&gt;Node6 -->
<g id="edge5" class="edge">
<title>Node5&#45;&gt;Node6</title>
<path fill="none" stroke="midnightblue" d="M176.23,-269.8C176.23,-260.91 176.23,-250.78 176.23,-243.75"/>
<polygon fill="midnightblue" stroke="midnightblue" points="172.73,-270.08 176.23,-280.08 179.73,-270.08 172.73,-270.08"/>
</g>
<!-- Node7 -->
<g id="node7" class="node">
<title>Node7</title>
<g id="a_node7"><a xlink:href="Mult__Table_8hpp.html" target="_top" xlink:title="Contains the class and methods to form the multiplication table.">
<polygon fill="white" stroke="black" points="131.23,-168.5 131.23,-187.5 221.23,-187.5 221.23,-168.5 131.23,-168.5"/>
<text text-anchor="middle" x="176.23" y="-175.5" font-family="Helvetica,sans-Serif" font-size="10.00">Mult_Table.hpp</text>
</a>
</g>
</g>
<!-- Node6&#45;&gt;Node7 -->
<g id="edge6" class="edge">
<title>Node6&#45;&gt;Node7</title>
<path fill="none" stroke="midnightblue" d="M176.23,-213.8C176.23,-204.91 176.23,-194.78 176.23,-187.75"/>
<polygon fill="midnightblue" stroke="midnightblue" points="172.73,-214.08 176.23,-224.08 179.73,-214.08 172.73,-214.08"/>
</g>
<!-- Node13 -->
<g id="node13" class="node">
<title>Node13</title>
<g id="a_node13"><a xlink:href="Additive_8hpp.html" target="_top" xlink:title="Contains the class for presenting the additive structure of the RO(G) homology.">
<polygon fill="white" stroke="black" points="275.23,-56.5 275.23,-75.5 353.23,-75.5 353.23,-56.5 275.23,-56.5"/>
<text text-anchor="middle" x="314.23" y="-63.5" font-family="Helvetica,sans-Serif" font-size="10.00">Additive.hpp</text>
</a>
</g>
</g>
<!-- Node6&#45;&gt;Node13 -->
<g id="edge13" class="edge">
<title>Node6&#45;&gt;Node13</title>
<path fill="none" stroke="midnightblue" d="M196.9,-217.92C207.47,-209.69 220.19,-198.97 230.23,-188 265.12,-149.9 297.25,-96.59 309.25,-75.79"/>
<polygon fill="midnightblue" stroke="midnightblue" points="194.48,-215.36 188.63,-224.19 198.71,-220.94 194.48,-215.36"/>
</g>
<!-- Node14 -->
<g id="node14" class="node">
<title>Node14</title>
<g id="a_node14"><a xlink:href="Space_8hpp.html" target="_top" xlink:title="File containing the class for spaces other than points!">
<polygon fill="white" stroke="black" points="29.73,-168.5 29.73,-187.5 96.73,-187.5 96.73,-168.5 29.73,-168.5"/>
<text text-anchor="middle" x="63.23" y="-175.5" font-family="Helvetica,sans-Serif" font-size="10.00">Space.hpp</text>
</a>
</g>
</g>
<!-- Node6&#45;&gt;Node14 -->
<g id="edge16" class="edge">
<title>Node6&#45;&gt;Node14</title>
<path fill="none" stroke="midnightblue" d="M149.23,-220.1C128.12,-210.01 99.37,-196.27 81.05,-187.52"/>
<polygon fill="midnightblue" stroke="midnightblue" points="147.79,-223.29 158.33,-224.44 150.81,-216.97 147.79,-223.29"/>
</g>
<!-- Node8 -->
<g id="node8" class="node">
<title>Node8</title>
<g id="a_node8"><a xlink:href="Mult__Graph_8hpp.html" target="_top" xlink:title="Contains the multiplication graph.">
<polygon fill="white" stroke="black" points="129.23,-112.5 129.23,-131.5 223.23,-131.5 223.23,-112.5 129.23,-112.5"/>
<text text-anchor="middle" x="176.23" y="-119.5" font-family="Helvetica,sans-Serif" font-size="10.00">Mult_Graph.hpp</text>
</a>
</g>
</g>
<!-- Node7&#45;&gt;Node8 -->
<g id="edge7" class="edge">
<title>Node7&#45;&gt;Node8</title>
<path fill="none" stroke="midnightblue" d="M176.23,-157.8C176.23,-148.91 176.23,-138.78 176.23,-131.75"/>
<polygon fill="midnightblue" stroke="midnightblue" points="172.73,-158.08 176.23,-168.08 179.73,-158.08 172.73,-158.08"/>
</g>
<!-- Node9 -->
<g id="node9" class="node">
<title>Node9</title>
<g id="a_node9"><a xlink:href="Factorization_8hpp.html" target="_top" xlink:title="Contains the multiplication graph and the methods for factorizing generators.">
<polygon fill="white" stroke="black" points="157.23,-56.5 157.23,-75.5 257.23,-75.5 257.23,-56.5 157.23,-56.5"/>
<text text-anchor="middle" x="207.23" y="-63.5" font-family="Helvetica,sans-Serif" font-size="10.00">Factorization.hpp</text>
</a>
</g>
</g>
<!-- Node8&#45;&gt;Node9 -->
<g id="edge8" class="edge">
<title>Node8&#45;&gt;Node9</title>
<path fill="none" stroke="midnightblue" d="M186.41,-103.27C191.71,-94.05 197.95,-83.17 202.21,-75.75"/>
<polygon fill="midnightblue" stroke="midnightblue" points="183.29,-101.67 181.35,-112.08 189.36,-105.15 183.29,-101.67"/>
</g>
<!-- Node12 -->
<g id="node12" class="node">
<title>Node12</title>
<g id="a_node12"><a xlink:href="Mult__Connectivity_8hpp.html" target="_top" xlink:title="Contains methods for the finding the connectivity of the multiplication graph should identification f...">
<polygon fill="white" stroke="black" points="13.73,-56.5 13.73,-75.5 138.73,-75.5 138.73,-56.5 13.73,-56.5"/>
<text text-anchor="middle" x="76.23" y="-63.5" font-family="Helvetica,sans-Serif" font-size="10.00">Mult_Connectivity.hpp</text>
</a>
</g>
</g>
<!-- Node8&#45;&gt;Node12 -->
<g id="edge11" class="edge">
<title>Node8&#45;&gt;Node12</title>
<path fill="none" stroke="midnightblue" d="M151.14,-107.45C132.68,-97.48 108.13,-84.23 92.26,-75.65"/>
<polygon fill="midnightblue" stroke="midnightblue" points="149.7,-110.65 160.16,-112.32 153.03,-104.49 149.7,-110.65"/>
</g>
<!-- Node10 -->
<g id="node10" class="node">
<title>Node10</title>
<g id="a_node10"><a xlink:href="Mackey_8hpp.html" target="_top" xlink:title="Includes the entire library.">
<polygon fill="white" stroke="black" points="109.23,-0.5 109.23,-19.5 183.23,-19.5 183.23,-0.5 109.23,-0.5"/>
<text text-anchor="middle" x="146.23" y="-7.5" font-family="Helvetica,sans-Serif" font-size="10.00">Mackey.hpp</text>
</a>
</g>
</g>
<!-- Node9&#45;&gt;Node10 -->
<g id="edge9" class="edge">
<title>Node9&#45;&gt;Node10</title>
<path fill="none" stroke="midnightblue" d="M189.76,-49.54C178.89,-39.91 165.29,-27.87 156.21,-19.83"/>
<polygon fill="midnightblue" stroke="midnightblue" points="187.62,-52.32 197.43,-56.32 192.26,-47.07 187.62,-52.32"/>
</g>
<!-- Node11 -->
<g id="node11" class="node">
<title>Node11</title>
<g id="a_node11"><a xlink:href="Cerealizer_8hpp.html" target="_top" xlink:title="Contains the methods for serializing the results of our computations (before their interpretation) vi...">
<polygon fill="white" stroke="black" points="217.23,-0.5 217.23,-19.5 303.23,-19.5 303.23,-0.5 217.23,-0.5"/>
<text text-anchor="middle" x="260.23" y="-7.5" font-family="Helvetica,sans-Serif" font-size="10.00">Cerealizer.hpp</text>
</a>
</g>
</g>
<!-- Node9&#45;&gt;Node11 -->
<g id="edge10" class="edge">
<title>Node9&#45;&gt;Node11</title>
<path fill="none" stroke="midnightblue" d="M223.21,-48.72C232.55,-39.2 243.98,-27.56 251.64,-19.75"/>
<polygon fill="midnightblue" stroke="midnightblue" points="220.49,-46.49 215.98,-56.08 225.49,-51.4 220.49,-46.49"/>
</g>
<!-- Node12&#45;&gt;Node10 -->
<g id="edge12" class="edge">
<title>Node12&#45;&gt;Node10</title>
<path fill="none" stroke="midnightblue" d="M95.54,-50.1C108.14,-40.38 124.16,-28.03 134.78,-19.83"/>
<polygon fill="midnightblue" stroke="midnightblue" points="93.26,-47.44 87.48,-56.32 97.53,-52.99 93.26,-47.44"/>
</g>
<!-- Node13&#45;&gt;Node10 -->
<g id="edge14" class="edge">
<title>Node13&#45;&gt;Node10</title>
<path fill="none" stroke="midnightblue" d="M277.84,-53.3C246.19,-43.13 201.06,-28.62 172.73,-19.52"/>
<polygon fill="midnightblue" stroke="midnightblue" points="277.02,-56.72 287.61,-56.44 279.16,-50.05 277.02,-56.72"/>
</g>
<!-- Node13&#45;&gt;Node11 -->
<g id="edge15" class="edge">
<title>Node13&#45;&gt;Node11</title>
<path fill="none" stroke="midnightblue" d="M298.23,-49C288.66,-39.43 276.87,-27.64 268.98,-19.75"/>
<polygon fill="midnightblue" stroke="midnightblue" points="295.77,-51.49 305.31,-56.08 300.72,-46.54 295.77,-51.49"/>
</g>
<!-- Node15 -->
<g id="node15" class="node">
<title>Node15</title>
<g id="a_node15"><a xlink:href="BC4S2_8hpp.html" target="_top" xlink:title=" ">
<polygon fill="white" stroke="black" points="11.73,-112.5 11.73,-131.5 80.73,-131.5 80.73,-112.5 11.73,-112.5"/>
<text text-anchor="middle" x="46.23" y="-119.5" font-family="Helvetica,sans-Serif" font-size="10.00">BC4S2.hpp</text>
</a>
</g>
</g>
<!-- Node14&#45;&gt;Node15 -->
<g id="edge17" class="edge">
<title>Node14&#45;&gt;Node15</title>
<path fill="none" stroke="midnightblue" d="M57.37,-158.4C54.53,-149.36 51.25,-138.94 48.99,-131.75"/>
<polygon fill="midnightblue" stroke="midnightblue" points="54.08,-159.6 60.42,-168.08 60.76,-157.49 54.08,-159.6"/>
</g>
<!-- Node15&#45;&gt;Node10 -->
<g id="edge18" class="edge">
<title>Node15&#45;&gt;Node10</title>
<path fill="none" stroke="midnightblue" d="M25.5,-106.03C9.53,-92.64 -7.93,-72.62 4.23,-56 28.06,-23.45 75.58,-13.86 109.07,-11.33"/>
<polygon fill="midnightblue" stroke="midnightblue" points="23.53,-108.93 33.55,-112.37 27.86,-103.44 23.53,-108.93"/>
</g>
<!-- Node16&#45;&gt;Node4 -->
<g id="edge20" class="edge">
<title>Node16&#45;&gt;Node4</title>
<path fill="none" stroke="midnightblue" d="M207.18,-384.14C199.34,-374.74 189.9,-363.4 183.52,-355.75"/>
<polygon fill="midnightblue" stroke="midnightblue" points="204.71,-386.64 213.8,-392.08 210.09,-382.16 204.71,-386.64"/>
</g>
<!-- Node17&#45;&gt;Node3 -->
<g id="edge22" class="edge">
<title>Node17&#45;&gt;Node3</title>
<path fill="none" stroke="midnightblue" d="M114.24,-438.98C118.82,-429.82 124.19,-419.09 127.86,-411.75"/>
<polygon fill="midnightblue" stroke="midnightblue" points="111.03,-437.57 109.69,-448.08 117.29,-440.7 111.03,-437.57"/>
</g>
</g>
</svg>
        <g id="navigator" transform="translate(0 0)" fill="#404254">
                <rect fill="#f2f5e9" fill-opacity="0.5" stroke="#606060" stroke-width=".5" x="0" y="0" width="60" height="60"/>
                <use id="zoomplus" xlink:href="#zoomPlus" x="17" y="9" onmousedown="handleZoom(evt,'in')"/>
                <use id="zoomminus" xlink:href="#zoomMin" x="42" y="9" onmousedown="handleZoom(evt,'out')"/>
                <use id="reset" xlink:href="#resetDef" x="30" y="36" onmousedown="handleReset()"/>
                <g id="arrowUp" xlink:href="#dirArrow" transform="translate(30 24)" onmousedown="handlePan(0,-1)">
                  <use xlink:href="#rim" fill="#404040">
                        <set attributeName="fill" to="#808080" begin="arrowUp.mouseover" end="arrowUp.mouseout"/>
                  </use>
                  <path fill="none" stroke="white" stroke-width="1.5" d="M0,-3.0v7 M-2.5,-0.5L0,-3.0L2.5,-0.5"/>
                </g>
                <g id="arrowRight" xlink:href="#dirArrow" transform="rotate(90) translate(36 -43)" onmousedown="handlePan(1,0)">
                  <use xlink:href="#rim" fill="#404040">
                        <set attributeName="fill" to="#808080" begin="arrowRight.mouseover" end="arrowRight.mouseout"/>
                  </use>
                  <path fill="none" stroke="white" stroke-width="1.5" d="M0,-3.0v7 M-2.5,-0.5L0,-3.0L2.5,-0.5"/>
                </g>
                <g id="arrowDown" xlink:href="#dirArrow" transform="rotate(180) translate(-30 -48)" onmousedown="handlePan(0,1)">
                  <use xlink:href="#rim" fill="#404040">
                        <set attributeName="fill" to="#808080" begin="arrowDown.mouseover" end="arrowDown.mouseout"/>
                  </use>
                  <path fill="none" stroke="white" stroke-width="1.5" d="M0,-3.0v7 M-2.5,-0.5L0,-3.0L2.5,-0.5"/>
                </g>
                <g id="arrowLeft" xlink:href="#dirArrow" transform="rotate(270) translate(-36 17)" onmousedown="handlePan(-1,0)">
                  <use xlink:href="#rim" fill="#404040">
                        <set attributeName="fill" to="#808080" begin="arrowLeft.mouseover" end="arrowLeft.mouseout"/>
                  </use>
                  <path fill="none" stroke="white" stroke-width="1.5" d="M0,-3.0v7 M-2.5,-0.5L0,-3.0L2.5,-0.5"/>
                </g>
        </g>
        <svg viewBox="0 0 15 15" width="100%" height="30px" preserveAspectRatio="xMaxYMin meet">
         <g id="arrow_out" transform="scale(0.3 0.3)">
          <a xlink:href="Abelian_8hpp__dep__incl_org.svg" target="_base">
           <rect id="button" ry="5" rx="5" y="6" x="6" height="38" width="38"
                fill="#f2f5e9" fill-opacity="0.5" stroke="#606060" stroke-width="1.0"/>
           <path id="arrow"
             d="M 11.500037,31.436501 C 11.940474,20.09759 22.043105,11.32322 32.158766,21.979434 L 37.068811,17.246167 C 37.068811,17.246167 37.088388,32 37.088388,32 L 22.160133,31.978069 C 22.160133,31.978069 26.997745,27.140456 26.997745,27.140456 C 18.528582,18.264221 13.291696,25.230495 11.500037,31.436501 z"
             style="fill:#404040;"/>
          </a>
         </g>
        </svg>
</svg>
