<?xml version="1.0" encoding="UTF-8" standalone="no"?>
<!DOCTYPE svg PUBLIC "-//W3C//DTD SVG 1.1//EN"
 "http://www.w3.org/Graphics/SVG/1.1/DTD/svg11.dtd">
<!-- Generated by graphviz version 2.43.0 (0)
 -->
<!-- Title: Aliases.hpp Pages: 1 -->
<svg width="275pt" height="140pt"
 viewBox="0.00 0.00 275.00 140.00" xmlns="http://www.w3.org/2000/svg" xmlns:xlink="http://www.w3.org/1999/xlink">
<g id="graph0" class="graph" transform="scale(1 1) rotate(0) translate(4 136)">
<title>Aliases.hpp</title>
<polygon fill="white" stroke="transparent" points="-4,4 -4,-136 271,-136 271,4 -4,4"/>
<!-- Node1 -->
<g id="node1" class="node">
<title>Node1</title>
<g id="a_node1"><a xlink:title="Contains general template aliases.">
<polygon fill="#bfbfbf" stroke="black" points="99,-112.5 99,-131.5 172,-131.5 172,-112.5 99,-112.5"/>
<text text-anchor="middle" x="135.5" y="-119.5" font-family="Helvetica,sans-Serif" font-size="10.00">Aliases.hpp</text>
</a>
</g>
</g>
<!-- Node2 -->
<g id="node2" class="node">
<title>Node2</title>
<g id="a_node2"><a xlink:title=" ">
<polygon fill="white" stroke="#bfbfbf" points="0,-56.5 0,-75.5 77,-75.5 77,-56.5 0,-56.5"/>
<text text-anchor="middle" x="38.5" y="-63.5" font-family="Helvetica,sans-Serif" font-size="10.00">Eigen/Dense</text>
</a>
</g>
</g>
<!-- Node1&#45;&gt;Node2 -->
<g id="edge1" class="edge">
<title>Node1&#45;&gt;Node2</title>
<path fill="none" stroke="midnightblue" d="M119.92,-112.32C104.5,-103.74 80.69,-90.49 62.79,-80.52"/>
<polygon fill="midnightblue" stroke="midnightblue" points="64.49,-77.46 54.05,-75.65 61.08,-83.58 64.49,-77.46"/>
</g>
<!-- Node3 -->
<g id="node3" class="node">
<title>Node3</title>
<g id="a_node3"><a xlink:title=" ">
<polygon fill="white" stroke="#bfbfbf" points="95.5,-56.5 95.5,-75.5 175.5,-75.5 175.5,-56.5 95.5,-56.5"/>
<text text-anchor="middle" x="135.5" y="-63.5" font-family="Helvetica,sans-Serif" font-size="10.00">Eigen/Sparse</text>
</a>
</g>
</g>
<!-- Node1&#45;&gt;Node3 -->
<g id="edge2" class="edge">
<title>Node1&#45;&gt;Node3</title>
<path fill="none" stroke="midnightblue" d="M135.5,-112.08C135.5,-105.01 135.5,-94.86 135.5,-85.99"/>
<polygon fill="midnightblue" stroke="midnightblue" points="139,-85.75 135.5,-75.75 132,-85.75 139,-85.75"/>
</g>
<!-- Node4 -->
<g id="node4" class="node">
<title>Node4</title>
<g id="a_node4"><a xlink:href="SFINAE_8hpp.html" target="_top" xlink:title="Contains all the SFINAE tricks.">
<polygon fill="white" stroke="black" points="194,-56.5 194,-75.5 267,-75.5 267,-56.5 194,-56.5"/>
<text text-anchor="middle" x="230.5" y="-63.5" font-family="Helvetica,sans-Serif" font-size="10.00">SFINAE.hpp</text>
</a>
</g>
</g>
<!-- Node1&#45;&gt;Node4 -->
<g id="edge3" class="edge">
<title>Node1&#45;&gt;Node4</title>
<path fill="none" stroke="midnightblue" d="M150.76,-112.32C165.72,-103.82 188.75,-90.73 206.23,-80.8"/>
<polygon fill="midnightblue" stroke="midnightblue" points="208.31,-83.64 215.27,-75.65 204.85,-77.55 208.31,-83.64"/>
</g>
<!-- Node5 -->
<g id="node5" class="node">
<title>Node5</title>
<g id="a_node5"><a xlink:title=" ">
<polygon fill="white" stroke="#bfbfbf" points="196,-0.5 196,-19.5 265,-19.5 265,-0.5 196,-0.5"/>
<text text-anchor="middle" x="230.5" y="-7.5" font-family="Helvetica,sans-Serif" font-size="10.00">type_traits</text>
</a>
</g>
</g>
<!-- Node4&#45;&gt;Node5 -->
<g id="edge4" class="edge">
<title>Node4&#45;&gt;Node5</title>
<path fill="none" stroke="midnightblue" d="M230.5,-56.08C230.5,-49.01 230.5,-38.86 230.5,-29.99"/>
<polygon fill="midnightblue" stroke="midnightblue" points="234,-29.75 230.5,-19.75 227,-29.75 234,-29.75"/>
</g>
</g>
</svg>
