<?xml version="1.0" encoding="UTF-8" standalone="no"?>
<!DOCTYPE svg PUBLIC "-//W3C//DTD SVG 1.1//EN"
 "http://www.w3.org/Graphics/SVG/1.1/DTD/svg11.dtd">
<!-- Generated by graphviz version 2.43.0 (0)
 -->
<!-- Title: Aliases.hpp Pages: 1 -->
<!--zoomable 700 -->
<svg id="main" version="1.1" xmlns="http://www.w3.org/2000/svg" xmlns:xlink="http://www.w3.org/1999/xlink" xml:space="preserve" onload="init(evt)">
<style type="text/css"><![CDATA[
.edge:hover path { stroke: red; }
.edge:hover polygon { stroke: red; fill: red; }
]]></style>
<script type="text/javascript"><![CDATA[
var edges = document.getElementsByTagName('g');
if (edges && edges.length) {
  for (var i=0;i<edges.length;i++) {
    if (edges[i].id.substr(0,4)=='edge') {
      edges[i].setAttribute('class','edge');
    }
  }
}
]]></script>
        <defs>
                <circle id="rim" cx="0" cy="0" r="7"/>
                <circle id="rim2" cx="0" cy="0" r="3.5"/>
                <g id="zoomPlus">
                        <use xlink:href="#rim" fill="#404040">
                                <set attributeName="fill" to="#808080" begin="zoomplus.mouseover" end="zoomplus.mouseout"/>
                        </use>
                        <path d="M-4,0h8M0,-4v8" fill="none" stroke="white" stroke-width="1.5" pointer-events="none"/>
                </g>
                <g id="zoomMin">
                        <use xlink:href="#rim" fill="#404040">
                                <set attributeName="fill" to="#808080" begin="zoomminus.mouseover" end="zoomminus.mouseout"/>
                        </use>
                        <path d="M-4,0h8" fill="none" stroke="white" stroke-width="1.5" pointer-events="none"/>
                </g>
                <g id="dirArrow">
                        <path fill="none" stroke="white" stroke-width="1.5" d="M0,-3.0v7 M-2.5,-0.5L0,-3.0L2.5,-0.5"/>
                </g>
               <g id="resetDef">
                       <use xlink:href="#rim2" fill="#404040">
                               <set attributeName="fill" to="#808080" begin="reset.mouseover" end="reset.mouseout"/>
                       </use>
               </g>
        </defs>

<script type="text/javascript">
var viewWidth = 515;
var viewHeight = 700;
var sectionId = 'dynsection-1';
</script>
<script xlink:href="svgpan.js"/>
<svg id="graph" class="graph">
<g id="viewport">
<title>Aliases.hpp</title>
<polygon fill="white" stroke="transparent" points="-4,4 -4,-696 511,-696 511,4 -4,4"/>
<!-- Node1 -->
<g id="node1" class="node">
<title>Node1</title>
<g id="a_node1"><a xlink:title="Contains general template aliases.">
<polygon fill="#bfbfbf" stroke="black" points="158.5,-672.5 158.5,-691.5 231.5,-691.5 231.5,-672.5 158.5,-672.5"/>
<text text-anchor="middle" x="195" y="-679.5" font-family="Helvetica,sans-Serif" font-size="10.00">Aliases.hpp</text>
</a>
</g>
</g>
<!-- Node2 -->
<g id="node2" class="node">
<title>Node2</title>
<g id="a_node2"><a xlink:href="Smith_8hpp.html" target="_top" xlink:title="Contains the base class for all Smith implementations.">
<polygon fill="white" stroke="black" points="118,-616.5 118,-635.5 184,-635.5 184,-616.5 118,-616.5"/>
<text text-anchor="middle" x="151" y="-623.5" font-family="Helvetica,sans-Serif" font-size="10.00">Smith.hpp</text>
</a>
</g>
</g>
<!-- Node1&#45;&gt;Node2 -->
<g id="edge1" class="edge">
<title>Node1&#45;&gt;Node2</title>
<path fill="none" stroke="midnightblue" d="M181.27,-664.14C173.6,-654.74 164.37,-643.4 158.13,-635.75"/>
<polygon fill="midnightblue" stroke="midnightblue" points="178.7,-666.54 187.73,-672.08 184.13,-662.12 178.7,-666.54"/>
</g>
<!-- Node19 -->
<g id="node19" class="node">
<title>Node19</title>
<g id="a_node19"><a xlink:href="General_8hpp.html" target="_top" xlink:title="Contains general functions and vector overloads independent of everything else.">
<polygon fill="white" stroke="black" points="210,-616.5 210,-635.5 286,-635.5 286,-616.5 210,-616.5"/>
<text text-anchor="middle" x="248" y="-623.5" font-family="Helvetica,sans-Serif" font-size="10.00">General.hpp</text>
</a>
</g>
</g>
<!-- Node1&#45;&gt;Node19 -->
<g id="edge24" class="edge">
<title>Node1&#45;&gt;Node19</title>
<path fill="none" stroke="midnightblue" d="M210.98,-664.72C220.32,-655.2 231.75,-643.56 239.41,-635.75"/>
<polygon fill="midnightblue" stroke="midnightblue" points="208.26,-662.49 203.75,-672.08 213.25,-667.4 208.26,-662.49"/>
</g>
<!-- Node3 -->
<g id="node3" class="node">
<title>Node3</title>
<g id="a_node3"><a xlink:href="Homology_8hpp.html" target="_top" xlink:title="Contains the Homology class and algorithms.">
<polygon fill="white" stroke="black" points="128,-504.5 128,-523.5 214,-523.5 214,-504.5 128,-504.5"/>
<text text-anchor="middle" x="171" y="-511.5" font-family="Helvetica,sans-Serif" font-size="10.00">Homology.hpp</text>
</a>
</g>
</g>
<!-- Node2&#45;&gt;Node3 -->
<g id="edge2" class="edge">
<title>Node2&#45;&gt;Node3</title>
<path fill="none" stroke="midnightblue" d="M153.57,-606.08C155.43,-593.08 158.1,-575.45 161,-560 163.39,-547.26 166.76,-532.62 168.91,-523.59"/>
<polygon fill="midnightblue" stroke="midnightblue" points="150.09,-605.75 152.17,-616.14 157.02,-606.72 150.09,-605.75"/>
</g>
<!-- Node4 -->
<g id="node4" class="node">
<title>Node4</title>
<g id="a_node4"><a xlink:href="Identify_8hpp.html" target="_top" xlink:title="Contains the identification classes.">
<polygon fill="white" stroke="black" points="45.5,-448.5 45.5,-467.5 118.5,-467.5 118.5,-448.5 45.5,-448.5"/>
<text text-anchor="middle" x="82" y="-455.5" font-family="Helvetica,sans-Serif" font-size="10.00">Identify.hpp</text>
</a>
</g>
</g>
<!-- Node3&#45;&gt;Node4 -->
<g id="edge3" class="edge">
<title>Node3&#45;&gt;Node4</title>
<path fill="none" stroke="midnightblue" d="M147.76,-498.9C131.44,-489 110.13,-476.07 96.26,-467.65"/>
<polygon fill="midnightblue" stroke="midnightblue" points="146.34,-502.13 156.7,-504.32 149.97,-496.14 146.34,-502.13"/>
</g>
<!-- Node18 -->
<g id="node18" class="node">
<title>Node18</title>
<g id="a_node18"><a xlink:href="Levels_8hpp.html" target="_top" xlink:title="Contains the methods for transfering, restricting and act&#45;group&#45;acting.">
<polygon fill="white" stroke="black" points="136.5,-448.5 136.5,-467.5 205.5,-467.5 205.5,-448.5 136.5,-448.5"/>
<text text-anchor="middle" x="171" y="-455.5" font-family="Helvetica,sans-Serif" font-size="10.00">Levels.hpp</text>
</a>
</g>
</g>
<!-- Node3&#45;&gt;Node18 -->
<g id="edge22" class="edge">
<title>Node3&#45;&gt;Node18</title>
<path fill="none" stroke="midnightblue" d="M171,-493.8C171,-484.91 171,-474.78 171,-467.75"/>
<polygon fill="midnightblue" stroke="midnightblue" points="167.5,-494.08 171,-504.08 174.5,-494.08 167.5,-494.08"/>
</g>
<!-- Node5 -->
<g id="node5" class="node">
<title>Node5</title>
<g id="a_node5"><a xlink:href="Green_8hpp.html" target="_top" xlink:title="Contains the class and methods for multiplying generators.">
<polygon fill="white" stroke="black" points="136.5,-392.5 136.5,-411.5 203.5,-411.5 203.5,-392.5 136.5,-392.5"/>
<text text-anchor="middle" x="170" y="-399.5" font-family="Helvetica,sans-Serif" font-size="10.00">Green.hpp</text>
</a>
</g>
</g>
<!-- Node4&#45;&gt;Node5 -->
<g id="edge4" class="edge">
<title>Node4&#45;&gt;Node5</title>
<path fill="none" stroke="midnightblue" d="M104.98,-442.9C121.11,-433 142.18,-420.07 155.9,-411.65"/>
<polygon fill="midnightblue" stroke="midnightblue" points="102.83,-440.11 96.14,-448.32 106.49,-446.08 102.83,-440.11"/>
</g>
<!-- Node6 -->
<g id="node6" class="node">
<title>Node6</title>
<g id="a_node6"><a xlink:href="Massey_8hpp.html" target="_top" xlink:title="Contains the class and methods for Massey Products.">
<polygon fill="white" stroke="black" points="132,-336.5 132,-355.5 206,-355.5 206,-336.5 132,-336.5"/>
<text text-anchor="middle" x="169" y="-343.5" font-family="Helvetica,sans-Serif" font-size="10.00">Massey.hpp</text>
</a>
</g>
</g>
<!-- Node5&#45;&gt;Node6 -->
<g id="edge5" class="edge">
<title>Node5&#45;&gt;Node6</title>
<path fill="none" stroke="midnightblue" d="M169.64,-381.8C169.48,-372.91 169.29,-362.78 169.16,-355.75"/>
<polygon fill="midnightblue" stroke="midnightblue" points="166.15,-382.15 169.83,-392.08 173.15,-382.02 166.15,-382.15"/>
</g>
<!-- Node7 -->
<g id="node7" class="node">
<title>Node7</title>
<g id="a_node7"><a xlink:href="Point_8hpp.html" target="_top" xlink:title="Contains the computations for RO(G) homology of a point.">
<polygon fill="white" stroke="black" points="138,-280.5 138,-299.5 200,-299.5 200,-280.5 138,-280.5"/>
<text text-anchor="middle" x="169" y="-287.5" font-family="Helvetica,sans-Serif" font-size="10.00">Point.hpp</text>
</a>
</g>
</g>
<!-- Node6&#45;&gt;Node7 -->
<g id="edge6" class="edge">
<title>Node6&#45;&gt;Node7</title>
<path fill="none" stroke="midnightblue" d="M169,-325.8C169,-316.91 169,-306.78 169,-299.75"/>
<polygon fill="midnightblue" stroke="midnightblue" points="165.5,-326.08 169,-336.08 172.5,-326.08 165.5,-326.08"/>
</g>
<!-- Node8 -->
<g id="node8" class="node">
<title>Node8</title>
<g id="a_node8"><a xlink:href="Mult__Table_8hpp.html" target="_top" xlink:title="Contains the classes mackey::MultTableData and mackey::MultTable that form the multiplication table.">
<polygon fill="white" stroke="black" points="279,-224.5 279,-243.5 369,-243.5 369,-224.5 279,-224.5"/>
<text text-anchor="middle" x="324" y="-231.5" font-family="Helvetica,sans-Serif" font-size="10.00">Mult_Table.hpp</text>
</a>
</g>
</g>
<!-- Node7&#45;&gt;Node8 -->
<g id="edge7" class="edge">
<title>Node7&#45;&gt;Node8</title>
<path fill="none" stroke="midnightblue" d="M203.33,-277.04C232.5,-266.88 273.64,-252.55 299.55,-243.52"/>
<polygon fill="midnightblue" stroke="midnightblue" points="201.85,-273.85 193.56,-280.44 204.16,-280.46 201.85,-273.85"/>
</g>
<!-- Node15 -->
<g id="node15" class="node">
<title>Node15</title>
<g id="a_node15"><a xlink:href="Additive_8hpp.html" target="_top" xlink:title="Contains the class for presenting the additive structure of the RO(G) homology.">
<polygon fill="white" stroke="black" points="63,-56.5 63,-75.5 141,-75.5 141,-56.5 63,-56.5"/>
<text text-anchor="middle" x="102" y="-63.5" font-family="Helvetica,sans-Serif" font-size="10.00">Additive.hpp</text>
</a>
</g>
</g>
<!-- Node7&#45;&gt;Node15 -->
<g id="edge16" class="edge">
<title>Node7&#45;&gt;Node15</title>
<path fill="none" stroke="midnightblue" d="M149.79,-273.87C141.08,-265.93 131.53,-255.48 126,-244 97.48,-184.77 99.74,-102.25 101.36,-75.64"/>
<polygon fill="midnightblue" stroke="midnightblue" points="147.53,-276.54 157.4,-280.4 152.09,-271.23 147.53,-276.54"/>
</g>
<!-- Node16 -->
<g id="node16" class="node">
<title>Node16</title>
<g id="a_node16"><a xlink:href="Space_8hpp.html" target="_top" xlink:title="File containing the class for spaces other than points!">
<polygon fill="white" stroke="black" points="135.5,-224.5 135.5,-243.5 202.5,-243.5 202.5,-224.5 135.5,-224.5"/>
<text text-anchor="middle" x="169" y="-231.5" font-family="Helvetica,sans-Serif" font-size="10.00">Space.hpp</text>
</a>
</g>
</g>
<!-- Node7&#45;&gt;Node16 -->
<g id="edge19" class="edge">
<title>Node7&#45;&gt;Node16</title>
<path fill="none" stroke="midnightblue" d="M169,-269.8C169,-260.91 169,-250.78 169,-243.75"/>
<polygon fill="midnightblue" stroke="midnightblue" points="165.5,-270.08 169,-280.08 172.5,-270.08 165.5,-270.08"/>
</g>
<!-- Node9 -->
<g id="node9" class="node">
<title>Node9</title>
<g id="a_node9"><a xlink:href="Mult__Graph_8hpp.html" target="_top" xlink:title="Contains the multiplication graph.">
<polygon fill="white" stroke="black" points="277,-168.5 277,-187.5 371,-187.5 371,-168.5 277,-168.5"/>
<text text-anchor="middle" x="324" y="-175.5" font-family="Helvetica,sans-Serif" font-size="10.00">Mult_Graph.hpp</text>
</a>
</g>
</g>
<!-- Node8&#45;&gt;Node9 -->
<g id="edge8" class="edge">
<title>Node8&#45;&gt;Node9</title>
<path fill="none" stroke="midnightblue" d="M324,-213.8C324,-204.91 324,-194.78 324,-187.75"/>
<polygon fill="midnightblue" stroke="midnightblue" points="320.5,-214.08 324,-224.08 327.5,-214.08 320.5,-214.08"/>
</g>
<!-- Node10 -->
<g id="node10" class="node">
<title>Node10</title>
<g id="a_node10"><a xlink:href="Factorization_8hpp.html" target="_top" xlink:title="Contains the multiplication graph and the methods for factorizing generators.">
<polygon fill="white" stroke="black" points="197,-56.5 197,-75.5 297,-75.5 297,-56.5 197,-56.5"/>
<text text-anchor="middle" x="247" y="-63.5" font-family="Helvetica,sans-Serif" font-size="10.00">Factorization.hpp</text>
</a>
</g>
</g>
<!-- Node9&#45;&gt;Node10 -->
<g id="edge9" class="edge">
<title>Node9&#45;&gt;Node10</title>
<path fill="none" stroke="midnightblue" d="M322.02,-158.06C319.85,-144.31 315.33,-125.79 306,-112 295.17,-95.99 276.78,-83.3 263.4,-75.52"/>
<polygon fill="midnightblue" stroke="midnightblue" points="318.59,-158.81 323.35,-168.27 325.53,-157.9 318.59,-158.81"/>
</g>
<!-- Node13 -->
<g id="node13" class="node">
<title>Node13</title>
<g id="a_node13"><a xlink:href="Mult__Connectivity_8hpp.html" target="_top" xlink:title="Contains methods for the finding the connectivity of the multiplication graph should identification f...">
<polygon fill="white" stroke="black" points="353.5,-112.5 353.5,-131.5 478.5,-131.5 478.5,-112.5 353.5,-112.5"/>
<text text-anchor="middle" x="416" y="-119.5" font-family="Helvetica,sans-Serif" font-size="10.00">Mult_Connectivity.hpp</text>
</a>
</g>
</g>
<!-- Node9&#45;&gt;Node13 -->
<g id="edge12" class="edge">
<title>Node9&#45;&gt;Node13</title>
<path fill="none" stroke="midnightblue" d="M347.55,-163.18C364.48,-153.24 386.78,-140.15 401.26,-131.65"/>
<polygon fill="midnightblue" stroke="midnightblue" points="345.63,-160.24 338.78,-168.32 349.18,-166.28 345.63,-160.24"/>
</g>
<!-- Node14 -->
<g id="node14" class="node">
<title>Node14</title>
<g id="a_node14"><a xlink:href="Mult__Identify_8hpp.html" target="_top" xlink:title="Contains extra identification methods for the multiplication graph.">
<polygon fill="white" stroke="black" points="197,-112.5 197,-131.5 297,-131.5 297,-112.5 197,-112.5"/>
<text text-anchor="middle" x="247" y="-119.5" font-family="Helvetica,sans-Serif" font-size="10.00">Mult_Identify.hpp</text>
</a>
</g>
</g>
<!-- Node9&#45;&gt;Node14 -->
<g id="edge14" class="edge">
<title>Node9&#45;&gt;Node14</title>
<path fill="none" stroke="midnightblue" d="M303.1,-162.34C289.09,-152.52 271.12,-139.91 259.34,-131.65"/>
<polygon fill="midnightblue" stroke="midnightblue" points="301.43,-165.45 311.63,-168.32 305.45,-159.72 301.43,-165.45"/>
</g>
<!-- Node11 -->
<g id="node11" class="node">
<title>Node11</title>
<g id="a_node11"><a xlink:href="Mackey_8hpp.html" target="_top" xlink:title="Includes the entire library.">
<polygon fill="white" stroke="black" points="210,-0.5 210,-19.5 284,-19.5 284,-0.5 210,-0.5"/>
<text text-anchor="middle" x="247" y="-7.5" font-family="Helvetica,sans-Serif" font-size="10.00">Mackey.hpp</text>
</a>
</g>
</g>
<!-- Node10&#45;&gt;Node11 -->
<g id="edge10" class="edge">
<title>Node10&#45;&gt;Node11</title>
<path fill="none" stroke="midnightblue" d="M247,-45.8C247,-36.91 247,-26.78 247,-19.75"/>
<polygon fill="midnightblue" stroke="midnightblue" points="243.5,-46.08 247,-56.08 250.5,-46.08 243.5,-46.08"/>
</g>
<!-- Node12 -->
<g id="node12" class="node">
<title>Node12</title>
<g id="a_node12"><a xlink:href="Cerealizer_8hpp.html" target="_top" xlink:title="Contains the methods for serializing the results of our computations (before their interpretation) vi...">
<polygon fill="white" stroke="black" points="83,-0.5 83,-19.5 169,-19.5 169,-0.5 83,-0.5"/>
<text text-anchor="middle" x="126" y="-7.5" font-family="Helvetica,sans-Serif" font-size="10.00">Cerealizer.hpp</text>
</a>
</g>
</g>
<!-- Node10&#45;&gt;Node12 -->
<g id="edge11" class="edge">
<title>Node10&#45;&gt;Node12</title>
<path fill="none" stroke="midnightblue" d="M218.69,-52.37C196.03,-42.26 164.87,-28.35 145.08,-19.52"/>
<polygon fill="midnightblue" stroke="midnightblue" points="217.27,-55.56 227.83,-56.44 220.12,-49.17 217.27,-55.56"/>
</g>
<!-- Node13&#45;&gt;Node11 -->
<g id="edge13" class="edge">
<title>Node13&#45;&gt;Node11</title>
<path fill="none" stroke="midnightblue" d="M394.05,-106.71C358.44,-83.53 289.14,-38.43 260.2,-19.59"/>
<polygon fill="midnightblue" stroke="midnightblue" points="392.45,-109.85 402.74,-112.37 396.27,-103.98 392.45,-109.85"/>
</g>
<!-- Node14&#45;&gt;Node10 -->
<g id="edge15" class="edge">
<title>Node14&#45;&gt;Node10</title>
<path fill="none" stroke="midnightblue" d="M247,-101.8C247,-92.91 247,-82.78 247,-75.75"/>
<polygon fill="midnightblue" stroke="midnightblue" points="243.5,-102.08 247,-112.08 250.5,-102.08 243.5,-102.08"/>
</g>
<!-- Node15&#45;&gt;Node11 -->
<g id="edge17" class="edge">
<title>Node15&#45;&gt;Node11</title>
<path fill="none" stroke="midnightblue" d="M134.48,-52.91C161.74,-42.75 199.99,-28.51 224.13,-19.52"/>
<polygon fill="midnightblue" stroke="midnightblue" points="133.13,-49.67 124.98,-56.44 135.57,-56.23 133.13,-49.67"/>
</g>
<!-- Node15&#45;&gt;Node12 -->
<g id="edge18" class="edge">
<title>Node15&#45;&gt;Node12</title>
<path fill="none" stroke="midnightblue" d="M110.14,-46.69C114.18,-37.59 118.88,-27.01 122.11,-19.75"/>
<polygon fill="midnightblue" stroke="midnightblue" points="106.83,-45.52 105.96,-56.08 113.22,-48.37 106.83,-45.52"/>
</g>
<!-- Node17 -->
<g id="node17" class="node">
<title>Node17</title>
<g id="a_node17"><a xlink:href="BC4S2_8hpp.html" target="_top" xlink:title=" ">
<polygon fill="white" stroke="black" points="134.5,-168.5 134.5,-187.5 203.5,-187.5 203.5,-168.5 134.5,-168.5"/>
<text text-anchor="middle" x="169" y="-175.5" font-family="Helvetica,sans-Serif" font-size="10.00">BC4S2.hpp</text>
</a>
</g>
</g>
<!-- Node16&#45;&gt;Node17 -->
<g id="edge20" class="edge">
<title>Node16&#45;&gt;Node17</title>
<path fill="none" stroke="midnightblue" d="M169,-213.8C169,-204.91 169,-194.78 169,-187.75"/>
<polygon fill="midnightblue" stroke="midnightblue" points="165.5,-214.08 169,-224.08 172.5,-214.08 165.5,-214.08"/>
</g>
<!-- Node17&#45;&gt;Node11 -->
<g id="edge21" class="edge">
<title>Node17&#45;&gt;Node11</title>
<path fill="none" stroke="midnightblue" d="M167.78,-158.03C167.06,-132.9 168.92,-88.01 188,-56 197.76,-39.62 215.96,-27.14 229.57,-19.52"/>
<polygon fill="midnightblue" stroke="midnightblue" points="164.3,-158.53 168.26,-168.36 171.3,-158.2 164.3,-158.53"/>
</g>
<!-- Node18&#45;&gt;Node5 -->
<g id="edge23" class="edge">
<title>Node18&#45;&gt;Node5</title>
<path fill="none" stroke="midnightblue" d="M170.64,-437.8C170.48,-428.91 170.29,-418.78 170.16,-411.75"/>
<polygon fill="midnightblue" stroke="midnightblue" points="167.15,-438.15 170.83,-448.08 174.15,-438.02 167.15,-438.15"/>
</g>
<!-- Node19&#45;&gt;Node3 -->
<g id="edge35" class="edge">
<title>Node19&#45;&gt;Node3</title>
<path fill="none" stroke="midnightblue" d="M245.65,-606.08C243.23,-592.34 238.41,-573.82 229,-560 218.24,-544.2 200.18,-531.46 187.06,-523.63"/>
<polygon fill="midnightblue" stroke="midnightblue" points="242.24,-606.91 247.17,-616.28 249.16,-605.87 242.24,-606.91"/>
</g>
<!-- Node19&#45;&gt;Node8 -->
<g id="edge27" class="edge">
<title>Node19&#45;&gt;Node8</title>
<path fill="none" stroke="midnightblue" d="M267.52,-609.85C290.04,-590.5 324,-554.72 324,-515 324,-515 324,-515 324,-345 324,-307.19 324,-262.06 324,-243.56"/>
<polygon fill="midnightblue" stroke="midnightblue" points="265.02,-607.37 259.54,-616.43 269.48,-612.76 265.02,-607.37"/>
</g>
<!-- Node20 -->
<g id="node20" class="node">
<title>Node20</title>
<g id="a_node20"><a xlink:href="Box_8hpp.html" target="_top" xlink:title="Contains the construction of box products of Chains.">
<polygon fill="white" stroke="black" points="237,-504.5 237,-523.5 293,-523.5 293,-504.5 237,-504.5"/>
<text text-anchor="middle" x="265" y="-511.5" font-family="Helvetica,sans-Serif" font-size="10.00">Box.hpp</text>
</a>
</g>
</g>
<!-- Node19&#45;&gt;Node20 -->
<g id="edge25" class="edge">
<title>Node19&#45;&gt;Node20</title>
<path fill="none" stroke="midnightblue" d="M254.86,-606.71C257.58,-598.64 260.43,-588.97 262,-580 265.48,-560.19 265.57,-536.51 265.3,-523.91"/>
<polygon fill="midnightblue" stroke="midnightblue" points="251.53,-605.61 251.47,-616.2 258.13,-607.96 251.53,-605.61"/>
</g>
<!-- Node21 -->
<g id="node21" class="node">
<title>Node21</title>
<g id="a_node21"><a xlink:href="C2n_8hpp.html" target="_top" xlink:title="Defines the groups .">
<polygon fill="white" stroke="black" points="415,-392.5 415,-411.5 471,-411.5 471,-392.5 415,-392.5"/>
<text text-anchor="middle" x="443" y="-399.5" font-family="Helvetica,sans-Serif" font-size="10.00">C2n.hpp</text>
</a>
</g>
</g>
<!-- Node19&#45;&gt;Node21 -->
<g id="edge28" class="edge">
<title>Node19&#45;&gt;Node21</title>
<path fill="none" stroke="midnightblue" d="M283.93,-612.61C301.69,-605.18 322.57,-594.36 338,-580 393.97,-527.91 429.74,-439.22 439.97,-411.52"/>
<polygon fill="midnightblue" stroke="midnightblue" points="282.43,-609.44 274.44,-616.38 285.02,-615.94 282.43,-609.44"/>
</g>
<!-- Node22 -->
<g id="node22" class="node">
<title>Node22</title>
<g id="a_node22"><a xlink:href="C4_8hpp.html" target="_top" xlink:title="Defines group .">
<polygon fill="white" stroke="black" points="170,-560.5 170,-579.5 220,-579.5 220,-560.5 170,-560.5"/>
<text text-anchor="middle" x="195" y="-567.5" font-family="Helvetica,sans-Serif" font-size="10.00">C4.hpp</text>
</a>
</g>
</g>
<!-- Node19&#45;&gt;Node22 -->
<g id="edge30" class="edge">
<title>Node19&#45;&gt;Node22</title>
<path fill="none" stroke="midnightblue" d="M232.02,-608.72C222.68,-599.2 211.25,-587.56 203.59,-579.75"/>
<polygon fill="midnightblue" stroke="midnightblue" points="229.75,-611.4 239.25,-616.08 234.74,-606.49 229.75,-611.4"/>
</g>
<!-- Node23 -->
<g id="node23" class="node">
<title>Node23</title>
<g id="a_node23"><a xlink:href="Abelian_8hpp.html" target="_top" xlink:title="Contains the methods for finding the automorphisms of finitely generated abelian groups.">
<polygon fill="white" stroke="black" points="40,-560.5 40,-579.5 114,-579.5 114,-560.5 40,-560.5"/>
<text text-anchor="middle" x="77" y="-567.5" font-family="Helvetica,sans-Serif" font-size="10.00">Abelian.hpp</text>
</a>
</g>
</g>
<!-- Node19&#45;&gt;Node23 -->
<g id="edge31" class="edge">
<title>Node19&#45;&gt;Node23</title>
<path fill="none" stroke="midnightblue" d="M210.96,-613.3C178.74,-603.13 132.81,-588.62 103.97,-579.52"/>
<polygon fill="midnightblue" stroke="midnightblue" points="210.31,-616.77 220.9,-616.44 212.42,-610.09 210.31,-616.77"/>
</g>
<!-- Node20&#45;&gt;Node5 -->
<g id="edge26" class="edge">
<title>Node20&#45;&gt;Node5</title>
<path fill="none" stroke="midnightblue" d="M252.54,-496.1C242.5,-482.74 227.83,-463.77 214,-448 202.48,-434.85 188.17,-420.56 179.06,-411.69"/>
<polygon fill="midnightblue" stroke="midnightblue" points="249.9,-498.42 258.68,-504.35 255.52,-494.24 249.9,-498.42"/>
</g>
<!-- Node21&#45;&gt;Node11 -->
<g id="edge29" class="edge">
<title>Node21&#45;&gt;Node11</title>
<path fill="none" stroke="midnightblue" d="M459.65,-384.99C478.61,-364.96 507,-328.67 507,-291 507,-291 507,-291 507,-121 507,-25.43 356.14,-11.63 284.25,-10.48"/>
<polygon fill="midnightblue" stroke="midnightblue" points="456.96,-382.73 452.44,-392.31 461.95,-387.64 456.96,-382.73"/>
</g>
<!-- Node23&#45;&gt;Node3 -->
<g id="edge32" class="edge">
<title>Node23&#45;&gt;Node3</title>
<path fill="none" stroke="midnightblue" d="M101.06,-555.18C118.36,-545.24 141.15,-532.15 155.93,-523.65"/>
<polygon fill="midnightblue" stroke="midnightblue" points="99.03,-552.31 92.1,-560.32 102.52,-558.38 99.03,-552.31"/>
</g>
<!-- Node24 -->
<g id="node24" class="node">
<title>Node24</title>
<g id="a_node24"><a xlink:href="MackeyFunctor_8hpp.html" target="_top" xlink:title="Contains the class describing Mackey Functors.">
<polygon fill="white" stroke="black" points="0,-504.5 0,-523.5 110,-523.5 110,-504.5 0,-504.5"/>
<text text-anchor="middle" x="55" y="-511.5" font-family="Helvetica,sans-Serif" font-size="10.00">MackeyFunctor.hpp</text>
</a>
</g>
</g>
<!-- Node23&#45;&gt;Node24 -->
<g id="edge33" class="edge">
<title>Node23&#45;&gt;Node24</title>
<path fill="none" stroke="midnightblue" d="M69.54,-550.69C65.83,-541.59 61.52,-531.01 58.57,-523.75"/>
<polygon fill="midnightblue" stroke="midnightblue" points="66.35,-552.14 73.37,-560.08 72.84,-549.5 66.35,-552.14"/>
</g>
<!-- Node24&#45;&gt;Node4 -->
<g id="edge34" class="edge">
<title>Node24&#45;&gt;Node4</title>
<path fill="none" stroke="midnightblue" d="M64.01,-494.98C68.59,-485.82 73.95,-475.09 77.62,-467.75"/>
<polygon fill="midnightblue" stroke="midnightblue" points="60.8,-493.57 59.46,-504.08 67.06,-496.7 60.8,-493.57"/>
</g>
</g>
</svg>
        <g id="navigator" transform="translate(0 0)" fill="#404254">
                <rect fill="#f2f5e9" fill-opacity="0.5" stroke="#606060" stroke-width=".5" x="0" y="0" width="60" height="60"/>
                <use id="zoomplus" xlink:href="#zoomPlus" x="17" y="9" onmousedown="handleZoom(evt,'in')"/>
                <use id="zoomminus" xlink:href="#zoomMin" x="42" y="9" onmousedown="handleZoom(evt,'out')"/>
                <use id="reset" xlink:href="#resetDef" x="30" y="36" onmousedown="handleReset()"/>
                <g id="arrowUp" xlink:href="#dirArrow" transform="translate(30 24)" onmousedown="handlePan(0,-1)">
                  <use xlink:href="#rim" fill="#404040">
                        <set attributeName="fill" to="#808080" begin="arrowUp.mouseover" end="arrowUp.mouseout"/>
                  </use>
                  <path fill="none" stroke="white" stroke-width="1.5" d="M0,-3.0v7 M-2.5,-0.5L0,-3.0L2.5,-0.5"/>
                </g>
                <g id="arrowRight" xlink:href="#dirArrow" transform="rotate(90) translate(36 -43)" onmousedown="handlePan(1,0)">
                  <use xlink:href="#rim" fill="#404040">
                        <set attributeName="fill" to="#808080" begin="arrowRight.mouseover" end="arrowRight.mouseout"/>
                  </use>
                  <path fill="none" stroke="white" stroke-width="1.5" d="M0,-3.0v7 M-2.5,-0.5L0,-3.0L2.5,-0.5"/>
                </g>
                <g id="arrowDown" xlink:href="#dirArrow" transform="rotate(180) translate(-30 -48)" onmousedown="handlePan(0,1)">
                  <use xlink:href="#rim" fill="#404040">
                        <set attributeName="fill" to="#808080" begin="arrowDown.mouseover" end="arrowDown.mouseout"/>
                  </use>
                  <path fill="none" stroke="white" stroke-width="1.5" d="M0,-3.0v7 M-2.5,-0.5L0,-3.0L2.5,-0.5"/>
                </g>
                <g id="arrowLeft" xlink:href="#dirArrow" transform="rotate(270) translate(-36 17)" onmousedown="handlePan(-1,0)">
                  <use xlink:href="#rim" fill="#404040">
                        <set attributeName="fill" to="#808080" begin="arrowLeft.mouseover" end="arrowLeft.mouseout"/>
                  </use>
                  <path fill="none" stroke="white" stroke-width="1.5" d="M0,-3.0v7 M-2.5,-0.5L0,-3.0L2.5,-0.5"/>
                </g>
        </g>
        <svg viewBox="0 0 15 15" width="100%" height="30px" preserveAspectRatio="xMaxYMin meet">
         <g id="arrow_out" transform="scale(0.3 0.3)">
          <a xlink:href="Aliases_8hpp__dep__incl_org.svg" target="_base">
           <rect id="button" ry="5" rx="5" y="6" x="6" height="38" width="38"
                fill="#f2f5e9" fill-opacity="0.5" stroke="#606060" stroke-width="1.0"/>
           <path id="arrow"
             d="M 11.500037,31.436501 C 11.940474,20.09759 22.043105,11.32322 32.158766,21.979434 L 37.068811,17.246167 C 37.068811,17.246167 37.088388,32 37.088388,32 L 22.160133,31.978069 C 22.160133,31.978069 26.997745,27.140456 26.997745,27.140456 C 18.528582,18.264221 13.291696,25.230495 11.500037,31.436501 z"
             style="fill:#404040;"/>
          </a>
         </g>
        </svg>
</svg>
