<?xml version="1.0" encoding="UTF-8" standalone="no"?>
<!DOCTYPE svg PUBLIC "-//W3C//DTD SVG 1.1//EN"
 "http://www.w3.org/Graphics/SVG/1.1/DTD/svg11.dtd">
<!-- Generated by graphviz version 2.43.0 (0)
 -->
<!-- Title: Aliases.hpp Pages: 1 -->
<svg width="509pt" height="644pt"
 viewBox="0.00 0.00 509.00 644.00" xmlns="http://www.w3.org/2000/svg" xmlns:xlink="http://www.w3.org/1999/xlink">
<g id="graph0" class="graph" transform="scale(1 1) rotate(0) translate(4 640)">
<title>Aliases.hpp</title>
<polygon fill="white" stroke="transparent" points="-4,4 -4,-640 505,-640 505,4 -4,4"/>
<!-- Node1 -->
<g id="node1" class="node">
<title>Node1</title>
<g id="a_node1"><a xlink:title="Contains general template aliases.">
<polygon fill="#bfbfbf" stroke="black" points="344.5,-616.5 344.5,-635.5 417.5,-635.5 417.5,-616.5 344.5,-616.5"/>
<text text-anchor="middle" x="381" y="-623.5" font-family="Helvetica,sans-Serif" font-size="10.00">Aliases.hpp</text>
</a>
</g>
</g>
<!-- Node2 -->
<g id="node2" class="node">
<title>Node2</title>
<g id="a_node2"><a xlink:href="Smith_8hpp.html" target="_top" xlink:title="Contains the base class for all Smith implementations.">
<polygon fill="white" stroke="black" points="401,-560.5 401,-579.5 467,-579.5 467,-560.5 401,-560.5"/>
<text text-anchor="middle" x="434" y="-567.5" font-family="Helvetica,sans-Serif" font-size="10.00">Smith.hpp</text>
</a>
</g>
</g>
<!-- Node1&#45;&gt;Node2 -->
<g id="edge1" class="edge">
<title>Node1&#45;&gt;Node2</title>
<path fill="none" stroke="midnightblue" d="M396.98,-608.72C406.32,-599.2 417.75,-587.56 425.41,-579.75"/>
<polygon fill="midnightblue" stroke="midnightblue" points="394.26,-606.49 389.75,-616.08 399.25,-611.4 394.26,-606.49"/>
</g>
<!-- Node18 -->
<g id="node18" class="node">
<title>Node18</title>
<g id="a_node18"><a xlink:href="General_8hpp.html" target="_top" xlink:title="Contains general functions and vector overloads independent of everything else.">
<polygon fill="white" stroke="black" points="299,-560.5 299,-579.5 375,-579.5 375,-560.5 299,-560.5"/>
<text text-anchor="middle" x="337" y="-567.5" font-family="Helvetica,sans-Serif" font-size="10.00">General.hpp</text>
</a>
</g>
</g>
<!-- Node1&#45;&gt;Node18 -->
<g id="edge22" class="edge">
<title>Node1&#45;&gt;Node18</title>
<path fill="none" stroke="midnightblue" d="M367.27,-608.14C359.6,-598.74 350.37,-587.4 344.13,-579.75"/>
<polygon fill="midnightblue" stroke="midnightblue" points="364.7,-610.54 373.73,-616.08 370.13,-606.12 364.7,-610.54"/>
</g>
<!-- Node3 -->
<g id="node3" class="node">
<title>Node3</title>
<g id="a_node3"><a xlink:href="Homology_8hpp.html" target="_top" xlink:title="Contains the Homology class and algorithms.">
<polygon fill="white" stroke="black" points="367,-448.5 367,-467.5 453,-467.5 453,-448.5 367,-448.5"/>
<text text-anchor="middle" x="410" y="-455.5" font-family="Helvetica,sans-Serif" font-size="10.00">Homology.hpp</text>
</a>
</g>
</g>
<!-- Node2&#45;&gt;Node3 -->
<g id="edge2" class="edge">
<title>Node2&#45;&gt;Node3</title>
<path fill="none" stroke="midnightblue" d="M431.83,-549.99C430.16,-536.96 427.54,-519.31 424,-504 421.02,-491.09 416.2,-476.5 413.07,-467.52"/>
<polygon fill="midnightblue" stroke="midnightblue" points="428.38,-550.58 433.06,-560.09 435.33,-549.74 428.38,-550.58"/>
</g>
<!-- Node4 -->
<g id="node4" class="node">
<title>Node4</title>
<g id="a_node4"><a xlink:href="Identify_8hpp.html" target="_top" xlink:title="Contains the identification classes.">
<polygon fill="white" stroke="black" points="264.5,-392.5 264.5,-411.5 337.5,-411.5 337.5,-392.5 264.5,-392.5"/>
<text text-anchor="middle" x="301" y="-399.5" font-family="Helvetica,sans-Serif" font-size="10.00">Identify.hpp</text>
</a>
</g>
</g>
<!-- Node3&#45;&gt;Node4 -->
<g id="edge3" class="edge">
<title>Node3&#45;&gt;Node4</title>
<path fill="none" stroke="midnightblue" d="M383.48,-443.86C363.27,-433.85 336.01,-420.35 318.47,-411.65"/>
<polygon fill="midnightblue" stroke="midnightblue" points="381.97,-447.02 392.49,-448.32 385.08,-440.75 381.97,-447.02"/>
</g>
<!-- Node17 -->
<g id="node17" class="node">
<title>Node17</title>
<g id="a_node17"><a xlink:href="Levels_8hpp.html" target="_top" xlink:title="Contains the methods for transfering, restricting and Weyl&#45;group&#45;acting.">
<polygon fill="white" stroke="black" points="362.5,-392.5 362.5,-411.5 431.5,-411.5 431.5,-392.5 362.5,-392.5"/>
<text text-anchor="middle" x="397" y="-399.5" font-family="Helvetica,sans-Serif" font-size="10.00">Levels.hpp</text>
</a>
</g>
</g>
<!-- Node3&#45;&gt;Node17 -->
<g id="edge20" class="edge">
<title>Node3&#45;&gt;Node17</title>
<path fill="none" stroke="midnightblue" d="M405.45,-438.1C403.29,-429.14 400.82,-418.86 399.11,-411.75"/>
<polygon fill="midnightblue" stroke="midnightblue" points="402.11,-439.18 407.85,-448.08 408.92,-437.54 402.11,-439.18"/>
</g>
<!-- Node5 -->
<g id="node5" class="node">
<title>Node5</title>
<g id="a_node5"><a xlink:href="Green_8hpp.html" target="_top" xlink:title="Contains the class and methods for multiplying generators.">
<polygon fill="white" stroke="black" points="267.5,-336.5 267.5,-355.5 334.5,-355.5 334.5,-336.5 267.5,-336.5"/>
<text text-anchor="middle" x="301" y="-343.5" font-family="Helvetica,sans-Serif" font-size="10.00">Green.hpp</text>
</a>
</g>
</g>
<!-- Node4&#45;&gt;Node5 -->
<g id="edge4" class="edge">
<title>Node4&#45;&gt;Node5</title>
<path fill="none" stroke="midnightblue" d="M301,-381.8C301,-372.91 301,-362.78 301,-355.75"/>
<polygon fill="midnightblue" stroke="midnightblue" points="297.5,-382.08 301,-392.08 304.5,-382.08 297.5,-382.08"/>
</g>
<!-- Node6 -->
<g id="node6" class="node">
<title>Node6</title>
<g id="a_node6"><a xlink:href="Massey_8hpp.html" target="_top" xlink:title="Contains the class and methods for Massey Products.">
<polygon fill="white" stroke="black" points="264,-280.5 264,-299.5 338,-299.5 338,-280.5 264,-280.5"/>
<text text-anchor="middle" x="301" y="-287.5" font-family="Helvetica,sans-Serif" font-size="10.00">Massey.hpp</text>
</a>
</g>
</g>
<!-- Node5&#45;&gt;Node6 -->
<g id="edge5" class="edge">
<title>Node5&#45;&gt;Node6</title>
<path fill="none" stroke="midnightblue" d="M301,-325.8C301,-316.91 301,-306.78 301,-299.75"/>
<polygon fill="midnightblue" stroke="midnightblue" points="297.5,-326.08 301,-336.08 304.5,-326.08 297.5,-326.08"/>
</g>
<!-- Node7 -->
<g id="node7" class="node">
<title>Node7</title>
<g id="a_node7"><a xlink:href="Point_8hpp.html" target="_top" xlink:title="Contains the computations for RO(G) homology of a point.">
<polygon fill="white" stroke="black" points="270,-224.5 270,-243.5 332,-243.5 332,-224.5 270,-224.5"/>
<text text-anchor="middle" x="301" y="-231.5" font-family="Helvetica,sans-Serif" font-size="10.00">Point.hpp</text>
</a>
</g>
</g>
<!-- Node6&#45;&gt;Node7 -->
<g id="edge6" class="edge">
<title>Node6&#45;&gt;Node7</title>
<path fill="none" stroke="midnightblue" d="M301,-269.8C301,-260.91 301,-250.78 301,-243.75"/>
<polygon fill="midnightblue" stroke="midnightblue" points="297.5,-270.08 301,-280.08 304.5,-270.08 297.5,-270.08"/>
</g>
<!-- Node8 -->
<g id="node8" class="node">
<title>Node8</title>
<g id="a_node8"><a xlink:href="Mult__Table_8hpp.html" target="_top" xlink:title="Contains the class and methods to form the multiplication table.">
<polygon fill="white" stroke="black" points="118,-168.5 118,-187.5 208,-187.5 208,-168.5 118,-168.5"/>
<text text-anchor="middle" x="163" y="-175.5" font-family="Helvetica,sans-Serif" font-size="10.00">Mult_Table.hpp</text>
</a>
</g>
</g>
<!-- Node7&#45;&gt;Node8 -->
<g id="edge7" class="edge">
<title>Node7&#45;&gt;Node8</title>
<path fill="none" stroke="midnightblue" d="M269.75,-220.77C243.83,-210.63 207.64,-196.47 184.76,-187.52"/>
<polygon fill="midnightblue" stroke="midnightblue" points="268.55,-224.06 279.13,-224.44 271.1,-217.54 268.55,-224.06"/>
</g>
<!-- Node14 -->
<g id="node14" class="node">
<title>Node14</title>
<g id="a_node14"><a xlink:href="Additive_8hpp.html" target="_top" xlink:title="Contains the class for presenting the additive structure of the RO(G) homology.">
<polygon fill="white" stroke="black" points="262,-56.5 262,-75.5 340,-75.5 340,-56.5 262,-56.5"/>
<text text-anchor="middle" x="301" y="-63.5" font-family="Helvetica,sans-Serif" font-size="10.00">Additive.hpp</text>
</a>
</g>
</g>
<!-- Node7&#45;&gt;Node14 -->
<g id="edge14" class="edge">
<title>Node7&#45;&gt;Node14</title>
<path fill="none" stroke="midnightblue" d="M301,-213.93C301,-177.92 301,-101.23 301,-75.57"/>
<polygon fill="midnightblue" stroke="midnightblue" points="297.5,-214.08 301,-224.08 304.5,-214.08 297.5,-214.08"/>
</g>
<!-- Node15 -->
<g id="node15" class="node">
<title>Node15</title>
<g id="a_node15"><a xlink:href="Space_8hpp.html" target="_top" xlink:title="File containing the class for spaces other than points!">
<polygon fill="white" stroke="black" points="331.5,-168.5 331.5,-187.5 398.5,-187.5 398.5,-168.5 331.5,-168.5"/>
<text text-anchor="middle" x="365" y="-175.5" font-family="Helvetica,sans-Serif" font-size="10.00">Space.hpp</text>
</a>
</g>
</g>
<!-- Node7&#45;&gt;Node15 -->
<g id="edge17" class="edge">
<title>Node7&#45;&gt;Node15</title>
<path fill="none" stroke="midnightblue" d="M318.99,-217.82C330.46,-208.15 344.91,-195.95 354.53,-187.83"/>
<polygon fill="midnightblue" stroke="midnightblue" points="316.67,-215.2 311.28,-224.32 321.18,-220.55 316.67,-215.2"/>
</g>
<!-- Node9 -->
<g id="node9" class="node">
<title>Node9</title>
<g id="a_node9"><a xlink:href="Mult__Graph_8hpp.html" target="_top" xlink:title="Contains the multiplication graph.">
<polygon fill="white" stroke="black" points="116,-112.5 116,-131.5 210,-131.5 210,-112.5 116,-112.5"/>
<text text-anchor="middle" x="163" y="-119.5" font-family="Helvetica,sans-Serif" font-size="10.00">Mult_Graph.hpp</text>
</a>
</g>
</g>
<!-- Node8&#45;&gt;Node9 -->
<g id="edge8" class="edge">
<title>Node8&#45;&gt;Node9</title>
<path fill="none" stroke="midnightblue" d="M163,-157.8C163,-148.91 163,-138.78 163,-131.75"/>
<polygon fill="midnightblue" stroke="midnightblue" points="159.5,-158.08 163,-168.08 166.5,-158.08 159.5,-158.08"/>
</g>
<!-- Node10 -->
<g id="node10" class="node">
<title>Node10</title>
<g id="a_node10"><a xlink:href="Factorization_8hpp.html" target="_top" xlink:title="Contains the multiplication graph and the methods for factorizing generators.">
<polygon fill="white" stroke="black" points="0,-56.5 0,-75.5 100,-75.5 100,-56.5 0,-56.5"/>
<text text-anchor="middle" x="50" y="-63.5" font-family="Helvetica,sans-Serif" font-size="10.00">Factorization.hpp</text>
</a>
</g>
</g>
<!-- Node9&#45;&gt;Node10 -->
<g id="edge9" class="edge">
<title>Node9&#45;&gt;Node10</title>
<path fill="none" stroke="midnightblue" d="M136,-108.1C114.89,-98.01 86.14,-84.27 67.82,-75.52"/>
<polygon fill="midnightblue" stroke="midnightblue" points="134.56,-111.29 145.09,-112.44 137.58,-104.97 134.56,-111.29"/>
</g>
<!-- Node13 -->
<g id="node13" class="node">
<title>Node13</title>
<g id="a_node13"><a xlink:href="Mult__Connectivity_8hpp.html" target="_top" xlink:title="Contains methods for the finding the connectivity of the multiplication graph should identification f...">
<polygon fill="white" stroke="black" points="118.5,-56.5 118.5,-75.5 243.5,-75.5 243.5,-56.5 118.5,-56.5"/>
<text text-anchor="middle" x="181" y="-63.5" font-family="Helvetica,sans-Serif" font-size="10.00">Mult_Connectivity.hpp</text>
</a>
</g>
</g>
<!-- Node9&#45;&gt;Node13 -->
<g id="edge12" class="edge">
<title>Node9&#45;&gt;Node13</title>
<path fill="none" stroke="midnightblue" d="M169.2,-102.4C172.21,-93.36 175.69,-82.94 178.08,-75.75"/>
<polygon fill="midnightblue" stroke="midnightblue" points="165.81,-101.49 165.97,-112.08 172.46,-103.7 165.81,-101.49"/>
</g>
<!-- Node11 -->
<g id="node11" class="node">
<title>Node11</title>
<g id="a_node11"><a xlink:href="Mackey_8hpp.html" target="_top" xlink:title="Includes the entire library.">
<polygon fill="white" stroke="black" points="264,-0.5 264,-19.5 338,-19.5 338,-0.5 264,-0.5"/>
<text text-anchor="middle" x="301" y="-7.5" font-family="Helvetica,sans-Serif" font-size="10.00">Mackey.hpp</text>
</a>
</g>
</g>
<!-- Node10&#45;&gt;Node11 -->
<g id="edge10" class="edge">
<title>Node10&#45;&gt;Node11</title>
<path fill="none" stroke="midnightblue" d="M99.7,-54.31C148.03,-43.91 220.35,-28.35 263.87,-18.99"/>
<polygon fill="midnightblue" stroke="midnightblue" points="98.81,-50.92 89.77,-56.44 100.28,-57.76 98.81,-50.92"/>
</g>
<!-- Node12 -->
<g id="node12" class="node">
<title>Node12</title>
<g id="a_node12"><a xlink:href="Cerealizer_8hpp.html" target="_top" xlink:title="Contains the methods for serializing the results of our computations (before their interpretation) vi...">
<polygon fill="white" stroke="black" points="84,-0.5 84,-19.5 170,-19.5 170,-0.5 84,-0.5"/>
<text text-anchor="middle" x="127" y="-7.5" font-family="Helvetica,sans-Serif" font-size="10.00">Cerealizer.hpp</text>
</a>
</g>
</g>
<!-- Node10&#45;&gt;Node12 -->
<g id="edge11" class="edge">
<title>Node10&#45;&gt;Node12</title>
<path fill="none" stroke="midnightblue" d="M70.9,-50.34C84.91,-40.52 102.88,-27.91 114.66,-19.65"/>
<polygon fill="midnightblue" stroke="midnightblue" points="68.55,-47.72 62.37,-56.32 72.57,-53.45 68.55,-47.72"/>
</g>
<!-- Node13&#45;&gt;Node11 -->
<g id="edge13" class="edge">
<title>Node13&#45;&gt;Node11</title>
<path fill="none" stroke="midnightblue" d="M209.37,-52.23C231.82,-42.13 262.54,-28.31 282.07,-19.52"/>
<polygon fill="midnightblue" stroke="midnightblue" points="207.7,-49.15 200.01,-56.44 210.57,-55.53 207.7,-49.15"/>
</g>
<!-- Node14&#45;&gt;Node11 -->
<g id="edge15" class="edge">
<title>Node14&#45;&gt;Node11</title>
<path fill="none" stroke="midnightblue" d="M301,-45.8C301,-36.91 301,-26.78 301,-19.75"/>
<polygon fill="midnightblue" stroke="midnightblue" points="297.5,-46.08 301,-56.08 304.5,-46.08 297.5,-46.08"/>
</g>
<!-- Node14&#45;&gt;Node12 -->
<g id="edge16" class="edge">
<title>Node14&#45;&gt;Node12</title>
<path fill="none" stroke="midnightblue" d="M263.74,-53.44C230.93,-43.26 183.92,-28.66 154.44,-19.52"/>
<polygon fill="midnightblue" stroke="midnightblue" points="262.84,-56.82 273.43,-56.44 264.92,-50.14 262.84,-56.82"/>
</g>
<!-- Node16 -->
<g id="node16" class="node">
<title>Node16</title>
<g id="a_node16"><a xlink:href="BC4S2_8hpp.html" target="_top" xlink:title=" ">
<polygon fill="white" stroke="black" points="331.5,-112.5 331.5,-131.5 400.5,-131.5 400.5,-112.5 331.5,-112.5"/>
<text text-anchor="middle" x="366" y="-119.5" font-family="Helvetica,sans-Serif" font-size="10.00">BC4S2.hpp</text>
</a>
</g>
</g>
<!-- Node15&#45;&gt;Node16 -->
<g id="edge18" class="edge">
<title>Node15&#45;&gt;Node16</title>
<path fill="none" stroke="midnightblue" d="M365.36,-157.8C365.52,-148.91 365.71,-138.78 365.84,-131.75"/>
<polygon fill="midnightblue" stroke="midnightblue" points="361.85,-158.02 365.17,-168.08 368.85,-158.15 361.85,-158.02"/>
</g>
<!-- Node16&#45;&gt;Node11 -->
<g id="edge19" class="edge">
<title>Node16&#45;&gt;Node11</title>
<path fill="none" stroke="midnightblue" d="M363.94,-102.33C361.78,-88.73 357.48,-70.25 349,-56 340.01,-40.88 324.46,-27.67 313.5,-19.54"/>
<polygon fill="midnightblue" stroke="midnightblue" points="360.49,-102.97 365.28,-112.42 367.43,-102.04 360.49,-102.97"/>
</g>
<!-- Node17&#45;&gt;Node5 -->
<g id="edge21" class="edge">
<title>Node17&#45;&gt;Node5</title>
<path fill="none" stroke="midnightblue" d="M372.43,-387.18C354.76,-377.24 331.49,-364.15 316.39,-355.65"/>
<polygon fill="midnightblue" stroke="midnightblue" points="371.14,-390.47 381.58,-392.32 374.58,-384.37 371.14,-390.47"/>
</g>
<!-- Node18&#45;&gt;Node3 -->
<g id="edge33" class="edge">
<title>Node18&#45;&gt;Node3</title>
<path fill="none" stroke="midnightblue" d="M339.49,-550.17C341.99,-536.48 346.84,-517.98 356,-504 366.17,-488.49 383.3,-475.53 395.54,-467.56"/>
<polygon fill="midnightblue" stroke="midnightblue" points="335.99,-549.91 337.9,-560.33 342.91,-550.99 335.99,-549.91"/>
</g>
<!-- Node18&#45;&gt;Node8 -->
<g id="edge25" class="edge">
<title>Node18&#45;&gt;Node8</title>
<path fill="none" stroke="midnightblue" d="M289,-563.66C229.83,-554.11 137,-528.11 137,-459 137,-459 137,-459 137,-289 137,-250.34 152.4,-206.04 159.49,-187.68"/>
<polygon fill="midnightblue" stroke="midnightblue" points="288.5,-567.13 298.91,-565.16 289.55,-560.21 288.5,-567.13"/>
</g>
<!-- Node19 -->
<g id="node19" class="node">
<title>Node19</title>
<g id="a_node19"><a xlink:href="Box_8hpp.html" target="_top" xlink:title="Contains the construction of box products of Chains.">
<polygon fill="white" stroke="black" points="165,-448.5 165,-467.5 221,-467.5 221,-448.5 165,-448.5"/>
<text text-anchor="middle" x="193" y="-455.5" font-family="Helvetica,sans-Serif" font-size="10.00">Box.hpp</text>
</a>
</g>
</g>
<!-- Node18&#45;&gt;Node19 -->
<g id="edge23" class="edge">
<title>Node18&#45;&gt;Node19</title>
<path fill="none" stroke="midnightblue" d="M289.29,-557.87C267.94,-550.97 243.66,-540.23 226,-524 208.85,-508.25 199.31,-481.56 195.29,-467.79"/>
<polygon fill="midnightblue" stroke="midnightblue" points="288.27,-561.22 298.85,-560.78 290.3,-554.52 288.27,-561.22"/>
</g>
<!-- Node20 -->
<g id="node20" class="node">
<title>Node20</title>
<g id="a_node20"><a xlink:href="C2n_8hpp.html" target="_top" xlink:title="Defines the groups .">
<polygon fill="white" stroke="black" points="445,-336.5 445,-355.5 501,-355.5 501,-336.5 445,-336.5"/>
<text text-anchor="middle" x="473" y="-343.5" font-family="Helvetica,sans-Serif" font-size="10.00">C2n.hpp</text>
</a>
</g>
</g>
<!-- Node18&#45;&gt;Node20 -->
<g id="edge26" class="edge">
<title>Node18&#45;&gt;Node20</title>
<path fill="none" stroke="midnightblue" d="M369.95,-556.62C387.32,-549 408.23,-538 424,-524 446.49,-504.03 451.87,-496.32 462,-468 476.35,-427.88 474.9,-375.74 473.65,-355.52"/>
<polygon fill="midnightblue" stroke="midnightblue" points="368.58,-553.4 360.72,-560.5 371.29,-559.85 368.58,-553.4"/>
</g>
<!-- Node21 -->
<g id="node21" class="node">
<title>Node21</title>
<g id="a_node21"><a xlink:href="C4_8hpp.html" target="_top" xlink:title="Defines group .">
<polygon fill="white" stroke="black" points="365,-504.5 365,-523.5 415,-523.5 415,-504.5 365,-504.5"/>
<text text-anchor="middle" x="390" y="-511.5" font-family="Helvetica,sans-Serif" font-size="10.00">C4.hpp</text>
</a>
</g>
</g>
<!-- Node18&#45;&gt;Node21 -->
<g id="edge28" class="edge">
<title>Node18&#45;&gt;Node21</title>
<path fill="none" stroke="midnightblue" d="M352.98,-552.72C362.32,-543.2 373.75,-531.56 381.41,-523.75"/>
<polygon fill="midnightblue" stroke="midnightblue" points="350.26,-550.49 345.75,-560.08 355.25,-555.4 350.26,-550.49"/>
</g>
<!-- Node22 -->
<g id="node22" class="node">
<title>Node22</title>
<g id="a_node22"><a xlink:href="Abelian_8hpp.html" target="_top" xlink:title="Contains the methods for finding the automorphisms of finitely generated abelian groups.">
<polygon fill="white" stroke="black" points="235,-504.5 235,-523.5 309,-523.5 309,-504.5 235,-504.5"/>
<text text-anchor="middle" x="272" y="-511.5" font-family="Helvetica,sans-Serif" font-size="10.00">Abelian.hpp</text>
</a>
</g>
</g>
<!-- Node18&#45;&gt;Node22 -->
<g id="edge29" class="edge">
<title>Node18&#45;&gt;Node22</title>
<path fill="none" stroke="midnightblue" d="M318.73,-553.82C307.08,-544.15 292.4,-531.95 282.63,-523.83"/>
<polygon fill="midnightblue" stroke="midnightblue" points="316.63,-556.63 326.56,-560.32 321.1,-551.24 316.63,-556.63"/>
</g>
<!-- Node19&#45;&gt;Node5 -->
<g id="edge24" class="edge">
<title>Node19&#45;&gt;Node5</title>
<path fill="none" stroke="midnightblue" d="M207.87,-441.11C220.33,-427.86 238.67,-408.54 255,-392 267.72,-379.12 282.76,-364.52 292.09,-355.54"/>
<polygon fill="midnightblue" stroke="midnightblue" points="205.22,-438.81 200.93,-448.5 210.33,-443.6 205.22,-438.81"/>
</g>
<!-- Node20&#45;&gt;Node11 -->
<g id="edge27" class="edge">
<title>Node20&#45;&gt;Node11</title>
<path fill="none" stroke="midnightblue" d="M464.89,-326.93C456,-305.47 443,-268.36 443,-235 443,-235 443,-235 443,-121 443,-65.02 373.19,-33.47 331.46,-19.6"/>
<polygon fill="midnightblue" stroke="midnightblue" points="461.78,-328.58 468.95,-336.38 468.21,-325.81 461.78,-328.58"/>
</g>
<!-- Node22&#45;&gt;Node3 -->
<g id="edge30" class="edge">
<title>Node22&#45;&gt;Node3</title>
<path fill="none" stroke="midnightblue" d="M303.25,-500.77C329.17,-490.63 365.36,-476.47 388.24,-467.52"/>
<polygon fill="midnightblue" stroke="midnightblue" points="301.9,-497.54 293.87,-504.44 304.45,-504.06 301.9,-497.54"/>
</g>
<!-- Node23 -->
<g id="node23" class="node">
<title>Node23</title>
<g id="a_node23"><a xlink:href="MackeyFunctor_8hpp.html" target="_top" xlink:title="Contains the class describing Mackey Functors.">
<polygon fill="white" stroke="black" points="239,-448.5 239,-467.5 349,-467.5 349,-448.5 239,-448.5"/>
<text text-anchor="middle" x="294" y="-455.5" font-family="Helvetica,sans-Serif" font-size="10.00">MackeyFunctor.hpp</text>
</a>
</g>
</g>
<!-- Node22&#45;&gt;Node23 -->
<g id="edge31" class="edge">
<title>Node22&#45;&gt;Node23</title>
<path fill="none" stroke="midnightblue" d="M279.46,-494.69C283.17,-485.59 287.48,-475.01 290.43,-467.75"/>
<polygon fill="midnightblue" stroke="midnightblue" points="276.16,-493.5 275.63,-504.08 282.65,-496.14 276.16,-493.5"/>
</g>
<!-- Node23&#45;&gt;Node4 -->
<g id="edge32" class="edge">
<title>Node23&#45;&gt;Node4</title>
<path fill="none" stroke="midnightblue" d="M296.45,-438.1C297.61,-429.14 298.94,-418.86 299.87,-411.75"/>
<polygon fill="midnightblue" stroke="midnightblue" points="292.97,-437.72 295.16,-448.08 299.91,-438.62 292.97,-437.72"/>
</g>
</g>
</svg>
