<?xml version="1.0" encoding="UTF-8" standalone="no"?>
<!DOCTYPE svg PUBLIC "-//W3C//DTD SVG 1.1//EN"
 "http://www.w3.org/Graphics/SVG/1.1/DTD/svg11.dtd">
<!-- Generated by graphviz version 2.43.0 (0)
 -->
<!-- Title: Aliases.hpp Pages: 1 -->
<svg width="479pt" height="700pt"
 viewBox="0.00 0.00 479.00 700.00" xmlns="http://www.w3.org/2000/svg" xmlns:xlink="http://www.w3.org/1999/xlink">
<g id="graph0" class="graph" transform="scale(1 1) rotate(0) translate(4 696)">
<title>Aliases.hpp</title>
<polygon fill="white" stroke="transparent" points="-4,4 -4,-696 475,-696 475,4 -4,4"/>
<!-- Node1 -->
<g id="node1" class="node">
<title>Node1</title>
<g id="a_node1"><a xlink:title="Contains general template aliases.">
<polygon fill="#bfbfbf" stroke="black" points="315.5,-672.5 315.5,-691.5 388.5,-691.5 388.5,-672.5 315.5,-672.5"/>
<text text-anchor="middle" x="352" y="-679.5" font-family="Helvetica,sans-Serif" font-size="10.00">Aliases.hpp</text>
</a>
</g>
</g>
<!-- Node2 -->
<g id="node2" class="node">
<title>Node2</title>
<g id="a_node2"><a xlink:href="Smith_8hpp.html" target="_top" xlink:title="Contains the class mackey::SmithNormalForm.">
<polygon fill="white" stroke="black" points="372,-616.5 372,-635.5 438,-635.5 438,-616.5 372,-616.5"/>
<text text-anchor="middle" x="405" y="-623.5" font-family="Helvetica,sans-Serif" font-size="10.00">Smith.hpp</text>
</a>
</g>
</g>
<!-- Node1&#45;&gt;Node2 -->
<g id="edge1" class="edge">
<title>Node1&#45;&gt;Node2</title>
<path fill="none" stroke="midnightblue" d="M367.98,-664.72C377.32,-655.2 388.75,-643.56 396.41,-635.75"/>
<polygon fill="midnightblue" stroke="midnightblue" points="365.26,-662.49 360.75,-672.08 370.25,-667.4 365.26,-662.49"/>
</g>
<!-- Node19 -->
<g id="node19" class="node">
<title>Node19</title>
<g id="a_node19"><a xlink:href="General_8hpp.html" target="_top" xlink:title="Contains general functions and vector overloads independent of everything else.">
<polygon fill="white" stroke="black" points="270,-616.5 270,-635.5 346,-635.5 346,-616.5 270,-616.5"/>
<text text-anchor="middle" x="308" y="-623.5" font-family="Helvetica,sans-Serif" font-size="10.00">General.hpp</text>
</a>
</g>
</g>
<!-- Node1&#45;&gt;Node19 -->
<g id="edge23" class="edge">
<title>Node1&#45;&gt;Node19</title>
<path fill="none" stroke="midnightblue" d="M338.27,-664.14C330.6,-654.74 321.37,-643.4 315.13,-635.75"/>
<polygon fill="midnightblue" stroke="midnightblue" points="335.7,-666.54 344.73,-672.08 341.13,-662.12 335.7,-666.54"/>
</g>
<!-- Node3 -->
<g id="node3" class="node">
<title>Node3</title>
<g id="a_node3"><a xlink:href="Homology_8hpp.html" target="_top" xlink:title="Contains the class mackey::Homology.">
<polygon fill="white" stroke="black" points="338,-504.5 338,-523.5 424,-523.5 424,-504.5 338,-504.5"/>
<text text-anchor="middle" x="381" y="-511.5" font-family="Helvetica,sans-Serif" font-size="10.00">Homology.hpp</text>
</a>
</g>
</g>
<!-- Node2&#45;&gt;Node3 -->
<g id="edge2" class="edge">
<title>Node2&#45;&gt;Node3</title>
<path fill="none" stroke="midnightblue" d="M402.83,-605.99C401.16,-592.96 398.54,-575.31 395,-560 392.02,-547.09 387.2,-532.5 384.07,-523.52"/>
<polygon fill="midnightblue" stroke="midnightblue" points="399.38,-606.58 404.06,-616.09 406.33,-605.74 399.38,-606.58"/>
</g>
<!-- Node4 -->
<g id="node4" class="node">
<title>Node4</title>
<g id="a_node4"><a xlink:href="Identify_8hpp.html" target="_top" xlink:title="Contains the classes mackey::IDGenerators and mackey::internal::IDGeneratorCompute">
<polygon fill="white" stroke="black" points="235.5,-448.5 235.5,-467.5 308.5,-467.5 308.5,-448.5 235.5,-448.5"/>
<text text-anchor="middle" x="272" y="-455.5" font-family="Helvetica,sans-Serif" font-size="10.00">Identify.hpp</text>
</a>
</g>
</g>
<!-- Node3&#45;&gt;Node4 -->
<g id="edge3" class="edge">
<title>Node3&#45;&gt;Node4</title>
<path fill="none" stroke="midnightblue" d="M354.48,-499.86C334.27,-489.85 307.01,-476.35 289.47,-467.65"/>
<polygon fill="midnightblue" stroke="midnightblue" points="352.97,-503.02 363.49,-504.32 356.08,-496.75 352.97,-503.02"/>
</g>
<!-- Node18 -->
<g id="node18" class="node">
<title>Node18</title>
<g id="a_node18"><a xlink:href="Levels_8hpp.html" target="_top" xlink:title="Contains the methods for transfering, restricting and Weyl&#45;group&#45;acting.">
<polygon fill="white" stroke="black" points="333.5,-448.5 333.5,-467.5 402.5,-467.5 402.5,-448.5 333.5,-448.5"/>
<text text-anchor="middle" x="368" y="-455.5" font-family="Helvetica,sans-Serif" font-size="10.00">Levels.hpp</text>
</a>
</g>
</g>
<!-- Node3&#45;&gt;Node18 -->
<g id="edge21" class="edge">
<title>Node3&#45;&gt;Node18</title>
<path fill="none" stroke="midnightblue" d="M376.45,-494.1C374.29,-485.14 371.82,-474.86 370.11,-467.75"/>
<polygon fill="midnightblue" stroke="midnightblue" points="373.11,-495.18 378.85,-504.08 379.92,-493.54 373.11,-495.18"/>
</g>
<!-- Node5 -->
<g id="node5" class="node">
<title>Node5</title>
<g id="a_node5"><a xlink:href="Green_8hpp.html" target="_top" xlink:title="Contains the classes mackey::Green, mackey::internal::GreenCompute, mackey::internal::ChainsLevelGen,...">
<polygon fill="white" stroke="black" points="238.5,-392.5 238.5,-411.5 305.5,-411.5 305.5,-392.5 238.5,-392.5"/>
<text text-anchor="middle" x="272" y="-399.5" font-family="Helvetica,sans-Serif" font-size="10.00">Green.hpp</text>
</a>
</g>
</g>
<!-- Node4&#45;&gt;Node5 -->
<g id="edge4" class="edge">
<title>Node4&#45;&gt;Node5</title>
<path fill="none" stroke="midnightblue" d="M272,-437.8C272,-428.91 272,-418.78 272,-411.75"/>
<polygon fill="midnightblue" stroke="midnightblue" points="268.5,-438.08 272,-448.08 275.5,-438.08 268.5,-438.08"/>
</g>
<!-- Node6 -->
<g id="node6" class="node">
<title>Node6</title>
<g id="a_node6"><a xlink:href="Massey_8hpp.html" target="_top" xlink:title="Contains the classes mackey::Massey and mackey::internal::MasseyCompute.">
<polygon fill="white" stroke="black" points="235,-336.5 235,-355.5 309,-355.5 309,-336.5 235,-336.5"/>
<text text-anchor="middle" x="272" y="-343.5" font-family="Helvetica,sans-Serif" font-size="10.00">Massey.hpp</text>
</a>
</g>
</g>
<!-- Node5&#45;&gt;Node6 -->
<g id="edge5" class="edge">
<title>Node5&#45;&gt;Node6</title>
<path fill="none" stroke="midnightblue" d="M272,-381.8C272,-372.91 272,-362.78 272,-355.75"/>
<polygon fill="midnightblue" stroke="midnightblue" points="268.5,-382.08 272,-392.08 275.5,-382.08 268.5,-382.08"/>
</g>
<!-- Node7 -->
<g id="node7" class="node">
<title>Node7</title>
<g id="a_node7"><a xlink:href="Point_8hpp.html" target="_top" xlink:title="Contains the methods computing the RO(G) homology of a point.">
<polygon fill="white" stroke="black" points="241,-280.5 241,-299.5 303,-299.5 303,-280.5 241,-280.5"/>
<text text-anchor="middle" x="272" y="-287.5" font-family="Helvetica,sans-Serif" font-size="10.00">Point.hpp</text>
</a>
</g>
</g>
<!-- Node6&#45;&gt;Node7 -->
<g id="edge6" class="edge">
<title>Node6&#45;&gt;Node7</title>
<path fill="none" stroke="midnightblue" d="M272,-325.8C272,-316.91 272,-306.78 272,-299.75"/>
<polygon fill="midnightblue" stroke="midnightblue" points="268.5,-326.08 272,-336.08 275.5,-326.08 268.5,-326.08"/>
</g>
<!-- Node8 -->
<g id="node8" class="node">
<title>Node8</title>
<g id="a_node8"><a xlink:href="Mult__Table_8hpp.html" target="_top" xlink:title="Contains the classes mackey::MultTableData and mackey::MultTable.">
<polygon fill="white" stroke="black" points="103,-224.5 103,-243.5 193,-243.5 193,-224.5 103,-224.5"/>
<text text-anchor="middle" x="148" y="-231.5" font-family="Helvetica,sans-Serif" font-size="10.00">Mult_Table.hpp</text>
</a>
</g>
</g>
<!-- Node7&#45;&gt;Node8 -->
<g id="edge7" class="edge">
<title>Node7&#45;&gt;Node8</title>
<path fill="none" stroke="midnightblue" d="M242.99,-276.37C219.77,-266.26 187.84,-252.35 167.56,-243.52"/>
<polygon fill="midnightblue" stroke="midnightblue" points="241.79,-279.66 252.35,-280.44 244.58,-273.24 241.79,-279.66"/>
</g>
<!-- Node15 -->
<g id="node15" class="node">
<title>Node15</title>
<g id="a_node15"><a xlink:href="Additive_8hpp.html" target="_top" xlink:title="Contains the class mackey::AdditiveStructure">
<polygon fill="white" stroke="black" points="229,-56.5 229,-75.5 307,-75.5 307,-56.5 229,-56.5"/>
<text text-anchor="middle" x="268" y="-63.5" font-family="Helvetica,sans-Serif" font-size="10.00">Additive.hpp</text>
</a>
</g>
</g>
<!-- Node7&#45;&gt;Node15 -->
<g id="edge15" class="edge">
<title>Node7&#45;&gt;Node15</title>
<path fill="none" stroke="midnightblue" d="M271.66,-270.3C270.84,-224.64 268.75,-108.85 268.16,-75.88"/>
<polygon fill="midnightblue" stroke="midnightblue" points="268.16,-270.36 271.84,-280.3 275.16,-270.24 268.16,-270.36"/>
</g>
<!-- Node16 -->
<g id="node16" class="node">
<title>Node16</title>
<g id="a_node16"><a xlink:href="Space_8hpp.html" target="_top" xlink:title="Contains the class mackey::Space.">
<polygon fill="white" stroke="black" points="301.5,-224.5 301.5,-243.5 368.5,-243.5 368.5,-224.5 301.5,-224.5"/>
<text text-anchor="middle" x="335" y="-231.5" font-family="Helvetica,sans-Serif" font-size="10.00">Space.hpp</text>
</a>
</g>
</g>
<!-- Node7&#45;&gt;Node16 -->
<g id="edge18" class="edge">
<title>Node7&#45;&gt;Node16</title>
<path fill="none" stroke="midnightblue" d="M290.04,-273.54C301.27,-263.91 315.32,-251.87 324.69,-243.83"/>
<polygon fill="midnightblue" stroke="midnightblue" points="287.44,-271.16 282.12,-280.32 291.99,-276.47 287.44,-271.16"/>
</g>
<!-- Node9 -->
<g id="node9" class="node">
<title>Node9</title>
<g id="a_node9"><a xlink:href="Mult__Graph_8hpp.html" target="_top" xlink:title="Contains the class mackey::MultGraph.">
<polygon fill="white" stroke="black" points="101,-168.5 101,-187.5 195,-187.5 195,-168.5 101,-168.5"/>
<text text-anchor="middle" x="148" y="-175.5" font-family="Helvetica,sans-Serif" font-size="10.00">Mult_Graph.hpp</text>
</a>
</g>
</g>
<!-- Node8&#45;&gt;Node9 -->
<g id="edge8" class="edge">
<title>Node8&#45;&gt;Node9</title>
<path fill="none" stroke="midnightblue" d="M148,-213.8C148,-204.91 148,-194.78 148,-187.75"/>
<polygon fill="midnightblue" stroke="midnightblue" points="144.5,-214.08 148,-224.08 151.5,-214.08 144.5,-214.08"/>
</g>
<!-- Node10 -->
<g id="node10" class="node">
<title>Node10</title>
<g id="a_node10"><a xlink:href="Mult__Connectivity_8hpp.html" target="_top" xlink:title="Contains the class mackey::MultConnectivity.">
<polygon fill="white" stroke="black" points="118.5,-112.5 118.5,-131.5 243.5,-131.5 243.5,-112.5 118.5,-112.5"/>
<text text-anchor="middle" x="181" y="-119.5" font-family="Helvetica,sans-Serif" font-size="10.00">Mult_Connectivity.hpp</text>
</a>
</g>
</g>
<!-- Node9&#45;&gt;Node10 -->
<g id="edge9" class="edge">
<title>Node9&#45;&gt;Node10</title>
<path fill="none" stroke="midnightblue" d="M158.83,-159.27C164.47,-150.05 171.12,-139.17 175.65,-131.75"/>
<polygon fill="midnightblue" stroke="midnightblue" points="155.68,-157.73 153.45,-168.08 161.65,-161.38 155.68,-157.73"/>
</g>
<!-- Node12 -->
<g id="node12" class="node">
<title>Node12</title>
<g id="a_node12"><a xlink:href="Mult__Identify_8hpp.html" target="_top" xlink:title="Contains the class mackey::MultIdentify.">
<polygon fill="white" stroke="black" points="0,-112.5 0,-131.5 100,-131.5 100,-112.5 0,-112.5"/>
<text text-anchor="middle" x="50" y="-119.5" font-family="Helvetica,sans-Serif" font-size="10.00">Mult_Identify.hpp</text>
</a>
</g>
</g>
<!-- Node9&#45;&gt;Node12 -->
<g id="edge11" class="edge">
<title>Node9&#45;&gt;Node12</title>
<path fill="none" stroke="midnightblue" d="M123.41,-163.45C105.32,-153.48 81.27,-140.23 65.71,-131.65"/>
<polygon fill="midnightblue" stroke="midnightblue" points="121.81,-166.56 132.25,-168.32 125.19,-160.43 121.81,-166.56"/>
</g>
<!-- Node11 -->
<g id="node11" class="node">
<title>Node11</title>
<g id="a_node11"><a xlink:href="Mackey_8hpp.html" target="_top" xlink:title="Includes the entire library apart from Serialization/Cerealizer.hpp.">
<polygon fill="white" stroke="black" points="231,-0.5 231,-19.5 305,-19.5 305,-0.5 231,-0.5"/>
<text text-anchor="middle" x="268" y="-7.5" font-family="Helvetica,sans-Serif" font-size="10.00">Mackey.hpp</text>
</a>
</g>
</g>
<!-- Node10&#45;&gt;Node11 -->
<g id="edge10" class="edge">
<title>Node10&#45;&gt;Node11</title>
<path fill="none" stroke="midnightblue" d="M190.11,-102.87C197.33,-89.32 208.14,-70.69 220,-56 231.33,-41.96 246.96,-28.11 257.27,-19.56"/>
<polygon fill="midnightblue" stroke="midnightblue" points="186.83,-101.6 185.34,-112.09 193.05,-104.82 186.83,-101.6"/>
</g>
<!-- Node13 -->
<g id="node13" class="node">
<title>Node13</title>
<g id="a_node13"><a xlink:href="Factorization_8hpp.html" target="_top" xlink:title="Contains the class mackey::Factorization.">
<polygon fill="white" stroke="black" points="73,-56.5 73,-75.5 173,-75.5 173,-56.5 73,-56.5"/>
<text text-anchor="middle" x="123" y="-63.5" font-family="Helvetica,sans-Serif" font-size="10.00">Factorization.hpp</text>
</a>
</g>
</g>
<!-- Node12&#45;&gt;Node13 -->
<g id="edge12" class="edge">
<title>Node12&#45;&gt;Node13</title>
<path fill="none" stroke="midnightblue" d="M70.14,-106.1C83.28,-96.38 99.98,-84.03 111.06,-75.83"/>
<polygon fill="midnightblue" stroke="midnightblue" points="67.69,-103.56 61.73,-112.32 71.85,-109.19 67.69,-103.56"/>
</g>
<!-- Node13&#45;&gt;Node11 -->
<g id="edge13" class="edge">
<title>Node13&#45;&gt;Node11</title>
<path fill="none" stroke="midnightblue" d="M155.48,-52.91C182.74,-42.75 220.99,-28.51 245.13,-19.52"/>
<polygon fill="midnightblue" stroke="midnightblue" points="154.13,-49.67 145.98,-56.44 156.57,-56.23 154.13,-49.67"/>
</g>
<!-- Node14 -->
<g id="node14" class="node">
<title>Node14</title>
<g id="a_node14"><a xlink:href="Cerealizer_8hpp.html" target="_top" xlink:title="Contains the methods for serializing the results of our computations via cereal.">
<polygon fill="white" stroke="black" points="104,-0.5 104,-19.5 190,-19.5 190,-0.5 104,-0.5"/>
<text text-anchor="middle" x="147" y="-7.5" font-family="Helvetica,sans-Serif" font-size="10.00">Cerealizer.hpp</text>
</a>
</g>
</g>
<!-- Node13&#45;&gt;Node14 -->
<g id="edge14" class="edge">
<title>Node13&#45;&gt;Node14</title>
<path fill="none" stroke="midnightblue" d="M131.14,-46.69C135.18,-37.59 139.88,-27.01 143.11,-19.75"/>
<polygon fill="midnightblue" stroke="midnightblue" points="127.83,-45.52 126.96,-56.08 134.22,-48.37 127.83,-45.52"/>
</g>
<!-- Node15&#45;&gt;Node11 -->
<g id="edge16" class="edge">
<title>Node15&#45;&gt;Node11</title>
<path fill="none" stroke="midnightblue" d="M268,-45.8C268,-36.91 268,-26.78 268,-19.75"/>
<polygon fill="midnightblue" stroke="midnightblue" points="264.5,-46.08 268,-56.08 271.5,-46.08 264.5,-46.08"/>
</g>
<!-- Node15&#45;&gt;Node14 -->
<g id="edge17" class="edge">
<title>Node15&#45;&gt;Node14</title>
<path fill="none" stroke="midnightblue" d="M239.69,-52.37C217.03,-42.26 185.87,-28.35 166.08,-19.52"/>
<polygon fill="midnightblue" stroke="midnightblue" points="238.27,-55.56 248.83,-56.44 241.12,-49.17 238.27,-55.56"/>
</g>
<!-- Node17 -->
<g id="node17" class="node">
<title>Node17</title>
<g id="a_node17"><a xlink:href="BC4S2_8hpp.html" target="_top" xlink:title="Contains the class mackey::BC4S2.">
<polygon fill="white" stroke="black" points="300.5,-168.5 300.5,-187.5 369.5,-187.5 369.5,-168.5 300.5,-168.5"/>
<text text-anchor="middle" x="335" y="-175.5" font-family="Helvetica,sans-Serif" font-size="10.00">BC4S2.hpp</text>
</a>
</g>
</g>
<!-- Node16&#45;&gt;Node17 -->
<g id="edge19" class="edge">
<title>Node16&#45;&gt;Node17</title>
<path fill="none" stroke="midnightblue" d="M335,-213.8C335,-204.91 335,-194.78 335,-187.75"/>
<polygon fill="midnightblue" stroke="midnightblue" points="331.5,-214.08 335,-224.08 338.5,-214.08 331.5,-214.08"/>
</g>
<!-- Node17&#45;&gt;Node11 -->
<g id="edge20" class="edge">
<title>Node17&#45;&gt;Node11</title>
<path fill="none" stroke="midnightblue" d="M335.72,-158.31C335.9,-133.48 333.43,-88.94 316,-56 307.88,-40.65 292.48,-27.67 281.31,-19.65"/>
<polygon fill="midnightblue" stroke="midnightblue" points="332.22,-158.42 335.49,-168.49 339.22,-158.58 332.22,-158.42"/>
</g>
<!-- Node18&#45;&gt;Node5 -->
<g id="edge22" class="edge">
<title>Node18&#45;&gt;Node5</title>
<path fill="none" stroke="midnightblue" d="M343.43,-443.18C325.76,-433.24 302.49,-420.15 287.39,-411.65"/>
<polygon fill="midnightblue" stroke="midnightblue" points="342.14,-446.47 352.58,-448.32 345.58,-440.37 342.14,-446.47"/>
</g>
<!-- Node19&#45;&gt;Node3 -->
<g id="edge34" class="edge">
<title>Node19&#45;&gt;Node3</title>
<path fill="none" stroke="midnightblue" d="M310.49,-606.17C312.99,-592.48 317.84,-573.98 327,-560 337.17,-544.49 354.3,-531.53 366.54,-523.56"/>
<polygon fill="midnightblue" stroke="midnightblue" points="306.99,-605.91 308.9,-616.33 313.91,-606.99 306.99,-605.91"/>
</g>
<!-- Node19&#45;&gt;Node8 -->
<g id="edge26" class="edge">
<title>Node19&#45;&gt;Node8</title>
<path fill="none" stroke="midnightblue" d="M260,-619.66C200.83,-610.11 108,-584.11 108,-515 108,-515 108,-515 108,-345 108,-305.17 131.45,-261.85 142.44,-243.73"/>
<polygon fill="midnightblue" stroke="midnightblue" points="259.5,-623.13 269.91,-621.16 260.55,-616.21 259.5,-623.13"/>
</g>
<!-- Node20 -->
<g id="node20" class="node">
<title>Node20</title>
<g id="a_node20"><a xlink:href="Box_8hpp.html" target="_top" xlink:title="Contains the class mackey::Tensor.">
<polygon fill="white" stroke="black" points="136,-504.5 136,-523.5 192,-523.5 192,-504.5 136,-504.5"/>
<text text-anchor="middle" x="164" y="-511.5" font-family="Helvetica,sans-Serif" font-size="10.00">Box.hpp</text>
</a>
</g>
</g>
<!-- Node19&#45;&gt;Node20 -->
<g id="edge24" class="edge">
<title>Node19&#45;&gt;Node20</title>
<path fill="none" stroke="midnightblue" d="M260.29,-613.87C238.94,-606.97 214.66,-596.23 197,-580 179.85,-564.25 170.31,-537.56 166.29,-523.79"/>
<polygon fill="midnightblue" stroke="midnightblue" points="259.27,-617.22 269.85,-616.78 261.3,-610.52 259.27,-617.22"/>
</g>
<!-- Node21 -->
<g id="node21" class="node">
<title>Node21</title>
<g id="a_node21"><a xlink:href="C2n_8hpp.html" target="_top" xlink:title="Defines the groups &#160;via mackey::C2Power.">
<polygon fill="white" stroke="black" points="415,-392.5 415,-411.5 471,-411.5 471,-392.5 415,-392.5"/>
<text text-anchor="middle" x="443" y="-399.5" font-family="Helvetica,sans-Serif" font-size="10.00">C2n.hpp</text>
</a>
</g>
</g>
<!-- Node19&#45;&gt;Node21 -->
<g id="edge27" class="edge">
<title>Node19&#45;&gt;Node21</title>
<path fill="none" stroke="midnightblue" d="M340.95,-612.62C358.32,-605 379.23,-594 395,-580 417.49,-560.03 422.99,-552.36 433,-524 447.17,-483.85 445.21,-431.72 443.74,-411.52"/>
<polygon fill="midnightblue" stroke="midnightblue" points="339.58,-609.4 331.72,-616.5 342.29,-615.85 339.58,-609.4"/>
</g>
<!-- Node22 -->
<g id="node22" class="node">
<title>Node22</title>
<g id="a_node22"><a xlink:href="C4_8hpp.html" target="_top" xlink:title="Defines group &#160;via mackey::C_4.">
<polygon fill="white" stroke="black" points="336,-560.5 336,-579.5 386,-579.5 386,-560.5 336,-560.5"/>
<text text-anchor="middle" x="361" y="-567.5" font-family="Helvetica,sans-Serif" font-size="10.00">C4.hpp</text>
</a>
</g>
</g>
<!-- Node19&#45;&gt;Node22 -->
<g id="edge29" class="edge">
<title>Node19&#45;&gt;Node22</title>
<path fill="none" stroke="midnightblue" d="M323.98,-608.72C333.32,-599.2 344.75,-587.56 352.41,-579.75"/>
<polygon fill="midnightblue" stroke="midnightblue" points="321.26,-606.49 316.75,-616.08 326.25,-611.4 321.26,-606.49"/>
</g>
<!-- Node23 -->
<g id="node23" class="node">
<title>Node23</title>
<g id="a_node23"><a xlink:href="Abelian_8hpp.html" target="_top" xlink:title="Contains the class mackey::AbelianGroup.">
<polygon fill="white" stroke="black" points="206,-560.5 206,-579.5 280,-579.5 280,-560.5 206,-560.5"/>
<text text-anchor="middle" x="243" y="-567.5" font-family="Helvetica,sans-Serif" font-size="10.00">Abelian.hpp</text>
</a>
</g>
</g>
<!-- Node19&#45;&gt;Node23 -->
<g id="edge30" class="edge">
<title>Node19&#45;&gt;Node23</title>
<path fill="none" stroke="midnightblue" d="M289.73,-609.82C278.08,-600.15 263.4,-587.95 253.63,-579.83"/>
<polygon fill="midnightblue" stroke="midnightblue" points="287.63,-612.63 297.56,-616.32 292.1,-607.24 287.63,-612.63"/>
</g>
<!-- Node20&#45;&gt;Node5 -->
<g id="edge25" class="edge">
<title>Node20&#45;&gt;Node5</title>
<path fill="none" stroke="midnightblue" d="M178.87,-497.11C191.33,-483.86 209.67,-464.54 226,-448 238.72,-435.12 253.76,-420.52 263.09,-411.54"/>
<polygon fill="midnightblue" stroke="midnightblue" points="176.22,-494.81 171.93,-504.5 181.33,-499.6 176.22,-494.81"/>
</g>
<!-- Node21&#45;&gt;Node11 -->
<g id="edge28" class="edge">
<title>Node21&#45;&gt;Node11</title>
<path fill="none" stroke="midnightblue" d="M434.89,-382.93C426,-361.47 413,-324.36 413,-291 413,-291 413,-291 413,-121 413,-64.44 342.11,-33.2 299.46,-19.52"/>
<polygon fill="midnightblue" stroke="midnightblue" points="431.78,-384.58 438.95,-392.38 438.21,-381.81 431.78,-384.58"/>
</g>
<!-- Node23&#45;&gt;Node3 -->
<g id="edge31" class="edge">
<title>Node23&#45;&gt;Node3</title>
<path fill="none" stroke="midnightblue" d="M274.25,-556.77C300.17,-546.63 336.36,-532.47 359.24,-523.52"/>
<polygon fill="midnightblue" stroke="midnightblue" points="272.9,-553.54 264.87,-560.44 275.45,-560.06 272.9,-553.54"/>
</g>
<!-- Node24 -->
<g id="node24" class="node">
<title>Node24</title>
<g id="a_node24"><a xlink:href="MackeyFunctor_8hpp.html" target="_top" xlink:title="Contains the class mackey::MackeyFunctor.">
<polygon fill="white" stroke="black" points="210,-504.5 210,-523.5 320,-523.5 320,-504.5 210,-504.5"/>
<text text-anchor="middle" x="265" y="-511.5" font-family="Helvetica,sans-Serif" font-size="10.00">MackeyFunctor.hpp</text>
</a>
</g>
</g>
<!-- Node23&#45;&gt;Node24 -->
<g id="edge32" class="edge">
<title>Node23&#45;&gt;Node24</title>
<path fill="none" stroke="midnightblue" d="M250.46,-550.69C254.17,-541.59 258.48,-531.01 261.43,-523.75"/>
<polygon fill="midnightblue" stroke="midnightblue" points="247.16,-549.5 246.63,-560.08 253.65,-552.14 247.16,-549.5"/>
</g>
<!-- Node24&#45;&gt;Node4 -->
<g id="edge33" class="edge">
<title>Node24&#45;&gt;Node4</title>
<path fill="none" stroke="midnightblue" d="M267.45,-494.1C268.61,-485.14 269.94,-474.86 270.87,-467.75"/>
<polygon fill="midnightblue" stroke="midnightblue" points="263.97,-493.72 266.16,-504.08 270.91,-494.62 263.97,-493.72"/>
</g>
</g>
</svg>
