<?xml version="1.0" encoding="UTF-8" standalone="no"?>
<!DOCTYPE svg PUBLIC "-//W3C//DTD SVG 1.1//EN"
 "http://www.w3.org/Graphics/SVG/1.1/DTD/svg11.dtd">
<!-- Generated by graphviz version 2.43.0 (0)
 -->
<!-- Title: BC4S2.hpp Pages: 1 -->
<svg width="1353pt" height="644pt"
 viewBox="0.00 0.00 1352.50 644.00" xmlns="http://www.w3.org/2000/svg" xmlns:xlink="http://www.w3.org/1999/xlink">
<g id="graph0" class="graph" transform="scale(1 1) rotate(0) translate(4 640)">
<title>BC4S2.hpp</title>
<polygon fill="white" stroke="transparent" points="-4,4 -4,-640 1348.5,-640 1348.5,4 -4,4"/>
<!-- Node1 -->
<g id="node1" class="node">
<title>Node1</title>
<g id="a_node1"><a xlink:title="Contains the class mackey::BC4S2.">
<polygon fill="#bfbfbf" stroke="black" points="698,-616.5 698,-635.5 767,-635.5 767,-616.5 698,-616.5"/>
<text text-anchor="middle" x="732.5" y="-623.5" font-family="Helvetica,sans-Serif" font-size="10.00">BC4S2.hpp</text>
</a>
</g>
</g>
<!-- Node2 -->
<g id="node2" class="node">
<title>Node2</title>
<g id="a_node2"><a xlink:href="Space_8hpp.html" target="_top" xlink:title="Contains the class mackey::Space.">
<polygon fill="white" stroke="black" points="521,-560.5 521,-579.5 588,-579.5 588,-560.5 521,-560.5"/>
<text text-anchor="middle" x="554.5" y="-567.5" font-family="Helvetica,sans-Serif" font-size="10.00">Space.hpp</text>
</a>
</g>
</g>
<!-- Node1&#45;&gt;Node2 -->
<g id="edge1" class="edge">
<title>Node1&#45;&gt;Node2</title>
<path fill="none" stroke="midnightblue" d="M704.3,-616.44C674.09,-607.28 625.99,-592.69 592.47,-582.52"/>
<polygon fill="midnightblue" stroke="midnightblue" points="593.16,-579.07 582.57,-579.52 591.13,-585.77 593.16,-579.07"/>
</g>
<!-- Node45 -->
<g id="node45" class="node">
<title>Node45</title>
<g id="a_node45"><a xlink:href="Generators_8hpp.html" target="_top" xlink:title="Contains classes for generating permutations, combinations and a factory for such classes.">
<polygon fill="white" stroke="black" points="664,-168.5 664,-187.5 789,-187.5 789,-168.5 664,-168.5"/>
<text text-anchor="middle" x="726.5" y="-175.5" font-family="Helvetica,sans-Serif" font-size="10.00">Utility/Generators.hpp</text>
</a>
</g>
</g>
<!-- Node1&#45;&gt;Node45 -->
<g id="edge57" class="edge">
<title>Node1&#45;&gt;Node45</title>
<path fill="none" stroke="midnightblue" d="M732.5,-616.44C732.5,-597.94 732.5,-552.81 732.5,-515 732.5,-515 732.5,-515 732.5,-289 732.5,-256.9 729.92,-219.61 728.14,-197.73"/>
<polygon fill="midnightblue" stroke="midnightblue" points="731.61,-197.22 727.28,-187.55 724.64,-197.81 731.61,-197.22"/>
</g>
<!-- Node47 -->
<g id="node47" class="node">
<title>Node47</title>
<g id="a_node47"><a xlink:title=" ">
<polygon fill="white" stroke="#bfbfbf" points="761,-560.5 761,-579.5 852,-579.5 852,-560.5 761,-560.5"/>
<text text-anchor="middle" x="806.5" y="-567.5" font-family="Helvetica,sans-Serif" font-size="10.00">impl/BC4S2.ipp</text>
</a>
</g>
</g>
<!-- Node1&#45;&gt;Node47 -->
<g id="edge62" class="edge">
<title>Node1&#45;&gt;Node47</title>
<path fill="none" stroke="midnightblue" d="M744.39,-616.32C755.65,-608.11 772.79,-595.6 786.21,-585.81"/>
<polygon fill="midnightblue" stroke="midnightblue" points="788.38,-588.56 794.39,-579.83 784.25,-582.9 788.38,-588.56"/>
</g>
<!-- Node3 -->
<g id="node3" class="node">
<title>Node3</title>
<g id="a_node3"><a xlink:href="Point_8hpp.html" target="_top" xlink:title="Contains the methods computing the RO(G) homology of a point.">
<polygon fill="white" stroke="black" points="523.5,-504.5 523.5,-523.5 585.5,-523.5 585.5,-504.5 523.5,-504.5"/>
<text text-anchor="middle" x="554.5" y="-511.5" font-family="Helvetica,sans-Serif" font-size="10.00">Point.hpp</text>
</a>
</g>
</g>
<!-- Node2&#45;&gt;Node3 -->
<g id="edge2" class="edge">
<title>Node2&#45;&gt;Node3</title>
<path fill="none" stroke="midnightblue" d="M554.5,-560.08C554.5,-553.01 554.5,-542.86 554.5,-533.99"/>
<polygon fill="midnightblue" stroke="midnightblue" points="558,-533.75 554.5,-523.75 551,-533.75 558,-533.75"/>
</g>
<!-- Node44 -->
<g id="node44" class="node">
<title>Node44</title>
<g id="a_node44"><a xlink:title=" ">
<polygon fill="white" stroke="#bfbfbf" points="417,-504.5 417,-523.5 506,-523.5 506,-504.5 417,-504.5"/>
<text text-anchor="middle" x="461.5" y="-511.5" font-family="Helvetica,sans-Serif" font-size="10.00">impl/Space.ipp</text>
</a>
</g>
</g>
<!-- Node2&#45;&gt;Node44 -->
<g id="edge56" class="edge">
<title>Node2&#45;&gt;Node44</title>
<path fill="none" stroke="midnightblue" d="M539.56,-560.32C524.91,-551.82 502.37,-538.73 485.26,-528.8"/>
<polygon fill="midnightblue" stroke="midnightblue" points="486.81,-525.65 476.4,-523.65 483.3,-531.7 486.81,-525.65"/>
</g>
<!-- Node4 -->
<g id="node4" class="node">
<title>Node4</title>
<g id="a_node4"><a xlink:href="Massey_8hpp.html" target="_top" xlink:title="Contains the classes mackey::Massey and mackey::internal::MasseyCompute.">
<polygon fill="white" stroke="black" points="555,-448.5 555,-467.5 674,-467.5 674,-448.5 555,-448.5"/>
<text text-anchor="middle" x="614.5" y="-455.5" font-family="Helvetica,sans-Serif" font-size="10.00">Products/Massey.hpp</text>
</a>
</g>
</g>
<!-- Node3&#45;&gt;Node4 -->
<g id="edge3" class="edge">
<title>Node3&#45;&gt;Node4</title>
<path fill="none" stroke="midnightblue" d="M564.14,-504.32C573.01,-496.34 586.37,-484.31 597.11,-474.65"/>
<polygon fill="midnightblue" stroke="midnightblue" points="599.59,-477.13 604.68,-467.83 594.91,-471.92 599.59,-477.13"/>
</g>
<!-- Node41 -->
<g id="node41" class="node">
<title>Node41</title>
<g id="a_node41"><a xlink:href="Morse_8hpp.html" target="_top" xlink:title="Contains the classes mackey::AMT and mackey::EquivariantAMT.">
<polygon fill="white" stroke="black" points="135.5,-224.5 135.5,-243.5 293.5,-243.5 293.5,-224.5 135.5,-224.5"/>
<text text-anchor="middle" x="214.5" y="-231.5" font-family="Helvetica,sans-Serif" font-size="10.00">Chain_Complexes/Morse.hpp</text>
</a>
</g>
</g>
<!-- Node3&#45;&gt;Node41 -->
<g id="edge51" class="edge">
<title>Node3&#45;&gt;Node41</title>
<path fill="none" stroke="midnightblue" d="M523.08,-505.19C459.48,-488.45 321.5,-447.06 321.5,-403 321.5,-403 321.5,-403 321.5,-345 321.5,-299.41 273.7,-265.62 241.99,-248.23"/>
<polygon fill="midnightblue" stroke="midnightblue" points="243.62,-245.13 233.14,-243.56 240.35,-251.32 243.62,-245.13"/>
</g>
<!-- Node43 -->
<g id="node43" class="node">
<title>Node43</title>
<g id="a_node43"><a xlink:title=" ">
<polygon fill="white" stroke="#bfbfbf" points="452.5,-448.5 452.5,-467.5 536.5,-467.5 536.5,-448.5 452.5,-448.5"/>
<text text-anchor="middle" x="494.5" y="-455.5" font-family="Helvetica,sans-Serif" font-size="10.00">impl/Point.ipp</text>
</a>
</g>
</g>
<!-- Node3&#45;&gt;Node43 -->
<g id="edge55" class="edge">
<title>Node3&#45;&gt;Node43</title>
<path fill="none" stroke="midnightblue" d="M544.86,-504.32C535.99,-496.34 522.63,-484.31 511.89,-474.65"/>
<polygon fill="midnightblue" stroke="midnightblue" points="514.09,-471.92 504.32,-467.83 509.41,-477.13 514.09,-471.92"/>
</g>
<!-- Node5 -->
<g id="node5" class="node">
<title>Node5</title>
<g id="a_node5"><a xlink:href="Green_8hpp.html" target="_top" xlink:title="Contains the classes mackey::Green, mackey::internal::GreenCompute, mackey::internal::ChainsLevelGen,...">
<polygon fill="white" stroke="black" points="503,-392.5 503,-411.5 570,-411.5 570,-392.5 503,-392.5"/>
<text text-anchor="middle" x="536.5" y="-399.5" font-family="Helvetica,sans-Serif" font-size="10.00">Green.hpp</text>
</a>
</g>
</g>
<!-- Node4&#45;&gt;Node5 -->
<g id="edge4" class="edge">
<title>Node4&#45;&gt;Node5</title>
<path fill="none" stroke="midnightblue" d="M601.97,-448.32C589.91,-439.98 571.47,-427.21 557.23,-417.35"/>
<polygon fill="midnightblue" stroke="midnightblue" points="559.22,-414.47 549,-411.65 555.23,-420.22 559.22,-414.47"/>
</g>
<!-- Node40 -->
<g id="node40" class="node">
<title>Node40</title>
<g id="a_node40"><a xlink:title=" ">
<polygon fill="white" stroke="#bfbfbf" points="588,-392.5 588,-411.5 683,-411.5 683,-392.5 588,-392.5"/>
<text text-anchor="middle" x="635.5" y="-399.5" font-family="Helvetica,sans-Serif" font-size="10.00">impl/Massey.ipp</text>
</a>
</g>
</g>
<!-- Node4&#45;&gt;Node40 -->
<g id="edge50" class="edge">
<title>Node4&#45;&gt;Node40</title>
<path fill="none" stroke="midnightblue" d="M617.97,-448.08C620.81,-440.77 624.93,-430.18 628.46,-421.1"/>
<polygon fill="midnightblue" stroke="midnightblue" points="631.73,-422.34 632.1,-411.75 625.21,-419.8 631.73,-422.34"/>
</g>
<!-- Node6 -->
<g id="node6" class="node">
<title>Node6</title>
<g id="a_node6"><a xlink:href="Levels_8hpp.html" target="_top" xlink:title="Contains the methods for transfering, restricting and Weyl&#45;group&#45;acting.">
<polygon fill="white" stroke="black" points="548.5,-336.5 548.5,-355.5 704.5,-355.5 704.5,-336.5 548.5,-336.5"/>
<text text-anchor="middle" x="626.5" y="-343.5" font-family="Helvetica,sans-Serif" font-size="10.00">Mackey_Functors/Levels.hpp</text>
</a>
</g>
</g>
<!-- Node5&#45;&gt;Node6 -->
<g id="edge5" class="edge">
<title>Node5&#45;&gt;Node6</title>
<path fill="none" stroke="midnightblue" d="M550.96,-392.32C565,-383.9 586.55,-370.97 603.04,-361.07"/>
<polygon fill="midnightblue" stroke="midnightblue" points="605.3,-363.8 612.08,-355.65 601.7,-357.8 605.3,-363.8"/>
</g>
<!-- Node27 -->
<g id="node27" class="node">
<title>Node27</title>
<g id="a_node27"><a xlink:href="Identify_8hpp.html" target="_top" xlink:title="Contains the classes mackey::IDGenerators and mackey::internal::IDGeneratorCompute">
<polygon fill="white" stroke="black" points="829.5,-336.5 829.5,-355.5 989.5,-355.5 989.5,-336.5 829.5,-336.5"/>
<text text-anchor="middle" x="909.5" y="-343.5" font-family="Helvetica,sans-Serif" font-size="10.00">Mackey_Functors/Identify.hpp</text>
</a>
</g>
</g>
<!-- Node5&#45;&gt;Node27 -->
<g id="edge30" class="edge">
<title>Node5&#45;&gt;Node27</title>
<path fill="none" stroke="midnightblue" d="M570.26,-393.7C573.38,-393.1 576.49,-392.52 579.5,-392 662.96,-377.59 758.96,-364.94 825.81,-356.75"/>
<polygon fill="midnightblue" stroke="midnightblue" points="826.37,-360.21 835.87,-355.53 825.52,-353.26 826.37,-360.21"/>
</g>
<!-- Node32 -->
<g id="node32" class="node">
<title>Node32</title>
<g id="a_node32"><a xlink:href="Box_8hpp.html" target="_top" xlink:title="Contains the class mackey::Tensor.">
<polygon fill="white" stroke="black" points="414.5,-224.5 414.5,-243.5 560.5,-243.5 560.5,-224.5 414.5,-224.5"/>
<text text-anchor="middle" x="487.5" y="-231.5" font-family="Helvetica,sans-Serif" font-size="10.00">Chain_Complexes/Box.hpp</text>
</a>
</g>
</g>
<!-- Node5&#45;&gt;Node32 -->
<g id="edge39" class="edge">
<title>Node5&#45;&gt;Node32</title>
<path fill="none" stroke="midnightblue" d="M502.88,-396.24C478.8,-390.88 448,-379.6 432.5,-356 409.51,-321 446.76,-274.81 470.39,-250.89"/>
<polygon fill="midnightblue" stroke="midnightblue" points="473.06,-253.17 477.77,-243.68 468.17,-248.16 473.06,-253.17"/>
</g>
<!-- Node39 -->
<g id="node39" class="node">
<title>Node39</title>
<g id="a_node39"><a xlink:title=" ">
<polygon fill="white" stroke="#bfbfbf" points="441,-336.5 441,-355.5 530,-355.5 530,-336.5 441,-336.5"/>
<text text-anchor="middle" x="485.5" y="-343.5" font-family="Helvetica,sans-Serif" font-size="10.00">impl/Green.ipp</text>
</a>
</g>
</g>
<!-- Node5&#45;&gt;Node39 -->
<g id="edge49" class="edge">
<title>Node5&#45;&gt;Node39</title>
<path fill="none" stroke="midnightblue" d="M528.08,-392.08C520.65,-384.22 509.65,-372.57 500.69,-363.08"/>
<polygon fill="midnightblue" stroke="midnightblue" points="503.18,-360.62 493.76,-355.75 498.09,-365.42 503.18,-360.62"/>
</g>
<!-- Node7 -->
<g id="node7" class="node">
<title>Node7</title>
<g id="a_node7"><a xlink:href="Homology_8hpp.html" target="_top" xlink:title="Contains the class mackey::Homology.">
<polygon fill="white" stroke="black" points="771.5,-280.5 771.5,-299.5 911.5,-299.5 911.5,-280.5 771.5,-280.5"/>
<text text-anchor="middle" x="841.5" y="-287.5" font-family="Helvetica,sans-Serif" font-size="10.00">Homology/Homology.hpp</text>
</a>
</g>
</g>
<!-- Node6&#45;&gt;Node7 -->
<g id="edge6" class="edge">
<title>Node6&#45;&gt;Node7</title>
<path fill="none" stroke="midnightblue" d="M660.57,-336.44C697.68,-327.12 757.16,-312.18 797.71,-302"/>
<polygon fill="midnightblue" stroke="midnightblue" points="798.75,-305.35 807.59,-299.52 797.04,-298.56 798.75,-305.35"/>
</g>
<!-- Node26 -->
<g id="node26" class="node">
<title>Node26</title>
<g id="a_node26"><a xlink:title=" ">
<polygon fill="white" stroke="#bfbfbf" points="581,-280.5 581,-299.5 672,-299.5 672,-280.5 581,-280.5"/>
<text text-anchor="middle" x="626.5" y="-287.5" font-family="Helvetica,sans-Serif" font-size="10.00">impl/Levels.ipp</text>
</a>
</g>
</g>
<!-- Node6&#45;&gt;Node26 -->
<g id="edge29" class="edge">
<title>Node6&#45;&gt;Node26</title>
<path fill="none" stroke="midnightblue" d="M626.5,-336.08C626.5,-329.01 626.5,-318.86 626.5,-309.99"/>
<polygon fill="midnightblue" stroke="midnightblue" points="630,-309.75 626.5,-299.75 623,-309.75 630,-309.75"/>
</g>
<!-- Node8 -->
<g id="node8" class="node">
<title>Node8</title>
<g id="a_node8"><a xlink:href="Chains_8hpp.html" target="_top" xlink:title="Contains the classes mackey::Arrow, mackey::Chains and mackey::Junction.">
<polygon fill="white" stroke="black" points="190,-168.5 190,-187.5 351,-187.5 351,-168.5 190,-168.5"/>
<text text-anchor="middle" x="270.5" y="-175.5" font-family="Helvetica,sans-Serif" font-size="10.00">Chain_Complexes/Chains.hpp</text>
</a>
</g>
</g>
<!-- Node7&#45;&gt;Node8 -->
<g id="edge7" class="edge">
<title>Node7&#45;&gt;Node8</title>
<path fill="none" stroke="midnightblue" d="M771.27,-284.71C665.98,-277.77 472.41,-262.93 405.5,-244 363.59,-232.14 318.75,-207.99 292.74,-192.7"/>
<polygon fill="midnightblue" stroke="midnightblue" points="294.43,-189.63 284.05,-187.5 290.84,-195.64 294.43,-189.63"/>
</g>
<!-- Node12 -->
<g id="node12" class="node">
<title>Node12</title>
<g id="a_node12"><a xlink:href="General_8hpp.html" target="_top" xlink:title="Contains general functions and vector overloads independent of everything else.">
<polygon fill="white" stroke="black" points="945,-168.5 945,-187.5 1054,-187.5 1054,-168.5 945,-168.5"/>
<text text-anchor="middle" x="999.5" y="-175.5" font-family="Helvetica,sans-Serif" font-size="10.00">Utility/General.hpp</text>
</a>
</g>
</g>
<!-- Node7&#45;&gt;Node12 -->
<g id="edge11" class="edge">
<title>Node7&#45;&gt;Node12</title>
<path fill="none" stroke="midnightblue" d="M856.84,-280.35C872.03,-271.63 895.8,-257.55 915.5,-244 938.92,-227.89 964.59,-207.62 981.31,-194.03"/>
<polygon fill="midnightblue" stroke="midnightblue" points="983.65,-196.64 989.18,-187.6 979.22,-191.22 983.65,-196.64"/>
</g>
<!-- Node21 -->
<g id="node21" class="node">
<title>Node21</title>
<g id="a_node21"><a xlink:href="Smith_8hpp.html" target="_top" xlink:title="Contains the class mackey::SmithNormalForm.">
<polygon fill="white" stroke="black" points="834.5,-168.5 834.5,-187.5 900.5,-187.5 900.5,-168.5 834.5,-168.5"/>
<text text-anchor="middle" x="867.5" y="-175.5" font-family="Helvetica,sans-Serif" font-size="10.00">Smith.hpp</text>
</a>
</g>
</g>
<!-- Node7&#45;&gt;Node21 -->
<g id="edge21" class="edge">
<title>Node7&#45;&gt;Node21</title>
<path fill="none" stroke="midnightblue" d="M825.71,-280.38C806.13,-268.49 776.78,-246.02 789.5,-224 798.18,-208.98 813.99,-198.52 829.12,-191.5"/>
<polygon fill="midnightblue" stroke="midnightblue" points="830.55,-194.69 838.38,-187.56 827.81,-188.25 830.55,-194.69"/>
</g>
<!-- Node23 -->
<g id="node23" class="node">
<title>Node23</title>
<g id="a_node23"><a xlink:href="Abelian_8hpp.html" target="_top" xlink:title="Contains the class mackey::AbelianGroup.">
<polygon fill="white" stroke="black" points="962.5,-224.5 962.5,-243.5 1036.5,-243.5 1036.5,-224.5 962.5,-224.5"/>
<text text-anchor="middle" x="999.5" y="-231.5" font-family="Helvetica,sans-Serif" font-size="10.00">Abelian.hpp</text>
</a>
</g>
</g>
<!-- Node7&#45;&gt;Node23 -->
<g id="edge25" class="edge">
<title>Node7&#45;&gt;Node23</title>
<path fill="none" stroke="midnightblue" d="M866.54,-280.44C893.12,-271.36 935.31,-256.94 965.02,-246.78"/>
<polygon fill="midnightblue" stroke="midnightblue" points="966.25,-250.06 974.58,-243.52 963.99,-243.44 966.25,-250.06"/>
</g>
<!-- Node25 -->
<g id="node25" class="node">
<title>Node25</title>
<g id="a_node25"><a xlink:title=" ">
<polygon fill="white" stroke="#bfbfbf" points="798.5,-224.5 798.5,-243.5 906.5,-243.5 906.5,-224.5 798.5,-224.5"/>
<text text-anchor="middle" x="852.5" y="-231.5" font-family="Helvetica,sans-Serif" font-size="10.00">impl/Homology.ipp</text>
</a>
</g>
</g>
<!-- Node7&#45;&gt;Node25 -->
<g id="edge28" class="edge">
<title>Node7&#45;&gt;Node25</title>
<path fill="none" stroke="midnightblue" d="M843.32,-280.08C844.77,-272.93 846.87,-262.64 848.69,-253.69"/>
<polygon fill="midnightblue" stroke="midnightblue" points="852.15,-254.25 850.72,-243.75 845.29,-252.85 852.15,-254.25"/>
</g>
<!-- Node9 -->
<g id="node9" class="node">
<title>Node9</title>
<g id="a_node9"><a xlink:title=" ">
<polygon fill="white" stroke="#bfbfbf" points="801,-112.5 801,-131.5 848,-131.5 848,-112.5 801,-112.5"/>
<text text-anchor="middle" x="824.5" y="-119.5" font-family="Helvetica,sans-Serif" font-size="10.00">vector</text>
</a>
</g>
</g>
<!-- Node8&#45;&gt;Node9 -->
<g id="edge8" class="edge">
<title>Node8&#45;&gt;Node9</title>
<path fill="none" stroke="midnightblue" d="M351.1,-171.91C471.5,-164.01 693.73,-148.17 790.75,-131.96"/>
<polygon fill="midnightblue" stroke="midnightblue" points="791.61,-135.36 800.85,-130.19 790.4,-128.47 791.61,-135.36"/>
</g>
<!-- Node10 -->
<g id="node10" class="node">
<title>Node10</title>
<g id="a_node10"><a xlink:title=" ">
<polygon fill="white" stroke="#bfbfbf" points="146,-112.5 146,-131.5 203,-131.5 203,-112.5 146,-112.5"/>
<text text-anchor="middle" x="174.5" y="-119.5" font-family="Helvetica,sans-Serif" font-size="10.00">ostream</text>
</a>
</g>
</g>
<!-- Node8&#45;&gt;Node10 -->
<g id="edge9" class="edge">
<title>Node8&#45;&gt;Node10</title>
<path fill="none" stroke="midnightblue" d="M255.08,-168.32C239.96,-159.82 216.68,-146.73 199.03,-136.8"/>
<polygon fill="midnightblue" stroke="midnightblue" points="200.32,-133.51 189.89,-131.65 196.89,-139.61 200.32,-133.51"/>
</g>
<!-- Node11 -->
<g id="node11" class="node">
<title>Node11</title>
<g id="a_node11"><a xlink:title=" ">
<polygon fill="white" stroke="#bfbfbf" points="221.5,-112.5 221.5,-131.5 313.5,-131.5 313.5,-112.5 221.5,-112.5"/>
<text text-anchor="middle" x="267.5" y="-119.5" font-family="Helvetica,sans-Serif" font-size="10.00">impl/Chains.ipp</text>
</a>
</g>
</g>
<!-- Node8&#45;&gt;Node11 -->
<g id="edge10" class="edge">
<title>Node8&#45;&gt;Node11</title>
<path fill="none" stroke="midnightblue" d="M270,-168.08C269.61,-161.01 269.05,-150.86 268.55,-141.99"/>
<polygon fill="midnightblue" stroke="midnightblue" points="272.04,-141.54 267.99,-131.75 265.05,-141.93 272.04,-141.54"/>
</g>
<!-- Node12&#45;&gt;Node9 -->
<g id="edge12" class="edge">
<title>Node12&#45;&gt;Node9</title>
<path fill="none" stroke="midnightblue" d="M971.77,-168.44C940.85,-158.9 890.86,-143.48 857.84,-133.29"/>
<polygon fill="midnightblue" stroke="midnightblue" points="858.76,-129.91 848.17,-130.3 856.69,-136.6 858.76,-129.91"/>
</g>
<!-- Node13 -->
<g id="node13" class="node">
<title>Node13</title>
<g id="a_node13"><a xlink:href="Aliases_8hpp.html" target="_top" xlink:title="Contains general template aliases.">
<polygon fill="white" stroke="black" points="972.5,-112.5 972.5,-131.5 1076.5,-131.5 1076.5,-112.5 972.5,-112.5"/>
<text text-anchor="middle" x="1024.5" y="-119.5" font-family="Helvetica,sans-Serif" font-size="10.00">Types/Aliases.hpp</text>
</a>
</g>
</g>
<!-- Node12&#45;&gt;Node13 -->
<g id="edge13" class="edge">
<title>Node12&#45;&gt;Node13</title>
<path fill="none" stroke="midnightblue" d="M1003.63,-168.08C1007.01,-160.77 1011.92,-150.18 1016.12,-141.1"/>
<polygon fill="midnightblue" stroke="midnightblue" points="1019.42,-142.3 1020.45,-131.75 1013.07,-139.36 1019.42,-142.3"/>
</g>
<!-- Node18 -->
<g id="node18" class="node">
<title>Node18</title>
<g id="a_node18"><a xlink:title=" ">
<polygon fill="white" stroke="#bfbfbf" points="1210.5,-112.5 1210.5,-131.5 1266.5,-131.5 1266.5,-112.5 1210.5,-112.5"/>
<text text-anchor="middle" x="1238.5" y="-119.5" font-family="Helvetica,sans-Serif" font-size="10.00">numeric</text>
</a>
</g>
</g>
<!-- Node12&#45;&gt;Node18 -->
<g id="edge18" class="edge">
<title>Node12&#45;&gt;Node18</title>
<path fill="none" stroke="midnightblue" d="M1039.03,-168.43C1077.72,-159.99 1138.59,-146.58 1200.32,-132.24"/>
<polygon fill="midnightblue" stroke="midnightblue" points="1201.29,-135.61 1210.23,-129.94 1199.7,-128.79 1201.29,-135.61"/>
</g>
<!-- Node19 -->
<g id="node19" class="node">
<title>Node19</title>
<g id="a_node19"><a xlink:title=" ">
<polygon fill="white" stroke="#bfbfbf" points="1284.5,-112.5 1284.5,-131.5 1344.5,-131.5 1344.5,-112.5 1284.5,-112.5"/>
<text text-anchor="middle" x="1314.5" y="-119.5" font-family="Helvetica,sans-Serif" font-size="10.00">iostream</text>
</a>
</g>
</g>
<!-- Node12&#45;&gt;Node19 -->
<g id="edge19" class="edge">
<title>Node12&#45;&gt;Node19</title>
<path fill="none" stroke="midnightblue" d="M1054.15,-169.16C1107.79,-161.23 1192.13,-148.11 1274.3,-132.13"/>
<polygon fill="midnightblue" stroke="midnightblue" points="1275.17,-135.53 1284.31,-130.17 1273.82,-128.66 1275.17,-135.53"/>
</g>
<!-- Node20 -->
<g id="node20" class="node">
<title>Node20</title>
<g id="a_node20"><a xlink:title=" ">
<polygon fill="white" stroke="#bfbfbf" points="1094.5,-112.5 1094.5,-131.5 1192.5,-131.5 1192.5,-112.5 1094.5,-112.5"/>
<text text-anchor="middle" x="1143.5" y="-119.5" font-family="Helvetica,sans-Serif" font-size="10.00">impl/General.ipp</text>
</a>
</g>
</g>
<!-- Node12&#45;&gt;Node20 -->
<g id="edge20" class="edge">
<title>Node12&#45;&gt;Node20</title>
<path fill="none" stroke="midnightblue" d="M1022.32,-168.44C1046.33,-159.44 1084.33,-145.19 1111.37,-135.05"/>
<polygon fill="midnightblue" stroke="midnightblue" points="1112.66,-138.3 1120.79,-131.52 1110.2,-131.75 1112.66,-138.3"/>
</g>
<!-- Node14 -->
<g id="node14" class="node">
<title>Node14</title>
<g id="a_node14"><a xlink:title=" ">
<polygon fill="white" stroke="#bfbfbf" points="1032,-56.5 1032,-75.5 1109,-75.5 1109,-56.5 1032,-56.5"/>
<text text-anchor="middle" x="1070.5" y="-63.5" font-family="Helvetica,sans-Serif" font-size="10.00">Eigen/Dense</text>
</a>
</g>
</g>
<!-- Node13&#45;&gt;Node14 -->
<g id="edge14" class="edge">
<title>Node13&#45;&gt;Node14</title>
<path fill="none" stroke="midnightblue" d="M1032.1,-112.08C1038.73,-104.3 1048.52,-92.8 1056.56,-83.37"/>
<polygon fill="midnightblue" stroke="midnightblue" points="1059.23,-85.63 1063.05,-75.75 1053.9,-81.09 1059.23,-85.63"/>
</g>
<!-- Node15 -->
<g id="node15" class="node">
<title>Node15</title>
<g id="a_node15"><a xlink:title=" ">
<polygon fill="white" stroke="#bfbfbf" points="483.5,-56.5 483.5,-75.5 563.5,-75.5 563.5,-56.5 483.5,-56.5"/>
<text text-anchor="middle" x="523.5" y="-63.5" font-family="Helvetica,sans-Serif" font-size="10.00">Eigen/Sparse</text>
</a>
</g>
</g>
<!-- Node13&#45;&gt;Node15 -->
<g id="edge15" class="edge">
<title>Node13&#45;&gt;Node15</title>
<path fill="none" stroke="midnightblue" d="M972.28,-113.14C969.31,-112.74 966.37,-112.36 963.5,-112 822.47,-94.39 655.38,-78.72 573.62,-71.39"/>
<polygon fill="midnightblue" stroke="midnightblue" points="573.88,-67.9 563.61,-70.5 573.26,-74.87 573.88,-67.9"/>
</g>
<!-- Node16 -->
<g id="node16" class="node">
<title>Node16</title>
<g id="a_node16"><a xlink:href="SFINAE_8hpp.html" target="_top" xlink:title="Contains all the SFINAE tricks.">
<polygon fill="white" stroke="black" points="941,-56.5 941,-75.5 1014,-75.5 1014,-56.5 941,-56.5"/>
<text text-anchor="middle" x="977.5" y="-63.5" font-family="Helvetica,sans-Serif" font-size="10.00">SFINAE.hpp</text>
</a>
</g>
</g>
<!-- Node13&#45;&gt;Node16 -->
<g id="edge16" class="edge">
<title>Node13&#45;&gt;Node16</title>
<path fill="none" stroke="midnightblue" d="M1016.74,-112.08C1009.96,-104.3 999.96,-92.8 991.74,-83.37"/>
<polygon fill="midnightblue" stroke="midnightblue" points="994.32,-81 985.12,-75.75 989.04,-85.59 994.32,-81"/>
</g>
<!-- Node17 -->
<g id="node17" class="node">
<title>Node17</title>
<g id="a_node17"><a xlink:title=" ">
<polygon fill="white" stroke="#bfbfbf" points="943,-0.5 943,-19.5 1012,-19.5 1012,-0.5 943,-0.5"/>
<text text-anchor="middle" x="977.5" y="-7.5" font-family="Helvetica,sans-Serif" font-size="10.00">type_traits</text>
</a>
</g>
</g>
<!-- Node16&#45;&gt;Node17 -->
<g id="edge17" class="edge">
<title>Node16&#45;&gt;Node17</title>
<path fill="none" stroke="midnightblue" d="M977.5,-56.08C977.5,-49.01 977.5,-38.86 977.5,-29.99"/>
<polygon fill="midnightblue" stroke="midnightblue" points="981,-29.75 977.5,-19.75 974,-29.75 981,-29.75"/>
</g>
<!-- Node21&#45;&gt;Node9 -->
<g id="edge22" class="edge">
<title>Node21&#45;&gt;Node9</title>
<path fill="none" stroke="midnightblue" d="M860.4,-168.08C854.26,-160.38 845.23,-149.03 837.76,-139.65"/>
<polygon fill="midnightblue" stroke="midnightblue" points="840.44,-137.39 831.47,-131.75 834.96,-141.75 840.44,-137.39"/>
</g>
<!-- Node21&#45;&gt;Node13 -->
<g id="edge23" class="edge">
<title>Node21&#45;&gt;Node13</title>
<path fill="none" stroke="midnightblue" d="M892.38,-168.44C918.79,-159.36 960.72,-144.94 990.24,-134.78"/>
<polygon fill="midnightblue" stroke="midnightblue" points="991.42,-138.08 999.74,-131.52 989.14,-131.46 991.42,-138.08"/>
</g>
<!-- Node22 -->
<g id="node22" class="node">
<title>Node22</title>
<g id="a_node22"><a xlink:title=" ">
<polygon fill="white" stroke="#bfbfbf" points="866.5,-112.5 866.5,-131.5 954.5,-131.5 954.5,-112.5 866.5,-112.5"/>
<text text-anchor="middle" x="910.5" y="-119.5" font-family="Helvetica,sans-Serif" font-size="10.00">impl/Smith.ipp</text>
</a>
</g>
</g>
<!-- Node21&#45;&gt;Node22 -->
<g id="edge24" class="edge">
<title>Node21&#45;&gt;Node22</title>
<path fill="none" stroke="midnightblue" d="M874.6,-168.08C880.74,-160.38 889.77,-149.03 897.24,-139.65"/>
<polygon fill="midnightblue" stroke="midnightblue" points="900.04,-141.75 903.53,-131.75 894.56,-137.39 900.04,-141.75"/>
</g>
<!-- Node23&#45;&gt;Node12 -->
<g id="edge26" class="edge">
<title>Node23&#45;&gt;Node12</title>
<path fill="none" stroke="midnightblue" d="M999.5,-224.08C999.5,-217.01 999.5,-206.86 999.5,-197.99"/>
<polygon fill="midnightblue" stroke="midnightblue" points="1003,-197.75 999.5,-187.75 996,-197.75 1003,-197.75"/>
</g>
<!-- Node24 -->
<g id="node24" class="node">
<title>Node24</title>
<g id="a_node24"><a xlink:title=" ">
<polygon fill="white" stroke="#bfbfbf" points="1072.5,-168.5 1072.5,-187.5 1168.5,-187.5 1168.5,-168.5 1072.5,-168.5"/>
<text text-anchor="middle" x="1120.5" y="-175.5" font-family="Helvetica,sans-Serif" font-size="10.00">impl/Abelian.ipp</text>
</a>
</g>
</g>
<!-- Node23&#45;&gt;Node24 -->
<g id="edge27" class="edge">
<title>Node23&#45;&gt;Node24</title>
<path fill="none" stroke="midnightblue" d="M1018.67,-224.44C1038.41,-215.64 1069.39,-201.81 1091.99,-191.72"/>
<polygon fill="midnightblue" stroke="midnightblue" points="1093.71,-194.79 1101.42,-187.52 1090.86,-188.4 1093.71,-194.79"/>
</g>
<!-- Node27&#45;&gt;Node7 -->
<g id="edge31" class="edge">
<title>Node27&#45;&gt;Node7</title>
<path fill="none" stroke="midnightblue" d="M898.57,-336.32C888.33,-328.18 872.78,-315.84 860.5,-306.09"/>
<polygon fill="midnightblue" stroke="midnightblue" points="862.63,-303.31 852.62,-299.83 858.28,-308.79 862.63,-303.31"/>
</g>
<!-- Node28 -->
<g id="node28" class="node">
<title>Node28</title>
<g id="a_node28"><a xlink:href="MackeyFunctor_8hpp.html" target="_top" xlink:title="Contains the class mackey::MackeyFunctor.">
<polygon fill="white" stroke="black" points="1063,-280.5 1063,-299.5 1260,-299.5 1260,-280.5 1063,-280.5"/>
<text text-anchor="middle" x="1161.5" y="-287.5" font-family="Helvetica,sans-Serif" font-size="10.00">Mackey_Functors/MackeyFunctor.hpp</text>
</a>
</g>
</g>
<!-- Node27&#45;&gt;Node28 -->
<g id="edge32" class="edge">
<title>Node27&#45;&gt;Node28</title>
<path fill="none" stroke="midnightblue" d="M949.43,-336.44C993.39,-327.02 1064.13,-311.87 1111.68,-301.68"/>
<polygon fill="midnightblue" stroke="midnightblue" points="1112.71,-305.03 1121.76,-299.52 1111.25,-298.19 1112.71,-305.03"/>
</g>
<!-- Node31 -->
<g id="node31" class="node">
<title>Node31</title>
<g id="a_node31"><a xlink:title=" ">
<polygon fill="white" stroke="#bfbfbf" points="930,-280.5 930,-299.5 1025,-299.5 1025,-280.5 930,-280.5"/>
<text text-anchor="middle" x="977.5" y="-287.5" font-family="Helvetica,sans-Serif" font-size="10.00">impl/Identify.ipp</text>
</a>
</g>
</g>
<!-- Node27&#45;&gt;Node31 -->
<g id="edge38" class="edge">
<title>Node27&#45;&gt;Node31</title>
<path fill="none" stroke="midnightblue" d="M920.43,-336.32C930.67,-328.18 946.22,-315.84 958.5,-306.09"/>
<polygon fill="midnightblue" stroke="midnightblue" points="960.72,-308.79 966.38,-299.83 956.37,-303.31 960.72,-308.79"/>
</g>
<!-- Node28&#45;&gt;Node18 -->
<g id="edge35" class="edge">
<title>Node28&#45;&gt;Node18</title>
<path fill="none" stroke="midnightblue" d="M1202.97,-280.5C1223.09,-274.06 1245.45,-262.95 1257.5,-244 1277.85,-211.98 1260.61,-165.82 1248.29,-140.78"/>
<polygon fill="midnightblue" stroke="midnightblue" points="1251.3,-138.99 1243.58,-131.73 1245.09,-142.21 1251.3,-138.99"/>
</g>
<!-- Node28&#45;&gt;Node19 -->
<g id="edge34" class="edge">
<title>Node28&#45;&gt;Node19</title>
<path fill="none" stroke="midnightblue" d="M1206.89,-280.49C1229.91,-274.03 1256.69,-262.91 1274.5,-244 1301.59,-215.24 1310.35,-167.73 1313.17,-141.62"/>
<polygon fill="midnightblue" stroke="midnightblue" points="1316.67,-141.84 1314.07,-131.56 1309.69,-141.21 1316.67,-141.84"/>
</g>
<!-- Node28&#45;&gt;Node23 -->
<g id="edge36" class="edge">
<title>Node28&#45;&gt;Node23</title>
<path fill="none" stroke="midnightblue" d="M1135.83,-280.44C1108.58,-271.36 1065.32,-256.94 1034.85,-246.78"/>
<polygon fill="midnightblue" stroke="midnightblue" points="1035.64,-243.36 1025.05,-243.52 1033.43,-250 1035.64,-243.36"/>
</g>
<!-- Node29 -->
<g id="node29" class="node">
<title>Node29</title>
<g id="a_node29"><a xlink:title=" ">
<polygon fill="white" stroke="#bfbfbf" points="1054.5,-224.5 1054.5,-243.5 1098.5,-243.5 1098.5,-224.5 1054.5,-224.5"/>
<text text-anchor="middle" x="1076.5" y="-231.5" font-family="Helvetica,sans-Serif" font-size="10.00">string</text>
</a>
</g>
</g>
<!-- Node28&#45;&gt;Node29 -->
<g id="edge33" class="edge">
<title>Node28&#45;&gt;Node29</title>
<path fill="none" stroke="midnightblue" d="M1147.84,-280.32C1134.58,-271.9 1114.23,-258.97 1098.65,-249.07"/>
<polygon fill="midnightblue" stroke="midnightblue" points="1100.44,-246.06 1090.12,-243.65 1096.69,-251.97 1100.44,-246.06"/>
</g>
<!-- Node30 -->
<g id="node30" class="node">
<title>Node30</title>
<g id="a_node30"><a xlink:title=" ">
<polygon fill="white" stroke="#bfbfbf" points="1116.5,-224.5 1116.5,-243.5 1248.5,-243.5 1248.5,-224.5 1116.5,-224.5"/>
<text text-anchor="middle" x="1182.5" y="-231.5" font-family="Helvetica,sans-Serif" font-size="10.00">impl/MackeyFunctor.ipp</text>
</a>
</g>
</g>
<!-- Node28&#45;&gt;Node30 -->
<g id="edge37" class="edge">
<title>Node28&#45;&gt;Node30</title>
<path fill="none" stroke="midnightblue" d="M1164.97,-280.08C1167.81,-272.77 1171.93,-262.18 1175.46,-253.1"/>
<polygon fill="midnightblue" stroke="midnightblue" points="1178.73,-254.34 1179.1,-243.75 1172.21,-251.8 1178.73,-254.34"/>
</g>
<!-- Node32&#45;&gt;Node8 -->
<g id="edge41" class="edge">
<title>Node32&#45;&gt;Node8</title>
<path fill="none" stroke="midnightblue" d="M453.12,-224.44C415.58,-215.1 355.37,-200.12 314.43,-189.93"/>
<polygon fill="midnightblue" stroke="midnightblue" points="315.27,-186.53 304.72,-187.52 313.58,-193.33 315.27,-186.53"/>
</g>
<!-- Node32&#45;&gt;Node12 -->
<g id="edge40" class="edge">
<title>Node32&#45;&gt;Node12</title>
<path fill="none" stroke="midnightblue" d="M560.59,-225.29C660.69,-214.73 838.89,-195.94 934.55,-185.85"/>
<polygon fill="midnightblue" stroke="midnightblue" points="935.09,-189.31 944.67,-184.78 934.35,-182.35 935.09,-189.31"/>
</g>
<!-- Node33 -->
<g id="node33" class="node">
<title>Node33</title>
<g id="a_node33"><a xlink:href="ChangeBasis_8hpp.html" target="_top" xlink:title="Contains the class mackey::ChangeBasis.">
<polygon fill="white" stroke="black" points="437,-168.5 437,-187.5 538,-187.5 538,-168.5 437,-168.5"/>
<text text-anchor="middle" x="487.5" y="-175.5" font-family="Helvetica,sans-Serif" font-size="10.00">ChangeBasis.hpp</text>
</a>
</g>
</g>
<!-- Node32&#45;&gt;Node33 -->
<g id="edge42" class="edge">
<title>Node32&#45;&gt;Node33</title>
<path fill="none" stroke="midnightblue" d="M487.5,-224.08C487.5,-217.01 487.5,-206.86 487.5,-197.99"/>
<polygon fill="midnightblue" stroke="midnightblue" points="491,-197.75 487.5,-187.75 484,-197.75 491,-197.75"/>
</g>
<!-- Node38 -->
<g id="node38" class="node">
<title>Node38</title>
<g id="a_node38"><a xlink:title=" ">
<polygon fill="white" stroke="#bfbfbf" points="556.5,-168.5 556.5,-187.5 634.5,-187.5 634.5,-168.5 556.5,-168.5"/>
<text text-anchor="middle" x="595.5" y="-175.5" font-family="Helvetica,sans-Serif" font-size="10.00">impl/Box.ipp</text>
</a>
</g>
</g>
<!-- Node32&#45;&gt;Node38 -->
<g id="edge48" class="edge">
<title>Node32&#45;&gt;Node38</title>
<path fill="none" stroke="midnightblue" d="M504.85,-224.32C522.17,-215.66 549.02,-202.24 569,-192.25"/>
<polygon fill="midnightblue" stroke="midnightblue" points="570.81,-195.26 578.19,-187.65 567.68,-189 570.81,-195.26"/>
</g>
<!-- Node33&#45;&gt;Node9 -->
<g id="edge43" class="edge">
<title>Node33&#45;&gt;Node9</title>
<path fill="none" stroke="midnightblue" d="M538.24,-169.38C541.37,-168.91 544.48,-168.45 547.5,-168 653.18,-152.31 683.12,-154.78 790.85,-132.14"/>
<polygon fill="midnightblue" stroke="midnightblue" points="791.76,-135.53 800.82,-130.03 790.31,-128.68 791.76,-135.53"/>
</g>
<!-- Node34 -->
<g id="node34" class="node">
<title>Node34</title>
<g id="a_node34"><a xlink:title=" ">
<polygon fill="white" stroke="#bfbfbf" points="331.5,-112.5 331.5,-131.5 369.5,-131.5 369.5,-112.5 331.5,-112.5"/>
<text text-anchor="middle" x="350.5" y="-119.5" font-family="Helvetica,sans-Serif" font-size="10.00">map</text>
</a>
</g>
</g>
<!-- Node33&#45;&gt;Node34 -->
<g id="edge44" class="edge">
<title>Node33&#45;&gt;Node34</title>
<path fill="none" stroke="midnightblue" d="M465.79,-168.44C442.48,-159.25 405.32,-144.61 379.51,-134.43"/>
<polygon fill="midnightblue" stroke="midnightblue" points="380.48,-131.05 369.89,-130.64 377.91,-137.57 380.48,-131.05"/>
</g>
<!-- Node35 -->
<g id="node35" class="node">
<title>Node35</title>
<g id="a_node35"><a xlink:title=" ">
<polygon fill="white" stroke="#bfbfbf" points="587.5,-112.5 587.5,-131.5 651.5,-131.5 651.5,-112.5 587.5,-112.5"/>
<text text-anchor="middle" x="619.5" y="-119.5" font-family="Helvetica,sans-Serif" font-size="10.00">algorithm</text>
</a>
</g>
</g>
<!-- Node33&#45;&gt;Node35 -->
<g id="edge45" class="edge">
<title>Node33&#45;&gt;Node35</title>
<path fill="none" stroke="midnightblue" d="M508.42,-168.44C530.24,-159.52 564.65,-145.44 589.39,-135.32"/>
<polygon fill="midnightblue" stroke="midnightblue" points="590.75,-138.54 598.68,-131.52 588.1,-132.06 590.75,-138.54"/>
</g>
<!-- Node36 -->
<g id="node36" class="node">
<title>Node36</title>
<g id="a_node36"><a xlink:title=" ">
<polygon fill="white" stroke="#bfbfbf" points="527.5,-112.5 527.5,-131.5 569.5,-131.5 569.5,-112.5 527.5,-112.5"/>
<text text-anchor="middle" x="548.5" y="-119.5" font-family="Helvetica,sans-Serif" font-size="10.00">array</text>
</a>
</g>
</g>
<!-- Node33&#45;&gt;Node36 -->
<g id="edge46" class="edge">
<title>Node33&#45;&gt;Node36</title>
<path fill="none" stroke="midnightblue" d="M497.3,-168.32C506.32,-160.34 519.91,-148.31 530.82,-138.65"/>
<polygon fill="midnightblue" stroke="midnightblue" points="533.35,-141.08 538.52,-131.83 528.71,-135.84 533.35,-141.08"/>
</g>
<!-- Node37 -->
<g id="node37" class="node">
<title>Node37</title>
<g id="a_node37"><a xlink:title=" ">
<polygon fill="white" stroke="#bfbfbf" points="387.5,-112.5 387.5,-131.5 509.5,-131.5 509.5,-112.5 387.5,-112.5"/>
<text text-anchor="middle" x="448.5" y="-119.5" font-family="Helvetica,sans-Serif" font-size="10.00">impl/ChangeBasis.ipp</text>
</a>
</g>
</g>
<!-- Node33&#45;&gt;Node37 -->
<g id="edge47" class="edge">
<title>Node33&#45;&gt;Node37</title>
<path fill="none" stroke="midnightblue" d="M481.06,-168.08C475.55,-160.46 467.47,-149.26 460.74,-139.94"/>
<polygon fill="midnightblue" stroke="midnightblue" points="463.51,-137.81 454.82,-131.75 457.84,-141.91 463.51,-137.81"/>
</g>
<!-- Node41&#45;&gt;Node8 -->
<g id="edge52" class="edge">
<title>Node41&#45;&gt;Node8</title>
<path fill="none" stroke="midnightblue" d="M223.5,-224.32C231.69,-216.42 244.01,-204.55 253.97,-194.94"/>
<polygon fill="midnightblue" stroke="midnightblue" points="256.57,-197.29 261.34,-187.83 251.71,-192.26 256.57,-197.29"/>
</g>
<!-- Node41&#45;&gt;Node15 -->
<g id="edge53" class="edge">
<title>Node41&#45;&gt;Node15</title>
<path fill="none" stroke="midnightblue" d="M201.52,-224.46C171.58,-203.77 102.76,-149.89 136.5,-112 158.52,-87.27 373.29,-74.04 473.05,-69.19"/>
<polygon fill="midnightblue" stroke="midnightblue" points="473.37,-72.68 483.19,-68.71 473.04,-65.69 473.37,-72.68"/>
</g>
<!-- Node42 -->
<g id="node42" class="node">
<title>Node42</title>
<g id="a_node42"><a xlink:title=" ">
<polygon fill="white" stroke="#bfbfbf" points="0,-168.5 0,-187.5 89,-187.5 89,-168.5 0,-168.5"/>
<text text-anchor="middle" x="44.5" y="-175.5" font-family="Helvetica,sans-Serif" font-size="10.00">impl/Morse.ipp</text>
</a>
</g>
</g>
<!-- Node41&#45;&gt;Node42 -->
<g id="edge54" class="edge">
<title>Node41&#45;&gt;Node42</title>
<path fill="none" stroke="midnightblue" d="M187.56,-224.44C158.84,-215.32 113.17,-200.81 81.18,-190.65"/>
<polygon fill="midnightblue" stroke="midnightblue" points="81.9,-187.21 71.31,-187.52 79.78,-193.88 81.9,-187.21"/>
</g>
<!-- Node45&#45;&gt;Node9 -->
<g id="edge59" class="edge">
<title>Node45&#45;&gt;Node9</title>
<path fill="none" stroke="midnightblue" d="M742.25,-168.32C757.82,-159.74 781.88,-146.49 799.96,-136.52"/>
<polygon fill="midnightblue" stroke="midnightblue" points="801.72,-139.55 808.79,-131.65 798.35,-133.42 801.72,-139.55"/>
</g>
<!-- Node45&#45;&gt;Node35 -->
<g id="edge58" class="edge">
<title>Node45&#45;&gt;Node35</title>
<path fill="none" stroke="midnightblue" d="M709.31,-168.32C692.15,-159.66 665.55,-146.24 645.75,-136.25"/>
<polygon fill="midnightblue" stroke="midnightblue" points="647.15,-133.04 636.65,-131.65 644,-139.28 647.15,-133.04"/>
</g>
<!-- Node45&#45;&gt;Node36 -->
<g id="edge60" class="edge">
<title>Node45&#45;&gt;Node36</title>
<path fill="none" stroke="midnightblue" d="M698.3,-168.44C665.87,-158.61 612.82,-142.51 579.33,-132.35"/>
<polygon fill="midnightblue" stroke="midnightblue" points="580.19,-128.96 569.6,-129.4 578.16,-135.66 580.19,-128.96"/>
</g>
<!-- Node46 -->
<g id="node46" class="node">
<title>Node46</title>
<g id="a_node46"><a xlink:title=" ">
<polygon fill="white" stroke="#bfbfbf" points="670,-112.5 670,-131.5 783,-131.5 783,-112.5 670,-112.5"/>
<text text-anchor="middle" x="726.5" y="-119.5" font-family="Helvetica,sans-Serif" font-size="10.00">impl/Generators.ipp</text>
</a>
</g>
</g>
<!-- Node45&#45;&gt;Node46 -->
<g id="edge61" class="edge">
<title>Node45&#45;&gt;Node46</title>
<path fill="none" stroke="midnightblue" d="M726.5,-168.08C726.5,-161.01 726.5,-150.86 726.5,-141.99"/>
<polygon fill="midnightblue" stroke="midnightblue" points="730,-141.75 726.5,-131.75 723,-141.75 730,-141.75"/>
</g>
</g>
</svg>
