<?xml version="1.0" encoding="UTF-8" standalone="no"?>
<!DOCTYPE svg PUBLIC "-//W3C//DTD SVG 1.1//EN"
 "http://www.w3.org/Graphics/SVG/1.1/DTD/svg11.dtd">
<!-- Generated by graphviz version 2.43.0 (0)
 -->
<!-- Title: C2n.hpp Pages: 1 -->
<svg width="632pt" height="252pt"
 viewBox="0.00 0.00 631.50 252.00" xmlns="http://www.w3.org/2000/svg" xmlns:xlink="http://www.w3.org/1999/xlink">
<g id="graph0" class="graph" transform="scale(1 1) rotate(0) translate(4 248)">
<title>C2n.hpp</title>
<polygon fill="white" stroke="transparent" points="-4,4 -4,-248 627.5,-248 627.5,4 -4,4"/>
<!-- Node1 -->
<g id="node1" class="node">
<title>Node1</title>
<g id="a_node1"><a xlink:title="Defines the groups .">
<polygon fill="#bfbfbf" stroke="black" points="311.5,-224.5 311.5,-243.5 367.5,-243.5 367.5,-224.5 311.5,-224.5"/>
<text text-anchor="middle" x="339.5" y="-231.5" font-family="Helvetica,sans-Serif" font-size="10.00">C2n.hpp</text>
</a>
</g>
</g>
<!-- Node2 -->
<g id="node2" class="node">
<title>Node2</title>
<g id="a_node2"><a xlink:href="Chains_8hpp.html" target="_top" xlink:title="Contains Chains and Junction classes for using chain complexes.">
<polygon fill="white" stroke="black" points="92,-168.5 92,-187.5 253,-187.5 253,-168.5 92,-168.5"/>
<text text-anchor="middle" x="172.5" y="-175.5" font-family="Helvetica,sans-Serif" font-size="10.00">Chain_Complexes/Chains.hpp</text>
</a>
</g>
</g>
<!-- Node1&#45;&gt;Node2 -->
<g id="edge1" class="edge">
<title>Node1&#45;&gt;Node2</title>
<path fill="none" stroke="midnightblue" d="M313.04,-224.44C284.82,-215.32 239.96,-200.81 208.53,-190.65"/>
<polygon fill="midnightblue" stroke="midnightblue" points="209.43,-187.26 198.84,-187.52 207.28,-193.92 209.43,-187.26"/>
</g>
<!-- Node6 -->
<g id="node6" class="node">
<title>Node6</title>
<g id="a_node6"><a xlink:href="General_8hpp.html" target="_top" xlink:title="Contains general functions and vector overloads independent of everything else.">
<polygon fill="white" stroke="black" points="285,-168.5 285,-187.5 394,-187.5 394,-168.5 285,-168.5"/>
<text text-anchor="middle" x="339.5" y="-175.5" font-family="Helvetica,sans-Serif" font-size="10.00">Utility/General.hpp</text>
</a>
</g>
</g>
<!-- Node1&#45;&gt;Node6 -->
<g id="edge5" class="edge">
<title>Node1&#45;&gt;Node6</title>
<path fill="none" stroke="midnightblue" d="M339.5,-224.08C339.5,-217.01 339.5,-206.86 339.5,-197.99"/>
<polygon fill="midnightblue" stroke="midnightblue" points="343,-197.75 339.5,-187.75 336,-197.75 343,-197.75"/>
</g>
<!-- Node15 -->
<g id="node15" class="node">
<title>Node15</title>
<g id="a_node15"><a xlink:title=" ">
<polygon fill="white" stroke="#bfbfbf" points="412.5,-168.5 412.5,-187.5 490.5,-187.5 490.5,-168.5 412.5,-168.5"/>
<text text-anchor="middle" x="451.5" y="-175.5" font-family="Helvetica,sans-Serif" font-size="10.00">impl/C2n.ipp</text>
</a>
</g>
</g>
<!-- Node1&#45;&gt;Node15 -->
<g id="edge15" class="edge">
<title>Node1&#45;&gt;Node15</title>
<path fill="none" stroke="midnightblue" d="M357.49,-224.32C375.54,-215.62 403.55,-202.12 424.3,-192.11"/>
<polygon fill="midnightblue" stroke="midnightblue" points="426.06,-195.15 433.55,-187.65 423.02,-188.84 426.06,-195.15"/>
</g>
<!-- Node3 -->
<g id="node3" class="node">
<title>Node3</title>
<g id="a_node3"><a xlink:title=" ">
<polygon fill="white" stroke="#bfbfbf" points="186,-112.5 186,-131.5 233,-131.5 233,-112.5 186,-112.5"/>
<text text-anchor="middle" x="209.5" y="-119.5" font-family="Helvetica,sans-Serif" font-size="10.00">vector</text>
</a>
</g>
</g>
<!-- Node2&#45;&gt;Node3 -->
<g id="edge2" class="edge">
<title>Node2&#45;&gt;Node3</title>
<path fill="none" stroke="midnightblue" d="M178.61,-168.08C183.78,-160.53 191.35,-149.49 197.69,-140.23"/>
<polygon fill="midnightblue" stroke="midnightblue" points="200.74,-141.98 203.5,-131.75 194.96,-138.02 200.74,-141.98"/>
</g>
<!-- Node4 -->
<g id="node4" class="node">
<title>Node4</title>
<g id="a_node4"><a xlink:title=" ">
<polygon fill="white" stroke="#bfbfbf" points="0,-112.5 0,-131.5 57,-131.5 57,-112.5 0,-112.5"/>
<text text-anchor="middle" x="28.5" y="-119.5" font-family="Helvetica,sans-Serif" font-size="10.00">ostream</text>
</a>
</g>
</g>
<!-- Node2&#45;&gt;Node4 -->
<g id="edge3" class="edge">
<title>Node2&#45;&gt;Node4</title>
<path fill="none" stroke="midnightblue" d="M149.68,-168.44C125.67,-159.44 87.67,-145.19 60.63,-135.05"/>
<polygon fill="midnightblue" stroke="midnightblue" points="61.8,-131.75 51.21,-131.52 59.34,-138.3 61.8,-131.75"/>
</g>
<!-- Node5 -->
<g id="node5" class="node">
<title>Node5</title>
<g id="a_node5"><a xlink:title=" ">
<polygon fill="white" stroke="#bfbfbf" points="75.5,-112.5 75.5,-131.5 167.5,-131.5 167.5,-112.5 75.5,-112.5"/>
<text text-anchor="middle" x="121.5" y="-119.5" font-family="Helvetica,sans-Serif" font-size="10.00">impl/Chains.ipp</text>
</a>
</g>
</g>
<!-- Node2&#45;&gt;Node5 -->
<g id="edge4" class="edge">
<title>Node2&#45;&gt;Node5</title>
<path fill="none" stroke="midnightblue" d="M164.08,-168.08C156.65,-160.22 145.65,-148.57 136.69,-139.08"/>
<polygon fill="midnightblue" stroke="midnightblue" points="139.18,-136.62 129.76,-131.75 134.09,-141.42 139.18,-136.62"/>
</g>
<!-- Node6&#45;&gt;Node3 -->
<g id="edge6" class="edge">
<title>Node6&#45;&gt;Node3</title>
<path fill="none" stroke="midnightblue" d="M318.9,-168.44C297.51,-159.56 263.82,-145.56 239.48,-135.45"/>
<polygon fill="midnightblue" stroke="midnightblue" points="240.58,-132.12 230,-131.52 237.89,-138.58 240.58,-132.12"/>
</g>
<!-- Node7 -->
<g id="node7" class="node">
<title>Node7</title>
<g id="a_node7"><a xlink:href="Aliases_8hpp.html" target="_top" xlink:title="Contains general template aliases.">
<polygon fill="white" stroke="black" points="251.5,-112.5 251.5,-131.5 355.5,-131.5 355.5,-112.5 251.5,-112.5"/>
<text text-anchor="middle" x="303.5" y="-119.5" font-family="Helvetica,sans-Serif" font-size="10.00">Types/Aliases.hpp</text>
</a>
</g>
</g>
<!-- Node6&#45;&gt;Node7 -->
<g id="edge7" class="edge">
<title>Node6&#45;&gt;Node7</title>
<path fill="none" stroke="midnightblue" d="M333.56,-168.08C328.52,-160.53 321.16,-149.49 314.99,-140.23"/>
<polygon fill="midnightblue" stroke="midnightblue" points="317.79,-138.13 309.33,-131.75 311.97,-142.01 317.79,-138.13"/>
</g>
<!-- Node12 -->
<g id="node12" class="node">
<title>Node12</title>
<g id="a_node12"><a xlink:title=" ">
<polygon fill="white" stroke="#bfbfbf" points="373.5,-112.5 373.5,-131.5 429.5,-131.5 429.5,-112.5 373.5,-112.5"/>
<text text-anchor="middle" x="401.5" y="-119.5" font-family="Helvetica,sans-Serif" font-size="10.00">numeric</text>
</a>
</g>
</g>
<!-- Node6&#45;&gt;Node12 -->
<g id="edge12" class="edge">
<title>Node6&#45;&gt;Node12</title>
<path fill="none" stroke="midnightblue" d="M349.46,-168.32C358.63,-160.34 372.44,-148.31 383.53,-138.65"/>
<polygon fill="midnightblue" stroke="midnightblue" points="386.12,-141.04 391.36,-131.83 381.52,-135.76 386.12,-141.04"/>
</g>
<!-- Node13 -->
<g id="node13" class="node">
<title>Node13</title>
<g id="a_node13"><a xlink:title=" ">
<polygon fill="white" stroke="#bfbfbf" points="447.5,-112.5 447.5,-131.5 507.5,-131.5 507.5,-112.5 447.5,-112.5"/>
<text text-anchor="middle" x="477.5" y="-119.5" font-family="Helvetica,sans-Serif" font-size="10.00">iostream</text>
</a>
</g>
</g>
<!-- Node6&#45;&gt;Node13 -->
<g id="edge13" class="edge">
<title>Node6&#45;&gt;Node13</title>
<path fill="none" stroke="midnightblue" d="M361.37,-168.44C384.28,-159.48 420.48,-145.31 446.37,-135.18"/>
<polygon fill="midnightblue" stroke="midnightblue" points="447.7,-138.42 455.74,-131.52 445.15,-131.9 447.7,-138.42"/>
</g>
<!-- Node14 -->
<g id="node14" class="node">
<title>Node14</title>
<g id="a_node14"><a xlink:title=" ">
<polygon fill="white" stroke="#bfbfbf" points="525.5,-112.5 525.5,-131.5 623.5,-131.5 623.5,-112.5 525.5,-112.5"/>
<text text-anchor="middle" x="574.5" y="-119.5" font-family="Helvetica,sans-Serif" font-size="10.00">impl/General.ipp</text>
</a>
</g>
</g>
<!-- Node6&#45;&gt;Node14 -->
<g id="edge14" class="edge">
<title>Node6&#45;&gt;Node14</title>
<path fill="none" stroke="midnightblue" d="M376.74,-168.44C417.56,-159.06 483.14,-143.99 527.48,-133.8"/>
<polygon fill="midnightblue" stroke="midnightblue" points="528.48,-137.17 537.44,-131.52 526.91,-130.34 528.48,-137.17"/>
</g>
<!-- Node8 -->
<g id="node8" class="node">
<title>Node8</title>
<g id="a_node8"><a xlink:title=" ">
<polygon fill="white" stroke="#bfbfbf" points="168,-56.5 168,-75.5 245,-75.5 245,-56.5 168,-56.5"/>
<text text-anchor="middle" x="206.5" y="-63.5" font-family="Helvetica,sans-Serif" font-size="10.00">Eigen/Dense</text>
</a>
</g>
</g>
<!-- Node7&#45;&gt;Node8 -->
<g id="edge8" class="edge">
<title>Node7&#45;&gt;Node8</title>
<path fill="none" stroke="midnightblue" d="M287.92,-112.32C272.5,-103.74 248.69,-90.49 230.79,-80.52"/>
<polygon fill="midnightblue" stroke="midnightblue" points="232.49,-77.46 222.05,-75.65 229.08,-83.58 232.49,-77.46"/>
</g>
<!-- Node9 -->
<g id="node9" class="node">
<title>Node9</title>
<g id="a_node9"><a xlink:title=" ">
<polygon fill="white" stroke="#bfbfbf" points="263.5,-56.5 263.5,-75.5 343.5,-75.5 343.5,-56.5 263.5,-56.5"/>
<text text-anchor="middle" x="303.5" y="-63.5" font-family="Helvetica,sans-Serif" font-size="10.00">Eigen/Sparse</text>
</a>
</g>
</g>
<!-- Node7&#45;&gt;Node9 -->
<g id="edge9" class="edge">
<title>Node7&#45;&gt;Node9</title>
<path fill="none" stroke="midnightblue" d="M303.5,-112.08C303.5,-105.01 303.5,-94.86 303.5,-85.99"/>
<polygon fill="midnightblue" stroke="midnightblue" points="307,-85.75 303.5,-75.75 300,-85.75 307,-85.75"/>
</g>
<!-- Node10 -->
<g id="node10" class="node">
<title>Node10</title>
<g id="a_node10"><a xlink:href="SFINAE_8hpp.html" target="_top" xlink:title="Contains all the SFINAE tricks.">
<polygon fill="white" stroke="black" points="362,-56.5 362,-75.5 435,-75.5 435,-56.5 362,-56.5"/>
<text text-anchor="middle" x="398.5" y="-63.5" font-family="Helvetica,sans-Serif" font-size="10.00">SFINAE.hpp</text>
</a>
</g>
</g>
<!-- Node7&#45;&gt;Node10 -->
<g id="edge10" class="edge">
<title>Node7&#45;&gt;Node10</title>
<path fill="none" stroke="midnightblue" d="M318.76,-112.32C333.72,-103.82 356.75,-90.73 374.23,-80.8"/>
<polygon fill="midnightblue" stroke="midnightblue" points="376.31,-83.64 383.27,-75.65 372.85,-77.55 376.31,-83.64"/>
</g>
<!-- Node11 -->
<g id="node11" class="node">
<title>Node11</title>
<g id="a_node11"><a xlink:title=" ">
<polygon fill="white" stroke="#bfbfbf" points="364,-0.5 364,-19.5 433,-19.5 433,-0.5 364,-0.5"/>
<text text-anchor="middle" x="398.5" y="-7.5" font-family="Helvetica,sans-Serif" font-size="10.00">type_traits</text>
</a>
</g>
</g>
<!-- Node10&#45;&gt;Node11 -->
<g id="edge11" class="edge">
<title>Node10&#45;&gt;Node11</title>
<path fill="none" stroke="midnightblue" d="M398.5,-56.08C398.5,-49.01 398.5,-38.86 398.5,-29.99"/>
<polygon fill="midnightblue" stroke="midnightblue" points="402,-29.75 398.5,-19.75 395,-29.75 402,-29.75"/>
</g>
</g>
</svg>
