<?xml version="1.0" encoding="UTF-8" standalone="no"?>
<!DOCTYPE svg PUBLIC "-//W3C//DTD SVG 1.1//EN"
 "http://www.w3.org/Graphics/SVG/1.1/DTD/svg11.dtd">
<!-- Generated by graphviz version 2.43.0 (0)
 -->
<!-- Title: Cerealizer.hpp Pages: 1 -->
<!--zoomable 700 -->
<svg id="main" version="1.1" xmlns="http://www.w3.org/2000/svg" xmlns:xlink="http://www.w3.org/1999/xlink" xml:space="preserve" onload="init(evt)">
<style type="text/css"><![CDATA[
.edge:hover path { stroke: red; }
.edge:hover polygon { stroke: red; fill: red; }
]]></style>
<script type="text/javascript"><![CDATA[
var edges = document.getElementsByTagName('g');
if (edges && edges.length) {
  for (var i=0;i<edges.length;i++) {
    if (edges[i].id.substr(0,4)=='edge') {
      edges[i].setAttribute('class','edge');
    }
  }
}
]]></script>
        <defs>
                <circle id="rim" cx="0" cy="0" r="7"/>
                <circle id="rim2" cx="0" cy="0" r="3.5"/>
                <g id="zoomPlus">
                        <use xlink:href="#rim" fill="#404040">
                                <set attributeName="fill" to="#808080" begin="zoomplus.mouseover" end="zoomplus.mouseout"/>
                        </use>
                        <path d="M-4,0h8M0,-4v8" fill="none" stroke="white" stroke-width="1.5" pointer-events="none"/>
                </g>
                <g id="zoomMin">
                        <use xlink:href="#rim" fill="#404040">
                                <set attributeName="fill" to="#808080" begin="zoomminus.mouseover" end="zoomminus.mouseout"/>
                        </use>
                        <path d="M-4,0h8" fill="none" stroke="white" stroke-width="1.5" pointer-events="none"/>
                </g>
                <g id="dirArrow">
                        <path fill="none" stroke="white" stroke-width="1.5" d="M0,-3.0v7 M-2.5,-0.5L0,-3.0L2.5,-0.5"/>
                </g>
               <g id="resetDef">
                       <use xlink:href="#rim2" fill="#404040">
                               <set attributeName="fill" to="#808080" begin="reset.mouseover" end="reset.mouseout"/>
                       </use>
               </g>
        </defs>

<script type="text/javascript">
var viewWidth = 1963;
var viewHeight = 700;
var sectionId = 'dynsection-0';
</script>
<script xlink:href="svgpan.js"/>
<svg id="graph" class="graph">
<g id="viewport">
<title>Cerealizer.hpp</title>
<polygon fill="white" stroke="transparent" points="-4,4 -4,-696 1959,-696 1959,4 -4,4"/>
<!-- Node1 -->
<g id="node1" class="node">
<title>Node1</title>
<g id="a_node1"><a xlink:title="Contains the methods for serializing the results of our computations (before their interpretation) vi...">
<polygon fill="#bfbfbf" stroke="black" points="690.5,-672.5 690.5,-691.5 776.5,-691.5 776.5,-672.5 690.5,-672.5"/>
<text text-anchor="middle" x="733.5" y="-679.5" font-family="Helvetica,sans-Serif" font-size="10.00">Cerealizer.hpp</text>
</a>
</g>
</g>
<!-- Node2 -->
<g id="node2" class="node">
<title>Node2</title>
<g id="a_node2"><a xlink:title=" ">
<polygon fill="white" stroke="#bfbfbf" points="0,-616.5 0,-635.5 55,-635.5 55,-616.5 0,-616.5"/>
<text text-anchor="middle" x="27.5" y="-623.5" font-family="Helvetica,sans-Serif" font-size="10.00">fstream</text>
</a>
</g>
</g>
<!-- Node1&#45;&gt;Node2 -->
<g id="edge1" class="edge">
<title>Node1&#45;&gt;Node2</title>
<path fill="none" stroke="midnightblue" d="M690.17,-680.65C584.73,-679.25 306.38,-672.27 65.28,-635.83"/>
<polygon fill="midnightblue" stroke="midnightblue" points="65.69,-632.35 55.28,-634.3 64.63,-639.27 65.69,-632.35"/>
</g>
<!-- Node3 -->
<g id="node3" class="node">
<title>Node3</title>
<g id="a_node3"><a xlink:title=" ">
<polygon fill="white" stroke="#bfbfbf" points="73.5,-616.5 73.5,-635.5 217.5,-635.5 217.5,-616.5 73.5,-616.5"/>
<text text-anchor="middle" x="145.5" y="-623.5" font-family="Helvetica,sans-Serif" font-size="10.00">cereal/archives/binary.hpp</text>
</a>
</g>
</g>
<!-- Node1&#45;&gt;Node3 -->
<g id="edge2" class="edge">
<title>Node1&#45;&gt;Node3</title>
<path fill="none" stroke="midnightblue" d="M690.4,-677.5C604.53,-670.45 405.74,-653.79 227.97,-636.13"/>
<polygon fill="midnightblue" stroke="midnightblue" points="228.21,-632.64 217.92,-635.13 227.52,-639.6 228.21,-632.64"/>
</g>
<!-- Node4 -->
<g id="node4" class="node">
<title>Node4</title>
<g id="a_node4"><a xlink:title=" ">
<polygon fill="white" stroke="#bfbfbf" points="236,-616.5 236,-635.5 361,-635.5 361,-616.5 236,-616.5"/>
<text text-anchor="middle" x="298.5" y="-623.5" font-family="Helvetica,sans-Serif" font-size="10.00">cereal/types/array.hpp</text>
</a>
</g>
</g>
<!-- Node1&#45;&gt;Node4 -->
<g id="edge3" class="edge">
<title>Node1&#45;&gt;Node4</title>
<path fill="none" stroke="midnightblue" d="M690.47,-675.68C624.36,-667.5 493.54,-651.31 371.59,-636.13"/>
<polygon fill="midnightblue" stroke="midnightblue" points="371.68,-632.62 361.33,-634.86 370.82,-639.57 371.68,-632.62"/>
</g>
<!-- Node5 -->
<g id="node5" class="node">
<title>Node5</title>
<g id="a_node5"><a xlink:title=" ">
<polygon fill="white" stroke="#bfbfbf" points="379.5,-616.5 379.5,-635.5 501.5,-635.5 501.5,-616.5 379.5,-616.5"/>
<text text-anchor="middle" x="440.5" y="-623.5" font-family="Helvetica,sans-Serif" font-size="10.00">cereal/types/map.hpp</text>
</a>
</g>
</g>
<!-- Node1&#45;&gt;Node5 -->
<g id="edge4" class="edge">
<title>Node1&#45;&gt;Node5</title>
<path fill="none" stroke="midnightblue" d="M690.27,-673.03C638.91,-663.57 553.1,-647.75 496.65,-637.35"/>
<polygon fill="midnightblue" stroke="midnightblue" points="497.28,-633.91 486.82,-635.54 496.02,-640.79 497.28,-633.91"/>
</g>
<!-- Node6 -->
<g id="node6" class="node">
<title>Node6</title>
<g id="a_node6"><a xlink:title=" ">
<polygon fill="white" stroke="#bfbfbf" points="520,-616.5 520,-635.5 651,-635.5 651,-616.5 520,-616.5"/>
<text text-anchor="middle" x="585.5" y="-623.5" font-family="Helvetica,sans-Serif" font-size="10.00">cereal/types/vector.hpp</text>
</a>
</g>
</g>
<!-- Node1&#45;&gt;Node6 -->
<g id="edge5" class="edge">
<title>Node1&#45;&gt;Node6</title>
<path fill="none" stroke="midnightblue" d="M710.05,-672.44C685.37,-663.44 646.31,-649.19 618.52,-639.05"/>
<polygon fill="midnightblue" stroke="midnightblue" points="619.44,-635.66 608.84,-635.52 617.04,-642.23 619.44,-635.66"/>
</g>
<!-- Node7 -->
<g id="node7" class="node">
<title>Node7</title>
<g id="a_node7"><a xlink:title=" ">
<polygon fill="white" stroke="#bfbfbf" points="669.5,-616.5 669.5,-635.5 797.5,-635.5 797.5,-616.5 669.5,-616.5"/>
<text text-anchor="middle" x="733.5" y="-623.5" font-family="Helvetica,sans-Serif" font-size="10.00">cereal/types/utility.hpp</text>
</a>
</g>
</g>
<!-- Node1&#45;&gt;Node7 -->
<g id="edge6" class="edge">
<title>Node1&#45;&gt;Node7</title>
<path fill="none" stroke="midnightblue" d="M733.5,-672.08C733.5,-665.01 733.5,-654.86 733.5,-645.99"/>
<polygon fill="midnightblue" stroke="midnightblue" points="737,-645.75 733.5,-635.75 730,-645.75 737,-645.75"/>
</g>
<!-- Node8 -->
<g id="node8" class="node">
<title>Node8</title>
<g id="a_node8"><a xlink:title=" ">
<polygon fill="white" stroke="#bfbfbf" points="815.5,-616.5 815.5,-635.5 943.5,-635.5 943.5,-616.5 815.5,-616.5"/>
<text text-anchor="middle" x="879.5" y="-623.5" font-family="Helvetica,sans-Serif" font-size="10.00">cereal/types/string.hpp</text>
</a>
</g>
</g>
<!-- Node1&#45;&gt;Node8 -->
<g id="edge7" class="edge">
<title>Node1&#45;&gt;Node8</title>
<path fill="none" stroke="midnightblue" d="M756.63,-672.44C780.98,-663.44 819.51,-649.19 846.92,-639.05"/>
<polygon fill="midnightblue" stroke="midnightblue" points="848.31,-642.27 856.47,-635.52 845.88,-635.7 848.31,-642.27"/>
</g>
<!-- Node9 -->
<g id="node9" class="node">
<title>Node9</title>
<g id="a_node9"><a xlink:href="Z__n_8hpp.html" target="_top" xlink:title="Contains the class for Z/N coefficients.">
<polygon fill="white" stroke="black" points="1083.5,-168.5 1083.5,-187.5 1199.5,-187.5 1199.5,-168.5 1083.5,-168.5"/>
<text text-anchor="middle" x="1141.5" y="-175.5" font-family="Helvetica,sans-Serif" font-size="10.00">Coefficients/Z_n.hpp</text>
</a>
</g>
</g>
<!-- Node1&#45;&gt;Node9 -->
<g id="edge8" class="edge">
<title>Node1&#45;&gt;Node9</title>
<path fill="none" stroke="midnightblue" d="M776.93,-677.34C833.29,-671.74 927.38,-659.15 952.5,-636 974.63,-615.6 971.5,-601.1 971.5,-571 971.5,-571 971.5,-571 971.5,-289 971.5,-232.81 1037.78,-203.9 1087.56,-190.12"/>
<polygon fill="midnightblue" stroke="midnightblue" points="1088.5,-193.49 1097.28,-187.56 1086.72,-186.72 1088.5,-193.49"/>
</g>
<!-- Node16 -->
<g id="node16" class="node">
<title>Node16</title>
<g id="a_node16"><a xlink:href="Additive_8hpp.html" target="_top" xlink:title="Contains the class for presenting the additive structure of the RO(G) homology.">
<polygon fill="white" stroke="black" points="1111,-448.5 1111,-467.5 1276,-467.5 1276,-448.5 1111,-448.5"/>
<text text-anchor="middle" x="1193.5" y="-455.5" font-family="Helvetica,sans-Serif" font-size="10.00">Mackey_Functors/Additive.hpp</text>
</a>
</g>
</g>
<!-- Node1&#45;&gt;Node16 -->
<g id="edge15" class="edge">
<title>Node1&#45;&gt;Node16</title>
<path fill="none" stroke="midnightblue" d="M776.58,-680.09C828.47,-677.51 917.17,-668.24 985.5,-636 1070.49,-595.9 1148.56,-511.79 1179.48,-475.86"/>
<polygon fill="midnightblue" stroke="midnightblue" points="1182.5,-477.71 1186.3,-467.82 1177.16,-473.18 1182.5,-477.71"/>
</g>
<!-- Node56 -->
<g id="node38" class="node">
<title>Node56</title>
<g id="a_node38"><a xlink:href="Factorization_8hpp.html" target="_top" xlink:title="Contains the multiplication graph and the methods for factorizing generators.">
<polygon fill="white" stroke="black" points="1129,-616.5 1129,-635.5 1294,-635.5 1294,-616.5 1129,-616.5"/>
<text text-anchor="middle" x="1211.5" y="-623.5" font-family="Helvetica,sans-Serif" font-size="10.00">Factorization/Factorization.hpp</text>
</a>
</g>
</g>
<!-- Node1&#45;&gt;Node56 -->
<g id="edge43" class="edge">
<title>Node1&#45;&gt;Node56</title>
<path fill="none" stroke="midnightblue" d="M776.76,-676.11C855.49,-667.22 1023.51,-648.24 1126.07,-636.65"/>
<polygon fill="midnightblue" stroke="midnightblue" points="1126.55,-640.12 1136.09,-635.52 1125.76,-633.16 1126.55,-640.12"/>
</g>
<!-- Node68 -->
<g id="node50" class="node">
<title>Node68</title>
<g id="a_node50"><a xlink:title=" ">
<polygon fill="white" stroke="#bfbfbf" points="1312.5,-616.5 1312.5,-635.5 1420.5,-635.5 1420.5,-616.5 1312.5,-616.5"/>
<text text-anchor="middle" x="1366.5" y="-623.5" font-family="Helvetica,sans-Serif" font-size="10.00">impl/Cerealizer.ipp</text>
</a>
</g>
</g>
<!-- Node1&#45;&gt;Node68 -->
<g id="edge62" class="edge">
<title>Node1&#45;&gt;Node68</title>
<path fill="none" stroke="midnightblue" d="M776.85,-678.51C870.65,-672.93 1099.64,-658.22 1302.01,-636.1"/>
<polygon fill="midnightblue" stroke="midnightblue" points="1302.68,-639.55 1312.23,-634.97 1301.91,-632.59 1302.68,-639.55"/>
</g>
<!-- Node10 -->
<g id="node10" class="node">
<title>Node10</title>
<g id="a_node10"><a xlink:title=" ">
<polygon fill="white" stroke="#bfbfbf" points="1275.5,-112.5 1275.5,-131.5 1335.5,-131.5 1335.5,-112.5 1275.5,-112.5"/>
<text text-anchor="middle" x="1305.5" y="-119.5" font-family="Helvetica,sans-Serif" font-size="10.00">iostream</text>
</a>
</g>
</g>
<!-- Node9&#45;&gt;Node10 -->
<g id="edge9" class="edge">
<title>Node9&#45;&gt;Node10</title>
<path fill="none" stroke="midnightblue" d="M1167.49,-168.44C1195.2,-159.32 1239.25,-144.81 1270.12,-134.65"/>
<polygon fill="midnightblue" stroke="midnightblue" points="1271.23,-137.97 1279.64,-131.52 1269.04,-131.32 1271.23,-137.97"/>
</g>
<!-- Node11 -->
<g id="node11" class="node">
<title>Node11</title>
<g id="a_node11"><a xlink:title=" ">
<polygon fill="white" stroke="#bfbfbf" points="1081.5,-112.5 1081.5,-131.5 1123.5,-131.5 1123.5,-112.5 1081.5,-112.5"/>
<text text-anchor="middle" x="1102.5" y="-119.5" font-family="Helvetica,sans-Serif" font-size="10.00">array</text>
</a>
</g>
</g>
<!-- Node9&#45;&gt;Node11 -->
<g id="edge10" class="edge">
<title>Node9&#45;&gt;Node11</title>
<path fill="none" stroke="midnightblue" d="M1135.06,-168.08C1129.55,-160.46 1121.47,-149.26 1114.74,-139.94"/>
<polygon fill="midnightblue" stroke="midnightblue" points="1117.51,-137.81 1108.82,-131.75 1111.84,-141.91 1117.51,-137.81"/>
</g>
<!-- Node12 -->
<g id="node12" class="node">
<title>Node12</title>
<g id="a_node12"><a xlink:title=" ">
<polygon fill="white" stroke="#bfbfbf" points="1137,-56.5 1137,-75.5 1214,-75.5 1214,-56.5 1137,-56.5"/>
<text text-anchor="middle" x="1175.5" y="-63.5" font-family="Helvetica,sans-Serif" font-size="10.00">Eigen/Dense</text>
</a>
</g>
</g>
<!-- Node9&#45;&gt;Node12 -->
<g id="edge11" class="edge">
<title>Node9&#45;&gt;Node12</title>
<path fill="none" stroke="midnightblue" d="M1119.53,-168.45C1093.9,-157.13 1056.91,-135.82 1072.5,-112 1084.71,-93.34 1106.55,-82.37 1126.99,-75.94"/>
<polygon fill="midnightblue" stroke="midnightblue" points="1128.19,-79.24 1136.86,-73.14 1126.28,-72.51 1128.19,-79.24"/>
</g>
<!-- Node13 -->
<g id="node13" class="node">
<title>Node13</title>
<g id="a_node13"><a xlink:href="SFINAE_8hpp.html" target="_top" xlink:title="Contains all the SFINAE tricks.">
<polygon fill="white" stroke="black" points="1274.5,-56.5 1274.5,-75.5 1378.5,-75.5 1378.5,-56.5 1274.5,-56.5"/>
<text text-anchor="middle" x="1326.5" y="-63.5" font-family="Helvetica,sans-Serif" font-size="10.00">Types/SFINAE.hpp</text>
</a>
</g>
</g>
<!-- Node9&#45;&gt;Node13 -->
<g id="edge12" class="edge">
<title>Node9&#45;&gt;Node13</title>
<path fill="none" stroke="midnightblue" d="M1159.47,-168.42C1177.28,-159.74 1205.19,-145.7 1228.5,-132 1256,-115.83 1286.44,-95.19 1305.99,-81.55"/>
<polygon fill="midnightblue" stroke="midnightblue" points="1308.22,-84.26 1314.4,-75.65 1304.2,-78.53 1308.22,-84.26"/>
</g>
<!-- Node15 -->
<g id="node15" class="node">
<title>Node15</title>
<g id="a_node15"><a xlink:title=" ">
<polygon fill="white" stroke="#bfbfbf" points="1142,-112.5 1142,-131.5 1219,-131.5 1219,-112.5 1142,-112.5"/>
<text text-anchor="middle" x="1180.5" y="-119.5" font-family="Helvetica,sans-Serif" font-size="10.00">impl/Z_n.ipp</text>
</a>
</g>
</g>
<!-- Node9&#45;&gt;Node15 -->
<g id="edge14" class="edge">
<title>Node9&#45;&gt;Node15</title>
<path fill="none" stroke="midnightblue" d="M1147.94,-168.08C1153.45,-160.46 1161.53,-149.26 1168.26,-139.94"/>
<polygon fill="midnightblue" stroke="midnightblue" points="1171.16,-141.91 1174.18,-131.75 1165.49,-137.81 1171.16,-141.91"/>
</g>
<!-- Node14 -->
<g id="node14" class="node">
<title>Node14</title>
<g id="a_node14"><a xlink:title=" ">
<polygon fill="white" stroke="#bfbfbf" points="1292,-0.5 1292,-19.5 1361,-19.5 1361,-0.5 1292,-0.5"/>
<text text-anchor="middle" x="1326.5" y="-7.5" font-family="Helvetica,sans-Serif" font-size="10.00">type_traits</text>
</a>
</g>
</g>
<!-- Node13&#45;&gt;Node14 -->
<g id="edge13" class="edge">
<title>Node13&#45;&gt;Node14</title>
<path fill="none" stroke="midnightblue" d="M1326.5,-56.08C1326.5,-49.01 1326.5,-38.86 1326.5,-29.99"/>
<polygon fill="midnightblue" stroke="midnightblue" points="1330,-29.75 1326.5,-19.75 1323,-29.75 1330,-29.75"/>
</g>
<!-- Node17 -->
<g id="node17" class="node">
<title>Node17</title>
<g id="a_node17"><a xlink:href="OpenMP__Macros_8hpp.html" target="_top" xlink:title="Contains open MP macros if multithreading is desired in this library.">
<polygon fill="white" stroke="black" points="1117.5,-392.5 1117.5,-411.5 1269.5,-411.5 1269.5,-392.5 1117.5,-392.5"/>
<text text-anchor="middle" x="1193.5" y="-399.5" font-family="Helvetica,sans-Serif" font-size="10.00">Utility/OpenMP_Macros.hpp</text>
</a>
</g>
</g>
<!-- Node16&#45;&gt;Node17 -->
<g id="edge16" class="edge">
<title>Node16&#45;&gt;Node17</title>
<path fill="none" stroke="midnightblue" d="M1193.5,-448.08C1193.5,-441.01 1193.5,-430.86 1193.5,-421.99"/>
<polygon fill="midnightblue" stroke="midnightblue" points="1197,-421.75 1193.5,-411.75 1190,-421.75 1197,-421.75"/>
</g>
<!-- Node18 -->
<g id="node18" class="node">
<title>Node18</title>
<g id="a_node18"><a xlink:href="Point_8hpp.html" target="_top" xlink:title="Contains the computations for RO(G) homology of a point.">
<polygon fill="white" stroke="black" points="1325.5,-392.5 1325.5,-411.5 1425.5,-411.5 1425.5,-392.5 1325.5,-392.5"/>
<text text-anchor="middle" x="1375.5" y="-399.5" font-family="Helvetica,sans-Serif" font-size="10.00">Spaces/Point.hpp</text>
</a>
</g>
</g>
<!-- Node16&#45;&gt;Node18 -->
<g id="edge17" class="edge">
<title>Node16&#45;&gt;Node18</title>
<path fill="none" stroke="midnightblue" d="M1222.34,-448.44C1253.36,-439.24 1302.83,-424.56 1337.12,-414.39"/>
<polygon fill="midnightblue" stroke="midnightblue" points="1338.21,-417.72 1346.8,-411.52 1336.21,-411.01 1338.21,-417.72"/>
</g>
<!-- Node54 -->
<g id="node36" class="node">
<title>Node54</title>
<g id="a_node36"><a xlink:title=" ">
<polygon fill="white" stroke="#bfbfbf" points="1443.5,-392.5 1443.5,-411.5 1499.5,-411.5 1499.5,-392.5 1443.5,-392.5"/>
<text text-anchor="middle" x="1471.5" y="-399.5" font-family="Helvetica,sans-Serif" font-size="10.00">iomanip</text>
</a>
</g>
</g>
<!-- Node16&#45;&gt;Node54 -->
<g id="edge41" class="edge">
<title>Node16&#45;&gt;Node54</title>
<path fill="none" stroke="midnightblue" d="M1243.51,-448.47C1290.16,-440.34 1361.94,-427.36 1433.2,-412.19"/>
<polygon fill="midnightblue" stroke="midnightblue" points="1434.21,-415.56 1443.25,-410.04 1432.74,-408.71 1434.21,-415.56"/>
</g>
<!-- Node55 -->
<g id="node37" class="node">
<title>Node55</title>
<g id="a_node37"><a xlink:title=" ">
<polygon fill="white" stroke="#bfbfbf" points="999.5,-392.5 999.5,-411.5 1099.5,-411.5 1099.5,-392.5 999.5,-392.5"/>
<text text-anchor="middle" x="1049.5" y="-399.5" font-family="Helvetica,sans-Serif" font-size="10.00">impl/Additive.ipp</text>
</a>
</g>
</g>
<!-- Node16&#45;&gt;Node55 -->
<g id="edge42" class="edge">
<title>Node16&#45;&gt;Node55</title>
<path fill="none" stroke="midnightblue" d="M1170.68,-448.44C1146.67,-439.44 1108.67,-425.19 1081.63,-415.05"/>
<polygon fill="midnightblue" stroke="midnightblue" points="1082.8,-411.75 1072.21,-411.52 1080.34,-418.3 1082.8,-411.75"/>
</g>
<!-- Node19 -->
<g id="node19" class="node">
<title>Node19</title>
<g id="a_node19"><a xlink:href="Massey_8hpp.html" target="_top" xlink:title="Contains the class and methods for Massey Products.">
<polygon fill="white" stroke="black" points="1367,-336.5 1367,-355.5 1486,-355.5 1486,-336.5 1367,-336.5"/>
<text text-anchor="middle" x="1426.5" y="-343.5" font-family="Helvetica,sans-Serif" font-size="10.00">Products/Massey.hpp</text>
</a>
</g>
</g>
<!-- Node18&#45;&gt;Node19 -->
<g id="edge18" class="edge">
<title>Node18&#45;&gt;Node19</title>
<path fill="none" stroke="midnightblue" d="M1383.92,-392.08C1391.35,-384.22 1402.35,-372.57 1411.31,-363.08"/>
<polygon fill="midnightblue" stroke="midnightblue" points="1413.91,-365.42 1418.24,-355.75 1408.82,-360.62 1413.91,-365.42"/>
</g>
<!-- Node51 -->
<g id="node33" class="node">
<title>Node51</title>
<g id="a_node33"><a xlink:href="Morse_8hpp.html" target="_top" xlink:title="Contains classes for (equivariant) Algebraic Morse Theory.">
<polygon fill="white" stroke="black" points="1693.5,-224.5 1693.5,-243.5 1851.5,-243.5 1851.5,-224.5 1693.5,-224.5"/>
<text text-anchor="middle" x="1772.5" y="-231.5" font-family="Helvetica,sans-Serif" font-size="10.00">Chain_Complexes/Morse.hpp</text>
</a>
</g>
</g>
<!-- Node18&#45;&gt;Node51 -->
<g id="edge36" class="edge">
<title>Node18&#45;&gt;Node51</title>
<path fill="none" stroke="midnightblue" d="M1399.55,-392.41C1423.88,-383.61 1462.51,-369.38 1495.5,-356 1587.59,-318.65 1695.02,-270.34 1744.69,-247.73"/>
<polygon fill="midnightblue" stroke="midnightblue" points="1746.19,-250.9 1753.84,-243.56 1743.29,-244.53 1746.19,-250.9"/>
</g>
<!-- Node53 -->
<g id="node35" class="node">
<title>Node53</title>
<g id="a_node35"><a xlink:title=" ">
<polygon fill="white" stroke="#bfbfbf" points="1264.5,-336.5 1264.5,-355.5 1348.5,-355.5 1348.5,-336.5 1264.5,-336.5"/>
<text text-anchor="middle" x="1306.5" y="-343.5" font-family="Helvetica,sans-Serif" font-size="10.00">impl/Point.ipp</text>
</a>
</g>
</g>
<!-- Node18&#45;&gt;Node53 -->
<g id="edge40" class="edge">
<title>Node18&#45;&gt;Node53</title>
<path fill="none" stroke="midnightblue" d="M1364.41,-392.32C1354.01,-384.18 1338.24,-371.84 1325.78,-362.09"/>
<polygon fill="midnightblue" stroke="midnightblue" points="1327.82,-359.24 1317.79,-355.83 1323.51,-364.75 1327.82,-359.24"/>
</g>
<!-- Node20 -->
<g id="node20" class="node">
<title>Node20</title>
<g id="a_node20"><a xlink:href="Green_8hpp.html" target="_top" xlink:title="Contains the class and methods for multiplying generators.">
<polygon fill="white" stroke="black" points="1343,-280.5 1343,-299.5 1410,-299.5 1410,-280.5 1343,-280.5"/>
<text text-anchor="middle" x="1376.5" y="-287.5" font-family="Helvetica,sans-Serif" font-size="10.00">Green.hpp</text>
</a>
</g>
</g>
<!-- Node19&#45;&gt;Node20 -->
<g id="edge19" class="edge">
<title>Node19&#45;&gt;Node20</title>
<path fill="none" stroke="midnightblue" d="M1418.24,-336.08C1411.04,-328.3 1400.39,-316.8 1391.65,-307.37"/>
<polygon fill="midnightblue" stroke="midnightblue" points="1393.97,-304.71 1384.6,-299.75 1388.83,-309.47 1393.97,-304.71"/>
</g>
<!-- Node50 -->
<g id="node32" class="node">
<title>Node50</title>
<g id="a_node32"><a xlink:title=" ">
<polygon fill="white" stroke="#bfbfbf" points="1428,-280.5 1428,-299.5 1523,-299.5 1523,-280.5 1428,-280.5"/>
<text text-anchor="middle" x="1475.5" y="-287.5" font-family="Helvetica,sans-Serif" font-size="10.00">impl/Massey.ipp</text>
</a>
</g>
</g>
<!-- Node19&#45;&gt;Node50 -->
<g id="edge35" class="edge">
<title>Node19&#45;&gt;Node50</title>
<path fill="none" stroke="midnightblue" d="M1434.59,-336.08C1441.66,-328.3 1452.09,-316.8 1460.65,-307.37"/>
<polygon fill="midnightblue" stroke="midnightblue" points="1463.43,-309.51 1467.56,-299.75 1458.25,-304.8 1463.43,-309.51"/>
</g>
<!-- Node21 -->
<g id="node21" class="node">
<title>Node21</title>
<g id="a_node21"><a xlink:href="Levels_8hpp.html" target="_top" xlink:title="Contains the methods for transfering, restricting and act&#45;group&#45;acting.">
<polygon fill="white" stroke="red" points="1519.5,-224.5 1519.5,-243.5 1675.5,-243.5 1675.5,-224.5 1519.5,-224.5"/>
<text text-anchor="middle" x="1597.5" y="-231.5" font-family="Helvetica,sans-Serif" font-size="10.00">Mackey_Functors/Levels.hpp</text>
</a>
</g>
</g>
<!-- Node20&#45;&gt;Node21 -->
<g id="edge20" class="edge">
<title>Node20&#45;&gt;Node21</title>
<path fill="none" stroke="midnightblue" d="M1410.07,-280.8C1448.18,-271.48 1510.55,-256.24 1552.78,-245.93"/>
<polygon fill="midnightblue" stroke="midnightblue" points="1553.64,-249.32 1562.52,-243.55 1551.98,-242.52 1553.64,-249.32"/>
</g>
<!-- Node38 -->
<g id="node22" class="node">
<title>Node38</title>
<g id="a_node22"><a xlink:href="Identify_8hpp.html" target="_top" xlink:title="Contains the identification classes.">
<polygon fill="white" stroke="red" points="1069.5,-224.5 1069.5,-243.5 1229.5,-243.5 1229.5,-224.5 1069.5,-224.5"/>
<text text-anchor="middle" x="1149.5" y="-231.5" font-family="Helvetica,sans-Serif" font-size="10.00">Mackey_Functors/Identify.hpp</text>
</a>
</g>
</g>
<!-- Node20&#45;&gt;Node38 -->
<g id="edge21" class="edge">
<title>Node20&#45;&gt;Node38</title>
<path fill="none" stroke="midnightblue" d="M1342.52,-280.92C1303.39,-271.61 1238.92,-256.27 1195.37,-245.91"/>
<polygon fill="midnightblue" stroke="midnightblue" points="1196.13,-242.5 1185.6,-243.59 1194.51,-249.31 1196.13,-242.5"/>
</g>
<!-- Node43 -->
<g id="node23" class="node">
<title>Node43</title>
<g id="a_node23"><a xlink:href="Box_8hpp.html" target="_top" xlink:title="Contains the construction of box products of Chains.">
<polygon fill="white" stroke="red" points="1355.5,-224.5 1355.5,-243.5 1501.5,-243.5 1501.5,-224.5 1355.5,-224.5"/>
<text text-anchor="middle" x="1428.5" y="-231.5" font-family="Helvetica,sans-Serif" font-size="10.00">Chain_Complexes/Box.hpp</text>
</a>
</g>
</g>
<!-- Node20&#45;&gt;Node43 -->
<g id="edge22" class="edge">
<title>Node20&#45;&gt;Node43</title>
<path fill="none" stroke="midnightblue" d="M1385.09,-280.08C1392.66,-272.22 1403.88,-260.57 1413.01,-251.08"/>
<polygon fill="midnightblue" stroke="midnightblue" points="1415.66,-253.38 1420.07,-243.75 1410.62,-248.53 1415.66,-253.38"/>
</g>
<!-- Node49 -->
<g id="node31" class="node">
<title>Node49</title>
<g id="a_node31"><a xlink:title=" ">
<polygon fill="white" stroke="#bfbfbf" points="1248,-224.5 1248,-243.5 1337,-243.5 1337,-224.5 1248,-224.5"/>
<text text-anchor="middle" x="1292.5" y="-231.5" font-family="Helvetica,sans-Serif" font-size="10.00">impl/Green.ipp</text>
</a>
</g>
</g>
<!-- Node20&#45;&gt;Node49 -->
<g id="edge34" class="edge">
<title>Node20&#45;&gt;Node49</title>
<path fill="none" stroke="midnightblue" d="M1363,-280.32C1349.9,-271.9 1329.79,-258.97 1314.39,-249.07"/>
<polygon fill="midnightblue" stroke="midnightblue" points="1316.27,-246.12 1305.96,-243.65 1312.48,-252.01 1316.27,-246.12"/>
</g>
<!-- Node27 -->
<g id="node24" class="node">
<title>Node27</title>
<g id="a_node24"><a xlink:href="General_8hpp.html" target="_top" xlink:title="Contains general functions and vector overloads independent of everything else.">
<polygon fill="white" stroke="red" points="1351,-168.5 1351,-187.5 1460,-187.5 1460,-168.5 1351,-168.5"/>
<text text-anchor="middle" x="1405.5" y="-175.5" font-family="Helvetica,sans-Serif" font-size="10.00">Utility/General.hpp</text>
</a>
</g>
</g>
<!-- Node43&#45;&gt;Node27 -->
<g id="edge23" class="edge">
<title>Node43&#45;&gt;Node27</title>
<path fill="none" stroke="midnightblue" d="M1424.7,-224.08C1421.59,-216.77 1417.08,-206.18 1413.21,-197.1"/>
<polygon fill="midnightblue" stroke="midnightblue" points="1416.37,-195.58 1409.23,-187.75 1409.93,-198.32 1416.37,-195.58"/>
</g>
<!-- Node23 -->
<g id="node28" class="node">
<title>Node23</title>
<g id="a_node28"><a xlink:href="Chains_8hpp.html" target="_top" xlink:title="Contains Chains and Junction classes for using chain complexes.">
<polygon fill="white" stroke="black" points="1498,-168.5 1498,-187.5 1659,-187.5 1659,-168.5 1498,-168.5"/>
<text text-anchor="middle" x="1578.5" y="-175.5" font-family="Helvetica,sans-Serif" font-size="10.00">Chain_Complexes/Chains.hpp</text>
</a>
</g>
</g>
<!-- Node43&#45;&gt;Node23 -->
<g id="edge30" class="edge">
<title>Node43&#45;&gt;Node23</title>
<path fill="none" stroke="midnightblue" d="M1452.27,-224.44C1477.39,-215.4 1517.21,-201.06 1545.4,-190.92"/>
<polygon fill="midnightblue" stroke="midnightblue" points="1546.62,-194.2 1554.84,-187.52 1544.25,-187.61 1546.62,-194.2"/>
</g>
<!-- Node27&#45;&gt;Node10 -->
<g id="edge29" class="edge">
<title>Node27&#45;&gt;Node10</title>
<path fill="none" stroke="midnightblue" d="M1389.43,-168.32C1373.54,-159.74 1348.99,-146.49 1330.54,-136.52"/>
<polygon fill="midnightblue" stroke="midnightblue" points="1331.99,-133.33 1321.53,-131.65 1328.66,-139.49 1331.99,-133.33"/>
</g>
<!-- Node24 -->
<g id="node25" class="node">
<title>Node24</title>
<g id="a_node25"><a xlink:title=" ">
<polygon fill="white" stroke="#bfbfbf" points="1662,-112.5 1662,-131.5 1709,-131.5 1709,-112.5 1662,-112.5"/>
<text text-anchor="middle" x="1685.5" y="-119.5" font-family="Helvetica,sans-Serif" font-size="10.00">vector</text>
</a>
</g>
</g>
<!-- Node27&#45;&gt;Node24 -->
<g id="edge24" class="edge">
<title>Node27&#45;&gt;Node24</title>
<path fill="none" stroke="midnightblue" d="M1459.74,-168.5C1507.71,-160.67 1579.78,-148.15 1651.63,-132.03"/>
<polygon fill="midnightblue" stroke="midnightblue" points="1652.79,-135.36 1661.77,-129.73 1651.24,-128.53 1652.79,-135.36"/>
</g>
<!-- Node28 -->
<g id="node26" class="node">
<title>Node28</title>
<g id="a_node26"><a xlink:href="Aliases_8hpp.html" target="_top" xlink:title="Contains general template aliases.">
<polygon fill="white" stroke="black" points="1353.5,-112.5 1353.5,-131.5 1457.5,-131.5 1457.5,-112.5 1353.5,-112.5"/>
<text text-anchor="middle" x="1405.5" y="-119.5" font-family="Helvetica,sans-Serif" font-size="10.00">Types/Aliases.hpp</text>
</a>
</g>
</g>
<!-- Node27&#45;&gt;Node28 -->
<g id="edge25" class="edge">
<title>Node27&#45;&gt;Node28</title>
<path fill="none" stroke="midnightblue" d="M1405.5,-168.08C1405.5,-161.01 1405.5,-150.86 1405.5,-141.99"/>
<polygon fill="midnightblue" stroke="midnightblue" points="1409,-141.75 1405.5,-131.75 1402,-141.75 1409,-141.75"/>
</g>
<!-- Node28&#45;&gt;Node12 -->
<g id="edge26" class="edge">
<title>Node28&#45;&gt;Node12</title>
<path fill="none" stroke="midnightblue" d="M1369.06,-112.44C1329.1,-103.06 1264.91,-87.99 1221.52,-77.8"/>
<polygon fill="midnightblue" stroke="midnightblue" points="1222.31,-74.39 1211.77,-75.52 1220.71,-81.21 1222.31,-74.39"/>
</g>
<!-- Node28&#45;&gt;Node13 -->
<g id="edge28" class="edge">
<title>Node28&#45;&gt;Node13</title>
<path fill="none" stroke="midnightblue" d="M1392.81,-112.32C1380.6,-103.98 1361.92,-91.21 1347.5,-81.35"/>
<polygon fill="midnightblue" stroke="midnightblue" points="1349.39,-78.41 1339.16,-75.65 1345.44,-84.19 1349.39,-78.41"/>
</g>
<!-- Node29 -->
<g id="node27" class="node">
<title>Node29</title>
<g id="a_node27"><a xlink:title=" ">
<polygon fill="white" stroke="#bfbfbf" points="1559.5,-56.5 1559.5,-75.5 1639.5,-75.5 1639.5,-56.5 1559.5,-56.5"/>
<text text-anchor="middle" x="1599.5" y="-63.5" font-family="Helvetica,sans-Serif" font-size="10.00">Eigen/Sparse</text>
</a>
</g>
</g>
<!-- Node28&#45;&gt;Node29 -->
<g id="edge27" class="edge">
<title>Node28&#45;&gt;Node29</title>
<path fill="none" stroke="midnightblue" d="M1436.24,-112.44C1469.44,-103.2 1522.49,-88.44 1559.06,-78.26"/>
<polygon fill="midnightblue" stroke="midnightblue" points="1560.21,-81.57 1568.9,-75.52 1558.33,-74.83 1560.21,-81.57"/>
</g>
<!-- Node23&#45;&gt;Node24 -->
<g id="edge31" class="edge">
<title>Node23&#45;&gt;Node24</title>
<path fill="none" stroke="midnightblue" d="M1595.69,-168.32C1612.85,-159.66 1639.45,-146.24 1659.25,-136.25"/>
<polygon fill="midnightblue" stroke="midnightblue" points="1661,-139.28 1668.35,-131.65 1657.85,-133.04 1661,-139.28"/>
</g>
<!-- Node25 -->
<g id="node29" class="node">
<title>Node25</title>
<g id="a_node29"><a xlink:title=" ">
<polygon fill="white" stroke="#bfbfbf" points="1476,-112.5 1476,-131.5 1533,-131.5 1533,-112.5 1476,-112.5"/>
<text text-anchor="middle" x="1504.5" y="-119.5" font-family="Helvetica,sans-Serif" font-size="10.00">ostream</text>
</a>
</g>
</g>
<!-- Node23&#45;&gt;Node25 -->
<g id="edge32" class="edge">
<title>Node23&#45;&gt;Node25</title>
<path fill="none" stroke="midnightblue" d="M1566.61,-168.32C1555.35,-160.11 1538.21,-147.6 1524.79,-137.81"/>
<polygon fill="midnightblue" stroke="midnightblue" points="1526.75,-134.9 1516.61,-131.83 1522.62,-140.56 1526.75,-134.9"/>
</g>
<!-- Node26 -->
<g id="node30" class="node">
<title>Node26</title>
<g id="a_node30"><a xlink:title=" ">
<polygon fill="white" stroke="#bfbfbf" points="1551.5,-112.5 1551.5,-131.5 1643.5,-131.5 1643.5,-112.5 1551.5,-112.5"/>
<text text-anchor="middle" x="1597.5" y="-119.5" font-family="Helvetica,sans-Serif" font-size="10.00">impl/Chains.ipp</text>
</a>
</g>
</g>
<!-- Node23&#45;&gt;Node26 -->
<g id="edge33" class="edge">
<title>Node23&#45;&gt;Node26</title>
<path fill="none" stroke="midnightblue" d="M1581.64,-168.08C1584.18,-160.85 1587.86,-150.41 1591.03,-141.4"/>
<polygon fill="midnightblue" stroke="midnightblue" points="1594.4,-142.35 1594.42,-131.75 1587.8,-140.02 1594.4,-142.35"/>
</g>
<!-- Node51&#45;&gt;Node29 -->
<g id="edge38" class="edge">
<title>Node51&#45;&gt;Node29</title>
<path fill="none" stroke="midnightblue" d="M1775.22,-224.17C1778.69,-211.27 1783.36,-186.75 1775.5,-168 1761.76,-135.25 1748.42,-131.14 1718.5,-112 1695.14,-97.06 1666.06,-85.95 1642.5,-78.5"/>
<polygon fill="midnightblue" stroke="midnightblue" points="1643.36,-75.11 1632.78,-75.54 1641.32,-81.8 1643.36,-75.11"/>
</g>
<!-- Node51&#45;&gt;Node23 -->
<g id="edge37" class="edge">
<title>Node51&#45;&gt;Node23</title>
<path fill="none" stroke="midnightblue" d="M1741.76,-224.44C1708.56,-215.2 1655.51,-200.44 1618.94,-190.26"/>
<polygon fill="midnightblue" stroke="midnightblue" points="1619.67,-186.83 1609.1,-187.52 1617.79,-193.57 1619.67,-186.83"/>
</g>
<!-- Node52 -->
<g id="node34" class="node">
<title>Node52</title>
<g id="a_node34"><a xlink:title=" ">
<polygon fill="white" stroke="#bfbfbf" points="1677,-168.5 1677,-187.5 1766,-187.5 1766,-168.5 1677,-168.5"/>
<text text-anchor="middle" x="1721.5" y="-175.5" font-family="Helvetica,sans-Serif" font-size="10.00">impl/Morse.ipp</text>
</a>
</g>
</g>
<!-- Node51&#45;&gt;Node52 -->
<g id="edge39" class="edge">
<title>Node51&#45;&gt;Node52</title>
<path fill="none" stroke="midnightblue" d="M1764.08,-224.08C1756.65,-216.22 1745.65,-204.57 1736.69,-195.08"/>
<polygon fill="midnightblue" stroke="midnightblue" points="1739.18,-192.62 1729.76,-187.75 1734.09,-197.42 1739.18,-192.62"/>
</g>
<!-- Node57 -->
<g id="node39" class="node">
<title>Node57</title>
<g id="a_node39"><a xlink:href="Mult__Graph_8hpp.html" target="_top" xlink:title="Contains the multiplication graph.">
<polygon fill="white" stroke="black" points="1370.5,-504.5 1370.5,-523.5 1464.5,-523.5 1464.5,-504.5 1370.5,-504.5"/>
<text text-anchor="middle" x="1417.5" y="-511.5" font-family="Helvetica,sans-Serif" font-size="10.00">Mult_Graph.hpp</text>
</a>
</g>
</g>
<!-- Node56&#45;&gt;Node57 -->
<g id="edge44" class="edge">
<title>Node56&#45;&gt;Node57</title>
<path fill="none" stroke="midnightblue" d="M1227.66,-616.37C1263.47,-597.25 1349.65,-551.23 1392.48,-528.36"/>
<polygon fill="midnightblue" stroke="midnightblue" points="1394.24,-531.39 1401.41,-523.59 1390.94,-525.21 1394.24,-531.39"/>
</g>
<!-- Node65 -->
<g id="node47" class="node">
<title>Node65</title>
<g id="a_node47"><a xlink:href="Mult__Identify_8hpp.html" target="_top" xlink:title="Contains extra identification methods for the multiplication graph.">
<polygon fill="white" stroke="black" points="1367.5,-560.5 1367.5,-579.5 1467.5,-579.5 1467.5,-560.5 1367.5,-560.5"/>
<text text-anchor="middle" x="1417.5" y="-567.5" font-family="Helvetica,sans-Serif" font-size="10.00">Mult_Identify.hpp</text>
</a>
</g>
</g>
<!-- Node56&#45;&gt;Node65 -->
<g id="edge58" class="edge">
<title>Node56&#45;&gt;Node65</title>
<path fill="none" stroke="midnightblue" d="M1244.14,-616.44C1279.55,-607.16 1336.21,-592.31 1375.05,-582.13"/>
<polygon fill="midnightblue" stroke="midnightblue" points="1376.23,-585.44 1385.01,-579.52 1374.45,-578.67 1376.23,-585.44"/>
</g>
<!-- Node67 -->
<g id="node49" class="node">
<title>Node67</title>
<g id="a_node49"><a xlink:title=" ">
<polygon fill="white" stroke="#bfbfbf" points="1150.5,-560.5 1150.5,-579.5 1272.5,-579.5 1272.5,-560.5 1150.5,-560.5"/>
<text text-anchor="middle" x="1211.5" y="-567.5" font-family="Helvetica,sans-Serif" font-size="10.00">impl/Factorization.ipp</text>
</a>
</g>
</g>
<!-- Node56&#45;&gt;Node67 -->
<g id="edge61" class="edge">
<title>Node56&#45;&gt;Node67</title>
<path fill="none" stroke="midnightblue" d="M1211.5,-616.08C1211.5,-609.01 1211.5,-598.86 1211.5,-589.99"/>
<polygon fill="midnightblue" stroke="midnightblue" points="1215,-589.75 1211.5,-579.75 1208,-589.75 1215,-589.75"/>
</g>
<!-- Node58 -->
<g id="node40" class="node">
<title>Node58</title>
<g id="a_node40"><a xlink:href="Mult__Table_8hpp.html" target="_top" xlink:title="Contains the classes mackey::MultTableData and mackey::MultTable that form the multiplication table.">
<polygon fill="white" stroke="black" points="1312.5,-448.5 1312.5,-467.5 1402.5,-467.5 1402.5,-448.5 1312.5,-448.5"/>
<text text-anchor="middle" x="1357.5" y="-455.5" font-family="Helvetica,sans-Serif" font-size="10.00">Mult_Table.hpp</text>
</a>
</g>
</g>
<!-- Node57&#45;&gt;Node58 -->
<g id="edge45" class="edge">
<title>Node57&#45;&gt;Node58</title>
<path fill="none" stroke="midnightblue" d="M1407.86,-504.32C1398.99,-496.34 1385.63,-484.31 1374.89,-474.65"/>
<polygon fill="midnightblue" stroke="midnightblue" points="1377.09,-471.92 1367.32,-467.83 1372.41,-477.13 1377.09,-471.92"/>
</g>
<!-- Node60 -->
<g id="node42" class="node">
<title>Node60</title>
<g id="a_node42"><a xlink:href="Graph_8hpp.html" target="_top" xlink:title=" ">
<polygon fill="white" stroke="black" points="1652.5,-448.5 1652.5,-467.5 1752.5,-467.5 1752.5,-448.5 1652.5,-448.5"/>
<text text-anchor="middle" x="1702.5" y="-455.5" font-family="Helvetica,sans-Serif" font-size="10.00">Utility/Graph.hpp</text>
</a>
</g>
</g>
<!-- Node57&#45;&gt;Node60 -->
<g id="edge50" class="edge">
<title>Node57&#45;&gt;Node60</title>
<path fill="none" stroke="midnightblue" d="M1462.66,-504.44C1512.79,-494.94 1593.72,-479.61 1647.51,-469.42"/>
<polygon fill="midnightblue" stroke="midnightblue" points="1648.38,-472.82 1657.55,-467.52 1647.08,-465.94 1648.38,-472.82"/>
</g>
<!-- Node62 -->
<g id="node44" class="node">
<title>Node62</title>
<g id="a_node44"><a xlink:title=" ">
<polygon fill="white" stroke="#bfbfbf" points="1647.5,-392.5 1647.5,-411.5 1679.5,-411.5 1679.5,-392.5 1647.5,-392.5"/>
<text text-anchor="middle" x="1663.5" y="-399.5" font-family="Helvetica,sans-Serif" font-size="10.00">set</text>
</a>
</g>
</g>
<!-- Node57&#45;&gt;Node62 -->
<g id="edge56" class="edge">
<title>Node57&#45;&gt;Node62</title>
<path fill="none" stroke="midnightblue" d="M1445.99,-504.48C1472.28,-496.26 1512.17,-482.91 1545.5,-468 1579.84,-452.63 1617.61,-430.92 1640.94,-416.9"/>
<polygon fill="midnightblue" stroke="midnightblue" points="1642.98,-419.75 1649.72,-411.58 1639.35,-413.77 1642.98,-419.75"/>
</g>
<!-- Node64 -->
<g id="node46" class="node">
<title>Node64</title>
<g id="a_node46"><a xlink:title=" ">
<polygon fill="white" stroke="#bfbfbf" points="1420.5,-448.5 1420.5,-467.5 1536.5,-467.5 1536.5,-448.5 1420.5,-448.5"/>
<text text-anchor="middle" x="1478.5" y="-455.5" font-family="Helvetica,sans-Serif" font-size="10.00">impl/Mult_Graph.ipp</text>
</a>
</g>
</g>
<!-- Node57&#45;&gt;Node64 -->
<g id="edge57" class="edge">
<title>Node57&#45;&gt;Node64</title>
<path fill="none" stroke="midnightblue" d="M1427.3,-504.32C1436.32,-496.34 1449.91,-484.31 1460.82,-474.65"/>
<polygon fill="midnightblue" stroke="midnightblue" points="1463.35,-477.08 1468.52,-467.83 1458.71,-471.84 1463.35,-477.08"/>
</g>
<!-- Node58&#45;&gt;Node17 -->
<g id="edge46" class="edge">
<title>Node58&#45;&gt;Node17</title>
<path fill="none" stroke="midnightblue" d="M1331.51,-448.44C1303.8,-439.32 1259.75,-424.81 1228.88,-414.65"/>
<polygon fill="midnightblue" stroke="midnightblue" points="1229.96,-411.32 1219.36,-411.52 1227.77,-417.97 1229.96,-411.32"/>
</g>
<!-- Node58&#45;&gt;Node18 -->
<g id="edge48" class="edge">
<title>Node58&#45;&gt;Node18</title>
<path fill="none" stroke="midnightblue" d="M1360.47,-448.08C1362.88,-440.85 1366.36,-430.41 1369.37,-421.4"/>
<polygon fill="midnightblue" stroke="midnightblue" points="1372.74,-422.34 1372.58,-411.75 1366.1,-420.13 1372.74,-422.34"/>
</g>
<!-- Node58&#45;&gt;Node27 -->
<g id="edge47" class="edge">
<title>Node58&#45;&gt;Node27</title>
<path fill="none" stroke="midnightblue" d="M1347.51,-448.28C1332.75,-435.51 1304.1,-411.16 1278.5,-392 1180.57,-318.71 979.79,-315.92 1060.5,-224 1078.67,-203.31 1246.01,-189.26 1340.78,-182.89"/>
<polygon fill="midnightblue" stroke="midnightblue" points="1341.1,-186.38 1350.85,-182.23 1340.64,-179.39 1341.1,-186.38"/>
</g>
<!-- Node59 -->
<g id="node41" class="node">
<title>Node59</title>
<g id="a_node41"><a xlink:title=" ">
<polygon fill="white" stroke="#bfbfbf" points="1517.5,-392.5 1517.5,-411.5 1629.5,-411.5 1629.5,-392.5 1517.5,-392.5"/>
<text text-anchor="middle" x="1573.5" y="-399.5" font-family="Helvetica,sans-Serif" font-size="10.00">impl/Mult_Table.ipp</text>
</a>
</g>
</g>
<!-- Node58&#45;&gt;Node59 -->
<g id="edge49" class="edge">
<title>Node58&#45;&gt;Node59</title>
<path fill="none" stroke="midnightblue" d="M1391.73,-448.44C1429.01,-439.12 1488.77,-424.18 1529.51,-414"/>
<polygon fill="midnightblue" stroke="midnightblue" points="1530.58,-417.34 1539.43,-411.52 1528.88,-410.55 1530.58,-417.34"/>
</g>
<!-- Node60&#45;&gt;Node24 -->
<g id="edge51" class="edge">
<title>Node60&#45;&gt;Node24</title>
<path fill="none" stroke="midnightblue" d="M1750.87,-448.49C1803.27,-436.16 1879.5,-407.78 1879.5,-347 1879.5,-347 1879.5,-347 1879.5,-233 1879.5,-160.25 1775,-135.04 1719.39,-126.77"/>
<polygon fill="midnightblue" stroke="midnightblue" points="1719.67,-123.27 1709.29,-125.37 1718.72,-130.21 1719.67,-123.27"/>
</g>
<!-- Node60&#45;&gt;Node54 -->
<g id="edge54" class="edge">
<title>Node60&#45;&gt;Node54</title>
<path fill="none" stroke="midnightblue" d="M1665.28,-448.49C1628.27,-440 1569.59,-426.47 1509.77,-412.28"/>
<polygon fill="midnightblue" stroke="midnightblue" points="1510.31,-408.82 1499.77,-409.91 1508.69,-415.63 1510.31,-408.82"/>
</g>
<!-- Node61 -->
<g id="node43" class="node">
<title>Node61</title>
<g id="a_node43"><a xlink:title=" ">
<polygon fill="white" stroke="#bfbfbf" points="1908,-392.5 1908,-411.5 1955,-411.5 1955,-392.5 1908,-392.5"/>
<text text-anchor="middle" x="1931.5" y="-399.5" font-family="Helvetica,sans-Serif" font-size="10.00">queue</text>
</a>
</g>
</g>
<!-- Node60&#45;&gt;Node61 -->
<g id="edge52" class="edge">
<title>Node60&#45;&gt;Node61</title>
<path fill="none" stroke="midnightblue" d="M1738.76,-448.47C1777.19,-439.43 1839.62,-424.73 1893.5,-412 1894.94,-411.66 1896.42,-411.31 1897.91,-410.96"/>
<polygon fill="midnightblue" stroke="midnightblue" points="1898.86,-414.33 1907.78,-408.62 1897.25,-407.52 1898.86,-414.33"/>
</g>
<!-- Node60&#45;&gt;Node62 -->
<g id="edge53" class="edge">
<title>Node60&#45;&gt;Node62</title>
<path fill="none" stroke="midnightblue" d="M1696.06,-448.08C1690.55,-440.46 1682.47,-429.26 1675.74,-419.94"/>
<polygon fill="midnightblue" stroke="midnightblue" points="1678.51,-417.81 1669.82,-411.75 1672.84,-421.91 1678.51,-417.81"/>
</g>
<!-- Node63 -->
<g id="node45" class="node">
<title>Node63</title>
<g id="a_node45"><a xlink:title=" ">
<polygon fill="white" stroke="#bfbfbf" points="1698,-392.5 1698,-411.5 1787,-411.5 1787,-392.5 1698,-392.5"/>
<text text-anchor="middle" x="1742.5" y="-399.5" font-family="Helvetica,sans-Serif" font-size="10.00">impl/Graph.ipp</text>
</a>
</g>
</g>
<!-- Node60&#45;&gt;Node63 -->
<g id="edge55" class="edge">
<title>Node60&#45;&gt;Node63</title>
<path fill="none" stroke="midnightblue" d="M1709.11,-448.08C1714.76,-440.46 1723.04,-429.26 1729.95,-419.94"/>
<polygon fill="midnightblue" stroke="midnightblue" points="1732.88,-421.87 1736.02,-411.75 1727.25,-417.7 1732.88,-421.87"/>
</g>
<!-- Node65&#45;&gt;Node57 -->
<g id="edge59" class="edge">
<title>Node65&#45;&gt;Node57</title>
<path fill="none" stroke="midnightblue" d="M1417.5,-560.08C1417.5,-553.01 1417.5,-542.86 1417.5,-533.99"/>
<polygon fill="midnightblue" stroke="midnightblue" points="1421,-533.75 1417.5,-523.75 1414,-533.75 1421,-533.75"/>
</g>
<!-- Node66 -->
<g id="node48" class="node">
<title>Node66</title>
<g id="a_node48"><a xlink:title=" ">
<polygon fill="white" stroke="#bfbfbf" points="1482.5,-504.5 1482.5,-523.5 1604.5,-523.5 1604.5,-504.5 1482.5,-504.5"/>
<text text-anchor="middle" x="1543.5" y="-511.5" font-family="Helvetica,sans-Serif" font-size="10.00">impl/Mult_Identify.ipp</text>
</a>
</g>
</g>
<!-- Node65&#45;&gt;Node66 -->
<g id="edge60" class="edge">
<title>Node65&#45;&gt;Node66</title>
<path fill="none" stroke="midnightblue" d="M1437.47,-560.44C1458.11,-551.6 1490.56,-537.69 1514.13,-527.59"/>
<polygon fill="midnightblue" stroke="midnightblue" points="1515.82,-530.67 1523.63,-523.52 1513.06,-524.24 1515.82,-530.67"/>
</g>
</g>
</svg>
        <g id="navigator" transform="translate(0 0)" fill="#404254">
                <rect fill="#f2f5e9" fill-opacity="0.5" stroke="#606060" stroke-width=".5" x="0" y="0" width="60" height="60"/>
                <use id="zoomplus" xlink:href="#zoomPlus" x="17" y="9" onmousedown="handleZoom(evt,'in')"/>
                <use id="zoomminus" xlink:href="#zoomMin" x="42" y="9" onmousedown="handleZoom(evt,'out')"/>
                <use id="reset" xlink:href="#resetDef" x="30" y="36" onmousedown="handleReset()"/>
                <g id="arrowUp" xlink:href="#dirArrow" transform="translate(30 24)" onmousedown="handlePan(0,-1)">
                  <use xlink:href="#rim" fill="#404040">
                        <set attributeName="fill" to="#808080" begin="arrowUp.mouseover" end="arrowUp.mouseout"/>
                  </use>
                  <path fill="none" stroke="white" stroke-width="1.5" d="M0,-3.0v7 M-2.5,-0.5L0,-3.0L2.5,-0.5"/>
                </g>
                <g id="arrowRight" xlink:href="#dirArrow" transform="rotate(90) translate(36 -43)" onmousedown="handlePan(1,0)">
                  <use xlink:href="#rim" fill="#404040">
                        <set attributeName="fill" to="#808080" begin="arrowRight.mouseover" end="arrowRight.mouseout"/>
                  </use>
                  <path fill="none" stroke="white" stroke-width="1.5" d="M0,-3.0v7 M-2.5,-0.5L0,-3.0L2.5,-0.5"/>
                </g>
                <g id="arrowDown" xlink:href="#dirArrow" transform="rotate(180) translate(-30 -48)" onmousedown="handlePan(0,1)">
                  <use xlink:href="#rim" fill="#404040">
                        <set attributeName="fill" to="#808080" begin="arrowDown.mouseover" end="arrowDown.mouseout"/>
                  </use>
                  <path fill="none" stroke="white" stroke-width="1.5" d="M0,-3.0v7 M-2.5,-0.5L0,-3.0L2.5,-0.5"/>
                </g>
                <g id="arrowLeft" xlink:href="#dirArrow" transform="rotate(270) translate(-36 17)" onmousedown="handlePan(-1,0)">
                  <use xlink:href="#rim" fill="#404040">
                        <set attributeName="fill" to="#808080" begin="arrowLeft.mouseover" end="arrowLeft.mouseout"/>
                  </use>
                  <path fill="none" stroke="white" stroke-width="1.5" d="M0,-3.0v7 M-2.5,-0.5L0,-3.0L2.5,-0.5"/>
                </g>
        </g>
        <svg viewBox="0 0 15 15" width="100%" height="30px" preserveAspectRatio="xMaxYMin meet">
         <g id="arrow_out" transform="scale(0.3 0.3)">
          <a xlink:href="Cerealizer_8hpp__incl_org.svg" target="_base">
           <rect id="button" ry="5" rx="5" y="6" x="6" height="38" width="38"
                fill="#f2f5e9" fill-opacity="0.5" stroke="#606060" stroke-width="1.0"/>
           <path id="arrow"
             d="M 11.500037,31.436501 C 11.940474,20.09759 22.043105,11.32322 32.158766,21.979434 L 37.068811,17.246167 C 37.068811,17.246167 37.088388,32 37.088388,32 L 22.160133,31.978069 C 22.160133,31.978069 26.997745,27.140456 26.997745,27.140456 C 18.528582,18.264221 13.291696,25.230495 11.500037,31.436501 z"
             style="fill:#404040;"/>
          </a>
         </g>
        </svg>
</svg>
