<?xml version="1.0" encoding="UTF-8" standalone="no"?>
<!DOCTYPE svg PUBLIC "-//W3C//DTD SVG 1.1//EN"
 "http://www.w3.org/Graphics/SVG/1.1/DTD/svg11.dtd">
<!-- Generated by graphviz version 2.43.0 (0)
 -->
<!-- Title: Cerealizer.hpp Pages: 1 -->
<svg width="2100pt" height="644pt"
 viewBox="0.00 0.00 2100.00 644.00" xmlns="http://www.w3.org/2000/svg" xmlns:xlink="http://www.w3.org/1999/xlink">
<g id="graph0" class="graph" transform="scale(1 1) rotate(0) translate(4 640)">
<title>Cerealizer.hpp</title>
<polygon fill="white" stroke="transparent" points="-4,4 -4,-640 2096,-640 2096,4 -4,4"/>
<!-- Node1 -->
<g id="node1" class="node">
<title>Node1</title>
<g id="a_node1"><a xlink:title="Contains the methods for serializing the results of our computations (before their interpretation) vi...">
<polygon fill="#bfbfbf" stroke="black" points="690.5,-616.5 690.5,-635.5 776.5,-635.5 776.5,-616.5 690.5,-616.5"/>
<text text-anchor="middle" x="733.5" y="-623.5" font-family="Helvetica,sans-Serif" font-size="10.00">Cerealizer.hpp</text>
</a>
</g>
</g>
<!-- Node2 -->
<g id="node2" class="node">
<title>Node2</title>
<g id="a_node2"><a xlink:title=" ">
<polygon fill="white" stroke="#bfbfbf" points="0,-560.5 0,-579.5 55,-579.5 55,-560.5 0,-560.5"/>
<text text-anchor="middle" x="27.5" y="-567.5" font-family="Helvetica,sans-Serif" font-size="10.00">fstream</text>
</a>
</g>
</g>
<!-- Node1&#45;&gt;Node2 -->
<g id="edge1" class="edge">
<title>Node1&#45;&gt;Node2</title>
<path fill="none" stroke="midnightblue" d="M690.17,-624.65C584.73,-623.25 306.38,-616.27 65.28,-579.83"/>
<polygon fill="midnightblue" stroke="midnightblue" points="65.69,-576.35 55.28,-578.3 64.63,-583.27 65.69,-576.35"/>
</g>
<!-- Node3 -->
<g id="node3" class="node">
<title>Node3</title>
<g id="a_node3"><a xlink:title=" ">
<polygon fill="white" stroke="#bfbfbf" points="73.5,-560.5 73.5,-579.5 217.5,-579.5 217.5,-560.5 73.5,-560.5"/>
<text text-anchor="middle" x="145.5" y="-567.5" font-family="Helvetica,sans-Serif" font-size="10.00">cereal/archives/binary.hpp</text>
</a>
</g>
</g>
<!-- Node1&#45;&gt;Node3 -->
<g id="edge2" class="edge">
<title>Node1&#45;&gt;Node3</title>
<path fill="none" stroke="midnightblue" d="M690.4,-621.5C604.53,-614.45 405.74,-597.79 227.97,-580.13"/>
<polygon fill="midnightblue" stroke="midnightblue" points="228.21,-576.64 217.92,-579.13 227.52,-583.6 228.21,-576.64"/>
</g>
<!-- Node4 -->
<g id="node4" class="node">
<title>Node4</title>
<g id="a_node4"><a xlink:title=" ">
<polygon fill="white" stroke="#bfbfbf" points="236,-560.5 236,-579.5 361,-579.5 361,-560.5 236,-560.5"/>
<text text-anchor="middle" x="298.5" y="-567.5" font-family="Helvetica,sans-Serif" font-size="10.00">cereal/types/array.hpp</text>
</a>
</g>
</g>
<!-- Node1&#45;&gt;Node4 -->
<g id="edge3" class="edge">
<title>Node1&#45;&gt;Node4</title>
<path fill="none" stroke="midnightblue" d="M690.47,-619.68C624.36,-611.5 493.54,-595.31 371.59,-580.13"/>
<polygon fill="midnightblue" stroke="midnightblue" points="371.68,-576.62 361.33,-578.86 370.82,-583.57 371.68,-576.62"/>
</g>
<!-- Node5 -->
<g id="node5" class="node">
<title>Node5</title>
<g id="a_node5"><a xlink:title=" ">
<polygon fill="white" stroke="#bfbfbf" points="379.5,-560.5 379.5,-579.5 501.5,-579.5 501.5,-560.5 379.5,-560.5"/>
<text text-anchor="middle" x="440.5" y="-567.5" font-family="Helvetica,sans-Serif" font-size="10.00">cereal/types/map.hpp</text>
</a>
</g>
</g>
<!-- Node1&#45;&gt;Node5 -->
<g id="edge4" class="edge">
<title>Node1&#45;&gt;Node5</title>
<path fill="none" stroke="midnightblue" d="M690.27,-617.03C638.91,-607.57 553.1,-591.75 496.65,-581.35"/>
<polygon fill="midnightblue" stroke="midnightblue" points="497.28,-577.91 486.82,-579.54 496.02,-584.79 497.28,-577.91"/>
</g>
<!-- Node6 -->
<g id="node6" class="node">
<title>Node6</title>
<g id="a_node6"><a xlink:title=" ">
<polygon fill="white" stroke="#bfbfbf" points="520,-560.5 520,-579.5 651,-579.5 651,-560.5 520,-560.5"/>
<text text-anchor="middle" x="585.5" y="-567.5" font-family="Helvetica,sans-Serif" font-size="10.00">cereal/types/vector.hpp</text>
</a>
</g>
</g>
<!-- Node1&#45;&gt;Node6 -->
<g id="edge5" class="edge">
<title>Node1&#45;&gt;Node6</title>
<path fill="none" stroke="midnightblue" d="M710.05,-616.44C685.37,-607.44 646.31,-593.19 618.52,-583.05"/>
<polygon fill="midnightblue" stroke="midnightblue" points="619.44,-579.66 608.84,-579.52 617.04,-586.23 619.44,-579.66"/>
</g>
<!-- Node7 -->
<g id="node7" class="node">
<title>Node7</title>
<g id="a_node7"><a xlink:title=" ">
<polygon fill="white" stroke="#bfbfbf" points="669.5,-560.5 669.5,-579.5 797.5,-579.5 797.5,-560.5 669.5,-560.5"/>
<text text-anchor="middle" x="733.5" y="-567.5" font-family="Helvetica,sans-Serif" font-size="10.00">cereal/types/utility.hpp</text>
</a>
</g>
</g>
<!-- Node1&#45;&gt;Node7 -->
<g id="edge6" class="edge">
<title>Node1&#45;&gt;Node7</title>
<path fill="none" stroke="midnightblue" d="M733.5,-616.08C733.5,-609.01 733.5,-598.86 733.5,-589.99"/>
<polygon fill="midnightblue" stroke="midnightblue" points="737,-589.75 733.5,-579.75 730,-589.75 737,-589.75"/>
</g>
<!-- Node8 -->
<g id="node8" class="node">
<title>Node8</title>
<g id="a_node8"><a xlink:title=" ">
<polygon fill="white" stroke="#bfbfbf" points="815.5,-560.5 815.5,-579.5 943.5,-579.5 943.5,-560.5 815.5,-560.5"/>
<text text-anchor="middle" x="879.5" y="-567.5" font-family="Helvetica,sans-Serif" font-size="10.00">cereal/types/string.hpp</text>
</a>
</g>
</g>
<!-- Node1&#45;&gt;Node8 -->
<g id="edge7" class="edge">
<title>Node1&#45;&gt;Node8</title>
<path fill="none" stroke="midnightblue" d="M756.63,-616.44C780.98,-607.44 819.51,-593.19 846.92,-583.05"/>
<polygon fill="midnightblue" stroke="midnightblue" points="848.31,-586.27 856.47,-579.52 845.88,-579.7 848.31,-586.27"/>
</g>
<!-- Node9 -->
<g id="node9" class="node">
<title>Node9</title>
<g id="a_node9"><a xlink:href="Z__n_8hpp.html" target="_top" xlink:title="Contains the class for Z/N coefficients.">
<polygon fill="white" stroke="black" points="891.5,-168.5 891.5,-187.5 1007.5,-187.5 1007.5,-168.5 891.5,-168.5"/>
<text text-anchor="middle" x="949.5" y="-175.5" font-family="Helvetica,sans-Serif" font-size="10.00">Coefficients/Z_n.hpp</text>
</a>
</g>
</g>
<!-- Node1&#45;&gt;Node9 -->
<g id="edge8" class="edge">
<title>Node1&#45;&gt;Node9</title>
<path fill="none" stroke="midnightblue" d="M776.93,-621.34C833.29,-615.74 927.38,-603.15 952.5,-580 974.63,-559.6 971.5,-545.1 971.5,-515 971.5,-515 971.5,-515 971.5,-289 971.5,-256.33 962.05,-219.24 955.54,-197.55"/>
<polygon fill="midnightblue" stroke="midnightblue" points="958.79,-196.22 952.47,-187.72 952.11,-198.31 958.79,-196.22"/>
</g>
<!-- Node16 -->
<g id="node16" class="node">
<title>Node16</title>
<g id="a_node16"><a xlink:href="Additive_8hpp.html" target="_top" xlink:title="Contains the class for presenting the additive structure of the RO(G) homology.">
<polygon fill="white" stroke="black" points="1255,-448.5 1255,-467.5 1420,-467.5 1420,-448.5 1255,-448.5"/>
<text text-anchor="middle" x="1337.5" y="-455.5" font-family="Helvetica,sans-Serif" font-size="10.00">Mackey_Functors/Additive.hpp</text>
</a>
</g>
</g>
<!-- Node1&#45;&gt;Node16 -->
<g id="edge15" class="edge">
<title>Node1&#45;&gt;Node16</title>
<path fill="none" stroke="midnightblue" d="M776.74,-619.35C827.29,-612.27 913.23,-598.75 985.5,-580 1106.96,-548.48 1246.7,-495.16 1307.09,-471.24"/>
<polygon fill="midnightblue" stroke="midnightblue" points="1308.42,-474.48 1316.42,-467.53 1305.84,-467.97 1308.42,-474.48"/>
</g>
<!-- Node56 -->
<g id="node40" class="node">
<title>Node56</title>
<g id="a_node40"><a xlink:href="Factorization_8hpp.html" target="_top" xlink:title="Contains the multiplication graph and the methods for factorizing generators.">
<polygon fill="white" stroke="black" points="1339,-560.5 1339,-579.5 1504,-579.5 1504,-560.5 1339,-560.5"/>
<text text-anchor="middle" x="1421.5" y="-567.5" font-family="Helvetica,sans-Serif" font-size="10.00">Factorization/Factorization.hpp</text>
</a>
</g>
</g>
<!-- Node1&#45;&gt;Node56 -->
<g id="edge45" class="edge">
<title>Node1&#45;&gt;Node56</title>
<path fill="none" stroke="midnightblue" d="M776.54,-621.62C886.17,-613.02 1177.93,-590.12 1328.58,-578.29"/>
<polygon fill="midnightblue" stroke="midnightblue" points="1329.05,-581.77 1338.74,-577.5 1328.5,-574.79 1329.05,-581.77"/>
</g>
<!-- Node66 -->
<g id="node50" class="node">
<title>Node66</title>
<g id="a_node50"><a xlink:title=" ">
<polygon fill="white" stroke="#bfbfbf" points="1522.5,-560.5 1522.5,-579.5 1630.5,-579.5 1630.5,-560.5 1522.5,-560.5"/>
<text text-anchor="middle" x="1576.5" y="-567.5" font-family="Helvetica,sans-Serif" font-size="10.00">impl/Cerealizer.ipp</text>
</a>
</g>
</g>
<!-- Node1&#45;&gt;Node66 -->
<g id="edge60" class="edge">
<title>Node1&#45;&gt;Node66</title>
<path fill="none" stroke="midnightblue" d="M776.72,-623.78C893.55,-620.23 1225.54,-608.32 1512.07,-580.06"/>
<polygon fill="midnightblue" stroke="midnightblue" points="1512.63,-583.52 1522.24,-579.05 1511.94,-576.55 1512.63,-583.52"/>
</g>
<!-- Node10 -->
<g id="node10" class="node">
<title>Node10</title>
<g id="a_node10"><a xlink:title=" ">
<polygon fill="white" stroke="#bfbfbf" points="1067.5,-112.5 1067.5,-131.5 1127.5,-131.5 1127.5,-112.5 1067.5,-112.5"/>
<text text-anchor="middle" x="1097.5" y="-119.5" font-family="Helvetica,sans-Serif" font-size="10.00">iostream</text>
</a>
</g>
</g>
<!-- Node9&#45;&gt;Node10 -->
<g id="edge9" class="edge">
<title>Node9&#45;&gt;Node10</title>
<path fill="none" stroke="midnightblue" d="M972.95,-168.44C997.63,-159.44 1036.69,-145.19 1064.48,-135.05"/>
<polygon fill="midnightblue" stroke="midnightblue" points="1065.96,-138.23 1074.16,-131.52 1063.56,-131.66 1065.96,-138.23"/>
</g>
<!-- Node11 -->
<g id="node11" class="node">
<title>Node11</title>
<g id="a_node11"><a xlink:title=" ">
<polygon fill="white" stroke="#bfbfbf" points="835.5,-112.5 835.5,-131.5 877.5,-131.5 877.5,-112.5 835.5,-112.5"/>
<text text-anchor="middle" x="856.5" y="-119.5" font-family="Helvetica,sans-Serif" font-size="10.00">array</text>
</a>
</g>
</g>
<!-- Node9&#45;&gt;Node11 -->
<g id="edge10" class="edge">
<title>Node9&#45;&gt;Node11</title>
<path fill="none" stroke="midnightblue" d="M934.56,-168.32C919.91,-159.82 897.37,-146.73 880.26,-136.8"/>
<polygon fill="midnightblue" stroke="midnightblue" points="881.81,-133.65 871.4,-131.65 878.3,-139.7 881.81,-133.65"/>
</g>
<!-- Node12 -->
<g id="node12" class="node">
<title>Node12</title>
<g id="a_node12"><a xlink:title=" ">
<polygon fill="white" stroke="#bfbfbf" points="950,-56.5 950,-75.5 1027,-75.5 1027,-56.5 950,-56.5"/>
<text text-anchor="middle" x="988.5" y="-63.5" font-family="Helvetica,sans-Serif" font-size="10.00">Eigen/Dense</text>
</a>
</g>
</g>
<!-- Node9&#45;&gt;Node12 -->
<g id="edge11" class="edge">
<title>Node9&#45;&gt;Node12</title>
<path fill="none" stroke="midnightblue" d="M942.77,-168.25C933.79,-155.44 920.07,-131.05 929.5,-112 936.1,-98.66 948.76,-88.19 960.67,-80.73"/>
<polygon fill="midnightblue" stroke="midnightblue" points="962.62,-83.64 969.52,-75.6 959.11,-77.59 962.62,-83.64"/>
</g>
<!-- Node13 -->
<g id="node13" class="node">
<title>Node13</title>
<g id="a_node13"><a xlink:href="SFINAE_8hpp.html" target="_top" xlink:title="Contains all the SFINAE tricks.">
<polygon fill="white" stroke="black" points="1081.5,-56.5 1081.5,-75.5 1185.5,-75.5 1185.5,-56.5 1081.5,-56.5"/>
<text text-anchor="middle" x="1133.5" y="-63.5" font-family="Helvetica,sans-Serif" font-size="10.00">Types/SFINAE.hpp</text>
</a>
</g>
</g>
<!-- Node9&#45;&gt;Node13 -->
<g id="edge12" class="edge">
<title>Node9&#45;&gt;Node13</title>
<path fill="none" stroke="midnightblue" d="M948.56,-168.13C947.62,-154.25 947.98,-127.41 962.5,-112 977.5,-96.07 1028.83,-83.93 1071.37,-76.29"/>
<polygon fill="midnightblue" stroke="midnightblue" points="1072.16,-79.71 1081.41,-74.54 1070.96,-72.81 1072.16,-79.71"/>
</g>
<!-- Node15 -->
<g id="node15" class="node">
<title>Node15</title>
<g id="a_node15"><a xlink:title=" ">
<polygon fill="white" stroke="#bfbfbf" points="972,-112.5 972,-131.5 1049,-131.5 1049,-112.5 972,-112.5"/>
<text text-anchor="middle" x="1010.5" y="-119.5" font-family="Helvetica,sans-Serif" font-size="10.00">impl/Z_n.ipp</text>
</a>
</g>
</g>
<!-- Node9&#45;&gt;Node15 -->
<g id="edge14" class="edge">
<title>Node9&#45;&gt;Node15</title>
<path fill="none" stroke="midnightblue" d="M959.3,-168.32C968.32,-160.34 981.91,-148.31 992.82,-138.65"/>
<polygon fill="midnightblue" stroke="midnightblue" points="995.35,-141.08 1000.52,-131.83 990.71,-135.84 995.35,-141.08"/>
</g>
<!-- Node14 -->
<g id="node14" class="node">
<title>Node14</title>
<g id="a_node14"><a xlink:title=" ">
<polygon fill="white" stroke="#bfbfbf" points="1099,-0.5 1099,-19.5 1168,-19.5 1168,-0.5 1099,-0.5"/>
<text text-anchor="middle" x="1133.5" y="-7.5" font-family="Helvetica,sans-Serif" font-size="10.00">type_traits</text>
</a>
</g>
</g>
<!-- Node13&#45;&gt;Node14 -->
<g id="edge13" class="edge">
<title>Node13&#45;&gt;Node14</title>
<path fill="none" stroke="midnightblue" d="M1133.5,-56.08C1133.5,-49.01 1133.5,-38.86 1133.5,-29.99"/>
<polygon fill="midnightblue" stroke="midnightblue" points="1137,-29.75 1133.5,-19.75 1130,-29.75 1137,-29.75"/>
</g>
<!-- Node17 -->
<g id="node17" class="node">
<title>Node17</title>
<g id="a_node17"><a xlink:href="OpenMP__Macros_8hpp.html" target="_top" xlink:title="Contains open MP macros if multithreading is desired in this library.">
<polygon fill="white" stroke="black" points="1261.5,-392.5 1261.5,-411.5 1413.5,-411.5 1413.5,-392.5 1261.5,-392.5"/>
<text text-anchor="middle" x="1337.5" y="-399.5" font-family="Helvetica,sans-Serif" font-size="10.00">Utility/OpenMP_Macros.hpp</text>
</a>
</g>
</g>
<!-- Node16&#45;&gt;Node17 -->
<g id="edge16" class="edge">
<title>Node16&#45;&gt;Node17</title>
<path fill="none" stroke="midnightblue" d="M1337.5,-448.08C1337.5,-441.01 1337.5,-430.86 1337.5,-421.99"/>
<polygon fill="midnightblue" stroke="midnightblue" points="1341,-421.75 1337.5,-411.75 1334,-421.75 1341,-421.75"/>
</g>
<!-- Node18 -->
<g id="node18" class="node">
<title>Node18</title>
<g id="a_node18"><a xlink:href="Point_8hpp.html" target="_top" xlink:title="Contains the computations for RO(G) homology of a point.">
<polygon fill="white" stroke="black" points="1431.5,-392.5 1431.5,-411.5 1531.5,-411.5 1531.5,-392.5 1431.5,-392.5"/>
<text text-anchor="middle" x="1481.5" y="-399.5" font-family="Helvetica,sans-Serif" font-size="10.00">Spaces/Point.hpp</text>
</a>
</g>
</g>
<!-- Node16&#45;&gt;Node18 -->
<g id="edge17" class="edge">
<title>Node16&#45;&gt;Node18</title>
<path fill="none" stroke="midnightblue" d="M1360.32,-448.44C1384.33,-439.44 1422.33,-425.19 1449.37,-415.05"/>
<polygon fill="midnightblue" stroke="midnightblue" points="1450.66,-418.3 1458.79,-411.52 1448.2,-411.75 1450.66,-418.3"/>
</g>
<!-- Node54 -->
<g id="node38" class="node">
<title>Node54</title>
<g id="a_node38"><a xlink:title=" ">
<polygon fill="white" stroke="#bfbfbf" points="1549.5,-392.5 1549.5,-411.5 1605.5,-411.5 1605.5,-392.5 1549.5,-392.5"/>
<text text-anchor="middle" x="1577.5" y="-399.5" font-family="Helvetica,sans-Serif" font-size="10.00">iomanip</text>
</a>
</g>
</g>
<!-- Node16&#45;&gt;Node54 -->
<g id="edge43" class="edge">
<title>Node16&#45;&gt;Node54</title>
<path fill="none" stroke="midnightblue" d="M1377.23,-448.44C1416.11,-440.02 1477.28,-426.61 1539.28,-412.25"/>
<polygon fill="midnightblue" stroke="midnightblue" points="1540.28,-415.61 1549.23,-409.94 1538.7,-408.79 1540.28,-415.61"/>
</g>
<!-- Node55 -->
<g id="node39" class="node">
<title>Node55</title>
<g id="a_node39"><a xlink:title=" ">
<polygon fill="white" stroke="#bfbfbf" points="1143.5,-392.5 1143.5,-411.5 1243.5,-411.5 1243.5,-392.5 1143.5,-392.5"/>
<text text-anchor="middle" x="1193.5" y="-399.5" font-family="Helvetica,sans-Serif" font-size="10.00">impl/Additive.ipp</text>
</a>
</g>
</g>
<!-- Node16&#45;&gt;Node55 -->
<g id="edge44" class="edge">
<title>Node16&#45;&gt;Node55</title>
<path fill="none" stroke="midnightblue" d="M1314.68,-448.44C1290.67,-439.44 1252.67,-425.19 1225.63,-415.05"/>
<polygon fill="midnightblue" stroke="midnightblue" points="1226.8,-411.75 1216.21,-411.52 1224.34,-418.3 1226.8,-411.75"/>
</g>
<!-- Node19 -->
<g id="node19" class="node">
<title>Node19</title>
<g id="a_node19"><a xlink:href="Massey_8hpp.html" target="_top" xlink:title="Contains the class and methods for Massey Products.">
<polygon fill="white" stroke="black" points="1340,-336.5 1340,-355.5 1459,-355.5 1459,-336.5 1340,-336.5"/>
<text text-anchor="middle" x="1399.5" y="-343.5" font-family="Helvetica,sans-Serif" font-size="10.00">Products/Massey.hpp</text>
</a>
</g>
</g>
<!-- Node18&#45;&gt;Node19 -->
<g id="edge18" class="edge">
<title>Node18&#45;&gt;Node19</title>
<path fill="none" stroke="midnightblue" d="M1468.33,-392.32C1455.65,-383.98 1436.27,-371.21 1421.29,-361.35"/>
<polygon fill="midnightblue" stroke="midnightblue" points="1422.92,-358.23 1412.64,-355.65 1419.07,-364.08 1422.92,-358.23"/>
</g>
<!-- Node51 -->
<g id="node35" class="node">
<title>Node51</title>
<g id="a_node35"><a xlink:href="Morse_8hpp.html" target="_top" xlink:title="Contains classes for (equivariant) Algebraic Morse Theory.">
<polygon fill="white" stroke="black" points="1661.5,-224.5 1661.5,-243.5 1819.5,-243.5 1819.5,-224.5 1661.5,-224.5"/>
<text text-anchor="middle" x="1740.5" y="-231.5" font-family="Helvetica,sans-Serif" font-size="10.00">Chain_Complexes/Morse.hpp</text>
</a>
</g>
</g>
<!-- Node18&#45;&gt;Node51 -->
<g id="edge38" class="edge">
<title>Node18&#45;&gt;Node51</title>
<path fill="none" stroke="midnightblue" d="M1482.66,-392.27C1484.92,-378.6 1491.09,-352.04 1506.5,-336 1554.88,-285.63 1632.54,-258.98 1685,-245.95"/>
<polygon fill="midnightblue" stroke="midnightblue" points="1685.9,-249.33 1694.81,-243.59 1684.27,-242.52 1685.9,-249.33"/>
</g>
<!-- Node53 -->
<g id="node37" class="node">
<title>Node53</title>
<g id="a_node37"><a xlink:title=" ">
<polygon fill="white" stroke="#bfbfbf" points="1515.5,-336.5 1515.5,-355.5 1599.5,-355.5 1599.5,-336.5 1515.5,-336.5"/>
<text text-anchor="middle" x="1557.5" y="-343.5" font-family="Helvetica,sans-Serif" font-size="10.00">impl/Point.ipp</text>
</a>
</g>
</g>
<!-- Node18&#45;&gt;Node53 -->
<g id="edge42" class="edge">
<title>Node18&#45;&gt;Node53</title>
<path fill="none" stroke="midnightblue" d="M1493.71,-392.32C1505.28,-384.11 1522.88,-371.6 1536.66,-361.81"/>
<polygon fill="midnightblue" stroke="midnightblue" points="1538.94,-364.48 1545.07,-355.83 1534.89,-358.77 1538.94,-364.48"/>
</g>
<!-- Node20 -->
<g id="node20" class="node">
<title>Node20</title>
<g id="a_node20"><a xlink:href="Green_8hpp.html" target="_top" xlink:title="Contains the class and methods for multiplying generators.">
<polygon fill="white" stroke="black" points="1273,-280.5 1273,-299.5 1340,-299.5 1340,-280.5 1273,-280.5"/>
<text text-anchor="middle" x="1306.5" y="-287.5" font-family="Helvetica,sans-Serif" font-size="10.00">Green.hpp</text>
</a>
</g>
</g>
<!-- Node19&#45;&gt;Node20 -->
<g id="edge19" class="edge">
<title>Node19&#45;&gt;Node20</title>
<path fill="none" stroke="midnightblue" d="M1384.56,-336.32C1369.91,-327.82 1347.37,-314.73 1330.26,-304.8"/>
<polygon fill="midnightblue" stroke="midnightblue" points="1331.81,-301.65 1321.4,-299.65 1328.3,-307.7 1331.81,-301.65"/>
</g>
<!-- Node50 -->
<g id="node34" class="node">
<title>Node50</title>
<g id="a_node34"><a xlink:title=" ">
<polygon fill="white" stroke="#bfbfbf" points="1358,-280.5 1358,-299.5 1453,-299.5 1453,-280.5 1358,-280.5"/>
<text text-anchor="middle" x="1405.5" y="-287.5" font-family="Helvetica,sans-Serif" font-size="10.00">impl/Massey.ipp</text>
</a>
</g>
</g>
<!-- Node19&#45;&gt;Node50 -->
<g id="edge37" class="edge">
<title>Node19&#45;&gt;Node50</title>
<path fill="none" stroke="midnightblue" d="M1400.49,-336.08C1401.29,-328.93 1402.43,-318.64 1403.42,-309.69"/>
<polygon fill="midnightblue" stroke="midnightblue" points="1406.9,-310.08 1404.53,-299.75 1399.94,-309.3 1406.9,-310.08"/>
</g>
<!-- Node21 -->
<g id="node21" class="node">
<title>Node21</title>
<g id="a_node21"><a xlink:href="Levels_8hpp.html" target="_top" xlink:title="Contains the methods for transfering, restricting and Weyl&#45;group&#45;acting.">
<polygon fill="white" stroke="red" points="999.5,-224.5 999.5,-243.5 1155.5,-243.5 1155.5,-224.5 999.5,-224.5"/>
<text text-anchor="middle" x="1077.5" y="-231.5" font-family="Helvetica,sans-Serif" font-size="10.00">Mackey_Functors/Levels.hpp</text>
</a>
</g>
</g>
<!-- Node20&#45;&gt;Node21 -->
<g id="edge20" class="edge">
<title>Node20&#45;&gt;Node21</title>
<path fill="none" stroke="midnightblue" d="M1272.71,-281.03C1233.24,-271.72 1167.72,-256.27 1123.6,-245.87"/>
<polygon fill="midnightblue" stroke="midnightblue" points="1124.24,-242.42 1113.7,-243.54 1122.63,-249.24 1124.24,-242.42"/>
</g>
<!-- Node38 -->
<g id="node22" class="node">
<title>Node38</title>
<g id="a_node22"><a xlink:href="Identify_8hpp.html" target="_top" xlink:title="Contains the identification classes.">
<polygon fill="white" stroke="red" points="1173.5,-224.5 1173.5,-243.5 1333.5,-243.5 1333.5,-224.5 1173.5,-224.5"/>
<text text-anchor="middle" x="1253.5" y="-231.5" font-family="Helvetica,sans-Serif" font-size="10.00">Mackey_Functors/Identify.hpp</text>
</a>
</g>
</g>
<!-- Node20&#45;&gt;Node38 -->
<g id="edge21" class="edge">
<title>Node20&#45;&gt;Node38</title>
<path fill="none" stroke="midnightblue" d="M1297.75,-280.08C1290.03,-272.22 1278.6,-260.57 1269.28,-251.08"/>
<polygon fill="midnightblue" stroke="midnightblue" points="1271.59,-248.44 1262.09,-243.75 1266.6,-253.34 1271.59,-248.44"/>
</g>
<!-- Node43 -->
<g id="node23" class="node">
<title>Node43</title>
<g id="a_node23"><a xlink:href="Box_8hpp.html" target="_top" xlink:title="Contains the construction of box products of Chains.">
<polygon fill="white" stroke="red" points="1351.5,-224.5 1351.5,-243.5 1497.5,-243.5 1497.5,-224.5 1351.5,-224.5"/>
<text text-anchor="middle" x="1424.5" y="-231.5" font-family="Helvetica,sans-Serif" font-size="10.00">Chain_Complexes/Box.hpp</text>
</a>
</g>
</g>
<!-- Node20&#45;&gt;Node43 -->
<g id="edge22" class="edge">
<title>Node20&#45;&gt;Node43</title>
<path fill="none" stroke="midnightblue" d="M1325.2,-280.44C1344.44,-271.64 1374.65,-257.81 1396.7,-247.72"/>
<polygon fill="midnightblue" stroke="midnightblue" points="1398.25,-250.86 1405.89,-243.52 1395.34,-244.5 1398.25,-250.86"/>
</g>
<!-- Node49 -->
<g id="node33" class="node">
<title>Node49</title>
<g id="a_node33"><a xlink:title=" ">
<polygon fill="white" stroke="#bfbfbf" points="1516,-224.5 1516,-243.5 1605,-243.5 1605,-224.5 1516,-224.5"/>
<text text-anchor="middle" x="1560.5" y="-231.5" font-family="Helvetica,sans-Serif" font-size="10.00">impl/Green.ipp</text>
</a>
</g>
</g>
<!-- Node20&#45;&gt;Node49 -->
<g id="edge36" class="edge">
<title>Node20&#45;&gt;Node49</title>
<path fill="none" stroke="midnightblue" d="M1340.23,-281.83C1383.79,-272.57 1459.96,-256.37 1510.32,-245.67"/>
<polygon fill="midnightblue" stroke="midnightblue" points="1511.29,-249.04 1520.34,-243.54 1509.83,-242.19 1511.29,-249.04"/>
</g>
<!-- Node27 -->
<g id="node24" class="node">
<title>Node27</title>
<g id="a_node24"><a xlink:href="General_8hpp.html" target="_top" xlink:title="Contains general functions and vector overloads independent of everything else.">
<polygon fill="white" stroke="black" points="1336,-168.5 1336,-187.5 1445,-187.5 1445,-168.5 1336,-168.5"/>
<text text-anchor="middle" x="1390.5" y="-175.5" font-family="Helvetica,sans-Serif" font-size="10.00">Utility/General.hpp</text>
</a>
</g>
</g>
<!-- Node43&#45;&gt;Node27 -->
<g id="edge23" class="edge">
<title>Node43&#45;&gt;Node27</title>
<path fill="none" stroke="midnightblue" d="M1418.89,-224.08C1414.13,-216.53 1407.18,-205.49 1401.35,-196.23"/>
<polygon fill="midnightblue" stroke="midnightblue" points="1404.3,-194.35 1396.01,-187.75 1398.38,-198.08 1404.3,-194.35"/>
</g>
<!-- Node23 -->
<g id="node30" class="node">
<title>Node23</title>
<g id="a_node30"><a xlink:href="Chains_8hpp.html" target="_top" xlink:title="Contains Chains and Junction classes for using chain complexes.">
<polygon fill="white" stroke="black" points="1471,-168.5 1471,-187.5 1632,-187.5 1632,-168.5 1471,-168.5"/>
<text text-anchor="middle" x="1551.5" y="-175.5" font-family="Helvetica,sans-Serif" font-size="10.00">Chain_Complexes/Chains.hpp</text>
</a>
</g>
</g>
<!-- Node43&#45;&gt;Node23 -->
<g id="edge32" class="edge">
<title>Node43&#45;&gt;Node23</title>
<path fill="none" stroke="midnightblue" d="M1444.62,-224.44C1465.52,-215.56 1498.43,-201.56 1522.22,-191.45"/>
<polygon fill="midnightblue" stroke="midnightblue" points="1523.64,-194.65 1531.47,-187.52 1520.9,-188.21 1523.64,-194.65"/>
</g>
<!-- Node27&#45;&gt;Node10 -->
<g id="edge30" class="edge">
<title>Node27&#45;&gt;Node10</title>
<path fill="none" stroke="midnightblue" d="M1337.81,-168.48C1288.55,-160.33 1212.7,-147.31 1137.78,-132.18"/>
<polygon fill="midnightblue" stroke="midnightblue" points="1138.2,-128.69 1127.7,-130.13 1136.8,-135.55 1138.2,-128.69"/>
</g>
<!-- Node24 -->
<g id="node25" class="node">
<title>Node24</title>
<g id="a_node25"><a xlink:title=" ">
<polygon fill="white" stroke="#bfbfbf" points="1458,-112.5 1458,-131.5 1505,-131.5 1505,-112.5 1458,-112.5"/>
<text text-anchor="middle" x="1481.5" y="-119.5" font-family="Helvetica,sans-Serif" font-size="10.00">vector</text>
</a>
</g>
</g>
<!-- Node27&#45;&gt;Node24 -->
<g id="edge24" class="edge">
<title>Node27&#45;&gt;Node24</title>
<path fill="none" stroke="midnightblue" d="M1405.12,-168.32C1419.45,-159.82 1441.51,-146.73 1458.25,-136.8"/>
<polygon fill="midnightblue" stroke="midnightblue" points="1460.1,-139.77 1466.92,-131.65 1456.53,-133.75 1460.1,-139.77"/>
</g>
<!-- Node28 -->
<g id="node26" class="node">
<title>Node28</title>
<g id="a_node26"><a xlink:href="Aliases_8hpp.html" target="_top" xlink:title="Contains general template aliases.">
<polygon fill="white" stroke="black" points="1145.5,-112.5 1145.5,-131.5 1249.5,-131.5 1249.5,-112.5 1145.5,-112.5"/>
<text text-anchor="middle" x="1197.5" y="-119.5" font-family="Helvetica,sans-Serif" font-size="10.00">Types/Aliases.hpp</text>
</a>
</g>
</g>
<!-- Node27&#45;&gt;Node28 -->
<g id="edge25" class="edge">
<title>Node27&#45;&gt;Node28</title>
<path fill="none" stroke="midnightblue" d="M1359.92,-168.44C1326.89,-159.2 1274.11,-144.44 1237.73,-134.26"/>
<polygon fill="midnightblue" stroke="midnightblue" points="1238.51,-130.84 1227.94,-131.52 1236.63,-137.58 1238.51,-130.84"/>
</g>
<!-- Node30 -->
<g id="node28" class="node">
<title>Node30</title>
<g id="a_node28"><a xlink:title=" ">
<polygon fill="white" stroke="#bfbfbf" points="1267.5,-112.5 1267.5,-131.5 1323.5,-131.5 1323.5,-112.5 1267.5,-112.5"/>
<text text-anchor="middle" x="1295.5" y="-119.5" font-family="Helvetica,sans-Serif" font-size="10.00">numeric</text>
</a>
</g>
</g>
<!-- Node27&#45;&gt;Node30 -->
<g id="edge29" class="edge">
<title>Node27&#45;&gt;Node30</title>
<path fill="none" stroke="midnightblue" d="M1375.24,-168.32C1360.28,-159.82 1337.25,-146.73 1319.77,-136.8"/>
<polygon fill="midnightblue" stroke="midnightblue" points="1321.15,-133.55 1310.73,-131.65 1317.69,-139.64 1321.15,-133.55"/>
</g>
<!-- Node31 -->
<g id="node29" class="node">
<title>Node31</title>
<g id="a_node29"><a xlink:title=" ">
<polygon fill="white" stroke="#bfbfbf" points="1341.5,-112.5 1341.5,-131.5 1439.5,-131.5 1439.5,-112.5 1341.5,-112.5"/>
<text text-anchor="middle" x="1390.5" y="-119.5" font-family="Helvetica,sans-Serif" font-size="10.00">impl/General.ipp</text>
</a>
</g>
</g>
<!-- Node27&#45;&gt;Node31 -->
<g id="edge31" class="edge">
<title>Node27&#45;&gt;Node31</title>
<path fill="none" stroke="midnightblue" d="M1390.5,-168.08C1390.5,-161.01 1390.5,-150.86 1390.5,-141.99"/>
<polygon fill="midnightblue" stroke="midnightblue" points="1394,-141.75 1390.5,-131.75 1387,-141.75 1394,-141.75"/>
</g>
<!-- Node28&#45;&gt;Node12 -->
<g id="edge26" class="edge">
<title>Node28&#45;&gt;Node12</title>
<path fill="none" stroke="midnightblue" d="M1164.38,-112.44C1128.38,-103.14 1070.73,-88.25 1031.31,-78.06"/>
<polygon fill="midnightblue" stroke="midnightblue" points="1032.02,-74.63 1021.46,-75.52 1030.27,-81.41 1032.02,-74.63"/>
</g>
<!-- Node28&#45;&gt;Node13 -->
<g id="edge28" class="edge">
<title>Node28&#45;&gt;Node13</title>
<path fill="none" stroke="midnightblue" d="M1187.22,-112.32C1177.66,-104.26 1163.22,-92.08 1151.72,-82.37"/>
<polygon fill="midnightblue" stroke="midnightblue" points="1153.87,-79.61 1143.97,-75.83 1149.36,-84.96 1153.87,-79.61"/>
</g>
<!-- Node29 -->
<g id="node27" class="node">
<title>Node29</title>
<g id="a_node27"><a xlink:title=" ">
<polygon fill="white" stroke="#bfbfbf" points="1221.5,-56.5 1221.5,-75.5 1301.5,-75.5 1301.5,-56.5 1221.5,-56.5"/>
<text text-anchor="middle" x="1261.5" y="-63.5" font-family="Helvetica,sans-Serif" font-size="10.00">Eigen/Sparse</text>
</a>
</g>
</g>
<!-- Node28&#45;&gt;Node29 -->
<g id="edge27" class="edge">
<title>Node28&#45;&gt;Node29</title>
<path fill="none" stroke="midnightblue" d="M1207.78,-112.32C1217.34,-104.26 1231.78,-92.08 1243.28,-82.37"/>
<polygon fill="midnightblue" stroke="midnightblue" points="1245.64,-84.96 1251.03,-75.83 1241.13,-79.61 1245.64,-84.96"/>
</g>
<!-- Node23&#45;&gt;Node24 -->
<g id="edge33" class="edge">
<title>Node23&#45;&gt;Node24</title>
<path fill="none" stroke="midnightblue" d="M1540.25,-168.32C1529.7,-160.18 1513.7,-147.84 1501.06,-138.09"/>
<polygon fill="midnightblue" stroke="midnightblue" points="1503.01,-135.17 1492.95,-131.83 1498.73,-140.71 1503.01,-135.17"/>
</g>
<!-- Node25 -->
<g id="node31" class="node">
<title>Node25</title>
<g id="a_node31"><a xlink:title=" ">
<polygon fill="white" stroke="#bfbfbf" points="1523,-112.5 1523,-131.5 1580,-131.5 1580,-112.5 1523,-112.5"/>
<text text-anchor="middle" x="1551.5" y="-119.5" font-family="Helvetica,sans-Serif" font-size="10.00">ostream</text>
</a>
</g>
</g>
<!-- Node23&#45;&gt;Node25 -->
<g id="edge34" class="edge">
<title>Node23&#45;&gt;Node25</title>
<path fill="none" stroke="midnightblue" d="M1551.5,-168.08C1551.5,-161.01 1551.5,-150.86 1551.5,-141.99"/>
<polygon fill="midnightblue" stroke="midnightblue" points="1555,-141.75 1551.5,-131.75 1548,-141.75 1555,-141.75"/>
</g>
<!-- Node26 -->
<g id="node32" class="node">
<title>Node26</title>
<g id="a_node32"><a xlink:title=" ">
<polygon fill="white" stroke="#bfbfbf" points="1598.5,-112.5 1598.5,-131.5 1690.5,-131.5 1690.5,-112.5 1598.5,-112.5"/>
<text text-anchor="middle" x="1644.5" y="-119.5" font-family="Helvetica,sans-Serif" font-size="10.00">impl/Chains.ipp</text>
</a>
</g>
</g>
<!-- Node23&#45;&gt;Node26 -->
<g id="edge35" class="edge">
<title>Node23&#45;&gt;Node26</title>
<path fill="none" stroke="midnightblue" d="M1566.44,-168.32C1581.09,-159.82 1603.63,-146.73 1620.74,-136.8"/>
<polygon fill="midnightblue" stroke="midnightblue" points="1622.7,-139.7 1629.6,-131.65 1619.19,-133.65 1622.7,-139.7"/>
</g>
<!-- Node51&#45;&gt;Node29 -->
<g id="edge40" class="edge">
<title>Node51&#45;&gt;Node29</title>
<path fill="none" stroke="midnightblue" d="M1738.84,-224.45C1733.78,-199.33 1717.79,-126.59 1699.5,-112 1669.68,-88.22 1420.19,-74.17 1311.63,-69.13"/>
<polygon fill="midnightblue" stroke="midnightblue" points="1311.73,-65.63 1301.58,-68.67 1311.41,-72.62 1311.73,-65.63"/>
</g>
<!-- Node51&#45;&gt;Node23 -->
<g id="edge39" class="edge">
<title>Node51&#45;&gt;Node23</title>
<path fill="none" stroke="midnightblue" d="M1710.55,-224.44C1678.34,-215.24 1626.97,-200.56 1591.36,-190.39"/>
<polygon fill="midnightblue" stroke="midnightblue" points="1591.88,-186.9 1581.31,-187.52 1589.96,-193.63 1591.88,-186.9"/>
</g>
<!-- Node52 -->
<g id="node36" class="node">
<title>Node52</title>
<g id="a_node36"><a xlink:title=" ">
<polygon fill="white" stroke="#bfbfbf" points="1741,-168.5 1741,-187.5 1830,-187.5 1830,-168.5 1741,-168.5"/>
<text text-anchor="middle" x="1785.5" y="-175.5" font-family="Helvetica,sans-Serif" font-size="10.00">impl/Morse.ipp</text>
</a>
</g>
</g>
<!-- Node51&#45;&gt;Node52 -->
<g id="edge41" class="edge">
<title>Node51&#45;&gt;Node52</title>
<path fill="none" stroke="midnightblue" d="M1747.93,-224.08C1754.35,-216.38 1763.81,-205.03 1771.62,-195.65"/>
<polygon fill="midnightblue" stroke="midnightblue" points="1774.49,-197.67 1778.21,-187.75 1769.12,-193.19 1774.49,-197.67"/>
</g>
<!-- Node57 -->
<g id="node41" class="node">
<title>Node57</title>
<g id="a_node41"><a xlink:href="Mult__Graph_8hpp.html" target="_top" xlink:title="Contains the multiplication graph.">
<polygon fill="white" stroke="black" points="1511.5,-504.5 1511.5,-523.5 1605.5,-523.5 1605.5,-504.5 1511.5,-504.5"/>
<text text-anchor="middle" x="1558.5" y="-511.5" font-family="Helvetica,sans-Serif" font-size="10.00">Mult_Graph.hpp</text>
</a>
</g>
</g>
<!-- Node56&#45;&gt;Node57 -->
<g id="edge46" class="edge">
<title>Node56&#45;&gt;Node57</title>
<path fill="none" stroke="midnightblue" d="M1443.21,-560.44C1465.85,-551.52 1501.57,-537.44 1527.25,-527.32"/>
<polygon fill="midnightblue" stroke="midnightblue" points="1528.87,-530.44 1536.89,-523.52 1526.31,-523.93 1528.87,-530.44"/>
</g>
<!-- Node65 -->
<g id="node49" class="node">
<title>Node65</title>
<g id="a_node49"><a xlink:title=" ">
<polygon fill="white" stroke="#bfbfbf" points="1623.5,-504.5 1623.5,-523.5 1745.5,-523.5 1745.5,-504.5 1623.5,-504.5"/>
<text text-anchor="middle" x="1684.5" y="-511.5" font-family="Helvetica,sans-Serif" font-size="10.00">impl/Factorization.ipp</text>
</a>
</g>
</g>
<!-- Node56&#45;&gt;Node65 -->
<g id="edge59" class="edge">
<title>Node56&#45;&gt;Node65</title>
<path fill="none" stroke="midnightblue" d="M1463.17,-560.44C1509.25,-550.98 1583.5,-535.74 1633.13,-525.55"/>
<polygon fill="midnightblue" stroke="midnightblue" points="1633.93,-528.96 1643.02,-523.52 1632.52,-522.1 1633.93,-528.96"/>
</g>
<!-- Node58 -->
<g id="node42" class="node">
<title>Node58</title>
<g id="a_node42"><a xlink:href="Mult__Table_8hpp.html" target="_top" xlink:title="Contains the class and methods to form the multiplication table.">
<polygon fill="white" stroke="black" points="1513.5,-448.5 1513.5,-467.5 1603.5,-467.5 1603.5,-448.5 1513.5,-448.5"/>
<text text-anchor="middle" x="1558.5" y="-455.5" font-family="Helvetica,sans-Serif" font-size="10.00">Mult_Table.hpp</text>
</a>
</g>
</g>
<!-- Node57&#45;&gt;Node58 -->
<g id="edge47" class="edge">
<title>Node57&#45;&gt;Node58</title>
<path fill="none" stroke="midnightblue" d="M1558.5,-504.08C1558.5,-497.01 1558.5,-486.86 1558.5,-477.99"/>
<polygon fill="midnightblue" stroke="midnightblue" points="1562,-477.75 1558.5,-467.75 1555,-477.75 1562,-477.75"/>
</g>
<!-- Node60 -->
<g id="node44" class="node">
<title>Node60</title>
<g id="a_node44"><a xlink:href="Graph_8hpp.html" target="_top" xlink:title=" ">
<polygon fill="white" stroke="black" points="1808.5,-448.5 1808.5,-467.5 1908.5,-467.5 1908.5,-448.5 1808.5,-448.5"/>
<text text-anchor="middle" x="1858.5" y="-455.5" font-family="Helvetica,sans-Serif" font-size="10.00">Utility/Graph.hpp</text>
</a>
</g>
</g>
<!-- Node57&#45;&gt;Node60 -->
<g id="edge52" class="edge">
<title>Node57&#45;&gt;Node60</title>
<path fill="none" stroke="midnightblue" d="M1605.71,-504.5C1658.63,-494.98 1744.45,-479.53 1801.18,-469.32"/>
<polygon fill="midnightblue" stroke="midnightblue" points="1801.85,-472.75 1811.08,-467.54 1800.61,-465.86 1801.85,-472.75"/>
</g>
<!-- Node64 -->
<g id="node48" class="node">
<title>Node64</title>
<g id="a_node48"><a xlink:title=" ">
<polygon fill="white" stroke="#bfbfbf" points="1926.5,-448.5 1926.5,-467.5 2042.5,-467.5 2042.5,-448.5 1926.5,-448.5"/>
<text text-anchor="middle" x="1984.5" y="-455.5" font-family="Helvetica,sans-Serif" font-size="10.00">impl/Mult_Graph.ipp</text>
</a>
</g>
</g>
<!-- Node57&#45;&gt;Node64 -->
<g id="edge58" class="edge">
<title>Node57&#45;&gt;Node64</title>
<path fill="none" stroke="midnightblue" d="M1605.53,-505.3C1608.57,-504.85 1611.57,-504.41 1614.5,-504 1745.53,-485.69 1781.23,-485.05 1916.09,-468.16"/>
<polygon fill="midnightblue" stroke="midnightblue" points="1916.92,-471.58 1926.4,-466.86 1916.04,-464.64 1916.92,-471.58"/>
</g>
<!-- Node58&#45;&gt;Node17 -->
<g id="edge48" class="edge">
<title>Node58&#45;&gt;Node17</title>
<path fill="none" stroke="midnightblue" d="M1523.48,-448.44C1485.25,-439.1 1423.93,-424.12 1382.24,-413.93"/>
<polygon fill="midnightblue" stroke="midnightblue" points="1382.9,-410.49 1372.35,-411.52 1381.24,-417.29 1382.9,-410.49"/>
</g>
<!-- Node58&#45;&gt;Node18 -->
<g id="edge50" class="edge">
<title>Node58&#45;&gt;Node18</title>
<path fill="none" stroke="midnightblue" d="M1546.13,-448.32C1534.34,-440.06 1516.37,-427.45 1502.36,-417.63"/>
<polygon fill="midnightblue" stroke="midnightblue" points="1504.04,-414.53 1493.84,-411.65 1500.02,-420.26 1504.04,-414.53"/>
</g>
<!-- Node58&#45;&gt;Node27 -->
<g id="edge49" class="edge">
<title>Node58&#45;&gt;Node27</title>
<path fill="none" stroke="midnightblue" d="M1573.75,-448.4C1586.43,-440.5 1604.04,-427.66 1614.5,-412 1631.22,-386.98 1633.5,-377.1 1633.5,-347 1633.5,-347 1633.5,-347 1633.5,-289 1633.5,-258.9 1636.68,-244.35 1614.5,-224 1602.73,-213.2 1517.13,-198.18 1455.25,-188.53"/>
<polygon fill="midnightblue" stroke="midnightblue" points="1455.56,-185.03 1445.15,-186.96 1454.5,-191.95 1455.56,-185.03"/>
</g>
<!-- Node59 -->
<g id="node43" class="node">
<title>Node59</title>
<g id="a_node43"><a xlink:title=" ">
<polygon fill="white" stroke="#bfbfbf" points="1661.5,-392.5 1661.5,-411.5 1773.5,-411.5 1773.5,-392.5 1661.5,-392.5"/>
<text text-anchor="middle" x="1717.5" y="-399.5" font-family="Helvetica,sans-Serif" font-size="10.00">impl/Mult_Table.ipp</text>
</a>
</g>
</g>
<!-- Node58&#45;&gt;Node59 -->
<g id="edge51" class="edge">
<title>Node58&#45;&gt;Node59</title>
<path fill="none" stroke="midnightblue" d="M1583.69,-448.44C1610.44,-439.36 1652.9,-424.94 1682.81,-414.78"/>
<polygon fill="midnightblue" stroke="midnightblue" points="1684.08,-418.05 1692.42,-411.52 1681.83,-411.42 1684.08,-418.05"/>
</g>
<!-- Node60&#45;&gt;Node24 -->
<g id="edge53" class="edge">
<title>Node60&#45;&gt;Node24</title>
<path fill="none" stroke="midnightblue" d="M1858.5,-448.44C1858.5,-429.94 1858.5,-384.81 1858.5,-347 1858.5,-347 1858.5,-347 1858.5,-233 1858.5,-202.9 1862.55,-187.35 1839.5,-168 1786.02,-123.1 1601.13,-143.81 1515.17,-131.6"/>
<polygon fill="midnightblue" stroke="midnightblue" points="1515.63,-128.12 1505.19,-129.94 1514.48,-135.03 1515.63,-128.12"/>
</g>
<!-- Node60&#45;&gt;Node54 -->
<g id="edge56" class="edge">
<title>Node60&#45;&gt;Node54</title>
<path fill="none" stroke="midnightblue" d="M1813.97,-448.44C1759.25,-437.93 1667.31,-420.26 1615.67,-410.33"/>
<polygon fill="midnightblue" stroke="midnightblue" points="1616.07,-406.85 1605.59,-408.4 1614.75,-413.72 1616.07,-406.85"/>
</g>
<!-- Node61 -->
<g id="node45" class="node">
<title>Node61</title>
<g id="a_node45"><a xlink:title=" ">
<polygon fill="white" stroke="#bfbfbf" points="1887,-392.5 1887,-411.5 1934,-411.5 1934,-392.5 1887,-392.5"/>
<text text-anchor="middle" x="1910.5" y="-399.5" font-family="Helvetica,sans-Serif" font-size="10.00">queue</text>
</a>
</g>
</g>
<!-- Node60&#45;&gt;Node61 -->
<g id="edge54" class="edge">
<title>Node60&#45;&gt;Node61</title>
<path fill="none" stroke="midnightblue" d="M1867.09,-448.08C1874.66,-440.22 1885.88,-428.57 1895.01,-419.08"/>
<polygon fill="midnightblue" stroke="midnightblue" points="1897.66,-421.38 1902.07,-411.75 1892.62,-416.53 1897.66,-421.38"/>
</g>
<!-- Node62 -->
<g id="node46" class="node">
<title>Node62</title>
<g id="a_node46"><a xlink:title=" ">
<polygon fill="white" stroke="#bfbfbf" points="1952.5,-392.5 1952.5,-411.5 1984.5,-411.5 1984.5,-392.5 1952.5,-392.5"/>
<text text-anchor="middle" x="1968.5" y="-399.5" font-family="Helvetica,sans-Serif" font-size="10.00">set</text>
</a>
</g>
</g>
<!-- Node60&#45;&gt;Node62 -->
<g id="edge55" class="edge">
<title>Node60&#45;&gt;Node62</title>
<path fill="none" stroke="midnightblue" d="M1876.17,-448.32C1894.31,-439.42 1922.71,-425.48 1943.22,-415.41"/>
<polygon fill="midnightblue" stroke="midnightblue" points="1944.87,-418.5 1952.3,-410.95 1941.79,-412.22 1944.87,-418.5"/>
</g>
<!-- Node63 -->
<g id="node47" class="node">
<title>Node63</title>
<g id="a_node47"><a xlink:title=" ">
<polygon fill="white" stroke="#bfbfbf" points="2003,-392.5 2003,-411.5 2092,-411.5 2092,-392.5 2003,-392.5"/>
<text text-anchor="middle" x="2047.5" y="-399.5" font-family="Helvetica,sans-Serif" font-size="10.00">impl/Graph.ipp</text>
</a>
</g>
</g>
<!-- Node60&#45;&gt;Node63 -->
<g id="edge57" class="edge">
<title>Node60&#45;&gt;Node63</title>
<path fill="none" stroke="midnightblue" d="M1888.45,-448.44C1920.66,-439.24 1972.03,-424.56 2007.64,-414.39"/>
<polygon fill="midnightblue" stroke="midnightblue" points="2009.04,-417.63 2017.69,-411.52 2007.12,-410.9 2009.04,-417.63"/>
</g>
</g>
</svg>
