<?xml version="1.0" encoding="UTF-8" standalone="no"?>
<!DOCTYPE svg PUBLIC "-//W3C//DTD SVG 1.1//EN"
 "http://www.w3.org/Graphics/SVG/1.1/DTD/svg11.dtd">
<!-- Generated by graphviz version 2.43.0 (0)
 -->
<!-- Title: Cerealizer.hpp Pages: 1 -->
<!--zoomable 644 -->
<svg id="main" version="1.1" xmlns="http://www.w3.org/2000/svg" xmlns:xlink="http://www.w3.org/1999/xlink" xml:space="preserve" onload="init(evt)">
<style type="text/css"><![CDATA[
.edge:hover path { stroke: red; }
.edge:hover polygon { stroke: red; fill: red; }
]]></style>
<script type="text/javascript"><![CDATA[
var edges = document.getElementsByTagName('g');
if (edges && edges.length) {
  for (var i=0;i<edges.length;i++) {
    if (edges[i].id.substr(0,4)=='edge') {
      edges[i].setAttribute('class','edge');
    }
  }
}
]]></script>
        <defs>
                <circle id="rim" cx="0" cy="0" r="7"/>
                <circle id="rim2" cx="0" cy="0" r="3.5"/>
                <g id="zoomPlus">
                        <use xlink:href="#rim" fill="#404040">
                                <set attributeName="fill" to="#808080" begin="zoomplus.mouseover" end="zoomplus.mouseout"/>
                        </use>
                        <path d="M-4,0h8M0,-4v8" fill="none" stroke="white" stroke-width="1.5" pointer-events="none"/>
                </g>
                <g id="zoomMin">
                        <use xlink:href="#rim" fill="#404040">
                                <set attributeName="fill" to="#808080" begin="zoomminus.mouseover" end="zoomminus.mouseout"/>
                        </use>
                        <path d="M-4,0h8" fill="none" stroke="white" stroke-width="1.5" pointer-events="none"/>
                </g>
                <g id="dirArrow">
                        <path fill="none" stroke="white" stroke-width="1.5" d="M0,-3.0v7 M-2.5,-0.5L0,-3.0L2.5,-0.5"/>
                </g>
               <g id="resetDef">
                       <use xlink:href="#rim2" fill="#404040">
                               <set attributeName="fill" to="#808080" begin="reset.mouseover" end="reset.mouseout"/>
                       </use>
               </g>
        </defs>

<script type="text/javascript">
var viewWidth = 1822;
var viewHeight = 644;
var sectionId = 'dynsection-0';
</script>
<script xlink:href="svgpan.js"/>
<svg id="graph" class="graph">
<g id="viewport">
<title>Cerealizer.hpp</title>
<polygon fill="white" stroke="transparent" points="-4,4 -4,-640 1818,-640 1818,4 -4,4"/>
<!-- Node1 -->
<g id="node1" class="node">
<title>Node1</title>
<g id="a_node1"><a xlink:title="Contains the methods for serializing the results of our computations via cereal.">
<polygon fill="#bfbfbf" stroke="black" points="690.5,-616.5 690.5,-635.5 776.5,-635.5 776.5,-616.5 690.5,-616.5"/>
<text text-anchor="middle" x="733.5" y="-623.5" font-family="Helvetica,sans-Serif" font-size="10.00">Cerealizer.hpp</text>
</a>
</g>
</g>
<!-- Node2 -->
<g id="node2" class="node">
<title>Node2</title>
<g id="a_node2"><a xlink:title=" ">
<polygon fill="white" stroke="#bfbfbf" points="0,-560.5 0,-579.5 55,-579.5 55,-560.5 0,-560.5"/>
<text text-anchor="middle" x="27.5" y="-567.5" font-family="Helvetica,sans-Serif" font-size="10.00">fstream</text>
</a>
</g>
</g>
<!-- Node1&#45;&gt;Node2 -->
<g id="edge1" class="edge">
<title>Node1&#45;&gt;Node2</title>
<path fill="none" stroke="midnightblue" d="M690.17,-624.65C584.73,-623.25 306.38,-616.27 65.28,-579.83"/>
<polygon fill="midnightblue" stroke="midnightblue" points="65.69,-576.35 55.28,-578.3 64.63,-583.27 65.69,-576.35"/>
</g>
<!-- Node3 -->
<g id="node3" class="node">
<title>Node3</title>
<g id="a_node3"><a xlink:title=" ">
<polygon fill="white" stroke="#bfbfbf" points="73.5,-560.5 73.5,-579.5 217.5,-579.5 217.5,-560.5 73.5,-560.5"/>
<text text-anchor="middle" x="145.5" y="-567.5" font-family="Helvetica,sans-Serif" font-size="10.00">cereal/archives/binary.hpp</text>
</a>
</g>
</g>
<!-- Node1&#45;&gt;Node3 -->
<g id="edge2" class="edge">
<title>Node1&#45;&gt;Node3</title>
<path fill="none" stroke="midnightblue" d="M690.4,-621.5C604.53,-614.45 405.74,-597.79 227.97,-580.13"/>
<polygon fill="midnightblue" stroke="midnightblue" points="228.21,-576.64 217.92,-579.13 227.52,-583.6 228.21,-576.64"/>
</g>
<!-- Node4 -->
<g id="node4" class="node">
<title>Node4</title>
<g id="a_node4"><a xlink:title=" ">
<polygon fill="white" stroke="#bfbfbf" points="236,-560.5 236,-579.5 361,-579.5 361,-560.5 236,-560.5"/>
<text text-anchor="middle" x="298.5" y="-567.5" font-family="Helvetica,sans-Serif" font-size="10.00">cereal/types/array.hpp</text>
</a>
</g>
</g>
<!-- Node1&#45;&gt;Node4 -->
<g id="edge3" class="edge">
<title>Node1&#45;&gt;Node4</title>
<path fill="none" stroke="midnightblue" d="M690.47,-619.68C624.36,-611.5 493.54,-595.31 371.59,-580.13"/>
<polygon fill="midnightblue" stroke="midnightblue" points="371.68,-576.62 361.33,-578.86 370.82,-583.57 371.68,-576.62"/>
</g>
<!-- Node5 -->
<g id="node5" class="node">
<title>Node5</title>
<g id="a_node5"><a xlink:title=" ">
<polygon fill="white" stroke="#bfbfbf" points="379.5,-560.5 379.5,-579.5 501.5,-579.5 501.5,-560.5 379.5,-560.5"/>
<text text-anchor="middle" x="440.5" y="-567.5" font-family="Helvetica,sans-Serif" font-size="10.00">cereal/types/map.hpp</text>
</a>
</g>
</g>
<!-- Node1&#45;&gt;Node5 -->
<g id="edge4" class="edge">
<title>Node1&#45;&gt;Node5</title>
<path fill="none" stroke="midnightblue" d="M690.27,-617.03C638.91,-607.57 553.1,-591.75 496.65,-581.35"/>
<polygon fill="midnightblue" stroke="midnightblue" points="497.28,-577.91 486.82,-579.54 496.02,-584.79 497.28,-577.91"/>
</g>
<!-- Node6 -->
<g id="node6" class="node">
<title>Node6</title>
<g id="a_node6"><a xlink:title=" ">
<polygon fill="white" stroke="#bfbfbf" points="520,-560.5 520,-579.5 651,-579.5 651,-560.5 520,-560.5"/>
<text text-anchor="middle" x="585.5" y="-567.5" font-family="Helvetica,sans-Serif" font-size="10.00">cereal/types/vector.hpp</text>
</a>
</g>
</g>
<!-- Node1&#45;&gt;Node6 -->
<g id="edge5" class="edge">
<title>Node1&#45;&gt;Node6</title>
<path fill="none" stroke="midnightblue" d="M710.05,-616.44C685.37,-607.44 646.31,-593.19 618.52,-583.05"/>
<polygon fill="midnightblue" stroke="midnightblue" points="619.44,-579.66 608.84,-579.52 617.04,-586.23 619.44,-579.66"/>
</g>
<!-- Node7 -->
<g id="node7" class="node">
<title>Node7</title>
<g id="a_node7"><a xlink:title=" ">
<polygon fill="white" stroke="#bfbfbf" points="669.5,-560.5 669.5,-579.5 797.5,-579.5 797.5,-560.5 669.5,-560.5"/>
<text text-anchor="middle" x="733.5" y="-567.5" font-family="Helvetica,sans-Serif" font-size="10.00">cereal/types/utility.hpp</text>
</a>
</g>
</g>
<!-- Node1&#45;&gt;Node7 -->
<g id="edge6" class="edge">
<title>Node1&#45;&gt;Node7</title>
<path fill="none" stroke="midnightblue" d="M733.5,-616.08C733.5,-609.01 733.5,-598.86 733.5,-589.99"/>
<polygon fill="midnightblue" stroke="midnightblue" points="737,-589.75 733.5,-579.75 730,-589.75 737,-589.75"/>
</g>
<!-- Node8 -->
<g id="node8" class="node">
<title>Node8</title>
<g id="a_node8"><a xlink:title=" ">
<polygon fill="white" stroke="#bfbfbf" points="815.5,-560.5 815.5,-579.5 943.5,-579.5 943.5,-560.5 815.5,-560.5"/>
<text text-anchor="middle" x="879.5" y="-567.5" font-family="Helvetica,sans-Serif" font-size="10.00">cereal/types/string.hpp</text>
</a>
</g>
</g>
<!-- Node1&#45;&gt;Node8 -->
<g id="edge7" class="edge">
<title>Node1&#45;&gt;Node8</title>
<path fill="none" stroke="midnightblue" d="M756.63,-616.44C780.98,-607.44 819.51,-593.19 846.92,-583.05"/>
<polygon fill="midnightblue" stroke="midnightblue" points="848.31,-586.27 856.47,-579.52 845.88,-579.7 848.31,-586.27"/>
</g>
<!-- Node9 -->
<g id="node9" class="node">
<title>Node9</title>
<g id="a_node9"><a xlink:href="Z__n_8hpp.html" target="_top" xlink:title="Contains the class mackey::Z_mod.">
<polygon fill="white" stroke="black" points="961.5,-560.5 961.5,-579.5 1077.5,-579.5 1077.5,-560.5 961.5,-560.5"/>
<text text-anchor="middle" x="1019.5" y="-567.5" font-family="Helvetica,sans-Serif" font-size="10.00">Coefficients/Z_n.hpp</text>
</a>
</g>
</g>
<!-- Node1&#45;&gt;Node9 -->
<g id="edge8" class="edge">
<title>Node1&#45;&gt;Node9</title>
<path fill="none" stroke="midnightblue" d="M776.63,-616.86C826.72,-607.4 909.48,-591.77 964.24,-581.43"/>
<polygon fill="midnightblue" stroke="midnightblue" points="964.95,-584.86 974.13,-579.57 963.65,-577.98 964.95,-584.86"/>
</g>
<!-- Node16 -->
<g id="node16" class="node">
<title>Node16</title>
<g id="a_node16"><a xlink:href="Additive_8hpp.html" target="_top" xlink:title="Contains the class mackey::AdditiveStructure">
<polygon fill="white" stroke="black" points="1327,-392.5 1327,-411.5 1492,-411.5 1492,-392.5 1327,-392.5"/>
<text text-anchor="middle" x="1409.5" y="-399.5" font-family="Helvetica,sans-Serif" font-size="10.00">Mackey_Functors/Additive.hpp</text>
</a>
</g>
</g>
<!-- Node1&#45;&gt;Node16 -->
<g id="edge15" class="edge">
<title>Node1&#45;&gt;Node16</title>
<path fill="none" stroke="midnightblue" d="M776.58,-623.69C888.89,-619.92 1188.49,-607.52 1283.5,-580 1335.06,-565.07 1359.22,-567.62 1390.5,-524 1412.42,-493.43 1413.12,-447.33 1411.46,-421.76"/>
<polygon fill="midnightblue" stroke="midnightblue" points="1414.93,-421.25 1410.6,-411.59 1407.95,-421.85 1414.93,-421.25"/>
</g>
<!-- Node56 -->
<g id="node39" class="node">
<title>Node56</title>
<g id="a_node39"><a xlink:href="Factorization_8hpp.html" target="_top" xlink:title="Contains the class mackey::Factorization.">
<polygon fill="white" stroke="black" points="1109,-560.5 1109,-579.5 1274,-579.5 1274,-560.5 1109,-560.5"/>
<text text-anchor="middle" x="1191.5" y="-567.5" font-family="Helvetica,sans-Serif" font-size="10.00">Factorization/Factorization.hpp</text>
</a>
</g>
</g>
<!-- Node1&#45;&gt;Node56 -->
<g id="edge44" class="edge">
<title>Node1&#45;&gt;Node56</title>
<path fill="none" stroke="midnightblue" d="M776.59,-619.92C852.51,-610.97 1011.29,-592.25 1108.92,-580.74"/>
<polygon fill="midnightblue" stroke="midnightblue" points="1109.53,-584.19 1119.05,-579.54 1108.71,-577.24 1109.53,-584.19"/>
</g>
<!-- Node70 -->
<g id="node50" class="node">
<title>Node70</title>
<g id="a_node50"><a xlink:title=" ">
<polygon fill="white" stroke="#bfbfbf" points="1437.5,-560.5 1437.5,-579.5 1545.5,-579.5 1545.5,-560.5 1437.5,-560.5"/>
<text text-anchor="middle" x="1491.5" y="-567.5" font-family="Helvetica,sans-Serif" font-size="10.00">impl/Cerealizer.ipp</text>
</a>
</g>
</g>
<!-- Node1&#45;&gt;Node70 -->
<g id="edge60" class="edge">
<title>Node1&#45;&gt;Node70</title>
<path fill="none" stroke="midnightblue" d="M776.78,-623.18C885.62,-618.38 1179.49,-604.08 1423.5,-580 1424.77,-579.88 1426.05,-579.74 1427.33,-579.61"/>
<polygon fill="midnightblue" stroke="midnightblue" points="1427.79,-583.08 1437.35,-578.5 1427.02,-576.12 1427.79,-583.08"/>
</g>
<!-- Node10 -->
<g id="node10" class="node">
<title>Node10</title>
<g id="a_node10"><a xlink:title=" ">
<polygon fill="white" stroke="#bfbfbf" points="1006.5,-0.5 1006.5,-19.5 1066.5,-19.5 1066.5,-0.5 1006.5,-0.5"/>
<text text-anchor="middle" x="1036.5" y="-7.5" font-family="Helvetica,sans-Serif" font-size="10.00">iostream</text>
</a>
</g>
</g>
<!-- Node9&#45;&gt;Node10 -->
<g id="edge9" class="edge">
<title>Node9&#45;&gt;Node10</title>
<path fill="none" stroke="midnightblue" d="M1008.8,-560.45C999.05,-552.12 984.93,-538.6 976.5,-524 961.45,-497.93 957.5,-489.1 957.5,-459 957.5,-459 957.5,-459 957.5,-121 957.5,-80.79 992.75,-45.22 1016.16,-26.03"/>
<polygon fill="midnightblue" stroke="midnightblue" points="1018.47,-28.66 1024.16,-19.72 1014.14,-23.17 1018.47,-28.66"/>
</g>
<!-- Node11 -->
<g id="node11" class="node">
<title>Node11</title>
<g id="a_node11"><a xlink:title=" ">
<polygon fill="white" stroke="#bfbfbf" points="985.5,-504.5 985.5,-523.5 1027.5,-523.5 1027.5,-504.5 985.5,-504.5"/>
<text text-anchor="middle" x="1006.5" y="-511.5" font-family="Helvetica,sans-Serif" font-size="10.00">array</text>
</a>
</g>
</g>
<!-- Node9&#45;&gt;Node11 -->
<g id="edge10" class="edge">
<title>Node9&#45;&gt;Node11</title>
<path fill="none" stroke="midnightblue" d="M1017.35,-560.08C1015.63,-552.93 1013.15,-542.64 1011,-533.69"/>
<polygon fill="midnightblue" stroke="midnightblue" points="1014.35,-532.65 1008.61,-523.75 1007.54,-534.29 1014.35,-532.65"/>
</g>
<!-- Node12 -->
<g id="node12" class="node">
<title>Node12</title>
<g id="a_node12"><a xlink:title=" ">
<polygon fill="white" stroke="#bfbfbf" points="1046,-504.5 1046,-523.5 1123,-523.5 1123,-504.5 1046,-504.5"/>
<text text-anchor="middle" x="1084.5" y="-511.5" font-family="Helvetica,sans-Serif" font-size="10.00">Eigen/Dense</text>
</a>
</g>
</g>
<!-- Node9&#45;&gt;Node12 -->
<g id="edge11" class="edge">
<title>Node9&#45;&gt;Node12</title>
<path fill="none" stroke="midnightblue" d="M1029.94,-560.32C1039.65,-552.26 1054.32,-540.08 1066,-530.37"/>
<polygon fill="midnightblue" stroke="midnightblue" points="1068.41,-532.92 1073.87,-523.83 1063.94,-527.53 1068.41,-532.92"/>
</g>
<!-- Node13 -->
<g id="node13" class="node">
<title>Node13</title>
<g id="a_node13"><a xlink:href="SFINAE_8hpp.html" target="_top" xlink:title="Contains all the SFINAE tricks.">
<polygon fill="white" stroke="black" points="729.5,-504.5 729.5,-523.5 833.5,-523.5 833.5,-504.5 729.5,-504.5"/>
<text text-anchor="middle" x="781.5" y="-511.5" font-family="Helvetica,sans-Serif" font-size="10.00">Types/SFINAE.hpp</text>
</a>
</g>
</g>
<!-- Node9&#45;&gt;Node13 -->
<g id="edge12" class="edge">
<title>Node9&#45;&gt;Node13</title>
<path fill="none" stroke="midnightblue" d="M981.79,-560.44C940.36,-551.04 873.74,-535.93 828.83,-525.74"/>
<polygon fill="midnightblue" stroke="midnightblue" points="829.56,-522.32 819.04,-523.52 828.01,-529.14 829.56,-522.32"/>
</g>
<!-- Node15 -->
<g id="node15" class="node">
<title>Node15</title>
<g id="a_node15"><a xlink:title=" ">
<polygon fill="white" stroke="#bfbfbf" points="852,-504.5 852,-523.5 929,-523.5 929,-504.5 852,-504.5"/>
<text text-anchor="middle" x="890.5" y="-511.5" font-family="Helvetica,sans-Serif" font-size="10.00">impl/Z_n.ipp</text>
</a>
</g>
</g>
<!-- Node9&#45;&gt;Node15 -->
<g id="edge14" class="edge">
<title>Node9&#45;&gt;Node15</title>
<path fill="none" stroke="midnightblue" d="M999.06,-560.44C977.83,-551.56 944.4,-537.56 920.25,-527.45"/>
<polygon fill="midnightblue" stroke="midnightblue" points="921.42,-524.15 910.84,-523.52 918.72,-530.61 921.42,-524.15"/>
</g>
<!-- Node14 -->
<g id="node14" class="node">
<title>Node14</title>
<g id="a_node14"><a xlink:title=" ">
<polygon fill="white" stroke="#bfbfbf" points="747,-448.5 747,-467.5 816,-467.5 816,-448.5 747,-448.5"/>
<text text-anchor="middle" x="781.5" y="-455.5" font-family="Helvetica,sans-Serif" font-size="10.00">type_traits</text>
</a>
</g>
</g>
<!-- Node13&#45;&gt;Node14 -->
<g id="edge13" class="edge">
<title>Node13&#45;&gt;Node14</title>
<path fill="none" stroke="midnightblue" d="M781.5,-504.08C781.5,-497.01 781.5,-486.86 781.5,-477.99"/>
<polygon fill="midnightblue" stroke="midnightblue" points="785,-477.75 781.5,-467.75 778,-477.75 785,-477.75"/>
</g>
<!-- Node17 -->
<g id="node17" class="node">
<title>Node17</title>
<g id="a_node17"><a xlink:href="OpenMP__Macros_8hpp.html" target="_top" xlink:title="Contains open MP macros that enable and control multithreading.">
<polygon fill="white" stroke="black" points="1271.5,-336.5 1271.5,-355.5 1423.5,-355.5 1423.5,-336.5 1271.5,-336.5"/>
<text text-anchor="middle" x="1347.5" y="-343.5" font-family="Helvetica,sans-Serif" font-size="10.00">Utility/OpenMP_Macros.hpp</text>
</a>
</g>
</g>
<!-- Node16&#45;&gt;Node17 -->
<g id="edge16" class="edge">
<title>Node16&#45;&gt;Node17</title>
<path fill="none" stroke="midnightblue" d="M1399.54,-392.32C1390.37,-384.34 1376.56,-372.31 1365.47,-362.65"/>
<polygon fill="midnightblue" stroke="midnightblue" points="1367.48,-359.76 1357.64,-355.83 1362.88,-365.04 1367.48,-359.76"/>
</g>
<!-- Node18 -->
<g id="node18" class="node">
<title>Node18</title>
<g id="a_node18"><a xlink:href="Point_8hpp.html" target="_top" xlink:title="Contains the methods computing the RO(G) homology of a point.">
<polygon fill="white" stroke="black" points="1153.5,-336.5 1153.5,-355.5 1253.5,-355.5 1253.5,-336.5 1153.5,-336.5"/>
<text text-anchor="middle" x="1203.5" y="-343.5" font-family="Helvetica,sans-Serif" font-size="10.00">Spaces/Point.hpp</text>
</a>
</g>
</g>
<!-- Node16&#45;&gt;Node18 -->
<g id="edge17" class="edge">
<title>Node16&#45;&gt;Node18</title>
<path fill="none" stroke="midnightblue" d="M1376.86,-392.44C1341.45,-383.16 1284.79,-368.31 1245.95,-358.13"/>
<polygon fill="midnightblue" stroke="midnightblue" points="1246.55,-354.67 1235.99,-355.52 1244.77,-361.44 1246.55,-354.67"/>
</g>
<!-- Node54 -->
<g id="node37" class="node">
<title>Node54</title>
<g id="a_node37"><a xlink:title=" ">
<polygon fill="white" stroke="#bfbfbf" points="1594.5,-280.5 1594.5,-299.5 1650.5,-299.5 1650.5,-280.5 1594.5,-280.5"/>
<text text-anchor="middle" x="1622.5" y="-287.5" font-family="Helvetica,sans-Serif" font-size="10.00">iomanip</text>
</a>
</g>
</g>
<!-- Node16&#45;&gt;Node54 -->
<g id="edge42" class="edge">
<title>Node16&#45;&gt;Node54</title>
<path fill="none" stroke="midnightblue" d="M1451.84,-392.47C1480.91,-385.45 1519.64,-373.73 1550.5,-356 1572.96,-343.09 1594.42,-322.23 1607.98,-307.63"/>
<polygon fill="midnightblue" stroke="midnightblue" points="1610.89,-309.63 1614.99,-299.87 1605.69,-304.94 1610.89,-309.63"/>
</g>
<!-- Node55 -->
<g id="node38" class="node">
<title>Node55</title>
<g id="a_node38"><a xlink:title=" ">
<polygon fill="white" stroke="#bfbfbf" points="1441.5,-336.5 1441.5,-355.5 1541.5,-355.5 1541.5,-336.5 1441.5,-336.5"/>
<text text-anchor="middle" x="1491.5" y="-343.5" font-family="Helvetica,sans-Serif" font-size="10.00">impl/Additive.ipp</text>
</a>
</g>
</g>
<!-- Node16&#45;&gt;Node55 -->
<g id="edge43" class="edge">
<title>Node16&#45;&gt;Node55</title>
<path fill="none" stroke="midnightblue" d="M1422.67,-392.32C1435.35,-383.98 1454.73,-371.21 1469.71,-361.35"/>
<polygon fill="midnightblue" stroke="midnightblue" points="1471.93,-364.08 1478.36,-355.65 1468.08,-358.23 1471.93,-364.08"/>
</g>
<!-- Node19 -->
<g id="node19" class="node">
<title>Node19</title>
<g id="a_node19"><a xlink:href="Massey_8hpp.html" target="_top" xlink:title="Contains the classes mackey::Massey and mackey::internal::MasseyCompute.">
<polygon fill="white" stroke="black" points="1342,-280.5 1342,-299.5 1461,-299.5 1461,-280.5 1342,-280.5"/>
<text text-anchor="middle" x="1401.5" y="-287.5" font-family="Helvetica,sans-Serif" font-size="10.00">Products/Massey.hpp</text>
</a>
</g>
</g>
<!-- Node18&#45;&gt;Node19 -->
<g id="edge18" class="edge">
<title>Node18&#45;&gt;Node19</title>
<path fill="none" stroke="midnightblue" d="M1234.87,-336.44C1268.76,-327.2 1322.9,-312.44 1360.22,-302.26"/>
<polygon fill="midnightblue" stroke="midnightblue" points="1361.55,-305.52 1370.27,-299.52 1359.7,-298.77 1361.55,-305.52"/>
</g>
<!-- Node51 -->
<g id="node33" class="node">
<title>Node51</title>
<g id="a_node33"><a xlink:href="Morse_8hpp.html" target="_top" xlink:title="Contains the classes mackey::AMT and mackey::EquivariantAMT.">
<polygon fill="white" stroke="black" points="1165.5,-280.5 1165.5,-299.5 1323.5,-299.5 1323.5,-280.5 1165.5,-280.5"/>
<text text-anchor="middle" x="1244.5" y="-287.5" font-family="Helvetica,sans-Serif" font-size="10.00">Chain_Complexes/Morse.hpp</text>
</a>
</g>
</g>
<!-- Node18&#45;&gt;Node51 -->
<g id="edge37" class="edge">
<title>Node18&#45;&gt;Node51</title>
<path fill="none" stroke="midnightblue" d="M1210.27,-336.08C1216.06,-328.46 1224.56,-317.26 1231.64,-307.94"/>
<polygon fill="midnightblue" stroke="midnightblue" points="1234.6,-309.83 1237.86,-299.75 1229.02,-305.6 1234.6,-309.83"/>
</g>
<!-- Node53 -->
<g id="node36" class="node">
<title>Node53</title>
<g id="a_node36"><a xlink:title=" ">
<polygon fill="white" stroke="#bfbfbf" points="1063.5,-280.5 1063.5,-299.5 1147.5,-299.5 1147.5,-280.5 1063.5,-280.5"/>
<text text-anchor="middle" x="1105.5" y="-287.5" font-family="Helvetica,sans-Serif" font-size="10.00">impl/Point.ipp</text>
</a>
</g>
</g>
<!-- Node18&#45;&gt;Node53 -->
<g id="edge41" class="edge">
<title>Node18&#45;&gt;Node53</title>
<path fill="none" stroke="midnightblue" d="M1187.75,-336.32C1172.18,-327.74 1148.12,-314.49 1130.04,-304.52"/>
<polygon fill="midnightblue" stroke="midnightblue" points="1131.65,-301.42 1121.21,-299.65 1128.28,-307.55 1131.65,-301.42"/>
</g>
<!-- Node20 -->
<g id="node20" class="node">
<title>Node20</title>
<g id="a_node20"><a xlink:href="Green_8hpp.html" target="_top" xlink:title="Contains the classes mackey::Green, mackey::internal::GreenCompute, mackey::internal::ChainsLevelGen,...">
<polygon fill="white" stroke="black" points="1352,-224.5 1352,-243.5 1419,-243.5 1419,-224.5 1352,-224.5"/>
<text text-anchor="middle" x="1385.5" y="-231.5" font-family="Helvetica,sans-Serif" font-size="10.00">Green.hpp</text>
</a>
</g>
</g>
<!-- Node19&#45;&gt;Node20 -->
<g id="edge19" class="edge">
<title>Node19&#45;&gt;Node20</title>
<path fill="none" stroke="midnightblue" d="M1398.86,-280.08C1396.71,-272.85 1393.62,-262.41 1390.95,-253.4"/>
<polygon fill="midnightblue" stroke="midnightblue" points="1394.29,-252.34 1388.09,-243.75 1387.58,-254.33 1394.29,-252.34"/>
</g>
<!-- Node50 -->
<g id="node32" class="node">
<title>Node50</title>
<g id="a_node32"><a xlink:title=" ">
<polygon fill="white" stroke="#bfbfbf" points="1560,-224.5 1560,-243.5 1655,-243.5 1655,-224.5 1560,-224.5"/>
<text text-anchor="middle" x="1607.5" y="-231.5" font-family="Helvetica,sans-Serif" font-size="10.00">impl/Massey.ipp</text>
</a>
</g>
</g>
<!-- Node19&#45;&gt;Node50 -->
<g id="edge36" class="edge">
<title>Node19&#45;&gt;Node50</title>
<path fill="none" stroke="midnightblue" d="M1434.14,-280.44C1469.55,-271.16 1526.21,-256.31 1565.05,-246.13"/>
<polygon fill="midnightblue" stroke="midnightblue" points="1566.23,-249.44 1575.01,-243.52 1564.45,-242.67 1566.23,-249.44"/>
</g>
<!-- Node21 -->
<g id="node21" class="node">
<title>Node21</title>
<g id="a_node21"><a xlink:href="Levels_8hpp.html" target="_top" xlink:title="Contains the methods for transfering, restricting and Weyl&#45;group&#45;acting.">
<polygon fill="white" stroke="black" points="1201.5,-168.5 1201.5,-187.5 1357.5,-187.5 1357.5,-168.5 1201.5,-168.5"/>
<text text-anchor="middle" x="1279.5" y="-175.5" font-family="Helvetica,sans-Serif" font-size="10.00">Mackey_Functors/Levels.hpp</text>
</a>
</g>
</g>
<!-- Node20&#45;&gt;Node21 -->
<g id="edge20" class="edge">
<title>Node20&#45;&gt;Node21</title>
<path fill="none" stroke="midnightblue" d="M1368.47,-224.32C1351.47,-215.66 1325.12,-202.24 1305.51,-192.25"/>
<polygon fill="midnightblue" stroke="midnightblue" points="1306.99,-189.08 1296.49,-187.65 1303.81,-195.31 1306.99,-189.08"/>
</g>
<!-- Node38 -->
<g id="node29" class="node">
<title>Node38</title>
<g id="a_node29"><a xlink:href="Identify_8hpp.html" target="_top" xlink:title="Contains the classes mackey::IDGenerators and mackey::internal::IDGeneratorCompute">
<polygon fill="white" stroke="red" points="1023.5,-168.5 1023.5,-187.5 1183.5,-187.5 1183.5,-168.5 1023.5,-168.5"/>
<text text-anchor="middle" x="1103.5" y="-175.5" font-family="Helvetica,sans-Serif" font-size="10.00">Mackey_Functors/Identify.hpp</text>
</a>
</g>
</g>
<!-- Node20&#45;&gt;Node38 -->
<g id="edge30" class="edge">
<title>Node20&#45;&gt;Node38</title>
<path fill="none" stroke="midnightblue" d="M1351.76,-226.54C1303.77,-217.35 1215.26,-200.4 1157.91,-189.42"/>
<polygon fill="midnightblue" stroke="midnightblue" points="1158.42,-185.95 1147.94,-187.51 1157.1,-192.83 1158.42,-185.95"/>
</g>
<!-- Node43 -->
<g id="node30" class="node">
<title>Node43</title>
<g id="a_node30"><a xlink:href="Box_8hpp.html" target="_top" xlink:title="Contains the class mackey::Tensor.">
<polygon fill="white" stroke="red" points="1328.5,-112.5 1328.5,-131.5 1474.5,-131.5 1474.5,-112.5 1328.5,-112.5"/>
<text text-anchor="middle" x="1401.5" y="-119.5" font-family="Helvetica,sans-Serif" font-size="10.00">Chain_Complexes/Box.hpp</text>
</a>
</g>
</g>
<!-- Node20&#45;&gt;Node43 -->
<g id="edge32" class="edge">
<title>Node20&#45;&gt;Node43</title>
<path fill="none" stroke="midnightblue" d="M1386.76,-224.37C1389.34,-206.62 1395.29,-165.67 1398.79,-141.6"/>
<polygon fill="midnightblue" stroke="midnightblue" points="1402.27,-141.99 1400.25,-131.59 1395.35,-140.98 1402.27,-141.99"/>
</g>
<!-- Node49 -->
<g id="node31" class="node">
<title>Node49</title>
<g id="a_node31"><a xlink:title=" ">
<polygon fill="white" stroke="#bfbfbf" points="1414,-168.5 1414,-187.5 1503,-187.5 1503,-168.5 1414,-168.5"/>
<text text-anchor="middle" x="1458.5" y="-175.5" font-family="Helvetica,sans-Serif" font-size="10.00">impl/Green.ipp</text>
</a>
</g>
</g>
<!-- Node20&#45;&gt;Node49 -->
<g id="edge35" class="edge">
<title>Node20&#45;&gt;Node49</title>
<path fill="none" stroke="midnightblue" d="M1397.23,-224.32C1408.34,-216.11 1425.24,-203.6 1438.48,-193.81"/>
<polygon fill="midnightblue" stroke="midnightblue" points="1440.6,-196.59 1446.56,-187.83 1436.44,-190.97 1440.6,-196.59"/>
</g>
<!-- Node22 -->
<g id="node22" class="node">
<title>Node22</title>
<g id="a_node22"><a xlink:href="Homology_8hpp.html" target="_top" xlink:title="Contains the class mackey::Homology.">
<polygon fill="white" stroke="red" points="1060.5,-112.5 1060.5,-131.5 1200.5,-131.5 1200.5,-112.5 1060.5,-112.5"/>
<text text-anchor="middle" x="1130.5" y="-119.5" font-family="Helvetica,sans-Serif" font-size="10.00">Homology/Homology.hpp</text>
</a>
</g>
</g>
<!-- Node21&#45;&gt;Node22 -->
<g id="edge21" class="edge">
<title>Node21&#45;&gt;Node22</title>
<path fill="none" stroke="midnightblue" d="M1255.89,-168.44C1231.04,-159.44 1191.73,-145.19 1163.75,-135.05"/>
<polygon fill="midnightblue" stroke="midnightblue" points="1164.59,-131.63 1154,-131.52 1162.21,-138.21 1164.59,-131.63"/>
</g>
<!-- Node37 -->
<g id="node28" class="node">
<title>Node37</title>
<g id="a_node28"><a xlink:title=" ">
<polygon fill="white" stroke="#bfbfbf" points="1219,-112.5 1219,-131.5 1310,-131.5 1310,-112.5 1219,-112.5"/>
<text text-anchor="middle" x="1264.5" y="-119.5" font-family="Helvetica,sans-Serif" font-size="10.00">impl/Levels.ipp</text>
</a>
</g>
</g>
<!-- Node21&#45;&gt;Node37 -->
<g id="edge29" class="edge">
<title>Node21&#45;&gt;Node37</title>
<path fill="none" stroke="midnightblue" d="M1277.02,-168.08C1275.01,-160.85 1272.11,-150.41 1269.61,-141.4"/>
<polygon fill="midnightblue" stroke="midnightblue" points="1272.98,-140.45 1266.93,-131.75 1266.24,-142.32 1272.98,-140.45"/>
</g>
<!-- Node23 -->
<g id="node23" class="node">
<title>Node23</title>
<g id="a_node23"><a xlink:href="Chains_8hpp.html" target="_top" xlink:title="Contains the classes mackey::Arrow, mackey::Chains and mackey::Junction.">
<polygon fill="white" stroke="black" points="1321,-56.5 1321,-75.5 1482,-75.5 1482,-56.5 1321,-56.5"/>
<text text-anchor="middle" x="1401.5" y="-63.5" font-family="Helvetica,sans-Serif" font-size="10.00">Chain_Complexes/Chains.hpp</text>
</a>
</g>
</g>
<!-- Node22&#45;&gt;Node23 -->
<g id="edge22" class="edge">
<title>Node22&#45;&gt;Node23</title>
<path fill="none" stroke="midnightblue" d="M1173.44,-112.44C1221.01,-102.96 1297.74,-87.67 1348.89,-77.48"/>
<polygon fill="midnightblue" stroke="midnightblue" points="1349.64,-80.9 1358.76,-75.52 1348.27,-74.04 1349.64,-80.9"/>
</g>
<!-- Node27 -->
<g id="node27" class="node">
<title>Node27</title>
<g id="a_node27"><a xlink:href="General_8hpp.html" target="_top" xlink:title="Contains general functions and vector overloads independent of everything else.">
<polygon fill="white" stroke="red" points="1076,-56.5 1076,-75.5 1185,-75.5 1185,-56.5 1076,-56.5"/>
<text text-anchor="middle" x="1130.5" y="-63.5" font-family="Helvetica,sans-Serif" font-size="10.00">Utility/General.hpp</text>
</a>
</g>
</g>
<!-- Node22&#45;&gt;Node27 -->
<g id="edge26" class="edge">
<title>Node22&#45;&gt;Node27</title>
<path fill="none" stroke="midnightblue" d="M1130.5,-112.08C1130.5,-105.01 1130.5,-94.86 1130.5,-85.99"/>
<polygon fill="midnightblue" stroke="midnightblue" points="1134,-85.75 1130.5,-75.75 1127,-85.75 1134,-85.75"/>
</g>
<!-- Node24 -->
<g id="node24" class="node">
<title>Node24</title>
<g id="a_node24"><a xlink:title=" ">
<polygon fill="white" stroke="#bfbfbf" points="1466,-0.5 1466,-19.5 1513,-19.5 1513,-0.5 1466,-0.5"/>
<text text-anchor="middle" x="1489.5" y="-7.5" font-family="Helvetica,sans-Serif" font-size="10.00">vector</text>
</a>
</g>
</g>
<!-- Node23&#45;&gt;Node24 -->
<g id="edge23" class="edge">
<title>Node23&#45;&gt;Node24</title>
<path fill="none" stroke="midnightblue" d="M1415.64,-56.32C1429.37,-47.9 1450.44,-34.97 1466.56,-25.07"/>
<polygon fill="midnightblue" stroke="midnightblue" points="1468.7,-27.87 1475.4,-19.65 1465.04,-21.9 1468.7,-27.87"/>
</g>
<!-- Node25 -->
<g id="node25" class="node">
<title>Node25</title>
<g id="a_node25"><a xlink:title=" ">
<polygon fill="white" stroke="#bfbfbf" points="1280,-0.5 1280,-19.5 1337,-19.5 1337,-0.5 1280,-0.5"/>
<text text-anchor="middle" x="1308.5" y="-7.5" font-family="Helvetica,sans-Serif" font-size="10.00">ostream</text>
</a>
</g>
</g>
<!-- Node23&#45;&gt;Node25 -->
<g id="edge24" class="edge">
<title>Node23&#45;&gt;Node25</title>
<path fill="none" stroke="midnightblue" d="M1386.56,-56.32C1371.91,-47.82 1349.37,-34.73 1332.26,-24.8"/>
<polygon fill="midnightblue" stroke="midnightblue" points="1333.81,-21.65 1323.4,-19.65 1330.3,-27.7 1333.81,-21.65"/>
</g>
<!-- Node26 -->
<g id="node26" class="node">
<title>Node26</title>
<g id="a_node26"><a xlink:title=" ">
<polygon fill="white" stroke="#bfbfbf" points="1355.5,-0.5 1355.5,-19.5 1447.5,-19.5 1447.5,-0.5 1355.5,-0.5"/>
<text text-anchor="middle" x="1401.5" y="-7.5" font-family="Helvetica,sans-Serif" font-size="10.00">impl/Chains.ipp</text>
</a>
</g>
</g>
<!-- Node23&#45;&gt;Node26 -->
<g id="edge25" class="edge">
<title>Node23&#45;&gt;Node26</title>
<path fill="none" stroke="midnightblue" d="M1401.5,-56.08C1401.5,-49.01 1401.5,-38.86 1401.5,-29.99"/>
<polygon fill="midnightblue" stroke="midnightblue" points="1405,-29.75 1401.5,-19.75 1398,-29.75 1405,-29.75"/>
</g>
<!-- Node27&#45;&gt;Node10 -->
<g id="edge28" class="edge">
<title>Node27&#45;&gt;Node10</title>
<path fill="none" stroke="midnightblue" d="M1115.4,-56.32C1100.6,-47.82 1077.81,-34.73 1060.52,-24.8"/>
<polygon fill="midnightblue" stroke="midnightblue" points="1061.98,-21.6 1051.57,-19.65 1058.49,-27.67 1061.98,-21.6"/>
</g>
<!-- Node27&#45;&gt;Node24 -->
<g id="edge27" class="edge">
<title>Node27&#45;&gt;Node24</title>
<path fill="none" stroke="midnightblue" d="M1185.09,-59.64C1248.03,-52.98 1354.75,-40.2 1455.73,-19.91"/>
<polygon fill="midnightblue" stroke="midnightblue" points="1456.7,-23.29 1465.79,-17.86 1455.3,-16.43 1456.7,-23.29"/>
</g>
<!-- Node38&#45;&gt;Node22 -->
<g id="edge31" class="edge">
<title>Node38&#45;&gt;Node22</title>
<path fill="none" stroke="midnightblue" d="M1107.96,-168.08C1111.65,-160.69 1117.02,-149.95 1121.59,-140.81"/>
<polygon fill="midnightblue" stroke="midnightblue" points="1124.78,-142.26 1126.12,-131.75 1118.52,-139.13 1124.78,-142.26"/>
</g>
<!-- Node43&#45;&gt;Node23 -->
<g id="edge34" class="edge">
<title>Node43&#45;&gt;Node23</title>
<path fill="none" stroke="midnightblue" d="M1401.5,-112.08C1401.5,-105.01 1401.5,-94.86 1401.5,-85.99"/>
<polygon fill="midnightblue" stroke="midnightblue" points="1405,-85.75 1401.5,-75.75 1398,-85.75 1405,-85.75"/>
</g>
<!-- Node43&#45;&gt;Node27 -->
<g id="edge33" class="edge">
<title>Node43&#45;&gt;Node27</title>
<path fill="none" stroke="midnightblue" d="M1358.56,-112.44C1310.99,-102.96 1234.26,-87.67 1183.11,-77.48"/>
<polygon fill="midnightblue" stroke="midnightblue" points="1183.73,-74.04 1173.24,-75.52 1182.36,-80.9 1183.73,-74.04"/>
</g>
<!-- Node51&#45;&gt;Node23 -->
<g id="edge38" class="edge">
<title>Node51&#45;&gt;Node23</title>
<path fill="none" stroke="midnightblue" d="M1300.89,-280.46C1338.18,-273.56 1387.55,-261.99 1428.5,-244 1469.58,-225.95 1491.33,-227.56 1512.5,-188 1527.16,-160.61 1486.96,-115.55 1483.5,-112 1469.75,-97.92 1450.64,-87.08 1434.32,-79.57"/>
<polygon fill="midnightblue" stroke="midnightblue" points="1435.67,-76.34 1425.1,-75.54 1432.86,-82.76 1435.67,-76.34"/>
</g>
<!-- Node29 -->
<g id="node34" class="node">
<title>Node29</title>
<g id="a_node34"><a xlink:title=" ">
<polygon fill="white" stroke="#bfbfbf" points="1116.5,-224.5 1116.5,-243.5 1196.5,-243.5 1196.5,-224.5 1116.5,-224.5"/>
<text text-anchor="middle" x="1156.5" y="-231.5" font-family="Helvetica,sans-Serif" font-size="10.00">Eigen/Sparse</text>
</a>
</g>
</g>
<!-- Node51&#45;&gt;Node29 -->
<g id="edge39" class="edge">
<title>Node51&#45;&gt;Node29</title>
<path fill="none" stroke="midnightblue" d="M1230.36,-280.32C1216.63,-271.9 1195.56,-258.97 1179.44,-249.07"/>
<polygon fill="midnightblue" stroke="midnightblue" points="1180.96,-245.9 1170.6,-243.65 1177.3,-251.87 1180.96,-245.9"/>
</g>
<!-- Node52 -->
<g id="node35" class="node">
<title>Node52</title>
<g id="a_node35"><a xlink:title=" ">
<polygon fill="white" stroke="#bfbfbf" points="1215,-224.5 1215,-243.5 1304,-243.5 1304,-224.5 1215,-224.5"/>
<text text-anchor="middle" x="1259.5" y="-231.5" font-family="Helvetica,sans-Serif" font-size="10.00">impl/Morse.ipp</text>
</a>
</g>
</g>
<!-- Node51&#45;&gt;Node52 -->
<g id="edge40" class="edge">
<title>Node51&#45;&gt;Node52</title>
<path fill="none" stroke="midnightblue" d="M1246.98,-280.08C1248.99,-272.85 1251.89,-262.41 1254.39,-253.4"/>
<polygon fill="midnightblue" stroke="midnightblue" points="1257.76,-254.32 1257.07,-243.75 1251.02,-252.45 1257.76,-254.32"/>
</g>
<!-- Node57 -->
<g id="node40" class="node">
<title>Node57</title>
<g id="a_node40"><a xlink:href="Mult__Identify_8hpp.html" target="_top" xlink:title="Contains the class mackey::MultIdentify.">
<polygon fill="white" stroke="black" points="1141.5,-504.5 1141.5,-523.5 1241.5,-523.5 1241.5,-504.5 1141.5,-504.5"/>
<text text-anchor="middle" x="1191.5" y="-511.5" font-family="Helvetica,sans-Serif" font-size="10.00">Mult_Identify.hpp</text>
</a>
</g>
</g>
<!-- Node56&#45;&gt;Node57 -->
<g id="edge45" class="edge">
<title>Node56&#45;&gt;Node57</title>
<path fill="none" stroke="midnightblue" d="M1191.5,-560.08C1191.5,-553.01 1191.5,-542.86 1191.5,-533.99"/>
<polygon fill="midnightblue" stroke="midnightblue" points="1195,-533.75 1191.5,-523.75 1188,-533.75 1195,-533.75"/>
</g>
<!-- Node69 -->
<g id="node49" class="node">
<title>Node69</title>
<g id="a_node49"><a xlink:title=" ">
<polygon fill="white" stroke="#bfbfbf" points="1259.5,-504.5 1259.5,-523.5 1381.5,-523.5 1381.5,-504.5 1259.5,-504.5"/>
<text text-anchor="middle" x="1320.5" y="-511.5" font-family="Helvetica,sans-Serif" font-size="10.00">impl/Factorization.ipp</text>
</a>
</g>
</g>
<!-- Node56&#45;&gt;Node69 -->
<g id="edge59" class="edge">
<title>Node56&#45;&gt;Node69</title>
<path fill="none" stroke="midnightblue" d="M1211.94,-560.44C1233.17,-551.56 1266.6,-537.56 1290.75,-527.45"/>
<polygon fill="midnightblue" stroke="midnightblue" points="1292.28,-530.61 1300.16,-523.52 1289.58,-524.15 1292.28,-530.61"/>
</g>
<!-- Node58 -->
<g id="node41" class="node">
<title>Node58</title>
<g id="a_node41"><a xlink:href="Mult__Graph_8hpp.html" target="_top" xlink:title="Contains the class mackey::MultGraph.">
<polygon fill="white" stroke="black" points="1144.5,-448.5 1144.5,-467.5 1238.5,-467.5 1238.5,-448.5 1144.5,-448.5"/>
<text text-anchor="middle" x="1191.5" y="-455.5" font-family="Helvetica,sans-Serif" font-size="10.00">Mult_Graph.hpp</text>
</a>
</g>
</g>
<!-- Node57&#45;&gt;Node58 -->
<g id="edge46" class="edge">
<title>Node57&#45;&gt;Node58</title>
<path fill="none" stroke="midnightblue" d="M1191.5,-504.08C1191.5,-497.01 1191.5,-486.86 1191.5,-477.99"/>
<polygon fill="midnightblue" stroke="midnightblue" points="1195,-477.75 1191.5,-467.75 1188,-477.75 1195,-477.75"/>
</g>
<!-- Node68 -->
<g id="node48" class="node">
<title>Node68</title>
<g id="a_node48"><a xlink:title=" ">
<polygon fill="white" stroke="#bfbfbf" points="1256.5,-448.5 1256.5,-467.5 1378.5,-467.5 1378.5,-448.5 1256.5,-448.5"/>
<text text-anchor="middle" x="1317.5" y="-455.5" font-family="Helvetica,sans-Serif" font-size="10.00">impl/Mult_Identify.ipp</text>
</a>
</g>
</g>
<!-- Node57&#45;&gt;Node68 -->
<g id="edge58" class="edge">
<title>Node57&#45;&gt;Node68</title>
<path fill="none" stroke="midnightblue" d="M1211.47,-504.44C1232.11,-495.6 1264.56,-481.69 1288.13,-471.59"/>
<polygon fill="midnightblue" stroke="midnightblue" points="1289.82,-474.67 1297.63,-467.52 1287.06,-468.24 1289.82,-474.67"/>
</g>
<!-- Node59 -->
<g id="node42" class="node">
<title>Node59</title>
<g id="a_node42"><a xlink:href="Mult__Table_8hpp.html" target="_top" xlink:title="Contains the classes mackey::MultTableData and mackey::MultTable.">
<polygon fill="white" stroke="black" points="1059.5,-392.5 1059.5,-411.5 1149.5,-411.5 1149.5,-392.5 1059.5,-392.5"/>
<text text-anchor="middle" x="1104.5" y="-399.5" font-family="Helvetica,sans-Serif" font-size="10.00">Mult_Table.hpp</text>
</a>
</g>
</g>
<!-- Node58&#45;&gt;Node59 -->
<g id="edge47" class="edge">
<title>Node58&#45;&gt;Node59</title>
<path fill="none" stroke="midnightblue" d="M1177.52,-448.32C1163.95,-439.9 1143.12,-426.97 1127.18,-417.07"/>
<polygon fill="midnightblue" stroke="midnightblue" points="1128.79,-413.95 1118.44,-411.65 1125.09,-419.9 1128.79,-413.95"/>
</g>
<!-- Node61 -->
<g id="node44" class="node">
<title>Node61</title>
<g id="a_node44"><a xlink:href="Graph__Policies_8hpp.html" target="_top" xlink:title="Contains the classes mackey::bicolored_edge_with_id, mackey::MinLength, mackey::MinColorsLength.">
<polygon fill="white" stroke="black" points="1592.5,-392.5 1592.5,-411.5 1734.5,-411.5 1734.5,-392.5 1592.5,-392.5"/>
<text text-anchor="middle" x="1663.5" y="-399.5" font-family="Helvetica,sans-Serif" font-size="10.00">Graph/Graph_Policies.hpp</text>
</a>
</g>
</g>
<!-- Node58&#45;&gt;Node61 -->
<g id="edge52" class="edge">
<title>Node58&#45;&gt;Node61</title>
<path fill="none" stroke="midnightblue" d="M1238.53,-449.26C1241.56,-448.82 1244.57,-448.39 1247.5,-448 1363.56,-432.41 1498.4,-418.61 1582.35,-410.53"/>
<polygon fill="midnightblue" stroke="midnightblue" points="1582.71,-414.01 1592.33,-409.57 1582.04,-407.04 1582.71,-414.01"/>
</g>
<!-- Node67 -->
<g id="node47" class="node">
<title>Node67</title>
<g id="a_node47"><a xlink:title=" ">
<polygon fill="white" stroke="#bfbfbf" points="1167.5,-392.5 1167.5,-411.5 1283.5,-411.5 1283.5,-392.5 1167.5,-392.5"/>
<text text-anchor="middle" x="1225.5" y="-399.5" font-family="Helvetica,sans-Serif" font-size="10.00">impl/Mult_Graph.ipp</text>
</a>
</g>
</g>
<!-- Node58&#45;&gt;Node67 -->
<g id="edge57" class="edge">
<title>Node58&#45;&gt;Node67</title>
<path fill="none" stroke="midnightblue" d="M1197.11,-448.08C1201.87,-440.53 1208.82,-429.49 1214.65,-420.23"/>
<polygon fill="midnightblue" stroke="midnightblue" points="1217.62,-422.08 1219.99,-411.75 1211.7,-418.35 1217.62,-422.08"/>
</g>
<!-- Node59&#45;&gt;Node17 -->
<g id="edge48" class="edge">
<title>Node59&#45;&gt;Node17</title>
<path fill="none" stroke="midnightblue" d="M1143,-392.44C1185.31,-383.04 1253.32,-367.93 1299.17,-357.74"/>
<polygon fill="midnightblue" stroke="midnightblue" points="1300.17,-361.1 1309.18,-355.52 1298.65,-354.27 1300.17,-361.1"/>
</g>
<!-- Node59&#45;&gt;Node18 -->
<g id="edge50" class="edge">
<title>Node59&#45;&gt;Node18</title>
<path fill="none" stroke="midnightblue" d="M1120.41,-392.32C1136.14,-383.74 1160.44,-370.49 1178.71,-360.52"/>
<polygon fill="midnightblue" stroke="midnightblue" points="1180.53,-363.52 1187.63,-355.65 1177.18,-357.37 1180.53,-363.52"/>
</g>
<!-- Node59&#45;&gt;Node27 -->
<g id="edge49" class="edge">
<title>Node59&#45;&gt;Node27</title>
<path fill="none" stroke="midnightblue" d="M1073.32,-392.48C1053.82,-385.63 1029.62,-374.1 1014.5,-356 995.21,-332.9 995.5,-321.1 995.5,-291 995.5,-291 995.5,-291 995.5,-177 995.5,-126.31 1053.41,-94.83 1093.38,-79.14"/>
<polygon fill="midnightblue" stroke="midnightblue" points="1094.72,-82.38 1102.85,-75.58 1092.26,-75.82 1094.72,-82.38"/>
</g>
<!-- Node60 -->
<g id="node43" class="node">
<title>Node60</title>
<g id="a_node43"><a xlink:title=" ">
<polygon fill="white" stroke="#bfbfbf" points="1023.5,-336.5 1023.5,-355.5 1135.5,-355.5 1135.5,-336.5 1023.5,-336.5"/>
<text text-anchor="middle" x="1079.5" y="-343.5" font-family="Helvetica,sans-Serif" font-size="10.00">impl/Mult_Table.ipp</text>
</a>
</g>
</g>
<!-- Node59&#45;&gt;Node60 -->
<g id="edge51" class="edge">
<title>Node59&#45;&gt;Node60</title>
<path fill="none" stroke="midnightblue" d="M1100.37,-392.08C1096.99,-384.77 1092.08,-374.18 1087.88,-365.1"/>
<polygon fill="midnightblue" stroke="midnightblue" points="1090.93,-363.36 1083.55,-355.75 1084.58,-366.3 1090.93,-363.36"/>
</g>
<!-- Node62 -->
<g id="node45" class="node">
<title>Node62</title>
<g id="a_node45"><a xlink:href="Graph_8hpp.html" target="_top" xlink:title="Contains the classes mackey::Neighborhood, mackey::Graph, mackey::ShortestPaths.">
<polygon fill="white" stroke="red" points="1747,-336.5 1747,-355.5 1814,-355.5 1814,-336.5 1747,-336.5"/>
<text text-anchor="middle" x="1780.5" y="-343.5" font-family="Helvetica,sans-Serif" font-size="10.00">Graph.hpp</text>
</a>
</g>
</g>
<!-- Node61&#45;&gt;Node62 -->
<g id="edge53" class="edge">
<title>Node61&#45;&gt;Node62</title>
<path fill="none" stroke="midnightblue" d="M1682.04,-392.44C1701.12,-383.64 1731.07,-369.81 1752.94,-359.72"/>
<polygon fill="midnightblue" stroke="midnightblue" points="1754.43,-362.88 1762.05,-355.52 1751.5,-356.53 1754.43,-362.88"/>
</g>
<!-- Node66 -->
<g id="node46" class="node">
<title>Node66</title>
<g id="a_node46"><a xlink:title=" ">
<polygon fill="white" stroke="#bfbfbf" points="1598,-336.5 1598,-355.5 1729,-355.5 1729,-336.5 1598,-336.5"/>
<text text-anchor="middle" x="1663.5" y="-343.5" font-family="Helvetica,sans-Serif" font-size="10.00">impl/Graph_Policies.ipp</text>
</a>
</g>
</g>
<!-- Node61&#45;&gt;Node66 -->
<g id="edge56" class="edge">
<title>Node61&#45;&gt;Node66</title>
<path fill="none" stroke="midnightblue" d="M1663.5,-392.08C1663.5,-385.01 1663.5,-374.86 1663.5,-365.99"/>
<polygon fill="midnightblue" stroke="midnightblue" points="1667,-365.75 1663.5,-355.75 1660,-365.75 1667,-365.75"/>
</g>
<!-- Node62&#45;&gt;Node24 -->
<g id="edge54" class="edge">
<title>Node62&#45;&gt;Node24</title>
<path fill="none" stroke="midnightblue" d="M1773.69,-336.46C1760.22,-318.69 1731.5,-275.98 1731.5,-235 1731.5,-235 1731.5,-235 1731.5,-121 1731.5,-30.72 1590.21,-14.18 1523.55,-11.4"/>
<polygon fill="midnightblue" stroke="midnightblue" points="1523.26,-7.89 1513.14,-11.06 1523.02,-14.89 1523.26,-7.89"/>
</g>
<!-- Node62&#45;&gt;Node54 -->
<g id="edge55" class="edge">
<title>Node62&#45;&gt;Node54</title>
<path fill="none" stroke="midnightblue" d="M1755.46,-336.44C1728.88,-327.36 1686.69,-312.94 1656.98,-302.78"/>
<polygon fill="midnightblue" stroke="midnightblue" points="1658.01,-299.44 1647.42,-299.52 1655.75,-306.06 1658.01,-299.44"/>
</g>
</g>
</svg>
        <g id="navigator" transform="translate(0 0)" fill="#404254">
                <rect fill="#f2f5e9" fill-opacity="0.5" stroke="#606060" stroke-width=".5" x="0" y="0" width="60" height="60"/>
                <use id="zoomplus" xlink:href="#zoomPlus" x="17" y="9" onmousedown="handleZoom(evt,'in')"/>
                <use id="zoomminus" xlink:href="#zoomMin" x="42" y="9" onmousedown="handleZoom(evt,'out')"/>
                <use id="reset" xlink:href="#resetDef" x="30" y="36" onmousedown="handleReset()"/>
                <g id="arrowUp" xlink:href="#dirArrow" transform="translate(30 24)" onmousedown="handlePan(0,-1)">
                  <use xlink:href="#rim" fill="#404040">
                        <set attributeName="fill" to="#808080" begin="arrowUp.mouseover" end="arrowUp.mouseout"/>
                  </use>
                  <path fill="none" stroke="white" stroke-width="1.5" d="M0,-3.0v7 M-2.5,-0.5L0,-3.0L2.5,-0.5"/>
                </g>
                <g id="arrowRight" xlink:href="#dirArrow" transform="rotate(90) translate(36 -43)" onmousedown="handlePan(1,0)">
                  <use xlink:href="#rim" fill="#404040">
                        <set attributeName="fill" to="#808080" begin="arrowRight.mouseover" end="arrowRight.mouseout"/>
                  </use>
                  <path fill="none" stroke="white" stroke-width="1.5" d="M0,-3.0v7 M-2.5,-0.5L0,-3.0L2.5,-0.5"/>
                </g>
                <g id="arrowDown" xlink:href="#dirArrow" transform="rotate(180) translate(-30 -48)" onmousedown="handlePan(0,1)">
                  <use xlink:href="#rim" fill="#404040">
                        <set attributeName="fill" to="#808080" begin="arrowDown.mouseover" end="arrowDown.mouseout"/>
                  </use>
                  <path fill="none" stroke="white" stroke-width="1.5" d="M0,-3.0v7 M-2.5,-0.5L0,-3.0L2.5,-0.5"/>
                </g>
                <g id="arrowLeft" xlink:href="#dirArrow" transform="rotate(270) translate(-36 17)" onmousedown="handlePan(-1,0)">
                  <use xlink:href="#rim" fill="#404040">
                        <set attributeName="fill" to="#808080" begin="arrowLeft.mouseover" end="arrowLeft.mouseout"/>
                  </use>
                  <path fill="none" stroke="white" stroke-width="1.5" d="M0,-3.0v7 M-2.5,-0.5L0,-3.0L2.5,-0.5"/>
                </g>
        </g>
        <svg viewBox="0 0 15 15" width="100%" height="30px" preserveAspectRatio="xMaxYMin meet">
         <g id="arrow_out" transform="scale(0.3 0.3)">
          <a xlink:href="Cerealizer_8hpp__incl_org.svg" target="_base">
           <rect id="button" ry="5" rx="5" y="6" x="6" height="38" width="38"
                fill="#f2f5e9" fill-opacity="0.5" stroke="#606060" stroke-width="1.0"/>
           <path id="arrow"
             d="M 11.500037,31.436501 C 11.940474,20.09759 22.043105,11.32322 32.158766,21.979434 L 37.068811,17.246167 C 37.068811,17.246167 37.088388,32 37.088388,32 L 22.160133,31.978069 C 22.160133,31.978069 26.997745,27.140456 26.997745,27.140456 C 18.528582,18.264221 13.291696,25.230495 11.500037,31.436501 z"
             style="fill:#404040;"/>
          </a>
         </g>
        </svg>
</svg>
