<?xml version="1.0" encoding="UTF-8" standalone="no"?>
<!DOCTYPE svg PUBLIC "-//W3C//DTD SVG 1.1//EN"
 "http://www.w3.org/Graphics/SVG/1.1/DTD/svg11.dtd">
<!-- Generated by graphviz version 2.43.0 (0)
 -->
<!-- Title: Chains.hpp Pages: 1 -->
<!--zoomable 588 -->
<svg id="main" version="1.1" xmlns="http://www.w3.org/2000/svg" xmlns:xlink="http://www.w3.org/1999/xlink" xml:space="preserve" onload="init(evt)">
<style type="text/css"><![CDATA[
.edge:hover path { stroke: red; }
.edge:hover polygon { stroke: red; fill: red; }
]]></style>
<script type="text/javascript"><![CDATA[
var edges = document.getElementsByTagName('g');
if (edges && edges.length) {
  for (var i=0;i<edges.length;i++) {
    if (edges[i].id.substr(0,4)=='edge') {
      edges[i].setAttribute('class','edge');
    }
  }
}
]]></script>
        <defs>
                <circle id="rim" cx="0" cy="0" r="7"/>
                <circle id="rim2" cx="0" cy="0" r="3.5"/>
                <g id="zoomPlus">
                        <use xlink:href="#rim" fill="#404040">
                                <set attributeName="fill" to="#808080" begin="zoomplus.mouseover" end="zoomplus.mouseout"/>
                        </use>
                        <path d="M-4,0h8M0,-4v8" fill="none" stroke="white" stroke-width="1.5" pointer-events="none"/>
                </g>
                <g id="zoomMin">
                        <use xlink:href="#rim" fill="#404040">
                                <set attributeName="fill" to="#808080" begin="zoomminus.mouseover" end="zoomminus.mouseout"/>
                        </use>
                        <path d="M-4,0h8" fill="none" stroke="white" stroke-width="1.5" pointer-events="none"/>
                </g>
                <g id="dirArrow">
                        <path fill="none" stroke="white" stroke-width="1.5" d="M0,-3.0v7 M-2.5,-0.5L0,-3.0L2.5,-0.5"/>
                </g>
               <g id="resetDef">
                       <use xlink:href="#rim2" fill="#404040">
                               <set attributeName="fill" to="#808080" begin="reset.mouseover" end="reset.mouseout"/>
                       </use>
               </g>
        </defs>

<script type="text/javascript">
var viewWidth = 405;
var viewHeight = 588;
var sectionId = 'dynsection-1';
</script>
<script xlink:href="svgpan.js"/>
<svg id="graph" class="graph">
<g id="viewport">
<title>Chains.hpp</title>
<polygon fill="white" stroke="transparent" points="-4,4 -4,-584 401,-584 401,4 -4,4"/>
<!-- Node1 -->
<g id="node1" class="node">
<title>Node1</title>
<g id="a_node1"><a xlink:title="Contains the classes mackey::Arrow, mackey::Chains and mackey::Junction.">
<polygon fill="#bfbfbf" stroke="black" points="227.5,-560.5 227.5,-579.5 298.5,-579.5 298.5,-560.5 227.5,-560.5"/>
<text text-anchor="middle" x="263" y="-567.5" font-family="Helvetica,sans-Serif" font-size="10.00">Chains.hpp</text>
</a>
</g>
</g>
<!-- Node2 -->
<g id="node2" class="node">
<title>Node2</title>
<g id="a_node2"><a xlink:href="Box_8hpp.html" target="_top" xlink:title="Contains the class mackey::Tensor.">
<polygon fill="white" stroke="black" points="235,-448.5 235,-467.5 291,-467.5 291,-448.5 235,-448.5"/>
<text text-anchor="middle" x="263" y="-455.5" font-family="Helvetica,sans-Serif" font-size="10.00">Box.hpp</text>
</a>
</g>
</g>
<!-- Node1&#45;&gt;Node2 -->
<g id="edge1" class="edge">
<title>Node1&#45;&gt;Node2</title>
<path fill="none" stroke="midnightblue" d="M263,-550.35C263,-526.25 263,-485.31 263,-467.59"/>
<polygon fill="midnightblue" stroke="midnightblue" points="259.5,-550.37 263,-560.37 266.5,-550.37 259.5,-550.37"/>
</g>
<!-- Node16 -->
<g id="node16" class="node">
<title>Node16</title>
<g id="a_node16"><a xlink:href="Morse_8hpp.html" target="_top" xlink:title="Contains the classes mackey::AMT and mackey::EquivariantAMT.">
<polygon fill="white" stroke="black" points="265,-336.5 265,-355.5 333,-355.5 333,-336.5 265,-336.5"/>
<text text-anchor="middle" x="299" y="-343.5" font-family="Helvetica,sans-Serif" font-size="10.00">Morse.hpp</text>
</a>
</g>
</g>
<!-- Node1&#45;&gt;Node16 -->
<g id="edge19" class="edge">
<title>Node1&#45;&gt;Node16</title>
<path fill="none" stroke="midnightblue" d="M271.75,-551.09C280.9,-531.3 294.64,-498.24 300,-468 307.38,-426.42 302.55,-375.54 300.14,-355.6"/>
<polygon fill="midnightblue" stroke="midnightblue" points="268.47,-549.84 267.35,-560.37 274.8,-552.84 268.47,-549.84"/>
</g>
<!-- Node17 -->
<g id="node17" class="node">
<title>Node17</title>
<g id="a_node17"><a xlink:href="C2n_8hpp.html" target="_top" xlink:title="Defines the groups &#160;via mackey::C2Power.">
<polygon fill="white" stroke="black" points="0,-392.5 0,-411.5 56,-411.5 56,-392.5 0,-392.5"/>
<text text-anchor="middle" x="28" y="-399.5" font-family="Helvetica,sans-Serif" font-size="10.00">C2n.hpp</text>
</a>
</g>
</g>
<!-- Node1&#45;&gt;Node17 -->
<g id="edge21" class="edge">
<title>Node1&#45;&gt;Node17</title>
<path fill="none" stroke="midnightblue" d="M217.5,-561.19C167.05,-549.96 87.46,-524.06 47,-468 34.48,-450.65 30.16,-425.12 28.71,-411.8"/>
<polygon fill="midnightblue" stroke="midnightblue" points="216.98,-564.66 227.49,-563.31 218.43,-557.81 216.98,-564.66"/>
</g>
<!-- Node18 -->
<g id="node18" class="node">
<title>Node18</title>
<g id="a_node18"><a xlink:href="C4_8hpp.html" target="_top" xlink:title="Defines group &#160;via mackey::C_4.">
<polygon fill="white" stroke="black" points="347,-504.5 347,-523.5 397,-523.5 397,-504.5 347,-504.5"/>
<text text-anchor="middle" x="372" y="-511.5" font-family="Helvetica,sans-Serif" font-size="10.00">C4.hpp</text>
</a>
</g>
</g>
<!-- Node1&#45;&gt;Node18 -->
<g id="edge23" class="edge">
<title>Node1&#45;&gt;Node18</title>
<path fill="none" stroke="midnightblue" d="M289.52,-555.86C309.73,-545.85 336.99,-532.35 354.53,-523.65"/>
<polygon fill="midnightblue" stroke="midnightblue" points="287.92,-552.75 280.51,-560.32 291.03,-559.02 287.92,-552.75"/>
</g>
<!-- Node19 -->
<g id="node19" class="node">
<title>Node19</title>
<g id="a_node19"><a xlink:href="Homology_8hpp.html" target="_top" xlink:title="Contains the class mackey::Homology.">
<polygon fill="white" stroke="black" points="137,-504.5 137,-523.5 223,-523.5 223,-504.5 137,-504.5"/>
<text text-anchor="middle" x="180" y="-511.5" font-family="Helvetica,sans-Serif" font-size="10.00">Homology.hpp</text>
</a>
</g>
</g>
<!-- Node1&#45;&gt;Node19 -->
<g id="edge24" class="edge">
<title>Node1&#45;&gt;Node19</title>
<path fill="none" stroke="midnightblue" d="M240.9,-554.62C225.74,-544.76 206.12,-531.99 193.3,-523.65"/>
<polygon fill="midnightblue" stroke="midnightblue" points="239.37,-557.8 249.66,-560.32 243.19,-551.94 239.37,-557.8"/>
</g>
<!-- Node3 -->
<g id="node3" class="node">
<title>Node3</title>
<g id="a_node3"><a xlink:href="Green_8hpp.html" target="_top" xlink:title="Contains the classes mackey::Green, mackey::internal::GreenCompute, mackey::internal::ChainsLevelGen,...">
<polygon fill="white" stroke="black" points="156.5,-392.5 156.5,-411.5 223.5,-411.5 223.5,-392.5 156.5,-392.5"/>
<text text-anchor="middle" x="190" y="-399.5" font-family="Helvetica,sans-Serif" font-size="10.00">Green.hpp</text>
</a>
</g>
</g>
<!-- Node2&#45;&gt;Node3 -->
<g id="edge2" class="edge">
<title>Node2&#45;&gt;Node3</title>
<path fill="none" stroke="midnightblue" d="M242.86,-442.1C229.72,-432.38 213.02,-420.03 201.94,-411.83"/>
<polygon fill="midnightblue" stroke="midnightblue" points="241.15,-445.19 251.27,-448.32 245.31,-439.56 241.15,-445.19"/>
</g>
<!-- Node4 -->
<g id="node4" class="node">
<title>Node4</title>
<g id="a_node4"><a xlink:href="Massey_8hpp.html" target="_top" xlink:title="Contains the classes mackey::Massey and mackey::internal::MasseyCompute.">
<polygon fill="white" stroke="black" points="163,-336.5 163,-355.5 237,-355.5 237,-336.5 163,-336.5"/>
<text text-anchor="middle" x="200" y="-343.5" font-family="Helvetica,sans-Serif" font-size="10.00">Massey.hpp</text>
</a>
</g>
</g>
<!-- Node3&#45;&gt;Node4 -->
<g id="edge3" class="edge">
<title>Node3&#45;&gt;Node4</title>
<path fill="none" stroke="midnightblue" d="M193.5,-382.1C195.16,-373.14 197.06,-362.86 198.38,-355.75"/>
<polygon fill="midnightblue" stroke="midnightblue" points="190.03,-381.61 191.65,-392.08 196.91,-382.89 190.03,-381.61"/>
</g>
<!-- Node5 -->
<g id="node5" class="node">
<title>Node5</title>
<g id="a_node5"><a xlink:href="Point_8hpp.html" target="_top" xlink:title="Contains the methods computing the RO(G) homology of a point.">
<polygon fill="white" stroke="black" points="203,-280.5 203,-299.5 265,-299.5 265,-280.5 203,-280.5"/>
<text text-anchor="middle" x="234" y="-287.5" font-family="Helvetica,sans-Serif" font-size="10.00">Point.hpp</text>
</a>
</g>
</g>
<!-- Node4&#45;&gt;Node5 -->
<g id="edge4" class="edge">
<title>Node4&#45;&gt;Node5</title>
<path fill="none" stroke="midnightblue" d="M210.98,-327.57C216.83,-318.27 223.77,-307.25 228.49,-299.75"/>
<polygon fill="midnightblue" stroke="midnightblue" points="207.98,-325.76 205.61,-336.08 213.9,-329.49 207.98,-325.76"/>
</g>
<!-- Node6 -->
<g id="node6" class="node">
<title>Node6</title>
<g id="a_node6"><a xlink:href="Mult__Table_8hpp.html" target="_top" xlink:title="Contains the classes mackey::MultTableData and mackey::MultTable.">
<polygon fill="white" stroke="black" points="189,-224.5 189,-243.5 279,-243.5 279,-224.5 189,-224.5"/>
<text text-anchor="middle" x="234" y="-231.5" font-family="Helvetica,sans-Serif" font-size="10.00">Mult_Table.hpp</text>
</a>
</g>
</g>
<!-- Node5&#45;&gt;Node6 -->
<g id="edge5" class="edge">
<title>Node5&#45;&gt;Node6</title>
<path fill="none" stroke="midnightblue" d="M234,-269.8C234,-260.91 234,-250.78 234,-243.75"/>
<polygon fill="midnightblue" stroke="midnightblue" points="230.5,-270.08 234,-280.08 237.5,-270.08 230.5,-270.08"/>
</g>
<!-- Node13 -->
<g id="node13" class="node">
<title>Node13</title>
<g id="a_node13"><a xlink:href="Additive_8hpp.html" target="_top" xlink:title="Contains the class mackey::AdditiveStructure">
<polygon fill="white" stroke="black" points="314,-56.5 314,-75.5 392,-75.5 392,-56.5 314,-56.5"/>
<text text-anchor="middle" x="353" y="-63.5" font-family="Helvetica,sans-Serif" font-size="10.00">Additive.hpp</text>
</a>
</g>
</g>
<!-- Node5&#45;&gt;Node13 -->
<g id="edge13" class="edge">
<title>Node5&#45;&gt;Node13</title>
<path fill="none" stroke="midnightblue" d="M255.64,-274.09C266.28,-266.04 278.76,-255.41 288,-244 323.4,-200.27 331,-185.94 347,-132 352.8,-112.44 353.41,-88.25 353.26,-75.61"/>
<polygon fill="midnightblue" stroke="midnightblue" points="253.27,-271.49 247.26,-280.22 257.4,-277.15 253.27,-271.49"/>
</g>
<!-- Node14 -->
<g id="node14" class="node">
<title>Node14</title>
<g id="a_node14"><a xlink:href="Space_8hpp.html" target="_top" xlink:title="Contains the class mackey::Space.">
<polygon fill="white" stroke="black" points="92.5,-224.5 92.5,-243.5 159.5,-243.5 159.5,-224.5 92.5,-224.5"/>
<text text-anchor="middle" x="126" y="-231.5" font-family="Helvetica,sans-Serif" font-size="10.00">Space.hpp</text>
</a>
</g>
</g>
<!-- Node5&#45;&gt;Node14 -->
<g id="edge16" class="edge">
<title>Node5&#45;&gt;Node14</title>
<path fill="none" stroke="midnightblue" d="M207.45,-275.73C187.45,-265.73 160.61,-252.31 143.31,-243.65"/>
<polygon fill="midnightblue" stroke="midnightblue" points="206.14,-278.98 216.65,-280.32 209.27,-272.72 206.14,-278.98"/>
</g>
<!-- Node7 -->
<g id="node7" class="node">
<title>Node7</title>
<g id="a_node7"><a xlink:href="Mult__Graph_8hpp.html" target="_top" xlink:title="Contains the class mackey::MultGraph.">
<polygon fill="white" stroke="black" points="187,-168.5 187,-187.5 281,-187.5 281,-168.5 187,-168.5"/>
<text text-anchor="middle" x="234" y="-175.5" font-family="Helvetica,sans-Serif" font-size="10.00">Mult_Graph.hpp</text>
</a>
</g>
</g>
<!-- Node6&#45;&gt;Node7 -->
<g id="edge6" class="edge">
<title>Node6&#45;&gt;Node7</title>
<path fill="none" stroke="midnightblue" d="M234,-213.8C234,-204.91 234,-194.78 234,-187.75"/>
<polygon fill="midnightblue" stroke="midnightblue" points="230.5,-214.08 234,-224.08 237.5,-214.08 230.5,-214.08"/>
</g>
<!-- Node8 -->
<g id="node8" class="node">
<title>Node8</title>
<g id="a_node8"><a xlink:href="Mult__Connectivity_8hpp.html" target="_top" xlink:title="Contains the class mackey::MultConnectivity.">
<polygon fill="white" stroke="black" points="94.5,-112.5 94.5,-131.5 219.5,-131.5 219.5,-112.5 94.5,-112.5"/>
<text text-anchor="middle" x="157" y="-119.5" font-family="Helvetica,sans-Serif" font-size="10.00">Mult_Connectivity.hpp</text>
</a>
</g>
</g>
<!-- Node7&#45;&gt;Node8 -->
<g id="edge7" class="edge">
<title>Node7&#45;&gt;Node8</title>
<path fill="none" stroke="midnightblue" d="M213.1,-162.34C199.09,-152.52 181.12,-139.91 169.34,-131.65"/>
<polygon fill="midnightblue" stroke="midnightblue" points="211.43,-165.45 221.63,-168.32 215.45,-159.72 211.43,-165.45"/>
</g>
<!-- Node10 -->
<g id="node10" class="node">
<title>Node10</title>
<g id="a_node10"><a xlink:href="Mult__Identify_8hpp.html" target="_top" xlink:title="Contains the class mackey::MultIdentify.">
<polygon fill="white" stroke="black" points="238,-112.5 238,-131.5 338,-131.5 338,-112.5 238,-112.5"/>
<text text-anchor="middle" x="288" y="-119.5" font-family="Helvetica,sans-Serif" font-size="10.00">Mult_Identify.hpp</text>
</a>
</g>
</g>
<!-- Node7&#45;&gt;Node10 -->
<g id="edge9" class="edge">
<title>Node7&#45;&gt;Node10</title>
<path fill="none" stroke="midnightblue" d="M250,-161C259.57,-151.43 271.36,-139.64 279.25,-131.75"/>
<polygon fill="midnightblue" stroke="midnightblue" points="247.51,-158.54 242.92,-168.08 252.46,-163.49 247.51,-158.54"/>
</g>
<!-- Node9 -->
<g id="node9" class="node">
<title>Node9</title>
<g id="a_node9"><a xlink:href="Mackey_8hpp.html" target="_top" xlink:title="Includes the entire library apart from Serialization/Cerealizer.hpp.">
<polygon fill="white" stroke="black" points="120,-0.5 120,-19.5 194,-19.5 194,-0.5 120,-0.5"/>
<text text-anchor="middle" x="157" y="-7.5" font-family="Helvetica,sans-Serif" font-size="10.00">Mackey.hpp</text>
</a>
</g>
</g>
<!-- Node8&#45;&gt;Node9 -->
<g id="edge8" class="edge">
<title>Node8&#45;&gt;Node9</title>
<path fill="none" stroke="midnightblue" d="M157,-102.35C157,-78.25 157,-37.31 157,-19.59"/>
<polygon fill="midnightblue" stroke="midnightblue" points="153.5,-102.37 157,-112.37 160.5,-102.37 153.5,-102.37"/>
</g>
<!-- Node11 -->
<g id="node11" class="node">
<title>Node11</title>
<g id="a_node11"><a xlink:href="Factorization_8hpp.html" target="_top" xlink:title="Contains the class mackey::Factorization.">
<polygon fill="white" stroke="black" points="196,-56.5 196,-75.5 296,-75.5 296,-56.5 196,-56.5"/>
<text text-anchor="middle" x="246" y="-63.5" font-family="Helvetica,sans-Serif" font-size="10.00">Factorization.hpp</text>
</a>
</g>
</g>
<!-- Node10&#45;&gt;Node11 -->
<g id="edge10" class="edge">
<title>Node10&#45;&gt;Node11</title>
<path fill="none" stroke="midnightblue" d="M274.89,-104.14C267.57,-94.74 258.76,-83.4 252.81,-75.75"/>
<polygon fill="midnightblue" stroke="midnightblue" points="272.16,-106.34 281.06,-112.08 277.69,-102.04 272.16,-106.34"/>
</g>
<!-- Node11&#45;&gt;Node9 -->
<g id="edge11" class="edge">
<title>Node11&#45;&gt;Node9</title>
<path fill="none" stroke="midnightblue" d="M222.76,-50.9C206.44,-41 185.13,-28.07 171.26,-19.65"/>
<polygon fill="midnightblue" stroke="midnightblue" points="221.34,-54.13 231.7,-56.32 224.97,-48.14 221.34,-54.13"/>
</g>
<!-- Node12 -->
<g id="node12" class="node">
<title>Node12</title>
<g id="a_node12"><a xlink:href="Cerealizer_8hpp.html" target="_top" xlink:title="Contains the methods for serializing the results of our computations via cereal.">
<polygon fill="white" stroke="black" points="214,-0.5 214,-19.5 300,-19.5 300,-0.5 214,-0.5"/>
<text text-anchor="middle" x="257" y="-7.5" font-family="Helvetica,sans-Serif" font-size="10.00">Cerealizer.hpp</text>
</a>
</g>
</g>
<!-- Node11&#45;&gt;Node12 -->
<g id="edge12" class="edge">
<title>Node11&#45;&gt;Node12</title>
<path fill="none" stroke="midnightblue" d="M249.85,-46.1C251.68,-37.14 253.77,-26.86 255.22,-19.75"/>
<polygon fill="midnightblue" stroke="midnightblue" points="246.38,-45.59 247.82,-56.08 253.24,-46.98 246.38,-45.59"/>
</g>
<!-- Node13&#45;&gt;Node9 -->
<g id="edge14" class="edge">
<title>Node13&#45;&gt;Node9</title>
<path fill="none" stroke="midnightblue" d="M311.98,-53.7C274.99,-43.51 221.4,-28.74 187.91,-19.52"/>
<polygon fill="midnightblue" stroke="midnightblue" points="311.37,-57.16 321.94,-56.44 313.23,-50.41 311.37,-57.16"/>
</g>
<!-- Node13&#45;&gt;Node12 -->
<g id="edge15" class="edge">
<title>Node13&#45;&gt;Node12</title>
<path fill="none" stroke="midnightblue" d="M328.43,-51.18C310.76,-41.24 287.49,-28.15 272.39,-19.65"/>
<polygon fill="midnightblue" stroke="midnightblue" points="327.14,-54.47 337.58,-56.32 330.58,-48.37 327.14,-54.47"/>
</g>
<!-- Node15 -->
<g id="node15" class="node">
<title>Node15</title>
<g id="a_node15"><a xlink:href="BC4S2_8hpp.html" target="_top" xlink:title="Contains the class mackey::BC4S2.">
<polygon fill="white" stroke="black" points="80.5,-168.5 80.5,-187.5 149.5,-187.5 149.5,-168.5 80.5,-168.5"/>
<text text-anchor="middle" x="115" y="-175.5" font-family="Helvetica,sans-Serif" font-size="10.00">BC4S2.hpp</text>
</a>
</g>
</g>
<!-- Node14&#45;&gt;Node15 -->
<g id="edge17" class="edge">
<title>Node14&#45;&gt;Node15</title>
<path fill="none" stroke="midnightblue" d="M122.15,-214.1C120.32,-205.14 118.23,-194.86 116.78,-187.75"/>
<polygon fill="midnightblue" stroke="midnightblue" points="118.76,-214.98 124.18,-224.08 125.62,-213.59 118.76,-214.98"/>
</g>
<!-- Node15&#45;&gt;Node9 -->
<g id="edge18" class="edge">
<title>Node15&#45;&gt;Node9</title>
<path fill="none" stroke="midnightblue" d="M100.25,-160.47C90.57,-147.57 80.61,-129.04 86,-112 98.35,-72.97 131.79,-35.96 147.98,-19.68"/>
<polygon fill="midnightblue" stroke="midnightblue" points="97.69,-162.87 106.72,-168.41 103.12,-158.45 97.69,-162.87"/>
</g>
<!-- Node16&#45;&gt;Node5 -->
<g id="edge20" class="edge">
<title>Node16&#45;&gt;Node5</title>
<path fill="none" stroke="midnightblue" d="M280.73,-329.82C269.08,-320.15 254.4,-307.95 244.63,-299.83"/>
<polygon fill="midnightblue" stroke="midnightblue" points="278.63,-332.63 288.56,-336.32 283.1,-327.24 278.63,-332.63"/>
</g>
<!-- Node17&#45;&gt;Node9 -->
<g id="edge22" class="edge">
<title>Node17&#45;&gt;Node9</title>
<path fill="none" stroke="midnightblue" d="M28,-382.25C28,-360.36 28,-323.05 28,-291 28,-291 28,-291 28,-121 28,-67.14 93.92,-34.07 131.51,-19.59"/>
<polygon fill="midnightblue" stroke="midnightblue" points="24.5,-382.44 28,-392.44 31.5,-382.44 24.5,-382.44"/>
</g>
<!-- Node20 -->
<g id="node20" class="node">
<title>Node20</title>
<g id="a_node20"><a xlink:href="Identify_8hpp.html" target="_top" xlink:title="Contains the classes mackey::IDGenerators and mackey::internal::IDGeneratorCompute">
<polygon fill="white" stroke="black" points="143.5,-448.5 143.5,-467.5 216.5,-467.5 216.5,-448.5 143.5,-448.5"/>
<text text-anchor="middle" x="180" y="-455.5" font-family="Helvetica,sans-Serif" font-size="10.00">Identify.hpp</text>
</a>
</g>
</g>
<!-- Node19&#45;&gt;Node20 -->
<g id="edge25" class="edge">
<title>Node19&#45;&gt;Node20</title>
<path fill="none" stroke="midnightblue" d="M180,-493.8C180,-484.91 180,-474.78 180,-467.75"/>
<polygon fill="midnightblue" stroke="midnightblue" points="176.5,-494.08 180,-504.08 183.5,-494.08 176.5,-494.08"/>
</g>
<!-- Node21 -->
<g id="node21" class="node">
<title>Node21</title>
<g id="a_node21"><a xlink:href="Levels_8hpp.html" target="_top" xlink:title="Contains the methods for transfering, restricting and Weyl&#45;group&#45;acting.">
<polygon fill="white" stroke="black" points="56.5,-448.5 56.5,-467.5 125.5,-467.5 125.5,-448.5 56.5,-448.5"/>
<text text-anchor="middle" x="91" y="-455.5" font-family="Helvetica,sans-Serif" font-size="10.00">Levels.hpp</text>
</a>
</g>
</g>
<!-- Node19&#45;&gt;Node21 -->
<g id="edge27" class="edge">
<title>Node19&#45;&gt;Node21</title>
<path fill="none" stroke="midnightblue" d="M156.76,-498.9C140.44,-489 119.13,-476.07 105.26,-467.65"/>
<polygon fill="midnightblue" stroke="midnightblue" points="155.34,-502.13 165.7,-504.32 158.97,-496.14 155.34,-502.13"/>
</g>
<!-- Node20&#45;&gt;Node3 -->
<g id="edge26" class="edge">
<title>Node20&#45;&gt;Node3</title>
<path fill="none" stroke="midnightblue" d="M183.5,-438.1C185.16,-429.14 187.06,-418.86 188.38,-411.75"/>
<polygon fill="midnightblue" stroke="midnightblue" points="180.03,-437.61 181.65,-448.08 186.91,-438.89 180.03,-437.61"/>
</g>
<!-- Node21&#45;&gt;Node3 -->
<g id="edge28" class="edge">
<title>Node21&#45;&gt;Node3</title>
<path fill="none" stroke="midnightblue" d="M115.84,-443.45C134.11,-433.48 158.42,-420.23 174.13,-411.65"/>
<polygon fill="midnightblue" stroke="midnightblue" points="114.01,-440.46 106.91,-448.32 117.36,-446.61 114.01,-440.46"/>
</g>
</g>
</svg>
        <g id="navigator" transform="translate(0 0)" fill="#404254">
                <rect fill="#f2f5e9" fill-opacity="0.5" stroke="#606060" stroke-width=".5" x="0" y="0" width="60" height="60"/>
                <use id="zoomplus" xlink:href="#zoomPlus" x="17" y="9" onmousedown="handleZoom(evt,'in')"/>
                <use id="zoomminus" xlink:href="#zoomMin" x="42" y="9" onmousedown="handleZoom(evt,'out')"/>
                <use id="reset" xlink:href="#resetDef" x="30" y="36" onmousedown="handleReset()"/>
                <g id="arrowUp" xlink:href="#dirArrow" transform="translate(30 24)" onmousedown="handlePan(0,-1)">
                  <use xlink:href="#rim" fill="#404040">
                        <set attributeName="fill" to="#808080" begin="arrowUp.mouseover" end="arrowUp.mouseout"/>
                  </use>
                  <path fill="none" stroke="white" stroke-width="1.5" d="M0,-3.0v7 M-2.5,-0.5L0,-3.0L2.5,-0.5"/>
                </g>
                <g id="arrowRight" xlink:href="#dirArrow" transform="rotate(90) translate(36 -43)" onmousedown="handlePan(1,0)">
                  <use xlink:href="#rim" fill="#404040">
                        <set attributeName="fill" to="#808080" begin="arrowRight.mouseover" end="arrowRight.mouseout"/>
                  </use>
                  <path fill="none" stroke="white" stroke-width="1.5" d="M0,-3.0v7 M-2.5,-0.5L0,-3.0L2.5,-0.5"/>
                </g>
                <g id="arrowDown" xlink:href="#dirArrow" transform="rotate(180) translate(-30 -48)" onmousedown="handlePan(0,1)">
                  <use xlink:href="#rim" fill="#404040">
                        <set attributeName="fill" to="#808080" begin="arrowDown.mouseover" end="arrowDown.mouseout"/>
                  </use>
                  <path fill="none" stroke="white" stroke-width="1.5" d="M0,-3.0v7 M-2.5,-0.5L0,-3.0L2.5,-0.5"/>
                </g>
                <g id="arrowLeft" xlink:href="#dirArrow" transform="rotate(270) translate(-36 17)" onmousedown="handlePan(-1,0)">
                  <use xlink:href="#rim" fill="#404040">
                        <set attributeName="fill" to="#808080" begin="arrowLeft.mouseover" end="arrowLeft.mouseout"/>
                  </use>
                  <path fill="none" stroke="white" stroke-width="1.5" d="M0,-3.0v7 M-2.5,-0.5L0,-3.0L2.5,-0.5"/>
                </g>
        </g>
        <svg viewBox="0 0 15 15" width="100%" height="30px" preserveAspectRatio="xMaxYMin meet">
         <g id="arrow_out" transform="scale(0.3 0.3)">
          <a xlink:href="Chains_8hpp__dep__incl_org.svg" target="_base">
           <rect id="button" ry="5" rx="5" y="6" x="6" height="38" width="38"
                fill="#f2f5e9" fill-opacity="0.5" stroke="#606060" stroke-width="1.0"/>
           <path id="arrow"
             d="M 11.500037,31.436501 C 11.940474,20.09759 22.043105,11.32322 32.158766,21.979434 L 37.068811,17.246167 C 37.068811,17.246167 37.088388,32 37.088388,32 L 22.160133,31.978069 C 22.160133,31.978069 26.997745,27.140456 26.997745,27.140456 C 18.528582,18.264221 13.291696,25.230495 11.500037,31.436501 z"
             style="fill:#404040;"/>
          </a>
         </g>
        </svg>
</svg>
