<?xml version="1.0" encoding="UTF-8" standalone="no"?>
<!DOCTYPE svg PUBLIC "-//W3C//DTD SVG 1.1//EN"
 "http://www.w3.org/Graphics/SVG/1.1/DTD/svg11.dtd">
<!-- Generated by graphviz version 2.43.0 (0)
 -->
<!-- Title: Chains.hpp Pages: 1 -->
<!--zoomable 588 -->
<svg id="main" version="1.1" xmlns="http://www.w3.org/2000/svg" xmlns:xlink="http://www.w3.org/1999/xlink" xml:space="preserve" onload="init(evt)">
<style type="text/css"><![CDATA[
.edge:hover path { stroke: red; }
.edge:hover polygon { stroke: red; fill: red; }
]]></style>
<script type="text/javascript"><![CDATA[
var edges = document.getElementsByTagName('g');
if (edges && edges.length) {
  for (var i=0;i<edges.length;i++) {
    if (edges[i].id.substr(0,4)=='edge') {
      edges[i].setAttribute('class','edge');
    }
  }
}
]]></script>
        <defs>
                <circle id="rim" cx="0" cy="0" r="7"/>
                <circle id="rim2" cx="0" cy="0" r="3.5"/>
                <g id="zoomPlus">
                        <use xlink:href="#rim" fill="#404040">
                                <set attributeName="fill" to="#808080" begin="zoomplus.mouseover" end="zoomplus.mouseout"/>
                        </use>
                        <path d="M-4,0h8M0,-4v8" fill="none" stroke="white" stroke-width="1.5" pointer-events="none"/>
                </g>
                <g id="zoomMin">
                        <use xlink:href="#rim" fill="#404040">
                                <set attributeName="fill" to="#808080" begin="zoomminus.mouseover" end="zoomminus.mouseout"/>
                        </use>
                        <path d="M-4,0h8" fill="none" stroke="white" stroke-width="1.5" pointer-events="none"/>
                </g>
                <g id="dirArrow">
                        <path fill="none" stroke="white" stroke-width="1.5" d="M0,-3.0v7 M-2.5,-0.5L0,-3.0L2.5,-0.5"/>
                </g>
               <g id="resetDef">
                       <use xlink:href="#rim2" fill="#404040">
                               <set attributeName="fill" to="#808080" begin="reset.mouseover" end="reset.mouseout"/>
                       </use>
               </g>
        </defs>

<script type="text/javascript">
var viewWidth = 452;
var viewHeight = 588;
var sectionId = 'dynsection-1';
</script>
<script xlink:href="svgpan.js"/>
<svg id="graph" class="graph">
<g id="viewport">
<title>Chains.hpp</title>
<polygon fill="white" stroke="transparent" points="-4,4 -4,-584 448,-584 448,4 -4,4"/>
<!-- Node1 -->
<g id="node1" class="node">
<title>Node1</title>
<g id="a_node1"><a xlink:title="Contains Chains and Junction classes for using chain complexes.">
<polygon fill="#bfbfbf" stroke="black" points="217.5,-560.5 217.5,-579.5 288.5,-579.5 288.5,-560.5 217.5,-560.5"/>
<text text-anchor="middle" x="253" y="-567.5" font-family="Helvetica,sans-Serif" font-size="10.00">Chains.hpp</text>
</a>
</g>
</g>
<!-- Node2 -->
<g id="node2" class="node">
<title>Node2</title>
<g id="a_node2"><a xlink:href="Box_8hpp.html" target="_top" xlink:title="Contains the construction of box products of Chains.">
<polygon fill="white" stroke="black" points="103,-448.5 103,-467.5 159,-467.5 159,-448.5 103,-448.5"/>
<text text-anchor="middle" x="131" y="-455.5" font-family="Helvetica,sans-Serif" font-size="10.00">Box.hpp</text>
</a>
</g>
</g>
<!-- Node1&#45;&gt;Node2 -->
<g id="edge1" class="edge">
<title>Node1&#45;&gt;Node2</title>
<path fill="none" stroke="midnightblue" d="M235.19,-553.86C225.09,-545.2 212.25,-534.09 201,-524 178.77,-504.07 153.2,-480.03 139.97,-467.52"/>
<polygon fill="midnightblue" stroke="midnightblue" points="233.06,-556.64 242.94,-560.48 237.61,-551.32 233.06,-556.64"/>
</g>
<!-- Node16 -->
<g id="node16" class="node">
<title>Node16</title>
<g id="a_node16"><a xlink:href="Morse_8hpp.html" target="_top" xlink:title="Contains classes for (equivariant) Algebraic Morse Theory.">
<polygon fill="white" stroke="black" points="47,-336.5 47,-355.5 115,-355.5 115,-336.5 47,-336.5"/>
<text text-anchor="middle" x="81" y="-343.5" font-family="Helvetica,sans-Serif" font-size="10.00">Morse.hpp</text>
</a>
</g>
</g>
<!-- Node1&#45;&gt;Node16 -->
<g id="edge20" class="edge">
<title>Node1&#45;&gt;Node16</title>
<path fill="none" stroke="midnightblue" d="M216.41,-556.91C178.63,-542.32 121.44,-513.85 94,-468 71.97,-431.2 76.71,-376.68 79.61,-355.68"/>
<polygon fill="midnightblue" stroke="midnightblue" points="215.45,-560.29 226.04,-560.5 217.89,-553.73 215.45,-560.29"/>
</g>
<!-- Node17 -->
<g id="node17" class="node">
<title>Node17</title>
<g id="a_node17"><a xlink:href="C2n_8hpp.html" target="_top" xlink:title="Defines the groups .">
<polygon fill="white" stroke="black" points="338,-392.5 338,-411.5 394,-411.5 394,-392.5 338,-392.5"/>
<text text-anchor="middle" x="366" y="-399.5" font-family="Helvetica,sans-Serif" font-size="10.00">C2n.hpp</text>
</a>
</g>
</g>
<!-- Node1&#45;&gt;Node17 -->
<g id="edge22" class="edge">
<title>Node1&#45;&gt;Node17</title>
<path fill="none" stroke="midnightblue" d="M272.41,-554.07C294.25,-536.14 329.02,-503.93 347,-468 356.47,-449.07 362.02,-424.63 364.47,-411.78"/>
<polygon fill="midnightblue" stroke="midnightblue" points="270.08,-551.45 264.46,-560.44 274.45,-556.92 270.08,-551.45"/>
</g>
<!-- Node18 -->
<g id="node18" class="node">
<title>Node18</title>
<g id="a_node18"><a xlink:href="C4_8hpp.html" target="_top" xlink:title="Defines group .">
<polygon fill="white" stroke="black" points="394,-504.5 394,-523.5 444,-523.5 444,-504.5 394,-504.5"/>
<text text-anchor="middle" x="419" y="-511.5" font-family="Helvetica,sans-Serif" font-size="10.00">C4.hpp</text>
</a>
</g>
</g>
<!-- Node1&#45;&gt;Node18 -->
<g id="edge24" class="edge">
<title>Node1&#45;&gt;Node18</title>
<path fill="none" stroke="midnightblue" d="M289.07,-557.27C320.75,-546.96 366.02,-532.23 393.91,-523.16"/>
<polygon fill="midnightblue" stroke="midnightblue" points="287.73,-554.02 279.3,-560.44 289.9,-560.68 287.73,-554.02"/>
</g>
<!-- Node19 -->
<g id="node19" class="node">
<title>Node19</title>
<g id="a_node19"><a xlink:href="Homology_8hpp.html" target="_top" xlink:title="Contains the Homology class and algorithms.">
<polygon fill="white" stroke="black" points="210,-504.5 210,-523.5 296,-523.5 296,-504.5 210,-504.5"/>
<text text-anchor="middle" x="253" y="-511.5" font-family="Helvetica,sans-Serif" font-size="10.00">Homology.hpp</text>
</a>
</g>
</g>
<!-- Node1&#45;&gt;Node19 -->
<g id="edge25" class="edge">
<title>Node1&#45;&gt;Node19</title>
<path fill="none" stroke="midnightblue" d="M253,-549.8C253,-540.91 253,-530.78 253,-523.75"/>
<polygon fill="midnightblue" stroke="midnightblue" points="249.5,-550.08 253,-560.08 256.5,-550.08 249.5,-550.08"/>
</g>
<!-- Node3 -->
<g id="node3" class="node">
<title>Node3</title>
<g id="a_node3"><a xlink:href="Green_8hpp.html" target="_top" xlink:title="Contains the class and methods for multiplying generators.">
<polygon fill="white" stroke="black" points="166.5,-392.5 166.5,-411.5 233.5,-411.5 233.5,-392.5 166.5,-392.5"/>
<text text-anchor="middle" x="200" y="-399.5" font-family="Helvetica,sans-Serif" font-size="10.00">Green.hpp</text>
</a>
</g>
</g>
<!-- Node2&#45;&gt;Node3 -->
<g id="edge2" class="edge">
<title>Node2&#45;&gt;Node3</title>
<path fill="none" stroke="midnightblue" d="M150.04,-442.1C162.46,-432.38 178.24,-420.03 188.71,-411.83"/>
<polygon fill="midnightblue" stroke="midnightblue" points="147.8,-439.4 142.09,-448.32 152.12,-444.92 147.8,-439.4"/>
</g>
<!-- Node4 -->
<g id="node4" class="node">
<title>Node4</title>
<g id="a_node4"><a xlink:href="Massey_8hpp.html" target="_top" xlink:title="Contains the class and methods for Massey Products.">
<polygon fill="white" stroke="black" points="157,-336.5 157,-355.5 231,-355.5 231,-336.5 157,-336.5"/>
<text text-anchor="middle" x="194" y="-343.5" font-family="Helvetica,sans-Serif" font-size="10.00">Massey.hpp</text>
</a>
</g>
</g>
<!-- Node3&#45;&gt;Node4 -->
<g id="edge3" class="edge">
<title>Node3&#45;&gt;Node4</title>
<path fill="none" stroke="midnightblue" d="M197.9,-382.1C196.9,-373.14 195.76,-362.86 194.97,-355.75"/>
<polygon fill="midnightblue" stroke="midnightblue" points="194.43,-382.53 199.01,-392.08 201.38,-381.76 194.43,-382.53"/>
</g>
<!-- Node5 -->
<g id="node5" class="node">
<title>Node5</title>
<g id="a_node5"><a xlink:href="Point_8hpp.html" target="_top" xlink:title="Contains the computations for RO(G) homology of a point.">
<polygon fill="white" stroke="black" points="115,-280.5 115,-299.5 177,-299.5 177,-280.5 115,-280.5"/>
<text text-anchor="middle" x="146" y="-287.5" font-family="Helvetica,sans-Serif" font-size="10.00">Point.hpp</text>
</a>
</g>
</g>
<!-- Node4&#45;&gt;Node5 -->
<g id="edge4" class="edge">
<title>Node4&#45;&gt;Node5</title>
<path fill="none" stroke="midnightblue" d="M179.27,-328.43C170.86,-318.97 160.65,-307.48 153.78,-299.75"/>
<polygon fill="midnightblue" stroke="midnightblue" points="176.81,-330.93 186.07,-336.08 182.05,-326.28 176.81,-330.93"/>
</g>
<!-- Node6 -->
<g id="node6" class="node">
<title>Node6</title>
<g id="a_node6"><a xlink:href="Mult__Table_8hpp.html" target="_top" xlink:title="Contains the classes mackey::MultTableData and mackey::MultTable that form the multiplication table.">
<polygon fill="white" stroke="black" points="101,-224.5 101,-243.5 191,-243.5 191,-224.5 101,-224.5"/>
<text text-anchor="middle" x="146" y="-231.5" font-family="Helvetica,sans-Serif" font-size="10.00">Mult_Table.hpp</text>
</a>
</g>
</g>
<!-- Node5&#45;&gt;Node6 -->
<g id="edge5" class="edge">
<title>Node5&#45;&gt;Node6</title>
<path fill="none" stroke="midnightblue" d="M146,-269.8C146,-260.91 146,-250.78 146,-243.75"/>
<polygon fill="midnightblue" stroke="midnightblue" points="142.5,-270.08 146,-280.08 149.5,-270.08 142.5,-270.08"/>
</g>
<!-- Node13 -->
<g id="node13" class="node">
<title>Node13</title>
<g id="a_node13"><a xlink:href="Additive_8hpp.html" target="_top" xlink:title="Contains the class for presenting the additive structure of the RO(G) homology.">
<polygon fill="white" stroke="black" points="0,-56.5 0,-75.5 78,-75.5 78,-56.5 0,-56.5"/>
<text text-anchor="middle" x="39" y="-63.5" font-family="Helvetica,sans-Serif" font-size="10.00">Additive.hpp</text>
</a>
</g>
</g>
<!-- Node5&#45;&gt;Node13 -->
<g id="edge14" class="edge">
<title>Node5&#45;&gt;Node13</title>
<path fill="none" stroke="midnightblue" d="M124.88,-273.99C91.94,-249.03 29.94,-195.43 9,-132 2.06,-110.99 19.28,-87.77 30.41,-75.57"/>
<polygon fill="midnightblue" stroke="midnightblue" points="123.22,-277.12 133.34,-280.25 127.39,-271.49 123.22,-277.12"/>
</g>
<!-- Node14 -->
<g id="node14" class="node">
<title>Node14</title>
<g id="a_node14"><a xlink:href="Space_8hpp.html" target="_top" xlink:title="File containing the class for spaces other than points!">
<polygon fill="white" stroke="black" points="225.5,-224.5 225.5,-243.5 292.5,-243.5 292.5,-224.5 225.5,-224.5"/>
<text text-anchor="middle" x="259" y="-231.5" font-family="Helvetica,sans-Serif" font-size="10.00">Space.hpp</text>
</a>
</g>
</g>
<!-- Node5&#45;&gt;Node14 -->
<g id="edge17" class="edge">
<title>Node5&#45;&gt;Node14</title>
<path fill="none" stroke="midnightblue" d="M173,-276.1C194.11,-266.01 222.86,-252.27 241.18,-243.52"/>
<polygon fill="midnightblue" stroke="midnightblue" points="171.42,-272.97 163.91,-280.44 174.44,-279.29 171.42,-272.97"/>
</g>
<!-- Node7 -->
<g id="node7" class="node">
<title>Node7</title>
<g id="a_node7"><a xlink:href="Mult__Graph_8hpp.html" target="_top" xlink:title="Contains the multiplication graph.">
<polygon fill="white" stroke="black" points="99,-168.5 99,-187.5 193,-187.5 193,-168.5 99,-168.5"/>
<text text-anchor="middle" x="146" y="-175.5" font-family="Helvetica,sans-Serif" font-size="10.00">Mult_Graph.hpp</text>
</a>
</g>
</g>
<!-- Node6&#45;&gt;Node7 -->
<g id="edge6" class="edge">
<title>Node6&#45;&gt;Node7</title>
<path fill="none" stroke="midnightblue" d="M146,-213.8C146,-204.91 146,-194.78 146,-187.75"/>
<polygon fill="midnightblue" stroke="midnightblue" points="142.5,-214.08 146,-224.08 149.5,-214.08 142.5,-214.08"/>
</g>
<!-- Node8 -->
<g id="node8" class="node">
<title>Node8</title>
<g id="a_node8"><a xlink:href="Factorization_8hpp.html" target="_top" xlink:title="Contains the multiplication graph and the methods for factorizing generators.">
<polygon fill="white" stroke="black" points="96,-56.5 96,-75.5 196,-75.5 196,-56.5 96,-56.5"/>
<text text-anchor="middle" x="146" y="-63.5" font-family="Helvetica,sans-Serif" font-size="10.00">Factorization.hpp</text>
</a>
</g>
</g>
<!-- Node7&#45;&gt;Node8 -->
<g id="edge7" class="edge">
<title>Node7&#45;&gt;Node8</title>
<path fill="none" stroke="midnightblue" d="M146,-158.35C146,-134.25 146,-93.31 146,-75.59"/>
<polygon fill="midnightblue" stroke="midnightblue" points="142.5,-158.37 146,-168.37 149.5,-158.37 142.5,-158.37"/>
</g>
<!-- Node11 -->
<g id="node11" class="node">
<title>Node11</title>
<g id="a_node11"><a xlink:href="Mult__Connectivity_8hpp.html" target="_top" xlink:title="Contains methods for the finding the connectivity of the multiplication graph should identification f...">
<polygon fill="white" stroke="black" points="174.5,-112.5 174.5,-131.5 299.5,-131.5 299.5,-112.5 174.5,-112.5"/>
<text text-anchor="middle" x="237" y="-119.5" font-family="Helvetica,sans-Serif" font-size="10.00">Mult_Connectivity.hpp</text>
</a>
</g>
</g>
<!-- Node7&#45;&gt;Node11 -->
<g id="edge10" class="edge">
<title>Node7&#45;&gt;Node11</title>
<path fill="none" stroke="midnightblue" d="M169.29,-163.18C186.04,-153.24 208.1,-140.15 222.42,-131.65"/>
<polygon fill="midnightblue" stroke="midnightblue" points="167.43,-160.21 160.62,-168.32 171.01,-166.23 167.43,-160.21"/>
</g>
<!-- Node12 -->
<g id="node12" class="node">
<title>Node12</title>
<g id="a_node12"><a xlink:href="Mult__Identify_8hpp.html" target="_top" xlink:title="Contains extra identification methods for the multiplication graph.">
<polygon fill="white" stroke="black" points="18,-112.5 18,-131.5 118,-131.5 118,-112.5 18,-112.5"/>
<text text-anchor="middle" x="68" y="-119.5" font-family="Helvetica,sans-Serif" font-size="10.00">Mult_Identify.hpp</text>
</a>
</g>
</g>
<!-- Node7&#45;&gt;Node12 -->
<g id="edge12" class="edge">
<title>Node7&#45;&gt;Node12</title>
<path fill="none" stroke="midnightblue" d="M125.23,-162.62C110.98,-152.76 92.54,-139.99 80.5,-131.65"/>
<polygon fill="midnightblue" stroke="midnightblue" points="123.25,-165.51 133.47,-168.32 127.24,-159.75 123.25,-165.51"/>
</g>
<!-- Node9 -->
<g id="node9" class="node">
<title>Node9</title>
<g id="a_node9"><a xlink:href="Mackey_8hpp.html" target="_top" xlink:title="Includes the entire library.">
<polygon fill="white" stroke="black" points="200,-0.5 200,-19.5 274,-19.5 274,-0.5 200,-0.5"/>
<text text-anchor="middle" x="237" y="-7.5" font-family="Helvetica,sans-Serif" font-size="10.00">Mackey.hpp</text>
</a>
</g>
</g>
<!-- Node8&#45;&gt;Node9 -->
<g id="edge8" class="edge">
<title>Node8&#45;&gt;Node9</title>
<path fill="none" stroke="midnightblue" d="M169.29,-51.18C186.04,-41.24 208.1,-28.15 222.42,-19.65"/>
<polygon fill="midnightblue" stroke="midnightblue" points="167.43,-48.21 160.62,-56.32 171.01,-54.23 167.43,-48.21"/>
</g>
<!-- Node10 -->
<g id="node10" class="node">
<title>Node10</title>
<g id="a_node10"><a xlink:href="Cerealizer_8hpp.html" target="_top" xlink:title="Contains the methods for serializing the results of our computations (before their interpretation) vi...">
<polygon fill="white" stroke="black" points="46,-0.5 46,-19.5 132,-19.5 132,-0.5 46,-0.5"/>
<text text-anchor="middle" x="89" y="-7.5" font-family="Helvetica,sans-Serif" font-size="10.00">Cerealizer.hpp</text>
</a>
</g>
</g>
<!-- Node8&#45;&gt;Node10 -->
<g id="edge9" class="edge">
<title>Node8&#45;&gt;Node10</title>
<path fill="none" stroke="midnightblue" d="M129.38,-49.25C119.27,-39.67 106.72,-27.79 98.32,-19.83"/>
<polygon fill="midnightblue" stroke="midnightblue" points="127.18,-51.99 136.84,-56.32 131.99,-46.91 127.18,-51.99"/>
</g>
<!-- Node11&#45;&gt;Node9 -->
<g id="edge11" class="edge">
<title>Node11&#45;&gt;Node9</title>
<path fill="none" stroke="midnightblue" d="M237,-102.35C237,-78.25 237,-37.31 237,-19.59"/>
<polygon fill="midnightblue" stroke="midnightblue" points="233.5,-102.37 237,-112.37 240.5,-102.37 233.5,-102.37"/>
</g>
<!-- Node12&#45;&gt;Node8 -->
<g id="edge13" class="edge">
<title>Node12&#45;&gt;Node8</title>
<path fill="none" stroke="midnightblue" d="M88.77,-106.62C103.02,-96.76 121.46,-83.99 133.5,-75.65"/>
<polygon fill="midnightblue" stroke="midnightblue" points="86.76,-103.75 80.53,-112.32 90.75,-109.51 86.76,-103.75"/>
</g>
<!-- Node13&#45;&gt;Node9 -->
<g id="edge15" class="edge">
<title>Node13&#45;&gt;Node9</title>
<path fill="none" stroke="midnightblue" d="M80.44,-53.7C117.81,-43.51 171.94,-28.74 205.77,-19.52"/>
<polygon fill="midnightblue" stroke="midnightblue" points="79.1,-50.44 70.37,-56.44 80.94,-57.19 79.1,-50.44"/>
</g>
<!-- Node13&#45;&gt;Node10 -->
<g id="edge16" class="edge">
<title>Node13&#45;&gt;Node10</title>
<path fill="none" stroke="midnightblue" d="M54.08,-48.72C62.89,-39.2 73.67,-27.56 80.9,-19.75"/>
<polygon fill="midnightblue" stroke="midnightblue" points="51.48,-46.37 47.26,-56.08 56.62,-51.12 51.48,-46.37"/>
</g>
<!-- Node15 -->
<g id="node15" class="node">
<title>Node15</title>
<g id="a_node15"><a xlink:href="BC4S2_8hpp.html" target="_top" xlink:title=" ">
<polygon fill="white" stroke="black" points="240.5,-168.5 240.5,-187.5 309.5,-187.5 309.5,-168.5 240.5,-168.5"/>
<text text-anchor="middle" x="275" y="-175.5" font-family="Helvetica,sans-Serif" font-size="10.00">BC4S2.hpp</text>
</a>
</g>
</g>
<!-- Node14&#45;&gt;Node15 -->
<g id="edge18" class="edge">
<title>Node14&#45;&gt;Node15</title>
<path fill="none" stroke="midnightblue" d="M264.51,-214.4C267.19,-205.36 270.28,-194.94 272.41,-187.75"/>
<polygon fill="midnightblue" stroke="midnightblue" points="261.13,-213.5 261.64,-224.08 267.84,-215.49 261.13,-213.5"/>
</g>
<!-- Node15&#45;&gt;Node9 -->
<g id="edge19" class="edge">
<title>Node15&#45;&gt;Node9</title>
<path fill="none" stroke="midnightblue" d="M290.71,-160.88C297.43,-152.88 304.51,-142.66 308,-132 310.77,-123.55 310.68,-120.48 308,-112 295.65,-72.97 262.21,-35.96 246.02,-19.68"/>
<polygon fill="midnightblue" stroke="midnightblue" points="288.1,-158.56 284.02,-168.34 293.3,-163.24 288.1,-158.56"/>
</g>
<!-- Node16&#45;&gt;Node5 -->
<g id="edge21" class="edge">
<title>Node16&#45;&gt;Node5</title>
<path fill="none" stroke="midnightblue" d="M99.27,-329.82C110.92,-320.15 125.6,-307.95 135.37,-299.83"/>
<polygon fill="midnightblue" stroke="midnightblue" points="96.9,-327.24 91.44,-336.32 101.37,-332.63 96.9,-327.24"/>
</g>
<!-- Node17&#45;&gt;Node9 -->
<g id="edge23" class="edge">
<title>Node17&#45;&gt;Node9</title>
<path fill="none" stroke="midnightblue" d="M366,-382.25C366,-360.36 366,-323.05 366,-291 366,-291 366,-291 366,-121 366,-67.14 300.08,-34.07 262.49,-19.59"/>
<polygon fill="midnightblue" stroke="midnightblue" points="362.5,-382.44 366,-392.44 369.5,-382.44 362.5,-382.44"/>
</g>
<!-- Node20 -->
<g id="node20" class="node">
<title>Node20</title>
<g id="a_node20"><a xlink:href="Identify_8hpp.html" target="_top" xlink:title="Contains the identification classes.">
<polygon fill="white" stroke="black" points="264.5,-448.5 264.5,-467.5 337.5,-467.5 337.5,-448.5 264.5,-448.5"/>
<text text-anchor="middle" x="301" y="-455.5" font-family="Helvetica,sans-Serif" font-size="10.00">Identify.hpp</text>
</a>
</g>
</g>
<!-- Node19&#45;&gt;Node20 -->
<g id="edge26" class="edge">
<title>Node19&#45;&gt;Node20</title>
<path fill="none" stroke="midnightblue" d="M267.73,-496.43C276.14,-486.97 286.35,-475.48 293.22,-467.75"/>
<polygon fill="midnightblue" stroke="midnightblue" points="264.95,-494.28 260.93,-504.08 270.19,-498.93 264.95,-494.28"/>
</g>
<!-- Node21 -->
<g id="node21" class="node">
<title>Node21</title>
<g id="a_node21"><a xlink:href="Levels_8hpp.html" target="_top" xlink:title="Contains the methods for transfering, restricting and act&#45;group&#45;acting.">
<polygon fill="white" stroke="black" points="177.5,-448.5 177.5,-467.5 246.5,-467.5 246.5,-448.5 177.5,-448.5"/>
<text text-anchor="middle" x="212" y="-455.5" font-family="Helvetica,sans-Serif" font-size="10.00">Levels.hpp</text>
</a>
</g>
</g>
<!-- Node19&#45;&gt;Node21 -->
<g id="edge28" class="edge">
<title>Node19&#45;&gt;Node21</title>
<path fill="none" stroke="midnightblue" d="M239.98,-495.86C232.88,-486.5 224.4,-475.33 218.64,-467.75"/>
<polygon fill="midnightblue" stroke="midnightblue" points="237.39,-498.24 246.23,-504.08 242.97,-494 237.39,-498.24"/>
</g>
<!-- Node20&#45;&gt;Node3 -->
<g id="edge27" class="edge">
<title>Node20&#45;&gt;Node3</title>
<path fill="none" stroke="midnightblue" d="M275.92,-443.59C257.24,-433.61 232.3,-420.27 216.19,-411.65"/>
<polygon fill="midnightblue" stroke="midnightblue" points="274.3,-446.7 284.77,-448.32 277.6,-440.52 274.3,-446.7"/>
</g>
<!-- Node21&#45;&gt;Node3 -->
<g id="edge29" class="edge">
<title>Node21&#45;&gt;Node3</title>
<path fill="none" stroke="midnightblue" d="M207.8,-438.1C205.81,-429.14 203.52,-418.86 201.94,-411.75"/>
<polygon fill="midnightblue" stroke="midnightblue" points="204.43,-439.08 210.02,-448.08 211.27,-437.56 204.43,-439.08"/>
</g>
</g>
</svg>
        <g id="navigator" transform="translate(0 0)" fill="#404254">
                <rect fill="#f2f5e9" fill-opacity="0.5" stroke="#606060" stroke-width=".5" x="0" y="0" width="60" height="60"/>
                <use id="zoomplus" xlink:href="#zoomPlus" x="17" y="9" onmousedown="handleZoom(evt,'in')"/>
                <use id="zoomminus" xlink:href="#zoomMin" x="42" y="9" onmousedown="handleZoom(evt,'out')"/>
                <use id="reset" xlink:href="#resetDef" x="30" y="36" onmousedown="handleReset()"/>
                <g id="arrowUp" xlink:href="#dirArrow" transform="translate(30 24)" onmousedown="handlePan(0,-1)">
                  <use xlink:href="#rim" fill="#404040">
                        <set attributeName="fill" to="#808080" begin="arrowUp.mouseover" end="arrowUp.mouseout"/>
                  </use>
                  <path fill="none" stroke="white" stroke-width="1.5" d="M0,-3.0v7 M-2.5,-0.5L0,-3.0L2.5,-0.5"/>
                </g>
                <g id="arrowRight" xlink:href="#dirArrow" transform="rotate(90) translate(36 -43)" onmousedown="handlePan(1,0)">
                  <use xlink:href="#rim" fill="#404040">
                        <set attributeName="fill" to="#808080" begin="arrowRight.mouseover" end="arrowRight.mouseout"/>
                  </use>
                  <path fill="none" stroke="white" stroke-width="1.5" d="M0,-3.0v7 M-2.5,-0.5L0,-3.0L2.5,-0.5"/>
                </g>
                <g id="arrowDown" xlink:href="#dirArrow" transform="rotate(180) translate(-30 -48)" onmousedown="handlePan(0,1)">
                  <use xlink:href="#rim" fill="#404040">
                        <set attributeName="fill" to="#808080" begin="arrowDown.mouseover" end="arrowDown.mouseout"/>
                  </use>
                  <path fill="none" stroke="white" stroke-width="1.5" d="M0,-3.0v7 M-2.5,-0.5L0,-3.0L2.5,-0.5"/>
                </g>
                <g id="arrowLeft" xlink:href="#dirArrow" transform="rotate(270) translate(-36 17)" onmousedown="handlePan(-1,0)">
                  <use xlink:href="#rim" fill="#404040">
                        <set attributeName="fill" to="#808080" begin="arrowLeft.mouseover" end="arrowLeft.mouseout"/>
                  </use>
                  <path fill="none" stroke="white" stroke-width="1.5" d="M0,-3.0v7 M-2.5,-0.5L0,-3.0L2.5,-0.5"/>
                </g>
        </g>
        <svg viewBox="0 0 15 15" width="100%" height="30px" preserveAspectRatio="xMaxYMin meet">
         <g id="arrow_out" transform="scale(0.3 0.3)">
          <a xlink:href="Chains_8hpp__dep__incl_org.svg" target="_base">
           <rect id="button" ry="5" rx="5" y="6" x="6" height="38" width="38"
                fill="#f2f5e9" fill-opacity="0.5" stroke="#606060" stroke-width="1.0"/>
           <path id="arrow"
             d="M 11.500037,31.436501 C 11.940474,20.09759 22.043105,11.32322 32.158766,21.979434 L 37.068811,17.246167 C 37.068811,17.246167 37.088388,32 37.088388,32 L 22.160133,31.978069 C 22.160133,31.978069 26.997745,27.140456 26.997745,27.140456 C 18.528582,18.264221 13.291696,25.230495 11.500037,31.436501 z"
             style="fill:#404040;"/>
          </a>
         </g>
        </svg>
</svg>
