<?xml version="1.0" encoding="UTF-8" standalone="no"?>
<!DOCTYPE svg PUBLIC "-//W3C//DTD SVG 1.1//EN"
 "http://www.w3.org/Graphics/SVG/1.1/DTD/svg11.dtd">
<!-- Generated by graphviz version 2.43.0 (0)
 -->
<!-- Title: Chains.hpp Pages: 1 -->
<!--zoomable 532 -->
<svg id="main" version="1.1" xmlns="http://www.w3.org/2000/svg" xmlns:xlink="http://www.w3.org/1999/xlink" xml:space="preserve" onload="init(evt)">
<style type="text/css"><![CDATA[
.edge:hover path { stroke: red; }
.edge:hover polygon { stroke: red; fill: red; }
]]></style>
<script type="text/javascript"><![CDATA[
var edges = document.getElementsByTagName('g');
if (edges && edges.length) {
  for (var i=0;i<edges.length;i++) {
    if (edges[i].id.substr(0,4)=='edge') {
      edges[i].setAttribute('class','edge');
    }
  }
}
]]></script>
        <defs>
                <circle id="rim" cx="0" cy="0" r="7"/>
                <circle id="rim2" cx="0" cy="0" r="3.5"/>
                <g id="zoomPlus">
                        <use xlink:href="#rim" fill="#404040">
                                <set attributeName="fill" to="#808080" begin="zoomplus.mouseover" end="zoomplus.mouseout"/>
                        </use>
                        <path d="M-4,0h8M0,-4v8" fill="none" stroke="white" stroke-width="1.5" pointer-events="none"/>
                </g>
                <g id="zoomMin">
                        <use xlink:href="#rim" fill="#404040">
                                <set attributeName="fill" to="#808080" begin="zoomminus.mouseover" end="zoomminus.mouseout"/>
                        </use>
                        <path d="M-4,0h8" fill="none" stroke="white" stroke-width="1.5" pointer-events="none"/>
                </g>
                <g id="dirArrow">
                        <path fill="none" stroke="white" stroke-width="1.5" d="M0,-3.0v7 M-2.5,-0.5L0,-3.0L2.5,-0.5"/>
                </g>
               <g id="resetDef">
                       <use xlink:href="#rim2" fill="#404040">
                               <set attributeName="fill" to="#808080" begin="reset.mouseover" end="reset.mouseout"/>
                       </use>
               </g>
        </defs>

<script type="text/javascript">
var viewWidth = 442;
var viewHeight = 532;
var sectionId = 'dynsection-1';
</script>
<script xlink:href="svgpan.js"/>
<svg id="graph" class="graph">
<g id="viewport">
<title>Chains.hpp</title>
<polygon fill="white" stroke="transparent" points="-4,4 -4,-528 438,-528 438,4 -4,4"/>
<!-- Node1 -->
<g id="node1" class="node">
<title>Node1</title>
<g id="a_node1"><a xlink:title="Contains Chains and Junction classes for using chain complexes.">
<polygon fill="#bfbfbf" stroke="black" points="227.5,-504.5 227.5,-523.5 298.5,-523.5 298.5,-504.5 227.5,-504.5"/>
<text text-anchor="middle" x="263" y="-511.5" font-family="Helvetica,sans-Serif" font-size="10.00">Chains.hpp</text>
</a>
</g>
</g>
<!-- Node2 -->
<g id="node2" class="node">
<title>Node2</title>
<g id="a_node2"><a xlink:href="Box_8hpp.html" target="_top" xlink:title="Contains the construction of box products of Chains.">
<polygon fill="white" stroke="black" points="235,-392.5 235,-411.5 291,-411.5 291,-392.5 235,-392.5"/>
<text text-anchor="middle" x="263" y="-399.5" font-family="Helvetica,sans-Serif" font-size="10.00">Box.hpp</text>
</a>
</g>
</g>
<!-- Node1&#45;&gt;Node2 -->
<g id="edge1" class="edge">
<title>Node1&#45;&gt;Node2</title>
<path fill="none" stroke="midnightblue" d="M263,-494.35C263,-470.25 263,-429.31 263,-411.59"/>
<polygon fill="midnightblue" stroke="midnightblue" points="259.5,-494.37 263,-504.37 266.5,-494.37 259.5,-494.37"/>
</g>
<!-- Node15 -->
<g id="node15" class="node">
<title>Node15</title>
<g id="a_node15"><a xlink:href="Morse_8hpp.html" target="_top" xlink:title="Contains classes for (equivariant) Algebraic Morse Theory.">
<polygon fill="white" stroke="black" points="267,-280.5 267,-299.5 335,-299.5 335,-280.5 267,-280.5"/>
<text text-anchor="middle" x="301" y="-287.5" font-family="Helvetica,sans-Serif" font-size="10.00">Morse.hpp</text>
</a>
</g>
</g>
<!-- Node1&#45;&gt;Node15 -->
<g id="edge18" class="edge">
<title>Node1&#45;&gt;Node15</title>
<path fill="none" stroke="midnightblue" d="M271.71,-495.08C280.81,-475.29 294.51,-442.21 300,-412 307.55,-370.45 303.86,-319.56 301.93,-299.6"/>
<polygon fill="midnightblue" stroke="midnightblue" points="268.42,-493.83 267.32,-504.37 274.75,-496.82 268.42,-493.83"/>
</g>
<!-- Node16 -->
<g id="node16" class="node">
<title>Node16</title>
<g id="a_node16"><a xlink:href="C2n_8hpp.html" target="_top" xlink:title="Defines the groups .">
<polygon fill="white" stroke="black" points="0,-336.5 0,-355.5 56,-355.5 56,-336.5 0,-336.5"/>
<text text-anchor="middle" x="28" y="-343.5" font-family="Helvetica,sans-Serif" font-size="10.00">C2n.hpp</text>
</a>
</g>
</g>
<!-- Node1&#45;&gt;Node16 -->
<g id="edge20" class="edge">
<title>Node1&#45;&gt;Node16</title>
<path fill="none" stroke="midnightblue" d="M217.5,-505.19C167.05,-493.96 87.46,-468.06 47,-412 34.48,-394.65 30.16,-369.12 28.71,-355.8"/>
<polygon fill="midnightblue" stroke="midnightblue" points="216.98,-508.66 227.49,-507.31 218.43,-501.81 216.98,-508.66"/>
</g>
<!-- Node17 -->
<g id="node17" class="node">
<title>Node17</title>
<g id="a_node17"><a xlink:href="C4_8hpp.html" target="_top" xlink:title="Defines group .">
<polygon fill="white" stroke="black" points="347,-448.5 347,-467.5 397,-467.5 397,-448.5 347,-448.5"/>
<text text-anchor="middle" x="372" y="-455.5" font-family="Helvetica,sans-Serif" font-size="10.00">C4.hpp</text>
</a>
</g>
</g>
<!-- Node1&#45;&gt;Node17 -->
<g id="edge22" class="edge">
<title>Node1&#45;&gt;Node17</title>
<path fill="none" stroke="midnightblue" d="M289.52,-499.86C309.73,-489.85 336.99,-476.35 354.53,-467.65"/>
<polygon fill="midnightblue" stroke="midnightblue" points="287.92,-496.75 280.51,-504.32 291.03,-503.02 287.92,-496.75"/>
</g>
<!-- Node18 -->
<g id="node18" class="node">
<title>Node18</title>
<g id="a_node18"><a xlink:href="Homology_8hpp.html" target="_top" xlink:title="Contains the Homology class and algorithms.">
<polygon fill="white" stroke="black" points="137,-448.5 137,-467.5 223,-467.5 223,-448.5 137,-448.5"/>
<text text-anchor="middle" x="180" y="-455.5" font-family="Helvetica,sans-Serif" font-size="10.00">Homology.hpp</text>
</a>
</g>
</g>
<!-- Node1&#45;&gt;Node18 -->
<g id="edge23" class="edge">
<title>Node1&#45;&gt;Node18</title>
<path fill="none" stroke="midnightblue" d="M240.9,-498.62C225.74,-488.76 206.12,-475.99 193.3,-467.65"/>
<polygon fill="midnightblue" stroke="midnightblue" points="239.37,-501.8 249.66,-504.32 243.19,-495.94 239.37,-501.8"/>
</g>
<!-- Node3 -->
<g id="node3" class="node">
<title>Node3</title>
<g id="a_node3"><a xlink:href="Green_8hpp.html" target="_top" xlink:title="Contains the class and methods for multiplying generators.">
<polygon fill="white" stroke="black" points="157.5,-336.5 157.5,-355.5 224.5,-355.5 224.5,-336.5 157.5,-336.5"/>
<text text-anchor="middle" x="191" y="-343.5" font-family="Helvetica,sans-Serif" font-size="10.00">Green.hpp</text>
</a>
</g>
</g>
<!-- Node2&#45;&gt;Node3 -->
<g id="edge2" class="edge">
<title>Node2&#45;&gt;Node3</title>
<path fill="none" stroke="midnightblue" d="M243.13,-386.1C230.18,-376.38 213.7,-364.03 202.78,-355.83"/>
<polygon fill="midnightblue" stroke="midnightblue" points="241.33,-389.12 251.43,-392.32 245.53,-383.52 241.33,-389.12"/>
</g>
<!-- Node4 -->
<g id="node4" class="node">
<title>Node4</title>
<g id="a_node4"><a xlink:href="Massey_8hpp.html" target="_top" xlink:title="Contains the class and methods for Massey Products.">
<polygon fill="white" stroke="black" points="165,-280.5 165,-299.5 239,-299.5 239,-280.5 165,-280.5"/>
<text text-anchor="middle" x="202" y="-287.5" font-family="Helvetica,sans-Serif" font-size="10.00">Massey.hpp</text>
</a>
</g>
</g>
<!-- Node3&#45;&gt;Node4 -->
<g id="edge3" class="edge">
<title>Node3&#45;&gt;Node4</title>
<path fill="none" stroke="midnightblue" d="M194.85,-326.1C196.68,-317.14 198.77,-306.86 200.22,-299.75"/>
<polygon fill="midnightblue" stroke="midnightblue" points="191.38,-325.59 192.82,-336.08 198.24,-326.98 191.38,-325.59"/>
</g>
<!-- Node5 -->
<g id="node5" class="node">
<title>Node5</title>
<g id="a_node5"><a xlink:href="Point_8hpp.html" target="_top" xlink:title="Contains the computations for RO(G) homology of a point.">
<polygon fill="white" stroke="black" points="198,-224.5 198,-243.5 260,-243.5 260,-224.5 198,-224.5"/>
<text text-anchor="middle" x="229" y="-231.5" font-family="Helvetica,sans-Serif" font-size="10.00">Point.hpp</text>
</a>
</g>
</g>
<!-- Node4&#45;&gt;Node5 -->
<g id="edge4" class="edge">
<title>Node4&#45;&gt;Node5</title>
<path fill="none" stroke="midnightblue" d="M211.01,-270.98C215.59,-261.82 220.95,-251.09 224.62,-243.75"/>
<polygon fill="midnightblue" stroke="midnightblue" points="207.8,-269.57 206.46,-280.08 214.06,-272.7 207.8,-269.57"/>
</g>
<!-- Node6 -->
<g id="node6" class="node">
<title>Node6</title>
<g id="a_node6"><a xlink:href="Mult__Table_8hpp.html" target="_top" xlink:title="Contains the class and methods to form the multiplication table.">
<polygon fill="white" stroke="black" points="184,-168.5 184,-187.5 274,-187.5 274,-168.5 184,-168.5"/>
<text text-anchor="middle" x="229" y="-175.5" font-family="Helvetica,sans-Serif" font-size="10.00">Mult_Table.hpp</text>
</a>
</g>
</g>
<!-- Node5&#45;&gt;Node6 -->
<g id="edge5" class="edge">
<title>Node5&#45;&gt;Node6</title>
<path fill="none" stroke="midnightblue" d="M229,-213.8C229,-204.91 229,-194.78 229,-187.75"/>
<polygon fill="midnightblue" stroke="midnightblue" points="225.5,-214.08 229,-224.08 232.5,-214.08 225.5,-214.08"/>
</g>
<!-- Node12 -->
<g id="node12" class="node">
<title>Node12</title>
<g id="a_node12"><a xlink:href="Additive_8hpp.html" target="_top" xlink:title="Contains the class for presenting the additive structure of the RO(G) homology.">
<polygon fill="white" stroke="black" points="356,-56.5 356,-75.5 434,-75.5 434,-56.5 356,-56.5"/>
<text text-anchor="middle" x="395" y="-63.5" font-family="Helvetica,sans-Serif" font-size="10.00">Additive.hpp</text>
</a>
</g>
</g>
<!-- Node5&#45;&gt;Node12 -->
<g id="edge12" class="edge">
<title>Node5&#45;&gt;Node12</title>
<path fill="none" stroke="midnightblue" d="M247.94,-218.21C258.54,-209.7 271.83,-198.61 283,-188 324.94,-148.19 370.43,-95.87 387.75,-75.57"/>
<polygon fill="midnightblue" stroke="midnightblue" points="245.77,-215.47 240.11,-224.43 250.12,-220.95 245.77,-215.47"/>
</g>
<!-- Node13 -->
<g id="node13" class="node">
<title>Node13</title>
<g id="a_node13"><a xlink:href="Space_8hpp.html" target="_top" xlink:title="File containing the class for spaces other than points!">
<polygon fill="white" stroke="black" points="87.5,-168.5 87.5,-187.5 154.5,-187.5 154.5,-168.5 87.5,-168.5"/>
<text text-anchor="middle" x="121" y="-175.5" font-family="Helvetica,sans-Serif" font-size="10.00">Space.hpp</text>
</a>
</g>
</g>
<!-- Node5&#45;&gt;Node13 -->
<g id="edge15" class="edge">
<title>Node5&#45;&gt;Node13</title>
<path fill="none" stroke="midnightblue" d="M202.45,-219.73C182.45,-209.73 155.61,-196.31 138.31,-187.65"/>
<polygon fill="midnightblue" stroke="midnightblue" points="201.14,-222.98 211.65,-224.32 204.27,-216.72 201.14,-222.98"/>
</g>
<!-- Node7 -->
<g id="node7" class="node">
<title>Node7</title>
<g id="a_node7"><a xlink:href="Mult__Graph_8hpp.html" target="_top" xlink:title="Contains the multiplication graph.">
<polygon fill="white" stroke="black" points="182,-112.5 182,-131.5 276,-131.5 276,-112.5 182,-112.5"/>
<text text-anchor="middle" x="229" y="-119.5" font-family="Helvetica,sans-Serif" font-size="10.00">Mult_Graph.hpp</text>
</a>
</g>
</g>
<!-- Node6&#45;&gt;Node7 -->
<g id="edge6" class="edge">
<title>Node6&#45;&gt;Node7</title>
<path fill="none" stroke="midnightblue" d="M229,-157.8C229,-148.91 229,-138.78 229,-131.75"/>
<polygon fill="midnightblue" stroke="midnightblue" points="225.5,-158.08 229,-168.08 232.5,-158.08 225.5,-158.08"/>
</g>
<!-- Node8 -->
<g id="node8" class="node">
<title>Node8</title>
<g id="a_node8"><a xlink:href="Factorization_8hpp.html" target="_top" xlink:title="Contains the multiplication graph and the methods for factorizing generators.">
<polygon fill="white" stroke="black" points="238,-56.5 238,-75.5 338,-75.5 338,-56.5 238,-56.5"/>
<text text-anchor="middle" x="288" y="-63.5" font-family="Helvetica,sans-Serif" font-size="10.00">Factorization.hpp</text>
</a>
</g>
</g>
<!-- Node7&#45;&gt;Node8 -->
<g id="edge7" class="edge">
<title>Node7&#45;&gt;Node8</title>
<path fill="none" stroke="midnightblue" d="M245.89,-105.54C256.41,-95.91 269.57,-83.87 278.35,-75.83"/>
<polygon fill="midnightblue" stroke="midnightblue" points="243.49,-102.99 238.48,-112.32 248.22,-108.15 243.49,-102.99"/>
</g>
<!-- Node11 -->
<g id="node11" class="node">
<title>Node11</title>
<g id="a_node11"><a xlink:href="Mult__Connectivity_8hpp.html" target="_top" xlink:title="Contains methods for the finding the connectivity of the multiplication graph should identification f...">
<polygon fill="white" stroke="black" points="94.5,-56.5 94.5,-75.5 219.5,-75.5 219.5,-56.5 94.5,-56.5"/>
<text text-anchor="middle" x="157" y="-63.5" font-family="Helvetica,sans-Serif" font-size="10.00">Mult_Connectivity.hpp</text>
</a>
</g>
</g>
<!-- Node7&#45;&gt;Node11 -->
<g id="edge10" class="edge">
<title>Node7&#45;&gt;Node11</title>
<path fill="none" stroke="midnightblue" d="M209.13,-106.1C196.18,-96.38 179.7,-84.03 168.78,-75.83"/>
<polygon fill="midnightblue" stroke="midnightblue" points="207.33,-109.12 217.43,-112.32 211.53,-103.52 207.33,-109.12"/>
</g>
<!-- Node9 -->
<g id="node9" class="node">
<title>Node9</title>
<g id="a_node9"><a xlink:href="Mackey_8hpp.html" target="_top" xlink:title="Includes the entire library.">
<polygon fill="white" stroke="black" points="120,-0.5 120,-19.5 194,-19.5 194,-0.5 120,-0.5"/>
<text text-anchor="middle" x="157" y="-7.5" font-family="Helvetica,sans-Serif" font-size="10.00">Mackey.hpp</text>
</a>
</g>
</g>
<!-- Node8&#45;&gt;Node9 -->
<g id="edge8" class="edge">
<title>Node8&#45;&gt;Node9</title>
<path fill="none" stroke="midnightblue" d="M257.68,-52.5C233.12,-42.38 199.18,-28.39 177.66,-19.52"/>
<polygon fill="midnightblue" stroke="midnightblue" points="256.66,-55.87 267.24,-56.44 259.33,-49.4 256.66,-55.87"/>
</g>
<!-- Node10 -->
<g id="node10" class="node">
<title>Node10</title>
<g id="a_node10"><a xlink:href="Cerealizer_8hpp.html" target="_top" xlink:title="Contains the methods for serializing the results of our computations (before their interpretation) vi...">
<polygon fill="white" stroke="black" points="298,-0.5 298,-19.5 384,-19.5 384,-0.5 298,-0.5"/>
<text text-anchor="middle" x="341" y="-7.5" font-family="Helvetica,sans-Serif" font-size="10.00">Cerealizer.hpp</text>
</a>
</g>
</g>
<!-- Node8&#45;&gt;Node10 -->
<g id="edge9" class="edge">
<title>Node8&#45;&gt;Node10</title>
<path fill="none" stroke="midnightblue" d="M303.98,-48.72C313.32,-39.2 324.75,-27.56 332.41,-19.75"/>
<polygon fill="midnightblue" stroke="midnightblue" points="301.26,-46.49 296.75,-56.08 306.25,-51.4 301.26,-46.49"/>
</g>
<!-- Node11&#45;&gt;Node9 -->
<g id="edge11" class="edge">
<title>Node11&#45;&gt;Node9</title>
<path fill="none" stroke="midnightblue" d="M157,-45.8C157,-36.91 157,-26.78 157,-19.75"/>
<polygon fill="midnightblue" stroke="midnightblue" points="153.5,-46.08 157,-56.08 160.5,-46.08 153.5,-46.08"/>
</g>
<!-- Node12&#45;&gt;Node9 -->
<g id="edge13" class="edge">
<title>Node12&#45;&gt;Node9</title>
<path fill="none" stroke="midnightblue" d="M347.45,-54.21C302.33,-43.97 235.46,-28.8 194.14,-19.43"/>
<polygon fill="midnightblue" stroke="midnightblue" points="346.76,-57.64 357.29,-56.44 348.31,-50.82 346.76,-57.64"/>
</g>
<!-- Node12&#45;&gt;Node10 -->
<g id="edge14" class="edge">
<title>Node12&#45;&gt;Node10</title>
<path fill="none" stroke="midnightblue" d="M379,-49C369.43,-39.43 357.64,-27.64 349.75,-19.75"/>
<polygon fill="midnightblue" stroke="midnightblue" points="376.54,-51.49 386.08,-56.08 381.49,-46.54 376.54,-51.49"/>
</g>
<!-- Node14 -->
<g id="node14" class="node">
<title>Node14</title>
<g id="a_node14"><a xlink:href="BC4S2_8hpp.html" target="_top" xlink:title=" ">
<polygon fill="white" stroke="black" points="75.5,-112.5 75.5,-131.5 144.5,-131.5 144.5,-112.5 75.5,-112.5"/>
<text text-anchor="middle" x="110" y="-119.5" font-family="Helvetica,sans-Serif" font-size="10.00">BC4S2.hpp</text>
</a>
</g>
</g>
<!-- Node13&#45;&gt;Node14 -->
<g id="edge16" class="edge">
<title>Node13&#45;&gt;Node14</title>
<path fill="none" stroke="midnightblue" d="M117.15,-158.1C115.32,-149.14 113.23,-138.86 111.78,-131.75"/>
<polygon fill="midnightblue" stroke="midnightblue" points="113.76,-158.98 119.18,-168.08 120.62,-157.59 113.76,-158.98"/>
</g>
<!-- Node14&#45;&gt;Node9 -->
<g id="edge17" class="edge">
<title>Node14&#45;&gt;Node9</title>
<path fill="none" stroke="midnightblue" d="M95.87,-103.9C86.56,-90.43 77.52,-71.41 86,-56 95.71,-38.35 115.58,-26.66 131.84,-19.62"/>
<polygon fill="midnightblue" stroke="midnightblue" points="93.34,-106.35 102.15,-112.23 98.93,-102.14 93.34,-106.35"/>
</g>
<!-- Node15&#45;&gt;Node5 -->
<g id="edge19" class="edge">
<title>Node15&#45;&gt;Node5</title>
<path fill="none" stroke="midnightblue" d="M281.13,-274.1C268.18,-264.38 251.7,-252.03 240.78,-243.83"/>
<polygon fill="midnightblue" stroke="midnightblue" points="279.33,-277.12 289.43,-280.32 283.53,-271.52 279.33,-277.12"/>
</g>
<!-- Node16&#45;&gt;Node9 -->
<g id="edge21" class="edge">
<title>Node16&#45;&gt;Node9</title>
<path fill="none" stroke="midnightblue" d="M28,-326.25C28,-304.36 28,-267.05 28,-235 28,-235 28,-235 28,-121 28,-67.14 93.92,-34.07 131.51,-19.59"/>
<polygon fill="midnightblue" stroke="midnightblue" points="24.5,-326.44 28,-336.44 31.5,-326.44 24.5,-326.44"/>
</g>
<!-- Node19 -->
<g id="node19" class="node">
<title>Node19</title>
<g id="a_node19"><a xlink:href="Identify_8hpp.html" target="_top" xlink:title="Contains the identification classes.">
<polygon fill="white" stroke="black" points="143.5,-392.5 143.5,-411.5 216.5,-411.5 216.5,-392.5 143.5,-392.5"/>
<text text-anchor="middle" x="180" y="-399.5" font-family="Helvetica,sans-Serif" font-size="10.00">Identify.hpp</text>
</a>
</g>
</g>
<!-- Node18&#45;&gt;Node19 -->
<g id="edge24" class="edge">
<title>Node18&#45;&gt;Node19</title>
<path fill="none" stroke="midnightblue" d="M180,-437.8C180,-428.91 180,-418.78 180,-411.75"/>
<polygon fill="midnightblue" stroke="midnightblue" points="176.5,-438.08 180,-448.08 183.5,-438.08 176.5,-438.08"/>
</g>
<!-- Node20 -->
<g id="node20" class="node">
<title>Node20</title>
<g id="a_node20"><a xlink:href="Levels_8hpp.html" target="_top" xlink:title="Contains the methods for transfering, restricting and Weyl&#45;group&#45;acting.">
<polygon fill="white" stroke="black" points="56.5,-392.5 56.5,-411.5 125.5,-411.5 125.5,-392.5 56.5,-392.5"/>
<text text-anchor="middle" x="91" y="-399.5" font-family="Helvetica,sans-Serif" font-size="10.00">Levels.hpp</text>
</a>
</g>
</g>
<!-- Node18&#45;&gt;Node20 -->
<g id="edge26" class="edge">
<title>Node18&#45;&gt;Node20</title>
<path fill="none" stroke="midnightblue" d="M156.76,-442.9C140.44,-433 119.13,-420.07 105.26,-411.65"/>
<polygon fill="midnightblue" stroke="midnightblue" points="155.34,-446.13 165.7,-448.32 158.97,-440.14 155.34,-446.13"/>
</g>
<!-- Node19&#45;&gt;Node3 -->
<g id="edge25" class="edge">
<title>Node19&#45;&gt;Node3</title>
<path fill="none" stroke="midnightblue" d="M183.85,-382.1C185.68,-373.14 187.77,-362.86 189.22,-355.75"/>
<polygon fill="midnightblue" stroke="midnightblue" points="180.38,-381.59 181.82,-392.08 187.24,-382.98 180.38,-381.59"/>
</g>
<!-- Node20&#45;&gt;Node3 -->
<g id="edge27" class="edge">
<title>Node20&#45;&gt;Node3</title>
<path fill="none" stroke="midnightblue" d="M116.09,-387.45C134.55,-377.48 159.1,-364.23 174.97,-355.65"/>
<polygon fill="midnightblue" stroke="midnightblue" points="114.2,-384.49 107.07,-392.32 117.53,-390.65 114.2,-384.49"/>
</g>
</g>
</svg>
        <g id="navigator" transform="translate(0 0)" fill="#404254">
                <rect fill="#f2f5e9" fill-opacity="0.5" stroke="#606060" stroke-width=".5" x="0" y="0" width="60" height="60"/>
                <use id="zoomplus" xlink:href="#zoomPlus" x="17" y="9" onmousedown="handleZoom(evt,'in')"/>
                <use id="zoomminus" xlink:href="#zoomMin" x="42" y="9" onmousedown="handleZoom(evt,'out')"/>
                <use id="reset" xlink:href="#resetDef" x="30" y="36" onmousedown="handleReset()"/>
                <g id="arrowUp" xlink:href="#dirArrow" transform="translate(30 24)" onmousedown="handlePan(0,-1)">
                  <use xlink:href="#rim" fill="#404040">
                        <set attributeName="fill" to="#808080" begin="arrowUp.mouseover" end="arrowUp.mouseout"/>
                  </use>
                  <path fill="none" stroke="white" stroke-width="1.5" d="M0,-3.0v7 M-2.5,-0.5L0,-3.0L2.5,-0.5"/>
                </g>
                <g id="arrowRight" xlink:href="#dirArrow" transform="rotate(90) translate(36 -43)" onmousedown="handlePan(1,0)">
                  <use xlink:href="#rim" fill="#404040">
                        <set attributeName="fill" to="#808080" begin="arrowRight.mouseover" end="arrowRight.mouseout"/>
                  </use>
                  <path fill="none" stroke="white" stroke-width="1.5" d="M0,-3.0v7 M-2.5,-0.5L0,-3.0L2.5,-0.5"/>
                </g>
                <g id="arrowDown" xlink:href="#dirArrow" transform="rotate(180) translate(-30 -48)" onmousedown="handlePan(0,1)">
                  <use xlink:href="#rim" fill="#404040">
                        <set attributeName="fill" to="#808080" begin="arrowDown.mouseover" end="arrowDown.mouseout"/>
                  </use>
                  <path fill="none" stroke="white" stroke-width="1.5" d="M0,-3.0v7 M-2.5,-0.5L0,-3.0L2.5,-0.5"/>
                </g>
                <g id="arrowLeft" xlink:href="#dirArrow" transform="rotate(270) translate(-36 17)" onmousedown="handlePan(-1,0)">
                  <use xlink:href="#rim" fill="#404040">
                        <set attributeName="fill" to="#808080" begin="arrowLeft.mouseover" end="arrowLeft.mouseout"/>
                  </use>
                  <path fill="none" stroke="white" stroke-width="1.5" d="M0,-3.0v7 M-2.5,-0.5L0,-3.0L2.5,-0.5"/>
                </g>
        </g>
        <svg viewBox="0 0 15 15" width="100%" height="30px" preserveAspectRatio="xMaxYMin meet">
         <g id="arrow_out" transform="scale(0.3 0.3)">
          <a xlink:href="Chains_8hpp__dep__incl_org.svg" target="_base">
           <rect id="button" ry="5" rx="5" y="6" x="6" height="38" width="38"
                fill="#f2f5e9" fill-opacity="0.5" stroke="#606060" stroke-width="1.0"/>
           <path id="arrow"
             d="M 11.500037,31.436501 C 11.940474,20.09759 22.043105,11.32322 32.158766,21.979434 L 37.068811,17.246167 C 37.068811,17.246167 37.088388,32 37.088388,32 L 22.160133,31.978069 C 22.160133,31.978069 26.997745,27.140456 26.997745,27.140456 C 18.528582,18.264221 13.291696,25.230495 11.500037,31.436501 z"
             style="fill:#404040;"/>
          </a>
         </g>
        </svg>
</svg>
