<?xml version="1.0" encoding="UTF-8" standalone="no"?>
<!DOCTYPE svg PUBLIC "-//W3C//DTD SVG 1.1//EN"
 "http://www.w3.org/Graphics/SVG/1.1/DTD/svg11.dtd">
<!-- Generated by graphviz version 2.43.0 (0)
 -->
<!-- Title: Mult_Graph_Identify&lt; group_t &gt; Pages: 1 -->
<svg width="813pt" height="88pt"
 viewBox="0.00 0.00 813.00 88.00" xmlns="http://www.w3.org/2000/svg" xmlns:xlink="http://www.w3.org/1999/xlink">
<g id="graph0" class="graph" transform="scale(1 1) rotate(0) translate(4 84)">
<title>Mult_Graph_Identify&lt; group_t &gt;</title>
<polygon fill="white" stroke="transparent" points="-4,4 -4,-84 809,-84 809,4 -4,4"/>
<!-- Node1 -->
<g id="node1" class="node">
<title>Node1</title>
<g id="a_node1"><a xlink:title="Provides extra identification methods using triple box products.">
<polygon fill="#bfbfbf" stroke="black" points="690,-31 690,-61 805,-61 805,-31 690,-31"/>
<text text-anchor="start" x="698" y="-49" font-family="Helvetica,sans-Serif" font-size="10.00">Mult_Graph_Identify</text>
<text text-anchor="middle" x="747.5" y="-38" font-family="Helvetica,sans-Serif" font-size="10.00">&lt; group_t &gt;</text>
</a>
</g>
</g>
<!-- Node2 -->
<g id="node2" class="node">
<title>Node2</title>
<g id="a_node2"><a xlink:href="classMackey_1_1MultGraph.html" target="_top" xlink:title="The Multiplication Graph created from the Multiplication Table.">
<polygon fill="white" stroke="black" points="526,-36.5 526,-55.5 653,-55.5 653,-36.5 526,-36.5"/>
<text text-anchor="middle" x="589.5" y="-43.5" font-family="Helvetica,sans-Serif" font-size="10.00">MultGraph&lt; group_t &gt;</text>
</a>
</g>
</g>
<!-- Node2&#45;&gt;Node1 -->
<g id="edge1" class="edge">
<title>Node2&#45;&gt;Node1</title>
<path fill="none" stroke="midnightblue" d="M663.16,-46C672.17,-46 681.27,-46 689.99,-46"/>
<polygon fill="midnightblue" stroke="midnightblue" points="663.05,-42.5 653.05,-46 663.05,-49.5 663.05,-42.5"/>
</g>
<!-- Node3 -->
<g id="node3" class="node">
<title>Node3</title>
<g id="a_node3"><a xlink:href="classMackey_1_1Mult__Table.html" target="_top" xlink:title="The Multiplication Table.">
<polygon fill="white" stroke="black" points="311.5,-60.5 311.5,-79.5 439.5,-79.5 439.5,-60.5 311.5,-60.5"/>
<text text-anchor="middle" x="375.5" y="-67.5" font-family="Helvetica,sans-Serif" font-size="10.00">Mult_Table&lt; group_t &gt;</text>
</a>
</g>
</g>
<!-- Node3&#45;&gt;Node2 -->
<g id="edge2" class="edge">
<title>Node3&#45;&gt;Node2</title>
<path fill="none" stroke="midnightblue" d="M449.6,-61.72C474.38,-58.92 501.81,-55.81 525.71,-53.11"/>
<polygon fill="midnightblue" stroke="midnightblue" points="449.08,-58.26 439.53,-62.86 449.86,-65.22 449.08,-58.26"/>
</g>
<!-- Node4 -->
<g id="node4" class="node">
<title>Node4</title>
<g id="a_node4"><a xlink:href="classMackey_1_1Graph.html" target="_top" xlink:title=" ">
<polygon fill="white" stroke="black" points="292,-0.5 292,-41.5 459,-41.5 459,-0.5 292,-0.5"/>
<text text-anchor="start" x="300" y="-29.5" font-family="Helvetica,sans-Serif" font-size="10.00">Graph&lt; Neighborhood</text>
<text text-anchor="start" x="300" y="-18.5" font-family="Helvetica,sans-Serif" font-size="10.00">&lt; size_t, bicolored</text>
<text text-anchor="middle" x="375.5" y="-7.5" font-family="Helvetica,sans-Serif" font-size="10.00">_edge_with_id, std::vector &gt; &gt;</text>
</a>
</g>
</g>
<!-- Node4&#45;&gt;Node2 -->
<g id="edge3" class="edge">
<title>Node4&#45;&gt;Node2</title>
<path fill="none" stroke="#9a32cd" stroke-dasharray="5,2" d="M469.04,-31.91C488.24,-34.18 508.03,-36.51 525.85,-38.61"/>
<polygon fill="#9a32cd" stroke="#9a32cd" points="469.41,-28.43 459.07,-30.74 468.59,-35.38 469.41,-28.43"/>
<text text-anchor="middle" x="492.5" y="-39" font-family="Helvetica,sans-Serif" font-size="10.00"> graph</text>
</g>
<!-- Node5 -->
<g id="node5" class="node">
<title>Node5</title>
<g id="a_node5"><a xlink:href="classMackey_1_1Graph.html" target="_top" xlink:title=" ">
<polygon fill="white" stroke="black" points="0,-11.5 0,-30.5 140,-30.5 140,-11.5 0,-11.5"/>
<text text-anchor="middle" x="70" y="-18.5" font-family="Helvetica,sans-Serif" font-size="10.00">Graph&lt; _neighborhood &gt;</text>
</a>
</g>
</g>
<!-- Node5&#45;&gt;Node4 -->
<g id="edge4" class="edge">
<title>Node5&#45;&gt;Node4</title>
<path fill="none" stroke="orange" stroke-dasharray="5,2" d="M150.5,-21C193.99,-21 247.81,-21 291.8,-21"/>
<polygon fill="orange" stroke="orange" points="150.25,-17.5 140.25,-21 150.25,-24.5 150.25,-17.5"/>
<text text-anchor="start" x="158" y="-46" font-family="Helvetica,sans-Serif" font-size="10.00"> &lt; Neighborhood&lt; size</text>
<text text-anchor="start" x="158" y="-35" font-family="Helvetica,sans-Serif" font-size="10.00">_t, bicolored_edge_with</text>
<text text-anchor="middle" x="216" y="-24" font-family="Helvetica,sans-Serif" font-size="10.00">_id, std::vector &gt; &gt;</text>
</g>
</g>
</svg>
