<?xml version="1.0" encoding="UTF-8" standalone="no"?>
<!DOCTYPE svg PUBLIC "-//W3C//DTD SVG 1.1//EN"
 "http://www.w3.org/Graphics/SVG/1.1/DTD/svg11.dtd">
<!-- Generated by graphviz version 2.43.0 (0)
 -->
<!-- Title: Dijkstra&lt; graph_t, policy_t &gt; Pages: 1 -->
<svg width="1111pt" height="119pt"
 viewBox="0.00 0.00 1111.00 119.17" xmlns="http://www.w3.org/2000/svg" xmlns:xlink="http://www.w3.org/1999/xlink">
<g id="graph0" class="graph" transform="scale(1 1) rotate(0) translate(4 115.17)">
<title>Dijkstra&lt; graph_t, policy_t &gt;</title>
<polygon fill="white" stroke="transparent" points="-4,4 -4,-115.17 1107,-115.17 1107,4 -4,4"/>
<!-- Node1 -->
<g id="node1" class="node">
<title>Node1</title>
<g id="a_node1"><a xlink:title="The Dijkstra algorithm producing the shortest paths.">
<polygon fill="#bfbfbf" stroke="black" points="180,-49.5 180,-79.5 286,-79.5 286,-49.5 180,-49.5"/>
<text text-anchor="start" x="188" y="-67.5" font-family="Helvetica,sans-Serif" font-size="10.00">Dijkstra&lt; graph_t,</text>
<text text-anchor="middle" x="233" y="-56.5" font-family="Helvetica,sans-Serif" font-size="10.00"> policy_t &gt;</text>
</a>
</g>
</g>
<!-- Node3 -->
<g id="node3" class="node">
<title>Node3</title>
<g id="a_node3"><a xlink:href="classmackey_1_1MinLength.html" target="_top" xlink:title=" ">
<polygon fill="white" stroke="black" points="975,-65 975,-106 1103,-106 1103,-65 975,-65"/>
<text text-anchor="start" x="983" y="-94" font-family="Helvetica,sans-Serif" font-size="10.00">MinLength&lt; typename</text>
<text text-anchor="start" x="983" y="-83" font-family="Helvetica,sans-Serif" font-size="10.00"> mackey::MultGraph&lt;</text>
<text text-anchor="middle" x="1039" y="-72" font-family="Helvetica,sans-Serif" font-size="10.00"> group_t &gt;::graph_t &gt;</text>
</a>
</g>
</g>
<!-- Node1&#45;&gt;Node3 -->
<g id="edge2" class="edge">
<title>Node1&#45;&gt;Node3</title>
<path fill="none" stroke="midnightblue" d="M277.12,-83.16C285.86,-86.18 295.11,-88.86 304,-90.5 540.9,-134.2 605.1,-94.39 846,-95.5 895.33,-95.73 907.76,-98.53 957,-95.5 962.8,-95.14 968.82,-94.64 974.84,-94.06"/>
<polygon fill="midnightblue" stroke="midnightblue" points="278.1,-79.79 267.51,-79.63 275.69,-86.36 278.1,-79.79"/>
</g>
<!-- Node4 -->
<g id="node4" class="node">
<title>Node4</title>
<g id="a_node4"><a xlink:href="classmackey_1_1Dijkstra.html" target="_top" xlink:title=" ">
<polygon fill="white" stroke="black" points="476.5,-49.5 476.5,-79.5 617.5,-79.5 617.5,-49.5 476.5,-49.5"/>
<text text-anchor="start" x="484.5" y="-67.5" font-family="Helvetica,sans-Serif" font-size="10.00">Dijkstra&lt; graph_t,</text>
<text text-anchor="middle" x="547" y="-56.5" font-family="Helvetica,sans-Serif" font-size="10.00"> MinLength&lt; graph_t &gt; &gt;</text>
</a>
</g>
</g>
<!-- Node1&#45;&gt;Node4 -->
<g id="edge3" class="edge">
<title>Node1&#45;&gt;Node4</title>
<path fill="none" stroke="orange" stroke-dasharray="5,2" d="M296.32,-64.5C348.31,-64.5 422.37,-64.5 476.32,-64.5"/>
<polygon fill="orange" stroke="orange" points="296.22,-61 286.22,-64.5 296.22,-68 296.22,-61"/>
<text text-anchor="start" x="319" y="-78.5" font-family="Helvetica,sans-Serif" font-size="10.00"> &lt; graph_t, MinLength</text>
<text text-anchor="middle" x="373.5" y="-67.5" font-family="Helvetica,sans-Serif" font-size="10.00">&lt; graph_t &gt; &gt;</text>
</g>
<!-- Node6 -->
<g id="node6" class="node">
<title>Node6</title>
<g id="a_node6"><a xlink:href="classmackey_1_1Dijkstra.html" target="_top" xlink:title=" ">
<polygon fill="white" stroke="black" points="461,-0.5 461,-30.5 633,-30.5 633,-0.5 461,-0.5"/>
<text text-anchor="start" x="469" y="-18.5" font-family="Helvetica,sans-Serif" font-size="10.00">Dijkstra&lt; graph_t,</text>
<text text-anchor="middle" x="547" y="-7.5" font-family="Helvetica,sans-Serif" font-size="10.00"> MinColorsLength&lt; graph_t &gt; &gt;</text>
</a>
</g>
</g>
<!-- Node1&#45;&gt;Node6 -->
<g id="edge6" class="edge">
<title>Node1&#45;&gt;Node6</title>
<path fill="none" stroke="orange" stroke-dasharray="5,2" d="M278.61,-45.97C286.93,-43.07 295.64,-40.41 304,-38.5 355.32,-26.74 414.09,-20.98 460.86,-18.17"/>
<polygon fill="orange" stroke="orange" points="277.26,-42.73 269.06,-49.44 279.66,-49.31 277.26,-42.73"/>
<text text-anchor="start" x="304" y="-52.5" font-family="Helvetica,sans-Serif" font-size="10.00"> &lt; graph_t, MinColorsLength</text>
<text text-anchor="middle" x="373.5" y="-41.5" font-family="Helvetica,sans-Serif" font-size="10.00">&lt; graph_t &gt; &gt;</text>
</g>
<!-- Node2 -->
<g id="node2" class="node">
<title>Node2</title>
<g id="a_node2"><a xlink:href="classmackey_1_1ShortestPaths.html" target="_top" xlink:title="The shortest paths from a collection of sources to all points in a graph.">
<polygon fill="white" stroke="black" points="0,-55 0,-74 143,-74 143,-55 0,-55"/>
<text text-anchor="middle" x="71.5" y="-62" font-family="Helvetica,sans-Serif" font-size="10.00">ShortestPaths&lt; graph_t &gt;</text>
</a>
</g>
</g>
<!-- Node2&#45;&gt;Node1 -->
<g id="edge1" class="edge">
<title>Node2&#45;&gt;Node1</title>
<path fill="none" stroke="midnightblue" d="M153.53,-64.5C162.52,-64.5 171.5,-64.5 179.99,-64.5"/>
<polygon fill="midnightblue" stroke="midnightblue" points="153.39,-61 143.39,-64.5 153.39,-68 153.39,-61"/>
</g>
<!-- Node5 -->
<g id="node5" class="node">
<title>Node5</title>
<g id="a_node5"><a xlink:href="classmackey_1_1MinLength.html" target="_top" xlink:title="Dijkstra policy that minimizes the length of each path.">
<polygon fill="white" stroke="black" points="685.5,-53 685.5,-72 812.5,-72 812.5,-53 685.5,-53"/>
<text text-anchor="middle" x="749" y="-60" font-family="Helvetica,sans-Serif" font-size="10.00">MinLength&lt; graph_t &gt;</text>
</a>
</g>
</g>
<!-- Node4&#45;&gt;Node5 -->
<g id="edge4" class="edge">
<title>Node4&#45;&gt;Node5</title>
<path fill="none" stroke="midnightblue" d="M627.85,-63.7C646.95,-63.51 667.07,-63.31 685.26,-63.13"/>
<polygon fill="midnightblue" stroke="midnightblue" points="627.63,-60.2 617.67,-63.8 627.7,-67.2 627.63,-60.2"/>
</g>
<!-- Node5&#45;&gt;Node3 -->
<g id="edge5" class="edge">
<title>Node5&#45;&gt;Node3</title>
<path fill="none" stroke="orange" stroke-dasharray="5,2" d="M822.96,-57.61C862.77,-56.16 912.8,-56.35 957,-62.5 962.79,-63.31 968.75,-64.42 974.68,-65.73"/>
<polygon fill="orange" stroke="orange" points="822.66,-54.11 812.81,-58.02 822.95,-61.11 822.66,-54.11"/>
<text text-anchor="start" x="846" y="-87.5" font-family="Helvetica,sans-Serif" font-size="10.00"> &lt; typename mackey::</text>
<text text-anchor="start" x="846" y="-76.5" font-family="Helvetica,sans-Serif" font-size="10.00">MultGraph&lt; group_t &gt;</text>
<text text-anchor="middle" x="901.5" y="-65.5" font-family="Helvetica,sans-Serif" font-size="10.00">::graph_t &gt;</text>
</g>
<!-- Node7 -->
<g id="node7" class="node">
<title>Node7</title>
<g id="a_node7"><a xlink:href="classmackey_1_1MinColorsLength.html" target="_top" xlink:title="Dijkstra policy that minimizes the color alterations and length.">
<polygon fill="white" stroke="black" points="670,-6 670,-25 828,-25 828,-6 670,-6"/>
<text text-anchor="middle" x="749" y="-13" font-family="Helvetica,sans-Serif" font-size="10.00">MinColorsLength&lt; graph_t &gt;</text>
</a>
</g>
</g>
<!-- Node6&#45;&gt;Node7 -->
<g id="edge7" class="edge">
<title>Node6&#45;&gt;Node7</title>
<path fill="none" stroke="midnightblue" d="M643.19,-15.5C652.15,-15.5 661.17,-15.5 669.95,-15.5"/>
<polygon fill="midnightblue" stroke="midnightblue" points="643.11,-12 633.11,-15.5 643.11,-19 643.11,-12"/>
</g>
</g>
</svg>
