<?xml version="1.0" encoding="UTF-8" standalone="no"?>
<!DOCTYPE svg PUBLIC "-//W3C//DTD SVG 1.1//EN"
 "http://www.w3.org/Graphics/SVG/1.1/DTD/svg11.dtd">
<!-- Generated by graphviz version 2.43.0 (0)
 -->
<!-- Title: MinLength&lt; graph_t &gt; Pages: 1 -->
<svg width="196pt" height="296pt"
 viewBox="0.00 0.00 195.50 296.00" xmlns="http://www.w3.org/2000/svg" xmlns:xlink="http://www.w3.org/1999/xlink">
<g id="graph0" class="graph" transform="scale(1 1) rotate(0) translate(4 292)">
<title>MinLength&lt; graph_t &gt;</title>
<polygon fill="white" stroke="transparent" points="-4,4 -4,-292 191.5,-292 191.5,4 -4,4"/>
<!-- Node1 -->
<g id="node1" class="node">
<title>Node1</title>
<g id="a_node1"><a xlink:title="ShortestPaths policy that minimizes the length of each path.">
<polygon fill="#bfbfbf" stroke="black" points="13,-111.5 13,-130.5 140,-130.5 140,-111.5 13,-111.5"/>
<text text-anchor="middle" x="76.5" y="-118.5" font-family="Helvetica,sans-Serif" font-size="10.00">MinLength&lt; graph_t &gt;</text>
</a>
</g>
</g>
<!-- Node4 -->
<g id="node4" class="node">
<title>Node4</title>
<g id="a_node4"><a xlink:href="classmackey_1_1MinLength.html" target="_top" xlink:title=" ">
<polygon fill="white" stroke="black" points="12.5,-0.5 12.5,-41.5 140.5,-41.5 140.5,-0.5 12.5,-0.5"/>
<text text-anchor="start" x="20.5" y="-29.5" font-family="Helvetica,sans-Serif" font-size="10.00">MinLength&lt; typename</text>
<text text-anchor="start" x="20.5" y="-18.5" font-family="Helvetica,sans-Serif" font-size="10.00"> mackey::MultGraph&lt;</text>
<text text-anchor="middle" x="76.5" y="-7.5" font-family="Helvetica,sans-Serif" font-size="10.00"> group_t &gt;::graph_t &gt;</text>
</a>
</g>
</g>
<!-- Node1&#45;&gt;Node4 -->
<g id="edge3" class="edge">
<title>Node1&#45;&gt;Node4</title>
<path fill="none" stroke="orange" stroke-dasharray="5,2" d="M76.5,-100.91C76.5,-83.81 76.5,-58.84 76.5,-41.59"/>
<polygon fill="orange" stroke="orange" points="73,-101.3 76.5,-111.3 80,-101.3 73,-101.3"/>
<text text-anchor="start" x="76.5" y="-85" font-family="Helvetica,sans-Serif" font-size="10.00"> &lt; typename mackey::</text>
<text text-anchor="start" x="76.5" y="-74" font-family="Helvetica,sans-Serif" font-size="10.00">MultGraph&lt; group_t &gt;</text>
<text text-anchor="middle" x="132" y="-63" font-family="Helvetica,sans-Serif" font-size="10.00">::graph_t &gt;</text>
</g>
<!-- Node2 -->
<g id="node2" class="node">
<title>Node2</title>
<g id="a_node2"><a xlink:href="classmackey_1_1ShortestPaths.html" target="_top" xlink:title=" ">
<polygon fill="white" stroke="black" points="0,-168.5 0,-198.5 153,-198.5 153,-168.5 0,-168.5"/>
<text text-anchor="start" x="8" y="-186.5" font-family="Helvetica,sans-Serif" font-size="10.00">ShortestPaths&lt; graph</text>
<text text-anchor="middle" x="76.5" y="-175.5" font-family="Helvetica,sans-Serif" font-size="10.00">_t, MinLength&lt; graph_t &gt; &gt;</text>
</a>
</g>
</g>
<!-- Node2&#45;&gt;Node1 -->
<g id="edge1" class="edge">
<title>Node2&#45;&gt;Node1</title>
<path fill="none" stroke="midnightblue" d="M76.5,-158.35C76.5,-148.51 76.5,-137.78 76.5,-130.54"/>
<polygon fill="midnightblue" stroke="midnightblue" points="73,-158.47 76.5,-168.47 80,-158.47 73,-158.47"/>
</g>
<!-- Node3 -->
<g id="node3" class="node">
<title>Node3</title>
<g id="a_node3"><a xlink:href="classmackey_1_1ShortestPaths.html" target="_top" xlink:title="The shortest paths from a collection of sources to all points in a graph.">
<polygon fill="white" stroke="black" points="15.5,-257.5 15.5,-287.5 137.5,-287.5 137.5,-257.5 15.5,-257.5"/>
<text text-anchor="start" x="23.5" y="-275.5" font-family="Helvetica,sans-Serif" font-size="10.00">ShortestPaths&lt; graph</text>
<text text-anchor="middle" x="76.5" y="-264.5" font-family="Helvetica,sans-Serif" font-size="10.00">_t, policy_t &gt;</text>
</a>
</g>
</g>
<!-- Node3&#45;&gt;Node2 -->
<g id="edge2" class="edge">
<title>Node3&#45;&gt;Node2</title>
<path fill="none" stroke="orange" stroke-dasharray="5,2" d="M76.5,-247.09C76.5,-231.44 76.5,-211.68 76.5,-198.6"/>
<polygon fill="orange" stroke="orange" points="73,-247.13 76.5,-257.13 80,-247.13 73,-247.13"/>
<text text-anchor="start" x="76.5" y="-231" font-family="Helvetica,sans-Serif" font-size="10.00"> &lt; graph_t, MinLength</text>
<text text-anchor="middle" x="131" y="-220" font-family="Helvetica,sans-Serif" font-size="10.00">&lt; graph_t &gt; &gt;</text>
</g>
</g>
</svg>
