<?xml version="1.0" encoding="UTF-8" standalone="no"?>
<!DOCTYPE svg PUBLIC "-//W3C//DTD SVG 1.1//EN"
 "http://www.w3.org/Graphics/SVG/1.1/DTD/svg11.dtd">
<!-- Generated by graphviz version 2.43.0 (0)
 -->
<!-- Title: ShortestPaths&lt; graph_t, policy_t &gt; Pages: 1 -->
<!--zoomable 129 -->
<svg id="main" version="1.1" xmlns="http://www.w3.org/2000/svg" xmlns:xlink="http://www.w3.org/1999/xlink" xml:space="preserve" onload="init(evt)">
<style type="text/css"><![CDATA[
.edge:hover path { stroke: red; }
.edge:hover polygon { stroke: red; fill: red; }
]]></style>
<script type="text/javascript"><![CDATA[
var edges = document.getElementsByTagName('g');
if (edges && edges.length) {
  for (var i=0;i<edges.length;i++) {
    if (edges[i].id.substr(0,4)=='edge') {
      edges[i].setAttribute('class','edge');
    }
  }
}
]]></script>
        <defs>
                <circle id="rim" cx="0" cy="0" r="7"/>
                <circle id="rim2" cx="0" cy="0" r="3.5"/>
                <g id="zoomPlus">
                        <use xlink:href="#rim" fill="#404040">
                                <set attributeName="fill" to="#808080" begin="zoomplus.mouseover" end="zoomplus.mouseout"/>
                        </use>
                        <path d="M-4,0h8M0,-4v8" fill="none" stroke="white" stroke-width="1.5" pointer-events="none"/>
                </g>
                <g id="zoomMin">
                        <use xlink:href="#rim" fill="#404040">
                                <set attributeName="fill" to="#808080" begin="zoomminus.mouseover" end="zoomminus.mouseout"/>
                        </use>
                        <path d="M-4,0h8" fill="none" stroke="white" stroke-width="1.5" pointer-events="none"/>
                </g>
                <g id="dirArrow">
                        <path fill="none" stroke="white" stroke-width="1.5" d="M0,-3.0v7 M-2.5,-0.5L0,-3.0L2.5,-0.5"/>
                </g>
               <g id="resetDef">
                       <use xlink:href="#rim2" fill="#404040">
                               <set attributeName="fill" to="#808080" begin="reset.mouseover" end="reset.mouseout"/>
                       </use>
               </g>
        </defs>

<script type="text/javascript">
var viewWidth = 928;
var viewHeight = 129;
var sectionId = 'dynsection-0';
</script>
<script xlink:href="svgpan.js"/>
<svg id="graph" class="graph">
<g id="viewport">
<title>ShortestPaths&lt; graph_t, policy_t &gt;</title>
<polygon fill="white" stroke="transparent" points="-4,4 -4,-124.57 924,-124.57 924,4 -4,4"/>
<!-- Node1 -->
<g id="node1" class="node">
<title>Node1</title>
<g id="a_node1"><a xlink:title="The shortest paths from a collection of sources to all points in a graph.">
<polygon fill="#bfbfbf" stroke="black" points="0,-61 0,-91 122,-91 122,-61 0,-61"/>
<text text-anchor="start" x="8" y="-79" font-family="Helvetica,sans-Serif" font-size="10.00">ShortestPaths&lt; graph</text>
<text text-anchor="middle" x="61" y="-68" font-family="Helvetica,sans-Serif" font-size="10.00">_t, policy_t &gt;</text>
</a>
</g>
</g>
<!-- Node2 -->
<g id="node2" class="node">
<title>Node2</title>
<g id="a_node2"><a xlink:href="classmackey_1_1MinLength.html" target="_top" xlink:title=" ">
<polygon fill="white" stroke="black" points="792,-77.5 792,-118.5 920,-118.5 920,-77.5 792,-77.5"/>
<text text-anchor="start" x="800" y="-106.5" font-family="Helvetica,sans-Serif" font-size="10.00">MinLength&lt; typename</text>
<text text-anchor="start" x="800" y="-95.5" font-family="Helvetica,sans-Serif" font-size="10.00"> mackey::MultGraph&lt;</text>
<text text-anchor="middle" x="856" y="-84.5" font-family="Helvetica,sans-Serif" font-size="10.00"> group_t &gt;::graph_t &gt;</text>
</a>
</g>
</g>
<!-- Node1&#45;&gt;Node2 -->
<g id="edge1" class="edge">
<title>Node1&#45;&gt;Node2</title>
<path fill="none" stroke="midnightblue" d="M109.25,-94.35C119.26,-97.49 129.86,-100.3 140,-102 369.24,-140.55 430.54,-106.67 663,-108 712.33,-108.28 724.76,-111.03 774,-108 779.8,-107.64 785.82,-107.14 791.84,-106.56"/>
<polygon fill="midnightblue" stroke="midnightblue" points="110.08,-90.93 99.48,-91.11 107.88,-97.58 110.08,-90.93"/>
</g>
<!-- Node3 -->
<g id="node3" class="node">
<title>Node3</title>
<g id="a_node3"><a xlink:href="classmackey_1_1ShortestPaths.html" target="_top" xlink:title=" ">
<polygon fill="white" stroke="black" points="297,-61 297,-91 450,-91 450,-61 297,-61"/>
<text text-anchor="start" x="305" y="-79" font-family="Helvetica,sans-Serif" font-size="10.00">ShortestPaths&lt; graph</text>
<text text-anchor="middle" x="373.5" y="-68" font-family="Helvetica,sans-Serif" font-size="10.00">_t, MinLength&lt; graph_t &gt; &gt;</text>
</a>
</g>
</g>
<!-- Node1&#45;&gt;Node3 -->
<g id="edge2" class="edge">
<title>Node1&#45;&gt;Node3</title>
<path fill="none" stroke="orange" stroke-dasharray="5,2" d="M132.43,-76C181.41,-76 246.65,-76 296.76,-76"/>
<polygon fill="orange" stroke="orange" points="132.24,-72.5 122.24,-76 132.24,-79.5 132.24,-72.5"/>
<text text-anchor="start" x="155" y="-90" font-family="Helvetica,sans-Serif" font-size="10.00"> &lt; graph_t, MinLength</text>
<text text-anchor="middle" x="209.5" y="-79" font-family="Helvetica,sans-Serif" font-size="10.00">&lt; graph_t &gt; &gt;</text>
</g>
<!-- Node5 -->
<g id="node5" class="node">
<title>Node5</title>
<g id="a_node5"><a xlink:href="classmackey_1_1ShortestPaths.html" target="_top" xlink:title=" ">
<polygon fill="white" stroke="black" points="312.5,-0.5 312.5,-41.5 434.5,-41.5 434.5,-0.5 312.5,-0.5"/>
<text text-anchor="start" x="320.5" y="-29.5" font-family="Helvetica,sans-Serif" font-size="10.00">ShortestPaths&lt; graph</text>
<text text-anchor="start" x="320.5" y="-18.5" font-family="Helvetica,sans-Serif" font-size="10.00">_t, MinColorsLength&lt;</text>
<text text-anchor="middle" x="373.5" y="-7.5" font-family="Helvetica,sans-Serif" font-size="10.00"> graph_t &gt; &gt;</text>
</a>
</g>
</g>
<!-- Node1&#45;&gt;Node5 -->
<g id="edge5" class="edge">
<title>Node1&#45;&gt;Node5</title>
<path fill="none" stroke="orange" stroke-dasharray="5,2" d="M111.6,-57.84C120.94,-54.89 130.7,-52.11 140,-50 197.72,-36.92 264.93,-29.34 312.2,-25.23"/>
<polygon fill="orange" stroke="orange" points="110.47,-54.53 102.05,-60.96 112.65,-61.18 110.47,-54.53"/>
<text text-anchor="start" x="140" y="-64" font-family="Helvetica,sans-Serif" font-size="10.00"> &lt; graph_t, MinColorsLength</text>
<text text-anchor="middle" x="209.5" y="-53" font-family="Helvetica,sans-Serif" font-size="10.00">&lt; graph_t &gt; &gt;</text>
</g>
<!-- Node4 -->
<g id="node4" class="node">
<title>Node4</title>
<g id="a_node4"><a xlink:href="classmackey_1_1MinLength.html" target="_top" xlink:title="ShortestPaths policy that minimizes the length of each path.">
<polygon fill="white" stroke="black" points="502.5,-65.5 502.5,-84.5 629.5,-84.5 629.5,-65.5 502.5,-65.5"/>
<text text-anchor="middle" x="566" y="-72.5" font-family="Helvetica,sans-Serif" font-size="10.00">MinLength&lt; graph_t &gt;</text>
</a>
</g>
</g>
<!-- Node3&#45;&gt;Node4 -->
<g id="edge3" class="edge">
<title>Node3&#45;&gt;Node4</title>
<path fill="none" stroke="midnightblue" d="M460.32,-75.55C474.49,-75.48 488.94,-75.4 502.4,-75.33"/>
<polygon fill="midnightblue" stroke="midnightblue" points="460.05,-72.05 450.06,-75.6 460.08,-79.05 460.05,-72.05"/>
</g>
<!-- Node4&#45;&gt;Node2 -->
<g id="edge4" class="edge">
<title>Node4&#45;&gt;Node2</title>
<path fill="none" stroke="orange" stroke-dasharray="5,2" d="M639.96,-70.11C679.77,-68.66 729.8,-68.85 774,-75 779.79,-75.81 785.75,-76.92 791.68,-78.23"/>
<polygon fill="orange" stroke="orange" points="639.66,-66.61 629.81,-70.52 639.95,-73.61 639.66,-66.61"/>
<text text-anchor="start" x="663" y="-100" font-family="Helvetica,sans-Serif" font-size="10.00"> &lt; typename mackey::</text>
<text text-anchor="start" x="663" y="-89" font-family="Helvetica,sans-Serif" font-size="10.00">MultGraph&lt; group_t &gt;</text>
<text text-anchor="middle" x="718.5" y="-78" font-family="Helvetica,sans-Serif" font-size="10.00">::graph_t &gt;</text>
</g>
<!-- Node6 -->
<g id="node6" class="node">
<title>Node6</title>
<g id="a_node6"><a xlink:href="classmackey_1_1MinColorsLength.html" target="_top" xlink:title="Dijkstra policy that minimizes the color alterations and length.">
<polygon fill="white" stroke="black" points="487,-11.5 487,-30.5 645,-30.5 645,-11.5 487,-11.5"/>
<text text-anchor="middle" x="566" y="-18.5" font-family="Helvetica,sans-Serif" font-size="10.00">MinColorsLength&lt; graph_t &gt;</text>
</a>
</g>
</g>
<!-- Node5&#45;&gt;Node6 -->
<g id="edge6" class="edge">
<title>Node5&#45;&gt;Node6</title>
<path fill="none" stroke="midnightblue" d="M444.8,-21C458.47,-21 472.87,-21 486.77,-21"/>
<polygon fill="midnightblue" stroke="midnightblue" points="444.51,-17.5 434.51,-21 444.51,-24.5 444.51,-17.5"/>
</g>
</g>
</svg>
        <g id="navigator" transform="translate(0 0)" fill="#404254">
                <rect fill="#f2f5e9" fill-opacity="0.5" stroke="#606060" stroke-width=".5" x="0" y="0" width="60" height="60"/>
                <use id="zoomplus" xlink:href="#zoomPlus" x="17" y="9" onmousedown="handleZoom(evt,'in')"/>
                <use id="zoomminus" xlink:href="#zoomMin" x="42" y="9" onmousedown="handleZoom(evt,'out')"/>
                <use id="reset" xlink:href="#resetDef" x="30" y="36" onmousedown="handleReset()"/>
                <g id="arrowUp" xlink:href="#dirArrow" transform="translate(30 24)" onmousedown="handlePan(0,-1)">
                  <use xlink:href="#rim" fill="#404040">
                        <set attributeName="fill" to="#808080" begin="arrowUp.mouseover" end="arrowUp.mouseout"/>
                  </use>
                  <path fill="none" stroke="white" stroke-width="1.5" d="M0,-3.0v7 M-2.5,-0.5L0,-3.0L2.5,-0.5"/>
                </g>
                <g id="arrowRight" xlink:href="#dirArrow" transform="rotate(90) translate(36 -43)" onmousedown="handlePan(1,0)">
                  <use xlink:href="#rim" fill="#404040">
                        <set attributeName="fill" to="#808080" begin="arrowRight.mouseover" end="arrowRight.mouseout"/>
                  </use>
                  <path fill="none" stroke="white" stroke-width="1.5" d="M0,-3.0v7 M-2.5,-0.5L0,-3.0L2.5,-0.5"/>
                </g>
                <g id="arrowDown" xlink:href="#dirArrow" transform="rotate(180) translate(-30 -48)" onmousedown="handlePan(0,1)">
                  <use xlink:href="#rim" fill="#404040">
                        <set attributeName="fill" to="#808080" begin="arrowDown.mouseover" end="arrowDown.mouseout"/>
                  </use>
                  <path fill="none" stroke="white" stroke-width="1.5" d="M0,-3.0v7 M-2.5,-0.5L0,-3.0L2.5,-0.5"/>
                </g>
                <g id="arrowLeft" xlink:href="#dirArrow" transform="rotate(270) translate(-36 17)" onmousedown="handlePan(-1,0)">
                  <use xlink:href="#rim" fill="#404040">
                        <set attributeName="fill" to="#808080" begin="arrowLeft.mouseover" end="arrowLeft.mouseout"/>
                  </use>
                  <path fill="none" stroke="white" stroke-width="1.5" d="M0,-3.0v7 M-2.5,-0.5L0,-3.0L2.5,-0.5"/>
                </g>
        </g>
        <svg viewBox="0 0 15 15" width="100%" height="30px" preserveAspectRatio="xMaxYMin meet">
         <g id="arrow_out" transform="scale(0.3 0.3)">
          <a xlink:href="classmackey_1_1ShortestPaths__inherit__graph_org.svg" target="_base">
           <rect id="button" ry="5" rx="5" y="6" x="6" height="38" width="38"
                fill="#f2f5e9" fill-opacity="0.5" stroke="#606060" stroke-width="1.0"/>
           <path id="arrow"
             d="M 11.500037,31.436501 C 11.940474,20.09759 22.043105,11.32322 32.158766,21.979434 L 37.068811,17.246167 C 37.068811,17.246167 37.088388,32 37.088388,32 L 22.160133,31.978069 C 22.160133,31.978069 26.997745,27.140456 26.997745,27.140456 C 18.528582,18.264221 13.291696,25.230495 11.500037,31.436501 z"
             style="fill:#404040;"/>
          </a>
         </g>
        </svg>
</svg>
