<?xml version="1.0" encoding="UTF-8" standalone="no"?>
<!DOCTYPE svg PUBLIC "-//W3C//DTD SVG 1.1//EN"
 "http://www.w3.org/Graphics/SVG/1.1/DTD/svg11.dtd">
<!-- Generated by graphviz version 2.43.0 (0)
 -->
<!-- Title: MinLength&lt; graph_t &gt; Pages: 1 -->
<svg width="233pt" height="353pt"
 viewBox="0.00 0.00 232.50 353.00" xmlns="http://www.w3.org/2000/svg" xmlns:xlink="http://www.w3.org/1999/xlink">
<g id="graph0" class="graph" transform="scale(1 1) rotate(0) translate(4 349)">
<title>MinLength&lt; graph_t &gt;</title>
<polygon fill="white" stroke="transparent" points="-4,4 -4,-349 228.5,-349 228.5,4 -4,4"/>
<!-- Node1 -->
<g id="node1" class="node">
<title>Node1</title>
<g id="a_node1"><a xlink:title="Dijkstra policy that minimizes the length of each path.">
<polygon fill="#bfbfbf" stroke="black" points="12,-111.5 12,-130.5 139,-130.5 139,-111.5 12,-111.5"/>
<text text-anchor="middle" x="75.5" y="-118.5" font-family="Helvetica,sans-Serif" font-size="10.00">MinLength&lt; graph_t &gt;</text>
</a>
</g>
</g>
<!-- Node5 -->
<g id="node5" class="node">
<title>Node5</title>
<g id="a_node5"><a xlink:href="classmackey_1_1MinLength.html" target="_top" xlink:title=" ">
<polygon fill="white" stroke="black" points="11.5,-0.5 11.5,-41.5 139.5,-41.5 139.5,-0.5 11.5,-0.5"/>
<text text-anchor="start" x="19.5" y="-29.5" font-family="Helvetica,sans-Serif" font-size="10.00">MinLength&lt; typename</text>
<text text-anchor="start" x="19.5" y="-18.5" font-family="Helvetica,sans-Serif" font-size="10.00"> mackey::MultGraph&lt;</text>
<text text-anchor="middle" x="75.5" y="-7.5" font-family="Helvetica,sans-Serif" font-size="10.00"> group_t &gt;::graph_t &gt;</text>
</a>
</g>
</g>
<!-- Node1&#45;&gt;Node5 -->
<g id="edge5" class="edge">
<title>Node1&#45;&gt;Node5</title>
<path fill="none" stroke="orange" stroke-dasharray="5,2" d="M75.5,-100.91C75.5,-83.81 75.5,-58.84 75.5,-41.59"/>
<polygon fill="orange" stroke="orange" points="72,-101.3 75.5,-111.3 79,-101.3 72,-101.3"/>
<text text-anchor="start" x="75.5" y="-85" font-family="Helvetica,sans-Serif" font-size="10.00"> &lt; typename mackey::</text>
<text text-anchor="start" x="75.5" y="-74" font-family="Helvetica,sans-Serif" font-size="10.00">MultGraph&lt; group_t &gt;</text>
<text text-anchor="middle" x="131" y="-63" font-family="Helvetica,sans-Serif" font-size="10.00">::graph_t &gt;</text>
</g>
<!-- Node2 -->
<g id="node2" class="node">
<title>Node2</title>
<g id="a_node2"><a xlink:href="classmackey_1_1Dijkstra.html" target="_top" xlink:title=" ">
<polygon fill="white" stroke="black" points="5,-168.5 5,-198.5 146,-198.5 146,-168.5 5,-168.5"/>
<text text-anchor="start" x="13" y="-186.5" font-family="Helvetica,sans-Serif" font-size="10.00">Dijkstra&lt; graph_t,</text>
<text text-anchor="middle" x="75.5" y="-175.5" font-family="Helvetica,sans-Serif" font-size="10.00"> MinLength&lt; graph_t &gt; &gt;</text>
</a>
</g>
</g>
<!-- Node2&#45;&gt;Node1 -->
<g id="edge1" class="edge">
<title>Node2&#45;&gt;Node1</title>
<path fill="none" stroke="midnightblue" d="M75.5,-158.35C75.5,-148.51 75.5,-137.78 75.5,-130.54"/>
<polygon fill="midnightblue" stroke="midnightblue" points="72,-158.47 75.5,-168.47 79,-158.47 72,-158.47"/>
</g>
<!-- Node3 -->
<g id="node3" class="node">
<title>Node3</title>
<g id="a_node3"><a xlink:href="classmackey_1_1ShortestPaths.html" target="_top" xlink:title="The shortest paths from a collection of sources to all points in a graph.">
<polygon fill="white" stroke="black" points="0,-325.5 0,-344.5 143,-344.5 143,-325.5 0,-325.5"/>
<text text-anchor="middle" x="71.5" y="-332.5" font-family="Helvetica,sans-Serif" font-size="10.00">ShortestPaths&lt; graph_t &gt;</text>
</a>
</g>
</g>
<!-- Node3&#45;&gt;Node2 -->
<g id="edge2" class="edge">
<title>Node3&#45;&gt;Node2</title>
<path fill="none" stroke="midnightblue" d="M72.01,-314.95C72.82,-284.5 74.4,-225.55 75.12,-198.59"/>
<polygon fill="midnightblue" stroke="midnightblue" points="68.51,-315.01 71.74,-325.1 75.5,-315.19 68.51,-315.01"/>
</g>
<!-- Node4 -->
<g id="node4" class="node">
<title>Node4</title>
<g id="a_node4"><a xlink:href="classmackey_1_1Dijkstra.html" target="_top" xlink:title="The Dijkstra algorithm producing the shortest paths.">
<polygon fill="white" stroke="black" points="87.5,-257.5 87.5,-287.5 193.5,-287.5 193.5,-257.5 87.5,-257.5"/>
<text text-anchor="start" x="95.5" y="-275.5" font-family="Helvetica,sans-Serif" font-size="10.00">Dijkstra&lt; graph_t,</text>
<text text-anchor="middle" x="140.5" y="-264.5" font-family="Helvetica,sans-Serif" font-size="10.00"> policy_t &gt;</text>
</a>
</g>
</g>
<!-- Node3&#45;&gt;Node4 -->
<g id="edge4" class="edge">
<title>Node3&#45;&gt;Node4</title>
<path fill="none" stroke="midnightblue" d="M89.04,-318.62C99.96,-309.05 113.89,-296.83 124.5,-287.53"/>
<polygon fill="midnightblue" stroke="midnightblue" points="86.6,-316.11 81.39,-325.33 91.21,-321.37 86.6,-316.11"/>
</g>
<!-- Node4&#45;&gt;Node2 -->
<g id="edge3" class="edge">
<title>Node4&#45;&gt;Node2</title>
<path fill="none" stroke="orange" stroke-dasharray="5,2" d="M123.6,-248.88C111.72,-232.97 96.19,-212.19 86.03,-198.6"/>
<polygon fill="orange" stroke="orange" points="120.98,-251.22 129.77,-257.13 126.59,-247.03 120.98,-251.22"/>
<text text-anchor="start" x="115.5" y="-231" font-family="Helvetica,sans-Serif" font-size="10.00"> &lt; graph_t, MinLength</text>
<text text-anchor="middle" x="170" y="-220" font-family="Helvetica,sans-Serif" font-size="10.00">&lt; graph_t &gt; &gt;</text>
</g>
</g>
</svg>
