<?xml version="1.0" encoding="UTF-8" standalone="no"?>
<!DOCTYPE svg PUBLIC "-//W3C//DTD SVG 1.1//EN"
 "http://www.w3.org/Graphics/SVG/1.1/DTD/svg11.dtd">
<!-- Generated by graphviz version 2.43.0 (0)
 -->
<!-- Title: Dikjstra&lt; graph_t, policy_t &gt; Pages: 1 -->
<svg width="622pt" height="149pt"
 viewBox="0.00 0.00 622.00 149.00" xmlns="http://www.w3.org/2000/svg" xmlns:xlink="http://www.w3.org/1999/xlink">
<g id="graph0" class="graph" transform="scale(1 1) rotate(0) translate(4 145)">
<title>Dikjstra&lt; graph_t, policy_t &gt;</title>
<polygon fill="white" stroke="transparent" points="-4,4 -4,-145 618,-145 618,4 -4,4"/>
<!-- Node1 -->
<g id="node1" class="node">
<title>Node1</title>
<g id="a_node1"><a xlink:title=" ">
<polygon fill="#bfbfbf" stroke="black" points="0,-55.5 0,-85.5 106,-85.5 106,-55.5 0,-55.5"/>
<text text-anchor="start" x="8" y="-73.5" font-family="Helvetica,sans-Serif" font-size="10.00">Dikjstra&lt; graph_t,</text>
<text text-anchor="middle" x="53" y="-62.5" font-family="Helvetica,sans-Serif" font-size="10.00"> policy_t &gt;</text>
</a>
</g>
</g>
<!-- Node2 -->
<g id="node2" class="node">
<title>Node2</title>
<g id="a_node2"><a xlink:href="classmackey_1_1minimize__length.html" target="_top" xlink:title=" ">
<polygon fill="white" stroke="black" points="249,-110.5 249,-140.5 433,-140.5 433,-110.5 249,-110.5"/>
<text text-anchor="start" x="257" y="-128.5" font-family="Helvetica,sans-Serif" font-size="10.00">minimize_length&lt; graph</text>
<text text-anchor="middle" x="341" y="-117.5" font-family="Helvetica,sans-Serif" font-size="10.00">_t, minimize_length&lt; graph_t &gt; &gt;</text>
</a>
</g>
</g>
<!-- Node1&#45;&gt;Node2 -->
<g id="edge1" class="edge">
<title>Node1&#45;&gt;Node2</title>
<path fill="none" stroke="midnightblue" d="M85.81,-90.78C97.4,-97.22 110.88,-103.66 124,-107.5 164,-119.2 209.81,-124.15 248.93,-126"/>
<polygon fill="midnightblue" stroke="midnightblue" points="87.37,-87.65 76.96,-85.67 83.87,-93.71 87.37,-87.65"/>
</g>
<!-- Node3 -->
<g id="node3" class="node">
<title>Node3</title>
<g id="a_node3"><a xlink:href="classmackey_1_1Dikjstra.html" target="_top" xlink:title=" ">
<polygon fill="white" stroke="black" points="267.5,-50 267.5,-91 414.5,-91 414.5,-50 267.5,-50"/>
<text text-anchor="start" x="275.5" y="-79" font-family="Helvetica,sans-Serif" font-size="10.00">Dikjstra&lt; graph_t,</text>
<text text-anchor="start" x="275.5" y="-68" font-family="Helvetica,sans-Serif" font-size="10.00"> minimize_color_alteration</text>
<text text-anchor="middle" x="341" y="-57" font-family="Helvetica,sans-Serif" font-size="10.00">_and_length&lt; graph_t &gt; &gt;</text>
</a>
</g>
</g>
<!-- Node1&#45;&gt;Node3 -->
<g id="edge2" class="edge">
<title>Node1&#45;&gt;Node3</title>
<path fill="none" stroke="orange" stroke-dasharray="5,2" d="M116.21,-70.5C160.65,-70.5 220.59,-70.5 267.25,-70.5"/>
<polygon fill="orange" stroke="orange" points="116.12,-67 106.12,-70.5 116.12,-74 116.12,-67"/>
<text text-anchor="start" x="124" y="-95.5" font-family="Helvetica,sans-Serif" font-size="10.00"> &lt; graph_t, minimize</text>
<text text-anchor="start" x="124" y="-84.5" font-family="Helvetica,sans-Serif" font-size="10.00">_color_alteration_and</text>
<text text-anchor="middle" x="177.5" y="-73.5" font-family="Helvetica,sans-Serif" font-size="10.00">_length&lt; graph_t &gt; &gt;</text>
</g>
<!-- Node5 -->
<g id="node5" class="node">
<title>Node5</title>
<g id="a_node5"><a xlink:href="classmackey_1_1Dikjstra.html" target="_top" xlink:title=" ">
<polygon fill="white" stroke="black" points="255,-0.5 255,-30.5 427,-30.5 427,-0.5 255,-0.5"/>
<text text-anchor="start" x="263" y="-18.5" font-family="Helvetica,sans-Serif" font-size="10.00">Dikjstra&lt; graph_t,</text>
<text text-anchor="middle" x="341" y="-7.5" font-family="Helvetica,sans-Serif" font-size="10.00"> minimize_length&lt; graph_t &gt; &gt;</text>
</a>
</g>
</g>
<!-- Node1&#45;&gt;Node5 -->
<g id="edge4" class="edge">
<title>Node1&#45;&gt;Node5</title>
<path fill="none" stroke="orange" stroke-dasharray="5,2" d="M99.48,-51.95C107.55,-49.14 115.95,-46.51 124,-44.5 166.49,-33.9 214.72,-26.95 254.8,-22.53"/>
<polygon fill="orange" stroke="orange" points="98.06,-48.75 89.85,-55.44 100.44,-55.33 98.06,-48.75"/>
<text text-anchor="start" x="124" y="-58.5" font-family="Helvetica,sans-Serif" font-size="10.00"> &lt; graph_t, minimize</text>
<text text-anchor="middle" x="177.5" y="-47.5" font-family="Helvetica,sans-Serif" font-size="10.00">_length&lt; graph_t &gt; &gt;</text>
</g>
<!-- Node4 -->
<g id="node4" class="node">
<title>Node4</title>
<g id="a_node4"><a xlink:href="classmackey_1_1minimize__color__alteration__and__length.html" target="_top" xlink:title=" ">
<polygon fill="white" stroke="black" points="470,-55.5 470,-85.5 614,-85.5 614,-55.5 470,-55.5"/>
<text text-anchor="start" x="478" y="-73.5" font-family="Helvetica,sans-Serif" font-size="10.00">minimize_color_alteration</text>
<text text-anchor="middle" x="542" y="-62.5" font-family="Helvetica,sans-Serif" font-size="10.00">_and_length&lt; graph_t &gt;</text>
</a>
</g>
</g>
<!-- Node3&#45;&gt;Node4 -->
<g id="edge3" class="edge">
<title>Node3&#45;&gt;Node4</title>
<path fill="none" stroke="midnightblue" d="M424.92,-70.5C439.85,-70.5 455.28,-70.5 469.84,-70.5"/>
<polygon fill="midnightblue" stroke="midnightblue" points="424.69,-67 414.69,-70.5 424.69,-74 424.69,-67"/>
</g>
</g>
</svg>
