<?xml version="1.0" encoding="UTF-8" standalone="no"?>
<!DOCTYPE svg PUBLIC "-//W3C//DTD SVG 1.1//EN"
 "http://www.w3.org/Graphics/SVG/1.1/DTD/svg11.dtd">
<!-- Generated by graphviz version 2.43.0 (0)
 -->
<!-- Title: ShortestPaths&lt; graph_t, policy_t &gt; Pages: 1 -->
<svg width="928pt" height="129pt"
 viewBox="0.00 0.00 928.00 128.57" xmlns="http://www.w3.org/2000/svg" xmlns:xlink="http://www.w3.org/1999/xlink">
<g id="graph0" class="graph" transform="scale(1 1) rotate(0) translate(4 124.57)">
<title>ShortestPaths&lt; graph_t, policy_t &gt;</title>
<polygon fill="white" stroke="transparent" points="-4,4 -4,-124.57 924,-124.57 924,4 -4,4"/>
<!-- Node1 -->
<g id="node1" class="node">
<title>Node1</title>
<g id="a_node1"><a xlink:title="The shortest paths from a collection of sources to all points in a graph.">
<polygon fill="#bfbfbf" stroke="black" points="0,-61 0,-91 122,-91 122,-61 0,-61"/>
<text text-anchor="start" x="8" y="-79" font-family="Helvetica,sans-Serif" font-size="10.00">ShortestPaths&lt; graph</text>
<text text-anchor="middle" x="61" y="-68" font-family="Helvetica,sans-Serif" font-size="10.00">_t, policy_t &gt;</text>
</a>
</g>
</g>
<!-- Node2 -->
<g id="node2" class="node">
<title>Node2</title>
<g id="a_node2"><a xlink:href="classmackey_1_1MinLength.html" target="_top" xlink:title=" ">
<polygon fill="white" stroke="black" points="792,-77.5 792,-118.5 920,-118.5 920,-77.5 792,-77.5"/>
<text text-anchor="start" x="800" y="-106.5" font-family="Helvetica,sans-Serif" font-size="10.00">MinLength&lt; typename</text>
<text text-anchor="start" x="800" y="-95.5" font-family="Helvetica,sans-Serif" font-size="10.00"> mackey::MultGraph&lt;</text>
<text text-anchor="middle" x="856" y="-84.5" font-family="Helvetica,sans-Serif" font-size="10.00"> group_t &gt;::graph_t &gt;</text>
</a>
</g>
</g>
<!-- Node1&#45;&gt;Node2 -->
<g id="edge1" class="edge">
<title>Node1&#45;&gt;Node2</title>
<path fill="none" stroke="midnightblue" d="M109.25,-94.35C119.26,-97.49 129.86,-100.3 140,-102 369.24,-140.55 430.54,-106.67 663,-108 712.33,-108.28 724.76,-111.03 774,-108 779.8,-107.64 785.82,-107.14 791.84,-106.56"/>
<polygon fill="midnightblue" stroke="midnightblue" points="110.08,-90.93 99.48,-91.11 107.88,-97.58 110.08,-90.93"/>
</g>
<!-- Node3 -->
<g id="node3" class="node">
<title>Node3</title>
<g id="a_node3"><a xlink:href="classmackey_1_1ShortestPaths.html" target="_top" xlink:title=" ">
<polygon fill="white" stroke="black" points="297,-61 297,-91 450,-91 450,-61 297,-61"/>
<text text-anchor="start" x="305" y="-79" font-family="Helvetica,sans-Serif" font-size="10.00">ShortestPaths&lt; graph</text>
<text text-anchor="middle" x="373.5" y="-68" font-family="Helvetica,sans-Serif" font-size="10.00">_t, MinLength&lt; graph_t &gt; &gt;</text>
</a>
</g>
</g>
<!-- Node1&#45;&gt;Node3 -->
<g id="edge2" class="edge">
<title>Node1&#45;&gt;Node3</title>
<path fill="none" stroke="orange" stroke-dasharray="5,2" d="M132.43,-76C181.41,-76 246.65,-76 296.76,-76"/>
<polygon fill="orange" stroke="orange" points="132.24,-72.5 122.24,-76 132.24,-79.5 132.24,-72.5"/>
<text text-anchor="start" x="155" y="-90" font-family="Helvetica,sans-Serif" font-size="10.00"> &lt; graph_t, MinLength</text>
<text text-anchor="middle" x="209.5" y="-79" font-family="Helvetica,sans-Serif" font-size="10.00">&lt; graph_t &gt; &gt;</text>
</g>
<!-- Node5 -->
<g id="node5" class="node">
<title>Node5</title>
<g id="a_node5"><a xlink:href="classmackey_1_1ShortestPaths.html" target="_top" xlink:title=" ">
<polygon fill="white" stroke="black" points="312.5,-0.5 312.5,-41.5 434.5,-41.5 434.5,-0.5 312.5,-0.5"/>
<text text-anchor="start" x="320.5" y="-29.5" font-family="Helvetica,sans-Serif" font-size="10.00">ShortestPaths&lt; graph</text>
<text text-anchor="start" x="320.5" y="-18.5" font-family="Helvetica,sans-Serif" font-size="10.00">_t, MinColorsLength&lt;</text>
<text text-anchor="middle" x="373.5" y="-7.5" font-family="Helvetica,sans-Serif" font-size="10.00"> graph_t &gt; &gt;</text>
</a>
</g>
</g>
<!-- Node1&#45;&gt;Node5 -->
<g id="edge5" class="edge">
<title>Node1&#45;&gt;Node5</title>
<path fill="none" stroke="orange" stroke-dasharray="5,2" d="M111.6,-57.84C120.94,-54.89 130.7,-52.11 140,-50 197.72,-36.92 264.93,-29.34 312.2,-25.23"/>
<polygon fill="orange" stroke="orange" points="110.47,-54.53 102.05,-60.96 112.65,-61.18 110.47,-54.53"/>
<text text-anchor="start" x="140" y="-64" font-family="Helvetica,sans-Serif" font-size="10.00"> &lt; graph_t, MinColorsLength</text>
<text text-anchor="middle" x="209.5" y="-53" font-family="Helvetica,sans-Serif" font-size="10.00">&lt; graph_t &gt; &gt;</text>
</g>
<!-- Node4 -->
<g id="node4" class="node">
<title>Node4</title>
<g id="a_node4"><a xlink:href="classmackey_1_1MinLength.html" target="_top" xlink:title="ShortestPaths policy that minimizes the length of each path.">
<polygon fill="white" stroke="black" points="502.5,-65.5 502.5,-84.5 629.5,-84.5 629.5,-65.5 502.5,-65.5"/>
<text text-anchor="middle" x="566" y="-72.5" font-family="Helvetica,sans-Serif" font-size="10.00">MinLength&lt; graph_t &gt;</text>
</a>
</g>
</g>
<!-- Node3&#45;&gt;Node4 -->
<g id="edge3" class="edge">
<title>Node3&#45;&gt;Node4</title>
<path fill="none" stroke="midnightblue" d="M460.32,-75.55C474.49,-75.48 488.94,-75.4 502.4,-75.33"/>
<polygon fill="midnightblue" stroke="midnightblue" points="460.05,-72.05 450.06,-75.6 460.08,-79.05 460.05,-72.05"/>
</g>
<!-- Node4&#45;&gt;Node2 -->
<g id="edge4" class="edge">
<title>Node4&#45;&gt;Node2</title>
<path fill="none" stroke="orange" stroke-dasharray="5,2" d="M639.96,-70.11C679.77,-68.66 729.8,-68.85 774,-75 779.79,-75.81 785.75,-76.92 791.68,-78.23"/>
<polygon fill="orange" stroke="orange" points="639.66,-66.61 629.81,-70.52 639.95,-73.61 639.66,-66.61"/>
<text text-anchor="start" x="663" y="-100" font-family="Helvetica,sans-Serif" font-size="10.00"> &lt; typename mackey::</text>
<text text-anchor="start" x="663" y="-89" font-family="Helvetica,sans-Serif" font-size="10.00">MultGraph&lt; group_t &gt;</text>
<text text-anchor="middle" x="718.5" y="-78" font-family="Helvetica,sans-Serif" font-size="10.00">::graph_t &gt;</text>
</g>
<!-- Node6 -->
<g id="node6" class="node">
<title>Node6</title>
<g id="a_node6"><a xlink:href="classmackey_1_1MinColorsLength.html" target="_top" xlink:title="Dijkstra policy that minimizes the color alterations and length.">
<polygon fill="white" stroke="black" points="487,-11.5 487,-30.5 645,-30.5 645,-11.5 487,-11.5"/>
<text text-anchor="middle" x="566" y="-18.5" font-family="Helvetica,sans-Serif" font-size="10.00">MinColorsLength&lt; graph_t &gt;</text>
</a>
</g>
</g>
<!-- Node5&#45;&gt;Node6 -->
<g id="edge6" class="edge">
<title>Node5&#45;&gt;Node6</title>
<path fill="none" stroke="midnightblue" d="M444.8,-21C458.47,-21 472.87,-21 486.77,-21"/>
<polygon fill="midnightblue" stroke="midnightblue" points="444.51,-17.5 434.51,-21 444.51,-24.5 444.51,-17.5"/>
</g>
</g>
</svg>
