<?xml version="1.0" encoding="UTF-8" standalone="no"?>
<!DOCTYPE svg PUBLIC "-//W3C//DTD SVG 1.1//EN"
 "http://www.w3.org/Graphics/SVG/1.1/DTD/svg11.dtd">
<!-- Generated by graphviz version 2.43.0 (0)
 -->
<!-- Title: MinLength&lt; graph_t &gt; Pages: 1 -->
<svg width="233pt" height="242pt"
 viewBox="0.00 0.00 232.50 242.00" xmlns="http://www.w3.org/2000/svg" xmlns:xlink="http://www.w3.org/1999/xlink">
<g id="graph0" class="graph" transform="scale(1 1) rotate(0) translate(4 238)">
<title>MinLength&lt; graph_t &gt;</title>
<polygon fill="white" stroke="transparent" points="-4,4 -4,-238 228.5,-238 228.5,4 -4,4"/>
<!-- Node1 -->
<g id="node1" class="node">
<title>Node1</title>
<g id="a_node1"><a xlink:title="Dijkstra policy that minimizes the length of each path.">
<polygon fill="#bfbfbf" stroke="black" points="12,-0.5 12,-19.5 139,-19.5 139,-0.5 12,-0.5"/>
<text text-anchor="middle" x="75.5" y="-7.5" font-family="Helvetica,sans-Serif" font-size="10.00">MinLength&lt; graph_t &gt;</text>
</a>
</g>
</g>
<!-- Node2 -->
<g id="node2" class="node">
<title>Node2</title>
<g id="a_node2"><a xlink:href="classmackey_1_1Dijkstra.html" target="_top" xlink:title=" ">
<polygon fill="white" stroke="black" points="5,-57.5 5,-87.5 146,-87.5 146,-57.5 5,-57.5"/>
<text text-anchor="start" x="13" y="-75.5" font-family="Helvetica,sans-Serif" font-size="10.00">Dijkstra&lt; graph_t,</text>
<text text-anchor="middle" x="75.5" y="-64.5" font-family="Helvetica,sans-Serif" font-size="10.00"> MinLength&lt; graph_t &gt; &gt;</text>
</a>
</g>
</g>
<!-- Node2&#45;&gt;Node1 -->
<g id="edge1" class="edge">
<title>Node2&#45;&gt;Node1</title>
<path fill="none" stroke="midnightblue" d="M75.5,-47.35C75.5,-37.51 75.5,-26.78 75.5,-19.54"/>
<polygon fill="midnightblue" stroke="midnightblue" points="72,-47.47 75.5,-57.47 79,-47.47 72,-47.47"/>
</g>
<!-- Node3 -->
<g id="node3" class="node">
<title>Node3</title>
<g id="a_node3"><a xlink:href="classmackey_1_1ShortestPaths.html" target="_top" xlink:title="The shortest paths from a collection of sources to all points in a graph.">
<polygon fill="white" stroke="black" points="0,-214.5 0,-233.5 143,-233.5 143,-214.5 0,-214.5"/>
<text text-anchor="middle" x="71.5" y="-221.5" font-family="Helvetica,sans-Serif" font-size="10.00">ShortestPaths&lt; graph_t &gt;</text>
</a>
</g>
</g>
<!-- Node3&#45;&gt;Node2 -->
<g id="edge2" class="edge">
<title>Node3&#45;&gt;Node2</title>
<path fill="none" stroke="midnightblue" d="M72.01,-203.95C72.82,-173.5 74.4,-114.55 75.12,-87.59"/>
<polygon fill="midnightblue" stroke="midnightblue" points="68.51,-204.01 71.74,-214.1 75.5,-204.19 68.51,-204.01"/>
</g>
<!-- Node4 -->
<g id="node4" class="node">
<title>Node4</title>
<g id="a_node4"><a xlink:href="classmackey_1_1Dijkstra.html" target="_top" xlink:title="The Dijkstra algorithm producing the shortest paths.">
<polygon fill="white" stroke="black" points="87.5,-146.5 87.5,-176.5 193.5,-176.5 193.5,-146.5 87.5,-146.5"/>
<text text-anchor="start" x="95.5" y="-164.5" font-family="Helvetica,sans-Serif" font-size="10.00">Dijkstra&lt; graph_t,</text>
<text text-anchor="middle" x="140.5" y="-153.5" font-family="Helvetica,sans-Serif" font-size="10.00"> policy_t &gt;</text>
</a>
</g>
</g>
<!-- Node3&#45;&gt;Node4 -->
<g id="edge4" class="edge">
<title>Node3&#45;&gt;Node4</title>
<path fill="none" stroke="midnightblue" d="M89.04,-207.62C99.96,-198.05 113.89,-185.83 124.5,-176.53"/>
<polygon fill="midnightblue" stroke="midnightblue" points="86.6,-205.11 81.39,-214.33 91.21,-210.37 86.6,-205.11"/>
</g>
<!-- Node4&#45;&gt;Node2 -->
<g id="edge3" class="edge">
<title>Node4&#45;&gt;Node2</title>
<path fill="none" stroke="orange" stroke-dasharray="5,2" d="M123.6,-137.88C111.72,-121.97 96.19,-101.19 86.03,-87.6"/>
<polygon fill="orange" stroke="orange" points="120.98,-140.22 129.77,-146.13 126.59,-136.03 120.98,-140.22"/>
<text text-anchor="start" x="115.5" y="-120" font-family="Helvetica,sans-Serif" font-size="10.00"> &lt; graph_t, MinLength</text>
<text text-anchor="middle" x="170" y="-109" font-family="Helvetica,sans-Serif" font-size="10.00">&lt; graph_t &gt; &gt;</text>
</g>
</g>
</svg>
