<?xml version="1.0" encoding="UTF-8" standalone="no"?>
<!DOCTYPE svg PUBLIC "-//W3C//DTD SVG 1.1//EN"
 "http://www.w3.org/Graphics/SVG/1.1/DTD/svg11.dtd">
<!-- Generated by graphviz version 2.43.0 (0)
 -->
<!-- Title: MinColorsLength&lt; graph_t &gt; Pages: 1 -->
<svg width="273pt" height="242pt"
 viewBox="0.00 0.00 273.00 242.00" xmlns="http://www.w3.org/2000/svg" xmlns:xlink="http://www.w3.org/1999/xlink">
<g id="graph0" class="graph" transform="scale(1 1) rotate(0) translate(4 238)">
<title>MinColorsLength&lt; graph_t &gt;</title>
<polygon fill="white" stroke="transparent" points="-4,4 -4,-238 269,-238 269,4 -4,4"/>
<!-- Node1 -->
<g id="node1" class="node">
<title>Node1</title>
<g id="a_node1"><a xlink:title="Dijkstra policy that minimizes the color alterations and length.">
<polygon fill="#bfbfbf" stroke="black" points="7,-0.5 7,-19.5 165,-19.5 165,-0.5 7,-0.5"/>
<text text-anchor="middle" x="86" y="-7.5" font-family="Helvetica,sans-Serif" font-size="10.00">MinColorsLength&lt; graph_t &gt;</text>
</a>
</g>
</g>
<!-- Node2 -->
<g id="node2" class="node">
<title>Node2</title>
<g id="a_node2"><a xlink:href="classmackey_1_1Dijkstra.html" target="_top" xlink:title=" ">
<polygon fill="white" stroke="black" points="0,-57.5 0,-87.5 172,-87.5 172,-57.5 0,-57.5"/>
<text text-anchor="start" x="8" y="-75.5" font-family="Helvetica,sans-Serif" font-size="10.00">Dijkstra&lt; graph_t,</text>
<text text-anchor="middle" x="86" y="-64.5" font-family="Helvetica,sans-Serif" font-size="10.00"> MinColorsLength&lt; graph_t &gt; &gt;</text>
</a>
</g>
</g>
<!-- Node2&#45;&gt;Node1 -->
<g id="edge1" class="edge">
<title>Node2&#45;&gt;Node1</title>
<path fill="none" stroke="midnightblue" d="M86,-47.35C86,-37.51 86,-26.78 86,-19.54"/>
<polygon fill="midnightblue" stroke="midnightblue" points="82.5,-47.47 86,-57.47 89.5,-47.47 82.5,-47.47"/>
</g>
<!-- Node3 -->
<g id="node3" class="node">
<title>Node3</title>
<g id="a_node3"><a xlink:href="classmackey_1_1ShortestPaths.html" target="_top" xlink:title="The shortest paths from a collection of sources to all points in a graph.">
<polygon fill="white" stroke="black" points="10.5,-214.5 10.5,-233.5 153.5,-233.5 153.5,-214.5 10.5,-214.5"/>
<text text-anchor="middle" x="82" y="-221.5" font-family="Helvetica,sans-Serif" font-size="10.00">ShortestPaths&lt; graph_t &gt;</text>
</a>
</g>
</g>
<!-- Node3&#45;&gt;Node2 -->
<g id="edge2" class="edge">
<title>Node3&#45;&gt;Node2</title>
<path fill="none" stroke="midnightblue" d="M82.51,-203.95C83.32,-173.5 84.9,-114.55 85.62,-87.59"/>
<polygon fill="midnightblue" stroke="midnightblue" points="79.01,-204.01 82.24,-214.1 86,-204.19 79.01,-204.01"/>
</g>
<!-- Node4 -->
<g id="node4" class="node">
<title>Node4</title>
<g id="a_node4"><a xlink:href="classmackey_1_1Dijkstra.html" target="_top" xlink:title="The Dijkstra algorithm producing the shortest paths.">
<polygon fill="white" stroke="black" points="98,-146.5 98,-176.5 204,-176.5 204,-146.5 98,-146.5"/>
<text text-anchor="start" x="106" y="-164.5" font-family="Helvetica,sans-Serif" font-size="10.00">Dijkstra&lt; graph_t,</text>
<text text-anchor="middle" x="151" y="-153.5" font-family="Helvetica,sans-Serif" font-size="10.00"> policy_t &gt;</text>
</a>
</g>
</g>
<!-- Node3&#45;&gt;Node4 -->
<g id="edge4" class="edge">
<title>Node3&#45;&gt;Node4</title>
<path fill="none" stroke="midnightblue" d="M99.54,-207.62C110.46,-198.05 124.39,-185.83 135,-176.53"/>
<polygon fill="midnightblue" stroke="midnightblue" points="97.1,-205.11 91.89,-214.33 101.71,-210.37 97.1,-205.11"/>
</g>
<!-- Node4&#45;&gt;Node2 -->
<g id="edge3" class="edge">
<title>Node4&#45;&gt;Node2</title>
<path fill="none" stroke="orange" stroke-dasharray="5,2" d="M134.1,-137.88C122.22,-121.97 106.69,-101.19 96.53,-87.6"/>
<polygon fill="orange" stroke="orange" points="131.48,-140.22 140.27,-146.13 137.09,-136.03 131.48,-140.22"/>
<text text-anchor="start" x="126" y="-120" font-family="Helvetica,sans-Serif" font-size="10.00"> &lt; graph_t, MinColorsLength</text>
<text text-anchor="middle" x="195.5" y="-109" font-family="Helvetica,sans-Serif" font-size="10.00">&lt; graph_t &gt; &gt;</text>
</g>
</g>
</svg>
