<?xml version="1.0" encoding="UTF-8" standalone="no"?>
<!DOCTYPE svg PUBLIC "-//W3C//DTD SVG 1.1//EN"
 "http://www.w3.org/Graphics/SVG/1.1/DTD/svg11.dtd">
<!-- Generated by graphviz version 2.43.0 (0)
 -->
<!-- Title: Mult_Table&lt; group_t &gt; Pages: 1 -->
<svg width="146pt" height="207pt"
 viewBox="0.00 0.00 146.00 207.00" xmlns="http://www.w3.org/2000/svg" xmlns:xlink="http://www.w3.org/1999/xlink">
<g id="graph0" class="graph" transform="scale(1 1) rotate(0) translate(4 203)">
<title>Mult_Table&lt; group_t &gt;</title>
<polygon fill="white" stroke="transparent" points="-4,4 -4,-203 142,-203 142,4 -4,4"/>
<!-- Node1 -->
<g id="node1" class="node">
<title>Node1</title>
<g id="a_node1"><a xlink:title="The Multiplication Table.">
<polygon fill="#bfbfbf" stroke="black" points="5,-179.5 5,-198.5 133,-198.5 133,-179.5 5,-179.5"/>
<text text-anchor="middle" x="69" y="-186.5" font-family="Helvetica,sans-Serif" font-size="10.00">Mult_Table&lt; group_t &gt;</text>
</a>
</g>
</g>
<!-- Node2 -->
<g id="node2" class="node">
<title>Node2</title>
<g id="a_node2"><a xlink:href="classMackey_1_1MultGraph.html" target="_top" xlink:title="The Multiplication Graph created from the Multiplication Table.">
<polygon fill="white" stroke="black" points="5.5,-123.5 5.5,-142.5 132.5,-142.5 132.5,-123.5 5.5,-123.5"/>
<text text-anchor="middle" x="69" y="-130.5" font-family="Helvetica,sans-Serif" font-size="10.00">MultGraph&lt; group_t &gt;</text>
</a>
</g>
</g>
<!-- Node1&#45;&gt;Node2 -->
<g id="edge1" class="edge">
<title>Node1&#45;&gt;Node2</title>
<path fill="none" stroke="midnightblue" d="M69,-168.8C69,-159.91 69,-149.78 69,-142.75"/>
<polygon fill="midnightblue" stroke="midnightblue" points="65.5,-169.08 69,-179.08 72.5,-169.08 65.5,-169.08"/>
</g>
<!-- Node3 -->
<g id="node3" class="node">
<title>Node3</title>
<g id="a_node3"><a xlink:href="classMackey_1_1Mult__Graph__Identify.html" target="_top" xlink:title="Provides extra identification methods using triple box products.">
<polygon fill="white" stroke="black" points="11.5,-56.5 11.5,-86.5 126.5,-86.5 126.5,-56.5 11.5,-56.5"/>
<text text-anchor="start" x="19.5" y="-74.5" font-family="Helvetica,sans-Serif" font-size="10.00">Mult_Graph_Identify</text>
<text text-anchor="middle" x="69" y="-63.5" font-family="Helvetica,sans-Serif" font-size="10.00">&lt; group_t &gt;</text>
</a>
</g>
</g>
<!-- Node2&#45;&gt;Node3 -->
<g id="edge2" class="edge">
<title>Node2&#45;&gt;Node3</title>
<path fill="none" stroke="midnightblue" d="M69,-113.23C69,-104.59 69,-94.5 69,-86.52"/>
<polygon fill="midnightblue" stroke="midnightblue" points="65.5,-113.48 69,-123.48 72.5,-113.48 65.5,-113.48"/>
</g>
<!-- Node4 -->
<g id="node4" class="node">
<title>Node4</title>
<g id="a_node4"><a xlink:href="classMackey_1_1Factorization.html" target="_top" xlink:title="Factorizes generators into the given basic irreducibles and sources.">
<polygon fill="white" stroke="black" points="0,-0.5 0,-19.5 138,-19.5 138,-0.5 0,-0.5"/>
<text text-anchor="middle" x="69" y="-7.5" font-family="Helvetica,sans-Serif" font-size="10.00">Factorization&lt; group_t &gt;</text>
</a>
</g>
</g>
<!-- Node3&#45;&gt;Node4 -->
<g id="edge3" class="edge">
<title>Node3&#45;&gt;Node4</title>
<path fill="none" stroke="midnightblue" d="M69,-46.29C69,-36.86 69,-26.65 69,-19.66"/>
<polygon fill="midnightblue" stroke="midnightblue" points="65.5,-46.4 69,-56.4 72.5,-46.4 65.5,-46.4"/>
</g>
</g>
</svg>
