<?xml version="1.0" encoding="UTF-8" standalone="no"?>
<!DOCTYPE svg PUBLIC "-//W3C//DTD SVG 1.1//EN"
 "http://www.w3.org/Graphics/SVG/1.1/DTD/svg11.dtd">
<!-- Generated by graphviz version 2.43.0 (0)
 -->
<!-- Title: it_nnz_conditional&lt; T, bool &gt; Pages: 1 -->
<svg width="150pt" height="174pt"
 viewBox="0.00 0.00 150.00 174.00" xmlns="http://www.w3.org/2000/svg" xmlns:xlink="http://www.w3.org/1999/xlink">
<g id="graph0" class="graph" transform="scale(1 1) rotate(0) translate(4 170)">
<title>it_nnz_conditional&lt; T, bool &gt;</title>
<polygon fill="white" stroke="transparent" points="-4,4 -4,-170 146,-170 146,4 -4,4"/>
<!-- Node1 -->
<g id="node1" class="node">
<title>Node1</title>
<g id="a_node1"><a xlink:title="Helper class for iterating over nonzero entries in a sparse or dense Eigen matrix (offering consisten...">
<polygon fill="#bfbfbf" stroke="black" points="18.5,-135.5 18.5,-165.5 123.5,-165.5 123.5,-135.5 18.5,-135.5"/>
<text text-anchor="start" x="26.5" y="-153.5" font-family="Helvetica,sans-Serif" font-size="10.00">it_nnz_conditional</text>
<text text-anchor="middle" x="71" y="-142.5" font-family="Helvetica,sans-Serif" font-size="10.00">&lt; T, bool &gt;</text>
</a>
</g>
</g>
<!-- Node2 -->
<g id="node2" class="node">
<title>Node2</title>
<g id="a_node2"><a xlink:href="classMackey_1_1internal_1_1it__nnz__conditional.html" target="_top" xlink:title=" ">
<polygon fill="white" stroke="black" points="4,-68.5 4,-87.5 138,-87.5 138,-68.5 4,-68.5"/>
<text text-anchor="middle" x="71" y="-75.5" font-family="Helvetica,sans-Serif" font-size="10.00">it_nnz_conditional&lt; T &gt;</text>
</a>
</g>
</g>
<!-- Node1&#45;&gt;Node2 -->
<g id="edge1" class="edge">
<title>Node1&#45;&gt;Node2</title>
<path fill="none" stroke="orange" stroke-dasharray="5,2" d="M71,-125.09C71,-112.21 71,-97.2 71,-87.89"/>
<polygon fill="orange" stroke="orange" points="67.5,-125.23 71,-135.23 74.5,-125.23 67.5,-125.23"/>
<text text-anchor="middle" x="87" y="-109" font-family="Helvetica,sans-Serif" font-size="10.00"> &lt; T &gt;</text>
</g>
<!-- Node3 -->
<g id="node3" class="node">
<title>Node3</title>
<g id="a_node3"><a xlink:href="classMackey_1_1Iterator__NonZero__Entries.html" target="_top" xlink:title="Iterator over nonzero entries of blocks (lower right corners) of Eigen matrices, both sparse and dens...">
<polygon fill="white" stroke="black" points="0,-0.5 0,-30.5 142,-30.5 142,-0.5 0,-0.5"/>
<text text-anchor="start" x="8" y="-18.5" font-family="Helvetica,sans-Serif" font-size="10.00">Iterator_NonZero_Entries</text>
<text text-anchor="middle" x="71" y="-7.5" font-family="Helvetica,sans-Serif" font-size="10.00">&lt; T, row_only, col_only &gt;</text>
</a>
</g>
</g>
<!-- Node2&#45;&gt;Node3 -->
<g id="edge2" class="edge">
<title>Node2&#45;&gt;Node3</title>
<path fill="none" stroke="#8b1a1a" d="M71,-58.22C71,-49.36 71,-38.96 71,-30.76"/>
<polygon fill="#8b1a1a" stroke="#8b1a1a" points="67.5,-58.33 71,-68.33 74.5,-58.33 67.5,-58.33"/>
</g>
</g>
</svg>
