<?xml version="1.0" encoding="UTF-8" standalone="no"?>
<!DOCTYPE svg PUBLIC "-//W3C//DTD SVG 1.1//EN"
 "http://www.w3.org/Graphics/SVG/1.1/DTD/svg11.dtd">
<!-- Generated by graphviz version 2.43.0 (0)
 -->
<!-- Title: MultConnectivity&lt; group_t &gt; Pages: 1 -->
<svg width="863pt" height="88pt"
 viewBox="0.00 0.00 863.00 88.00" xmlns="http://www.w3.org/2000/svg" xmlns:xlink="http://www.w3.org/1999/xlink">
<g id="graph0" class="graph" transform="scale(1 1) rotate(0) translate(4 84)">
<title>MultConnectivity&lt; group_t &gt;</title>
<polygon fill="white" stroke="transparent" points="-4,4 -4,-84 859,-84 859,4 -4,4"/>
<!-- Node1 -->
<g id="node1" class="node">
<title>Node1</title>
<g id="a_node1"><a xlink:title="Finds the connectivity of the multiplication graph.">
<polygon fill="#bfbfbf" stroke="black" points="696,-35.5 696,-54.5 855,-54.5 855,-35.5 696,-35.5"/>
<text text-anchor="middle" x="775.5" y="-42.5" font-family="Helvetica,sans-Serif" font-size="10.00">MultConnectivity&lt; group_t &gt;</text>
</a>
</g>
</g>
<!-- Node2 -->
<g id="node2" class="node">
<title>Node2</title>
<g id="a_node2"><a xlink:href="classmackey_1_1MultGraph.html" target="_top" xlink:title="The Multiplication Graph created from the Multiplication Table.">
<polygon fill="white" stroke="black" points="532,-35.5 532,-54.5 659,-54.5 659,-35.5 532,-35.5"/>
<text text-anchor="middle" x="595.5" y="-42.5" font-family="Helvetica,sans-Serif" font-size="10.00">MultGraph&lt; group_t &gt;</text>
</a>
</g>
</g>
<!-- Node2&#45;&gt;Node1 -->
<g id="edge1" class="edge">
<title>Node2&#45;&gt;Node1</title>
<path fill="none" stroke="#8b1a1a" d="M669.21,-45C678,-45 687.02,-45 695.89,-45"/>
<polygon fill="#8b1a1a" stroke="#8b1a1a" points="669.01,-41.5 659.01,-45 669.01,-48.5 669.01,-41.5"/>
</g>
<!-- Node3 -->
<g id="node3" class="node">
<title>Node3</title>
<g id="a_node3"><a xlink:href="classmackey_1_1MultTable.html" target="_top" xlink:title="Forms the multiplication table.">
<polygon fill="white" stroke="black" points="320,-60.5 320,-79.5 443,-79.5 443,-60.5 320,-60.5"/>
<text text-anchor="middle" x="381.5" y="-67.5" font-family="Helvetica,sans-Serif" font-size="10.00">MultTable&lt; group_t &gt;</text>
</a>
</g>
</g>
<!-- Node3&#45;&gt;Node2 -->
<g id="edge2" class="edge">
<title>Node3&#45;&gt;Node2</title>
<path fill="none" stroke="midnightblue" d="M453.21,-61.66C478.66,-58.66 507.18,-55.3 531.9,-52.38"/>
<polygon fill="midnightblue" stroke="midnightblue" points="452.77,-58.19 443.25,-62.84 453.59,-65.14 452.77,-58.19"/>
</g>
<!-- Node4 -->
<g id="node4" class="node">
<title>Node4</title>
<g id="a_node4"><a xlink:href="structmackey_1_1MultTableData.html" target="_top" xlink:title="The data of the multiplication table.">
<polygon fill="white" stroke="black" points="0,-60.5 0,-79.5 146,-79.5 146,-60.5 0,-60.5"/>
<text text-anchor="middle" x="73" y="-67.5" font-family="Helvetica,sans-Serif" font-size="10.00">MultTableData&lt; group_t &gt;</text>
</a>
</g>
</g>
<!-- Node4&#45;&gt;Node3 -->
<g id="edge3" class="edge">
<title>Node4&#45;&gt;Node3</title>
<path fill="none" stroke="midnightblue" d="M156.36,-70C207.85,-70 273.05,-70 319.83,-70"/>
<polygon fill="midnightblue" stroke="midnightblue" points="156.25,-66.5 146.25,-70 156.25,-73.5 156.25,-66.5"/>
</g>
<!-- Node5 -->
<g id="node5" class="node">
<title>Node5</title>
<g id="a_node5"><a xlink:href="classmackey_1_1Graph.html" target="_top" xlink:title=" ">
<polygon fill="white" stroke="black" points="298,-0.5 298,-41.5 465,-41.5 465,-0.5 298,-0.5"/>
<text text-anchor="start" x="306" y="-29.5" font-family="Helvetica,sans-Serif" font-size="10.00">Graph&lt; Neighborhood</text>
<text text-anchor="start" x="306" y="-18.5" font-family="Helvetica,sans-Serif" font-size="10.00">&lt; size_t, bicolored</text>
<text text-anchor="middle" x="381.5" y="-7.5" font-family="Helvetica,sans-Serif" font-size="10.00">_edge_with_id, std::vector &gt; &gt;</text>
</a>
</g>
</g>
<!-- Node5&#45;&gt;Node2 -->
<g id="edge4" class="edge">
<title>Node5&#45;&gt;Node2</title>
<path fill="none" stroke="#9a32cd" stroke-dasharray="5,2" d="M475.04,-31.48C494.24,-33.65 514.03,-35.89 531.85,-37.91"/>
<polygon fill="#9a32cd" stroke="#9a32cd" points="475.4,-27.99 465.07,-30.35 474.61,-34.95 475.4,-27.99"/>
<text text-anchor="middle" x="498.5" y="-38" font-family="Helvetica,sans-Serif" font-size="10.00"> graph</text>
</g>
<!-- Node6 -->
<g id="node6" class="node">
<title>Node6</title>
<g id="a_node6"><a xlink:href="classmackey_1_1Graph.html" target="_top" xlink:title="A directed graph.">
<polygon fill="white" stroke="black" points="3,-11.5 3,-30.5 143,-30.5 143,-11.5 3,-11.5"/>
<text text-anchor="middle" x="73" y="-18.5" font-family="Helvetica,sans-Serif" font-size="10.00">Graph&lt; _neighborhood &gt;</text>
</a>
</g>
</g>
<!-- Node6&#45;&gt;Node5 -->
<g id="edge5" class="edge">
<title>Node6&#45;&gt;Node5</title>
<path fill="none" stroke="orange" stroke-dasharray="5,2" d="M153.34,-21C197.75,-21 253.06,-21 297.98,-21"/>
<polygon fill="orange" stroke="orange" points="153.17,-17.5 143.17,-21 153.17,-24.5 153.17,-17.5"/>
<text text-anchor="start" x="164" y="-46" font-family="Helvetica,sans-Serif" font-size="10.00"> &lt; Neighborhood&lt; size</text>
<text text-anchor="start" x="164" y="-35" font-family="Helvetica,sans-Serif" font-size="10.00">_t, bicolored_edge_with</text>
<text text-anchor="middle" x="222" y="-24" font-family="Helvetica,sans-Serif" font-size="10.00">_id, std::vector &gt; &gt;</text>
</g>
</g>
</svg>
