<?xml version="1.0" encoding="UTF-8" standalone="no"?>
<!DOCTYPE svg PUBLIC "-//W3C//DTD SVG 1.1//EN"
 "http://www.w3.org/Graphics/SVG/1.1/DTD/svg11.dtd">
<!-- Generated by graphviz version 2.43.0 (0)
 -->
<!-- Title: Green&lt; group_t &gt; Pages: 1 -->
<svg width="144pt" height="162pt"
 viewBox="0.00 0.00 144.00 162.00" xmlns="http://www.w3.org/2000/svg" xmlns:xlink="http://www.w3.org/1999/xlink">
<g id="graph0" class="graph" transform="scale(1 1) rotate(0) translate(4 158)">
<title>Green&lt; group_t &gt;</title>
<polygon fill="white" stroke="transparent" points="-4,4 -4,-158 140,-158 140,4 -4,4"/>
<!-- Node1 -->
<g id="node1" class="node">
<title>Node1</title>
<g id="a_node1"><a xlink:title="The result of multiplying generators in a Green functor.">
<polygon fill="#bfbfbf" stroke="black" points="15.5,-0.5 15.5,-19.5 120.5,-19.5 120.5,-0.5 15.5,-0.5"/>
<text text-anchor="middle" x="68" y="-7.5" font-family="Helvetica,sans-Serif" font-size="10.00">Green&lt; group_t &gt;</text>
</a>
</g>
</g>
<!-- Node2 -->
<g id="node2" class="node">
<title>Node2</title>
<g id="a_node2"><a xlink:href="classMackey_1_1AbelianGroup.html" target="_top" xlink:title=" ">
<polygon fill="white" stroke="black" points="0,-67.5 0,-86.5 136,-86.5 136,-67.5 0,-67.5"/>
<text text-anchor="middle" x="68" y="-74.5" font-family="Helvetica,sans-Serif" font-size="10.00">AbelianGroup&lt; rank_t &gt;</text>
</a>
</g>
</g>
<!-- Node2&#45;&gt;Node1 -->
<g id="edge1" class="edge">
<title>Node2&#45;&gt;Node1</title>
<path fill="none" stroke="#9a32cd" stroke-dasharray="5,2" d="M68,-57.04C68,-44.67 68,-29.12 68,-19.63"/>
<polygon fill="#9a32cd" stroke="#9a32cd" points="64.5,-57.23 68,-67.23 71.5,-57.23 64.5,-57.23"/>
<text text-anchor="middle" x="87" y="-41" font-family="Helvetica,sans-Serif" font-size="10.00"> Groups</text>
</g>
<!-- Node3 -->
<g id="node3" class="node">
<title>Node3</title>
<g id="a_node3"><a xlink:href="classMackey_1_1AbelianGroup.html" target="_top" xlink:title=" ">
<polygon fill="white" stroke="black" points="12.5,-134.5 12.5,-153.5 123.5,-153.5 123.5,-134.5 12.5,-134.5"/>
<text text-anchor="middle" x="68" y="-141.5" font-family="Helvetica,sans-Serif" font-size="10.00">AbelianGroup&lt; T &gt;</text>
</a>
</g>
</g>
<!-- Node3&#45;&gt;Node2 -->
<g id="edge2" class="edge">
<title>Node3&#45;&gt;Node2</title>
<path fill="none" stroke="orange" stroke-dasharray="5,2" d="M68,-124.04C68,-111.67 68,-96.12 68,-86.63"/>
<polygon fill="orange" stroke="orange" points="64.5,-124.23 68,-134.23 71.5,-124.23 64.5,-124.23"/>
<text text-anchor="middle" x="96.5" y="-108" font-family="Helvetica,sans-Serif" font-size="10.00"> &lt; rank_t &gt;</text>
</g>
</g>
</svg>
