<?xml version="1.0" encoding="UTF-8" standalone="no"?>
<!DOCTYPE svg PUBLIC "-//W3C//DTD SVG 1.1//EN"
 "http://www.w3.org/Graphics/SVG/1.1/DTD/svg11.dtd">
<!-- Generated by graphviz version 2.43.0 (0)
 -->
<!-- Title: IDGenerators&lt; rank_t &gt; Pages: 1 -->
<svg width="144pt" height="173pt"
 viewBox="0.00 0.00 144.00 173.00" xmlns="http://www.w3.org/2000/svg" xmlns:xlink="http://www.w3.org/1999/xlink">
<g id="graph0" class="graph" transform="scale(1 1) rotate(0) translate(4 169)">
<title>IDGenerators&lt; rank_t &gt;</title>
<polygon fill="white" stroke="transparent" points="-4,4 -4,-169 140,-169 140,4 -4,4"/>
<!-- Node1 -->
<g id="node1" class="node">
<title>Node1</title>
<g id="a_node1"><a xlink:title="Stores detailed identification data for the generators in non cyclic homology groups using the Mackey...">
<polygon fill="#bfbfbf" stroke="black" points="1,-0.5 1,-19.5 135,-19.5 135,-0.5 1,-0.5"/>
<text text-anchor="middle" x="68" y="-7.5" font-family="Helvetica,sans-Serif" font-size="10.00">IDGenerators&lt; rank_t &gt;</text>
</a>
</g>
</g>
<!-- Node2 -->
<g id="node2" class="node">
<title>Node2</title>
<g id="a_node2"><a xlink:href="classMackey_1_1AbelianGroup.html" target="_top" xlink:title=" ">
<polygon fill="white" stroke="black" points="0,-78.5 0,-97.5 136,-97.5 136,-78.5 0,-78.5"/>
<text text-anchor="middle" x="68" y="-85.5" font-family="Helvetica,sans-Serif" font-size="10.00">AbelianGroup&lt; rank_t &gt;</text>
</a>
</g>
</g>
<!-- Node2&#45;&gt;Node1 -->
<g id="edge1" class="edge">
<title>Node2&#45;&gt;Node1</title>
<path fill="none" stroke="#9a32cd" stroke-dasharray="5,2" d="M68,-68.22C68,-52.7 68,-31.36 68,-19.62"/>
<polygon fill="#9a32cd" stroke="#9a32cd" points="64.5,-68.28 68,-78.28 71.5,-68.28 64.5,-68.28"/>
<text text-anchor="middle" x="98.5" y="-52" font-family="Helvetica,sans-Serif" font-size="10.00"> group</text>
<text text-anchor="middle" x="98.5" y="-41" font-family="Helvetica,sans-Serif" font-size="10.00">group_lower</text>
</g>
<!-- Node3 -->
<g id="node3" class="node">
<title>Node3</title>
<g id="a_node3"><a xlink:href="classMackey_1_1AbelianGroup.html" target="_top" xlink:title=" ">
<polygon fill="white" stroke="black" points="12.5,-145.5 12.5,-164.5 123.5,-164.5 123.5,-145.5 12.5,-145.5"/>
<text text-anchor="middle" x="68" y="-152.5" font-family="Helvetica,sans-Serif" font-size="10.00">AbelianGroup&lt; T &gt;</text>
</a>
</g>
</g>
<!-- Node3&#45;&gt;Node2 -->
<g id="edge2" class="edge">
<title>Node3&#45;&gt;Node2</title>
<path fill="none" stroke="orange" stroke-dasharray="5,2" d="M68,-135.04C68,-122.67 68,-107.12 68,-97.63"/>
<polygon fill="orange" stroke="orange" points="64.5,-135.23 68,-145.23 71.5,-135.23 64.5,-135.23"/>
<text text-anchor="middle" x="96.5" y="-119" font-family="Helvetica,sans-Serif" font-size="10.00"> &lt; rank_t &gt;</text>
</g>
</g>
</svg>
