<?xml version="1.0" encoding="UTF-8" standalone="no"?>
<!DOCTYPE svg PUBLIC "-//W3C//DTD SVG 1.1//EN"
 "http://www.w3.org/Graphics/SVG/1.1/DTD/svg11.dtd">
<!-- Generated by graphviz version 2.43.0 (0)
 -->
<!-- Title: MinLength&lt; graph_t &gt; Pages: 1 -->
<svg width="194pt" height="185pt"
 viewBox="0.00 0.00 193.50 185.00" xmlns="http://www.w3.org/2000/svg" xmlns:xlink="http://www.w3.org/1999/xlink">
<g id="graph0" class="graph" transform="scale(1 1) rotate(0) translate(4 181)">
<title>MinLength&lt; graph_t &gt;</title>
<polygon fill="white" stroke="transparent" points="-4,4 -4,-181 189.5,-181 189.5,4 -4,4"/>
<!-- Node1 -->
<g id="node1" class="node">
<title>Node1</title>
<g id="a_node1"><a xlink:title="ShortestPaths policy that minimizes the length of each path.">
<polygon fill="#bfbfbf" stroke="black" points="13,-0.5 13,-19.5 140,-19.5 140,-0.5 13,-0.5"/>
<text text-anchor="middle" x="76.5" y="-7.5" font-family="Helvetica,sans-Serif" font-size="10.00">MinLength&lt; graph_t &gt;</text>
</a>
</g>
</g>
<!-- Node2 -->
<g id="node2" class="node">
<title>Node2</title>
<g id="a_node2"><a xlink:href="classmackey_1_1ShortestPaths.html" target="_top" xlink:title=" ">
<polygon fill="white" stroke="black" points="0,-57.5 0,-87.5 153,-87.5 153,-57.5 0,-57.5"/>
<text text-anchor="start" x="8" y="-75.5" font-family="Helvetica,sans-Serif" font-size="10.00">ShortestPaths&lt; graph</text>
<text text-anchor="middle" x="76.5" y="-64.5" font-family="Helvetica,sans-Serif" font-size="10.00">_t, MinLength&lt; graph_t &gt; &gt;</text>
</a>
</g>
</g>
<!-- Node2&#45;&gt;Node1 -->
<g id="edge1" class="edge">
<title>Node2&#45;&gt;Node1</title>
<path fill="none" stroke="midnightblue" d="M76.5,-47.35C76.5,-37.51 76.5,-26.78 76.5,-19.54"/>
<polygon fill="midnightblue" stroke="midnightblue" points="73,-47.47 76.5,-57.47 80,-47.47 73,-47.47"/>
</g>
<!-- Node3 -->
<g id="node3" class="node">
<title>Node3</title>
<g id="a_node3"><a xlink:href="classmackey_1_1ShortestPaths.html" target="_top" xlink:title="The shortest paths from a collection of sources to all points in a graph.">
<polygon fill="white" stroke="black" points="15.5,-146.5 15.5,-176.5 137.5,-176.5 137.5,-146.5 15.5,-146.5"/>
<text text-anchor="start" x="23.5" y="-164.5" font-family="Helvetica,sans-Serif" font-size="10.00">ShortestPaths&lt; graph</text>
<text text-anchor="middle" x="76.5" y="-153.5" font-family="Helvetica,sans-Serif" font-size="10.00">_t, policy_t &gt;</text>
</a>
</g>
</g>
<!-- Node3&#45;&gt;Node2 -->
<g id="edge2" class="edge">
<title>Node3&#45;&gt;Node2</title>
<path fill="none" stroke="orange" stroke-dasharray="5,2" d="M76.5,-136.09C76.5,-120.44 76.5,-100.68 76.5,-87.6"/>
<polygon fill="orange" stroke="orange" points="73,-136.13 76.5,-146.13 80,-136.13 73,-136.13"/>
<text text-anchor="start" x="76.5" y="-120" font-family="Helvetica,sans-Serif" font-size="10.00"> &lt; graph_t, MinLength</text>
<text text-anchor="middle" x="131" y="-109" font-family="Helvetica,sans-Serif" font-size="10.00">&lt; graph_t &gt; &gt;</text>
</g>
</g>
</svg>
