<?xml version="1.0" encoding="UTF-8" standalone="no"?>
<!DOCTYPE svg PUBLIC "-//W3C//DTD SVG 1.1//EN"
 "http://www.w3.org/Graphics/SVG/1.1/DTD/svg11.dtd">
<!-- Generated by graphviz version 2.43.0 (0)
 -->
<!-- Title: MultTable&lt; group_t &gt; Pages: 1 -->
<svg width="324pt" height="196pt"
 viewBox="0.00 0.00 323.50 196.00" xmlns="http://www.w3.org/2000/svg" xmlns:xlink="http://www.w3.org/1999/xlink">
<g id="graph0" class="graph" transform="scale(1 1) rotate(0) translate(4 192)">
<title>MultTable&lt; group_t &gt;</title>
<polygon fill="white" stroke="transparent" points="-4,4 -4,-192 319.5,-192 319.5,4 -4,4"/>
<!-- Node1 -->
<g id="node1" class="node">
<title>Node1</title>
<g id="a_node1"><a xlink:title="Forms the multiplication table.">
<polygon fill="#bfbfbf" stroke="black" points="90.5,-112.5 90.5,-131.5 213.5,-131.5 213.5,-112.5 90.5,-112.5"/>
<text text-anchor="middle" x="152" y="-119.5" font-family="Helvetica,sans-Serif" font-size="10.00">MultTable&lt; group_t &gt;</text>
</a>
</g>
</g>
<!-- Node3 -->
<g id="node3" class="node">
<title>Node3</title>
<g id="a_node3"><a xlink:href="classmackey_1_1MultGraph.html" target="_top" xlink:title="The Multiplication Graph created from the Multiplication Table.">
<polygon fill="white" stroke="black" points="88.5,-56.5 88.5,-75.5 215.5,-75.5 215.5,-56.5 88.5,-56.5"/>
<text text-anchor="middle" x="152" y="-63.5" font-family="Helvetica,sans-Serif" font-size="10.00">MultGraph&lt; group_t &gt;</text>
</a>
</g>
</g>
<!-- Node1&#45;&gt;Node3 -->
<g id="edge2" class="edge">
<title>Node1&#45;&gt;Node3</title>
<path fill="none" stroke="midnightblue" d="M152,-101.8C152,-92.91 152,-82.78 152,-75.75"/>
<polygon fill="midnightblue" stroke="midnightblue" points="148.5,-102.08 152,-112.08 155.5,-102.08 148.5,-102.08"/>
</g>
<!-- Node2 -->
<g id="node2" class="node">
<title>Node2</title>
<g id="a_node2"><a xlink:href="structmackey_1_1MultTableData.html" target="_top" xlink:title="The data of the multiplication table.">
<polygon fill="white" stroke="black" points="79,-168.5 79,-187.5 225,-187.5 225,-168.5 79,-168.5"/>
<text text-anchor="middle" x="152" y="-175.5" font-family="Helvetica,sans-Serif" font-size="10.00">MultTableData&lt; group_t &gt;</text>
</a>
</g>
</g>
<!-- Node2&#45;&gt;Node1 -->
<g id="edge1" class="edge">
<title>Node2&#45;&gt;Node1</title>
<path fill="none" stroke="midnightblue" d="M152,-157.8C152,-148.91 152,-138.78 152,-131.75"/>
<polygon fill="midnightblue" stroke="midnightblue" points="148.5,-158.08 152,-168.08 155.5,-158.08 148.5,-158.08"/>
</g>
<!-- Node4 -->
<g id="node4" class="node">
<title>Node4</title>
<g id="a_node4"><a xlink:href="classmackey_1_1Factorization.html" target="_top" xlink:title="Factorizes generators into the given basic irreducibles and sources.">
<polygon fill="white" stroke="black" points="0,-0.5 0,-19.5 138,-19.5 138,-0.5 0,-0.5"/>
<text text-anchor="middle" x="69" y="-7.5" font-family="Helvetica,sans-Serif" font-size="10.00">Factorization&lt; group_t &gt;</text>
</a>
</g>
</g>
<!-- Node3&#45;&gt;Node4 -->
<g id="edge3" class="edge">
<title>Node3&#45;&gt;Node4</title>
<path fill="none" stroke="midnightblue" d="M129.9,-50.62C114.74,-40.76 95.12,-27.99 82.3,-19.65"/>
<polygon fill="midnightblue" stroke="midnightblue" points="128.37,-53.8 138.66,-56.32 132.19,-47.94 128.37,-53.8"/>
</g>
<!-- Node5 -->
<g id="node5" class="node">
<title>Node5</title>
<g id="a_node5"><a xlink:href="classmackey_1_1MultConnectivity.html" target="_top" xlink:title="Finds the connectivity of the multiplication graph.">
<polygon fill="white" stroke="black" points="156.5,-0.5 156.5,-19.5 315.5,-19.5 315.5,-0.5 156.5,-0.5"/>
<text text-anchor="middle" x="236" y="-7.5" font-family="Helvetica,sans-Serif" font-size="10.00">MultConnectivity&lt; group_t &gt;</text>
</a>
</g>
</g>
<!-- Node3&#45;&gt;Node5 -->
<g id="edge4" class="edge">
<title>Node3&#45;&gt;Node5</title>
<path fill="none" stroke="#8b1a1a" d="M173.93,-50.9C189.34,-41 209.45,-28.07 222.54,-19.65"/>
<polygon fill="#8b1a1a" stroke="#8b1a1a" points="172.02,-47.97 165.5,-56.32 175.8,-53.86 172.02,-47.97"/>
</g>
</g>
</svg>
