<?xml version="1.0" encoding="UTF-8" standalone="no"?>
<!DOCTYPE svg PUBLIC "-//W3C//DTD SVG 1.1//EN"
 "http://www.w3.org/Graphics/SVG/1.1/DTD/svg11.dtd">
<!-- Generated by graphviz version 2.43.0 (0)
 -->
<!-- Title: Space&lt; space_t, group_t &gt; Pages: 1 -->
<svg width="192pt" height="174pt"
 viewBox="0.00 0.00 191.50 174.00" xmlns="http://www.w3.org/2000/svg" xmlns:xlink="http://www.w3.org/1999/xlink">
<g id="graph0" class="graph" transform="scale(1 1) rotate(0) translate(4 170)">
<title>Space&lt; space_t, group_t &gt;</title>
<polygon fill="white" stroke="transparent" points="-4,4 -4,-170 187.5,-170 187.5,4 -4,4"/>
<!-- Node1 -->
<g id="node1" class="node">
<title>Node1</title>
<g id="a_node1"><a xlink:title="An equivariant space with an equivariant cellular decomposition.">
<polygon fill="#bfbfbf" stroke="black" points="0,-146.5 0,-165.5 149,-165.5 149,-146.5 0,-146.5"/>
<text text-anchor="middle" x="74.5" y="-153.5" font-family="Helvetica,sans-Serif" font-size="10.00">Space&lt; space_t, group_t &gt;</text>
</a>
</g>
</g>
<!-- Node2 -->
<g id="node2" class="node">
<title>Node2</title>
<g id="a_node2"><a xlink:href="classmackey_1_1Space.html" target="_top" xlink:title=" ">
<polygon fill="white" stroke="black" points="10.5,-57.5 10.5,-87.5 138.5,-87.5 138.5,-57.5 10.5,-57.5"/>
<text text-anchor="start" x="18.5" y="-75.5" font-family="Helvetica,sans-Serif" font-size="10.00">Space&lt; BC4S2&lt; group</text>
<text text-anchor="middle" x="74.5" y="-64.5" font-family="Helvetica,sans-Serif" font-size="10.00">_t &gt;, group_t &gt;</text>
</a>
</g>
</g>
<!-- Node1&#45;&gt;Node2 -->
<g id="edge1" class="edge">
<title>Node1&#45;&gt;Node2</title>
<path fill="none" stroke="orange" stroke-dasharray="5,2" d="M74.5,-136.23C74.5,-121.41 74.5,-101.05 74.5,-87.6"/>
<polygon fill="orange" stroke="orange" points="71,-136.28 74.5,-146.28 78,-136.28 71,-136.28"/>
<text text-anchor="start" x="74.5" y="-120" font-family="Helvetica,sans-Serif" font-size="10.00"> &lt; BC4S2&lt; group_t &gt;,</text>
<text text-anchor="middle" x="129" y="-109" font-family="Helvetica,sans-Serif" font-size="10.00"> group_t &gt;</text>
</g>
<!-- Node3 -->
<g id="node3" class="node">
<title>Node3</title>
<g id="a_node3"><a xlink:href="classmackey_1_1BC4S2.html" target="_top" xlink:title="The space &#160;up to given dimension.">
<polygon fill="white" stroke="black" points="21,-0.5 21,-19.5 128,-19.5 128,-0.5 21,-0.5"/>
<text text-anchor="middle" x="74.5" y="-7.5" font-family="Helvetica,sans-Serif" font-size="10.00">BC4S2&lt; group_t &gt;</text>
</a>
</g>
</g>
<!-- Node2&#45;&gt;Node3 -->
<g id="edge2" class="edge">
<title>Node2&#45;&gt;Node3</title>
<path fill="none" stroke="midnightblue" d="M74.5,-47.35C74.5,-37.51 74.5,-26.78 74.5,-19.54"/>
<polygon fill="midnightblue" stroke="midnightblue" points="71,-47.47 74.5,-57.47 78,-47.47 71,-47.47"/>
</g>
</g>
</svg>
