<?xml version="1.0" encoding="UTF-8" standalone="no"?>
<!DOCTYPE svg PUBLIC "-//W3C//DTD SVG 1.1//EN"
 "http://www.w3.org/Graphics/SVG/1.1/DTD/svg11.dtd">
<!-- Generated by graphviz version 2.43.0 (0)
 -->
<!-- Title: ShortestPaths&lt; graph_t &gt; Pages: 1 -->
<!--zoomable 146 -->
<svg id="main" version="1.1" xmlns="http://www.w3.org/2000/svg" xmlns:xlink="http://www.w3.org/1999/xlink" xml:space="preserve" onload="init(evt)">
<style type="text/css"><![CDATA[
.edge:hover path { stroke: red; }
.edge:hover polygon { stroke: red; fill: red; }
]]></style>
<script type="text/javascript"><![CDATA[
var edges = document.getElementsByTagName('g');
if (edges && edges.length) {
  for (var i=0;i<edges.length;i++) {
    if (edges[i].id.substr(0,4)=='edge') {
      edges[i].setAttribute('class','edge');
    }
  }
}
]]></script>
        <defs>
                <circle id="rim" cx="0" cy="0" r="7"/>
                <circle id="rim2" cx="0" cy="0" r="3.5"/>
                <g id="zoomPlus">
                        <use xlink:href="#rim" fill="#404040">
                                <set attributeName="fill" to="#808080" begin="zoomplus.mouseover" end="zoomplus.mouseout"/>
                        </use>
                        <path d="M-4,0h8M0,-4v8" fill="none" stroke="white" stroke-width="1.5" pointer-events="none"/>
                </g>
                <g id="zoomMin">
                        <use xlink:href="#rim" fill="#404040">
                                <set attributeName="fill" to="#808080" begin="zoomminus.mouseover" end="zoomminus.mouseout"/>
                        </use>
                        <path d="M-4,0h8" fill="none" stroke="white" stroke-width="1.5" pointer-events="none"/>
                </g>
                <g id="dirArrow">
                        <path fill="none" stroke="white" stroke-width="1.5" d="M0,-3.0v7 M-2.5,-0.5L0,-3.0L2.5,-0.5"/>
                </g>
               <g id="resetDef">
                       <use xlink:href="#rim2" fill="#404040">
                               <set attributeName="fill" to="#808080" begin="reset.mouseover" end="reset.mouseout"/>
                       </use>
               </g>
        </defs>

<script type="text/javascript">
var viewWidth = 1111;
var viewHeight = 146;
var sectionId = 'dynsection-0';
</script>
<script xlink:href="svgpan.js"/>
<svg id="graph" class="graph">
<g id="viewport">
<title>ShortestPaths&lt; graph_t &gt;</title>
<polygon fill="white" stroke="transparent" points="-4,4 -4,-141.5 1107,-141.5 1107,4 -4,4"/>
<!-- Node1 -->
<g id="node1" class="node">
<title>Node1</title>
<g id="a_node1"><a xlink:title="The shortest paths from a collection of sources to all points in a graph.">
<polygon fill="#bfbfbf" stroke="black" points="0,-63 0,-82 143,-82 143,-63 0,-63"/>
<text text-anchor="middle" x="71.5" y="-70" font-family="Helvetica,sans-Serif" font-size="10.00">ShortestPaths&lt; graph_t &gt;</text>
</a>
</g>
</g>
<!-- Node2 -->
<g id="node2" class="node">
<title>Node2</title>
<g id="a_node2"><a xlink:href="classmackey_1_1Dijkstra.html" target="_top" xlink:title=" ">
<polygon fill="white" stroke="black" points="476.5,-101.5 476.5,-131.5 617.5,-131.5 617.5,-101.5 476.5,-101.5"/>
<text text-anchor="start" x="484.5" y="-119.5" font-family="Helvetica,sans-Serif" font-size="10.00">Dijkstra&lt; graph_t,</text>
<text text-anchor="middle" x="547" y="-108.5" font-family="Helvetica,sans-Serif" font-size="10.00"> MinLength&lt; graph_t &gt; &gt;</text>
</a>
</g>
</g>
<!-- Node1&#45;&gt;Node2 -->
<g id="edge1" class="edge">
<title>Node1&#45;&gt;Node2</title>
<path fill="none" stroke="midnightblue" d="M111.84,-85.05C157.49,-98.9 235.29,-120.31 304,-128.5 365.34,-135.81 381.33,-132.08 443,-128.5 453.78,-127.87 465.17,-126.88 476.29,-125.73"/>
<polygon fill="midnightblue" stroke="midnightblue" points="112.64,-81.63 102.05,-82.05 110.59,-88.33 112.64,-81.63"/>
</g>
<!-- Node5 -->
<g id="node5" class="node">
<title>Node5</title>
<g id="a_node5"><a xlink:href="classmackey_1_1Dijkstra.html" target="_top" xlink:title=" ">
<polygon fill="white" stroke="black" points="461,-0.5 461,-30.5 633,-30.5 633,-0.5 461,-0.5"/>
<text text-anchor="start" x="469" y="-18.5" font-family="Helvetica,sans-Serif" font-size="10.00">Dijkstra&lt; graph_t,</text>
<text text-anchor="middle" x="547" y="-7.5" font-family="Helvetica,sans-Serif" font-size="10.00"> MinColorsLength&lt; graph_t &gt; &gt;</text>
</a>
</g>
</g>
<!-- Node1&#45;&gt;Node5 -->
<g id="edge4" class="edge">
<title>Node1&#45;&gt;Node5</title>
<path fill="none" stroke="midnightblue" d="M111.85,-60C157.5,-46.2 235.31,-24.83 304,-16.5 355.82,-10.21 414.35,-9.79 460.86,-11.03"/>
<polygon fill="midnightblue" stroke="midnightblue" points="110.6,-56.72 102.06,-62.99 112.65,-63.42 110.6,-56.72"/>
</g>
<!-- Node7 -->
<g id="node7" class="node">
<title>Node7</title>
<g id="a_node7"><a xlink:href="classmackey_1_1Dijkstra.html" target="_top" xlink:title="The Dijkstra algorithm producing the shortest paths.">
<polygon fill="white" stroke="black" points="180,-57.5 180,-87.5 286,-87.5 286,-57.5 180,-57.5"/>
<text text-anchor="start" x="188" y="-75.5" font-family="Helvetica,sans-Serif" font-size="10.00">Dijkstra&lt; graph_t,</text>
<text text-anchor="middle" x="233" y="-64.5" font-family="Helvetica,sans-Serif" font-size="10.00"> policy_t &gt;</text>
</a>
</g>
</g>
<!-- Node1&#45;&gt;Node7 -->
<g id="edge6" class="edge">
<title>Node1&#45;&gt;Node7</title>
<path fill="none" stroke="midnightblue" d="M153.53,-72.5C162.52,-72.5 171.5,-72.5 179.99,-72.5"/>
<polygon fill="midnightblue" stroke="midnightblue" points="153.39,-69 143.39,-72.5 153.39,-76 153.39,-69"/>
</g>
<!-- Node3 -->
<g id="node3" class="node">
<title>Node3</title>
<g id="a_node3"><a xlink:href="classmackey_1_1MinLength.html" target="_top" xlink:title="Dijkstra policy that minimizes the length of each path.">
<polygon fill="white" stroke="black" points="685.5,-104 685.5,-123 812.5,-123 812.5,-104 685.5,-104"/>
<text text-anchor="middle" x="749" y="-111" font-family="Helvetica,sans-Serif" font-size="10.00">MinLength&lt; graph_t &gt;</text>
</a>
</g>
</g>
<!-- Node2&#45;&gt;Node3 -->
<g id="edge2" class="edge">
<title>Node2&#45;&gt;Node3</title>
<path fill="none" stroke="midnightblue" d="M627.85,-115.3C646.95,-115.02 667.07,-114.71 685.26,-114.44"/>
<polygon fill="midnightblue" stroke="midnightblue" points="627.62,-111.81 617.67,-115.45 627.72,-118.8 627.62,-111.81"/>
</g>
<!-- Node4 -->
<g id="node4" class="node">
<title>Node4</title>
<g id="a_node4"><a xlink:href="classmackey_1_1MinLength.html" target="_top" xlink:title=" ">
<polygon fill="white" stroke="black" points="975,-68 975,-109 1103,-109 1103,-68 975,-68"/>
<text text-anchor="start" x="983" y="-97" font-family="Helvetica,sans-Serif" font-size="10.00">MinLength&lt; typename</text>
<text text-anchor="start" x="983" y="-86" font-family="Helvetica,sans-Serif" font-size="10.00"> mackey::MultGraph&lt;</text>
<text text-anchor="middle" x="1039" y="-75" font-family="Helvetica,sans-Serif" font-size="10.00"> group_t &gt;::graph_t &gt;</text>
</a>
</g>
</g>
<!-- Node3&#45;&gt;Node4 -->
<g id="edge3" class="edge">
<title>Node3&#45;&gt;Node4</title>
<path fill="none" stroke="orange" stroke-dasharray="5,2" d="M822.93,-107.17C869.77,-103.1 929.99,-97.88 974.79,-93.99"/>
<polygon fill="orange" stroke="orange" points="822.51,-103.69 812.85,-108.04 823.11,-110.67 822.51,-103.69"/>
<text text-anchor="start" x="846" y="-129.5" font-family="Helvetica,sans-Serif" font-size="10.00"> &lt; typename mackey::</text>
<text text-anchor="start" x="846" y="-118.5" font-family="Helvetica,sans-Serif" font-size="10.00">MultGraph&lt; group_t &gt;</text>
<text text-anchor="middle" x="901.5" y="-107.5" font-family="Helvetica,sans-Serif" font-size="10.00">::graph_t &gt;</text>
</g>
<!-- Node6 -->
<g id="node6" class="node">
<title>Node6</title>
<g id="a_node6"><a xlink:href="classmackey_1_1MinColorsLength.html" target="_top" xlink:title="Dijkstra policy that minimizes the color alterations and length.">
<polygon fill="white" stroke="black" points="670,-6 670,-25 828,-25 828,-6 670,-6"/>
<text text-anchor="middle" x="749" y="-13" font-family="Helvetica,sans-Serif" font-size="10.00">MinColorsLength&lt; graph_t &gt;</text>
</a>
</g>
</g>
<!-- Node5&#45;&gt;Node6 -->
<g id="edge5" class="edge">
<title>Node5&#45;&gt;Node6</title>
<path fill="none" stroke="midnightblue" d="M643.19,-15.5C652.15,-15.5 661.17,-15.5 669.95,-15.5"/>
<polygon fill="midnightblue" stroke="midnightblue" points="643.11,-12 633.11,-15.5 643.11,-19 643.11,-12"/>
</g>
<!-- Node7&#45;&gt;Node2 -->
<g id="edge8" class="edge">
<title>Node7&#45;&gt;Node2</title>
<path fill="none" stroke="orange" stroke-dasharray="5,2" d="M296.37,-82.37C298.94,-82.75 301.5,-83.13 304,-83.5 362,-92.01 427.93,-100.95 476.32,-107.38"/>
<polygon fill="orange" stroke="orange" points="296.76,-78.89 286.35,-80.85 295.71,-85.81 296.76,-78.89"/>
<text text-anchor="start" x="319" y="-116.5" font-family="Helvetica,sans-Serif" font-size="10.00"> &lt; graph_t, MinLength</text>
<text text-anchor="middle" x="373.5" y="-105.5" font-family="Helvetica,sans-Serif" font-size="10.00">&lt; graph_t &gt; &gt;</text>
</g>
<!-- Node7&#45;&gt;Node4 -->
<g id="edge7" class="edge">
<title>Node7&#45;&gt;Node4</title>
<path fill="none" stroke="midnightblue" d="M296.52,-73.74C446.3,-76.72 824.38,-84.25 974.83,-87.24"/>
<polygon fill="midnightblue" stroke="midnightblue" points="296.2,-70.24 286.13,-73.54 296.06,-77.24 296.2,-70.24"/>
</g>
<!-- Node7&#45;&gt;Node5 -->
<g id="edge9" class="edge">
<title>Node7&#45;&gt;Node5</title>
<path fill="none" stroke="orange" stroke-dasharray="5,2" d="M266.43,-52.5C277.9,-46.34 291.15,-40.21 304,-36.5 354.75,-21.86 413.77,-16.52 460.82,-14.88"/>
<polygon fill="orange" stroke="orange" points="264.68,-49.47 257.65,-57.4 268.09,-55.58 264.68,-49.47"/>
<text text-anchor="start" x="304" y="-50.5" font-family="Helvetica,sans-Serif" font-size="10.00"> &lt; graph_t, MinColorsLength</text>
<text text-anchor="middle" x="373.5" y="-39.5" font-family="Helvetica,sans-Serif" font-size="10.00">&lt; graph_t &gt; &gt;</text>
</g>
</g>
</svg>
        <g id="navigator" transform="translate(0 0)" fill="#404254">
                <rect fill="#f2f5e9" fill-opacity="0.5" stroke="#606060" stroke-width=".5" x="0" y="0" width="60" height="60"/>
                <use id="zoomplus" xlink:href="#zoomPlus" x="17" y="9" onmousedown="handleZoom(evt,'in')"/>
                <use id="zoomminus" xlink:href="#zoomMin" x="42" y="9" onmousedown="handleZoom(evt,'out')"/>
                <use id="reset" xlink:href="#resetDef" x="30" y="36" onmousedown="handleReset()"/>
                <g id="arrowUp" xlink:href="#dirArrow" transform="translate(30 24)" onmousedown="handlePan(0,-1)">
                  <use xlink:href="#rim" fill="#404040">
                        <set attributeName="fill" to="#808080" begin="arrowUp.mouseover" end="arrowUp.mouseout"/>
                  </use>
                  <path fill="none" stroke="white" stroke-width="1.5" d="M0,-3.0v7 M-2.5,-0.5L0,-3.0L2.5,-0.5"/>
                </g>
                <g id="arrowRight" xlink:href="#dirArrow" transform="rotate(90) translate(36 -43)" onmousedown="handlePan(1,0)">
                  <use xlink:href="#rim" fill="#404040">
                        <set attributeName="fill" to="#808080" begin="arrowRight.mouseover" end="arrowRight.mouseout"/>
                  </use>
                  <path fill="none" stroke="white" stroke-width="1.5" d="M0,-3.0v7 M-2.5,-0.5L0,-3.0L2.5,-0.5"/>
                </g>
                <g id="arrowDown" xlink:href="#dirArrow" transform="rotate(180) translate(-30 -48)" onmousedown="handlePan(0,1)">
                  <use xlink:href="#rim" fill="#404040">
                        <set attributeName="fill" to="#808080" begin="arrowDown.mouseover" end="arrowDown.mouseout"/>
                  </use>
                  <path fill="none" stroke="white" stroke-width="1.5" d="M0,-3.0v7 M-2.5,-0.5L0,-3.0L2.5,-0.5"/>
                </g>
                <g id="arrowLeft" xlink:href="#dirArrow" transform="rotate(270) translate(-36 17)" onmousedown="handlePan(-1,0)">
                  <use xlink:href="#rim" fill="#404040">
                        <set attributeName="fill" to="#808080" begin="arrowLeft.mouseover" end="arrowLeft.mouseout"/>
                  </use>
                  <path fill="none" stroke="white" stroke-width="1.5" d="M0,-3.0v7 M-2.5,-0.5L0,-3.0L2.5,-0.5"/>
                </g>
        </g>
        <svg viewBox="0 0 15 15" width="100%" height="30px" preserveAspectRatio="xMaxYMin meet">
         <g id="arrow_out" transform="scale(0.3 0.3)">
          <a xlink:href="classmackey_1_1ShortestPaths__inherit__graph_org.svg" target="_base">
           <rect id="button" ry="5" rx="5" y="6" x="6" height="38" width="38"
                fill="#f2f5e9" fill-opacity="0.5" stroke="#606060" stroke-width="1.0"/>
           <path id="arrow"
             d="M 11.500037,31.436501 C 11.940474,20.09759 22.043105,11.32322 32.158766,21.979434 L 37.068811,17.246167 C 37.068811,17.246167 37.088388,32 37.088388,32 L 22.160133,31.978069 C 22.160133,31.978069 26.997745,27.140456 26.997745,27.140456 C 18.528582,18.264221 13.291696,25.230495 11.500037,31.436501 z"
             style="fill:#404040;"/>
          </a>
         </g>
        </svg>
</svg>
