<?xml version="1.0" encoding="UTF-8" standalone="no"?>
<!DOCTYPE svg PUBLIC "-//W3C//DTD SVG 1.1//EN"
 "http://www.w3.org/Graphics/SVG/1.1/DTD/svg11.dtd">
<!-- Generated by graphviz version 2.43.0 (0)
 -->
<!-- Title: Homology&lt; rank_t, diff_t &gt; Pages: 1 -->
<svg width="159pt" height="162pt"
 viewBox="0.00 0.00 159.00 162.00" xmlns="http://www.w3.org/2000/svg" xmlns:xlink="http://www.w3.org/1999/xlink">
<g id="graph0" class="graph" transform="scale(1 1) rotate(0) translate(4 158)">
<title>Homology&lt; rank_t, diff_t &gt;</title>
<polygon fill="white" stroke="transparent" points="-4,4 -4,-158 155,-158 155,4 -4,4"/>
<!-- Node1 -->
<g id="node1" class="node">
<title>Node1</title>
<g id="a_node1"><a xlink:title="The Homology of a Junction.">
<polygon fill="#bfbfbf" stroke="black" points="0,-0.5 0,-19.5 151,-19.5 151,-0.5 0,-0.5"/>
<text text-anchor="middle" x="75.5" y="-7.5" font-family="Helvetica,sans-Serif" font-size="10.00">Homology&lt; rank_t, diff_t &gt;</text>
</a>
</g>
</g>
<!-- Node2 -->
<g id="node2" class="node">
<title>Node2</title>
<g id="a_node2"><a xlink:href="classMackey_1_1AbelianGroup.html" target="_top" xlink:title=" ">
<polygon fill="white" stroke="black" points="7.5,-67.5 7.5,-86.5 143.5,-86.5 143.5,-67.5 7.5,-67.5"/>
<text text-anchor="middle" x="75.5" y="-74.5" font-family="Helvetica,sans-Serif" font-size="10.00">AbelianGroup&lt; rank_t &gt;</text>
</a>
</g>
</g>
<!-- Node2&#45;&gt;Node1 -->
<g id="edge1" class="edge">
<title>Node2&#45;&gt;Node1</title>
<path fill="none" stroke="#9a32cd" stroke-dasharray="5,2" d="M75.5,-57.04C75.5,-44.67 75.5,-29.12 75.5,-19.63"/>
<polygon fill="#9a32cd" stroke="#9a32cd" points="72,-57.23 75.5,-67.23 79,-57.23 72,-57.23"/>
<text text-anchor="middle" x="94.5" y="-41" font-family="Helvetica,sans-Serif" font-size="10.00"> Groups</text>
</g>
<!-- Node3 -->
<g id="node3" class="node">
<title>Node3</title>
<g id="a_node3"><a xlink:href="classMackey_1_1AbelianGroup.html" target="_top" xlink:title=" ">
<polygon fill="white" stroke="black" points="20,-134.5 20,-153.5 131,-153.5 131,-134.5 20,-134.5"/>
<text text-anchor="middle" x="75.5" y="-141.5" font-family="Helvetica,sans-Serif" font-size="10.00">AbelianGroup&lt; T &gt;</text>
</a>
</g>
</g>
<!-- Node3&#45;&gt;Node2 -->
<g id="edge2" class="edge">
<title>Node3&#45;&gt;Node2</title>
<path fill="none" stroke="orange" stroke-dasharray="5,2" d="M75.5,-124.04C75.5,-111.67 75.5,-96.12 75.5,-86.63"/>
<polygon fill="orange" stroke="orange" points="72,-124.23 75.5,-134.23 79,-124.23 72,-124.23"/>
<text text-anchor="middle" x="104" y="-108" font-family="Helvetica,sans-Serif" font-size="10.00"> &lt; rank_t &gt;</text>
</g>
</g>
</svg>
