<?xml version="1.0" encoding="UTF-8" standalone="no"?>
<!DOCTYPE svg PUBLIC "-//W3C//DTD SVG 1.1//EN"
 "http://www.w3.org/Graphics/SVG/1.1/DTD/svg11.dtd">
<!-- Generated by graphviz version 2.43.0 (0)
 -->
<!-- Title: Chains&lt; _rank, _diff &gt; Pages: 1 -->
<svg width="270pt" height="95pt"
 viewBox="0.00 0.00 269.50 95.00" xmlns="http://www.w3.org/2000/svg" xmlns:xlink="http://www.w3.org/1999/xlink">
<g id="graph0" class="graph" transform="scale(1 1) rotate(0) translate(4 91)">
<title>Chains&lt; _rank, _diff &gt;</title>
<polygon fill="white" stroke="transparent" points="-4,4 -4,-91 265.5,-91 265.5,4 -4,4"/>
<!-- Node1 -->
<g id="node1" class="node">
<title>Node1</title>
<g id="a_node1"><a xlink:title="A chain complex.">
<polygon fill="#bfbfbf" stroke="black" points="74,-67.5 74,-86.5 200,-86.5 200,-67.5 74,-67.5"/>
<text text-anchor="middle" x="137" y="-74.5" font-family="Helvetica,sans-Serif" font-size="10.00">Chains&lt; _rank, _diff &gt;</text>
</a>
</g>
</g>
<!-- Node2 -->
<g id="node2" class="node">
<title>Node2</title>
<g id="a_node2"><a xlink:href="classMackey_1_1Chains.html" target="_top" xlink:title=" ">
<polygon fill="white" stroke="black" points="0,-0.5 0,-19.5 134,-19.5 134,-0.5 0,-0.5"/>
<text text-anchor="middle" x="67" y="-7.5" font-family="Helvetica,sans-Serif" font-size="10.00">Chains&lt; rank_t, diff_t &gt;</text>
</a>
</g>
</g>
<!-- Node1&#45;&gt;Node2 -->
<g id="edge1" class="edge">
<title>Node1&#45;&gt;Node2</title>
<path fill="none" stroke="orange" stroke-dasharray="5,2" d="M113.26,-61.74C107.67,-57.91 101.92,-53.56 97,-49 87.39,-40.08 78.35,-27.92 72.76,-19.78"/>
<polygon fill="orange" stroke="orange" points="111.46,-64.74 121.75,-67.27 115.28,-58.88 111.46,-64.74"/>
<text text-anchor="middle" x="141" y="-41" font-family="Helvetica,sans-Serif" font-size="10.00"> &lt; rank_t, diff_t &gt;</text>
</g>
<!-- Node3 -->
<g id="node3" class="node">
<title>Node3</title>
<g id="a_node3"><a xlink:href="classMackey_1_1Chains.html" target="_top" xlink:title=" ">
<polygon fill="white" stroke="black" points="152.5,-0.5 152.5,-19.5 261.5,-19.5 261.5,-0.5 152.5,-0.5"/>
<text text-anchor="middle" x="207" y="-7.5" font-family="Helvetica,sans-Serif" font-size="10.00">Chains&lt; group_t &gt;</text>
</a>
</g>
</g>
<!-- Node1&#45;&gt;Node3 -->
<g id="edge2" class="edge">
<title>Node1&#45;&gt;Node3</title>
<path fill="none" stroke="orange" stroke-dasharray="5,2" d="M167,-62.39C173.4,-58.63 179.79,-54.15 185,-49 193.57,-40.54 199.94,-28.04 203.56,-19.72"/>
<polygon fill="orange" stroke="orange" points="164.91,-59.54 157.76,-67.36 168.23,-65.7 164.91,-59.54"/>
<text text-anchor="middle" x="224.5" y="-41" font-family="Helvetica,sans-Serif" font-size="10.00"> &lt; group_t &gt;</text>
</g>
</g>
</svg>
