<?xml version="1.0" encoding="UTF-8" standalone="no"?>
<!DOCTYPE svg PUBLIC "-//W3C//DTD SVG 1.1//EN"
 "http://www.w3.org/Graphics/SVG/1.1/DTD/svg11.dtd">
<!-- Generated by graphviz version 2.43.0 (0)
 -->
<!-- Title: Graph&lt; _neighborhood &gt; Pages: 1 -->
<svg width="208pt" height="139pt"
 viewBox="0.00 0.00 207.50 139.00" xmlns="http://www.w3.org/2000/svg" xmlns:xlink="http://www.w3.org/1999/xlink">
<g id="graph0" class="graph" transform="scale(1 1) rotate(0) translate(4 135)">
<title>Graph&lt; _neighborhood &gt;</title>
<polygon fill="white" stroke="transparent" points="-4,4 -4,-135 203.5,-135 203.5,4 -4,4"/>
<!-- Node1 -->
<g id="node1" class="node">
<title>Node1</title>
<g id="a_node1"><a xlink:title=" ">
<polygon fill="#bfbfbf" stroke="black" points="13.5,-111.5 13.5,-130.5 153.5,-130.5 153.5,-111.5 13.5,-111.5"/>
<text text-anchor="middle" x="83.5" y="-118.5" font-family="Helvetica,sans-Serif" font-size="10.00">Graph&lt; _neighborhood &gt;</text>
</a>
</g>
</g>
<!-- Node2 -->
<g id="node2" class="node">
<title>Node2</title>
<g id="a_node2"><a xlink:href="classMackey_1_1Graph.html" target="_top" xlink:title=" ">
<polygon fill="white" stroke="black" points="0,-0.5 0,-41.5 167,-41.5 167,-0.5 0,-0.5"/>
<text text-anchor="start" x="8" y="-29.5" font-family="Helvetica,sans-Serif" font-size="10.00">Graph&lt; Neighborhood</text>
<text text-anchor="start" x="8" y="-18.5" font-family="Helvetica,sans-Serif" font-size="10.00">&lt; size_t, bicolored</text>
<text text-anchor="middle" x="83.5" y="-7.5" font-family="Helvetica,sans-Serif" font-size="10.00">_edge_with_id, std::vector &gt; &gt;</text>
</a>
</g>
</g>
<!-- Node1&#45;&gt;Node2 -->
<g id="edge1" class="edge">
<title>Node1&#45;&gt;Node2</title>
<path fill="none" stroke="orange" stroke-dasharray="5,2" d="M83.5,-100.91C83.5,-83.81 83.5,-58.84 83.5,-41.59"/>
<polygon fill="orange" stroke="orange" points="80,-101.3 83.5,-111.3 87,-101.3 80,-101.3"/>
<text text-anchor="start" x="83.5" y="-85" font-family="Helvetica,sans-Serif" font-size="10.00"> &lt; Neighborhood&lt; size</text>
<text text-anchor="start" x="83.5" y="-74" font-family="Helvetica,sans-Serif" font-size="10.00">_t, bicolored_edge_with</text>
<text text-anchor="middle" x="141.5" y="-63" font-family="Helvetica,sans-Serif" font-size="10.00">_id, std::vector &gt; &gt;</text>
</g>
</g>
</svg>
