<?xml version="1.0" encoding="UTF-8" standalone="no"?>
<!DOCTYPE svg PUBLIC "-//W3C//DTD SVG 1.1//EN"
 "http://www.w3.org/Graphics/SVG/1.1/DTD/svg11.dtd">
<!-- Generated by graphviz version 2.43.0 (0)
 -->
<!-- Title: Dikjstra&lt; graph_t, policy_t &gt; Pages: 1 -->
<svg width="441pt" height="220pt"
 viewBox="0.00 0.00 441.00 220.00" xmlns="http://www.w3.org/2000/svg" xmlns:xlink="http://www.w3.org/1999/xlink">
<g id="graph0" class="graph" transform="scale(1 1) rotate(0) translate(4 216)">
<title>Dikjstra&lt; graph_t, policy_t &gt;</title>
<polygon fill="white" stroke="transparent" points="-4,4 -4,-216 437,-216 437,4 -4,4"/>
<!-- Node1 -->
<g id="node1" class="node">
<title>Node1</title>
<g id="a_node1"><a xlink:title=" ">
<polygon fill="#bfbfbf" stroke="black" points="0,-82.5 0,-112.5 106,-112.5 106,-82.5 0,-82.5"/>
<text text-anchor="start" x="8" y="-100.5" font-family="Helvetica,sans-Serif" font-size="10.00">Dikjstra&lt; graph_t,</text>
<text text-anchor="middle" x="53" y="-89.5" font-family="Helvetica,sans-Serif" font-size="10.00"> policy_t &gt;</text>
</a>
</g>
</g>
<!-- Node2 -->
<g id="node2" class="node">
<title>Node2</title>
<g id="a_node2"><a xlink:href="classMackey_1_1minimize__color__alteration__and__length.html" target="_top" xlink:title=" ">
<polygon fill="white" stroke="black" points="253,-159.5 253,-211.5 429,-211.5 429,-159.5 253,-159.5"/>
<text text-anchor="start" x="261" y="-199.5" font-family="Helvetica,sans-Serif" font-size="10.00">minimize_color_alteration</text>
<text text-anchor="start" x="261" y="-188.5" font-family="Helvetica,sans-Serif" font-size="10.00">_and_length&lt; graph_t, minimize</text>
<text text-anchor="start" x="261" y="-177.5" font-family="Helvetica,sans-Serif" font-size="10.00">_color_alteration_and_length</text>
<text text-anchor="middle" x="341" y="-166.5" font-family="Helvetica,sans-Serif" font-size="10.00">&lt; graph_t &gt; &gt;</text>
</a>
</g>
</g>
<!-- Node1&#45;&gt;Node2 -->
<g id="edge1" class="edge">
<title>Node1&#45;&gt;Node2</title>
<path fill="none" stroke="midnightblue" d="M93.08,-116.82C103.02,-121.33 113.79,-125.87 124,-129.5 165.62,-144.28 213,-157 252.77,-166.57"/>
<polygon fill="midnightblue" stroke="midnightblue" points="94.39,-113.57 83.84,-112.54 91.44,-119.92 94.39,-113.57"/>
</g>
<!-- Node3 -->
<g id="node3" class="node">
<title>Node3</title>
<g id="a_node3"><a xlink:href="classMackey_1_1minimize__length.html" target="_top" xlink:title=" ">
<polygon fill="white" stroke="black" points="249,-110.5 249,-140.5 433,-140.5 433,-110.5 249,-110.5"/>
<text text-anchor="start" x="257" y="-128.5" font-family="Helvetica,sans-Serif" font-size="10.00">minimize_length&lt; graph</text>
<text text-anchor="middle" x="341" y="-117.5" font-family="Helvetica,sans-Serif" font-size="10.00">_t, minimize_length&lt; graph_t &gt; &gt;</text>
</a>
</g>
</g>
<!-- Node1&#45;&gt;Node3 -->
<g id="edge2" class="edge">
<title>Node1&#45;&gt;Node3</title>
<path fill="none" stroke="midnightblue" d="M116.31,-110.4C118.9,-110.8 121.47,-111.17 124,-111.5 164.8,-116.88 210.21,-120.22 248.83,-122.28"/>
<polygon fill="midnightblue" stroke="midnightblue" points="116.68,-106.91 106.24,-108.74 115.54,-113.82 116.68,-106.91"/>
</g>
<!-- Node4 -->
<g id="node4" class="node">
<title>Node4</title>
<g id="a_node4"><a xlink:href="classMackey_1_1Dikjstra.html" target="_top" xlink:title=" ">
<polygon fill="white" stroke="black" points="267.5,-50 267.5,-91 414.5,-91 414.5,-50 267.5,-50"/>
<text text-anchor="start" x="275.5" y="-79" font-family="Helvetica,sans-Serif" font-size="10.00">Dikjstra&lt; graph_t,</text>
<text text-anchor="start" x="275.5" y="-68" font-family="Helvetica,sans-Serif" font-size="10.00"> minimize_color_alteration</text>
<text text-anchor="middle" x="341" y="-57" font-family="Helvetica,sans-Serif" font-size="10.00">_and_length&lt; graph_t &gt; &gt;</text>
</a>
</g>
</g>
<!-- Node1&#45;&gt;Node4 -->
<g id="edge3" class="edge">
<title>Node1&#45;&gt;Node4</title>
<path fill="none" stroke="orange" stroke-dasharray="5,2" d="M114.14,-80.24C117.46,-79.58 120.76,-78.99 124,-78.5 171.3,-71.3 225.06,-69.29 267.12,-69.08"/>
<polygon fill="orange" stroke="orange" points="113.2,-76.86 104.18,-82.41 114.69,-83.7 113.2,-76.86"/>
<text text-anchor="start" x="124" y="-103.5" font-family="Helvetica,sans-Serif" font-size="10.00"> &lt; graph_t, minimize</text>
<text text-anchor="start" x="124" y="-92.5" font-family="Helvetica,sans-Serif" font-size="10.00">_color_alteration_and</text>
<text text-anchor="middle" x="177.5" y="-81.5" font-family="Helvetica,sans-Serif" font-size="10.00">_length&lt; graph_t &gt; &gt;</text>
</g>
<!-- Node5 -->
<g id="node5" class="node">
<title>Node5</title>
<g id="a_node5"><a xlink:href="classMackey_1_1Dikjstra.html" target="_top" xlink:title=" ">
<polygon fill="white" stroke="black" points="255,-0.5 255,-30.5 427,-30.5 427,-0.5 255,-0.5"/>
<text text-anchor="start" x="263" y="-18.5" font-family="Helvetica,sans-Serif" font-size="10.00">Dikjstra&lt; graph_t,</text>
<text text-anchor="middle" x="341" y="-7.5" font-family="Helvetica,sans-Serif" font-size="10.00"> minimize_length&lt; graph_t &gt; &gt;</text>
</a>
</g>
</g>
<!-- Node1&#45;&gt;Node5 -->
<g id="edge4" class="edge">
<title>Node1&#45;&gt;Node5</title>
<path fill="none" stroke="orange" stroke-dasharray="5,2" d="M76.04,-75.56C88.93,-64.08 106.15,-50.9 124,-43.5 165.04,-26.48 213.91,-19.19 254.78,-16.28"/>
<polygon fill="orange" stroke="orange" points="73.57,-73.07 68.6,-82.43 78.32,-78.22 73.57,-73.07"/>
<text text-anchor="start" x="124" y="-57.5" font-family="Helvetica,sans-Serif" font-size="10.00"> &lt; graph_t, minimize</text>
<text text-anchor="middle" x="177.5" y="-46.5" font-family="Helvetica,sans-Serif" font-size="10.00">_length&lt; graph_t &gt; &gt;</text>
</g>
</g>
</svg>
