<?xml version="1.0" encoding="UTF-8" standalone="no"?>
<!DOCTYPE svg PUBLIC "-//W3C//DTD SVG 1.1//EN"
 "http://www.w3.org/Graphics/SVG/1.1/DTD/svg11.dtd">
<!-- Generated by graphviz version 2.43.0 (0)
 -->
<!-- Title: Hash&lt;... &gt; Pages: 1 -->
<svg width="172pt" height="139pt"
 viewBox="0.00 0.00 172.00 139.00" xmlns="http://www.w3.org/2000/svg" xmlns:xlink="http://www.w3.org/1999/xlink">
<g id="graph0" class="graph" transform="scale(1 1) rotate(0) translate(4 135)">
<title>Hash&lt;... &gt;</title>
<polygon fill="white" stroke="transparent" points="-4,4 -4,-135 168,-135 168,4 -4,4"/>
<!-- Node1 -->
<g id="node1" class="node">
<title>Node1</title>
<g id="a_node1"><a xlink:title=" ">
<polygon fill="#bfbfbf" stroke="black" points="32,-111.5 32,-130.5 102,-130.5 102,-111.5 32,-111.5"/>
<text text-anchor="middle" x="67" y="-118.5" font-family="Helvetica,sans-Serif" font-size="10.00">Hash&lt;... &gt;</text>
</a>
</g>
</g>
<!-- Node2 -->
<g id="node2" class="node">
<title>Node2</title>
<g id="a_node2"><a xlink:href="classMackey_1_1Hash.html" target="_top" xlink:title=" ">
<polygon fill="white" stroke="black" points="0,-0.5 0,-41.5 134,-41.5 134,-0.5 0,-0.5"/>
<text text-anchor="start" x="8" y="-29.5" font-family="Helvetica,sans-Serif" font-size="10.00">Hash&lt; const std::vector</text>
<text text-anchor="start" x="8" y="-18.5" font-family="Helvetica,sans-Serif" font-size="10.00">&lt; int &gt; &amp;, const std::</text>
<text text-anchor="middle" x="67" y="-7.5" font-family="Helvetica,sans-Serif" font-size="10.00">vector&lt; int &gt; &amp; &gt;</text>
</a>
</g>
</g>
<!-- Node1&#45;&gt;Node2 -->
<g id="edge1" class="edge">
<title>Node1&#45;&gt;Node2</title>
<path fill="none" stroke="orange" stroke-dasharray="5,2" d="M67,-100.91C67,-83.81 67,-58.84 67,-41.59"/>
<polygon fill="orange" stroke="orange" points="63.5,-101.3 67,-111.3 70.5,-101.3 63.5,-101.3"/>
<text text-anchor="start" x="67" y="-85" font-family="Helvetica,sans-Serif" font-size="10.00"> &lt; const std::vector</text>
<text text-anchor="start" x="67" y="-74" font-family="Helvetica,sans-Serif" font-size="10.00">&lt; int &gt; &amp;, const std</text>
<text text-anchor="middle" x="115.5" y="-63" font-family="Helvetica,sans-Serif" font-size="10.00">::vector&lt; int &gt; &amp; &gt;</text>
</g>
</g>
</svg>
