<?xml version="1.0" encoding="UTF-8" standalone="no"?>
<!DOCTYPE svg PUBLIC "-//W3C//DTD SVG 1.1//EN"
 "http://www.w3.org/Graphics/SVG/1.1/DTD/svg11.dtd">
<!-- Generated by graphviz version 2.43.0 (0)
 -->
<!-- Title: MultConnectivity&lt; group_t &gt; Pages: 1 -->
<svg width="167pt" height="196pt"
 viewBox="0.00 0.00 167.00 196.00" xmlns="http://www.w3.org/2000/svg" xmlns:xlink="http://www.w3.org/1999/xlink">
<g id="graph0" class="graph" transform="scale(1 1) rotate(0) translate(4 192)">
<title>MultConnectivity&lt; group_t &gt;</title>
<polygon fill="white" stroke="transparent" points="-4,4 -4,-192 163,-192 163,4 -4,4"/>
<!-- Node1 -->
<g id="node1" class="node">
<title>Node1</title>
<g id="a_node1"><a xlink:title="Finds the connectivity of the multiplication graph.">
<polygon fill="#bfbfbf" stroke="black" points="0,-0.5 0,-19.5 159,-19.5 159,-0.5 0,-0.5"/>
<text text-anchor="middle" x="79.5" y="-7.5" font-family="Helvetica,sans-Serif" font-size="10.00">MultConnectivity&lt; group_t &gt;</text>
</a>
</g>
</g>
<!-- Node2 -->
<g id="node2" class="node">
<title>Node2</title>
<g id="a_node2"><a xlink:href="classmackey_1_1MultGraph.html" target="_top" xlink:title="The Multiplication Graph created from the Multiplication Table.">
<polygon fill="white" stroke="black" points="16,-56.5 16,-75.5 143,-75.5 143,-56.5 16,-56.5"/>
<text text-anchor="middle" x="79.5" y="-63.5" font-family="Helvetica,sans-Serif" font-size="10.00">MultGraph&lt; group_t &gt;</text>
</a>
</g>
</g>
<!-- Node2&#45;&gt;Node1 -->
<g id="edge1" class="edge">
<title>Node2&#45;&gt;Node1</title>
<path fill="none" stroke="#8b1a1a" d="M79.5,-45.8C79.5,-36.91 79.5,-26.78 79.5,-19.75"/>
<polygon fill="#8b1a1a" stroke="#8b1a1a" points="76,-46.08 79.5,-56.08 83,-46.08 76,-46.08"/>
</g>
<!-- Node3 -->
<g id="node3" class="node">
<title>Node3</title>
<g id="a_node3"><a xlink:href="classmackey_1_1MultTable.html" target="_top" xlink:title="The Multiplication Table with both data and methods.">
<polygon fill="white" stroke="black" points="18,-112.5 18,-131.5 141,-131.5 141,-112.5 18,-112.5"/>
<text text-anchor="middle" x="79.5" y="-119.5" font-family="Helvetica,sans-Serif" font-size="10.00">MultTable&lt; group_t &gt;</text>
</a>
</g>
</g>
<!-- Node3&#45;&gt;Node2 -->
<g id="edge2" class="edge">
<title>Node3&#45;&gt;Node2</title>
<path fill="none" stroke="midnightblue" d="M79.5,-101.8C79.5,-92.91 79.5,-82.78 79.5,-75.75"/>
<polygon fill="midnightblue" stroke="midnightblue" points="76,-102.08 79.5,-112.08 83,-102.08 76,-102.08"/>
</g>
<!-- Node4 -->
<g id="node4" class="node">
<title>Node4</title>
<g id="a_node4"><a xlink:href="structmackey_1_1MultTableData.html" target="_top" xlink:title="The data of the Multiplication Table.">
<polygon fill="white" stroke="black" points="6.5,-168.5 6.5,-187.5 152.5,-187.5 152.5,-168.5 6.5,-168.5"/>
<text text-anchor="middle" x="79.5" y="-175.5" font-family="Helvetica,sans-Serif" font-size="10.00">MultTableData&lt; group_t &gt;</text>
</a>
</g>
</g>
<!-- Node4&#45;&gt;Node3 -->
<g id="edge3" class="edge">
<title>Node4&#45;&gt;Node3</title>
<path fill="none" stroke="midnightblue" d="M79.5,-157.8C79.5,-148.91 79.5,-138.78 79.5,-131.75"/>
<polygon fill="midnightblue" stroke="midnightblue" points="76,-158.08 79.5,-168.08 83,-158.08 76,-158.08"/>
</g>
</g>
</svg>
