<?xml version="1.0" encoding="UTF-8" standalone="no"?>
<!DOCTYPE svg PUBLIC "-//W3C//DTD SVG 1.1//EN"
 "http://www.w3.org/Graphics/SVG/1.1/DTD/svg11.dtd">
<!-- Generated by graphviz version 2.43.0 (0)
 -->
<!-- Title: Compute.hpp Pages: 1 -->
<svg width="1058pt" height="532pt"
 viewBox="0.00 0.00 1057.77 532.00" xmlns="http://www.w3.org/2000/svg" xmlns:xlink="http://www.w3.org/1999/xlink">
<g id="graph0" class="graph" transform="scale(1 1) rotate(0) translate(4 528)">
<title>Compute.hpp</title>
<polygon fill="white" stroke="transparent" points="-4,4 -4,-528 1053.77,-528 1053.77,4 -4,4"/>
<!-- Node1 -->
<g id="node1" class="node">
<title>Node1</title>
<g id="a_node1"><a xlink:title="Contains the computations for RO(G) Chains and Homology as Mackey and Green functors.">
<polygon fill="#bfbfbf" stroke="black" points="811.77,-504.5 811.77,-523.5 893.77,-523.5 893.77,-504.5 811.77,-504.5"/>
<text text-anchor="middle" x="852.77" y="-511.5" font-family="Helvetica,sans-Serif" font-size="10.00">Compute.hpp</text>
</a>
</g>
</g>
<!-- Node2 -->
<g id="node2" class="node">
<title>Node2</title>
<g id="a_node2"><a xlink:href="Massey_8hpp.html" target="_top" xlink:title="Contains the class and methods for Massey Products.">
<polygon fill="white" stroke="black" points="561.27,-448.5 561.27,-467.5 680.27,-467.5 680.27,-448.5 561.27,-448.5"/>
<text text-anchor="middle" x="620.77" y="-455.5" font-family="Helvetica,sans-Serif" font-size="10.00">Products/Massey.hpp</text>
</a>
</g>
</g>
<!-- Node1&#45;&gt;Node2 -->
<g id="edge1" class="edge">
<title>Node1&#45;&gt;Node2</title>
<path fill="none" stroke="midnightblue" d="M816.01,-504.44C775.7,-495.06 710.96,-479.99 667.18,-469.8"/>
<polygon fill="midnightblue" stroke="midnightblue" points="667.89,-466.37 657.36,-467.52 666.3,-473.19 667.89,-466.37"/>
</g>
<!-- Node39 -->
<g id="node39" class="node">
<title>Node39</title>
<g id="a_node39"><a xlink:href="Morse_8hpp.html" target="_top" xlink:title=" ">
<polygon fill="white" stroke="black" points="873.77,-224.5 873.77,-243.5 1031.77,-243.5 1031.77,-224.5 873.77,-224.5"/>
<text text-anchor="middle" x="952.77" y="-231.5" font-family="Helvetica,sans-Serif" font-size="10.00">Chain_Complexes/Morse.hpp</text>
</a>
</g>
</g>
<!-- Node1&#45;&gt;Node39 -->
<g id="edge57" class="edge">
<title>Node1&#45;&gt;Node39</title>
<path fill="none" stroke="midnightblue" d="M852.77,-504.44C852.77,-485.94 852.77,-440.81 852.77,-403 852.77,-403 852.77,-403 852.77,-345 852.77,-300.98 897.15,-266.8 926.78,-248.87"/>
<polygon fill="midnightblue" stroke="midnightblue" points="928.91,-251.68 935.8,-243.64 925.4,-245.63 928.91,-251.68"/>
</g>
<!-- Node41 -->
<g id="node41" class="node">
<title>Node41</title>
<g id="a_node41"><a xlink:title=" ">
<polygon fill="white" stroke="#bfbfbf" points="880.77,-448.5 880.77,-467.5 984.77,-467.5 984.77,-448.5 880.77,-448.5"/>
<text text-anchor="middle" x="932.77" y="-455.5" font-family="Helvetica,sans-Serif" font-size="10.00">impl/Compute.ipp</text>
</a>
</g>
</g>
<!-- Node1&#45;&gt;Node41 -->
<g id="edge62" class="edge">
<title>Node1&#45;&gt;Node41</title>
<path fill="none" stroke="midnightblue" d="M865.62,-504.32C877.98,-495.98 896.9,-483.21 911.5,-473.35"/>
<polygon fill="midnightblue" stroke="midnightblue" points="913.62,-476.15 919.95,-467.65 909.7,-470.35 913.62,-476.15"/>
</g>
<!-- Node2&#45;&gt;Node2 -->
<g id="edge56" class="edge">
<title>Node2&#45;&gt;Node2</title>
<path fill="none" stroke="midnightblue" d="M653.82,-467.53C676.28,-470.31 698.27,-467.13 698.27,-458 698.27,-450.26 682.47,-446.8 663.98,-447.62"/>
<polygon fill="midnightblue" stroke="midnightblue" points="663.49,-444.15 653.82,-448.47 664.08,-451.12 663.49,-444.15"/>
</g>
<!-- Node3 -->
<g id="node3" class="node">
<title>Node3</title>
<g id="a_node3"><a xlink:href="Green_8hpp.html" target="_top" xlink:title="Contains the class and methods for multiplying generators.">
<polygon fill="white" stroke="black" points="587.27,-392.5 587.27,-411.5 654.27,-411.5 654.27,-392.5 587.27,-392.5"/>
<text text-anchor="middle" x="620.77" y="-399.5" font-family="Helvetica,sans-Serif" font-size="10.00">Green.hpp</text>
</a>
</g>
</g>
<!-- Node2&#45;&gt;Node3 -->
<g id="edge2" class="edge">
<title>Node2&#45;&gt;Node3</title>
<path fill="none" stroke="midnightblue" d="M620.77,-448.08C620.77,-441.01 620.77,-430.86 620.77,-421.99"/>
<polygon fill="midnightblue" stroke="midnightblue" points="624.27,-421.75 620.77,-411.75 617.27,-421.75 624.27,-421.75"/>
</g>
<!-- Node38 -->
<g id="node38" class="node">
<title>Node38</title>
<g id="a_node38"><a xlink:title=" ">
<polygon fill="white" stroke="#bfbfbf" points="474.27,-392.5 474.27,-411.5 569.27,-411.5 569.27,-392.5 474.27,-392.5"/>
<text text-anchor="middle" x="521.77" y="-399.5" font-family="Helvetica,sans-Serif" font-size="10.00">impl/Massey.ipp</text>
</a>
</g>
</g>
<!-- Node2&#45;&gt;Node38 -->
<g id="edge55" class="edge">
<title>Node2&#45;&gt;Node38</title>
<path fill="none" stroke="midnightblue" d="M604.86,-448.32C589.13,-439.74 564.82,-426.49 546.56,-416.52"/>
<polygon fill="midnightblue" stroke="midnightblue" points="548.09,-413.37 537.63,-411.65 544.74,-419.52 548.09,-413.37"/>
</g>
<!-- Node3&#45;&gt;Node3 -->
<g id="edge54" class="edge">
<title>Node3&#45;&gt;Node3</title>
<path fill="none" stroke="midnightblue" d="M642.73,-411.53C657.66,-414.31 672.27,-411.13 672.27,-402 672.27,-395.01 663.7,-391.51 652.99,-391.5"/>
<polygon fill="midnightblue" stroke="midnightblue" points="652.36,-388.04 642.73,-392.47 653.02,-395.01 652.36,-388.04"/>
</g>
<!-- Node4 -->
<g id="node4" class="node">
<title>Node4</title>
<g id="a_node4"><a xlink:href="Levels_8hpp.html" target="_top" xlink:title="Contains the methods for transfering, restricting and Weyl&#45;group&#45;acting.">
<polygon fill="white" stroke="black" points="383.77,-336.5 383.77,-355.5 539.77,-355.5 539.77,-336.5 383.77,-336.5"/>
<text text-anchor="middle" x="461.77" y="-343.5" font-family="Helvetica,sans-Serif" font-size="10.00">Mackey_Functors/Levels.hpp</text>
</a>
</g>
</g>
<!-- Node3&#45;&gt;Node4 -->
<g id="edge3" class="edge">
<title>Node3&#45;&gt;Node4</title>
<path fill="none" stroke="midnightblue" d="M595.57,-392.44C568.82,-383.36 526.36,-368.94 496.46,-358.78"/>
<polygon fill="midnightblue" stroke="midnightblue" points="497.44,-355.42 486.84,-355.52 495.19,-362.05 497.44,-355.42"/>
</g>
<!-- Node24 -->
<g id="node24" class="node">
<title>Node24</title>
<g id="a_node24"><a xlink:href="Identify_8hpp.html" target="_top" xlink:title="Contains the identification classes.">
<polygon fill="white" stroke="black" points="166.77,-336.5 166.77,-355.5 326.77,-355.5 326.77,-336.5 166.77,-336.5"/>
<text text-anchor="middle" x="246.77" y="-343.5" font-family="Helvetica,sans-Serif" font-size="10.00">Mackey_Functors/Identify.hpp</text>
</a>
</g>
</g>
<!-- Node3&#45;&gt;Node24 -->
<g id="edge31" class="edge">
<title>Node3&#45;&gt;Node24</title>
<path fill="none" stroke="midnightblue" d="M587.01,-393.7C583.89,-393.09 580.77,-392.52 577.77,-392 494.05,-377.57 397.77,-364.92 330.71,-356.74"/>
<polygon fill="midnightblue" stroke="midnightblue" points="330.97,-353.24 320.62,-355.51 330.12,-360.19 330.97,-353.24"/>
</g>
<!-- Node30 -->
<g id="node30" class="node">
<title>Node30</title>
<g id="a_node30"><a xlink:href="Box_8hpp.html" target="_top" xlink:title="Contains the construction of box products of Chains.">
<polygon fill="white" stroke="black" points="620.77,-224.5 620.77,-243.5 766.77,-243.5 766.77,-224.5 620.77,-224.5"/>
<text text-anchor="middle" x="693.77" y="-231.5" font-family="Helvetica,sans-Serif" font-size="10.00">Chain_Complexes/Box.hpp</text>
</a>
</g>
</g>
<!-- Node3&#45;&gt;Node30 -->
<g id="edge42" class="edge">
<title>Node3&#45;&gt;Node30</title>
<path fill="none" stroke="midnightblue" d="M635.91,-392.35C648.18,-384.5 664.84,-371.75 673.77,-356 692.16,-323.53 694.74,-278.81 694.54,-253.83"/>
<polygon fill="midnightblue" stroke="midnightblue" points="698.03,-253.49 694.29,-243.58 691.04,-253.66 698.03,-253.49"/>
</g>
<!-- Node37 -->
<g id="node37" class="node">
<title>Node37</title>
<g id="a_node37"><a xlink:title=" ">
<polygon fill="white" stroke="#bfbfbf" points="576.27,-336.5 576.27,-355.5 665.27,-355.5 665.27,-336.5 576.27,-336.5"/>
<text text-anchor="middle" x="620.77" y="-343.5" font-family="Helvetica,sans-Serif" font-size="10.00">impl/Green.ipp</text>
</a>
</g>
</g>
<!-- Node3&#45;&gt;Node37 -->
<g id="edge53" class="edge">
<title>Node3&#45;&gt;Node37</title>
<path fill="none" stroke="midnightblue" d="M620.77,-392.08C620.77,-385.01 620.77,-374.86 620.77,-365.99"/>
<polygon fill="midnightblue" stroke="midnightblue" points="624.27,-365.75 620.77,-355.75 617.27,-365.75 624.27,-365.75"/>
</g>
<!-- Node4&#45;&gt;Node4 -->
<g id="edge30" class="edge">
<title>Node4&#45;&gt;Node4</title>
<path fill="none" stroke="midnightblue" d="M502.71,-355.53C530.53,-358.31 557.77,-355.13 557.77,-346 557.77,-337.97 536.73,-334.55 512.74,-335.73"/>
<polygon fill="midnightblue" stroke="midnightblue" points="512.42,-332.24 502.71,-336.47 512.94,-339.22 512.42,-332.24"/>
</g>
<!-- Node5 -->
<g id="node5" class="node">
<title>Node5</title>
<g id="a_node5"><a xlink:href="Homology_8hpp.html" target="_top" xlink:title="Contains the Homology class and algorithms.">
<polygon fill="white" stroke="black" points="375.77,-280.5 375.77,-299.5 515.77,-299.5 515.77,-280.5 375.77,-280.5"/>
<text text-anchor="middle" x="445.77" y="-287.5" font-family="Helvetica,sans-Serif" font-size="10.00">Homology/Homology.hpp</text>
</a>
</g>
</g>
<!-- Node4&#45;&gt;Node5 -->
<g id="edge4" class="edge">
<title>Node4&#45;&gt;Node5</title>
<path fill="none" stroke="midnightblue" d="M459.12,-336.08C456.98,-328.85 453.89,-318.41 451.22,-309.4"/>
<polygon fill="midnightblue" stroke="midnightblue" points="454.56,-308.34 448.36,-299.75 447.85,-310.33 454.56,-308.34"/>
</g>
<!-- Node23 -->
<g id="node23" class="node">
<title>Node23</title>
<g id="a_node23"><a xlink:title=" ">
<polygon fill="white" stroke="#bfbfbf" points="552.27,-280.5 552.27,-299.5 643.27,-299.5 643.27,-280.5 552.27,-280.5"/>
<text text-anchor="middle" x="597.77" y="-287.5" font-family="Helvetica,sans-Serif" font-size="10.00">impl/Levels.ipp</text>
</a>
</g>
</g>
<!-- Node4&#45;&gt;Node23 -->
<g id="edge29" class="edge">
<title>Node4&#45;&gt;Node23</title>
<path fill="none" stroke="midnightblue" d="M483.32,-336.44C505.8,-327.52 541.25,-313.44 566.75,-303.32"/>
<polygon fill="midnightblue" stroke="midnightblue" points="568.32,-306.46 576.32,-299.52 565.73,-299.95 568.32,-306.46"/>
</g>
<!-- Node5&#45;&gt;Node5 -->
<g id="edge28" class="edge">
<title>Node5&#45;&gt;Node5</title>
<path fill="none" stroke="midnightblue" d="M483.3,-299.53C508.8,-302.31 533.77,-299.13 533.77,-290 533.77,-282.08 514.99,-278.64 493.37,-279.68"/>
<polygon fill="midnightblue" stroke="midnightblue" points="492.99,-276.2 483.3,-280.47 493.54,-283.18 492.99,-276.2"/>
</g>
<!-- Node6 -->
<g id="node6" class="node">
<title>Node6</title>
<g id="a_node6"><a xlink:href="Chains_8hpp.html" target="_top" xlink:title="Contains Chains and Junction classes for using chain complexes.">
<polygon fill="white" stroke="black" points="751.27,-168.5 751.27,-187.5 912.27,-187.5 912.27,-168.5 751.27,-168.5"/>
<text text-anchor="middle" x="831.77" y="-175.5" font-family="Helvetica,sans-Serif" font-size="10.00">Chain_Complexes/Chains.hpp</text>
</a>
</g>
</g>
<!-- Node5&#45;&gt;Node6 -->
<g id="edge5" class="edge">
<title>Node5&#45;&gt;Node6</title>
<path fill="none" stroke="midnightblue" d="M516.14,-281.5C614.47,-270.8 782.32,-251.58 793.77,-244 810.08,-233.19 820.3,-212.8 825.99,-197.73"/>
<polygon fill="midnightblue" stroke="midnightblue" points="829.42,-198.5 829.34,-187.91 822.8,-196.24 829.42,-198.5"/>
</g>
<!-- Node10 -->
<g id="node10" class="node">
<title>Node10</title>
<g id="a_node10"><a xlink:href="General_8hpp.html" target="_top" xlink:title="Contains general functions and vector overloads independent of everything else.">
<polygon fill="white" stroke="black" points="358.27,-168.5 358.27,-187.5 467.27,-187.5 467.27,-168.5 358.27,-168.5"/>
<text text-anchor="middle" x="412.77" y="-175.5" font-family="Helvetica,sans-Serif" font-size="10.00">Utility/General.hpp</text>
</a>
</g>
</g>
<!-- Node5&#45;&gt;Node10 -->
<g id="edge9" class="edge">
<title>Node5&#45;&gt;Node10</title>
<path fill="none" stroke="midnightblue" d="M446.81,-280.32C448.01,-267.61 449.11,-243.32 442.77,-224 439.37,-213.65 432.89,-203.44 426.82,-195.36"/>
<polygon fill="midnightblue" stroke="midnightblue" points="429.54,-193.16 420.56,-187.54 424.07,-197.53 429.54,-193.16"/>
</g>
<!-- Node18 -->
<g id="node18" class="node">
<title>Node18</title>
<g id="a_node18"><a xlink:href="Smith_8hpp.html" target="_top" xlink:title="Contains the base class for all Smith implementations.">
<polygon fill="white" stroke="black" points="273.77,-168.5 273.77,-187.5 339.77,-187.5 339.77,-168.5 273.77,-168.5"/>
<text text-anchor="middle" x="306.77" y="-175.5" font-family="Helvetica,sans-Serif" font-size="10.00">Smith.hpp</text>
</a>
</g>
</g>
<!-- Node5&#45;&gt;Node18 -->
<g id="edge19" class="edge">
<title>Node5&#45;&gt;Node18</title>
<path fill="none" stroke="midnightblue" d="M442.99,-280.26C438.24,-266.57 427.32,-239.98 409.77,-224 392.78,-208.53 369.63,-197.78 349.58,-190.67"/>
<polygon fill="midnightblue" stroke="midnightblue" points="350.62,-187.32 340.03,-187.47 348.4,-193.96 350.62,-187.32"/>
</g>
<!-- Node20 -->
<g id="node20" class="node">
<title>Node20</title>
<g id="a_node20"><a xlink:href="Abelian_8hpp.html" target="_top" xlink:title="Contains the methods for finding the automorphisms of finitely generated abelian groups.">
<polygon fill="white" stroke="black" points="308.77,-224.5 308.77,-243.5 382.77,-243.5 382.77,-224.5 308.77,-224.5"/>
<text text-anchor="middle" x="345.77" y="-231.5" font-family="Helvetica,sans-Serif" font-size="10.00">Abelian.hpp</text>
</a>
</g>
</g>
<!-- Node5&#45;&gt;Node20 -->
<g id="edge23" class="edge">
<title>Node5&#45;&gt;Node20</title>
<path fill="none" stroke="midnightblue" d="M429.7,-280.32C413.81,-271.74 389.26,-258.49 370.81,-248.52"/>
<polygon fill="midnightblue" stroke="midnightblue" points="372.26,-245.33 361.79,-243.65 368.93,-251.49 372.26,-245.33"/>
</g>
<!-- Node22 -->
<g id="node22" class="node">
<title>Node22</title>
<g id="a_node22"><a xlink:title=" ">
<polygon fill="white" stroke="#bfbfbf" points="494.77,-224.5 494.77,-243.5 602.77,-243.5 602.77,-224.5 494.77,-224.5"/>
<text text-anchor="middle" x="548.77" y="-231.5" font-family="Helvetica,sans-Serif" font-size="10.00">impl/Homology.ipp</text>
</a>
</g>
</g>
<!-- Node5&#45;&gt;Node22 -->
<g id="edge27" class="edge">
<title>Node5&#45;&gt;Node22</title>
<path fill="none" stroke="midnightblue" d="M462.32,-280.32C478.76,-271.7 504.2,-258.36 523.24,-248.39"/>
<polygon fill="midnightblue" stroke="midnightblue" points="525.03,-251.4 532.26,-243.65 521.78,-245.2 525.03,-251.4"/>
</g>
<!-- Node7 -->
<g id="node7" class="node">
<title>Node7</title>
<g id="a_node7"><a xlink:title=" ">
<polygon fill="white" stroke="#bfbfbf" points="448.27,-112.5 448.27,-131.5 495.27,-131.5 495.27,-112.5 448.27,-112.5"/>
<text text-anchor="middle" x="471.77" y="-119.5" font-family="Helvetica,sans-Serif" font-size="10.00">vector</text>
</a>
</g>
</g>
<!-- Node6&#45;&gt;Node7 -->
<g id="edge6" class="edge">
<title>Node6&#45;&gt;Node7</title>
<path fill="none" stroke="midnightblue" d="M750.98,-168.83C686.9,-161.67 594.94,-149.89 505.52,-131.91"/>
<polygon fill="midnightblue" stroke="midnightblue" points="505.97,-128.43 495.47,-129.86 504.57,-135.29 505.97,-128.43"/>
</g>
<!-- Node8 -->
<g id="node8" class="node">
<title>Node8</title>
<g id="a_node8"><a xlink:title=" ">
<polygon fill="white" stroke="#bfbfbf" points="962.27,-112.5 962.27,-131.5 1019.27,-131.5 1019.27,-112.5 962.27,-112.5"/>
<text text-anchor="middle" x="990.77" y="-119.5" font-family="Helvetica,sans-Serif" font-size="10.00">ostream</text>
</a>
</g>
</g>
<!-- Node6&#45;&gt;Node8 -->
<g id="edge7" class="edge">
<title>Node6&#45;&gt;Node8</title>
<path fill="none" stroke="midnightblue" d="M856.96,-168.44C883.71,-159.36 926.17,-144.94 956.07,-134.78"/>
<polygon fill="midnightblue" stroke="midnightblue" points="957.35,-138.05 965.69,-131.52 955.1,-131.42 957.35,-138.05"/>
</g>
<!-- Node9 -->
<g id="node9" class="node">
<title>Node9</title>
<g id="a_node9"><a xlink:title=" ">
<polygon fill="white" stroke="#bfbfbf" points="851.77,-112.5 851.77,-131.5 943.77,-131.5 943.77,-112.5 851.77,-112.5"/>
<text text-anchor="middle" x="897.77" y="-119.5" font-family="Helvetica,sans-Serif" font-size="10.00">impl/Chains.ipp</text>
</a>
</g>
</g>
<!-- Node6&#45;&gt;Node9 -->
<g id="edge8" class="edge">
<title>Node6&#45;&gt;Node9</title>
<path fill="none" stroke="midnightblue" d="M842.37,-168.32C852.22,-160.26 867.12,-148.08 878.98,-138.37"/>
<polygon fill="midnightblue" stroke="midnightblue" points="881.45,-140.88 886.97,-131.83 877.01,-135.46 881.45,-140.88"/>
</g>
<!-- Node10&#45;&gt;Node7 -->
<g id="edge10" class="edge">
<title>Node10&#45;&gt;Node7</title>
<path fill="none" stroke="midnightblue" d="M422.25,-168.32C430.97,-160.34 444.11,-148.31 454.66,-138.65"/>
<polygon fill="midnightblue" stroke="midnightblue" points="457.1,-141.17 462.12,-131.83 452.38,-136 457.1,-141.17"/>
</g>
<!-- Node10&#45;&gt;Node10 -->
<g id="edge18" class="edge">
<title>Node10&#45;&gt;Node10</title>
<path fill="none" stroke="midnightblue" d="M443.69,-187.53C464.7,-190.31 485.27,-187.13 485.27,-178 485.27,-170.37 470.89,-166.89 453.9,-167.59"/>
<polygon fill="midnightblue" stroke="midnightblue" points="453.35,-164.12 443.69,-168.47 453.95,-171.1 453.35,-164.12"/>
</g>
<!-- Node11 -->
<g id="node11" class="node">
<title>Node11</title>
<g id="a_node11"><a xlink:href="Aliases_8hpp.html" target="_top" xlink:title="Contains general template aliases.">
<polygon fill="white" stroke="black" points="209.77,-112.5 209.77,-131.5 313.77,-131.5 313.77,-112.5 209.77,-112.5"/>
<text text-anchor="middle" x="261.77" y="-119.5" font-family="Helvetica,sans-Serif" font-size="10.00">Types/Aliases.hpp</text>
</a>
</g>
</g>
<!-- Node10&#45;&gt;Node11 -->
<g id="edge11" class="edge">
<title>Node10&#45;&gt;Node11</title>
<path fill="none" stroke="midnightblue" d="M388.84,-168.44C363.55,-159.4 323.46,-145.06 295.09,-134.92"/>
<polygon fill="midnightblue" stroke="midnightblue" points="296.18,-131.59 285.58,-131.52 293.82,-138.18 296.18,-131.59"/>
</g>
<!-- Node16 -->
<g id="node16" class="node">
<title>Node16</title>
<g id="a_node16"><a xlink:title=" ">
<polygon fill="white" stroke="#bfbfbf" points="135.77,-112.5 135.77,-131.5 191.77,-131.5 191.77,-112.5 135.77,-112.5"/>
<text text-anchor="middle" x="163.77" y="-119.5" font-family="Helvetica,sans-Serif" font-size="10.00">numeric</text>
</a>
</g>
</g>
<!-- Node10&#45;&gt;Node16 -->
<g id="edge16" class="edge">
<title>Node10&#45;&gt;Node16</title>
<path fill="none" stroke="midnightblue" d="M370.85,-168.48C330.12,-160.12 266.27,-146.79 201.94,-132.22"/>
<polygon fill="midnightblue" stroke="midnightblue" points="202.56,-128.77 192.03,-129.97 201,-135.6 202.56,-128.77"/>
</g>
<!-- Node17 -->
<g id="node17" class="node">
<title>Node17</title>
<g id="a_node17"><a xlink:title=" ">
<polygon fill="white" stroke="#bfbfbf" points="331.77,-112.5 331.77,-131.5 429.77,-131.5 429.77,-112.5 331.77,-112.5"/>
<text text-anchor="middle" x="380.77" y="-119.5" font-family="Helvetica,sans-Serif" font-size="10.00">impl/General.ipp</text>
</a>
</g>
</g>
<!-- Node10&#45;&gt;Node17 -->
<g id="edge17" class="edge">
<title>Node10&#45;&gt;Node17</title>
<path fill="none" stroke="midnightblue" d="M407.48,-168.08C403.06,-160.61 396.6,-149.72 391.15,-140.52"/>
<polygon fill="midnightblue" stroke="midnightblue" points="394.06,-138.57 385.95,-131.75 388.04,-142.14 394.06,-138.57"/>
</g>
<!-- Node12 -->
<g id="node12" class="node">
<title>Node12</title>
<g id="a_node12"><a xlink:title=" ">
<polygon fill="white" stroke="#bfbfbf" points="269.27,-56.5 269.27,-75.5 346.27,-75.5 346.27,-56.5 269.27,-56.5"/>
<text text-anchor="middle" x="307.77" y="-63.5" font-family="Helvetica,sans-Serif" font-size="10.00">Eigen/Dense</text>
</a>
</g>
</g>
<!-- Node11&#45;&gt;Node12 -->
<g id="edge12" class="edge">
<title>Node11&#45;&gt;Node12</title>
<path fill="none" stroke="midnightblue" d="M269.36,-112.08C275.99,-104.3 285.79,-92.8 293.83,-83.37"/>
<polygon fill="midnightblue" stroke="midnightblue" points="296.49,-85.63 300.31,-75.75 291.16,-81.09 296.49,-85.63"/>
</g>
<!-- Node13 -->
<g id="node13" class="node">
<title>Node13</title>
<g id="a_node13"><a xlink:title=" ">
<polygon fill="white" stroke="#bfbfbf" points="708.77,-56.5 708.77,-75.5 788.77,-75.5 788.77,-56.5 708.77,-56.5"/>
<text text-anchor="middle" x="748.77" y="-63.5" font-family="Helvetica,sans-Serif" font-size="10.00">Eigen/Sparse</text>
</a>
</g>
</g>
<!-- Node11&#45;&gt;Node13 -->
<g id="edge13" class="edge">
<title>Node11&#45;&gt;Node13</title>
<path fill="none" stroke="midnightblue" d="M313.99,-113.15C316.96,-112.75 319.9,-112.36 322.77,-112 458.34,-94.85 618.77,-79.13 698.52,-71.63"/>
<polygon fill="midnightblue" stroke="midnightblue" points="699.14,-75.09 708.77,-70.67 698.48,-68.12 699.14,-75.09"/>
</g>
<!-- Node14 -->
<g id="node14" class="node">
<title>Node14</title>
<g id="a_node14"><a xlink:href="SFINAE_8hpp.html" target="_top" xlink:title="Contains all the SFINAE tricks.">
<polygon fill="white" stroke="black" points="178.27,-56.5 178.27,-75.5 251.27,-75.5 251.27,-56.5 178.27,-56.5"/>
<text text-anchor="middle" x="214.77" y="-63.5" font-family="Helvetica,sans-Serif" font-size="10.00">SFINAE.hpp</text>
</a>
</g>
</g>
<!-- Node11&#45;&gt;Node14 -->
<g id="edge14" class="edge">
<title>Node11&#45;&gt;Node14</title>
<path fill="none" stroke="midnightblue" d="M254.01,-112.08C247.23,-104.3 237.22,-92.8 229.01,-83.37"/>
<polygon fill="midnightblue" stroke="midnightblue" points="231.59,-81 222.38,-75.75 226.31,-85.59 231.59,-81"/>
</g>
<!-- Node15 -->
<g id="node15" class="node">
<title>Node15</title>
<g id="a_node15"><a xlink:title=" ">
<polygon fill="white" stroke="#bfbfbf" points="180.27,-0.5 180.27,-19.5 249.27,-19.5 249.27,-0.5 180.27,-0.5"/>
<text text-anchor="middle" x="214.77" y="-7.5" font-family="Helvetica,sans-Serif" font-size="10.00">type_traits</text>
</a>
</g>
</g>
<!-- Node14&#45;&gt;Node15 -->
<g id="edge15" class="edge">
<title>Node14&#45;&gt;Node15</title>
<path fill="none" stroke="midnightblue" d="M214.77,-56.08C214.77,-49.01 214.77,-38.86 214.77,-29.99"/>
<polygon fill="midnightblue" stroke="midnightblue" points="218.27,-29.75 214.77,-19.75 211.27,-29.75 218.27,-29.75"/>
</g>
<!-- Node18&#45;&gt;Node7 -->
<g id="edge20" class="edge">
<title>Node18&#45;&gt;Node7</title>
<path fill="none" stroke="midnightblue" d="M332.91,-168.44C361.53,-159.08 407.47,-144.04 438.6,-133.85"/>
<polygon fill="midnightblue" stroke="midnightblue" points="439.74,-137.17 448.15,-130.73 437.56,-130.51 439.74,-137.17"/>
</g>
<!-- Node18&#45;&gt;Node11 -->
<g id="edge21" class="edge">
<title>Node18&#45;&gt;Node11</title>
<path fill="none" stroke="midnightblue" d="M299.34,-168.08C292.91,-160.38 283.46,-149.03 275.64,-139.65"/>
<polygon fill="midnightblue" stroke="midnightblue" points="278.15,-137.19 269.06,-131.75 272.77,-141.67 278.15,-137.19"/>
</g>
<!-- Node19 -->
<g id="node19" class="node">
<title>Node19</title>
<g id="a_node19"><a xlink:title=" ">
<polygon fill="white" stroke="#bfbfbf" points="29.77,-112.5 29.77,-131.5 117.77,-131.5 117.77,-112.5 29.77,-112.5"/>
<text text-anchor="middle" x="73.77" y="-119.5" font-family="Helvetica,sans-Serif" font-size="10.00">impl/Smith.ipp</text>
</a>
</g>
</g>
<!-- Node18&#45;&gt;Node19 -->
<g id="edge22" class="edge">
<title>Node18&#45;&gt;Node19</title>
<path fill="none" stroke="midnightblue" d="M273.38,-169.26C233.26,-159.96 165.68,-144.3 120.41,-133.81"/>
<polygon fill="midnightblue" stroke="midnightblue" points="121.08,-130.37 110.55,-131.52 119.5,-137.19 121.08,-130.37"/>
</g>
<!-- Node20&#45;&gt;Node10 -->
<g id="edge24" class="edge">
<title>Node20&#45;&gt;Node10</title>
<path fill="none" stroke="midnightblue" d="M356.53,-224.32C366.53,-216.26 381.65,-204.08 393.7,-194.37"/>
<polygon fill="midnightblue" stroke="midnightblue" points="396.22,-196.83 401.81,-187.83 391.82,-191.38 396.22,-196.83"/>
</g>
<!-- Node20&#45;&gt;Node20 -->
<g id="edge26" class="edge">
<title>Node20&#45;&gt;Node20</title>
<path fill="none" stroke="midnightblue" d="M369.22,-243.53C385.16,-246.31 400.77,-243.13 400.77,-234 400.77,-226.86 391.24,-223.37 379.48,-223.5"/>
<polygon fill="midnightblue" stroke="midnightblue" points="378.85,-220.05 369.22,-224.47 379.51,-227.02 378.85,-220.05"/>
</g>
<!-- Node21 -->
<g id="node21" class="node">
<title>Node21</title>
<g id="a_node21"><a xlink:title=" ">
<polygon fill="white" stroke="#bfbfbf" points="159.77,-168.5 159.77,-187.5 255.77,-187.5 255.77,-168.5 159.77,-168.5"/>
<text text-anchor="middle" x="207.77" y="-175.5" font-family="Helvetica,sans-Serif" font-size="10.00">impl/Abelian.ipp</text>
</a>
</g>
</g>
<!-- Node20&#45;&gt;Node21 -->
<g id="edge25" class="edge">
<title>Node20&#45;&gt;Node21</title>
<path fill="none" stroke="midnightblue" d="M323.9,-224.44C300.99,-215.48 264.79,-201.31 238.9,-191.18"/>
<polygon fill="midnightblue" stroke="midnightblue" points="240.12,-187.9 229.53,-187.52 237.57,-194.42 240.12,-187.9"/>
</g>
<!-- Node24&#45;&gt;Node5 -->
<g id="edge32" class="edge">
<title>Node24&#45;&gt;Node5</title>
<path fill="none" stroke="midnightblue" d="M278.3,-336.44C312.36,-327.2 366.77,-312.44 404.28,-302.26"/>
<polygon fill="midnightblue" stroke="midnightblue" points="405.65,-305.51 414.38,-299.52 403.81,-298.76 405.65,-305.51"/>
</g>
<!-- Node24&#45;&gt;Node24 -->
<g id="edge41" class="edge">
<title>Node24&#45;&gt;Node24</title>
<path fill="none" stroke="midnightblue" d="M288.31,-355.5C316.8,-358.33 344.77,-355.16 344.77,-346 344.77,-337.95 323.16,-334.53 298.59,-335.74"/>
<polygon fill="midnightblue" stroke="midnightblue" points="298.02,-332.27 288.31,-336.5 298.54,-339.25 298.02,-332.27"/>
</g>
<!-- Node25 -->
<g id="node25" class="node">
<title>Node25</title>
<g id="a_node25"><a xlink:href="MackeyFunctor_8hpp.html" target="_top" xlink:title="Contains the class describing Mackey Functors.">
<polygon fill="white" stroke="black" points="126.27,-280.5 126.27,-299.5 323.27,-299.5 323.27,-280.5 126.27,-280.5"/>
<text text-anchor="middle" x="224.77" y="-287.5" font-family="Helvetica,sans-Serif" font-size="10.00">Mackey_Functors/MackeyFunctor.hpp</text>
</a>
</g>
</g>
<!-- Node24&#45;&gt;Node25 -->
<g id="edge33" class="edge">
<title>Node24&#45;&gt;Node25</title>
<path fill="none" stroke="midnightblue" d="M243.13,-336.08C240.15,-328.77 235.84,-318.18 232.14,-309.1"/>
<polygon fill="midnightblue" stroke="midnightblue" points="235.35,-307.69 228.33,-299.75 228.86,-310.33 235.35,-307.69"/>
</g>
<!-- Node29 -->
<g id="node29" class="node">
<title>Node29</title>
<g id="a_node29"><a xlink:title=" ">
<polygon fill="white" stroke="#bfbfbf" points="13.27,-280.5 13.27,-299.5 108.27,-299.5 108.27,-280.5 13.27,-280.5"/>
<text text-anchor="middle" x="60.77" y="-287.5" font-family="Helvetica,sans-Serif" font-size="10.00">impl/Identify.ipp</text>
</a>
</g>
</g>
<!-- Node24&#45;&gt;Node29 -->
<g id="edge40" class="edge">
<title>Node24&#45;&gt;Node29</title>
<path fill="none" stroke="midnightblue" d="M217.29,-336.44C185.6,-327.24 135.03,-312.56 99.99,-302.39"/>
<polygon fill="midnightblue" stroke="midnightblue" points="100.68,-298.94 90.1,-299.52 98.73,-305.67 100.68,-298.94"/>
</g>
<!-- Node25&#45;&gt;Node16 -->
<g id="edge36" class="edge">
<title>Node25&#45;&gt;Node16</title>
<path fill="none" stroke="midnightblue" d="M127.05,-280.48C77.65,-273.93 24.98,-262.72 9.77,-244 -29.96,-195.1 68.49,-153.6 125.91,-134.41"/>
<polygon fill="midnightblue" stroke="midnightblue" points="127.01,-137.73 135.43,-131.3 124.84,-131.07 127.01,-137.73"/>
</g>
<!-- Node25&#45;&gt;Node20 -->
<g id="edge37" class="edge">
<title>Node25&#45;&gt;Node20</title>
<path fill="none" stroke="midnightblue" d="M243.94,-280.44C263.68,-271.64 294.65,-257.81 317.26,-247.72"/>
<polygon fill="midnightblue" stroke="midnightblue" points="318.98,-250.79 326.68,-243.52 316.13,-244.4 318.98,-250.79"/>
</g>
<!-- Node25&#45;&gt;Node25 -->
<g id="edge39" class="edge">
<title>Node25&#45;&gt;Node25</title>
<path fill="none" stroke="midnightblue" d="M274.15,-299.5C308.02,-302.33 341.27,-299.16 341.27,-290 341.27,-281.77 314.43,-278.38 284.42,-279.82"/>
<polygon fill="midnightblue" stroke="midnightblue" points="283.9,-276.35 274.15,-280.5 284.36,-283.34 283.9,-276.35"/>
</g>
<!-- Node26 -->
<g id="node26" class="node">
<title>Node26</title>
<g id="a_node26"><a xlink:title=" ">
<polygon fill="white" stroke="#bfbfbf" points="18.77,-224.5 18.77,-243.5 62.77,-243.5 62.77,-224.5 18.77,-224.5"/>
<text text-anchor="middle" x="40.77" y="-231.5" font-family="Helvetica,sans-Serif" font-size="10.00">string</text>
</a>
</g>
</g>
<!-- Node25&#45;&gt;Node26 -->
<g id="edge34" class="edge">
<title>Node25&#45;&gt;Node26</title>
<path fill="none" stroke="midnightblue" d="M195.61,-280.44C162.04,-270.59 107.08,-254.46 72.47,-244.3"/>
<polygon fill="midnightblue" stroke="midnightblue" points="73.44,-240.94 62.86,-241.48 71.47,-247.66 73.44,-240.94"/>
</g>
<!-- Node27 -->
<g id="node27" class="node">
<title>Node27</title>
<g id="a_node27"><a xlink:title=" ">
<polygon fill="white" stroke="#bfbfbf" points="80.77,-224.5 80.77,-243.5 140.77,-243.5 140.77,-224.5 80.77,-224.5"/>
<text text-anchor="middle" x="110.77" y="-231.5" font-family="Helvetica,sans-Serif" font-size="10.00">iostream</text>
</a>
</g>
</g>
<!-- Node25&#45;&gt;Node27 -->
<g id="edge35" class="edge">
<title>Node25&#45;&gt;Node27</title>
<path fill="none" stroke="midnightblue" d="M206.7,-280.44C188.19,-271.68 159.19,-257.94 137.91,-247.86"/>
<polygon fill="midnightblue" stroke="midnightblue" points="139.28,-244.63 128.75,-243.52 136.29,-250.96 139.28,-244.63"/>
</g>
<!-- Node28 -->
<g id="node28" class="node">
<title>Node28</title>
<g id="a_node28"><a xlink:title=" ">
<polygon fill="white" stroke="#bfbfbf" points="158.77,-224.5 158.77,-243.5 290.77,-243.5 290.77,-224.5 158.77,-224.5"/>
<text text-anchor="middle" x="224.77" y="-231.5" font-family="Helvetica,sans-Serif" font-size="10.00">impl/MackeyFunctor.ipp</text>
</a>
</g>
</g>
<!-- Node25&#45;&gt;Node28 -->
<g id="edge38" class="edge">
<title>Node25&#45;&gt;Node28</title>
<path fill="none" stroke="midnightblue" d="M224.77,-280.08C224.77,-273.01 224.77,-262.86 224.77,-253.99"/>
<polygon fill="midnightblue" stroke="midnightblue" points="228.27,-253.75 224.77,-243.75 221.27,-253.75 228.27,-253.75"/>
</g>
<!-- Node30&#45;&gt;Node6 -->
<g id="edge44" class="edge">
<title>Node30&#45;&gt;Node6</title>
<path fill="none" stroke="midnightblue" d="M715.63,-224.44C738.55,-215.48 774.74,-201.31 800.63,-191.18"/>
<polygon fill="midnightblue" stroke="midnightblue" points="801.97,-194.42 810,-187.52 799.41,-187.9 801.97,-194.42"/>
</g>
<!-- Node30&#45;&gt;Node10 -->
<g id="edge43" class="edge">
<title>Node30&#45;&gt;Node10</title>
<path fill="none" stroke="midnightblue" d="M649.24,-224.44C599.81,-214.94 520.02,-199.61 466.99,-189.42"/>
<polygon fill="midnightblue" stroke="midnightblue" points="467.56,-185.97 457.08,-187.52 466.24,-192.84 467.56,-185.97"/>
</g>
<!-- Node30&#45;&gt;Node30 -->
<g id="edge52" class="edge">
<title>Node30&#45;&gt;Node30</title>
<path fill="none" stroke="midnightblue" d="M732.58,-243.53C758.95,-246.31 784.77,-243.13 784.77,-234 784.77,-226.04 765.18,-222.61 742.7,-223.7"/>
<polygon fill="midnightblue" stroke="midnightblue" points="742.28,-220.22 732.58,-224.47 742.82,-227.2 742.28,-220.22"/>
</g>
<!-- Node31 -->
<g id="node31" class="node">
<title>Node31</title>
<g id="a_node31"><a xlink:href="ChangeBasis_8hpp.html" target="_top" xlink:title="Contains the construction of the change of basis matrices.">
<polygon fill="white" stroke="black" points="535.27,-168.5 535.27,-187.5 636.27,-187.5 636.27,-168.5 535.27,-168.5"/>
<text text-anchor="middle" x="585.77" y="-175.5" font-family="Helvetica,sans-Serif" font-size="10.00">ChangeBasis.hpp</text>
</a>
</g>
</g>
<!-- Node30&#45;&gt;Node31 -->
<g id="edge45" class="edge">
<title>Node30&#45;&gt;Node31</title>
<path fill="none" stroke="midnightblue" d="M676.41,-224.32C659.1,-215.66 632.25,-202.24 612.26,-192.25"/>
<polygon fill="midnightblue" stroke="midnightblue" points="613.59,-189 603.08,-187.65 610.45,-195.26 613.59,-189"/>
</g>
<!-- Node36 -->
<g id="node36" class="node">
<title>Node36</title>
<g id="a_node36"><a xlink:title=" ">
<polygon fill="white" stroke="#bfbfbf" points="654.77,-168.5 654.77,-187.5 732.77,-187.5 732.77,-168.5 654.77,-168.5"/>
<text text-anchor="middle" x="693.77" y="-175.5" font-family="Helvetica,sans-Serif" font-size="10.00">impl/Box.ipp</text>
</a>
</g>
</g>
<!-- Node30&#45;&gt;Node36 -->
<g id="edge51" class="edge">
<title>Node30&#45;&gt;Node36</title>
<path fill="none" stroke="midnightblue" d="M693.77,-224.08C693.77,-217.01 693.77,-206.86 693.77,-197.99"/>
<polygon fill="midnightblue" stroke="midnightblue" points="697.27,-197.75 693.77,-187.75 690.27,-197.75 697.27,-197.75"/>
</g>
<!-- Node31&#45;&gt;Node7 -->
<g id="edge46" class="edge">
<title>Node31&#45;&gt;Node7</title>
<path fill="none" stroke="midnightblue" d="M567.7,-168.44C549.19,-159.68 520.19,-145.94 498.91,-135.86"/>
<polygon fill="midnightblue" stroke="midnightblue" points="500.28,-132.63 489.75,-131.52 497.29,-138.96 500.28,-132.63"/>
</g>
<!-- Node32 -->
<g id="node32" class="node">
<title>Node32</title>
<g id="a_node32"><a xlink:title=" ">
<polygon fill="white" stroke="#bfbfbf" points="795.77,-112.5 795.77,-131.5 833.77,-131.5 833.77,-112.5 795.77,-112.5"/>
<text text-anchor="middle" x="814.77" y="-119.5" font-family="Helvetica,sans-Serif" font-size="10.00">map</text>
</a>
</g>
</g>
<!-- Node31&#45;&gt;Node32 -->
<g id="edge47" class="edge">
<title>Node31&#45;&gt;Node32</title>
<path fill="none" stroke="midnightblue" d="M629.18,-168.47C667.92,-160.59 726.37,-148.05 785.65,-132.12"/>
<polygon fill="midnightblue" stroke="midnightblue" points="786.82,-135.43 795.56,-129.43 784.99,-128.67 786.82,-135.43"/>
</g>
<!-- Node33 -->
<g id="node33" class="node">
<title>Node33</title>
<g id="a_node33"><a xlink:title=" ">
<polygon fill="white" stroke="#bfbfbf" points="513.77,-112.5 513.77,-131.5 577.77,-131.5 577.77,-112.5 513.77,-112.5"/>
<text text-anchor="middle" x="545.77" y="-119.5" font-family="Helvetica,sans-Serif" font-size="10.00">algorithm</text>
</a>
</g>
</g>
<!-- Node31&#45;&gt;Node33 -->
<g id="edge48" class="edge">
<title>Node31&#45;&gt;Node33</title>
<path fill="none" stroke="midnightblue" d="M579.16,-168.08C573.51,-160.46 565.22,-149.26 558.32,-139.94"/>
<polygon fill="midnightblue" stroke="midnightblue" points="561.01,-137.7 552.25,-131.75 555.39,-141.87 561.01,-137.7"/>
</g>
<!-- Node34 -->
<g id="node34" class="node">
<title>Node34</title>
<g id="a_node34"><a xlink:title=" ">
<polygon fill="white" stroke="#bfbfbf" points="595.77,-112.5 595.77,-131.5 637.77,-131.5 637.77,-112.5 595.77,-112.5"/>
<text text-anchor="middle" x="616.77" y="-119.5" font-family="Helvetica,sans-Serif" font-size="10.00">array</text>
</a>
</g>
</g>
<!-- Node31&#45;&gt;Node34 -->
<g id="edge49" class="edge">
<title>Node31&#45;&gt;Node34</title>
<path fill="none" stroke="midnightblue" d="M590.89,-168.08C595.17,-160.61 601.43,-149.72 606.71,-140.52"/>
<polygon fill="midnightblue" stroke="midnightblue" points="609.8,-142.17 611.74,-131.75 603.73,-138.68 609.8,-142.17"/>
</g>
<!-- Node35 -->
<g id="node35" class="node">
<title>Node35</title>
<g id="a_node35"><a xlink:title=" ">
<polygon fill="white" stroke="#bfbfbf" points="655.77,-112.5 655.77,-131.5 777.77,-131.5 777.77,-112.5 655.77,-112.5"/>
<text text-anchor="middle" x="716.77" y="-119.5" font-family="Helvetica,sans-Serif" font-size="10.00">impl/ChangeBasis.ipp</text>
</a>
</g>
</g>
<!-- Node31&#45;&gt;Node35 -->
<g id="edge50" class="edge">
<title>Node31&#45;&gt;Node35</title>
<path fill="none" stroke="midnightblue" d="M606.52,-168.44C628.08,-159.56 662.03,-145.56 686.56,-135.45"/>
<polygon fill="midnightblue" stroke="midnightblue" points="688.2,-138.56 696.11,-131.52 685.53,-132.09 688.2,-138.56"/>
</g>
<!-- Node39&#45;&gt;Node6 -->
<g id="edge58" class="edge">
<title>Node39&#45;&gt;Node6</title>
<path fill="none" stroke="midnightblue" d="M933.59,-224.44C913.86,-215.64 882.88,-201.81 860.27,-191.72"/>
<polygon fill="midnightblue" stroke="midnightblue" points="861.41,-188.4 850.85,-187.52 858.56,-194.79 861.41,-188.4"/>
</g>
<!-- Node39&#45;&gt;Node13 -->
<g id="edge59" class="edge">
<title>Node39&#45;&gt;Node13</title>
<path fill="none" stroke="midnightblue" d="M980.78,-224.4C997.94,-217.51 1018.52,-205.98 1028.77,-188 1045.49,-158.66 1050.67,-137.71 1028.77,-112 999.85,-78.07 871.73,-69.62 799.23,-67.59"/>
<polygon fill="midnightblue" stroke="midnightblue" points="799.04,-64.08 788.95,-67.33 798.86,-71.08 799.04,-64.08"/>
</g>
<!-- Node39&#45;&gt;Node39 -->
<g id="edge61" class="edge">
<title>Node39&#45;&gt;Node39</title>
<path fill="none" stroke="midnightblue" d="M993.89,-243.5C1022.08,-246.33 1049.77,-243.16 1049.77,-234 1049.77,-225.95 1028.38,-222.53 1004.06,-223.74"/>
<polygon fill="midnightblue" stroke="midnightblue" points="1003.6,-220.26 993.89,-224.5 1004.12,-227.24 1003.6,-220.26"/>
</g>
<!-- Node40 -->
<g id="node40" class="node">
<title>Node40</title>
<g id="a_node40"><a xlink:title=" ">
<polygon fill="white" stroke="#bfbfbf" points="930.27,-168.5 930.27,-187.5 1019.27,-187.5 1019.27,-168.5 930.27,-168.5"/>
<text text-anchor="middle" x="974.77" y="-175.5" font-family="Helvetica,sans-Serif" font-size="10.00">impl/Morse.ipp</text>
</a>
</g>
</g>
<!-- Node39&#45;&gt;Node40 -->
<g id="edge60" class="edge">
<title>Node39&#45;&gt;Node40</title>
<path fill="none" stroke="midnightblue" d="M956.4,-224.08C959.38,-216.77 963.69,-206.18 967.39,-197.1"/>
<polygon fill="midnightblue" stroke="midnightblue" points="970.67,-198.33 971.2,-187.75 964.19,-195.69 970.67,-198.33"/>
</g>
</g>
</svg>
