<?xml version="1.0" encoding="UTF-8" standalone="no"?>
<!DOCTYPE svg PUBLIC "-//W3C//DTD SVG 1.1//EN"
 "http://www.w3.org/Graphics/SVG/1.1/DTD/svg11.dtd">
<!-- Generated by graphviz version 2.43.0 (0)
 -->
<!-- Title: Products Pages: 1 -->
<svg width="264pt" height="167pt"
 viewBox="0.00 0.00 264.00 167.00" xmlns="http://www.w3.org/2000/svg" xmlns:xlink="http://www.w3.org/1999/xlink">
<g id="graph0" class="graph" transform="scale(1 1) rotate(0) translate(4 163)">
<title>Products</title>
<polygon fill="white" stroke="transparent" points="-4,4 -4,-163 260,-163 260,4 -4,4"/>
<g id="clust1" class="cluster">
<title>clusterdir_b2f33c71d4aa5e7af42a1ca61ff5af1b</title>
<g id="a_clust1"><a xlink:href="dir_b2f33c71d4aa5e7af42a1ca61ff5af1b.html" target="_top" xlink:title="source">
<polygon fill="#ddddee" stroke="black" points="8,-8 8,-151 248,-151 248,-8 8,-8"/>
<text text-anchor="middle" x="128" y="-139" font-family="Helvetica,sans-Serif" font-size="10.00">source</text>
</a>
</g>
</g>
<!-- dir_0d2a932382c826b5f090bd657ea984d5 -->
<g id="node1" class="node">
<title>dir_0d2a932382c826b5f090bd657ea984d5</title>
<g id="a_node1"><a xlink:href="dir_0d2a932382c826b5f090bd657ea984d5.html" target="_top" xlink:title="Mackey_Functors">
<polygon fill="none" stroke="black" points="117.5,-52 16.5,-52 16.5,-16 117.5,-16 117.5,-52"/>
<text text-anchor="middle" x="67" y="-31.5" font-family="Helvetica,sans-Serif" font-size="10.00">Mackey_Functors</text>
</a>
</g>
</g>
<!-- dir_40bece41bad7e53cfe205133ae844b04 -->
<g id="node2" class="node">
<title>dir_40bece41bad7e53cfe205133ae844b04</title>
<g id="a_node2"><a xlink:href="dir_40bece41bad7e53cfe205133ae844b04.html" target="_top" xlink:title="Chain_Complexes">
<polygon fill="none" stroke="black" points="240,-52 136,-52 136,-16 240,-16 240,-52"/>
<text text-anchor="middle" x="188" y="-31.5" font-family="Helvetica,sans-Serif" font-size="10.00">Chain_Complexes</text>
</a>
</g>
</g>
<!-- dir_9264601ff92627dec15e5121f27e52c6 -->
<g id="node3" class="node">
<title>dir_9264601ff92627dec15e5121f27e52c6</title>
<g id="a_node3"><a xlink:href="dir_9264601ff92627dec15e5121f27e52c6.html" target="_top" xlink:title="Products">
<polygon fill="#eeeeff" stroke="black" points="156.5,-124 97.5,-124 97.5,-88 156.5,-88 156.5,-124"/>
<text text-anchor="middle" x="127" y="-103.5" font-family="Helvetica,sans-Serif" font-size="10.00">Products</text>
</a>
</g>
</g>
<!-- dir_9264601ff92627dec15e5121f27e52c6&#45;&gt;dir_0d2a932382c826b5f090bd657ea984d5 -->
<g id="edge1" class="edge">
<title>dir_9264601ff92627dec15e5121f27e52c6&#45;&gt;dir_0d2a932382c826b5f090bd657ea984d5</title>
<path fill="none" stroke="black" d="M112.17,-87.7C104.98,-79.3 96.2,-69.07 88.31,-59.86"/>
<polygon fill="black" stroke="black" points="90.83,-57.42 81.66,-52.1 85.51,-61.97 90.83,-57.42"/>
<g id="a_edge1&#45;headlabel"><a xlink:href="dir_000011_000002.html" target="_top" xlink:title="2">
<text text-anchor="middle" x="95.32" y="-55.8" font-family="Helvetica,sans-Serif" font-size="10.00">2</text>
</a>
</g>
</g>
<!-- dir_9264601ff92627dec15e5121f27e52c6&#45;&gt;dir_40bece41bad7e53cfe205133ae844b04 -->
<g id="edge2" class="edge">
<title>dir_9264601ff92627dec15e5121f27e52c6&#45;&gt;dir_40bece41bad7e53cfe205133ae844b04</title>
<path fill="none" stroke="black" d="M142.08,-87.7C149.39,-79.3 158.31,-69.07 166.34,-59.86"/>
<polygon fill="black" stroke="black" points="169.16,-61.94 173.09,-52.1 163.89,-57.34 169.16,-61.94"/>
<g id="a_edge2&#45;headlabel"><a xlink:href="dir_000011_000005.html" target="_top" xlink:title="1">
<text text-anchor="middle" x="168.94" y="-64.02" font-family="Helvetica,sans-Serif" font-size="10.00">1</text>
</a>
</g>
</g>
</g>
</svg>
