<?xml version="1.0" encoding="UTF-8" standalone="no"?>
<!DOCTYPE svg PUBLIC "-//W3C//DTD SVG 1.1//EN"
 "http://www.w3.org/Graphics/SVG/1.1/DTD/svg11.dtd">
<!-- Generated by graphviz version 2.43.0 (0)
 -->
<!-- Title: Compute Pages: 1 -->
<svg width="119pt" height="223pt"
 viewBox="0.00 0.00 118.50 223.00" xmlns="http://www.w3.org/2000/svg" xmlns:xlink="http://www.w3.org/1999/xlink">
<g id="graph0" class="graph" transform="scale(1 1) rotate(0) translate(4 219)">
<title>Compute</title>
<polygon fill="white" stroke="transparent" points="-4,4 -4,-219 114.5,-219 114.5,4 -4,4"/>
<g id="clust1" class="cluster">
<title>clusterdir_b2f33c71d4aa5e7af42a1ca61ff5af1b</title>
<g id="a_clust1"><a xlink:href="dir_b2f33c71d4aa5e7af42a1ca61ff5af1b.html" target="_top" xlink:title="source">
<polygon fill="#ddddee" stroke="black" points="13,-136 13,-207 91,-207 91,-136 13,-136"/>
<text text-anchor="middle" x="52" y="-195" font-family="Helvetica,sans-Serif" font-size="10.00">source</text>
</a>
</g>
</g>
<!-- dir_a1645d2cf5b3188cbea122310b04ad27 -->
<g id="node1" class="node">
<title>dir_a1645d2cf5b3188cbea122310b04ad27</title>
<g id="a_node1"><a xlink:href="dir_a1645d2cf5b3188cbea122310b04ad27.html" target="_top" xlink:title="Compute">
<polygon fill="#eeeeff" stroke="black" points="82.5,-180 21.5,-180 21.5,-144 82.5,-144 82.5,-180"/>
<text text-anchor="middle" x="52" y="-159.5" font-family="Helvetica,sans-Serif" font-size="10.00">Compute</text>
</a>
</g>
</g>
<!-- dir_40bece41bad7e53cfe205133ae844b04 -->
<g id="node2" class="node">
<title>dir_40bece41bad7e53cfe205133ae844b04</title>
<g id="a_node2"><a xlink:href="dir_40bece41bad7e53cfe205133ae844b04.html" target="_top" xlink:title="Chain_Complexes">
<polygon fill="none" stroke="black" points="104,-36 0,-36 0,0 104,0 104,-36"/>
<text text-anchor="middle" x="52" y="-15.5" font-family="Helvetica,sans-Serif" font-size="10.00">Chain_Complexes</text>
</a>
</g>
</g>
<!-- dir_a1645d2cf5b3188cbea122310b04ad27&#45;&gt;dir_40bece41bad7e53cfe205133ae844b04 -->
<g id="edge1" class="edge">
<title>dir_a1645d2cf5b3188cbea122310b04ad27&#45;&gt;dir_40bece41bad7e53cfe205133ae844b04</title>
<path fill="none" stroke="black" d="M48.35,-143.91C46.32,-133.57 44.02,-120.09 43,-108 41.66,-92.06 41.66,-87.94 43,-72 43.72,-63.5 45.07,-54.31 46.51,-46.01"/>
<polygon fill="black" stroke="black" points="49.97,-46.56 48.35,-36.09 43.09,-45.29 49.97,-46.56"/>
<g id="a_edge1&#45;headlabel"><a xlink:href="dir_000008_000005.html" target="_top" xlink:title="1">
<text text-anchor="middle" x="52.11" y="-48.11" font-family="Helvetica,sans-Serif" font-size="10.00">1</text>
</a>
</g>
</g>
<!-- dir_9264601ff92627dec15e5121f27e52c6 -->
<g id="node3" class="node">
<title>dir_9264601ff92627dec15e5121f27e52c6</title>
<g id="a_node3"><a xlink:href="dir_9264601ff92627dec15e5121f27e52c6.html" target="_top" xlink:title="Products">
<polygon fill="none" stroke="black" points="110.5,-108 51.5,-108 51.5,-72 110.5,-72 110.5,-108"/>
<text text-anchor="middle" x="81" y="-87.5" font-family="Helvetica,sans-Serif" font-size="10.00">Products</text>
</a>
</g>
</g>
<!-- dir_a1645d2cf5b3188cbea122310b04ad27&#45;&gt;dir_9264601ff92627dec15e5121f27e52c6 -->
<g id="edge2" class="edge">
<title>dir_a1645d2cf5b3188cbea122310b04ad27&#45;&gt;dir_9264601ff92627dec15e5121f27e52c6</title>
<path fill="none" stroke="black" d="M59.17,-143.7C62.43,-135.81 66.37,-126.3 70,-117.55"/>
<polygon fill="black" stroke="black" points="73.32,-118.68 73.91,-108.1 66.85,-116 73.32,-118.68"/>
<g id="a_edge2&#45;headlabel"><a xlink:href="dir_000008_000011.html" target="_top" xlink:title="1">
<text text-anchor="middle" x="74.57" y="-120.59" font-family="Helvetica,sans-Serif" font-size="10.00">1</text>
</a>
</g>
</g>
<!-- dir_9264601ff92627dec15e5121f27e52c6&#45;&gt;dir_40bece41bad7e53cfe205133ae844b04 -->
<g id="edge3" class="edge">
<title>dir_9264601ff92627dec15e5121f27e52c6&#45;&gt;dir_40bece41bad7e53cfe205133ae844b04</title>
<path fill="none" stroke="black" d="M73.83,-71.7C70.57,-63.81 66.63,-54.3 63,-45.55"/>
<polygon fill="black" stroke="black" points="66.15,-44 59.09,-36.1 59.68,-46.68 66.15,-44"/>
<g id="a_edge3&#45;headlabel"><a xlink:href="dir_000011_000005.html" target="_top" xlink:title="1">
<text text-anchor="middle" x="70.15" y="-43.74" font-family="Helvetica,sans-Serif" font-size="10.00">1</text>
</a>
</g>
</g>
</g>
</svg>
