<?xml version="1.0" encoding="UTF-8" standalone="no"?>
<!DOCTYPE svg PUBLIC "-//W3C//DTD SVG 1.1//EN"
 "http://www.w3.org/Graphics/SVG/1.1/DTD/svg11.dtd">
<!-- Generated by graphviz version 2.43.0 (0)
 -->
<!-- Title: source Pages: 1 -->
<svg width="314pt" height="652pt"
 viewBox="0.00 0.00 314.00 652.00" xmlns="http://www.w3.org/2000/svg" xmlns:xlink="http://www.w3.org/1999/xlink">
<g id="graph0" class="graph" transform="scale(1 1) rotate(0) translate(4 648)">
<title>source</title>
<polygon fill="white" stroke="transparent" points="-4,4 -4,-648 310,-648 310,4 -4,4"/>
<g id="clust1" class="cluster">
<title>clusterdir_b2f33c71d4aa5e7af42a1ca61ff5af1b</title>
<g id="a_clust1"><a xlink:href="dir_b2f33c71d4aa5e7af42a1ca61ff5af1b.html" target="_top">
<polygon fill="#eeeeff" stroke="black" points="8,-8 8,-636 298,-636 298,-8 8,-8"/>
</a>
</g>
</g>
<!-- dir_b2f33c71d4aa5e7af42a1ca61ff5af1b -->
<g id="node1" class="node">
<title>dir_b2f33c71d4aa5e7af42a1ca61ff5af1b</title>
<text text-anchor="middle" x="143" y="-319.5" font-family="Helvetica,sans-Serif" font-size="10.00">source</text>
</g>
<!-- dir_2718b09f40e53cc5d631c5ee634640b9 -->
<g id="node6" class="node">
<title>dir_2718b09f40e53cc5d631c5ee634640b9</title>
<g id="a_node6"><a xlink:href="dir_2718b09f40e53cc5d631c5ee634640b9.html" target="_top" xlink:title="Groups">
<polygon fill="white" stroke="black" points="170,-268 116,-268 116,-232 170,-232 170,-268"/>
<text text-anchor="middle" x="143" y="-247.5" font-family="Helvetica,sans-Serif" font-size="10.00">Groups</text>
</a>
</g>
</g>
<!-- dir_b2f33c71d4aa5e7af42a1ca61ff5af1b&#45;&gt;dir_2718b09f40e53cc5d631c5ee634640b9 -->
<g id="edge3" class="edge">
<title>dir_b2f33c71d4aa5e7af42a1ca61ff5af1b&#45;&gt;dir_2718b09f40e53cc5d631c5ee634640b9</title>
<path fill="none" stroke="black" d="M143,-303.7C143,-295.98 143,-286.71 143,-278.11"/>
<polygon fill="black" stroke="black" points="146.5,-278.1 143,-268.1 139.5,-278.1 146.5,-278.1"/>
<g id="a_edge3&#45;headlabel"><a xlink:href="dir_000000_000006.html" target="_top" xlink:title="1">
<text text-anchor="middle" x="149.34" y="-279.2" font-family="Helvetica,sans-Serif" font-size="10.00">1</text>
</a>
</g>
</g>
<!-- dir_40bece41bad7e53cfe205133ae844b04 -->
<g id="node2" class="node">
<title>dir_40bece41bad7e53cfe205133ae844b04</title>
<g id="a_node2"><a xlink:href="dir_40bece41bad7e53cfe205133ae844b04.html" target="_top" xlink:title="Chain_Complexes">
<polygon fill="white" stroke="black" points="180,-196 76,-196 76,-160 180,-160 180,-196"/>
<text text-anchor="middle" x="128" y="-175.5" font-family="Helvetica,sans-Serif" font-size="10.00">Chain_Complexes</text>
</a>
</g>
</g>
<!-- dir_2d28ba3a378a97d085301b74b64c3677 -->
<g id="node13" class="node">
<title>dir_2d28ba3a378a97d085301b74b64c3677</title>
<g id="a_node13"><a xlink:href="dir_2d28ba3a378a97d085301b74b64c3677.html" target="_top" xlink:title="Utility">
<polygon fill="white" stroke="black" points="187,-124 133,-124 133,-88 187,-88 187,-124"/>
<text text-anchor="middle" x="160" y="-103.5" font-family="Helvetica,sans-Serif" font-size="10.00">Utility</text>
</a>
</g>
</g>
<!-- dir_40bece41bad7e53cfe205133ae844b04&#45;&gt;dir_2d28ba3a378a97d085301b74b64c3677 -->
<g id="edge1" class="edge">
<title>dir_40bece41bad7e53cfe205133ae844b04&#45;&gt;dir_2d28ba3a378a97d085301b74b64c3677</title>
<path fill="none" stroke="black" d="M135.91,-159.7C139.55,-151.73 143.95,-142.1 147.99,-133.26"/>
<polygon fill="black" stroke="black" points="151.21,-134.65 152.18,-124.1 144.84,-131.74 151.21,-134.65"/>
<g id="a_edge1&#45;headlabel"><a xlink:href="dir_000005_000009.html" target="_top" xlink:title="1">
<text text-anchor="middle" x="152.29" y="-136.6" font-family="Helvetica,sans-Serif" font-size="10.00">1</text>
</a>
</g>
</g>
<!-- dir_0930667546aa6907e4b6d8514657f097 -->
<g id="node3" class="node">
<title>dir_0930667546aa6907e4b6d8514657f097</title>
<g id="a_node3"><a xlink:href="dir_0930667546aa6907e4b6d8514657f097.html" target="_top" xlink:title="Coefficients">
<polygon fill="white" stroke="black" points="90,-412 16,-412 16,-376 90,-376 90,-412"/>
<text text-anchor="middle" x="53" y="-391.5" font-family="Helvetica,sans-Serif" font-size="10.00">Coefficients</text>
</a>
</g>
</g>
<!-- dir_a83b8d8eeae076f2aa7d6596810ecb6e -->
<g id="node12" class="node">
<title>dir_a83b8d8eeae076f2aa7d6596810ecb6e</title>
<g id="a_node12"><a xlink:href="dir_a83b8d8eeae076f2aa7d6596810ecb6e.html" target="_top" xlink:title="Types">
<polygon fill="white" stroke="black" points="187,-52 133,-52 133,-16 187,-16 187,-52"/>
<text text-anchor="middle" x="160" y="-31.5" font-family="Helvetica,sans-Serif" font-size="10.00">Types</text>
</a>
</g>
</g>
<!-- dir_0930667546aa6907e4b6d8514657f097&#45;&gt;dir_a83b8d8eeae076f2aa7d6596810ecb6e -->
<g id="edge2" class="edge">
<title>dir_0930667546aa6907e4b6d8514657f097&#45;&gt;dir_a83b8d8eeae076f2aa7d6596810ecb6e</title>
<path fill="none" stroke="black" d="M45.05,-375.65C40.65,-365.45 35.4,-352.2 32,-340 21.22,-301.36 17,-291.11 17,-251 17,-251 17,-251 17,-177 17,-116.86 81.47,-73.46 123.83,-51.44"/>
<polygon fill="black" stroke="black" points="125.41,-54.56 132.77,-46.94 122.26,-48.31 125.41,-54.56"/>
<g id="a_edge2&#45;headlabel"><a xlink:href="dir_000013_000003.html" target="_top" xlink:title="1">
<text text-anchor="middle" x="123.48" y="-56.22" font-family="Helvetica,sans-Serif" font-size="10.00">1</text>
</a>
</g>
</g>
<!-- dir_135606c558b601cf506eb1680492ead9 -->
<g id="node4" class="node">
<title>dir_135606c558b601cf506eb1680492ead9</title>
<g id="a_node4"><a xlink:href="dir_135606c558b601cf506eb1680492ead9.html" target="_top" xlink:title="Factorization">
<polygon fill="white" stroke="black" points="148.5,-556 69.5,-556 69.5,-520 148.5,-520 148.5,-556"/>
<text text-anchor="middle" x="109" y="-535.5" font-family="Helvetica,sans-Serif" font-size="10.00">Factorization</text>
</a>
</g>
</g>
<!-- dir_7f70e815a1e85bc79332755d461ea4f9 -->
<g id="node5" class="node">
<title>dir_7f70e815a1e85bc79332755d461ea4f9</title>
<g id="a_node5"><a xlink:href="dir_7f70e815a1e85bc79332755d461ea4f9.html" target="_top" xlink:title="Graph">
<polygon fill="white" stroke="black" points="90,-484 36,-484 36,-448 90,-448 90,-484"/>
<text text-anchor="middle" x="63" y="-463.5" font-family="Helvetica,sans-Serif" font-size="10.00">Graph</text>
</a>
</g>
</g>
<!-- dir_135606c558b601cf506eb1680492ead9&#45;&gt;dir_7f70e815a1e85bc79332755d461ea4f9 -->
<g id="edge23" class="edge">
<title>dir_135606c558b601cf506eb1680492ead9&#45;&gt;dir_7f70e815a1e85bc79332755d461ea4f9</title>
<path fill="none" stroke="black" d="M97.63,-519.7C92.28,-511.56 85.8,-501.69 79.89,-492.7"/>
<polygon fill="black" stroke="black" points="82.66,-490.54 74.24,-484.1 76.81,-494.38 82.66,-490.54"/>
<g id="a_edge23&#45;headlabel"><a xlink:href="dir_000008_000010.html" target="_top" xlink:title="1">
<text text-anchor="middle" x="87" y="-489.48" font-family="Helvetica,sans-Serif" font-size="10.00">1</text>
</a>
</g>
</g>
<!-- dir_45da3ff196d16836594e0c6a3eb44491 -->
<g id="node11" class="node">
<title>dir_45da3ff196d16836594e0c6a3eb44491</title>
<g id="a_node11"><a xlink:href="dir_45da3ff196d16836594e0c6a3eb44491.html" target="_top" xlink:title="Spaces">
<polygon fill="white" stroke="black" points="182,-484 128,-484 128,-448 182,-448 182,-484"/>
<text text-anchor="middle" x="155" y="-463.5" font-family="Helvetica,sans-Serif" font-size="10.00">Spaces</text>
</a>
</g>
</g>
<!-- dir_135606c558b601cf506eb1680492ead9&#45;&gt;dir_45da3ff196d16836594e0c6a3eb44491 -->
<g id="edge22" class="edge">
<title>dir_135606c558b601cf506eb1680492ead9&#45;&gt;dir_45da3ff196d16836594e0c6a3eb44491</title>
<path fill="none" stroke="black" d="M120.37,-519.7C125.72,-511.56 132.2,-501.69 138.11,-492.7"/>
<polygon fill="black" stroke="black" points="141.19,-494.38 143.76,-484.1 135.34,-490.54 141.19,-494.38"/>
<g id="a_edge22&#45;headlabel"><a xlink:href="dir_000008_000004.html" target="_top" xlink:title="1">
<text text-anchor="middle" x="141.59" y="-496.45" font-family="Helvetica,sans-Serif" font-size="10.00">1</text>
</a>
</g>
</g>
<!-- dir_135606c558b601cf506eb1680492ead9&#45;&gt;dir_2d28ba3a378a97d085301b74b64c3677 -->
<g id="edge21" class="edge">
<title>dir_135606c558b601cf506eb1680492ead9&#45;&gt;dir_2d28ba3a378a97d085301b74b64c3677</title>
<path fill="none" stroke="black" d="M111.78,-519.6C115.84,-489.01 120.76,-424.25 99,-376 89.7,-355.37 74.53,-359.47 63,-340 42.55,-305.46 25.14,-192.99 48,-160 65.31,-135.02 97.61,-121.48 123.1,-114.35"/>
<polygon fill="black" stroke="black" points="124.02,-117.72 132.83,-111.83 122.28,-110.94 124.02,-117.72"/>
<g id="a_edge21&#45;headlabel"><a xlink:href="dir_000008_000009.html" target="_top" xlink:title="2">
<text text-anchor="middle" x="121.25" y="-118.87" font-family="Helvetica,sans-Serif" font-size="10.00">2</text>
</a>
</g>
</g>
<!-- dir_2718b09f40e53cc5d631c5ee634640b9&#45;&gt;dir_40bece41bad7e53cfe205133ae844b04 -->
<g id="edge11" class="edge">
<title>dir_2718b09f40e53cc5d631c5ee634640b9&#45;&gt;dir_40bece41bad7e53cfe205133ae844b04</title>
<path fill="none" stroke="black" d="M139.29,-231.7C137.64,-223.98 135.65,-214.71 133.81,-206.11"/>
<polygon fill="black" stroke="black" points="137.18,-205.15 131.67,-196.1 130.34,-206.62 137.18,-205.15"/>
<g id="a_edge11&#45;headlabel"><a xlink:href="dir_000006_000005.html" target="_top" xlink:title="2">
<text text-anchor="middle" x="140.71" y="-205.57" font-family="Helvetica,sans-Serif" font-size="10.00">2</text>
</a>
</g>
</g>
<!-- dir_2718b09f40e53cc5d631c5ee634640b9&#45;&gt;dir_2d28ba3a378a97d085301b74b64c3677 -->
<g id="edge10" class="edge">
<title>dir_2718b09f40e53cc5d631c5ee634640b9&#45;&gt;dir_2d28ba3a378a97d085301b74b64c3677</title>
<path fill="none" stroke="black" d="M163.82,-231.62C173.46,-222.2 183.89,-209.7 189,-196 196.84,-175 187.81,-150.79 177.82,-132.92"/>
<polygon fill="black" stroke="black" points="180.73,-130.98 172.58,-124.21 174.73,-134.59 180.73,-130.98"/>
<g id="a_edge10&#45;headlabel"><a xlink:href="dir_000006_000009.html" target="_top" xlink:title="2">
<text text-anchor="middle" x="185.02" y="-130.1" font-family="Helvetica,sans-Serif" font-size="10.00">2</text>
</a>
</g>
</g>
<!-- dir_d5584a8e3fba8745e0e8931520df1292 -->
<g id="node7" class="node">
<title>dir_d5584a8e3fba8745e0e8931520df1292</title>
<g id="a_node7"><a xlink:href="dir_d5584a8e3fba8745e0e8931520df1292.html" target="_top" xlink:title="Homology">
<polygon fill="white" stroke="black" points="255.5,-268 188.5,-268 188.5,-232 255.5,-232 255.5,-268"/>
<text text-anchor="middle" x="222" y="-247.5" font-family="Helvetica,sans-Serif" font-size="10.00">Homology</text>
</a>
</g>
</g>
<!-- dir_d5584a8e3fba8745e0e8931520df1292&#45;&gt;dir_40bece41bad7e53cfe205133ae844b04 -->
<g id="edge16" class="edge">
<title>dir_d5584a8e3fba8745e0e8931520df1292&#45;&gt;dir_40bece41bad7e53cfe205133ae844b04</title>
<path fill="none" stroke="black" d="M198.76,-231.7C186.81,-222.8 172.08,-211.82 159.15,-202.2"/>
<polygon fill="black" stroke="black" points="161.08,-199.27 150.97,-196.1 156.9,-204.88 161.08,-199.27"/>
<g id="a_edge16&#45;headlabel"><a xlink:href="dir_000001_000005.html" target="_top" xlink:title="1">
<text text-anchor="middle" x="165.66" y="-196.64" font-family="Helvetica,sans-Serif" font-size="10.00">1</text>
</a>
</g>
</g>
<!-- dir_d5584a8e3fba8745e0e8931520df1292&#45;&gt;dir_a83b8d8eeae076f2aa7d6596810ecb6e -->
<g id="edge17" class="edge">
<title>dir_d5584a8e3fba8745e0e8931520df1292&#45;&gt;dir_a83b8d8eeae076f2aa7d6596810ecb6e</title>
<path fill="none" stroke="black" d="M221.65,-231.91C220.52,-201.78 215.77,-137.73 196,-88 192.16,-78.33 186.32,-68.66 180.45,-60.27"/>
<polygon fill="black" stroke="black" points="183.16,-58.03 174.42,-52.05 177.51,-62.18 183.16,-58.03"/>
<g id="a_edge17&#45;headlabel"><a xlink:href="dir_000001_000003.html" target="_top" xlink:title="1">
<text text-anchor="middle" x="187.57" y="-56.75" font-family="Helvetica,sans-Serif" font-size="10.00">1</text>
</a>
</g>
</g>
<!-- dir_d5584a8e3fba8745e0e8931520df1292&#45;&gt;dir_2d28ba3a378a97d085301b74b64c3677 -->
<g id="edge15" class="edge">
<title>dir_d5584a8e3fba8745e0e8931520df1292&#45;&gt;dir_2d28ba3a378a97d085301b74b64c3677</title>
<path fill="none" stroke="black" d="M218.33,-231.73C214.08,-213.39 206.19,-183.82 195,-160 190.62,-150.67 184.76,-141.08 179.1,-132.67"/>
<polygon fill="black" stroke="black" points="181.93,-130.6 173.34,-124.39 176.18,-134.6 181.93,-130.6"/>
<g id="a_edge15&#45;headlabel"><a xlink:href="dir_000001_000009.html" target="_top" xlink:title="2">
<text text-anchor="middle" x="186.31" y="-129.43" font-family="Helvetica,sans-Serif" font-size="10.00">2</text>
</a>
</g>
</g>
<!-- dir_0d2a932382c826b5f090bd657ea984d5 -->
<g id="node8" class="node">
<title>dir_0d2a932382c826b5f090bd657ea984d5</title>
<g id="a_node8"><a xlink:href="dir_0d2a932382c826b5f090bd657ea984d5.html" target="_top" xlink:title="Mackey_Functors">
<polygon fill="white" stroke="black" points="289.5,-340 188.5,-340 188.5,-304 289.5,-304 289.5,-340"/>
<text text-anchor="middle" x="239" y="-319.5" font-family="Helvetica,sans-Serif" font-size="10.00">Mackey_Functors</text>
</a>
</g>
</g>
<!-- dir_0d2a932382c826b5f090bd657ea984d5&#45;&gt;dir_d5584a8e3fba8745e0e8931520df1292 -->
<g id="edge9" class="edge">
<title>dir_0d2a932382c826b5f090bd657ea984d5&#45;&gt;dir_d5584a8e3fba8745e0e8931520df1292</title>
<path fill="none" stroke="black" d="M234.8,-303.7C232.9,-295.9 230.62,-286.51 228.52,-277.83"/>
<polygon fill="black" stroke="black" points="231.92,-277 226.15,-268.1 225.11,-278.65 231.92,-277"/>
<g id="a_edge9&#45;headlabel"><a xlink:href="dir_000002_000001.html" target="_top" xlink:title="3">
<text text-anchor="middle" x="235.52" y="-277.32" font-family="Helvetica,sans-Serif" font-size="10.00">3</text>
</a>
</g>
</g>
<!-- dir_0d2a932382c826b5f090bd657ea984d5&#45;&gt;dir_45da3ff196d16836594e0c6a3eb44491 -->
<g id="edge8" class="edge">
<title>dir_0d2a932382c826b5f090bd657ea984d5&#45;&gt;dir_45da3ff196d16836594e0c6a3eb44491</title>
<path fill="none" stroke="black" d="M243.14,-340.3C246.68,-359.2 249.44,-389.74 237,-412 227.09,-429.73 208.5,-442.47 191.51,-451.01"/>
<polygon fill="black" stroke="black" points="189.88,-447.91 182.31,-455.33 192.85,-454.25 189.88,-447.91"/>
<g id="a_edge8&#45;headlabel"><a xlink:href="dir_000002_000004.html" target="_top" xlink:title="1">
<text text-anchor="middle" x="191.93" y="-441.32" font-family="Helvetica,sans-Serif" font-size="10.00">1</text>
</a>
</g>
</g>
<!-- dir_0d2a932382c826b5f090bd657ea984d5&#45;&gt;dir_2d28ba3a378a97d085301b74b64c3677 -->
<g id="edge7" class="edge">
<title>dir_0d2a932382c826b5f090bd657ea984d5&#45;&gt;dir_2d28ba3a378a97d085301b74b64c3677</title>
<path fill="none" stroke="black" d="M250.49,-303.75C261.03,-285.67 273.78,-256.56 265,-232 250.22,-190.64 214.86,-153.55 189.25,-130.71"/>
<polygon fill="black" stroke="black" points="191.49,-128.02 181.65,-124.1 186.89,-133.3 191.49,-128.02"/>
<g id="a_edge7&#45;headlabel"><a xlink:href="dir_000002_000009.html" target="_top" xlink:title="1">
<text text-anchor="middle" x="196.06" y="-125.74" font-family="Helvetica,sans-Serif" font-size="10.00">1</text>
</a>
</g>
</g>
<!-- dir_9264601ff92627dec15e5121f27e52c6 -->
<g id="node9" class="node">
<title>dir_9264601ff92627dec15e5121f27e52c6</title>
<g id="a_node9"><a xlink:href="dir_9264601ff92627dec15e5121f27e52c6.html" target="_top" xlink:title="Products">
<polygon fill="white" stroke="black" points="227.5,-412 168.5,-412 168.5,-376 227.5,-376 227.5,-412"/>
<text text-anchor="middle" x="198" y="-391.5" font-family="Helvetica,sans-Serif" font-size="10.00">Products</text>
</a>
</g>
</g>
<!-- dir_9264601ff92627dec15e5121f27e52c6&#45;&gt;dir_40bece41bad7e53cfe205133ae844b04 -->
<g id="edge20" class="edge">
<title>dir_9264601ff92627dec15e5121f27e52c6&#45;&gt;dir_40bece41bad7e53cfe205133ae844b04</title>
<path fill="none" stroke="black" d="M168.1,-379.61C144.3,-368.26 113.88,-351.97 107,-340 82.71,-297.74 100.82,-239.11 115.13,-205.51"/>
<polygon fill="black" stroke="black" points="118.34,-206.89 119.21,-196.33 111.95,-204.04 118.34,-206.89"/>
<g id="a_edge20&#45;headlabel"><a xlink:href="dir_000011_000005.html" target="_top" xlink:title="1">
<text text-anchor="middle" x="119.48" y="-208.82" font-family="Helvetica,sans-Serif" font-size="10.00">1</text>
</a>
</g>
</g>
<!-- dir_9264601ff92627dec15e5121f27e52c6&#45;&gt;dir_0d2a932382c826b5f090bd657ea984d5 -->
<g id="edge19" class="edge">
<title>dir_9264601ff92627dec15e5121f27e52c6&#45;&gt;dir_0d2a932382c826b5f090bd657ea984d5</title>
<path fill="none" stroke="black" d="M208.13,-375.7C212.85,-367.64 218.56,-357.89 223.78,-348.98"/>
<polygon fill="black" stroke="black" points="226.95,-350.5 228.98,-340.1 220.91,-346.96 226.95,-350.5"/>
<g id="a_edge19&#45;headlabel"><a xlink:href="dir_000011_000002.html" target="_top" xlink:title="2">
<text text-anchor="middle" x="227.58" y="-352.54" font-family="Helvetica,sans-Serif" font-size="10.00">2</text>
</a>
</g>
</g>
<!-- dir_c9bd1a5ae28aac808ecc037c2deea79b -->
<g id="node10" class="node">
<title>dir_c9bd1a5ae28aac808ecc037c2deea79b</title>
<g id="a_node10"><a xlink:href="dir_c9bd1a5ae28aac808ecc037c2deea79b.html" target="_top" xlink:title="Serialization">
<polygon fill="white" stroke="black" points="147.5,-628 70.5,-628 70.5,-592 147.5,-592 147.5,-628"/>
<text text-anchor="middle" x="109" y="-607.5" font-family="Helvetica,sans-Serif" font-size="10.00">Serialization</text>
</a>
</g>
</g>
<!-- dir_c9bd1a5ae28aac808ecc037c2deea79b&#45;&gt;dir_0930667546aa6907e4b6d8514657f097 -->
<g id="edge4" class="edge">
<title>dir_c9bd1a5ae28aac808ecc037c2deea79b&#45;&gt;dir_0930667546aa6907e4b6d8514657f097</title>
<path fill="none" stroke="black" d="M91.16,-591.94C81.45,-582.05 69.68,-569.01 61,-556 41.35,-526.57 34.74,-518.53 27,-484 23.5,-468.39 23.38,-463.59 27,-448 29.1,-438.96 32.97,-429.68 37.09,-421.47"/>
<polygon fill="black" stroke="black" points="40.31,-422.86 41.95,-412.39 34.14,-419.55 40.31,-422.86"/>
<g id="a_edge4&#45;headlabel"><a xlink:href="dir_000007_000013.html" target="_top" xlink:title="1">
<text text-anchor="middle" x="41.12" y="-424.87" font-family="Helvetica,sans-Serif" font-size="10.00">1</text>
</a>
</g>
</g>
<!-- dir_c9bd1a5ae28aac808ecc037c2deea79b&#45;&gt;dir_135606c558b601cf506eb1680492ead9 -->
<g id="edge6" class="edge">
<title>dir_c9bd1a5ae28aac808ecc037c2deea79b&#45;&gt;dir_135606c558b601cf506eb1680492ead9</title>
<path fill="none" stroke="black" d="M109,-591.7C109,-583.98 109,-574.71 109,-566.11"/>
<polygon fill="black" stroke="black" points="112.5,-566.1 109,-556.1 105.5,-566.1 112.5,-566.1"/>
<g id="a_edge6&#45;headlabel"><a xlink:href="dir_000007_000008.html" target="_top" xlink:title="1">
<text text-anchor="middle" x="115.34" y="-567.2" font-family="Helvetica,sans-Serif" font-size="10.00">1</text>
</a>
</g>
</g>
<!-- dir_c9bd1a5ae28aac808ecc037c2deea79b&#45;&gt;dir_0d2a932382c826b5f090bd657ea984d5 -->
<g id="edge5" class="edge">
<title>dir_c9bd1a5ae28aac808ecc037c2deea79b&#45;&gt;dir_0d2a932382c826b5f090bd657ea984d5</title>
<path fill="none" stroke="black" d="M127.09,-591.91C159.14,-560.18 224.51,-488.39 246,-412 251.72,-391.67 249.37,-367.77 245.92,-349.86"/>
<polygon fill="black" stroke="black" points="249.34,-349.11 243.81,-340.07 242.49,-350.59 249.34,-349.11"/>
<g id="a_edge5&#45;headlabel"><a xlink:href="dir_000007_000002.html" target="_top" xlink:title="1">
<text text-anchor="middle" x="252.87" y="-349.53" font-family="Helvetica,sans-Serif" font-size="10.00">1</text>
</a>
</g>
</g>
<!-- dir_45da3ff196d16836594e0c6a3eb44491&#45;&gt;dir_40bece41bad7e53cfe205133ae844b04 -->
<g id="edge13" class="edge">
<title>dir_45da3ff196d16836594e0c6a3eb44491&#45;&gt;dir_40bece41bad7e53cfe205133ae844b04</title>
<path fill="none" stroke="black" d="M154.14,-447.71C152.5,-428.82 147.75,-398.29 134,-376 120.91,-354.79 101.55,-362.58 91,-340 85.55,-328.32 85.2,-256.72 93,-232 96.05,-222.32 101.44,-212.75 107.08,-204.47"/>
<polygon fill="black" stroke="black" points="109.93,-206.49 112.96,-196.34 104.26,-202.39 109.93,-206.49"/>
<g id="a_edge13&#45;headlabel"><a xlink:href="dir_000004_000005.html" target="_top" xlink:title="1">
<text text-anchor="middle" x="110.12" y="-208.57" font-family="Helvetica,sans-Serif" font-size="10.00">1</text>
</a>
</g>
</g>
<!-- dir_45da3ff196d16836594e0c6a3eb44491&#45;&gt;dir_9264601ff92627dec15e5121f27e52c6 -->
<g id="edge14" class="edge">
<title>dir_45da3ff196d16836594e0c6a3eb44491&#45;&gt;dir_9264601ff92627dec15e5121f27e52c6</title>
<path fill="none" stroke="black" d="M165.63,-447.7C170.63,-439.56 176.69,-429.69 182.21,-420.7"/>
<polygon fill="black" stroke="black" points="185.24,-422.46 187.49,-412.1 179.28,-418.79 185.24,-422.46"/>
<g id="a_edge14&#45;headlabel"><a xlink:href="dir_000004_000011.html" target="_top" xlink:title="1">
<text text-anchor="middle" x="185.78" y="-424.51" font-family="Helvetica,sans-Serif" font-size="10.00">1</text>
</a>
</g>
</g>
<!-- dir_45da3ff196d16836594e0c6a3eb44491&#45;&gt;dir_2d28ba3a378a97d085301b74b64c3677 -->
<g id="edge12" class="edge">
<title>dir_45da3ff196d16836594e0c6a3eb44491&#45;&gt;dir_2d28ba3a378a97d085301b74b64c3677</title>
<path fill="none" stroke="black" d="M148.77,-447.87C141.67,-429.39 129.09,-399.47 114,-376 102.58,-358.24 91.43,-359.36 83,-340 50.93,-266.37 26.65,-229.44 67,-160 79.09,-139.19 102.74,-125.88 123.17,-117.79"/>
<polygon fill="black" stroke="black" points="124.39,-121.07 132.57,-114.34 121.98,-114.5 124.39,-121.07"/>
<g id="a_edge12&#45;headlabel"><a xlink:href="dir_000004_000009.html" target="_top" xlink:title="1">
<text text-anchor="middle" x="122" y="-122.48" font-family="Helvetica,sans-Serif" font-size="10.00">1</text>
</a>
</g>
</g>
<!-- dir_2d28ba3a378a97d085301b74b64c3677&#45;&gt;dir_a83b8d8eeae076f2aa7d6596810ecb6e -->
<g id="edge18" class="edge">
<title>dir_2d28ba3a378a97d085301b74b64c3677&#45;&gt;dir_a83b8d8eeae076f2aa7d6596810ecb6e</title>
<path fill="none" stroke="black" d="M160,-87.7C160,-79.98 160,-70.71 160,-62.11"/>
<polygon fill="black" stroke="black" points="163.5,-62.1 160,-52.1 156.5,-62.1 163.5,-62.1"/>
<g id="a_edge18&#45;headlabel"><a xlink:href="dir_000009_000003.html" target="_top" xlink:title="1">
<text text-anchor="middle" x="166.34" y="-63.2" font-family="Helvetica,sans-Serif" font-size="10.00">1</text>
</a>
</g>
</g>
</g>
</svg>
