<?xml version="1.0" encoding="UTF-8" standalone="no"?>
<!DOCTYPE svg PUBLIC "-//W3C//DTD SVG 1.1//EN"
 "http://www.w3.org/Graphics/SVG/1.1/DTD/svg11.dtd">
<!-- Generated by graphviz version 2.43.0 (0)
 -->
<!-- Title: Abelian Groups Pages: 1 -->
<svg width="201pt" height="188pt"
 viewBox="0.00 0.00 200.50 188.00" xmlns="http://www.w3.org/2000/svg" xmlns:xlink="http://www.w3.org/1999/xlink">
<g id="graph0" class="graph" transform="scale(1 1) rotate(0) translate(4 184)">
<title>Abelian Groups</title>
<polygon fill="white" stroke="transparent" points="-4,4 -4,-184 196.5,-184 196.5,4 -4,4"/>
<g id="clust1" class="cluster">
<title>clusterdir_b2f33c71d4aa5e7af42a1ca61ff5af1b</title>
<g id="a_clust1"><a xlink:href="dir_b2f33c71d4aa5e7af42a1ca61ff5af1b.html" target="_top" xlink:title="source">
<polygon fill="#ddddee" stroke="black" points="8,-64 8,-135 116,-135 116,-64 8,-64"/>
<text text-anchor="middle" x="62" y="-123" font-family="Helvetica,sans-Serif" font-size="10.00">source</text>
</a>
</g>
</g>
<!-- dir_46f4ad1106b537d0d245697bc50c469e -->
<g id="node1" class="node">
<title>dir_46f4ad1106b537d0d245697bc50c469e</title>
<g id="a_node1"><a xlink:href="dir_46f4ad1106b537d0d245697bc50c469e.html" target="_top" xlink:title="Abelian Groups">
<polygon fill="#eeeeff" stroke="black" points="107.5,-108 16.5,-108 16.5,-72 107.5,-72 107.5,-108"/>
<text text-anchor="middle" x="62" y="-87.5" font-family="Helvetica,sans-Serif" font-size="10.00">Abelian Groups</text>
</a>
</g>
</g>
<!-- dir_d5584a8e3fba8745e0e8931520df1292 -->
<g id="node2" class="node">
<title>dir_d5584a8e3fba8745e0e8931520df1292</title>
<g id="a_node2"><a xlink:href="dir_d5584a8e3fba8745e0e8931520df1292.html" target="_top" xlink:title="Homology">
<polygon fill="none" stroke="black" points="192.5,-108 125.5,-108 125.5,-72 192.5,-72 192.5,-108"/>
<text text-anchor="middle" x="159" y="-87.5" font-family="Helvetica,sans-Serif" font-size="10.00">Homology</text>
</a>
</g>
</g>
<!-- dir_46f4ad1106b537d0d245697bc50c469e&#45;&gt;dir_d5584a8e3fba8745e0e8931520df1292 -->
<g id="edge5" class="edge">
<title>dir_46f4ad1106b537d0d245697bc50c469e&#45;&gt;dir_d5584a8e3fba8745e0e8931520df1292</title>
<path fill="none" stroke="black" d="M107.85,-90C110.32,-90 112.79,-90 115.27,-90"/>
<polygon fill="black" stroke="black" points="115.43,-93.5 125.43,-90 115.43,-86.5 115.43,-93.5"/>
<g id="a_edge5&#45;headlabel"><a xlink:href="dir_000001_000007.html" target="_top" xlink:title="1">
<text text-anchor="middle" x="111.84" y="-93.84" font-family="Helvetica,sans-Serif" font-size="10.00">1</text>
</a>
</g>
</g>
<!-- dir_56498964c6001a971ec487a108333712 -->
<g id="node3" class="node">
<title>dir_56498964c6001a971ec487a108333712</title>
<g id="a_node3"><a xlink:href="dir_56498964c6001a971ec487a108333712.html" target="_top" xlink:title="Mackey Functors">
<polygon fill="none" stroke="black" points="159,-180 61,-180 61,-144 159,-144 159,-180"/>
<text text-anchor="middle" x="110" y="-159.5" font-family="Helvetica,sans-Serif" font-size="10.00">Mackey Functors</text>
</a>
</g>
</g>
<!-- dir_46f4ad1106b537d0d245697bc50c469e&#45;&gt;dir_56498964c6001a971ec487a108333712 -->
<g id="edge6" class="edge">
<title>dir_46f4ad1106b537d0d245697bc50c469e&#45;&gt;dir_56498964c6001a971ec487a108333712</title>
<path fill="none" stroke="black" d="M67.83,-108.1C72.64,-116.38 79.36,-126.49 86.09,-135.64"/>
<polygon fill="black" stroke="black" points="83.38,-137.85 92.22,-143.7 88.95,-133.62 83.38,-137.85"/>
<g id="a_edge6&#45;headlabel"><a xlink:href="dir_000001_000008.html" target="_top" xlink:title="1">
<text text-anchor="middle" x="78.94" y="-134.21" font-family="Helvetica,sans-Serif" font-size="10.00">1</text>
</a>
</g>
</g>
<!-- dir_2d28ba3a378a97d085301b74b64c3677 -->
<g id="node4" class="node">
<title>dir_2d28ba3a378a97d085301b74b64c3677</title>
<g id="a_node4"><a xlink:href="dir_2d28ba3a378a97d085301b74b64c3677.html" target="_top" xlink:title="Utility">
<polygon fill="none" stroke="black" points="137,-36 83,-36 83,0 137,0 137,-36"/>
<text text-anchor="middle" x="110" y="-15.5" font-family="Helvetica,sans-Serif" font-size="10.00">Utility</text>
</a>
</g>
</g>
<!-- dir_46f4ad1106b537d0d245697bc50c469e&#45;&gt;dir_2d28ba3a378a97d085301b74b64c3677 -->
<g id="edge7" class="edge">
<title>dir_46f4ad1106b537d0d245697bc50c469e&#45;&gt;dir_2d28ba3a378a97d085301b74b64c3677</title>
<path fill="none" stroke="black" d="M73.87,-71.7C79.5,-63.47 86.35,-53.48 92.57,-44.42"/>
<polygon fill="black" stroke="black" points="95.5,-46.33 98.27,-36.1 89.73,-42.37 95.5,-46.33"/>
<g id="a_edge7&#45;headlabel"><a xlink:href="dir_000001_000005.html" target="_top" xlink:title="1">
<text text-anchor="middle" x="95.81" y="-48.4" font-family="Helvetica,sans-Serif" font-size="10.00">1</text>
</a>
</g>
</g>
<!-- dir_d5584a8e3fba8745e0e8931520df1292&#45;&gt;dir_46f4ad1106b537d0d245697bc50c469e -->
<g id="edge2" class="edge">
<title>dir_d5584a8e3fba8745e0e8931520df1292&#45;&gt;dir_46f4ad1106b537d0d245697bc50c469e</title>
<path fill="none" stroke="black" d="M125.43,-90C122.96,-90 120.49,-90 118.01,-90"/>
<polygon fill="black" stroke="black" points="117.85,-86.5 107.85,-90 117.85,-93.5 117.85,-86.5"/>
<g id="a_edge2&#45;headlabel"><a xlink:href="dir_000007_000001.html" target="_top" xlink:title="1">
<text text-anchor="middle" x="121.44" y="-81.16" font-family="Helvetica,sans-Serif" font-size="10.00">1</text>
</a>
</g>
</g>
<!-- dir_d5584a8e3fba8745e0e8931520df1292&#45;&gt;dir_2d28ba3a378a97d085301b74b64c3677 -->
<g id="edge1" class="edge">
<title>dir_d5584a8e3fba8745e0e8931520df1292&#45;&gt;dir_2d28ba3a378a97d085301b74b64c3677</title>
<path fill="none" stroke="black" d="M146.89,-71.7C141.13,-63.47 134.14,-53.48 127.79,-44.42"/>
<polygon fill="black" stroke="black" points="130.58,-42.29 121.97,-36.1 124.84,-46.3 130.58,-42.29"/>
<g id="a_edge1&#45;headlabel"><a xlink:href="dir_000007_000005.html" target="_top" xlink:title="1">
<text text-anchor="middle" x="134.96" y="-41.11" font-family="Helvetica,sans-Serif" font-size="10.00">1</text>
</a>
</g>
</g>
<!-- dir_56498964c6001a971ec487a108333712&#45;&gt;dir_46f4ad1106b537d0d245697bc50c469e -->
<g id="edge4" class="edge">
<title>dir_56498964c6001a971ec487a108333712&#45;&gt;dir_46f4ad1106b537d0d245697bc50c469e</title>
<path fill="none" stroke="black" d="M104.05,-143.7C99.21,-135.39 92.47,-125.28 85.75,-116.14"/>
<polygon fill="black" stroke="black" points="88.47,-113.94 79.62,-108.1 82.9,-118.18 88.47,-113.94"/>
<g id="a_edge4&#45;headlabel"><a xlink:href="dir_000008_000001.html" target="_top" xlink:title="1">
<text text-anchor="middle" x="92.9" y="-112.58" font-family="Helvetica,sans-Serif" font-size="10.00">1</text>
</a>
</g>
</g>
<!-- dir_56498964c6001a971ec487a108333712&#45;&gt;dir_d5584a8e3fba8745e0e8931520df1292 -->
<g id="edge3" class="edge">
<title>dir_56498964c6001a971ec487a108333712&#45;&gt;dir_d5584a8e3fba8745e0e8931520df1292</title>
<path fill="none" stroke="black" d="M122.11,-143.7C127.87,-135.47 134.86,-125.48 141.21,-116.42"/>
<polygon fill="black" stroke="black" points="144.16,-118.3 147.03,-108.1 138.42,-114.29 144.16,-118.3"/>
<g id="a_edge3&#45;headlabel"><a xlink:href="dir_000008_000007.html" target="_top" xlink:title="1">
<text text-anchor="middle" x="144.42" y="-120.38" font-family="Helvetica,sans-Serif" font-size="10.00">1</text>
</a>
</g>
</g>
</g>
</svg>
