<?xml version="1.0" encoding="UTF-8" standalone="no"?>
<!DOCTYPE svg PUBLIC "-//W3C//DTD SVG 1.1//EN"
 "http://www.w3.org/Graphics/SVG/1.1/DTD/svg11.dtd">
<!-- Generated by graphviz version 2.43.0 (0)
 -->
<!-- Title: Core Pages: 1 -->
<svg width="311pt" height="295pt"
 viewBox="0.00 0.00 311.09 295.00" xmlns="http://www.w3.org/2000/svg" xmlns:xlink="http://www.w3.org/1999/xlink">
<g id="graph0" class="graph" transform="scale(1 1) rotate(0) translate(4 291)">
<title>Core</title>
<polygon fill="white" stroke="transparent" points="-4,4 -4,-291 307.09,-291 307.09,4 -4,4"/>
<g id="clust1" class="cluster">
<title>clusterdir_b2f33c71d4aa5e7af42a1ca61ff5af1b</title>
<g id="a_clust1"><a xlink:href="dir_b2f33c71d4aa5e7af42a1ca61ff5af1b.html" target="_top" xlink:title="source">
<polygon fill="#ddddee" stroke="black" points="102.59,-208 102.59,-279 172.59,-279 172.59,-208 102.59,-208"/>
<text text-anchor="middle" x="137.59" y="-267" font-family="Helvetica,sans-Serif" font-size="10.00">source</text>
</a>
</g>
</g>
<!-- dir_1f10682fec53f0772108851bfcef2e4d -->
<g id="node1" class="node">
<title>dir_1f10682fec53f0772108851bfcef2e4d</title>
<g id="a_node1"><a xlink:href="dir_1f10682fec53f0772108851bfcef2e4d.html" target="_top" xlink:title="Core">
<polygon fill="#eeeeff" stroke="black" points="164.59,-252 110.59,-252 110.59,-216 164.59,-216 164.59,-252"/>
<text text-anchor="middle" x="137.59" y="-231.5" font-family="Helvetica,sans-Serif" font-size="10.00">Core</text>
</a>
</g>
</g>
<!-- dir_40bece41bad7e53cfe205133ae844b04 -->
<g id="node2" class="node">
<title>dir_40bece41bad7e53cfe205133ae844b04</title>
<g id="a_node2"><a xlink:href="dir_40bece41bad7e53cfe205133ae844b04.html" target="_top" xlink:title="Chain_Complexes">
<polygon fill="none" stroke="black" points="167.59,-108 63.59,-108 63.59,-72 167.59,-72 167.59,-108"/>
<text text-anchor="middle" x="115.59" y="-87.5" font-family="Helvetica,sans-Serif" font-size="10.00">Chain_Complexes</text>
</a>
</g>
</g>
<!-- dir_1f10682fec53f0772108851bfcef2e4d&#45;&gt;dir_40bece41bad7e53cfe205133ae844b04 -->
<g id="edge2" class="edge">
<title>dir_1f10682fec53f0772108851bfcef2e4d&#45;&gt;dir_40bece41bad7e53cfe205133ae844b04</title>
<path fill="none" stroke="black" d="M110.52,-230.71C79.44,-226.46 29.77,-214.38 6.59,-180 -2.35,-166.73 -1.89,-157.56 6.59,-144 17.38,-126.76 35.57,-114.98 54.02,-107"/>
<polygon fill="black" stroke="black" points="55.37,-110.23 63.36,-103.27 52.78,-103.72 55.37,-110.23"/>
<g id="a_edge2&#45;headlabel"><a xlink:href="dir_000002_000004.html" target="_top" xlink:title="1">
<text text-anchor="middle" x="53.09" y="-111.69" font-family="Helvetica,sans-Serif" font-size="10.00">1</text>
</a>
</g>
</g>
<!-- dir_0930667546aa6907e4b6d8514657f097 -->
<g id="node3" class="node">
<title>dir_0930667546aa6907e4b6d8514657f097</title>
<g id="a_node3"><a xlink:href="dir_0930667546aa6907e4b6d8514657f097.html" target="_top" xlink:title="Coefficients">
<polygon fill="none" stroke="black" points="89.59,-180 15.59,-180 15.59,-144 89.59,-144 89.59,-180"/>
<text text-anchor="middle" x="52.59" y="-159.5" font-family="Helvetica,sans-Serif" font-size="10.00">Coefficients</text>
</a>
</g>
</g>
<!-- dir_1f10682fec53f0772108851bfcef2e4d&#45;&gt;dir_0930667546aa6907e4b6d8514657f097 -->
<g id="edge3" class="edge">
<title>dir_1f10682fec53f0772108851bfcef2e4d&#45;&gt;dir_0930667546aa6907e4b6d8514657f097</title>
<path fill="none" stroke="black" d="M116.58,-215.7C105.88,-206.88 92.7,-196.03 81.1,-186.47"/>
<polygon fill="black" stroke="black" points="83.31,-183.76 73.36,-180.1 78.86,-189.16 83.31,-183.76"/>
<g id="a_edge3&#45;headlabel"><a xlink:href="dir_000002_000011.html" target="_top" xlink:title="1">
<text text-anchor="middle" x="87.89" y="-181.35" font-family="Helvetica,sans-Serif" font-size="10.00">1</text>
</a>
</g>
</g>
<!-- dir_2d28ba3a378a97d085301b74b64c3677 -->
<g id="node4" class="node">
<title>dir_2d28ba3a378a97d085301b74b64c3677</title>
<g id="a_node4"><a xlink:href="dir_2d28ba3a378a97d085301b74b64c3677.html" target="_top" xlink:title="Utility">
<polygon fill="none" stroke="black" points="222.59,-36 168.59,-36 168.59,0 222.59,0 222.59,-36"/>
<text text-anchor="middle" x="195.59" y="-15.5" font-family="Helvetica,sans-Serif" font-size="10.00">Utility</text>
</a>
</g>
</g>
<!-- dir_1f10682fec53f0772108851bfcef2e4d&#45;&gt;dir_2d28ba3a378a97d085301b74b64c3677 -->
<g id="edge4" class="edge">
<title>dir_1f10682fec53f0772108851bfcef2e4d&#45;&gt;dir_2d28ba3a378a97d085301b74b64c3677</title>
<path fill="none" stroke="black" d="M153.86,-215.77C162.08,-206.02 171.39,-193.18 176.59,-180 194.14,-135.55 196.77,-79.23 196.55,-46.35"/>
<polygon fill="black" stroke="black" points="200.05,-46.09 196.38,-36.14 193.05,-46.2 200.05,-46.09"/>
<g id="a_edge4&#45;headlabel"><a xlink:href="dir_000002_000006.html" target="_top" xlink:title="1">
<text text-anchor="middle" x="202.94" y="-47.13" font-family="Helvetica,sans-Serif" font-size="10.00">1</text>
</a>
</g>
</g>
<!-- dir_9264601ff92627dec15e5121f27e52c6 -->
<g id="node5" class="node">
<title>dir_9264601ff92627dec15e5121f27e52c6</title>
<g id="a_node5"><a xlink:href="dir_9264601ff92627dec15e5121f27e52c6.html" target="_top" xlink:title="Products">
<polygon fill="none" stroke="black" points="167.09,-180 108.09,-180 108.09,-144 167.09,-144 167.09,-180"/>
<text text-anchor="middle" x="137.59" y="-159.5" font-family="Helvetica,sans-Serif" font-size="10.00">Products</text>
</a>
</g>
</g>
<!-- dir_1f10682fec53f0772108851bfcef2e4d&#45;&gt;dir_9264601ff92627dec15e5121f27e52c6 -->
<g id="edge5" class="edge">
<title>dir_1f10682fec53f0772108851bfcef2e4d&#45;&gt;dir_9264601ff92627dec15e5121f27e52c6</title>
<path fill="none" stroke="black" d="M137.59,-215.7C137.59,-207.98 137.59,-198.71 137.59,-190.11"/>
<polygon fill="black" stroke="black" points="141.09,-190.1 137.59,-180.1 134.09,-190.1 141.09,-190.1"/>
<g id="a_edge5&#45;headlabel"><a xlink:href="dir_000002_000007.html" target="_top" xlink:title="1">
<text text-anchor="middle" x="143.93" y="-191.2" font-family="Helvetica,sans-Serif" font-size="10.00">1</text>
</a>
</g>
</g>
<!-- dir_135606c558b601cf506eb1680492ead9 -->
<g id="node6" class="node">
<title>dir_135606c558b601cf506eb1680492ead9</title>
<g id="a_node6"><a xlink:href="dir_135606c558b601cf506eb1680492ead9.html" target="_top" xlink:title="Factorization">
<polygon fill="none" stroke="black" points="303.09,-180 224.09,-180 224.09,-144 303.09,-144 303.09,-180"/>
<text text-anchor="middle" x="263.59" y="-159.5" font-family="Helvetica,sans-Serif" font-size="10.00">Factorization</text>
</a>
</g>
</g>
<!-- dir_1f10682fec53f0772108851bfcef2e4d&#45;&gt;dir_135606c558b601cf506eb1680492ead9 -->
<g id="edge6" class="edge">
<title>dir_1f10682fec53f0772108851bfcef2e4d&#45;&gt;dir_135606c558b601cf506eb1680492ead9</title>
<path fill="none" stroke="black" d="M162.52,-215.88C178.32,-206.55 199.13,-194.92 217.79,-184.94"/>
<polygon fill="black" stroke="black" points="219.55,-187.97 226.75,-180.19 216.27,-181.78 219.55,-187.97"/>
<g id="a_edge6&#45;headlabel"><a xlink:href="dir_000002_000009.html" target="_top" xlink:title="1">
<text text-anchor="middle" x="217.71" y="-189.66" font-family="Helvetica,sans-Serif" font-size="10.00">1</text>
</a>
</g>
</g>
<!-- dir_40bece41bad7e53cfe205133ae844b04&#45;&gt;dir_2d28ba3a378a97d085301b74b64c3677 -->
<g id="edge1" class="edge">
<title>dir_40bece41bad7e53cfe205133ae844b04&#45;&gt;dir_2d28ba3a378a97d085301b74b64c3677</title>
<path fill="none" stroke="black" d="M135.37,-71.7C145.35,-62.97 157.6,-52.24 168.45,-42.75"/>
<polygon fill="black" stroke="black" points="170.82,-45.32 176.05,-36.1 166.22,-40.06 170.82,-45.32"/>
<g id="a_edge1&#45;headlabel"><a xlink:href="dir_000004_000006.html" target="_top" xlink:title="1">
<text text-anchor="middle" x="169.99" y="-47.33" font-family="Helvetica,sans-Serif" font-size="10.00">1</text>
</a>
</g>
</g>
<!-- dir_9264601ff92627dec15e5121f27e52c6&#45;&gt;dir_40bece41bad7e53cfe205133ae844b04 -->
<g id="edge7" class="edge">
<title>dir_9264601ff92627dec15e5121f27e52c6&#45;&gt;dir_40bece41bad7e53cfe205133ae844b04</title>
<path fill="none" stroke="black" d="M132.16,-143.7C129.7,-135.9 126.75,-126.51 124.03,-117.83"/>
<polygon fill="black" stroke="black" points="127.31,-116.59 120.97,-108.1 120.63,-118.69 127.31,-116.59"/>
<g id="a_edge7&#45;headlabel"><a xlink:href="dir_000007_000004.html" target="_top" xlink:title="1">
<text text-anchor="middle" x="131.09" y="-116.67" font-family="Helvetica,sans-Serif" font-size="10.00">1</text>
</a>
</g>
</g>
<!-- dir_135606c558b601cf506eb1680492ead9&#45;&gt;dir_1f10682fec53f0772108851bfcef2e4d -->
<g id="edge9" class="edge">
<title>dir_135606c558b601cf506eb1680492ead9&#45;&gt;dir_1f10682fec53f0772108851bfcef2e4d</title>
<path fill="none" stroke="black" d="M238.82,-180.03C220.2,-191.02 194.59,-205.24 173.72,-216.19"/>
<polygon fill="black" stroke="black" points="172.08,-213.1 164.81,-220.81 175.3,-219.31 172.08,-213.1"/>
<g id="a_edge9&#45;headlabel"><a xlink:href="dir_000009_000002.html" target="_top" xlink:title="1">
<text text-anchor="middle" x="173.96" y="-206.42" font-family="Helvetica,sans-Serif" font-size="10.00">1</text>
</a>
</g>
</g>
<!-- dir_135606c558b601cf506eb1680492ead9&#45;&gt;dir_2d28ba3a378a97d085301b74b64c3677 -->
<g id="edge8" class="edge">
<title>dir_135606c558b601cf506eb1680492ead9&#45;&gt;dir_2d28ba3a378a97d085301b74b64c3677</title>
<path fill="none" stroke="black" d="M255.39,-143.87C243.65,-119.35 221.95,-74.03 208.17,-45.26"/>
<polygon fill="black" stroke="black" points="211.3,-43.7 203.83,-36.19 204.99,-46.72 211.3,-43.7"/>
<g id="a_edge8&#45;headlabel"><a xlink:href="dir_000009_000006.html" target="_top" xlink:title="3">
<text text-anchor="middle" x="215.41" y="-43.21" font-family="Helvetica,sans-Serif" font-size="10.00">3</text>
</a>
</g>
</g>
</g>
</svg>
