<?xml version="1.0" encoding="UTF-8" standalone="no"?>
<!DOCTYPE svg PUBLIC "-//W3C//DTD SVG 1.1//EN"
 "http://www.w3.org/Graphics/SVG/1.1/DTD/svg11.dtd">
<!-- Generated by graphviz version 2.43.0 (0)
 -->
<!-- Title: Groups Pages: 1 -->
<svg width="164pt" height="239pt"
 viewBox="0.00 0.00 164.00 239.00" xmlns="http://www.w3.org/2000/svg" xmlns:xlink="http://www.w3.org/1999/xlink">
<g id="graph0" class="graph" transform="scale(1 1) rotate(0) translate(4 235)">
<title>Groups</title>
<polygon fill="white" stroke="transparent" points="-4,4 -4,-235 160,-235 160,4 -4,4"/>
<g id="clust1" class="cluster">
<title>clusterdir_b2f33c71d4aa5e7af42a1ca61ff5af1b</title>
<g id="a_clust1"><a xlink:href="dir_b2f33c71d4aa5e7af42a1ca61ff5af1b.html" target="_top" xlink:title="source">
<polygon fill="#ddddee" stroke="black" points="8,-8 8,-223 148,-223 148,-8 8,-8"/>
<text text-anchor="middle" x="78" y="-211" font-family="Helvetica,sans-Serif" font-size="10.00">source</text>
</a>
</g>
</g>
<!-- dir_2d28ba3a378a97d085301b74b64c3677 -->
<g id="node1" class="node">
<title>dir_2d28ba3a378a97d085301b74b64c3677</title>
<g id="a_node1"><a xlink:href="dir_2d28ba3a378a97d085301b74b64c3677.html" target="_top" xlink:title="Utility">
<polygon fill="none" stroke="black" points="92,-52 38,-52 38,-16 92,-16 92,-52"/>
<text text-anchor="middle" x="65" y="-31.5" font-family="Helvetica,sans-Serif" font-size="10.00">Utility</text>
</a>
</g>
</g>
<!-- dir_40bece41bad7e53cfe205133ae844b04 -->
<g id="node2" class="node">
<title>dir_40bece41bad7e53cfe205133ae844b04</title>
<g id="a_node2"><a xlink:href="dir_40bece41bad7e53cfe205133ae844b04.html" target="_top" xlink:title="Chain_Complexes">
<polygon fill="none" stroke="black" points="140,-124 36,-124 36,-88 140,-88 140,-124"/>
<text text-anchor="middle" x="88" y="-103.5" font-family="Helvetica,sans-Serif" font-size="10.00">Chain_Complexes</text>
</a>
</g>
</g>
<!-- dir_40bece41bad7e53cfe205133ae844b04&#45;&gt;dir_2d28ba3a378a97d085301b74b64c3677 -->
<g id="edge1" class="edge">
<title>dir_40bece41bad7e53cfe205133ae844b04&#45;&gt;dir_2d28ba3a378a97d085301b74b64c3677</title>
<path fill="none" stroke="black" d="M82.31,-87.7C79.75,-79.9 76.67,-70.51 73.82,-61.83"/>
<polygon fill="black" stroke="black" points="77.07,-60.51 70.62,-52.1 70.42,-62.7 77.07,-60.51"/>
<g id="a_edge1&#45;headlabel"><a xlink:href="dir_000005_000009.html" target="_top" xlink:title="1">
<text text-anchor="middle" x="80.89" y="-60.54" font-family="Helvetica,sans-Serif" font-size="10.00">1</text>
</a>
</g>
</g>
<!-- dir_2718b09f40e53cc5d631c5ee634640b9 -->
<g id="node3" class="node">
<title>dir_2718b09f40e53cc5d631c5ee634640b9</title>
<g id="a_node3"><a xlink:href="dir_2718b09f40e53cc5d631c5ee634640b9.html" target="_top" xlink:title="Groups">
<polygon fill="#eeeeff" stroke="black" points="92,-196 38,-196 38,-160 92,-160 92,-196"/>
<text text-anchor="middle" x="65" y="-175.5" font-family="Helvetica,sans-Serif" font-size="10.00">Groups</text>
</a>
</g>
</g>
<!-- dir_2718b09f40e53cc5d631c5ee634640b9&#45;&gt;dir_2d28ba3a378a97d085301b74b64c3677 -->
<g id="edge2" class="edge">
<title>dir_2718b09f40e53cc5d631c5ee634640b9&#45;&gt;dir_2d28ba3a378a97d085301b74b64c3677</title>
<path fill="none" stroke="black" d="M48.54,-159.92C40.35,-150.22 31.3,-137.37 27,-124 22.1,-108.77 22.1,-103.23 27,-88 30.19,-78.08 36,-68.44 42.13,-60.17"/>
<polygon fill="black" stroke="black" points="45.07,-62.09 48.54,-52.08 39.58,-57.74 45.07,-62.09"/>
<g id="a_edge2&#45;headlabel"><a xlink:href="dir_000006_000009.html" target="_top" xlink:title="2">
<text text-anchor="middle" x="45.06" y="-64.17" font-family="Helvetica,sans-Serif" font-size="10.00">2</text>
</a>
</g>
</g>
<!-- dir_2718b09f40e53cc5d631c5ee634640b9&#45;&gt;dir_40bece41bad7e53cfe205133ae844b04 -->
<g id="edge3" class="edge">
<title>dir_2718b09f40e53cc5d631c5ee634640b9&#45;&gt;dir_40bece41bad7e53cfe205133ae844b04</title>
<path fill="none" stroke="black" d="M70.69,-159.7C73.25,-151.9 76.33,-142.51 79.18,-133.83"/>
<polygon fill="black" stroke="black" points="82.58,-134.7 82.38,-124.1 75.93,-132.51 82.58,-134.7"/>
<g id="a_edge3&#45;headlabel"><a xlink:href="dir_000006_000005.html" target="_top" xlink:title="2">
<text text-anchor="middle" x="84.16" y="-136.5" font-family="Helvetica,sans-Serif" font-size="10.00">2</text>
</a>
</g>
</g>
</g>
</svg>
