<?xml version="1.0" encoding="UTF-8" standalone="no"?>
<!DOCTYPE svg PUBLIC "-//W3C//DTD SVG 1.1//EN"
 "http://www.w3.org/Graphics/SVG/1.1/DTD/svg11.dtd">
<!-- Generated by graphviz version 2.43.0 (0)
 -->
<!-- Title: Factorization Pages: 1 -->
<svg width="186pt" height="239pt"
 viewBox="0.00 0.00 186.00 239.00" xmlns="http://www.w3.org/2000/svg" xmlns:xlink="http://www.w3.org/1999/xlink">
<g id="graph0" class="graph" transform="scale(1 1) rotate(0) translate(4 235)">
<title>Factorization</title>
<polygon fill="white" stroke="transparent" points="-4,4 -4,-235 182,-235 182,4 -4,4"/>
<g id="clust1" class="cluster">
<title>clusterdir_b2f33c71d4aa5e7af42a1ca61ff5af1b</title>
<g id="a_clust1"><a xlink:href="dir_b2f33c71d4aa5e7af42a1ca61ff5af1b.html" target="_top" xlink:title="source">
<polygon fill="#ddddee" stroke="black" points="8,-8 8,-223 170,-223 170,-8 8,-8"/>
<text text-anchor="middle" x="89" y="-211" font-family="Helvetica,sans-Serif" font-size="10.00">source</text>
</a>
</g>
</g>
<!-- dir_2d28ba3a378a97d085301b74b64c3677 -->
<g id="node1" class="node">
<title>dir_2d28ba3a378a97d085301b74b64c3677</title>
<g id="a_node1"><a xlink:href="dir_2d28ba3a378a97d085301b74b64c3677.html" target="_top" xlink:title="Utility">
<polygon fill="none" stroke="black" points="80,-52 26,-52 26,-16 80,-16 80,-52"/>
<text text-anchor="middle" x="53" y="-31.5" font-family="Helvetica,sans-Serif" font-size="10.00">Utility</text>
</a>
</g>
</g>
<!-- dir_45da3ff196d16836594e0c6a3eb44491 -->
<g id="node2" class="node">
<title>dir_45da3ff196d16836594e0c6a3eb44491</title>
<g id="a_node2"><a xlink:href="dir_45da3ff196d16836594e0c6a3eb44491.html" target="_top" xlink:title="Spaces">
<polygon fill="none" stroke="black" points="90,-124 36,-124 36,-88 90,-88 90,-124"/>
<text text-anchor="middle" x="63" y="-103.5" font-family="Helvetica,sans-Serif" font-size="10.00">Spaces</text>
</a>
</g>
</g>
<!-- dir_45da3ff196d16836594e0c6a3eb44491&#45;&gt;dir_2d28ba3a378a97d085301b74b64c3677 -->
<g id="edge1" class="edge">
<title>dir_45da3ff196d16836594e0c6a3eb44491&#45;&gt;dir_2d28ba3a378a97d085301b74b64c3677</title>
<path fill="none" stroke="black" d="M60.53,-87.7C59.43,-79.98 58.1,-70.71 56.87,-62.11"/>
<polygon fill="black" stroke="black" points="60.32,-61.51 55.44,-52.1 53.39,-62.5 60.32,-61.51"/>
<g id="a_edge1&#45;headlabel"><a xlink:href="dir_000004_000009.html" target="_top" xlink:title="1">
<text text-anchor="middle" x="63.64" y="-62.17" font-family="Helvetica,sans-Serif" font-size="10.00">1</text>
</a>
</g>
</g>
<!-- dir_7f70e815a1e85bc79332755d461ea4f9 -->
<g id="node3" class="node">
<title>dir_7f70e815a1e85bc79332755d461ea4f9</title>
<g id="a_node3"><a xlink:href="dir_7f70e815a1e85bc79332755d461ea4f9.html" target="_top" xlink:title="Graph">
<polygon fill="none" stroke="black" points="162,-124 108,-124 108,-88 162,-88 162,-124"/>
<text text-anchor="middle" x="135" y="-103.5" font-family="Helvetica,sans-Serif" font-size="10.00">Graph</text>
</a>
</g>
</g>
<!-- dir_135606c558b601cf506eb1680492ead9 -->
<g id="node4" class="node">
<title>dir_135606c558b601cf506eb1680492ead9</title>
<g id="a_node4"><a xlink:href="dir_135606c558b601cf506eb1680492ead9.html" target="_top" xlink:title="Factorization">
<polygon fill="#eeeeff" stroke="black" points="102.5,-196 23.5,-196 23.5,-160 102.5,-160 102.5,-196"/>
<text text-anchor="middle" x="63" y="-175.5" font-family="Helvetica,sans-Serif" font-size="10.00">Factorization</text>
</a>
</g>
</g>
<!-- dir_135606c558b601cf506eb1680492ead9&#45;&gt;dir_2d28ba3a378a97d085301b74b64c3677 -->
<g id="edge2" class="edge">
<title>dir_135606c558b601cf506eb1680492ead9&#45;&gt;dir_2d28ba3a378a97d085301b74b64c3677</title>
<path fill="none" stroke="black" d="M47.39,-159.77C39.63,-150.03 31.05,-137.18 27,-124 22.3,-108.71 23.38,-103.59 27,-88 29.1,-78.96 32.97,-69.68 37.09,-61.47"/>
<polygon fill="black" stroke="black" points="40.31,-62.86 41.95,-52.39 34.14,-59.55 40.31,-62.86"/>
<g id="a_edge2&#45;headlabel"><a xlink:href="dir_000008_000009.html" target="_top" xlink:title="2">
<text text-anchor="middle" x="41.12" y="-64.87" font-family="Helvetica,sans-Serif" font-size="10.00">2</text>
</a>
</g>
</g>
<!-- dir_135606c558b601cf506eb1680492ead9&#45;&gt;dir_45da3ff196d16836594e0c6a3eb44491 -->
<g id="edge3" class="edge">
<title>dir_135606c558b601cf506eb1680492ead9&#45;&gt;dir_45da3ff196d16836594e0c6a3eb44491</title>
<path fill="none" stroke="black" d="M63,-159.7C63,-151.98 63,-142.71 63,-134.11"/>
<polygon fill="black" stroke="black" points="66.5,-134.1 63,-124.1 59.5,-134.1 66.5,-134.1"/>
<g id="a_edge3&#45;headlabel"><a xlink:href="dir_000008_000004.html" target="_top" xlink:title="1">
<text text-anchor="middle" x="69.34" y="-135.2" font-family="Helvetica,sans-Serif" font-size="10.00">1</text>
</a>
</g>
</g>
<!-- dir_135606c558b601cf506eb1680492ead9&#45;&gt;dir_7f70e815a1e85bc79332755d461ea4f9 -->
<g id="edge4" class="edge">
<title>dir_135606c558b601cf506eb1680492ead9&#45;&gt;dir_7f70e815a1e85bc79332755d461ea4f9</title>
<path fill="none" stroke="black" d="M80.8,-159.7C89.6,-151.14 100.38,-140.66 110,-131.3"/>
<polygon fill="black" stroke="black" points="112.68,-133.58 117.41,-124.1 107.8,-128.57 112.68,-133.58"/>
<g id="a_edge4&#45;headlabel"><a xlink:href="dir_000008_000010.html" target="_top" xlink:title="1">
<text text-anchor="middle" x="112.08" y="-135.63" font-family="Helvetica,sans-Serif" font-size="10.00">1</text>
</a>
</g>
</g>
</g>
</svg>
