<?xml version="1.0" encoding="UTF-8" standalone="no"?>
<!DOCTYPE svg PUBLIC "-//W3C//DTD SVG 1.1//EN"
 "http://www.w3.org/Graphics/SVG/1.1/DTD/svg11.dtd">
<!-- Generated by graphviz version 2.43.0 (0)
 -->
<!-- Title: Homology Pages: 1 -->
<svg width="184pt" height="311pt"
 viewBox="0.00 0.00 184.00 311.00" xmlns="http://www.w3.org/2000/svg" xmlns:xlink="http://www.w3.org/1999/xlink">
<g id="graph0" class="graph" transform="scale(1 1) rotate(0) translate(4 307)">
<title>Homology</title>
<polygon fill="white" stroke="transparent" points="-4,4 -4,-307 180,-307 180,4 -4,4"/>
<g id="clust1" class="cluster">
<title>clusterdir_b2f33c71d4aa5e7af42a1ca61ff5af1b</title>
<g id="a_clust1"><a xlink:href="dir_b2f33c71d4aa5e7af42a1ca61ff5af1b.html" target="_top" xlink:title="source">
<polygon fill="#ddddee" stroke="black" points="8,-8 8,-295 168,-295 168,-8 8,-8"/>
<text text-anchor="middle" x="88" y="-283" font-family="Helvetica,sans-Serif" font-size="10.00">source</text>
</a>
</g>
</g>
<!-- dir_2d28ba3a378a97d085301b74b64c3677 -->
<g id="node1" class="node">
<title>dir_2d28ba3a378a97d085301b74b64c3677</title>
<g id="a_node1"><a xlink:href="dir_2d28ba3a378a97d085301b74b64c3677.html" target="_top" xlink:title="Utility">
<polygon fill="none" stroke="black" points="115,-124 61,-124 61,-88 115,-88 115,-124"/>
<text text-anchor="middle" x="88" y="-103.5" font-family="Helvetica,sans-Serif" font-size="10.00">Utility</text>
</a>
</g>
</g>
<!-- dir_a83b8d8eeae076f2aa7d6596810ecb6e -->
<g id="node3" class="node">
<title>dir_a83b8d8eeae076f2aa7d6596810ecb6e</title>
<g id="a_node3"><a xlink:href="dir_a83b8d8eeae076f2aa7d6596810ecb6e.html" target="_top" xlink:title="Types">
<polygon fill="none" stroke="black" points="137,-52 83,-52 83,-16 137,-16 137,-52"/>
<text text-anchor="middle" x="110" y="-31.5" font-family="Helvetica,sans-Serif" font-size="10.00">Types</text>
</a>
</g>
</g>
<!-- dir_2d28ba3a378a97d085301b74b64c3677&#45;&gt;dir_a83b8d8eeae076f2aa7d6596810ecb6e -->
<g id="edge5" class="edge">
<title>dir_2d28ba3a378a97d085301b74b64c3677&#45;&gt;dir_a83b8d8eeae076f2aa7d6596810ecb6e</title>
<path fill="none" stroke="black" d="M93.44,-87.7C95.89,-79.9 98.84,-70.51 101.57,-61.83"/>
<polygon fill="black" stroke="black" points="104.96,-62.69 104.62,-52.1 98.29,-60.59 104.96,-62.69"/>
<g id="a_edge5&#45;headlabel"><a xlink:href="dir_000009_000003.html" target="_top" xlink:title="1">
<text text-anchor="middle" x="106.6" y="-64.47" font-family="Helvetica,sans-Serif" font-size="10.00">1</text>
</a>
</g>
</g>
<!-- dir_40bece41bad7e53cfe205133ae844b04 -->
<g id="node2" class="node">
<title>dir_40bece41bad7e53cfe205133ae844b04</title>
<g id="a_node2"><a xlink:href="dir_40bece41bad7e53cfe205133ae844b04.html" target="_top" xlink:title="Chain_Complexes">
<polygon fill="none" stroke="black" points="140,-196 36,-196 36,-160 140,-160 140,-196"/>
<text text-anchor="middle" x="88" y="-175.5" font-family="Helvetica,sans-Serif" font-size="10.00">Chain_Complexes</text>
</a>
</g>
</g>
<!-- dir_40bece41bad7e53cfe205133ae844b04&#45;&gt;dir_2d28ba3a378a97d085301b74b64c3677 -->
<g id="edge1" class="edge">
<title>dir_40bece41bad7e53cfe205133ae844b04&#45;&gt;dir_2d28ba3a378a97d085301b74b64c3677</title>
<path fill="none" stroke="black" d="M88,-159.7C88,-151.98 88,-142.71 88,-134.11"/>
<polygon fill="black" stroke="black" points="91.5,-134.1 88,-124.1 84.5,-134.1 91.5,-134.1"/>
<g id="a_edge1&#45;headlabel"><a xlink:href="dir_000005_000009.html" target="_top" xlink:title="1">
<text text-anchor="middle" x="94.34" y="-135.2" font-family="Helvetica,sans-Serif" font-size="10.00">1</text>
</a>
</g>
</g>
<!-- dir_d5584a8e3fba8745e0e8931520df1292 -->
<g id="node4" class="node">
<title>dir_d5584a8e3fba8745e0e8931520df1292</title>
<g id="a_node4"><a xlink:href="dir_d5584a8e3fba8745e0e8931520df1292.html" target="_top" xlink:title="Homology">
<polygon fill="#eeeeff" stroke="black" points="121.5,-268 54.5,-268 54.5,-232 121.5,-232 121.5,-268"/>
<text text-anchor="middle" x="88" y="-247.5" font-family="Helvetica,sans-Serif" font-size="10.00">Homology</text>
</a>
</g>
</g>
<!-- dir_d5584a8e3fba8745e0e8931520df1292&#45;&gt;dir_2d28ba3a378a97d085301b74b64c3677 -->
<g id="edge2" class="edge">
<title>dir_d5584a8e3fba8745e0e8931520df1292&#45;&gt;dir_2d28ba3a378a97d085301b74b64c3677</title>
<path fill="none" stroke="black" d="M58.96,-231.84C46.68,-222.87 33.69,-210.68 27,-196 20.36,-181.44 20.36,-174.56 27,-160 32.56,-147.81 42.45,-137.34 52.68,-129.01"/>
<polygon fill="black" stroke="black" points="55.03,-131.62 60.88,-122.79 50.79,-126.04 55.03,-131.62"/>
<g id="a_edge2&#45;headlabel"><a xlink:href="dir_000001_000009.html" target="_top" xlink:title="2">
<text text-anchor="middle" x="53.88" y="-133.55" font-family="Helvetica,sans-Serif" font-size="10.00">2</text>
</a>
</g>
</g>
<!-- dir_d5584a8e3fba8745e0e8931520df1292&#45;&gt;dir_40bece41bad7e53cfe205133ae844b04 -->
<g id="edge3" class="edge">
<title>dir_d5584a8e3fba8745e0e8931520df1292&#45;&gt;dir_40bece41bad7e53cfe205133ae844b04</title>
<path fill="none" stroke="black" d="M88,-231.7C88,-223.98 88,-214.71 88,-206.11"/>
<polygon fill="black" stroke="black" points="91.5,-206.1 88,-196.1 84.5,-206.1 91.5,-206.1"/>
<g id="a_edge3&#45;headlabel"><a xlink:href="dir_000001_000005.html" target="_top" xlink:title="1">
<text text-anchor="middle" x="94.34" y="-207.2" font-family="Helvetica,sans-Serif" font-size="10.00">1</text>
</a>
</g>
</g>
<!-- dir_d5584a8e3fba8745e0e8931520df1292&#45;&gt;dir_a83b8d8eeae076f2aa7d6596810ecb6e -->
<g id="edge4" class="edge">
<title>dir_d5584a8e3fba8745e0e8931520df1292&#45;&gt;dir_a83b8d8eeae076f2aa7d6596810ecb6e</title>
<path fill="none" stroke="black" d="M117.04,-231.84C129.32,-222.87 142.31,-210.68 149,-196 169.52,-150.98 144.85,-93.77 126.46,-61.08"/>
<polygon fill="black" stroke="black" points="129.31,-59.02 121.25,-52.15 123.27,-62.55 129.31,-59.02"/>
<g id="a_edge4&#45;headlabel"><a xlink:href="dir_000001_000003.html" target="_top" xlink:title="1">
<text text-anchor="middle" x="133.58" y="-58.19" font-family="Helvetica,sans-Serif" font-size="10.00">1</text>
</a>
</g>
</g>
</g>
</svg>
