<?xml version="1.0" encoding="UTF-8" standalone="no"?>
<!DOCTYPE svg PUBLIC "-//W3C//DTD SVG 1.1//EN"
 "http://www.w3.org/Graphics/SVG/1.1/DTD/svg11.dtd">
<!-- Generated by graphviz version 2.43.0 (0)
 -->
<!-- Title: Serialization Pages: 1 -->
<svg width="330pt" height="167pt"
 viewBox="0.00 0.00 330.00 167.00" xmlns="http://www.w3.org/2000/svg" xmlns:xlink="http://www.w3.org/1999/xlink">
<g id="graph0" class="graph" transform="scale(1 1) rotate(0) translate(4 163)">
<title>Serialization</title>
<polygon fill="white" stroke="transparent" points="-4,4 -4,-163 326,-163 326,4 -4,4"/>
<g id="clust1" class="cluster">
<title>clusterdir_b2f33c71d4aa5e7af42a1ca61ff5af1b</title>
<g id="a_clust1"><a xlink:href="dir_b2f33c71d4aa5e7af42a1ca61ff5af1b.html" target="_top" xlink:title="source">
<polygon fill="#ddddee" stroke="black" points="8,-8 8,-151 314,-151 314,-8 8,-8"/>
<text text-anchor="middle" x="161" y="-139" font-family="Helvetica,sans-Serif" font-size="10.00">source</text>
</a>
</g>
</g>
<!-- dir_0930667546aa6907e4b6d8514657f097 -->
<g id="node1" class="node">
<title>dir_0930667546aa6907e4b6d8514657f097</title>
<g id="a_node1"><a xlink:href="dir_0930667546aa6907e4b6d8514657f097.html" target="_top" xlink:title="Coefficients">
<polygon fill="none" stroke="black" points="90,-52 16,-52 16,-16 90,-16 90,-52"/>
<text text-anchor="middle" x="53" y="-31.5" font-family="Helvetica,sans-Serif" font-size="10.00">Coefficients</text>
</a>
</g>
</g>
<!-- dir_0d2a932382c826b5f090bd657ea984d5 -->
<g id="node2" class="node">
<title>dir_0d2a932382c826b5f090bd657ea984d5</title>
<g id="a_node2"><a xlink:href="dir_0d2a932382c826b5f090bd657ea984d5.html" target="_top" xlink:title="Mackey_Functors">
<polygon fill="none" stroke="black" points="209.5,-52 108.5,-52 108.5,-16 209.5,-16 209.5,-52"/>
<text text-anchor="middle" x="159" y="-31.5" font-family="Helvetica,sans-Serif" font-size="10.00">Mackey_Functors</text>
</a>
</g>
</g>
<!-- dir_135606c558b601cf506eb1680492ead9 -->
<g id="node3" class="node">
<title>dir_135606c558b601cf506eb1680492ead9</title>
<g id="a_node3"><a xlink:href="dir_135606c558b601cf506eb1680492ead9.html" target="_top" xlink:title="Factorization">
<polygon fill="none" stroke="black" points="306.5,-52 227.5,-52 227.5,-16 306.5,-16 306.5,-52"/>
<text text-anchor="middle" x="267" y="-31.5" font-family="Helvetica,sans-Serif" font-size="10.00">Factorization</text>
</a>
</g>
</g>
<!-- dir_c9bd1a5ae28aac808ecc037c2deea79b -->
<g id="node4" class="node">
<title>dir_c9bd1a5ae28aac808ecc037c2deea79b</title>
<g id="a_node4"><a xlink:href="dir_c9bd1a5ae28aac808ecc037c2deea79b.html" target="_top" xlink:title="Serialization">
<polygon fill="#eeeeff" stroke="black" points="197.5,-124 120.5,-124 120.5,-88 197.5,-88 197.5,-124"/>
<text text-anchor="middle" x="159" y="-103.5" font-family="Helvetica,sans-Serif" font-size="10.00">Serialization</text>
</a>
</g>
</g>
<!-- dir_c9bd1a5ae28aac808ecc037c2deea79b&#45;&gt;dir_0930667546aa6907e4b6d8514657f097 -->
<g id="edge1" class="edge">
<title>dir_c9bd1a5ae28aac808ecc037c2deea79b&#45;&gt;dir_0930667546aa6907e4b6d8514657f097</title>
<path fill="none" stroke="black" d="M133.07,-87.88C119.34,-78.81 102.29,-67.55 87.46,-57.76"/>
<polygon fill="black" stroke="black" points="89.3,-54.78 79.03,-52.19 85.45,-60.62 89.3,-54.78"/>
<g id="a_edge1&#45;headlabel"><a xlink:href="dir_000007_000012.html" target="_top" xlink:title="1">
<text text-anchor="middle" x="93.87" y="-51.89" font-family="Helvetica,sans-Serif" font-size="10.00">1</text>
</a>
</g>
</g>
<!-- dir_c9bd1a5ae28aac808ecc037c2deea79b&#45;&gt;dir_0d2a932382c826b5f090bd657ea984d5 -->
<g id="edge2" class="edge">
<title>dir_c9bd1a5ae28aac808ecc037c2deea79b&#45;&gt;dir_0d2a932382c826b5f090bd657ea984d5</title>
<path fill="none" stroke="black" d="M159,-87.7C159,-79.98 159,-70.71 159,-62.11"/>
<polygon fill="black" stroke="black" points="162.5,-62.1 159,-52.1 155.5,-62.1 162.5,-62.1"/>
<g id="a_edge2&#45;headlabel"><a xlink:href="dir_000007_000002.html" target="_top" xlink:title="1">
<text text-anchor="middle" x="165.34" y="-63.2" font-family="Helvetica,sans-Serif" font-size="10.00">1</text>
</a>
</g>
</g>
<!-- dir_c9bd1a5ae28aac808ecc037c2deea79b&#45;&gt;dir_135606c558b601cf506eb1680492ead9 -->
<g id="edge3" class="edge">
<title>dir_c9bd1a5ae28aac808ecc037c2deea79b&#45;&gt;dir_135606c558b601cf506eb1680492ead9</title>
<path fill="none" stroke="black" d="M185.42,-87.88C199.41,-78.81 216.78,-67.55 231.89,-57.76"/>
<polygon fill="black" stroke="black" points="233.99,-60.57 240.48,-52.19 230.18,-54.69 233.99,-60.57"/>
<g id="a_edge3&#45;headlabel"><a xlink:href="dir_000007_000008.html" target="_top" xlink:title="1">
<text text-anchor="middle" x="232.52" y="-62.4" font-family="Helvetica,sans-Serif" font-size="10.00">1</text>
</a>
</g>
</g>
</g>
</svg>
