<?xml version="1.0" encoding="UTF-8" standalone="no"?>
<!DOCTYPE svg PUBLIC "-//W3C//DTD SVG 1.1//EN"
 "http://www.w3.org/Graphics/SVG/1.1/DTD/svg11.dtd">
<!-- Generated by graphviz version 2.43.0 (0)
 -->
<!-- Title: Mackey Functors Pages: 1 -->
<svg width="220pt" height="151pt"
 viewBox="0.00 0.00 219.50 151.00" xmlns="http://www.w3.org/2000/svg" xmlns:xlink="http://www.w3.org/1999/xlink">
<g id="graph0" class="graph" transform="scale(1 1) rotate(0) translate(4 147)">
<title>Mackey Functors</title>
<polygon fill="white" stroke="transparent" points="-4,4 -4,-147 215.5,-147 215.5,4 -4,4"/>
<g id="clust1" class="cluster">
<title>clusterdir_b2f33c71d4aa5e7af42a1ca61ff5af1b</title>
<g id="a_clust1"><a xlink:href="dir_b2f33c71d4aa5e7af42a1ca61ff5af1b.html" target="_top" xlink:title="source">
<polygon fill="#ddddee" stroke="black" points="8,-64 8,-135 122,-135 122,-64 8,-64"/>
<text text-anchor="middle" x="65" y="-123" font-family="Helvetica,sans-Serif" font-size="10.00">source</text>
</a>
</g>
</g>
<!-- dir_56498964c6001a971ec487a108333712 -->
<g id="node1" class="node">
<title>dir_56498964c6001a971ec487a108333712</title>
<g id="a_node1"><a xlink:href="dir_56498964c6001a971ec487a108333712.html" target="_top" xlink:title="Mackey Functors">
<polygon fill="#eeeeff" stroke="black" points="114,-108 16,-108 16,-72 114,-72 114,-108"/>
<text text-anchor="middle" x="65" y="-87.5" font-family="Helvetica,sans-Serif" font-size="10.00">Mackey Functors</text>
</a>
</g>
</g>
<!-- dir_d5584a8e3fba8745e0e8931520df1292 -->
<g id="node2" class="node">
<title>dir_d5584a8e3fba8745e0e8931520df1292</title>
<g id="a_node2"><a xlink:href="dir_d5584a8e3fba8745e0e8931520df1292.html" target="_top" xlink:title="Homology">
<polygon fill="none" stroke="black" points="199.5,-108 132.5,-108 132.5,-72 199.5,-72 199.5,-108"/>
<text text-anchor="middle" x="166" y="-87.5" font-family="Helvetica,sans-Serif" font-size="10.00">Homology</text>
</a>
</g>
</g>
<!-- dir_56498964c6001a971ec487a108333712&#45;&gt;dir_d5584a8e3fba8745e0e8931520df1292 -->
<g id="edge2" class="edge">
<title>dir_56498964c6001a971ec487a108333712&#45;&gt;dir_d5584a8e3fba8745e0e8931520df1292</title>
<path fill="none" stroke="black" d="M114.32,-90C116.97,-90 119.62,-90 122.27,-90"/>
<polygon fill="black" stroke="black" points="122.49,-93.5 132.49,-90 122.49,-86.5 122.49,-93.5"/>
<g id="a_edge2&#45;headlabel"><a xlink:href="dir_000008_000007.html" target="_top" xlink:title="1">
<text text-anchor="middle" x="118.89" y="-93.84" font-family="Helvetica,sans-Serif" font-size="10.00">1</text>
</a>
</g>
</g>
<!-- dir_46f4ad1106b537d0d245697bc50c469e -->
<g id="node3" class="node">
<title>dir_46f4ad1106b537d0d245697bc50c469e</title>
<g id="a_node3"><a xlink:href="dir_46f4ad1106b537d0d245697bc50c469e.html" target="_top" xlink:title="Abelian Groups">
<polygon fill="none" stroke="black" points="211.5,-36 120.5,-36 120.5,0 211.5,0 211.5,-36"/>
<text text-anchor="middle" x="166" y="-15.5" font-family="Helvetica,sans-Serif" font-size="10.00">Abelian Groups</text>
</a>
</g>
</g>
<!-- dir_56498964c6001a971ec487a108333712&#45;&gt;dir_46f4ad1106b537d0d245697bc50c469e -->
<g id="edge3" class="edge">
<title>dir_56498964c6001a971ec487a108333712&#45;&gt;dir_46f4ad1106b537d0d245697bc50c469e</title>
<path fill="none" stroke="black" d="M84.05,-71.7C96.2,-62.63 112.24,-51.4 126.96,-41.65"/>
<polygon fill="black" stroke="black" points="128.98,-44.51 135.43,-36.1 125.14,-38.65 128.98,-44.51"/>
<g id="a_edge3&#45;headlabel"><a xlink:href="dir_000008_000001.html" target="_top" xlink:title="1">
<text text-anchor="middle" x="127.53" y="-46.36" font-family="Helvetica,sans-Serif" font-size="10.00">1</text>
</a>
</g>
</g>
<!-- dir_d5584a8e3fba8745e0e8931520df1292&#45;&gt;dir_46f4ad1106b537d0d245697bc50c469e -->
<g id="edge1" class="edge">
<title>dir_d5584a8e3fba8745e0e8931520df1292&#45;&gt;dir_46f4ad1106b537d0d245697bc50c469e</title>
<path fill="none" stroke="black" d="M160.08,-71.7C159.29,-63.98 159.06,-54.71 159.4,-46.11"/>
<polygon fill="black" stroke="black" points="162.9,-46.32 160.1,-36.1 155.92,-45.84 162.9,-46.32"/>
<g id="a_edge1&#45;headlabel"><a xlink:href="dir_000007_000001.html" target="_top" xlink:title="1">
<text text-anchor="middle" x="165.48" y="-47.61" font-family="Helvetica,sans-Serif" font-size="10.00">1</text>
</a>
</g>
</g>
<!-- dir_46f4ad1106b537d0d245697bc50c469e&#45;&gt;dir_56498964c6001a971ec487a108333712 -->
<g id="edge5" class="edge">
<title>dir_46f4ad1106b537d0d245697bc50c469e&#45;&gt;dir_56498964c6001a971ec487a108333712</title>
<path fill="none" stroke="black" d="M147.1,-36.19C134.95,-45.27 118.86,-56.53 104.1,-66.31"/>
<polygon fill="black" stroke="black" points="102.05,-63.47 95.6,-71.88 105.89,-69.32 102.05,-63.47"/>
<g id="a_edge5&#45;headlabel"><a xlink:href="dir_000001_000008.html" target="_top" xlink:title="1">
<text text-anchor="middle" x="103.5" y="-56.62" font-family="Helvetica,sans-Serif" font-size="10.00">1</text>
</a>
</g>
</g>
<!-- dir_46f4ad1106b537d0d245697bc50c469e&#45;&gt;dir_d5584a8e3fba8745e0e8931520df1292 -->
<g id="edge4" class="edge">
<title>dir_46f4ad1106b537d0d245697bc50c469e&#45;&gt;dir_d5584a8e3fba8745e0e8931520df1292</title>
<path fill="none" stroke="black" d="M171.9,-36.1C172.7,-43.79 172.94,-53.05 172.6,-61.67"/>
<polygon fill="black" stroke="black" points="169.11,-61.48 171.92,-71.7 176.09,-61.96 169.11,-61.48"/>
<g id="a_edge4&#45;headlabel"><a xlink:href="dir_000001_000007.html" target="_top" xlink:title="1">
<text text-anchor="middle" x="166.52" y="-55.2" font-family="Helvetica,sans-Serif" font-size="10.00">1</text>
</a>
</g>
</g>
</g>
</svg>
