<?xml version="1.0" encoding="UTF-8" standalone="no"?>
<!DOCTYPE svg PUBLIC "-//W3C//DTD SVG 1.1//EN"
 "http://www.w3.org/Graphics/SVG/1.1/DTD/svg11.dtd">
<!-- Generated by graphviz version 2.43.0 (0)
 -->
<!-- Title: Factorization Pages: 1 -->
<svg width="238pt" height="167pt"
 viewBox="0.00 0.00 238.00 167.00" xmlns="http://www.w3.org/2000/svg" xmlns:xlink="http://www.w3.org/1999/xlink">
<g id="graph0" class="graph" transform="scale(1 1) rotate(0) translate(4 163)">
<title>Factorization</title>
<polygon fill="white" stroke="transparent" points="-4,4 -4,-163 234,-163 234,4 -4,4"/>
<g id="clust1" class="cluster">
<title>clusterdir_b2f33c71d4aa5e7af42a1ca61ff5af1b</title>
<g id="a_clust1"><a xlink:href="dir_b2f33c71d4aa5e7af42a1ca61ff5af1b.html" target="_top" xlink:title="source">
<polygon fill="#ddddee" stroke="black" points="8,-8 8,-151 222,-151 222,-8 8,-8"/>
<text text-anchor="middle" x="115" y="-139" font-family="Helvetica,sans-Serif" font-size="10.00">source</text>
</a>
</g>
</g>
<!-- dir_2d28ba3a378a97d085301b74b64c3677 -->
<g id="node1" class="node">
<title>dir_2d28ba3a378a97d085301b74b64c3677</title>
<g id="a_node1"><a xlink:href="dir_2d28ba3a378a97d085301b74b64c3677.html" target="_top" xlink:title="Utility">
<polygon fill="none" stroke="black" points="70,-52 16,-52 16,-16 70,-16 70,-52"/>
<text text-anchor="middle" x="43" y="-31.5" font-family="Helvetica,sans-Serif" font-size="10.00">Utility</text>
</a>
</g>
</g>
<!-- dir_45da3ff196d16836594e0c6a3eb44491 -->
<g id="node2" class="node">
<title>dir_45da3ff196d16836594e0c6a3eb44491</title>
<g id="a_node2"><a xlink:href="dir_45da3ff196d16836594e0c6a3eb44491.html" target="_top" xlink:title="Spaces">
<polygon fill="none" stroke="black" points="142,-52 88,-52 88,-16 142,-16 142,-52"/>
<text text-anchor="middle" x="115" y="-31.5" font-family="Helvetica,sans-Serif" font-size="10.00">Spaces</text>
</a>
</g>
</g>
<!-- dir_7f70e815a1e85bc79332755d461ea4f9 -->
<g id="node3" class="node">
<title>dir_7f70e815a1e85bc79332755d461ea4f9</title>
<g id="a_node3"><a xlink:href="dir_7f70e815a1e85bc79332755d461ea4f9.html" target="_top" xlink:title="Graph">
<polygon fill="none" stroke="black" points="214,-52 160,-52 160,-16 214,-16 214,-52"/>
<text text-anchor="middle" x="187" y="-31.5" font-family="Helvetica,sans-Serif" font-size="10.00">Graph</text>
</a>
</g>
</g>
<!-- dir_135606c558b601cf506eb1680492ead9 -->
<g id="node4" class="node">
<title>dir_135606c558b601cf506eb1680492ead9</title>
<g id="a_node4"><a xlink:href="dir_135606c558b601cf506eb1680492ead9.html" target="_top" xlink:title="Factorization">
<polygon fill="#eeeeff" stroke="black" points="154.5,-124 75.5,-124 75.5,-88 154.5,-88 154.5,-124"/>
<text text-anchor="middle" x="115" y="-103.5" font-family="Helvetica,sans-Serif" font-size="10.00">Factorization</text>
</a>
</g>
</g>
<!-- dir_135606c558b601cf506eb1680492ead9&#45;&gt;dir_2d28ba3a378a97d085301b74b64c3677 -->
<g id="edge1" class="edge">
<title>dir_135606c558b601cf506eb1680492ead9&#45;&gt;dir_2d28ba3a378a97d085301b74b64c3677</title>
<path fill="none" stroke="black" d="M97.2,-87.7C88.4,-79.14 77.62,-68.66 68,-59.3"/>
<polygon fill="black" stroke="black" points="70.2,-56.57 60.59,-52.1 65.32,-61.58 70.2,-56.57"/>
<g id="a_edge1&#45;headlabel"><a xlink:href="dir_000008_000009.html" target="_top" xlink:title="2">
<text text-anchor="middle" x="74.76" y="-54.54" font-family="Helvetica,sans-Serif" font-size="10.00">2</text>
</a>
</g>
</g>
<!-- dir_135606c558b601cf506eb1680492ead9&#45;&gt;dir_45da3ff196d16836594e0c6a3eb44491 -->
<g id="edge2" class="edge">
<title>dir_135606c558b601cf506eb1680492ead9&#45;&gt;dir_45da3ff196d16836594e0c6a3eb44491</title>
<path fill="none" stroke="black" d="M115,-87.7C115,-79.98 115,-70.71 115,-62.11"/>
<polygon fill="black" stroke="black" points="118.5,-62.1 115,-52.1 111.5,-62.1 118.5,-62.1"/>
<g id="a_edge2&#45;headlabel"><a xlink:href="dir_000008_000004.html" target="_top" xlink:title="1">
<text text-anchor="middle" x="121.34" y="-63.2" font-family="Helvetica,sans-Serif" font-size="10.00">1</text>
</a>
</g>
</g>
<!-- dir_135606c558b601cf506eb1680492ead9&#45;&gt;dir_7f70e815a1e85bc79332755d461ea4f9 -->
<g id="edge3" class="edge">
<title>dir_135606c558b601cf506eb1680492ead9&#45;&gt;dir_7f70e815a1e85bc79332755d461ea4f9</title>
<path fill="none" stroke="black" d="M132.8,-87.7C141.6,-79.14 152.38,-68.66 162,-59.3"/>
<polygon fill="black" stroke="black" points="164.68,-61.58 169.41,-52.1 159.8,-56.57 164.68,-61.58"/>
<g id="a_edge3&#45;headlabel"><a xlink:href="dir_000008_000010.html" target="_top" xlink:title="1">
<text text-anchor="middle" x="164.08" y="-63.63" font-family="Helvetica,sans-Serif" font-size="10.00">1</text>
</a>
</g>
</g>
</g>
</svg>
