<?xml version="1.0" encoding="UTF-8" standalone="no"?>
<!DOCTYPE svg PUBLIC "-//W3C//DTD SVG 1.1//EN"
 "http://www.w3.org/Graphics/SVG/1.1/DTD/svg11.dtd">
<!-- Generated by graphviz version 2.43.0 (0)
 -->
<!-- Title: source Pages: 1 -->
<!--zoomable 652 -->
<svg id="main" version="1.1" xmlns="http://www.w3.org/2000/svg" xmlns:xlink="http://www.w3.org/1999/xlink" xml:space="preserve" onload="init(evt)">
<style type="text/css"><![CDATA[
.edge:hover path { stroke: red; }
.edge:hover polygon { stroke: red; fill: red; }
]]></style>
<script type="text/javascript"><![CDATA[
var edges = document.getElementsByTagName('g');
if (edges && edges.length) {
  for (var i=0;i<edges.length;i++) {
    if (edges[i].id.substr(0,4)=='edge') {
      edges[i].setAttribute('class','edge');
    }
  }
}
]]></script>
        <defs>
                <circle id="rim" cx="0" cy="0" r="7"/>
                <circle id="rim2" cx="0" cy="0" r="3.5"/>
                <g id="zoomPlus">
                        <use xlink:href="#rim" fill="#404040">
                                <set attributeName="fill" to="#808080" begin="zoomplus.mouseover" end="zoomplus.mouseout"/>
                        </use>
                        <path d="M-4,0h8M0,-4v8" fill="none" stroke="white" stroke-width="1.5" pointer-events="none"/>
                </g>
                <g id="zoomMin">
                        <use xlink:href="#rim" fill="#404040">
                                <set attributeName="fill" to="#808080" begin="zoomminus.mouseover" end="zoomminus.mouseout"/>
                        </use>
                        <path d="M-4,0h8" fill="none" stroke="white" stroke-width="1.5" pointer-events="none"/>
                </g>
                <g id="dirArrow">
                        <path fill="none" stroke="white" stroke-width="1.5" d="M0,-3.0v7 M-2.5,-0.5L0,-3.0L2.5,-0.5"/>
                </g>
               <g id="resetDef">
                       <use xlink:href="#rim2" fill="#404040">
                               <set attributeName="fill" to="#808080" begin="reset.mouseover" end="reset.mouseout"/>
                       </use>
               </g>
        </defs>

<script type="text/javascript">
var viewWidth = 294;
var viewHeight = 652;
var sectionId = 'dynsection-0';
</script>
<script xlink:href="svgpan.js"/>
<svg id="graph" class="graph">
<g id="viewport">
<title>source</title>
<polygon fill="white" stroke="transparent" points="-4,4 -4,-648 290,-648 290,4 -4,4"/>
<g id="clust1" class="cluster">
<title>clusterdir_b2f33c71d4aa5e7af42a1ca61ff5af1b</title>
<g id="a_clust1"><a xlink:href="dir_b2f33c71d4aa5e7af42a1ca61ff5af1b.html" target="_top">
<polygon fill="#eeeeff" stroke="black" points="8,-8 8,-636 278,-636 278,-8 8,-8"/>
</a>
</g>
</g>
<!-- dir_b2f33c71d4aa5e7af42a1ca61ff5af1b -->
<g id="node1" class="node">
<title>dir_b2f33c71d4aa5e7af42a1ca61ff5af1b</title>
<text text-anchor="middle" x="223" y="-319.5" font-family="Helvetica,sans-Serif" font-size="10.00">source</text>
</g>
<!-- dir_2718b09f40e53cc5d631c5ee634640b9 -->
<g id="node5" class="node">
<title>dir_2718b09f40e53cc5d631c5ee634640b9</title>
<g id="a_node5"><a xlink:href="dir_2718b09f40e53cc5d631c5ee634640b9.html" target="_top" xlink:title="Groups">
<polygon fill="white" stroke="black" points="250,-268 196,-268 196,-232 250,-232 250,-268"/>
<text text-anchor="middle" x="223" y="-247.5" font-family="Helvetica,sans-Serif" font-size="10.00">Groups</text>
</a>
</g>
</g>
<!-- dir_b2f33c71d4aa5e7af42a1ca61ff5af1b&#45;&gt;dir_2718b09f40e53cc5d631c5ee634640b9 -->
<g id="edge3" class="edge">
<title>dir_b2f33c71d4aa5e7af42a1ca61ff5af1b&#45;&gt;dir_2718b09f40e53cc5d631c5ee634640b9</title>
<path fill="none" stroke="black" d="M223,-303.7C223,-295.98 223,-286.71 223,-278.11"/>
<polygon fill="black" stroke="black" points="226.5,-278.1 223,-268.1 219.5,-278.1 226.5,-278.1"/>
<g id="a_edge3&#45;headlabel"><a xlink:href="dir_000000_000006.html" target="_top" xlink:title="1">
<text text-anchor="middle" x="229.34" y="-279.2" font-family="Helvetica,sans-Serif" font-size="10.00">1</text>
</a>
</g>
</g>
<!-- dir_40bece41bad7e53cfe205133ae844b04 -->
<g id="node2" class="node">
<title>dir_40bece41bad7e53cfe205133ae844b04</title>
<g id="a_node2"><a xlink:href="dir_40bece41bad7e53cfe205133ae844b04.html" target="_top" xlink:title="Chain_Complexes">
<polygon fill="white" stroke="black" points="230,-196 126,-196 126,-160 230,-160 230,-196"/>
<text text-anchor="middle" x="178" y="-175.5" font-family="Helvetica,sans-Serif" font-size="10.00">Chain_Complexes</text>
</a>
</g>
</g>
<!-- dir_2d28ba3a378a97d085301b74b64c3677 -->
<g id="node12" class="node">
<title>dir_2d28ba3a378a97d085301b74b64c3677</title>
<g id="a_node12"><a xlink:href="dir_2d28ba3a378a97d085301b74b64c3677.html" target="_top" xlink:title="Utility">
<polygon fill="white" stroke="black" points="172,-124 118,-124 118,-88 172,-88 172,-124"/>
<text text-anchor="middle" x="145" y="-103.5" font-family="Helvetica,sans-Serif" font-size="10.00">Utility</text>
</a>
</g>
</g>
<!-- dir_40bece41bad7e53cfe205133ae844b04&#45;&gt;dir_2d28ba3a378a97d085301b74b64c3677 -->
<g id="edge1" class="edge">
<title>dir_40bece41bad7e53cfe205133ae844b04&#45;&gt;dir_2d28ba3a378a97d085301b74b64c3677</title>
<path fill="none" stroke="black" d="M169.84,-159.7C166.09,-151.73 161.55,-142.1 157.38,-133.26"/>
<polygon fill="black" stroke="black" points="160.49,-131.66 153.06,-124.1 154.16,-134.64 160.49,-131.66"/>
<g id="a_edge1&#45;headlabel"><a xlink:href="dir_000005_000009.html" target="_top" xlink:title="1">
<text text-anchor="middle" x="164.59" y="-131.2" font-family="Helvetica,sans-Serif" font-size="10.00">1</text>
</a>
</g>
</g>
<!-- dir_0930667546aa6907e4b6d8514657f097 -->
<g id="node3" class="node">
<title>dir_0930667546aa6907e4b6d8514657f097</title>
<g id="a_node3"><a xlink:href="dir_0930667546aa6907e4b6d8514657f097.html" target="_top" xlink:title="Coefficients">
<polygon fill="white" stroke="black" points="90,-484 16,-484 16,-448 90,-448 90,-484"/>
<text text-anchor="middle" x="53" y="-463.5" font-family="Helvetica,sans-Serif" font-size="10.00">Coefficients</text>
</a>
</g>
</g>
<!-- dir_a83b8d8eeae076f2aa7d6596810ecb6e -->
<g id="node11" class="node">
<title>dir_a83b8d8eeae076f2aa7d6596810ecb6e</title>
<g id="a_node11"><a xlink:href="dir_a83b8d8eeae076f2aa7d6596810ecb6e.html" target="_top" xlink:title="Types">
<polygon fill="white" stroke="black" points="94,-52 40,-52 40,-16 94,-16 94,-52"/>
<text text-anchor="middle" x="67" y="-31.5" font-family="Helvetica,sans-Serif" font-size="10.00">Types</text>
</a>
</g>
</g>
<!-- dir_0930667546aa6907e4b6d8514657f097&#45;&gt;dir_a83b8d8eeae076f2aa7d6596810ecb6e -->
<g id="edge2" class="edge">
<title>dir_0930667546aa6907e4b6d8514657f097&#45;&gt;dir_a83b8d8eeae076f2aa7d6596810ecb6e</title>
<path fill="none" stroke="black" d="M45.71,-447.87C35.2,-421.53 17,-369.29 17,-323 17,-323 17,-323 17,-177 17,-134.68 37,-89.09 51.7,-61.3"/>
<polygon fill="black" stroke="black" points="54.93,-62.7 56.64,-52.24 48.78,-59.35 54.93,-62.7"/>
<g id="a_edge2&#45;headlabel"><a xlink:href="dir_000012_000003.html" target="_top" xlink:title="1">
<text text-anchor="middle" x="55.7" y="-64.71" font-family="Helvetica,sans-Serif" font-size="10.00">1</text>
</a>
</g>
</g>
<!-- dir_135606c558b601cf506eb1680492ead9 -->
<g id="node4" class="node">
<title>dir_135606c558b601cf506eb1680492ead9</title>
<g id="a_node4"><a xlink:href="dir_135606c558b601cf506eb1680492ead9.html" target="_top" xlink:title="Factorization">
<polygon fill="white" stroke="black" points="206.5,-556 127.5,-556 127.5,-520 206.5,-520 206.5,-556"/>
<text text-anchor="middle" x="167" y="-535.5" font-family="Helvetica,sans-Serif" font-size="10.00">Factorization</text>
</a>
</g>
</g>
<!-- dir_45da3ff196d16836594e0c6a3eb44491 -->
<g id="node10" class="node">
<title>dir_45da3ff196d16836594e0c6a3eb44491</title>
<g id="a_node10"><a xlink:href="dir_45da3ff196d16836594e0c6a3eb44491.html" target="_top" xlink:title="Spaces">
<polygon fill="white" stroke="black" points="189,-484 135,-484 135,-448 189,-448 189,-484"/>
<text text-anchor="middle" x="162" y="-463.5" font-family="Helvetica,sans-Serif" font-size="10.00">Spaces</text>
</a>
</g>
</g>
<!-- dir_135606c558b601cf506eb1680492ead9&#45;&gt;dir_45da3ff196d16836594e0c6a3eb44491 -->
<g id="edge21" class="edge">
<title>dir_135606c558b601cf506eb1680492ead9&#45;&gt;dir_45da3ff196d16836594e0c6a3eb44491</title>
<path fill="none" stroke="black" d="M165.76,-519.7C165.21,-511.98 164.55,-502.71 163.94,-494.11"/>
<polygon fill="black" stroke="black" points="167.43,-493.83 163.22,-484.1 160.44,-494.33 167.43,-493.83"/>
<g id="a_edge21&#45;headlabel"><a xlink:href="dir_000008_000004.html" target="_top" xlink:title="1">
<text text-anchor="middle" x="170.51" y="-494.71" font-family="Helvetica,sans-Serif" font-size="10.00">1</text>
</a>
</g>
</g>
<!-- dir_135606c558b601cf506eb1680492ead9&#45;&gt;dir_2d28ba3a378a97d085301b74b64c3677 -->
<g id="edge20" class="edge">
<title>dir_135606c558b601cf506eb1680492ead9&#45;&gt;dir_2d28ba3a378a97d085301b74b64c3677</title>
<path fill="none" stroke="black" d="M190.4,-519.92C220.51,-495.77 269,-448.57 269,-395 269,-395 269,-395 269,-249 269,-208.25 272.21,-192.01 247,-160 230.62,-139.2 203.82,-125.72 181.8,-117.56"/>
<polygon fill="black" stroke="black" points="182.67,-114.16 172.08,-114.18 180.37,-120.77 182.67,-114.16"/>
<g id="a_edge20&#45;headlabel"><a xlink:href="dir_000008_000009.html" target="_top" xlink:title="3">
<text text-anchor="middle" x="187" y="-110.16" font-family="Helvetica,sans-Serif" font-size="10.00">3</text>
</a>
</g>
</g>
<!-- dir_2718b09f40e53cc5d631c5ee634640b9&#45;&gt;dir_40bece41bad7e53cfe205133ae844b04 -->
<g id="edge11" class="edge">
<title>dir_2718b09f40e53cc5d631c5ee634640b9&#45;&gt;dir_40bece41bad7e53cfe205133ae844b04</title>
<path fill="none" stroke="black" d="M211.88,-231.7C206.64,-223.56 200.3,-213.69 194.52,-204.7"/>
<polygon fill="black" stroke="black" points="197.35,-202.62 189,-196.1 191.46,-206.41 197.35,-202.62"/>
<g id="a_edge11&#45;headlabel"><a xlink:href="dir_000006_000005.html" target="_top" xlink:title="2">
<text text-anchor="middle" x="201.68" y="-201.61" font-family="Helvetica,sans-Serif" font-size="10.00">2</text>
</a>
</g>
</g>
<!-- dir_2718b09f40e53cc5d631c5ee634640b9&#45;&gt;dir_2d28ba3a378a97d085301b74b64c3677 -->
<g id="edge10" class="edge">
<title>dir_2718b09f40e53cc5d631c5ee634640b9&#45;&gt;dir_2d28ba3a378a97d085301b74b64c3677</title>
<path fill="none" stroke="black" d="M232.58,-231.74C241.64,-212.87 252.07,-182.37 239,-160 226.68,-138.91 202.54,-125.56 181.8,-117.53"/>
<polygon fill="black" stroke="black" points="182.86,-114.19 172.27,-114.11 180.5,-120.78 182.86,-114.19"/>
<g id="a_edge10&#45;headlabel"><a xlink:href="dir_000006_000009.html" target="_top" xlink:title="2">
<text text-anchor="middle" x="187.2" y="-110.23" font-family="Helvetica,sans-Serif" font-size="10.00">2</text>
</a>
</g>
</g>
<!-- dir_d5584a8e3fba8745e0e8931520df1292 -->
<g id="node6" class="node">
<title>dir_d5584a8e3fba8745e0e8931520df1292</title>
<g id="a_node6"><a xlink:href="dir_d5584a8e3fba8745e0e8931520df1292.html" target="_top" xlink:title="Homology">
<polygon fill="white" stroke="black" points="103.5,-268 36.5,-268 36.5,-232 103.5,-232 103.5,-268"/>
<text text-anchor="middle" x="70" y="-247.5" font-family="Helvetica,sans-Serif" font-size="10.00">Homology</text>
</a>
</g>
</g>
<!-- dir_d5584a8e3fba8745e0e8931520df1292&#45;&gt;dir_40bece41bad7e53cfe205133ae844b04 -->
<g id="edge15" class="edge">
<title>dir_d5584a8e3fba8745e0e8931520df1292&#45;&gt;dir_40bece41bad7e53cfe205133ae844b04</title>
<path fill="none" stroke="black" d="M96.42,-231.88C110.41,-222.81 127.78,-211.55 142.89,-201.76"/>
<polygon fill="black" stroke="black" points="144.99,-204.57 151.48,-196.19 141.18,-198.69 144.99,-204.57"/>
<g id="a_edge15&#45;headlabel"><a xlink:href="dir_000001_000005.html" target="_top" xlink:title="1">
<text text-anchor="middle" x="143.52" y="-206.4" font-family="Helvetica,sans-Serif" font-size="10.00">1</text>
</a>
</g>
</g>
<!-- dir_d5584a8e3fba8745e0e8931520df1292&#45;&gt;dir_a83b8d8eeae076f2aa7d6596810ecb6e -->
<g id="edge16" class="edge">
<title>dir_d5584a8e3fba8745e0e8931520df1292&#45;&gt;dir_a83b8d8eeae076f2aa7d6596810ecb6e</title>
<path fill="none" stroke="black" d="M69.76,-231.85C69.24,-194.83 68.01,-107.18 67.38,-62.39"/>
<polygon fill="black" stroke="black" points="70.88,-62.18 67.24,-52.23 63.88,-62.28 70.88,-62.18"/>
<g id="a_edge16&#45;headlabel"><a xlink:href="dir_000001_000003.html" target="_top" xlink:title="1">
<text text-anchor="middle" x="73.77" y="-63.24" font-family="Helvetica,sans-Serif" font-size="10.00">1</text>
</a>
</g>
</g>
<!-- dir_d5584a8e3fba8745e0e8931520df1292&#45;&gt;dir_2d28ba3a378a97d085301b74b64c3677 -->
<g id="edge14" class="edge">
<title>dir_d5584a8e3fba8745e0e8931520df1292&#45;&gt;dir_2d28ba3a378a97d085301b74b64c3677</title>
<path fill="none" stroke="black" d="M74.3,-231.87C79.36,-213.39 88.77,-183.46 102,-160 107.56,-150.14 114.95,-140.27 122.04,-131.76"/>
<polygon fill="black" stroke="black" points="124.79,-133.92 128.67,-124.06 119.49,-129.35 124.79,-133.92"/>
<g id="a_edge14&#45;headlabel"><a xlink:href="dir_000001_000009.html" target="_top" xlink:title="2">
<text text-anchor="middle" x="124.6" y="-136" font-family="Helvetica,sans-Serif" font-size="10.00">2</text>
</a>
</g>
</g>
<!-- dir_0d2a932382c826b5f090bd657ea984d5 -->
<g id="node7" class="node">
<title>dir_0d2a932382c826b5f090bd657ea984d5</title>
<g id="a_node7"><a xlink:href="dir_0d2a932382c826b5f090bd657ea984d5.html" target="_top" xlink:title="Mackey_Functors">
<polygon fill="white" stroke="black" points="137.5,-340 36.5,-340 36.5,-304 137.5,-304 137.5,-340"/>
<text text-anchor="middle" x="87" y="-319.5" font-family="Helvetica,sans-Serif" font-size="10.00">Mackey_Functors</text>
</a>
</g>
</g>
<!-- dir_0d2a932382c826b5f090bd657ea984d5&#45;&gt;dir_d5584a8e3fba8745e0e8931520df1292 -->
<g id="edge9" class="edge">
<title>dir_0d2a932382c826b5f090bd657ea984d5&#45;&gt;dir_d5584a8e3fba8745e0e8931520df1292</title>
<path fill="none" stroke="black" d="M82.8,-303.7C80.9,-295.9 78.62,-286.51 76.52,-277.83"/>
<polygon fill="black" stroke="black" points="79.92,-277 74.15,-268.1 73.11,-278.65 79.92,-277"/>
<g id="a_edge9&#45;headlabel"><a xlink:href="dir_000002_000001.html" target="_top" xlink:title="3">
<text text-anchor="middle" x="83.52" y="-277.32" font-family="Helvetica,sans-Serif" font-size="10.00">3</text>
</a>
</g>
</g>
<!-- dir_0d2a932382c826b5f090bd657ea984d5&#45;&gt;dir_45da3ff196d16836594e0c6a3eb44491 -->
<g id="edge8" class="edge">
<title>dir_0d2a932382c826b5f090bd657ea984d5&#45;&gt;dir_45da3ff196d16836594e0c6a3eb44491</title>
<path fill="none" stroke="black" d="M91.02,-340.17C95.79,-358.68 104.81,-388.63 118,-412 123.53,-421.79 130.92,-431.53 138.07,-439.94"/>
<polygon fill="black" stroke="black" points="135.55,-442.37 144.78,-447.56 140.8,-437.74 135.55,-442.37"/>
<g id="a_edge8&#45;headlabel"><a xlink:href="dir_000002_000004.html" target="_top" xlink:title="1">
<text text-anchor="middle" x="131.04" y="-439.05" font-family="Helvetica,sans-Serif" font-size="10.00">1</text>
</a>
</g>
</g>
<!-- dir_0d2a932382c826b5f090bd657ea984d5&#45;&gt;dir_2d28ba3a378a97d085301b74b64c3677 -->
<g id="edge7" class="edge">
<title>dir_0d2a932382c826b5f090bd657ea984d5&#45;&gt;dir_2d28ba3a378a97d085301b74b64c3677</title>
<path fill="none" stroke="black" d="M97.87,-303.57C103.5,-293.56 109.85,-280.52 113,-268 124.72,-221.42 104.58,-206.4 117,-160 119.46,-150.8 123.75,-141.4 128.23,-133.12"/>
<polygon fill="black" stroke="black" points="131.34,-134.74 133.29,-124.32 125.27,-131.24 131.34,-134.74"/>
<g id="a_edge7&#45;headlabel"><a xlink:href="dir_000002_000009.html" target="_top" xlink:title="1">
<text text-anchor="middle" x="132.01" y="-136.77" font-family="Helvetica,sans-Serif" font-size="10.00">1</text>
</a>
</g>
</g>
<!-- dir_9264601ff92627dec15e5121f27e52c6 -->
<g id="node8" class="node">
<title>dir_9264601ff92627dec15e5121f27e52c6</title>
<g id="a_node8"><a xlink:href="dir_9264601ff92627dec15e5121f27e52c6.html" target="_top" xlink:title="Products">
<polygon fill="white" stroke="black" points="185.5,-412 126.5,-412 126.5,-376 185.5,-376 185.5,-412"/>
<text text-anchor="middle" x="156" y="-391.5" font-family="Helvetica,sans-Serif" font-size="10.00">Products</text>
</a>
</g>
</g>
<!-- dir_9264601ff92627dec15e5121f27e52c6&#45;&gt;dir_40bece41bad7e53cfe205133ae844b04 -->
<g id="edge19" class="edge">
<title>dir_9264601ff92627dec15e5121f27e52c6&#45;&gt;dir_40bece41bad7e53cfe205133ae844b04</title>
<path fill="none" stroke="black" d="M157.65,-375.6C160.47,-346.06 166.45,-284.23 172,-232 172.89,-223.58 173.92,-214.42 174.86,-206.12"/>
<polygon fill="black" stroke="black" points="178.34,-206.51 175.99,-196.18 171.38,-205.72 178.34,-206.51"/>
<g id="a_edge19&#45;headlabel"><a xlink:href="dir_000010_000005.html" target="_top" xlink:title="1">
<text text-anchor="middle" x="180.75" y="-207.91" font-family="Helvetica,sans-Serif" font-size="10.00">1</text>
</a>
</g>
</g>
<!-- dir_9264601ff92627dec15e5121f27e52c6&#45;&gt;dir_0d2a932382c826b5f090bd657ea984d5 -->
<g id="edge18" class="edge">
<title>dir_9264601ff92627dec15e5121f27e52c6&#45;&gt;dir_0d2a932382c826b5f090bd657ea984d5</title>
<path fill="none" stroke="black" d="M138.94,-375.7C130.5,-367.14 120.18,-356.66 110.96,-347.3"/>
<polygon fill="black" stroke="black" points="113.37,-344.77 103.86,-340.1 108.39,-349.68 113.37,-344.77"/>
<g id="a_edge18&#45;headlabel"><a xlink:href="dir_000010_000002.html" target="_top" xlink:title="2">
<text text-anchor="middle" x="117.92" y="-342.84" font-family="Helvetica,sans-Serif" font-size="10.00">2</text>
</a>
</g>
</g>
<!-- dir_c9bd1a5ae28aac808ecc037c2deea79b -->
<g id="node9" class="node">
<title>dir_c9bd1a5ae28aac808ecc037c2deea79b</title>
<g id="a_node9"><a xlink:href="dir_c9bd1a5ae28aac808ecc037c2deea79b.html" target="_top" xlink:title="Serialization">
<polygon fill="white" stroke="black" points="147.5,-628 70.5,-628 70.5,-592 147.5,-592 147.5,-628"/>
<text text-anchor="middle" x="109" y="-607.5" font-family="Helvetica,sans-Serif" font-size="10.00">Serialization</text>
</a>
</g>
</g>
<!-- dir_c9bd1a5ae28aac808ecc037c2deea79b&#45;&gt;dir_0930667546aa6907e4b6d8514657f097 -->
<g id="edge4" class="edge">
<title>dir_c9bd1a5ae28aac808ecc037c2deea79b&#45;&gt;dir_0930667546aa6907e4b6d8514657f097</title>
<path fill="none" stroke="black" d="M102.25,-591.87C92.62,-567.46 74.86,-522.43 63.5,-493.64"/>
<polygon fill="black" stroke="black" points="66.7,-492.21 59.78,-484.19 60.19,-494.78 66.7,-492.21"/>
<g id="a_edge4&#45;headlabel"><a xlink:href="dir_000007_000012.html" target="_top" xlink:title="1">
<text text-anchor="middle" x="70.66" y="-492.01" font-family="Helvetica,sans-Serif" font-size="10.00">1</text>
</a>
</g>
</g>
<!-- dir_c9bd1a5ae28aac808ecc037c2deea79b&#45;&gt;dir_135606c558b601cf506eb1680492ead9 -->
<g id="edge6" class="edge">
<title>dir_c9bd1a5ae28aac808ecc037c2deea79b&#45;&gt;dir_135606c558b601cf506eb1680492ead9</title>
<path fill="none" stroke="black" d="M123.34,-591.7C130.29,-583.3 138.77,-573.07 146.4,-563.86"/>
<polygon fill="black" stroke="black" points="149.14,-566.04 152.83,-556.1 143.75,-561.57 149.14,-566.04"/>
<g id="a_edge6&#45;headlabel"><a xlink:href="dir_000007_000008.html" target="_top" xlink:title="1">
<text text-anchor="middle" x="149.04" y="-568.12" font-family="Helvetica,sans-Serif" font-size="10.00">1</text>
</a>
</g>
</g>
<!-- dir_c9bd1a5ae28aac808ecc037c2deea79b&#45;&gt;dir_0d2a932382c826b5f090bd657ea984d5 -->
<g id="edge5" class="edge">
<title>dir_c9bd1a5ae28aac808ecc037c2deea79b&#45;&gt;dir_0d2a932382c826b5f090bd657ea984d5</title>
<path fill="none" stroke="black" d="M108.11,-591.59C106.56,-562.05 103.13,-500.21 99,-448 96.34,-414.34 92.51,-375.66 89.89,-350.35"/>
<polygon fill="black" stroke="black" points="93.37,-349.96 88.85,-340.37 86.41,-350.68 93.37,-349.96"/>
<g id="a_edge5&#45;headlabel"><a xlink:href="dir_000007_000002.html" target="_top" xlink:title="1">
<text text-anchor="middle" x="96.57" y="-350.74" font-family="Helvetica,sans-Serif" font-size="10.00">1</text>
</a>
</g>
</g>
<!-- dir_45da3ff196d16836594e0c6a3eb44491&#45;&gt;dir_40bece41bad7e53cfe205133ae844b04 -->
<g id="edge12" class="edge">
<title>dir_45da3ff196d16836594e0c6a3eb44491&#45;&gt;dir_40bece41bad7e53cfe205133ae844b04</title>
<path fill="none" stroke="black" d="M176.33,-447.57C183.45,-437.76 191.31,-424.92 195,-412 199.4,-396.62 196.75,-391.9 195,-376 193.21,-359.71 189.24,-356.24 187,-340 180.56,-293.36 178.7,-238.52 178.18,-206.38"/>
<polygon fill="black" stroke="black" points="181.67,-205.96 178.04,-196.01 174.67,-206.05 181.67,-205.96"/>
<g id="a_edge12&#45;headlabel"><a xlink:href="dir_000004_000005.html" target="_top" xlink:title="1">
<text text-anchor="middle" x="184.56" y="-207.02" font-family="Helvetica,sans-Serif" font-size="10.00">1</text>
</a>
</g>
</g>
<!-- dir_45da3ff196d16836594e0c6a3eb44491&#45;&gt;dir_9264601ff92627dec15e5121f27e52c6 -->
<g id="edge13" class="edge">
<title>dir_45da3ff196d16836594e0c6a3eb44491&#45;&gt;dir_9264601ff92627dec15e5121f27e52c6</title>
<path fill="none" stroke="black" d="M160.52,-447.7C159.86,-439.98 159.06,-430.71 158.32,-422.11"/>
<polygon fill="black" stroke="black" points="161.81,-421.77 157.47,-412.1 154.83,-422.37 161.81,-421.77"/>
<g id="a_edge13&#45;headlabel"><a xlink:href="dir_000004_000010.html" target="_top" xlink:title="1">
<text text-anchor="middle" x="164.94" y="-422.61" font-family="Helvetica,sans-Serif" font-size="10.00">1</text>
</a>
</g>
</g>
<!-- dir_2d28ba3a378a97d085301b74b64c3677&#45;&gt;dir_a83b8d8eeae076f2aa7d6596810ecb6e -->
<g id="edge17" class="edge">
<title>dir_2d28ba3a378a97d085301b74b64c3677&#45;&gt;dir_a83b8d8eeae076f2aa7d6596810ecb6e</title>
<path fill="none" stroke="black" d="M125.72,-87.7C116.08,-79.05 104.27,-68.45 93.77,-59.03"/>
<polygon fill="black" stroke="black" points="95.84,-56.18 86.06,-52.1 91.16,-61.39 95.84,-56.18"/>
<g id="a_edge17&#45;headlabel"><a xlink:href="dir_000009_000003.html" target="_top" xlink:title="1">
<text text-anchor="middle" x="100.41" y="-53.97" font-family="Helvetica,sans-Serif" font-size="10.00">1</text>
</a>
</g>
</g>
</g>
</svg>
        <g id="navigator" transform="translate(0 0)" fill="#404254">
                <rect fill="#f2f5e9" fill-opacity="0.5" stroke="#606060" stroke-width=".5" x="0" y="0" width="60" height="60"/>
                <use id="zoomplus" xlink:href="#zoomPlus" x="17" y="9" onmousedown="handleZoom(evt,'in')"/>
                <use id="zoomminus" xlink:href="#zoomMin" x="42" y="9" onmousedown="handleZoom(evt,'out')"/>
                <use id="reset" xlink:href="#resetDef" x="30" y="36" onmousedown="handleReset()"/>
                <g id="arrowUp" xlink:href="#dirArrow" transform="translate(30 24)" onmousedown="handlePan(0,-1)">
                  <use xlink:href="#rim" fill="#404040">
                        <set attributeName="fill" to="#808080" begin="arrowUp.mouseover" end="arrowUp.mouseout"/>
                  </use>
                  <path fill="none" stroke="white" stroke-width="1.5" d="M0,-3.0v7 M-2.5,-0.5L0,-3.0L2.5,-0.5"/>
                </g>
                <g id="arrowRight" xlink:href="#dirArrow" transform="rotate(90) translate(36 -43)" onmousedown="handlePan(1,0)">
                  <use xlink:href="#rim" fill="#404040">
                        <set attributeName="fill" to="#808080" begin="arrowRight.mouseover" end="arrowRight.mouseout"/>
                  </use>
                  <path fill="none" stroke="white" stroke-width="1.5" d="M0,-3.0v7 M-2.5,-0.5L0,-3.0L2.5,-0.5"/>
                </g>
                <g id="arrowDown" xlink:href="#dirArrow" transform="rotate(180) translate(-30 -48)" onmousedown="handlePan(0,1)">
                  <use xlink:href="#rim" fill="#404040">
                        <set attributeName="fill" to="#808080" begin="arrowDown.mouseover" end="arrowDown.mouseout"/>
                  </use>
                  <path fill="none" stroke="white" stroke-width="1.5" d="M0,-3.0v7 M-2.5,-0.5L0,-3.0L2.5,-0.5"/>
                </g>
                <g id="arrowLeft" xlink:href="#dirArrow" transform="rotate(270) translate(-36 17)" onmousedown="handlePan(-1,0)">
                  <use xlink:href="#rim" fill="#404040">
                        <set attributeName="fill" to="#808080" begin="arrowLeft.mouseover" end="arrowLeft.mouseout"/>
                  </use>
                  <path fill="none" stroke="white" stroke-width="1.5" d="M0,-3.0v7 M-2.5,-0.5L0,-3.0L2.5,-0.5"/>
                </g>
        </g>
        <svg viewBox="0 0 15 15" width="100%" height="30px" preserveAspectRatio="xMaxYMin meet">
         <g id="arrow_out" transform="scale(0.3 0.3)">
          <a xlink:href="dir_b2f33c71d4aa5e7af42a1ca61ff5af1b_dep_org.svg" target="_base">
           <rect id="button" ry="5" rx="5" y="6" x="6" height="38" width="38"
                fill="#f2f5e9" fill-opacity="0.5" stroke="#606060" stroke-width="1.0"/>
           <path id="arrow"
             d="M 11.500037,31.436501 C 11.940474,20.09759 22.043105,11.32322 32.158766,21.979434 L 37.068811,17.246167 C 37.068811,17.246167 37.088388,32 37.088388,32 L 22.160133,31.978069 C 22.160133,31.978069 26.997745,27.140456 26.997745,27.140456 C 18.528582,18.264221 13.291696,25.230495 11.500037,31.436501 z"
             style="fill:#404040;"/>
          </a>
         </g>
        </svg>
</svg>
