<?xml version="1.0" encoding="UTF-8" standalone="no"?>
<!DOCTYPE svg PUBLIC "-//W3C//DTD SVG 1.1//EN"
 "http://www.w3.org/Graphics/SVG/1.1/DTD/svg11.dtd">
<!-- Generated by graphviz version 2.43.0 (0)
 -->
<!-- Title: Spaces Pages: 1 -->
<svg width="164pt" height="311pt"
 viewBox="0.00 0.00 164.00 311.00" xmlns="http://www.w3.org/2000/svg" xmlns:xlink="http://www.w3.org/1999/xlink">
<g id="graph0" class="graph" transform="scale(1 1) rotate(0) translate(4 307)">
<title>Spaces</title>
<polygon fill="white" stroke="transparent" points="-4,4 -4,-307 160,-307 160,4 -4,4"/>
<g id="clust1" class="cluster">
<title>clusterdir_b2f33c71d4aa5e7af42a1ca61ff5af1b</title>
<g id="a_clust1"><a xlink:href="dir_b2f33c71d4aa5e7af42a1ca61ff5af1b.html" target="_top" xlink:title="source">
<polygon fill="#ddddee" stroke="black" points="8,-8 8,-295 148,-295 148,-8 8,-8"/>
<text text-anchor="middle" x="78" y="-283" font-family="Helvetica,sans-Serif" font-size="10.00">source</text>
</a>
</g>
</g>
<!-- dir_2d28ba3a378a97d085301b74b64c3677 -->
<g id="node1" class="node">
<title>dir_2d28ba3a378a97d085301b74b64c3677</title>
<g id="a_node1"><a xlink:href="dir_2d28ba3a378a97d085301b74b64c3677.html" target="_top" xlink:title="Utility">
<polygon fill="none" stroke="black" points="92,-52 38,-52 38,-16 92,-16 92,-52"/>
<text text-anchor="middle" x="65" y="-31.5" font-family="Helvetica,sans-Serif" font-size="10.00">Utility</text>
</a>
</g>
</g>
<!-- dir_40bece41bad7e53cfe205133ae844b04 -->
<g id="node2" class="node">
<title>dir_40bece41bad7e53cfe205133ae844b04</title>
<g id="a_node2"><a xlink:href="dir_40bece41bad7e53cfe205133ae844b04.html" target="_top" xlink:title="Chain_Complexes">
<polygon fill="none" stroke="black" points="140,-124 36,-124 36,-88 140,-88 140,-124"/>
<text text-anchor="middle" x="88" y="-103.5" font-family="Helvetica,sans-Serif" font-size="10.00">Chain_Complexes</text>
</a>
</g>
</g>
<!-- dir_40bece41bad7e53cfe205133ae844b04&#45;&gt;dir_2d28ba3a378a97d085301b74b64c3677 -->
<g id="edge1" class="edge">
<title>dir_40bece41bad7e53cfe205133ae844b04&#45;&gt;dir_2d28ba3a378a97d085301b74b64c3677</title>
<path fill="none" stroke="black" d="M82.31,-87.7C79.75,-79.9 76.67,-70.51 73.82,-61.83"/>
<polygon fill="black" stroke="black" points="77.07,-60.51 70.62,-52.1 70.42,-62.7 77.07,-60.51"/>
<g id="a_edge1&#45;headlabel"><a xlink:href="dir_000005_000009.html" target="_top" xlink:title="1">
<text text-anchor="middle" x="80.89" y="-60.54" font-family="Helvetica,sans-Serif" font-size="10.00">1</text>
</a>
</g>
</g>
<!-- dir_9264601ff92627dec15e5121f27e52c6 -->
<g id="node3" class="node">
<title>dir_9264601ff92627dec15e5121f27e52c6</title>
<g id="a_node3"><a xlink:href="dir_9264601ff92627dec15e5121f27e52c6.html" target="_top" xlink:title="Products">
<polygon fill="none" stroke="black" points="119.5,-196 60.5,-196 60.5,-160 119.5,-160 119.5,-196"/>
<text text-anchor="middle" x="90" y="-175.5" font-family="Helvetica,sans-Serif" font-size="10.00">Products</text>
</a>
</g>
</g>
<!-- dir_9264601ff92627dec15e5121f27e52c6&#45;&gt;dir_40bece41bad7e53cfe205133ae844b04 -->
<g id="edge5" class="edge">
<title>dir_9264601ff92627dec15e5121f27e52c6&#45;&gt;dir_40bece41bad7e53cfe205133ae844b04</title>
<path fill="none" stroke="black" d="M89.51,-159.7C89.29,-151.98 89.02,-142.71 88.77,-134.11"/>
<polygon fill="black" stroke="black" points="92.27,-134 88.49,-124.1 85.28,-134.2 92.27,-134"/>
<g id="a_edge5&#45;headlabel"><a xlink:href="dir_000011_000005.html" target="_top" xlink:title="1">
<text text-anchor="middle" x="95.21" y="-135.01" font-family="Helvetica,sans-Serif" font-size="10.00">1</text>
</a>
</g>
</g>
<!-- dir_45da3ff196d16836594e0c6a3eb44491 -->
<g id="node4" class="node">
<title>dir_45da3ff196d16836594e0c6a3eb44491</title>
<g id="a_node4"><a xlink:href="dir_45da3ff196d16836594e0c6a3eb44491.html" target="_top" xlink:title="Spaces">
<polygon fill="#eeeeff" stroke="black" points="70,-268 16,-268 16,-232 70,-232 70,-268"/>
<text text-anchor="middle" x="43" y="-247.5" font-family="Helvetica,sans-Serif" font-size="10.00">Spaces</text>
</a>
</g>
</g>
<!-- dir_45da3ff196d16836594e0c6a3eb44491&#45;&gt;dir_2d28ba3a378a97d085301b74b64c3677 -->
<g id="edge2" class="edge">
<title>dir_45da3ff196d16836594e0c6a3eb44491&#45;&gt;dir_2d28ba3a378a97d085301b74b64c3677</title>
<path fill="none" stroke="black" d="M36.79,-231.6C27.04,-201.54 10.84,-138.27 27,-88 30.19,-78.08 36,-68.44 42.13,-60.17"/>
<polygon fill="black" stroke="black" points="45.07,-62.09 48.54,-52.08 39.58,-57.74 45.07,-62.09"/>
<g id="a_edge2&#45;headlabel"><a xlink:href="dir_000004_000009.html" target="_top" xlink:title="1">
<text text-anchor="middle" x="45.06" y="-64.17" font-family="Helvetica,sans-Serif" font-size="10.00">1</text>
</a>
</g>
</g>
<!-- dir_45da3ff196d16836594e0c6a3eb44491&#45;&gt;dir_40bece41bad7e53cfe205133ae844b04 -->
<g id="edge3" class="edge">
<title>dir_45da3ff196d16836594e0c6a3eb44491&#45;&gt;dir_40bece41bad7e53cfe205133ae844b04</title>
<path fill="none" stroke="black" d="M42.28,-231.72C42.07,-213.37 43.35,-183.79 52,-160 55.5,-150.38 61.13,-140.83 66.92,-132.54"/>
<polygon fill="black" stroke="black" points="69.8,-134.53 72.92,-124.4 64.16,-130.37 69.8,-134.53"/>
<g id="a_edge3&#45;headlabel"><a xlink:href="dir_000004_000005.html" target="_top" xlink:title="1">
<text text-anchor="middle" x="69.95" y="-136.61" font-family="Helvetica,sans-Serif" font-size="10.00">1</text>
</a>
</g>
</g>
<!-- dir_45da3ff196d16836594e0c6a3eb44491&#45;&gt;dir_9264601ff92627dec15e5121f27e52c6 -->
<g id="edge4" class="edge">
<title>dir_45da3ff196d16836594e0c6a3eb44491&#45;&gt;dir_9264601ff92627dec15e5121f27e52c6</title>
<path fill="none" stroke="black" d="M54.62,-231.7C60.14,-223.47 66.85,-213.48 72.93,-204.42"/>
<polygon fill="black" stroke="black" points="75.85,-206.36 78.52,-196.1 70.04,-202.46 75.85,-206.36"/>
<g id="a_edge4&#45;headlabel"><a xlink:href="dir_000004_000011.html" target="_top" xlink:title="1">
<text text-anchor="middle" x="76.2" y="-208.42" font-family="Helvetica,sans-Serif" font-size="10.00">1</text>
</a>
</g>
</g>
</g>
</svg>
