<?xml version="1.0" encoding="UTF-8" standalone="no"?>
<!DOCTYPE svg PUBLIC "-//W3C//DTD SVG 1.1//EN"
 "http://www.w3.org/Graphics/SVG/1.1/DTD/svg11.dtd">
<!-- Generated by graphviz version 2.43.0 (0)
 -->
<!-- Title: Mackey_Functors Pages: 1 -->
<svg width="200pt" height="239pt"
 viewBox="0.00 0.00 200.00 239.00" xmlns="http://www.w3.org/2000/svg" xmlns:xlink="http://www.w3.org/1999/xlink">
<g id="graph0" class="graph" transform="scale(1 1) rotate(0) translate(4 235)">
<title>Mackey_Functors</title>
<polygon fill="white" stroke="transparent" points="-4,4 -4,-235 196,-235 196,4 -4,4"/>
<g id="clust1" class="cluster">
<title>clusterdir_b2f33c71d4aa5e7af42a1ca61ff5af1b</title>
<g id="a_clust1"><a xlink:href="dir_b2f33c71d4aa5e7af42a1ca61ff5af1b.html" target="_top" xlink:title="source">
<polygon fill="#ddddee" stroke="black" points="8,-8 8,-223 184,-223 184,-8 8,-8"/>
<text text-anchor="middle" x="96" y="-211" font-family="Helvetica,sans-Serif" font-size="10.00">source</text>
</a>
</g>
</g>
<!-- dir_2d28ba3a378a97d085301b74b64c3677 -->
<g id="node1" class="node">
<title>dir_2d28ba3a378a97d085301b74b64c3677</title>
<g id="a_node1"><a xlink:href="dir_2d28ba3a378a97d085301b74b64c3677.html" target="_top" xlink:title="Utility">
<polygon fill="none" stroke="black" points="119,-52 65,-52 65,-16 119,-16 119,-52"/>
<text text-anchor="middle" x="92" y="-31.5" font-family="Helvetica,sans-Serif" font-size="10.00">Utility</text>
</a>
</g>
</g>
<!-- dir_45da3ff196d16836594e0c6a3eb44491 -->
<g id="node2" class="node">
<title>dir_45da3ff196d16836594e0c6a3eb44491</title>
<g id="a_node2"><a xlink:href="dir_45da3ff196d16836594e0c6a3eb44491.html" target="_top" xlink:title="Spaces">
<polygon fill="none" stroke="black" points="90,-124 36,-124 36,-88 90,-88 90,-124"/>
<text text-anchor="middle" x="63" y="-103.5" font-family="Helvetica,sans-Serif" font-size="10.00">Spaces</text>
</a>
</g>
</g>
<!-- dir_d5584a8e3fba8745e0e8931520df1292 -->
<g id="node3" class="node">
<title>dir_d5584a8e3fba8745e0e8931520df1292</title>
<g id="a_node3"><a xlink:href="dir_d5584a8e3fba8745e0e8931520df1292.html" target="_top" xlink:title="Homology">
<polygon fill="none" stroke="black" points="175.5,-124 108.5,-124 108.5,-88 175.5,-88 175.5,-124"/>
<text text-anchor="middle" x="142" y="-103.5" font-family="Helvetica,sans-Serif" font-size="10.00">Homology</text>
</a>
</g>
</g>
<!-- dir_d5584a8e3fba8745e0e8931520df1292&#45;&gt;dir_2d28ba3a378a97d085301b74b64c3677 -->
<g id="edge4" class="edge">
<title>dir_d5584a8e3fba8745e0e8931520df1292&#45;&gt;dir_2d28ba3a378a97d085301b74b64c3677</title>
<path fill="none" stroke="black" d="M129.64,-87.7C123.77,-79.47 116.63,-69.48 110.16,-60.42"/>
<polygon fill="black" stroke="black" points="112.88,-58.21 104.22,-52.1 107.18,-62.28 112.88,-58.21"/>
<g id="a_edge4&#45;headlabel"><a xlink:href="dir_000001_000009.html" target="_top" xlink:title="2">
<text text-anchor="middle" x="117.28" y="-56.98" font-family="Helvetica,sans-Serif" font-size="10.00">2</text>
</a>
</g>
</g>
<!-- dir_0d2a932382c826b5f090bd657ea984d5 -->
<g id="node4" class="node">
<title>dir_0d2a932382c826b5f090bd657ea984d5</title>
<g id="a_node4"><a xlink:href="dir_0d2a932382c826b5f090bd657ea984d5.html" target="_top" xlink:title="Mackey_Functors">
<polygon fill="#eeeeff" stroke="black" points="117.5,-196 16.5,-196 16.5,-160 117.5,-160 117.5,-196"/>
<text text-anchor="middle" x="67" y="-175.5" font-family="Helvetica,sans-Serif" font-size="10.00">Mackey_Functors</text>
</a>
</g>
</g>
<!-- dir_0d2a932382c826b5f090bd657ea984d5&#45;&gt;dir_2d28ba3a378a97d085301b74b64c3677 -->
<g id="edge1" class="edge">
<title>dir_0d2a932382c826b5f090bd657ea984d5&#45;&gt;dir_2d28ba3a378a97d085301b74b64c3677</title>
<path fill="none" stroke="black" d="M49.27,-159.6C40.76,-150 31.47,-137.34 27,-124 21.92,-108.83 20.14,-102.45 27,-88 33.33,-74.66 44.85,-63.58 56.44,-55.05"/>
<polygon fill="black" stroke="black" points="58.56,-57.84 64.83,-49.3 54.6,-52.07 58.56,-57.84"/>
<g id="a_edge1&#45;headlabel"><a xlink:href="dir_000002_000009.html" target="_top" xlink:title="1">
<text text-anchor="middle" x="57.2" y="-59.72" font-family="Helvetica,sans-Serif" font-size="10.00">1</text>
</a>
</g>
</g>
<!-- dir_0d2a932382c826b5f090bd657ea984d5&#45;&gt;dir_45da3ff196d16836594e0c6a3eb44491 -->
<g id="edge2" class="edge">
<title>dir_0d2a932382c826b5f090bd657ea984d5&#45;&gt;dir_45da3ff196d16836594e0c6a3eb44491</title>
<path fill="none" stroke="black" d="M66.01,-159.7C65.57,-151.98 65.04,-142.71 64.55,-134.11"/>
<polygon fill="black" stroke="black" points="68.04,-133.89 63.98,-124.1 61.05,-134.29 68.04,-133.89"/>
<g id="a_edge2&#45;headlabel"><a xlink:href="dir_000002_000004.html" target="_top" xlink:title="1">
<text text-anchor="middle" x="71.08" y="-134.82" font-family="Helvetica,sans-Serif" font-size="10.00">1</text>
</a>
</g>
</g>
<!-- dir_0d2a932382c826b5f090bd657ea984d5&#45;&gt;dir_d5584a8e3fba8745e0e8931520df1292 -->
<g id="edge3" class="edge">
<title>dir_0d2a932382c826b5f090bd657ea984d5&#45;&gt;dir_d5584a8e3fba8745e0e8931520df1292</title>
<path fill="none" stroke="black" d="M85.54,-159.7C94.8,-151.05 106.16,-140.45 116.26,-131.03"/>
<polygon fill="black" stroke="black" points="118.75,-133.49 123.67,-124.1 113.98,-128.37 118.75,-133.49"/>
<g id="a_edge3&#45;headlabel"><a xlink:href="dir_000002_000001.html" target="_top" xlink:title="3">
<text text-anchor="middle" x="118.06" y="-135.51" font-family="Helvetica,sans-Serif" font-size="10.00">3</text>
</a>
</g>
</g>
</g>
</svg>
