<?xml version="1.0" encoding="UTF-8" standalone="no"?>
<!DOCTYPE svg PUBLIC "-//W3C//DTD SVG 1.1//EN"
 "http://www.w3.org/Graphics/SVG/1.1/DTD/svg11.dtd">
<!-- Generated by graphviz version 2.43.0 (0)
 -->
<!-- Title: Spaces Pages: 1 -->
<svg width="144pt" height="239pt"
 viewBox="0.00 0.00 144.00 239.00" xmlns="http://www.w3.org/2000/svg" xmlns:xlink="http://www.w3.org/1999/xlink">
<g id="graph0" class="graph" transform="scale(1 1) rotate(0) translate(4 235)">
<title>Spaces</title>
<polygon fill="white" stroke="transparent" points="-4,4 -4,-235 140,-235 140,4 -4,4"/>
<g id="clust1" class="cluster">
<title>clusterdir_b2f33c71d4aa5e7af42a1ca61ff5af1b</title>
<g id="a_clust1"><a xlink:href="dir_b2f33c71d4aa5e7af42a1ca61ff5af1b.html" target="_top" xlink:title="source">
<polygon fill="#ddddee" stroke="black" points="8,-8 8,-223 128,-223 128,-8 8,-8"/>
<text text-anchor="middle" x="68" y="-211" font-family="Helvetica,sans-Serif" font-size="10.00">source</text>
</a>
</g>
</g>
<!-- dir_40bece41bad7e53cfe205133ae844b04 -->
<g id="node1" class="node">
<title>dir_40bece41bad7e53cfe205133ae844b04</title>
<g id="a_node1"><a xlink:href="dir_40bece41bad7e53cfe205133ae844b04.html" target="_top" xlink:title="Chain_Complexes">
<polygon fill="none" stroke="black" points="120,-52 16,-52 16,-16 120,-16 120,-52"/>
<text text-anchor="middle" x="68" y="-31.5" font-family="Helvetica,sans-Serif" font-size="10.00">Chain_Complexes</text>
</a>
</g>
</g>
<!-- dir_9264601ff92627dec15e5121f27e52c6 -->
<g id="node2" class="node">
<title>dir_9264601ff92627dec15e5121f27e52c6</title>
<g id="a_node2"><a xlink:href="dir_9264601ff92627dec15e5121f27e52c6.html" target="_top" xlink:title="Products">
<polygon fill="none" stroke="black" points="108.5,-124 49.5,-124 49.5,-88 108.5,-88 108.5,-124"/>
<text text-anchor="middle" x="79" y="-103.5" font-family="Helvetica,sans-Serif" font-size="10.00">Products</text>
</a>
</g>
</g>
<!-- dir_9264601ff92627dec15e5121f27e52c6&#45;&gt;dir_40bece41bad7e53cfe205133ae844b04 -->
<g id="edge3" class="edge">
<title>dir_9264601ff92627dec15e5121f27e52c6&#45;&gt;dir_40bece41bad7e53cfe205133ae844b04</title>
<path fill="none" stroke="black" d="M76.28,-87.7C75.07,-79.98 73.61,-70.71 72.26,-62.11"/>
<polygon fill="black" stroke="black" points="75.7,-61.44 70.69,-52.1 68.78,-62.53 75.7,-61.44"/>
<g id="a_edge3&#45;headlabel"><a xlink:href="dir_000010_000005.html" target="_top" xlink:title="1">
<text text-anchor="middle" x="79.06" y="-62.05" font-family="Helvetica,sans-Serif" font-size="10.00">1</text>
</a>
</g>
</g>
<!-- dir_45da3ff196d16836594e0c6a3eb44491 -->
<g id="node3" class="node">
<title>dir_45da3ff196d16836594e0c6a3eb44491</title>
<g id="a_node3"><a xlink:href="dir_45da3ff196d16836594e0c6a3eb44491.html" target="_top" xlink:title="Spaces">
<polygon fill="#eeeeff" stroke="black" points="82,-196 28,-196 28,-160 82,-160 82,-196"/>
<text text-anchor="middle" x="55" y="-175.5" font-family="Helvetica,sans-Serif" font-size="10.00">Spaces</text>
</a>
</g>
</g>
<!-- dir_45da3ff196d16836594e0c6a3eb44491&#45;&gt;dir_40bece41bad7e53cfe205133ae844b04 -->
<g id="edge1" class="edge">
<title>dir_45da3ff196d16836594e0c6a3eb44491&#45;&gt;dir_40bece41bad7e53cfe205133ae844b04</title>
<path fill="none" stroke="black" d="M47.95,-159.78C41.52,-141.73 33.89,-112.64 40,-88 42.29,-78.75 46.53,-69.34 51.02,-61.07"/>
<polygon fill="black" stroke="black" points="54.13,-62.68 56.11,-52.28 48.07,-59.17 54.13,-62.68"/>
<g id="a_edge1&#45;headlabel"><a xlink:href="dir_000004_000005.html" target="_top" xlink:title="1">
<text text-anchor="middle" x="54.78" y="-64.72" font-family="Helvetica,sans-Serif" font-size="10.00">1</text>
</a>
</g>
</g>
<!-- dir_45da3ff196d16836594e0c6a3eb44491&#45;&gt;dir_9264601ff92627dec15e5121f27e52c6 -->
<g id="edge2" class="edge">
<title>dir_45da3ff196d16836594e0c6a3eb44491&#45;&gt;dir_9264601ff92627dec15e5121f27e52c6</title>
<path fill="none" stroke="black" d="M60.93,-159.7C63.61,-151.9 66.83,-142.51 69.8,-133.83"/>
<polygon fill="black" stroke="black" points="73.2,-134.7 73.14,-124.1 66.58,-132.43 73.2,-134.7"/>
<g id="a_edge2&#45;headlabel"><a xlink:href="dir_000004_000010.html" target="_top" xlink:title="1">
<text text-anchor="middle" x="74.72" y="-136.52" font-family="Helvetica,sans-Serif" font-size="10.00">1</text>
</a>
</g>
</g>
</g>
</svg>
