<?xml version="1.0" encoding="UTF-8" standalone="no"?>
<!DOCTYPE svg PUBLIC "-//W3C//DTD SVG 1.1//EN"
 "http://www.w3.org/Graphics/SVG/1.1/DTD/svg11.dtd">
<!-- Generated by graphviz version 2.43.0 (0)
 -->
<!-- Title: Abelian_Groups Pages: 1 -->
<svg width="202pt" height="151pt"
 viewBox="0.00 0.00 201.50 151.00" xmlns="http://www.w3.org/2000/svg" xmlns:xlink="http://www.w3.org/1999/xlink">
<g id="graph0" class="graph" transform="scale(1 1) rotate(0) translate(4 147)">
<title>Abelian_Groups</title>
<polygon fill="white" stroke="transparent" points="-4,4 -4,-147 197.5,-147 197.5,4 -4,4"/>
<g id="clust1" class="cluster">
<title>clusterdir_b2f33c71d4aa5e7af42a1ca61ff5af1b</title>
<g id="a_clust1"><a xlink:href="dir_b2f33c71d4aa5e7af42a1ca61ff5af1b.html" target="_top" xlink:title="source">
<polygon fill="#ddddee" stroke="black" points="8,-64 8,-135 116,-135 116,-64 8,-64"/>
<text text-anchor="middle" x="62" y="-123" font-family="Helvetica,sans-Serif" font-size="10.00">source</text>
</a>
</g>
</g>
<!-- dir_d5f32d7cb1dee57379dd298dbcb42a34 -->
<g id="node1" class="node">
<title>dir_d5f32d7cb1dee57379dd298dbcb42a34</title>
<g id="a_node1"><a xlink:href="dir_d5f32d7cb1dee57379dd298dbcb42a34.html" target="_top" xlink:title="Abelian_Groups">
<polygon fill="#eeeeff" stroke="black" points="108.5,-108 15.5,-108 15.5,-72 108.5,-72 108.5,-108"/>
<text text-anchor="middle" x="62" y="-87.5" font-family="Helvetica,sans-Serif" font-size="10.00">Abelian_Groups</text>
</a>
</g>
</g>
<!-- dir_d5584a8e3fba8745e0e8931520df1292 -->
<g id="node2" class="node">
<title>dir_d5584a8e3fba8745e0e8931520df1292</title>
<g id="a_node2"><a xlink:href="dir_d5584a8e3fba8745e0e8931520df1292.html" target="_top" xlink:title="Homology">
<polygon fill="none" stroke="black" points="193.5,-108 126.5,-108 126.5,-72 193.5,-72 193.5,-108"/>
<text text-anchor="middle" x="160" y="-87.5" font-family="Helvetica,sans-Serif" font-size="10.00">Homology</text>
</a>
</g>
</g>
<!-- dir_d5f32d7cb1dee57379dd298dbcb42a34&#45;&gt;dir_d5584a8e3fba8745e0e8931520df1292 -->
<g id="edge3" class="edge">
<title>dir_d5f32d7cb1dee57379dd298dbcb42a34&#45;&gt;dir_d5584a8e3fba8745e0e8931520df1292</title>
<path fill="none" stroke="black" d="M108.7,-90C111.18,-90 113.66,-90 116.14,-90"/>
<polygon fill="black" stroke="black" points="116.34,-93.5 126.34,-90 116.34,-86.5 116.34,-93.5"/>
<g id="a_edge3&#45;headlabel"><a xlink:href="dir_000001_000007.html" target="_top" xlink:title="1">
<text text-anchor="middle" x="112.74" y="-93.84" font-family="Helvetica,sans-Serif" font-size="10.00">1</text>
</a>
</g>
</g>
<!-- dir_2d28ba3a378a97d085301b74b64c3677 -->
<g id="node3" class="node">
<title>dir_2d28ba3a378a97d085301b74b64c3677</title>
<g id="a_node3"><a xlink:href="dir_2d28ba3a378a97d085301b74b64c3677.html" target="_top" xlink:title="Utility">
<polygon fill="none" stroke="black" points="138,-36 84,-36 84,0 138,0 138,-36"/>
<text text-anchor="middle" x="111" y="-15.5" font-family="Helvetica,sans-Serif" font-size="10.00">Utility</text>
</a>
</g>
</g>
<!-- dir_d5f32d7cb1dee57379dd298dbcb42a34&#45;&gt;dir_2d28ba3a378a97d085301b74b64c3677 -->
<g id="edge4" class="edge">
<title>dir_d5f32d7cb1dee57379dd298dbcb42a34&#45;&gt;dir_2d28ba3a378a97d085301b74b64c3677</title>
<path fill="none" stroke="black" d="M74.11,-71.7C79.87,-63.47 86.86,-53.48 93.21,-44.42"/>
<polygon fill="black" stroke="black" points="96.16,-46.3 99.03,-36.1 90.42,-42.29 96.16,-46.3"/>
<g id="a_edge4&#45;headlabel"><a xlink:href="dir_000001_000005.html" target="_top" xlink:title="1">
<text text-anchor="middle" x="96.42" y="-48.38" font-family="Helvetica,sans-Serif" font-size="10.00">1</text>
</a>
</g>
</g>
<!-- dir_d5584a8e3fba8745e0e8931520df1292&#45;&gt;dir_d5f32d7cb1dee57379dd298dbcb42a34 -->
<g id="edge2" class="edge">
<title>dir_d5584a8e3fba8745e0e8931520df1292&#45;&gt;dir_d5f32d7cb1dee57379dd298dbcb42a34</title>
<path fill="none" stroke="black" d="M126.34,-90C123.86,-90 121.38,-90 118.9,-90"/>
<polygon fill="black" stroke="black" points="118.7,-86.5 108.7,-90 118.7,-93.5 118.7,-86.5"/>
<g id="a_edge2&#45;headlabel"><a xlink:href="dir_000007_000001.html" target="_top" xlink:title="1">
<text text-anchor="middle" x="122.3" y="-81.16" font-family="Helvetica,sans-Serif" font-size="10.00">1</text>
</a>
</g>
</g>
<!-- dir_d5584a8e3fba8745e0e8931520df1292&#45;&gt;dir_2d28ba3a378a97d085301b74b64c3677 -->
<g id="edge1" class="edge">
<title>dir_d5584a8e3fba8745e0e8931520df1292&#45;&gt;dir_2d28ba3a378a97d085301b74b64c3677</title>
<path fill="none" stroke="black" d="M147.89,-71.7C142.13,-63.47 135.14,-53.48 128.79,-44.42"/>
<polygon fill="black" stroke="black" points="131.58,-42.29 122.97,-36.1 125.84,-46.3 131.58,-42.29"/>
<g id="a_edge1&#45;headlabel"><a xlink:href="dir_000007_000005.html" target="_top" xlink:title="1">
<text text-anchor="middle" x="135.96" y="-41.11" font-family="Helvetica,sans-Serif" font-size="10.00">1</text>
</a>
</g>
</g>
</g>
</svg>
