<?xml version="1.0" encoding="UTF-8" standalone="no"?>
<!DOCTYPE svg PUBLIC "-//W3C//DTD SVG 1.1//EN"
 "http://www.w3.org/Graphics/SVG/1.1/DTD/svg11.dtd">
<!-- Generated by graphviz version 2.43.0 (0)
 -->
<!-- Title: Factorization.hpp Pages: 1 -->
<svg width="1099pt" height="756pt"
 viewBox="0.00 0.00 1099.00 756.00" xmlns="http://www.w3.org/2000/svg" xmlns:xlink="http://www.w3.org/1999/xlink">
<g id="graph0" class="graph" transform="scale(1 1) rotate(0) translate(4 752)">
<title>Factorization.hpp</title>
<polygon fill="white" stroke="transparent" points="-4,4 -4,-752 1095,-752 1095,4 -4,4"/>
<!-- Node1 -->
<g id="node1" class="node">
<title>Node1</title>
<g id="a_node1"><a xlink:title="Contains the multiplication graph and the methods for factorizing generators.">
<polygon fill="#bfbfbf" stroke="black" points="851,-728.5 851,-747.5 951,-747.5 951,-728.5 851,-728.5"/>
<text text-anchor="middle" x="901" y="-735.5" font-family="Helvetica,sans-Serif" font-size="10.00">Factorization.hpp</text>
</a>
</g>
</g>
<!-- Node2 -->
<g id="node2" class="node">
<title>Node2</title>
<g id="a_node2"><a xlink:href="Mult__Graph_8hpp.html" target="_top" xlink:title="Contains the multiplication graph.">
<polygon fill="white" stroke="black" points="776,-616.5 776,-635.5 870,-635.5 870,-616.5 776,-616.5"/>
<text text-anchor="middle" x="823" y="-623.5" font-family="Helvetica,sans-Serif" font-size="10.00">Mult_Graph.hpp</text>
</a>
</g>
</g>
<!-- Node1&#45;&gt;Node2 -->
<g id="edge1" class="edge">
<title>Node1&#45;&gt;Node2</title>
<path fill="none" stroke="midnightblue" d="M884.66,-728.44C871.32,-720.64 852.94,-707.93 842,-692 832.54,-678.22 827.72,-659.7 825.32,-645.95"/>
<polygon fill="midnightblue" stroke="midnightblue" points="828.73,-645.11 823.81,-635.73 821.81,-646.14 828.73,-645.11"/>
</g>
<!-- Node53 -->
<g id="node48" class="node">
<title>Node53</title>
<g id="a_node48"><a xlink:href="Mult__Identify_8hpp.html" target="_top" xlink:title="Contains extra identification methods for the multiplication graph.">
<polygon fill="white" stroke="black" points="851,-672.5 851,-691.5 951,-691.5 951,-672.5 851,-672.5"/>
<text text-anchor="middle" x="901" y="-679.5" font-family="Helvetica,sans-Serif" font-size="10.00">Mult_Identify.hpp</text>
</a>
</g>
</g>
<!-- Node1&#45;&gt;Node53 -->
<g id="edge63" class="edge">
<title>Node1&#45;&gt;Node53</title>
<path fill="none" stroke="midnightblue" d="M901,-728.08C901,-721.01 901,-710.86 901,-701.99"/>
<polygon fill="midnightblue" stroke="midnightblue" points="904.5,-701.75 901,-691.75 897.5,-701.75 904.5,-701.75"/>
</g>
<!-- Node55 -->
<g id="node50" class="node">
<title>Node55</title>
<g id="a_node50"><a xlink:title=" ">
<polygon fill="white" stroke="#bfbfbf" points="969,-672.5 969,-691.5 1091,-691.5 1091,-672.5 969,-672.5"/>
<text text-anchor="middle" x="1030" y="-679.5" font-family="Helvetica,sans-Serif" font-size="10.00">impl/Factorization.ipp</text>
</a>
</g>
</g>
<!-- Node1&#45;&gt;Node55 -->
<g id="edge66" class="edge">
<title>Node1&#45;&gt;Node55</title>
<path fill="none" stroke="midnightblue" d="M921.44,-728.44C942.67,-719.56 976.1,-705.56 1000.25,-695.45"/>
<polygon fill="midnightblue" stroke="midnightblue" points="1001.78,-698.61 1009.66,-691.52 999.08,-692.15 1001.78,-698.61"/>
</g>
<!-- Node3 -->
<g id="node3" class="node">
<title>Node3</title>
<g id="a_node3"><a xlink:href="Mult__Table_8hpp.html" target="_top" xlink:title="Contains the classes mackey::MultTableData and mackey::MultTable that form the multiplication table.">
<polygon fill="white" stroke="black" points="335,-560.5 335,-579.5 425,-579.5 425,-560.5 335,-560.5"/>
<text text-anchor="middle" x="380" y="-567.5" font-family="Helvetica,sans-Serif" font-size="10.00">Mult_Table.hpp</text>
</a>
</g>
</g>
<!-- Node2&#45;&gt;Node3 -->
<g id="edge2" class="edge">
<title>Node2&#45;&gt;Node3</title>
<path fill="none" stroke="midnightblue" d="M775.59,-619.22C692.93,-609.14 522.88,-588.42 435.11,-577.72"/>
<polygon fill="midnightblue" stroke="midnightblue" points="435.43,-574.23 425.08,-576.5 434.59,-581.18 435.43,-574.23"/>
</g>
<!-- Node47 -->
<g id="node42" class="node">
<title>Node47</title>
<g id="a_node42"><a xlink:href="Graph_8hpp.html" target="_top" xlink:title=" ">
<polygon fill="white" stroke="black" points="734,-560.5 734,-579.5 834,-579.5 834,-560.5 734,-560.5"/>
<text text-anchor="middle" x="784" y="-567.5" font-family="Helvetica,sans-Serif" font-size="10.00">Utility/Graph.hpp</text>
</a>
</g>
</g>
<!-- Node2&#45;&gt;Node47 -->
<g id="edge55" class="edge">
<title>Node2&#45;&gt;Node47</title>
<path fill="none" stroke="midnightblue" d="M816.56,-616.08C811.05,-608.46 802.97,-597.26 796.24,-587.94"/>
<polygon fill="midnightblue" stroke="midnightblue" points="799.01,-585.81 790.32,-579.75 793.34,-589.91 799.01,-585.81"/>
</g>
<!-- Node49 -->
<g id="node44" class="node">
<title>Node49</title>
<g id="a_node44"><a xlink:title=" ">
<polygon fill="white" stroke="#bfbfbf" points="878,-504.5 878,-523.5 910,-523.5 910,-504.5 878,-504.5"/>
<text text-anchor="middle" x="894" y="-511.5" font-family="Helvetica,sans-Serif" font-size="10.00">set</text>
</a>
</g>
</g>
<!-- Node2&#45;&gt;Node49 -->
<g id="edge61" class="edge">
<title>Node2&#45;&gt;Node49</title>
<path fill="none" stroke="midnightblue" d="M828.57,-616.37C840.24,-598.3 867.42,-556.18 882.83,-532.31"/>
<polygon fill="midnightblue" stroke="midnightblue" points="885.97,-533.89 888.45,-523.59 880.09,-530.1 885.97,-533.89"/>
</g>
<!-- Node52 -->
<g id="node47" class="node">
<title>Node52</title>
<g id="a_node47"><a xlink:title=" ">
<polygon fill="white" stroke="#bfbfbf" points="890,-560.5 890,-579.5 1006,-579.5 1006,-560.5 890,-560.5"/>
<text text-anchor="middle" x="948" y="-567.5" font-family="Helvetica,sans-Serif" font-size="10.00">impl/Mult_Graph.ipp</text>
</a>
</g>
</g>
<!-- Node2&#45;&gt;Node52 -->
<g id="edge62" class="edge">
<title>Node2&#45;&gt;Node52</title>
<path fill="none" stroke="midnightblue" d="M842.81,-616.44C863.29,-607.6 895.48,-593.69 918.86,-583.59"/>
<polygon fill="midnightblue" stroke="midnightblue" points="920.49,-586.7 928.29,-579.52 917.72,-580.27 920.49,-586.7"/>
</g>
<!-- Node4 -->
<g id="node4" class="node">
<title>Node4</title>
<g id="a_node4"><a xlink:href="OpenMP__Macros_8hpp.html" target="_top" xlink:title="Contains open MP macros if multithreading is desired in this library.">
<polygon fill="white" stroke="black" points="304,-504.5 304,-523.5 456,-523.5 456,-504.5 304,-504.5"/>
<text text-anchor="middle" x="380" y="-511.5" font-family="Helvetica,sans-Serif" font-size="10.00">Utility/OpenMP_Macros.hpp</text>
</a>
</g>
</g>
<!-- Node3&#45;&gt;Node4 -->
<g id="edge3" class="edge">
<title>Node3&#45;&gt;Node4</title>
<path fill="none" stroke="midnightblue" d="M380,-560.08C380,-553.01 380,-542.86 380,-533.99"/>
<polygon fill="midnightblue" stroke="midnightblue" points="383.5,-533.75 380,-523.75 376.5,-533.75 383.5,-533.75"/>
</g>
<!-- Node5 -->
<g id="node5" class="node">
<title>Node5</title>
<g id="a_node5"><a xlink:href="General_8hpp.html" target="_top" xlink:title="Contains general functions and vector overloads independent of everything else.">
<polygon fill="white" stroke="black" points="305.5,-168.5 305.5,-187.5 414.5,-187.5 414.5,-168.5 305.5,-168.5"/>
<text text-anchor="middle" x="360" y="-175.5" font-family="Helvetica,sans-Serif" font-size="10.00">Utility/General.hpp</text>
</a>
</g>
</g>
<!-- Node3&#45;&gt;Node5 -->
<g id="edge4" class="edge">
<title>Node3&#45;&gt;Node5</title>
<path fill="none" stroke="midnightblue" d="M334.92,-565.51C234.26,-556.47 0,-528.02 0,-459 0,-459 0,-459 0,-289 0,-227.97 191.64,-197.44 295.27,-185.39"/>
<polygon fill="midnightblue" stroke="midnightblue" points="295.78,-188.86 305.32,-184.25 294.99,-181.9 295.78,-188.86"/>
</g>
<!-- Node15 -->
<g id="node15" class="node">
<title>Node15</title>
<g id="a_node15"><a xlink:href="Point_8hpp.html" target="_top" xlink:title="Contains the computations for RO(G) homology of a point.">
<polygon fill="white" stroke="black" points="474,-504.5 474,-523.5 574,-523.5 574,-504.5 474,-504.5"/>
<text text-anchor="middle" x="524" y="-511.5" font-family="Helvetica,sans-Serif" font-size="10.00">Spaces/Point.hpp</text>
</a>
</g>
</g>
<!-- Node3&#45;&gt;Node15 -->
<g id="edge14" class="edge">
<title>Node3&#45;&gt;Node15</title>
<path fill="none" stroke="midnightblue" d="M402.82,-560.44C426.83,-551.44 464.83,-537.19 491.87,-527.05"/>
<polygon fill="midnightblue" stroke="midnightblue" points="493.16,-530.3 501.29,-523.52 490.7,-523.75 493.16,-530.3"/>
</g>
<!-- Node46 -->
<g id="node41" class="node">
<title>Node46</title>
<g id="a_node41"><a xlink:title=" ">
<polygon fill="white" stroke="#bfbfbf" points="174,-504.5 174,-523.5 286,-523.5 286,-504.5 174,-504.5"/>
<text text-anchor="middle" x="230" y="-511.5" font-family="Helvetica,sans-Serif" font-size="10.00">impl/Mult_Table.ipp</text>
</a>
</g>
</g>
<!-- Node3&#45;&gt;Node46 -->
<g id="edge54" class="edge">
<title>Node3&#45;&gt;Node46</title>
<path fill="none" stroke="midnightblue" d="M356.23,-560.44C331.11,-551.4 291.29,-537.06 263.1,-526.92"/>
<polygon fill="midnightblue" stroke="midnightblue" points="264.25,-523.61 253.66,-523.52 261.88,-530.2 264.25,-523.61"/>
</g>
<!-- Node6 -->
<g id="node6" class="node">
<title>Node6</title>
<g id="a_node6"><a xlink:title=" ">
<polygon fill="white" stroke="#bfbfbf" points="753.5,-112.5 753.5,-131.5 800.5,-131.5 800.5,-112.5 753.5,-112.5"/>
<text text-anchor="middle" x="777" y="-119.5" font-family="Helvetica,sans-Serif" font-size="10.00">vector</text>
</a>
</g>
</g>
<!-- Node5&#45;&gt;Node6 -->
<g id="edge5" class="edge">
<title>Node5&#45;&gt;Node6</title>
<path fill="none" stroke="midnightblue" d="M414.84,-171.03C506.69,-160.98 686.44,-141.01 743.15,-131.73"/>
<polygon fill="midnightblue" stroke="midnightblue" points="744.08,-135.12 753.31,-129.92 742.85,-128.23 744.08,-135.12"/>
</g>
<!-- Node7 -->
<g id="node7" class="node">
<title>Node7</title>
<g id="a_node7"><a xlink:href="Aliases_8hpp.html" target="_top" xlink:title="Contains general template aliases.">
<polygon fill="white" stroke="black" points="631,-112.5 631,-131.5 735,-131.5 735,-112.5 631,-112.5"/>
<text text-anchor="middle" x="683" y="-119.5" font-family="Helvetica,sans-Serif" font-size="10.00">Types/Aliases.hpp</text>
</a>
</g>
</g>
<!-- Node5&#45;&gt;Node7 -->
<g id="edge6" class="edge">
<title>Node5&#45;&gt;Node7</title>
<path fill="none" stroke="midnightblue" d="M411.18,-168.44C468.47,-158.87 561.24,-143.36 622.19,-133.17"/>
<polygon fill="midnightblue" stroke="midnightblue" points="622.77,-136.62 632.06,-131.52 621.62,-129.71 622.77,-136.62"/>
</g>
<!-- Node12 -->
<g id="node12" class="node">
<title>Node12</title>
<g id="a_node12"><a xlink:title=" ">
<polygon fill="white" stroke="#bfbfbf" points="201,-112.5 201,-131.5 257,-131.5 257,-112.5 201,-112.5"/>
<text text-anchor="middle" x="229" y="-119.5" font-family="Helvetica,sans-Serif" font-size="10.00">numeric</text>
</a>
</g>
</g>
<!-- Node5&#45;&gt;Node12 -->
<g id="edge11" class="edge">
<title>Node5&#45;&gt;Node12</title>
<path fill="none" stroke="midnightblue" d="M339.24,-168.44C317.68,-159.56 283.74,-145.56 259.21,-135.45"/>
<polygon fill="midnightblue" stroke="midnightblue" points="260.24,-132.09 249.66,-131.52 257.57,-138.56 260.24,-132.09"/>
</g>
<!-- Node13 -->
<g id="node13" class="node">
<title>Node13</title>
<g id="a_node13"><a xlink:title=" ">
<polygon fill="white" stroke="#bfbfbf" points="51,-112.5 51,-131.5 111,-131.5 111,-112.5 51,-112.5"/>
<text text-anchor="middle" x="81" y="-119.5" font-family="Helvetica,sans-Serif" font-size="10.00">iostream</text>
</a>
</g>
</g>
<!-- Node5&#45;&gt;Node13 -->
<g id="edge12" class="edge">
<title>Node5&#45;&gt;Node13</title>
<path fill="none" stroke="midnightblue" d="M315.79,-168.44C262.32,-158.09 173.06,-140.82 121.37,-130.81"/>
<polygon fill="midnightblue" stroke="midnightblue" points="121.73,-127.32 111.24,-128.85 120.4,-134.19 121.73,-127.32"/>
</g>
<!-- Node14 -->
<g id="node14" class="node">
<title>Node14</title>
<g id="a_node14"><a xlink:title=" ">
<polygon fill="white" stroke="#bfbfbf" points="311,-112.5 311,-131.5 409,-131.5 409,-112.5 311,-112.5"/>
<text text-anchor="middle" x="360" y="-119.5" font-family="Helvetica,sans-Serif" font-size="10.00">impl/General.ipp</text>
</a>
</g>
</g>
<!-- Node5&#45;&gt;Node14 -->
<g id="edge13" class="edge">
<title>Node5&#45;&gt;Node14</title>
<path fill="none" stroke="midnightblue" d="M360,-168.08C360,-161.01 360,-150.86 360,-141.99"/>
<polygon fill="midnightblue" stroke="midnightblue" points="363.5,-141.75 360,-131.75 356.5,-141.75 363.5,-141.75"/>
</g>
<!-- Node8 -->
<g id="node8" class="node">
<title>Node8</title>
<g id="a_node8"><a xlink:title=" ">
<polygon fill="white" stroke="#bfbfbf" points="597.5,-56.5 597.5,-75.5 674.5,-75.5 674.5,-56.5 597.5,-56.5"/>
<text text-anchor="middle" x="636" y="-63.5" font-family="Helvetica,sans-Serif" font-size="10.00">Eigen/Dense</text>
</a>
</g>
</g>
<!-- Node7&#45;&gt;Node8 -->
<g id="edge7" class="edge">
<title>Node7&#45;&gt;Node8</title>
<path fill="none" stroke="midnightblue" d="M675.24,-112.08C668.46,-104.3 658.46,-92.8 650.24,-83.37"/>
<polygon fill="midnightblue" stroke="midnightblue" points="652.82,-81 643.62,-75.75 647.54,-85.59 652.82,-81"/>
</g>
<!-- Node9 -->
<g id="node9" class="node">
<title>Node9</title>
<g id="a_node9"><a xlink:title=" ">
<polygon fill="white" stroke="#bfbfbf" points="946,-56.5 946,-75.5 1026,-75.5 1026,-56.5 946,-56.5"/>
<text text-anchor="middle" x="986" y="-63.5" font-family="Helvetica,sans-Serif" font-size="10.00">Eigen/Sparse</text>
</a>
</g>
</g>
<!-- Node7&#45;&gt;Node9 -->
<g id="edge8" class="edge">
<title>Node7&#45;&gt;Node9</title>
<path fill="none" stroke="midnightblue" d="M731.01,-112.44C786.94,-102.48 878.9,-86.09 935.76,-75.95"/>
<polygon fill="midnightblue" stroke="midnightblue" points="936.72,-79.34 945.95,-74.14 935.5,-72.45 936.72,-79.34"/>
</g>
<!-- Node10 -->
<g id="node10" class="node">
<title>Node10</title>
<g id="a_node10"><a xlink:href="SFINAE_8hpp.html" target="_top" xlink:title="Contains all the SFINAE tricks.">
<polygon fill="white" stroke="black" points="692.5,-56.5 692.5,-75.5 765.5,-75.5 765.5,-56.5 692.5,-56.5"/>
<text text-anchor="middle" x="729" y="-63.5" font-family="Helvetica,sans-Serif" font-size="10.00">SFINAE.hpp</text>
</a>
</g>
</g>
<!-- Node7&#45;&gt;Node10 -->
<g id="edge9" class="edge">
<title>Node7&#45;&gt;Node10</title>
<path fill="none" stroke="midnightblue" d="M690.6,-112.08C697.23,-104.3 707.02,-92.8 715.06,-83.37"/>
<polygon fill="midnightblue" stroke="midnightblue" points="717.73,-85.63 721.55,-75.75 712.4,-81.09 717.73,-85.63"/>
</g>
<!-- Node11 -->
<g id="node11" class="node">
<title>Node11</title>
<g id="a_node11"><a xlink:title=" ">
<polygon fill="white" stroke="#bfbfbf" points="694.5,-0.5 694.5,-19.5 763.5,-19.5 763.5,-0.5 694.5,-0.5"/>
<text text-anchor="middle" x="729" y="-7.5" font-family="Helvetica,sans-Serif" font-size="10.00">type_traits</text>
</a>
</g>
</g>
<!-- Node10&#45;&gt;Node11 -->
<g id="edge10" class="edge">
<title>Node10&#45;&gt;Node11</title>
<path fill="none" stroke="midnightblue" d="M729,-56.08C729,-49.01 729,-38.86 729,-29.99"/>
<polygon fill="midnightblue" stroke="midnightblue" points="732.5,-29.75 729,-19.75 725.5,-29.75 732.5,-29.75"/>
</g>
<!-- Node16 -->
<g id="node16" class="node">
<title>Node16</title>
<g id="a_node16"><a xlink:href="Massey_8hpp.html" target="_top" xlink:title="Contains the class and methods for Massey Products.">
<polygon fill="white" stroke="black" points="363.5,-448.5 363.5,-467.5 482.5,-467.5 482.5,-448.5 363.5,-448.5"/>
<text text-anchor="middle" x="423" y="-455.5" font-family="Helvetica,sans-Serif" font-size="10.00">Products/Massey.hpp</text>
</a>
</g>
</g>
<!-- Node15&#45;&gt;Node16 -->
<g id="edge15" class="edge">
<title>Node15&#45;&gt;Node16</title>
<path fill="none" stroke="midnightblue" d="M507.77,-504.32C491.65,-495.7 466.7,-482.36 448.04,-472.39"/>
<polygon fill="midnightblue" stroke="midnightblue" points="449.66,-469.28 439.19,-467.65 446.36,-475.46 449.66,-469.28"/>
</g>
<!-- Node43 -->
<g id="node38" class="node">
<title>Node43</title>
<g id="a_node38"><a xlink:href="Morse_8hpp.html" target="_top" xlink:title="Contains classes for (equivariant) Algebraic Morse Theory.">
<polygon fill="white" stroke="black" points="918,-224.5 918,-243.5 1076,-243.5 1076,-224.5 918,-224.5"/>
<text text-anchor="middle" x="997" y="-231.5" font-family="Helvetica,sans-Serif" font-size="10.00">Chain_Complexes/Morse.hpp</text>
</a>
</g>
</g>
<!-- Node15&#45;&gt;Node43 -->
<g id="edge49" class="edge">
<title>Node15&#45;&gt;Node43</title>
<path fill="none" stroke="midnightblue" d="M538.67,-504.38C606.54,-464.49 890.21,-297.77 973.75,-248.66"/>
<polygon fill="midnightblue" stroke="midnightblue" points="975.65,-251.61 982.5,-243.52 972.1,-245.57 975.65,-251.61"/>
</g>
<!-- Node45 -->
<g id="node40" class="node">
<title>Node45</title>
<g id="a_node40"><a xlink:title=" ">
<polygon fill="white" stroke="#bfbfbf" points="501,-448.5 501,-467.5 585,-467.5 585,-448.5 501,-448.5"/>
<text text-anchor="middle" x="543" y="-455.5" font-family="Helvetica,sans-Serif" font-size="10.00">impl/Point.ipp</text>
</a>
</g>
</g>
<!-- Node15&#45;&gt;Node45 -->
<g id="edge53" class="edge">
<title>Node15&#45;&gt;Node45</title>
<path fill="none" stroke="midnightblue" d="M527.14,-504.08C529.68,-496.85 533.36,-486.41 536.53,-477.4"/>
<polygon fill="midnightblue" stroke="midnightblue" points="539.9,-478.35 539.92,-467.75 533.3,-476.02 539.9,-478.35"/>
</g>
<!-- Node17 -->
<g id="node17" class="node">
<title>Node17</title>
<g id="a_node17"><a xlink:href="Green_8hpp.html" target="_top" xlink:title="Contains the class and methods for multiplying generators.">
<polygon fill="white" stroke="black" points="427.5,-392.5 427.5,-411.5 494.5,-411.5 494.5,-392.5 427.5,-392.5"/>
<text text-anchor="middle" x="461" y="-399.5" font-family="Helvetica,sans-Serif" font-size="10.00">Green.hpp</text>
</a>
</g>
</g>
<!-- Node16&#45;&gt;Node17 -->
<g id="edge16" class="edge">
<title>Node16&#45;&gt;Node17</title>
<path fill="none" stroke="midnightblue" d="M429.27,-448.08C434.64,-440.46 442.52,-429.26 449.08,-419.94"/>
<polygon fill="midnightblue" stroke="midnightblue" points="451.95,-421.94 454.84,-411.75 446.22,-417.91 451.95,-421.94"/>
</g>
<!-- Node42 -->
<g id="node37" class="node">
<title>Node42</title>
<g id="a_node37"><a xlink:title=" ">
<polygon fill="white" stroke="#bfbfbf" points="314.5,-392.5 314.5,-411.5 409.5,-411.5 409.5,-392.5 314.5,-392.5"/>
<text text-anchor="middle" x="362" y="-399.5" font-family="Helvetica,sans-Serif" font-size="10.00">impl/Massey.ipp</text>
</a>
</g>
</g>
<!-- Node16&#45;&gt;Node42 -->
<g id="edge48" class="edge">
<title>Node16&#45;&gt;Node42</title>
<path fill="none" stroke="midnightblue" d="M413.2,-448.32C404.18,-440.34 390.59,-428.31 379.68,-418.65"/>
<polygon fill="midnightblue" stroke="midnightblue" points="381.79,-415.84 371.98,-411.83 377.15,-421.08 381.79,-415.84"/>
</g>
<!-- Node18 -->
<g id="node18" class="node">
<title>Node18</title>
<g id="a_node18"><a xlink:href="Levels_8hpp.html" target="_top" xlink:title="Contains the methods for transfering, restricting and act&#45;group&#45;acting.">
<polygon fill="white" stroke="black" points="543,-336.5 543,-355.5 699,-355.5 699,-336.5 543,-336.5"/>
<text text-anchor="middle" x="621" y="-343.5" font-family="Helvetica,sans-Serif" font-size="10.00">Mackey_Functors/Levels.hpp</text>
</a>
</g>
</g>
<!-- Node17&#45;&gt;Node18 -->
<g id="edge17" class="edge">
<title>Node17&#45;&gt;Node18</title>
<path fill="none" stroke="midnightblue" d="M486.35,-392.44C513.27,-383.36 556,-368.94 586.09,-358.78"/>
<polygon fill="midnightblue" stroke="midnightblue" points="587.41,-362.03 595.77,-355.52 585.17,-355.4 587.41,-362.03"/>
</g>
<!-- Node29 -->
<g id="node27" class="node">
<title>Node29</title>
<g id="a_node27"><a xlink:href="Identify_8hpp.html" target="_top" xlink:title="Contains the identification classes.">
<polygon fill="white" stroke="black" points="180,-336.5 180,-355.5 340,-355.5 340,-336.5 180,-336.5"/>
<text text-anchor="middle" x="260" y="-343.5" font-family="Helvetica,sans-Serif" font-size="10.00">Mackey_Functors/Identify.hpp</text>
</a>
</g>
</g>
<!-- Node17&#45;&gt;Node29 -->
<g id="edge31" class="edge">
<title>Node17&#45;&gt;Node29</title>
<path fill="none" stroke="midnightblue" d="M429.15,-392.44C394.6,-383.16 339.32,-368.31 301.42,-358.13"/>
<polygon fill="midnightblue" stroke="midnightblue" points="302.27,-354.73 291.7,-355.52 300.45,-361.49 302.27,-354.73"/>
</g>
<!-- Node34 -->
<g id="node32" class="node">
<title>Node34</title>
<g id="a_node32"><a xlink:href="Box_8hpp.html" target="_top" xlink:title="Contains the construction of box products of Chains.">
<polygon fill="white" stroke="black" points="446,-224.5 446,-243.5 592,-243.5 592,-224.5 446,-224.5"/>
<text text-anchor="middle" x="519" y="-231.5" font-family="Helvetica,sans-Serif" font-size="10.00">Chain_Complexes/Box.hpp</text>
</a>
</g>
</g>
<!-- Node17&#45;&gt;Node34 -->
<g id="edge40" class="edge">
<title>Node17&#45;&gt;Node34</title>
<path fill="none" stroke="midnightblue" d="M450.69,-392.16C437.86,-380.02 418.51,-357.28 426,-336 439.19,-298.52 474.64,-267.02 497.76,-249.61"/>
<polygon fill="midnightblue" stroke="midnightblue" points="499.93,-252.36 505.95,-243.65 495.81,-246.71 499.93,-252.36"/>
</g>
<!-- Node41 -->
<g id="node36" class="node">
<title>Node41</title>
<g id="a_node36"><a xlink:title=" ">
<polygon fill="white" stroke="#bfbfbf" points="435.5,-336.5 435.5,-355.5 524.5,-355.5 524.5,-336.5 435.5,-336.5"/>
<text text-anchor="middle" x="480" y="-343.5" font-family="Helvetica,sans-Serif" font-size="10.00">impl/Green.ipp</text>
</a>
</g>
</g>
<!-- Node17&#45;&gt;Node41 -->
<g id="edge47" class="edge">
<title>Node17&#45;&gt;Node41</title>
<path fill="none" stroke="midnightblue" d="M464.14,-392.08C466.68,-384.85 470.36,-374.41 473.53,-365.4"/>
<polygon fill="midnightblue" stroke="midnightblue" points="476.9,-366.35 476.92,-355.75 470.3,-364.02 476.9,-366.35"/>
</g>
<!-- Node19 -->
<g id="node19" class="node">
<title>Node19</title>
<g id="a_node19"><a xlink:href="Homology_8hpp.html" target="_top" xlink:title="Contains the Homology class and algorithms.">
<polygon fill="white" stroke="black" points="480,-280.5 480,-299.5 620,-299.5 620,-280.5 480,-280.5"/>
<text text-anchor="middle" x="550" y="-287.5" font-family="Helvetica,sans-Serif" font-size="10.00">Homology/Homology.hpp</text>
</a>
</g>
</g>
<!-- Node18&#45;&gt;Node19 -->
<g id="edge18" class="edge">
<title>Node18&#45;&gt;Node19</title>
<path fill="none" stroke="midnightblue" d="M609.59,-336.32C598.89,-328.18 582.66,-315.84 569.84,-306.09"/>
<polygon fill="midnightblue" stroke="midnightblue" points="571.69,-303.1 561.61,-299.83 567.46,-308.67 571.69,-303.1"/>
</g>
<!-- Node28 -->
<g id="node26" class="node">
<title>Node28</title>
<g id="a_node26"><a xlink:title=" ">
<polygon fill="white" stroke="#bfbfbf" points="638.5,-280.5 638.5,-299.5 729.5,-299.5 729.5,-280.5 638.5,-280.5"/>
<text text-anchor="middle" x="684" y="-287.5" font-family="Helvetica,sans-Serif" font-size="10.00">impl/Levels.ipp</text>
</a>
</g>
</g>
<!-- Node18&#45;&gt;Node28 -->
<g id="edge30" class="edge">
<title>Node18&#45;&gt;Node28</title>
<path fill="none" stroke="midnightblue" d="M631.12,-336.32C640.53,-328.26 654.74,-316.08 666.07,-306.37"/>
<polygon fill="midnightblue" stroke="midnightblue" points="668.38,-309 673.69,-299.83 663.82,-303.68 668.38,-309"/>
</g>
<!-- Node19&#45;&gt;Node5 -->
<g id="edge23" class="edge">
<title>Node19&#45;&gt;Node5</title>
<path fill="none" stroke="midnightblue" d="M521.42,-280.47C497.84,-272.77 463.99,-260.18 437,-244 413.71,-230.04 390.35,-209.1 375.57,-194.79"/>
<polygon fill="midnightblue" stroke="midnightblue" points="377.87,-192.14 368.29,-187.61 372.95,-197.12 377.87,-192.14"/>
</g>
<!-- Node20 -->
<g id="node20" class="node">
<title>Node20</title>
<g id="a_node20"><a xlink:href="Chains_8hpp.html" target="_top" xlink:title="Contains Chains and Junction classes for using chain complexes.">
<polygon fill="white" stroke="black" points="805.5,-168.5 805.5,-187.5 966.5,-187.5 966.5,-168.5 805.5,-168.5"/>
<text text-anchor="middle" x="886" y="-175.5" font-family="Helvetica,sans-Serif" font-size="10.00">Chain_Complexes/Chains.hpp</text>
</a>
</g>
</g>
<!-- Node19&#45;&gt;Node20 -->
<g id="edge19" class="edge">
<title>Node19&#45;&gt;Node20</title>
<path fill="none" stroke="midnightblue" d="M598.99,-280.47C638.68,-272.89 695.73,-260.46 744,-244 786.24,-229.6 832.86,-206.85 860.77,-192.43"/>
<polygon fill="midnightblue" stroke="midnightblue" points="862.58,-195.44 869.83,-187.71 859.34,-189.23 862.58,-195.44"/>
</g>
<!-- Node23 -->
<g id="node23" class="node">
<title>Node23</title>
<g id="a_node23"><a xlink:href="Smith_8hpp.html" target="_top" xlink:title="Contains the base class for all Smith implementations.">
<polygon fill="white" stroke="red" points="683,-168.5 683,-187.5 749,-187.5 749,-168.5 683,-168.5"/>
<text text-anchor="middle" x="716" y="-175.5" font-family="Helvetica,sans-Serif" font-size="10.00">Smith.hpp</text>
</a>
</g>
</g>
<!-- Node19&#45;&gt;Node23 -->
<g id="edge24" class="edge">
<title>Node19&#45;&gt;Node23</title>
<path fill="none" stroke="midnightblue" d="M617.7,-280.45C661.72,-273.34 713.38,-261.52 727,-244 737.4,-230.62 732.09,-210.98 725.77,-196.79"/>
<polygon fill="midnightblue" stroke="midnightblue" points="728.78,-194.98 721.19,-187.59 722.51,-198.1 728.78,-194.98"/>
</g>
<!-- Node25 -->
<g id="node24" class="node">
<title>Node25</title>
<g id="a_node24"><a xlink:href="Abelian_8hpp.html" target="_top" xlink:title="Contains the methods for finding the automorphisms of finitely generated abelian groups.">
<polygon fill="white" stroke="red" points="316,-224.5 316,-243.5 390,-243.5 390,-224.5 316,-224.5"/>
<text text-anchor="middle" x="353" y="-231.5" font-family="Helvetica,sans-Serif" font-size="10.00">Abelian.hpp</text>
</a>
</g>
</g>
<!-- Node19&#45;&gt;Node25 -->
<g id="edge27" class="edge">
<title>Node19&#45;&gt;Node25</title>
<path fill="none" stroke="midnightblue" d="M518.78,-280.44C485.07,-271.2 431.2,-256.44 394.07,-246.26"/>
<polygon fill="midnightblue" stroke="midnightblue" points="394.64,-242.78 384.07,-243.52 392.79,-249.54 394.64,-242.78"/>
</g>
<!-- Node27 -->
<g id="node25" class="node">
<title>Node27</title>
<g id="a_node25"><a xlink:title=" ">
<polygon fill="white" stroke="#bfbfbf" points="610,-224.5 610,-243.5 718,-243.5 718,-224.5 610,-224.5"/>
<text text-anchor="middle" x="664" y="-231.5" font-family="Helvetica,sans-Serif" font-size="10.00">impl/Homology.ipp</text>
</a>
</g>
</g>
<!-- Node19&#45;&gt;Node27 -->
<g id="edge29" class="edge">
<title>Node19&#45;&gt;Node27</title>
<path fill="none" stroke="midnightblue" d="M568.06,-280.44C586.57,-271.68 615.58,-257.94 636.86,-247.86"/>
<polygon fill="midnightblue" stroke="midnightblue" points="638.48,-250.96 646.02,-243.52 635.49,-244.63 638.48,-250.96"/>
</g>
<!-- Node20&#45;&gt;Node6 -->
<g id="edge20" class="edge">
<title>Node20&#45;&gt;Node6</title>
<path fill="none" stroke="midnightblue" d="M868.49,-168.32C850.93,-159.62 823.67,-146.12 803.47,-136.11"/>
<polygon fill="midnightblue" stroke="midnightblue" points="804.98,-132.96 794.47,-131.65 801.88,-139.23 804.98,-132.96"/>
</g>
<!-- Node21 -->
<g id="node21" class="node">
<title>Node21</title>
<g id="a_node21"><a xlink:title=" ">
<polygon fill="white" stroke="#bfbfbf" points="940.5,-112.5 940.5,-131.5 997.5,-131.5 997.5,-112.5 940.5,-112.5"/>
<text text-anchor="middle" x="969" y="-119.5" font-family="Helvetica,sans-Serif" font-size="10.00">ostream</text>
</a>
</g>
</g>
<!-- Node20&#45;&gt;Node21 -->
<g id="edge21" class="edge">
<title>Node20&#45;&gt;Node21</title>
<path fill="none" stroke="midnightblue" d="M899.34,-168.32C912.16,-159.98 931.78,-147.21 946.94,-137.35"/>
<polygon fill="midnightblue" stroke="midnightblue" points="949.22,-140.04 955.7,-131.65 945.41,-134.17 949.22,-140.04"/>
</g>
<!-- Node22 -->
<g id="node22" class="node">
<title>Node22</title>
<g id="a_node22"><a xlink:title=" ">
<polygon fill="white" stroke="#bfbfbf" points="830,-112.5 830,-131.5 922,-131.5 922,-112.5 830,-112.5"/>
<text text-anchor="middle" x="876" y="-119.5" font-family="Helvetica,sans-Serif" font-size="10.00">impl/Chains.ipp</text>
</a>
</g>
</g>
<!-- Node20&#45;&gt;Node22 -->
<g id="edge22" class="edge">
<title>Node20&#45;&gt;Node22</title>
<path fill="none" stroke="midnightblue" d="M884.35,-168.08C883.02,-160.93 881.12,-150.64 879.46,-141.69"/>
<polygon fill="midnightblue" stroke="midnightblue" points="882.88,-140.95 877.62,-131.75 876,-142.22 882.88,-140.95"/>
</g>
<!-- Node23&#45;&gt;Node6 -->
<g id="edge25" class="edge">
<title>Node23&#45;&gt;Node6</title>
<path fill="none" stroke="midnightblue" d="M725.8,-168.32C734.82,-160.34 748.41,-148.31 759.32,-138.65"/>
<polygon fill="midnightblue" stroke="midnightblue" points="761.85,-141.08 767.02,-131.83 757.21,-135.84 761.85,-141.08"/>
</g>
<!-- Node23&#45;&gt;Node7 -->
<g id="edge26" class="edge">
<title>Node23&#45;&gt;Node7</title>
<path fill="none" stroke="midnightblue" d="M710.55,-168.08C705.99,-160.61 699.33,-149.72 693.71,-140.52"/>
<polygon fill="midnightblue" stroke="midnightblue" points="696.55,-138.46 688.35,-131.75 690.58,-142.11 696.55,-138.46"/>
</g>
<!-- Node25&#45;&gt;Node5 -->
<g id="edge28" class="edge">
<title>Node25&#45;&gt;Node5</title>
<path fill="none" stroke="midnightblue" d="M354.16,-224.08C355.08,-216.93 356.42,-206.64 357.58,-197.69"/>
<polygon fill="midnightblue" stroke="midnightblue" points="361.05,-198.12 358.87,-187.75 354.11,-197.22 361.05,-198.12"/>
</g>
<!-- Node29&#45;&gt;Node19 -->
<g id="edge32" class="edge">
<title>Node29&#45;&gt;Node19</title>
<path fill="none" stroke="midnightblue" d="M305.95,-336.44C357.07,-326.92 439.65,-311.55 494.38,-301.36"/>
<polygon fill="midnightblue" stroke="midnightblue" points="495.07,-304.79 504.26,-299.52 493.79,-297.91 495.07,-304.79"/>
</g>
<!-- Node30 -->
<g id="node28" class="node">
<title>Node30</title>
<g id="a_node28"><a xlink:href="MackeyFunctor_8hpp.html" target="_top" xlink:title="Contains the class describing Mackey Functors.">
<polygon fill="white" stroke="black" points="141.5,-280.5 141.5,-299.5 338.5,-299.5 338.5,-280.5 141.5,-280.5"/>
<text text-anchor="middle" x="240" y="-287.5" font-family="Helvetica,sans-Serif" font-size="10.00">Mackey_Functors/MackeyFunctor.hpp</text>
</a>
</g>
</g>
<!-- Node29&#45;&gt;Node30 -->
<g id="edge33" class="edge">
<title>Node29&#45;&gt;Node30</title>
<path fill="none" stroke="midnightblue" d="M256.7,-336.08C254.02,-328.85 250.15,-318.41 246.81,-309.4"/>
<polygon fill="midnightblue" stroke="midnightblue" points="250,-307.91 243.24,-299.75 243.43,-310.34 250,-307.91"/>
</g>
<!-- Node33 -->
<g id="node31" class="node">
<title>Node33</title>
<g id="a_node31"><a xlink:title=" ">
<polygon fill="white" stroke="#bfbfbf" points="28.5,-280.5 28.5,-299.5 123.5,-299.5 123.5,-280.5 28.5,-280.5"/>
<text text-anchor="middle" x="76" y="-287.5" font-family="Helvetica,sans-Serif" font-size="10.00">impl/Identify.ipp</text>
</a>
</g>
</g>
<!-- Node29&#45;&gt;Node33 -->
<g id="edge39" class="edge">
<title>Node29&#45;&gt;Node33</title>
<path fill="none" stroke="midnightblue" d="M230.84,-336.44C199.49,-327.24 149.47,-312.56 114.8,-302.39"/>
<polygon fill="midnightblue" stroke="midnightblue" points="115.6,-298.97 105.02,-299.52 113.63,-305.69 115.6,-298.97"/>
</g>
<!-- Node30&#45;&gt;Node12 -->
<g id="edge36" class="edge">
<title>Node30&#45;&gt;Node12</title>
<path fill="none" stroke="midnightblue" d="M152.4,-280.42C130.19,-273.83 108.76,-262.67 95,-244 60.75,-197.51 145.18,-155.27 195.22,-135.24"/>
<polygon fill="midnightblue" stroke="midnightblue" points="196.68,-138.43 204.73,-131.53 194.14,-131.91 196.68,-138.43"/>
</g>
<!-- Node30&#45;&gt;Node13 -->
<g id="edge35" class="edge">
<title>Node30&#45;&gt;Node13</title>
<path fill="none" stroke="midnightblue" d="M186.53,-280.47C146.56,-272.89 96.7,-260.46 84,-244 61.08,-214.31 68.66,-167.19 75.36,-141.39"/>
<polygon fill="midnightblue" stroke="midnightblue" points="78.73,-142.32 78.08,-131.75 71.99,-140.42 78.73,-142.32"/>
</g>
<!-- Node30&#45;&gt;Node25 -->
<g id="edge37" class="edge">
<title>Node30&#45;&gt;Node25</title>
<path fill="none" stroke="midnightblue" d="M257.91,-280.44C276.25,-271.68 305.01,-257.94 326.09,-247.86"/>
<polygon fill="midnightblue" stroke="midnightblue" points="327.67,-250.99 335.18,-243.52 324.65,-244.67 327.67,-250.99"/>
</g>
<!-- Node31 -->
<g id="node29" class="node">
<title>Node31</title>
<g id="a_node29"><a xlink:title=" ">
<polygon fill="white" stroke="#bfbfbf" points="104,-224.5 104,-243.5 148,-243.5 148,-224.5 104,-224.5"/>
<text text-anchor="middle" x="126" y="-231.5" font-family="Helvetica,sans-Serif" font-size="10.00">string</text>
</a>
</g>
</g>
<!-- Node30&#45;&gt;Node31 -->
<g id="edge34" class="edge">
<title>Node30&#45;&gt;Node31</title>
<path fill="none" stroke="midnightblue" d="M221.94,-280.44C203.43,-271.68 174.42,-257.94 153.14,-247.86"/>
<polygon fill="midnightblue" stroke="midnightblue" points="154.51,-244.63 143.98,-243.52 151.52,-250.96 154.51,-244.63"/>
</g>
<!-- Node32 -->
<g id="node30" class="node">
<title>Node32</title>
<g id="a_node30"><a xlink:title=" ">
<polygon fill="white" stroke="#bfbfbf" points="166,-224.5 166,-243.5 298,-243.5 298,-224.5 166,-224.5"/>
<text text-anchor="middle" x="232" y="-231.5" font-family="Helvetica,sans-Serif" font-size="10.00">impl/MackeyFunctor.ipp</text>
</a>
</g>
</g>
<!-- Node30&#45;&gt;Node32 -->
<g id="edge38" class="edge">
<title>Node30&#45;&gt;Node32</title>
<path fill="none" stroke="midnightblue" d="M238.68,-280.08C237.62,-272.93 236.09,-262.64 234.77,-253.69"/>
<polygon fill="midnightblue" stroke="midnightblue" points="238.22,-253.13 233.3,-243.75 231.3,-254.16 238.22,-253.13"/>
</g>
<!-- Node34&#45;&gt;Node5 -->
<g id="edge41" class="edge">
<title>Node34&#45;&gt;Node5</title>
<path fill="none" stroke="midnightblue" d="M493.81,-224.44C467.06,-215.36 424.6,-200.94 394.69,-190.78"/>
<polygon fill="midnightblue" stroke="midnightblue" points="395.67,-187.42 385.08,-187.52 393.42,-194.05 395.67,-187.42"/>
</g>
<!-- Node34&#45;&gt;Node20 -->
<g id="edge42" class="edge">
<title>Node34&#45;&gt;Node20</title>
<path fill="none" stroke="midnightblue" d="M577.15,-224.44C642.65,-214.81 748.96,-199.16 818.19,-188.98"/>
<polygon fill="midnightblue" stroke="midnightblue" points="818.74,-192.43 828.12,-187.52 817.72,-185.51 818.74,-192.43"/>
</g>
<!-- Node35 -->
<g id="node33" class="node">
<title>Node35</title>
<g id="a_node33"><a xlink:href="ChangeBasis_8hpp.html" target="_top" xlink:title="Contains the construction of the change of basis matrices.">
<polygon fill="white" stroke="red" points="553.5,-168.5 553.5,-187.5 654.5,-187.5 654.5,-168.5 553.5,-168.5"/>
<text text-anchor="middle" x="604" y="-175.5" font-family="Helvetica,sans-Serif" font-size="10.00">ChangeBasis.hpp</text>
</a>
</g>
</g>
<!-- Node34&#45;&gt;Node35 -->
<g id="edge43" class="edge">
<title>Node34&#45;&gt;Node35</title>
<path fill="none" stroke="midnightblue" d="M532.66,-224.32C545.92,-215.9 566.27,-202.97 581.85,-193.07"/>
<polygon fill="midnightblue" stroke="midnightblue" points="583.81,-195.97 590.38,-187.65 580.06,-190.06 583.81,-195.97"/>
</g>
<!-- Node40 -->
<g id="node35" class="node">
<title>Node40</title>
<g id="a_node35"><a xlink:title=" ">
<polygon fill="white" stroke="#bfbfbf" points="457,-168.5 457,-187.5 535,-187.5 535,-168.5 457,-168.5"/>
<text text-anchor="middle" x="496" y="-175.5" font-family="Helvetica,sans-Serif" font-size="10.00">impl/Box.ipp</text>
</a>
</g>
</g>
<!-- Node34&#45;&gt;Node40 -->
<g id="edge46" class="edge">
<title>Node34&#45;&gt;Node40</title>
<path fill="none" stroke="midnightblue" d="M515.2,-224.08C512.09,-216.77 507.58,-206.18 503.71,-197.1"/>
<polygon fill="midnightblue" stroke="midnightblue" points="506.87,-195.58 499.73,-187.75 500.43,-198.32 506.87,-195.58"/>
</g>
<!-- Node35&#45;&gt;Node6 -->
<g id="edge44" class="edge">
<title>Node35&#45;&gt;Node6</title>
<path fill="none" stroke="midnightblue" d="M631.41,-168.44C661.89,-158.93 711.12,-143.56 743.77,-133.37"/>
<polygon fill="midnightblue" stroke="midnightblue" points="744.83,-136.71 753.33,-130.39 742.74,-130.03 744.83,-136.71"/>
</g>
<!-- Node36 -->
<g id="node34" class="node">
<title>Node36</title>
<g id="a_node34"><a xlink:title=" ">
<polygon fill="white" stroke="#bfbfbf" points="575,-112.5 575,-131.5 613,-131.5 613,-112.5 575,-112.5"/>
<text text-anchor="middle" x="594" y="-119.5" font-family="Helvetica,sans-Serif" font-size="10.00">map</text>
</a>
</g>
</g>
<!-- Node35&#45;&gt;Node36 -->
<g id="edge45" class="edge">
<title>Node35&#45;&gt;Node36</title>
<path fill="none" stroke="midnightblue" d="M602.35,-168.08C601.02,-160.93 599.12,-150.64 597.46,-141.69"/>
<polygon fill="midnightblue" stroke="midnightblue" points="600.88,-140.95 595.62,-131.75 594,-142.22 600.88,-140.95"/>
</g>
<!-- Node43&#45;&gt;Node9 -->
<g id="edge51" class="edge">
<title>Node43&#45;&gt;Node9</title>
<path fill="none" stroke="midnightblue" d="M1031.18,-224.49C1049.99,-217.88 1071.74,-206.6 1083,-188 1087.6,-180.4 1086.32,-176.25 1083,-168 1067.87,-130.4 1031.31,-98.94 1007.65,-81.57"/>
<polygon fill="midnightblue" stroke="midnightblue" points="1009.46,-78.56 999.28,-75.62 1005.4,-84.27 1009.46,-78.56"/>
</g>
<!-- Node43&#45;&gt;Node20 -->
<g id="edge50" class="edge">
<title>Node43&#45;&gt;Node20</title>
<path fill="none" stroke="midnightblue" d="M979.17,-224.32C961.28,-215.62 933.52,-202.12 912.95,-192.11"/>
<polygon fill="midnightblue" stroke="midnightblue" points="914.31,-188.88 903.79,-187.65 911.25,-195.18 914.31,-188.88"/>
</g>
<!-- Node44 -->
<g id="node39" class="node">
<title>Node44</title>
<g id="a_node39"><a xlink:title=" ">
<polygon fill="white" stroke="#bfbfbf" points="984.5,-168.5 984.5,-187.5 1073.5,-187.5 1073.5,-168.5 984.5,-168.5"/>
<text text-anchor="middle" x="1029" y="-175.5" font-family="Helvetica,sans-Serif" font-size="10.00">impl/Morse.ipp</text>
</a>
</g>
</g>
<!-- Node43&#45;&gt;Node44 -->
<g id="edge52" class="edge">
<title>Node43&#45;&gt;Node44</title>
<path fill="none" stroke="midnightblue" d="M1002.28,-224.08C1006.71,-216.61 1013.16,-205.72 1018.62,-196.52"/>
<polygon fill="midnightblue" stroke="midnightblue" points="1021.73,-198.14 1023.81,-187.75 1015.71,-194.57 1021.73,-198.14"/>
</g>
<!-- Node47&#45;&gt;Node6 -->
<g id="edge56" class="edge">
<title>Node47&#45;&gt;Node6</title>
<path fill="none" stroke="midnightblue" d="M784,-560.44C784,-541.94 784,-496.81 784,-459 784,-459 784,-459 784,-289 784,-235.54 780.33,-172.49 778.31,-141.75"/>
<polygon fill="midnightblue" stroke="midnightblue" points="781.79,-141.38 777.62,-131.64 774.8,-141.85 781.79,-141.38"/>
</g>
<!-- Node48 -->
<g id="node43" class="node">
<title>Node48</title>
<g id="a_node43"><a xlink:title=" ">
<polygon fill="white" stroke="#bfbfbf" points="812.5,-504.5 812.5,-523.5 859.5,-523.5 859.5,-504.5 812.5,-504.5"/>
<text text-anchor="middle" x="836" y="-511.5" font-family="Helvetica,sans-Serif" font-size="10.00">queue</text>
</a>
</g>
</g>
<!-- Node47&#45;&gt;Node48 -->
<g id="edge57" class="edge">
<title>Node47&#45;&gt;Node48</title>
<path fill="none" stroke="midnightblue" d="M792.59,-560.08C800.16,-552.22 811.38,-540.57 820.51,-531.08"/>
<polygon fill="midnightblue" stroke="midnightblue" points="823.16,-533.38 827.57,-523.75 818.12,-528.53 823.16,-533.38"/>
</g>
<!-- Node47&#45;&gt;Node49 -->
<g id="edge58" class="edge">
<title>Node47&#45;&gt;Node49</title>
<path fill="none" stroke="midnightblue" d="M801.67,-560.32C819.81,-551.42 848.21,-537.48 868.72,-527.41"/>
<polygon fill="midnightblue" stroke="midnightblue" points="870.37,-530.5 877.8,-522.95 867.29,-524.22 870.37,-530.5"/>
</g>
<!-- Node50 -->
<g id="node45" class="node">
<title>Node50</title>
<g id="a_node45"><a xlink:title=" ">
<polygon fill="white" stroke="#bfbfbf" points="592,-504.5 592,-523.5 648,-523.5 648,-504.5 592,-504.5"/>
<text text-anchor="middle" x="620" y="-511.5" font-family="Helvetica,sans-Serif" font-size="10.00">iomanip</text>
</a>
</g>
</g>
<!-- Node47&#45;&gt;Node50 -->
<g id="edge59" class="edge">
<title>Node47&#45;&gt;Node50</title>
<path fill="none" stroke="midnightblue" d="M758.01,-560.44C730.3,-551.32 686.25,-536.81 655.38,-526.65"/>
<polygon fill="midnightblue" stroke="midnightblue" points="656.46,-523.32 645.86,-523.52 654.27,-529.97 656.46,-523.32"/>
</g>
<!-- Node51 -->
<g id="node46" class="node">
<title>Node51</title>
<g id="a_node46"><a xlink:title=" ">
<polygon fill="white" stroke="#bfbfbf" points="666.5,-504.5 666.5,-523.5 755.5,-523.5 755.5,-504.5 666.5,-504.5"/>
<text text-anchor="middle" x="711" y="-511.5" font-family="Helvetica,sans-Serif" font-size="10.00">impl/Graph.ipp</text>
</a>
</g>
</g>
<!-- Node47&#45;&gt;Node51 -->
<g id="edge60" class="edge">
<title>Node47&#45;&gt;Node51</title>
<path fill="none" stroke="midnightblue" d="M772.27,-560.32C761.16,-552.11 744.26,-539.6 731.02,-529.81"/>
<polygon fill="midnightblue" stroke="midnightblue" points="733.06,-526.97 722.94,-523.83 728.9,-532.59 733.06,-526.97"/>
</g>
<!-- Node53&#45;&gt;Node2 -->
<g id="edge64" class="edge">
<title>Node53&#45;&gt;Node2</title>
<path fill="none" stroke="midnightblue" d="M888.47,-672.32C876.41,-663.98 857.97,-651.21 843.73,-641.35"/>
<polygon fill="midnightblue" stroke="midnightblue" points="845.72,-638.47 835.5,-635.65 841.73,-644.22 845.72,-638.47"/>
</g>
<!-- Node54 -->
<g id="node49" class="node">
<title>Node54</title>
<g id="a_node49"><a xlink:title=" ">
<polygon fill="white" stroke="#bfbfbf" points="888,-616.5 888,-635.5 1010,-635.5 1010,-616.5 888,-616.5"/>
<text text-anchor="middle" x="949" y="-623.5" font-family="Helvetica,sans-Serif" font-size="10.00">impl/Mult_Identify.ipp</text>
</a>
</g>
</g>
<!-- Node53&#45;&gt;Node54 -->
<g id="edge65" class="edge">
<title>Node53&#45;&gt;Node54</title>
<path fill="none" stroke="midnightblue" d="M908.93,-672.08C915.85,-664.3 926.07,-652.8 934.45,-643.37"/>
<polygon fill="midnightblue" stroke="midnightblue" points="937.19,-645.55 941.22,-635.75 931.96,-640.9 937.19,-645.55"/>
</g>
</g>
</svg>
