<?xml version="1.0" encoding="UTF-8" standalone="no"?>
<!DOCTYPE svg PUBLIC "-//W3C//DTD SVG 1.1//EN"
 "http://www.w3.org/Graphics/SVG/1.1/DTD/svg11.dtd">
<!-- Generated by graphviz version 2.43.0 (0)
 -->
<!-- Title: Factorization.hpp Pages: 1 -->
<!--zoomable 756 -->
<svg id="main" version="1.1" xmlns="http://www.w3.org/2000/svg" xmlns:xlink="http://www.w3.org/1999/xlink" xml:space="preserve" onload="init(evt)">
<style type="text/css"><![CDATA[
.edge:hover path { stroke: red; }
.edge:hover polygon { stroke: red; fill: red; }
]]></style>
<script type="text/javascript"><![CDATA[
var edges = document.getElementsByTagName('g');
if (edges && edges.length) {
  for (var i=0;i<edges.length;i++) {
    if (edges[i].id.substr(0,4)=='edge') {
      edges[i].setAttribute('class','edge');
    }
  }
}
]]></script>
        <defs>
                <circle id="rim" cx="0" cy="0" r="7"/>
                <circle id="rim2" cx="0" cy="0" r="3.5"/>
                <g id="zoomPlus">
                        <use xlink:href="#rim" fill="#404040">
                                <set attributeName="fill" to="#808080" begin="zoomplus.mouseover" end="zoomplus.mouseout"/>
                        </use>
                        <path d="M-4,0h8M0,-4v8" fill="none" stroke="white" stroke-width="1.5" pointer-events="none"/>
                </g>
                <g id="zoomMin">
                        <use xlink:href="#rim" fill="#404040">
                                <set attributeName="fill" to="#808080" begin="zoomminus.mouseover" end="zoomminus.mouseout"/>
                        </use>
                        <path d="M-4,0h8" fill="none" stroke="white" stroke-width="1.5" pointer-events="none"/>
                </g>
                <g id="dirArrow">
                        <path fill="none" stroke="white" stroke-width="1.5" d="M0,-3.0v7 M-2.5,-0.5L0,-3.0L2.5,-0.5"/>
                </g>
               <g id="resetDef">
                       <use xlink:href="#rim2" fill="#404040">
                               <set attributeName="fill" to="#808080" begin="reset.mouseover" end="reset.mouseout"/>
                       </use>
               </g>
        </defs>

<script type="text/javascript">
var viewWidth = 1220;
var viewHeight = 756;
var sectionId = 'dynsection-0';
</script>
<script xlink:href="svgpan.js"/>
<svg id="graph" class="graph">
<g id="viewport">
<title>Factorization.hpp</title>
<polygon fill="white" stroke="transparent" points="-4,4 -4,-752 1216,-752 1216,4 -4,4"/>
<!-- Node1 -->
<g id="node1" class="node">
<title>Node1</title>
<g id="a_node1"><a xlink:title="Contains the class mackey::Factorization.">
<polygon fill="#bfbfbf" stroke="black" points="1036,-728.5 1036,-747.5 1136,-747.5 1136,-728.5 1036,-728.5"/>
<text text-anchor="middle" x="1086" y="-735.5" font-family="Helvetica,sans-Serif" font-size="10.00">Factorization.hpp</text>
</a>
</g>
</g>
<!-- Node2 -->
<g id="node2" class="node">
<title>Node2</title>
<g id="a_node2"><a xlink:href="Mult__Identify_8hpp.html" target="_top" xlink:title="Contains the class mackey::MultIdentify.">
<polygon fill="white" stroke="black" points="972,-672.5 972,-691.5 1072,-691.5 1072,-672.5 972,-672.5"/>
<text text-anchor="middle" x="1022" y="-679.5" font-family="Helvetica,sans-Serif" font-size="10.00">Mult_Identify.hpp</text>
</a>
</g>
</g>
<!-- Node1&#45;&gt;Node2 -->
<g id="edge1" class="edge">
<title>Node1&#45;&gt;Node2</title>
<path fill="none" stroke="midnightblue" d="M1075.72,-728.32C1066.16,-720.26 1051.72,-708.08 1040.22,-698.37"/>
<polygon fill="midnightblue" stroke="midnightblue" points="1042.37,-695.61 1032.47,-691.83 1037.86,-700.96 1042.37,-695.61"/>
</g>
<!-- Node57 -->
<g id="node50" class="node">
<title>Node57</title>
<g id="a_node50"><a xlink:title=" ">
<polygon fill="white" stroke="#bfbfbf" points="1090,-672.5 1090,-691.5 1212,-691.5 1212,-672.5 1090,-672.5"/>
<text text-anchor="middle" x="1151" y="-679.5" font-family="Helvetica,sans-Serif" font-size="10.00">impl/Factorization.ipp</text>
</a>
</g>
</g>
<!-- Node1&#45;&gt;Node57 -->
<g id="edge64" class="edge">
<title>Node1&#45;&gt;Node57</title>
<path fill="none" stroke="midnightblue" d="M1096.44,-728.32C1106.15,-720.26 1120.82,-708.08 1132.5,-698.37"/>
<polygon fill="midnightblue" stroke="midnightblue" points="1134.91,-700.92 1140.37,-691.83 1130.44,-695.53 1134.91,-700.92"/>
</g>
<!-- Node3 -->
<g id="node3" class="node">
<title>Node3</title>
<g id="a_node3"><a xlink:href="Mult__Graph_8hpp.html" target="_top" xlink:title="Contains the class mackey::MultGraph.">
<polygon fill="white" stroke="black" points="912,-616.5 912,-635.5 1006,-635.5 1006,-616.5 912,-616.5"/>
<text text-anchor="middle" x="959" y="-623.5" font-family="Helvetica,sans-Serif" font-size="10.00">Mult_Graph.hpp</text>
</a>
</g>
</g>
<!-- Node2&#45;&gt;Node3 -->
<g id="edge2" class="edge">
<title>Node2&#45;&gt;Node3</title>
<path fill="none" stroke="midnightblue" d="M1011.88,-672.32C1002.47,-664.26 988.26,-652.08 976.93,-642.37"/>
<polygon fill="midnightblue" stroke="midnightblue" points="979.18,-639.68 969.31,-635.83 974.62,-645 979.18,-639.68"/>
</g>
<!-- Node56 -->
<g id="node49" class="node">
<title>Node56</title>
<g id="a_node49"><a xlink:title=" ">
<polygon fill="white" stroke="#bfbfbf" points="1024,-616.5 1024,-635.5 1146,-635.5 1146,-616.5 1024,-616.5"/>
<text text-anchor="middle" x="1085" y="-623.5" font-family="Helvetica,sans-Serif" font-size="10.00">impl/Mult_Identify.ipp</text>
</a>
</g>
</g>
<!-- Node2&#45;&gt;Node56 -->
<g id="edge63" class="edge">
<title>Node2&#45;&gt;Node56</title>
<path fill="none" stroke="midnightblue" d="M1032.12,-672.32C1041.53,-664.26 1055.74,-652.08 1067.07,-642.37"/>
<polygon fill="midnightblue" stroke="midnightblue" points="1069.38,-645 1074.69,-635.83 1064.82,-639.68 1069.38,-645"/>
</g>
<!-- Node4 -->
<g id="node4" class="node">
<title>Node4</title>
<g id="a_node4"><a xlink:href="Mult__Table_8hpp.html" target="_top" xlink:title="Contains the classes mackey::MultTableData and mackey::MultTable.">
<polygon fill="white" stroke="black" points="636,-560.5 636,-579.5 726,-579.5 726,-560.5 636,-560.5"/>
<text text-anchor="middle" x="681" y="-567.5" font-family="Helvetica,sans-Serif" font-size="10.00">Mult_Table.hpp</text>
</a>
</g>
</g>
<!-- Node3&#45;&gt;Node4 -->
<g id="edge3" class="edge">
<title>Node3&#45;&gt;Node4</title>
<path fill="none" stroke="midnightblue" d="M914.95,-616.44C866.15,-606.96 787.44,-591.67 734.97,-581.48"/>
<polygon fill="midnightblue" stroke="midnightblue" points="735.33,-577.99 724.84,-579.52 733.99,-584.86 735.33,-577.99"/>
</g>
<!-- Node48 -->
<g id="node41" class="node">
<title>Node48</title>
<g id="a_node41"><a xlink:href="Graph__Policies_8hpp.html" target="_top" xlink:title="Contains the classes mackey::bicolored_edge_with_id, mackey::MinLength, mackey::MinColorsLength.">
<polygon fill="white" stroke="black" points="888,-560.5 888,-579.5 1030,-579.5 1030,-560.5 888,-560.5"/>
<text text-anchor="middle" x="959" y="-567.5" font-family="Helvetica,sans-Serif" font-size="10.00">Graph/Graph_Policies.hpp</text>
</a>
</g>
</g>
<!-- Node3&#45;&gt;Node48 -->
<g id="edge54" class="edge">
<title>Node3&#45;&gt;Node48</title>
<path fill="none" stroke="midnightblue" d="M959,-616.08C959,-609.01 959,-598.86 959,-589.99"/>
<polygon fill="midnightblue" stroke="midnightblue" points="962.5,-589.75 959,-579.75 955.5,-589.75 962.5,-589.75"/>
</g>
<!-- Node55 -->
<g id="node48" class="node">
<title>Node55</title>
<g id="a_node48"><a xlink:title=" ">
<polygon fill="white" stroke="#bfbfbf" points="1048,-560.5 1048,-579.5 1164,-579.5 1164,-560.5 1048,-560.5"/>
<text text-anchor="middle" x="1106" y="-567.5" font-family="Helvetica,sans-Serif" font-size="10.00">impl/Mult_Graph.ipp</text>
</a>
</g>
</g>
<!-- Node3&#45;&gt;Node55 -->
<g id="edge62" class="edge">
<title>Node3&#45;&gt;Node55</title>
<path fill="none" stroke="midnightblue" d="M982.29,-616.44C1006.81,-607.44 1045.6,-593.19 1073.2,-583.05"/>
<polygon fill="midnightblue" stroke="midnightblue" points="1074.64,-586.25 1082.82,-579.52 1072.22,-579.68 1074.64,-586.25"/>
</g>
<!-- Node5 -->
<g id="node5" class="node">
<title>Node5</title>
<g id="a_node5"><a xlink:href="OpenMP__Macros_8hpp.html" target="_top" xlink:title="Contains open MP macros that enable and control multithreading.">
<polygon fill="white" stroke="black" points="0,-504.5 0,-523.5 152,-523.5 152,-504.5 0,-504.5"/>
<text text-anchor="middle" x="76" y="-511.5" font-family="Helvetica,sans-Serif" font-size="10.00">Utility/OpenMP_Macros.hpp</text>
</a>
</g>
</g>
<!-- Node4&#45;&gt;Node5 -->
<g id="edge4" class="edge">
<title>Node4&#45;&gt;Node5</title>
<path fill="none" stroke="midnightblue" d="M635.86,-565.25C546.26,-557.75 339.58,-540.26 166,-524 164.72,-523.88 163.44,-523.76 162.15,-523.64"/>
<polygon fill="midnightblue" stroke="midnightblue" points="162.39,-520.14 152.1,-522.68 161.72,-527.11 162.39,-520.14"/>
</g>
<!-- Node6 -->
<g id="node6" class="node">
<title>Node6</title>
<g id="a_node6"><a xlink:href="General_8hpp.html" target="_top" xlink:title="Contains general functions and vector overloads independent of everything else.">
<polygon fill="white" stroke="black" points="389.5,-168.5 389.5,-187.5 498.5,-187.5 498.5,-168.5 389.5,-168.5"/>
<text text-anchor="middle" x="444" y="-175.5" font-family="Helvetica,sans-Serif" font-size="10.00">Utility/General.hpp</text>
</a>
</g>
</g>
<!-- Node4&#45;&gt;Node6 -->
<g id="edge5" class="edge">
<title>Node4&#45;&gt;Node6</title>
<path fill="none" stroke="midnightblue" d="M635.66,-568.63C512.33,-566.42 180,-551.84 180,-459 180,-459 180,-459 180,-289 180,-202.99 300.87,-183.01 379.04,-179.09"/>
<polygon fill="midnightblue" stroke="midnightblue" points="379.46,-182.57 389.3,-178.65 379.16,-175.58 379.46,-182.57"/>
</g>
<!-- Node16 -->
<g id="node16" class="node">
<title>Node16</title>
<g id="a_node16"><a xlink:href="Point_8hpp.html" target="_top" xlink:title="Contains the methods computing the RO(G) homology of a point.">
<polygon fill="white" stroke="black" points="631,-504.5 631,-523.5 731,-523.5 731,-504.5 631,-504.5"/>
<text text-anchor="middle" x="681" y="-511.5" font-family="Helvetica,sans-Serif" font-size="10.00">Spaces/Point.hpp</text>
</a>
</g>
</g>
<!-- Node4&#45;&gt;Node16 -->
<g id="edge15" class="edge">
<title>Node4&#45;&gt;Node16</title>
<path fill="none" stroke="midnightblue" d="M681,-560.08C681,-553.01 681,-542.86 681,-533.99"/>
<polygon fill="midnightblue" stroke="midnightblue" points="684.5,-533.75 681,-523.75 677.5,-533.75 684.5,-533.75"/>
</g>
<!-- Node47 -->
<g id="node40" class="node">
<title>Node47</title>
<g id="a_node40"><a xlink:title=" ">
<polygon fill="white" stroke="#bfbfbf" points="749,-504.5 749,-523.5 861,-523.5 861,-504.5 749,-504.5"/>
<text text-anchor="middle" x="805" y="-511.5" font-family="Helvetica,sans-Serif" font-size="10.00">impl/Mult_Table.ipp</text>
</a>
</g>
</g>
<!-- Node4&#45;&gt;Node47 -->
<g id="edge53" class="edge">
<title>Node4&#45;&gt;Node47</title>
<path fill="none" stroke="midnightblue" d="M700.65,-560.44C720.96,-551.6 752.9,-537.69 776.1,-527.59"/>
<polygon fill="midnightblue" stroke="midnightblue" points="777.67,-530.72 785.44,-523.52 774.88,-524.3 777.67,-530.72"/>
</g>
<!-- Node7 -->
<g id="node7" class="node">
<title>Node7</title>
<g id="a_node7"><a xlink:title=" ">
<polygon fill="white" stroke="#bfbfbf" points="739.5,-112.5 739.5,-131.5 786.5,-131.5 786.5,-112.5 739.5,-112.5"/>
<text text-anchor="middle" x="763" y="-119.5" font-family="Helvetica,sans-Serif" font-size="10.00">vector</text>
</a>
</g>
</g>
<!-- Node6&#45;&gt;Node7 -->
<g id="edge6" class="edge">
<title>Node6&#45;&gt;Node7</title>
<path fill="none" stroke="midnightblue" d="M494.55,-168.44C560.23,-157.32 673.15,-138.21 729.28,-128.71"/>
<polygon fill="midnightblue" stroke="midnightblue" points="730.12,-132.12 739.4,-127 728.96,-125.21 730.12,-132.12"/>
</g>
<!-- Node8 -->
<g id="node8" class="node">
<title>Node8</title>
<g id="a_node8"><a xlink:href="Aliases_8hpp.html" target="_top" xlink:title="Contains general template aliases.">
<polygon fill="white" stroke="black" points="511,-112.5 511,-131.5 615,-131.5 615,-112.5 511,-112.5"/>
<text text-anchor="middle" x="563" y="-119.5" font-family="Helvetica,sans-Serif" font-size="10.00">Types/Aliases.hpp</text>
</a>
</g>
</g>
<!-- Node6&#45;&gt;Node8 -->
<g id="edge7" class="edge">
<title>Node6&#45;&gt;Node8</title>
<path fill="none" stroke="midnightblue" d="M462.86,-168.44C482.27,-159.64 512.73,-145.81 534.96,-135.72"/>
<polygon fill="midnightblue" stroke="midnightblue" points="536.57,-138.84 544.23,-131.52 533.68,-132.46 536.57,-138.84"/>
</g>
<!-- Node13 -->
<g id="node13" class="node">
<title>Node13</title>
<g id="a_node13"><a xlink:title=" ">
<polygon fill="white" stroke="#bfbfbf" points="242,-112.5 242,-131.5 298,-131.5 298,-112.5 242,-112.5"/>
<text text-anchor="middle" x="270" y="-119.5" font-family="Helvetica,sans-Serif" font-size="10.00">numeric</text>
</a>
</g>
</g>
<!-- Node6&#45;&gt;Node13 -->
<g id="edge12" class="edge">
<title>Node6&#45;&gt;Node13</title>
<path fill="none" stroke="midnightblue" d="M416.43,-168.44C386.9,-159.28 339.88,-144.69 307.12,-134.52"/>
<polygon fill="midnightblue" stroke="midnightblue" points="308.03,-131.14 297.44,-131.52 305.96,-137.82 308.03,-131.14"/>
</g>
<!-- Node14 -->
<g id="node14" class="node">
<title>Node14</title>
<g id="a_node14"><a xlink:title=" ">
<polygon fill="white" stroke="#bfbfbf" points="317,-112.5 317,-131.5 377,-131.5 377,-112.5 317,-112.5"/>
<text text-anchor="middle" x="347" y="-119.5" font-family="Helvetica,sans-Serif" font-size="10.00">iostream</text>
</a>
</g>
</g>
<!-- Node6&#45;&gt;Node14 -->
<g id="edge13" class="edge">
<title>Node6&#45;&gt;Node14</title>
<path fill="none" stroke="midnightblue" d="M428.42,-168.32C413,-159.74 389.19,-146.49 371.29,-136.52"/>
<polygon fill="midnightblue" stroke="midnightblue" points="372.99,-133.46 362.55,-131.65 369.58,-139.58 372.99,-133.46"/>
</g>
<!-- Node15 -->
<g id="node15" class="node">
<title>Node15</title>
<g id="a_node15"><a xlink:title=" ">
<polygon fill="white" stroke="#bfbfbf" points="395,-112.5 395,-131.5 493,-131.5 493,-112.5 395,-112.5"/>
<text text-anchor="middle" x="444" y="-119.5" font-family="Helvetica,sans-Serif" font-size="10.00">impl/General.ipp</text>
</a>
</g>
</g>
<!-- Node6&#45;&gt;Node15 -->
<g id="edge14" class="edge">
<title>Node6&#45;&gt;Node15</title>
<path fill="none" stroke="midnightblue" d="M444,-168.08C444,-161.01 444,-150.86 444,-141.99"/>
<polygon fill="midnightblue" stroke="midnightblue" points="447.5,-141.75 444,-131.75 440.5,-141.75 447.5,-141.75"/>
</g>
<!-- Node9 -->
<g id="node9" class="node">
<title>Node9</title>
<g id="a_node9"><a xlink:title=" ">
<polygon fill="white" stroke="#bfbfbf" points="477.5,-56.5 477.5,-75.5 554.5,-75.5 554.5,-56.5 477.5,-56.5"/>
<text text-anchor="middle" x="516" y="-63.5" font-family="Helvetica,sans-Serif" font-size="10.00">Eigen/Dense</text>
</a>
</g>
</g>
<!-- Node8&#45;&gt;Node9 -->
<g id="edge8" class="edge">
<title>Node8&#45;&gt;Node9</title>
<path fill="none" stroke="midnightblue" d="M555.24,-112.08C548.46,-104.3 538.46,-92.8 530.24,-83.37"/>
<polygon fill="midnightblue" stroke="midnightblue" points="532.82,-81 523.62,-75.75 527.54,-85.59 532.82,-81"/>
</g>
<!-- Node10 -->
<g id="node10" class="node">
<title>Node10</title>
<g id="a_node10"><a xlink:title=" ">
<polygon fill="white" stroke="#bfbfbf" points="918,-56.5 918,-75.5 998,-75.5 998,-56.5 918,-56.5"/>
<text text-anchor="middle" x="958" y="-63.5" font-family="Helvetica,sans-Serif" font-size="10.00">Eigen/Sparse</text>
</a>
</g>
</g>
<!-- Node8&#45;&gt;Node10 -->
<g id="edge9" class="edge">
<title>Node8&#45;&gt;Node10</title>
<path fill="none" stroke="midnightblue" d="M615.05,-113.88C691.28,-103.46 832.38,-84.17 907.64,-73.88"/>
<polygon fill="midnightblue" stroke="midnightblue" points="908.38,-77.32 917.81,-72.49 907.43,-70.38 908.38,-77.32"/>
</g>
<!-- Node11 -->
<g id="node11" class="node">
<title>Node11</title>
<g id="a_node11"><a xlink:href="SFINAE_8hpp.html" target="_top" xlink:title="Contains all the SFINAE tricks.">
<polygon fill="white" stroke="black" points="572.5,-56.5 572.5,-75.5 645.5,-75.5 645.5,-56.5 572.5,-56.5"/>
<text text-anchor="middle" x="609" y="-63.5" font-family="Helvetica,sans-Serif" font-size="10.00">SFINAE.hpp</text>
</a>
</g>
</g>
<!-- Node8&#45;&gt;Node11 -->
<g id="edge10" class="edge">
<title>Node8&#45;&gt;Node11</title>
<path fill="none" stroke="midnightblue" d="M570.6,-112.08C577.23,-104.3 587.02,-92.8 595.06,-83.37"/>
<polygon fill="midnightblue" stroke="midnightblue" points="597.73,-85.63 601.55,-75.75 592.4,-81.09 597.73,-85.63"/>
</g>
<!-- Node12 -->
<g id="node12" class="node">
<title>Node12</title>
<g id="a_node12"><a xlink:title=" ">
<polygon fill="white" stroke="#bfbfbf" points="574.5,-0.5 574.5,-19.5 643.5,-19.5 643.5,-0.5 574.5,-0.5"/>
<text text-anchor="middle" x="609" y="-7.5" font-family="Helvetica,sans-Serif" font-size="10.00">type_traits</text>
</a>
</g>
</g>
<!-- Node11&#45;&gt;Node12 -->
<g id="edge11" class="edge">
<title>Node11&#45;&gt;Node12</title>
<path fill="none" stroke="midnightblue" d="M609,-56.08C609,-49.01 609,-38.86 609,-29.99"/>
<polygon fill="midnightblue" stroke="midnightblue" points="612.5,-29.75 609,-19.75 605.5,-29.75 612.5,-29.75"/>
</g>
<!-- Node17 -->
<g id="node17" class="node">
<title>Node17</title>
<g id="a_node17"><a xlink:href="Massey_8hpp.html" target="_top" xlink:title="Contains the classes mackey::Massey and mackey::internal::MasseyCompute.">
<polygon fill="white" stroke="black" points="631.5,-448.5 631.5,-467.5 750.5,-467.5 750.5,-448.5 631.5,-448.5"/>
<text text-anchor="middle" x="691" y="-455.5" font-family="Helvetica,sans-Serif" font-size="10.00">Products/Massey.hpp</text>
</a>
</g>
</g>
<!-- Node16&#45;&gt;Node17 -->
<g id="edge16" class="edge">
<title>Node16&#45;&gt;Node17</title>
<path fill="none" stroke="midnightblue" d="M682.65,-504.08C683.98,-496.93 685.88,-486.64 687.54,-477.69"/>
<polygon fill="midnightblue" stroke="midnightblue" points="691,-478.22 689.38,-467.75 684.12,-476.95 691,-478.22"/>
</g>
<!-- Node44 -->
<g id="node37" class="node">
<title>Node44</title>
<g id="a_node37"><a xlink:href="Morse_8hpp.html" target="_top" xlink:title="Contains the classes mackey::AMT and mackey::EquivariantAMT.">
<polygon fill="white" stroke="black" points="985,-224.5 985,-243.5 1143,-243.5 1143,-224.5 985,-224.5"/>
<text text-anchor="middle" x="1064" y="-231.5" font-family="Helvetica,sans-Serif" font-size="10.00">Chain_Complexes/Morse.hpp</text>
</a>
</g>
</g>
<!-- Node16&#45;&gt;Node44 -->
<g id="edge48" class="edge">
<title>Node16&#45;&gt;Node44</title>
<path fill="none" stroke="midnightblue" d="M697.2,-504.45C713.24,-495.81 738.31,-481.78 759,-468 872.56,-392.32 999.63,-288.61 1045.91,-250.15"/>
<polygon fill="midnightblue" stroke="midnightblue" points="1048.38,-252.64 1053.82,-243.55 1043.9,-247.27 1048.38,-252.64"/>
</g>
<!-- Node46 -->
<g id="node39" class="node">
<title>Node46</title>
<g id="a_node39"><a xlink:title=" ">
<polygon fill="white" stroke="#bfbfbf" points="529,-448.5 529,-467.5 613,-467.5 613,-448.5 529,-448.5"/>
<text text-anchor="middle" x="571" y="-455.5" font-family="Helvetica,sans-Serif" font-size="10.00">impl/Point.ipp</text>
</a>
</g>
</g>
<!-- Node16&#45;&gt;Node46 -->
<g id="edge52" class="edge">
<title>Node16&#45;&gt;Node46</title>
<path fill="none" stroke="midnightblue" d="M663.33,-504.32C645.61,-495.62 618.1,-482.12 597.71,-472.11"/>
<polygon fill="midnightblue" stroke="midnightblue" points="599.15,-468.92 588.63,-467.65 596.06,-475.2 599.15,-468.92"/>
</g>
<!-- Node18 -->
<g id="node18" class="node">
<title>Node18</title>
<g id="a_node18"><a xlink:href="Green_8hpp.html" target="_top" xlink:title="Contains the classes mackey::Green, mackey::internal::GreenCompute, mackey::internal::ChainsLevelGen,...">
<polygon fill="white" stroke="black" points="693.5,-392.5 693.5,-411.5 760.5,-411.5 760.5,-392.5 693.5,-392.5"/>
<text text-anchor="middle" x="727" y="-399.5" font-family="Helvetica,sans-Serif" font-size="10.00">Green.hpp</text>
</a>
</g>
</g>
<!-- Node17&#45;&gt;Node18 -->
<g id="edge17" class="edge">
<title>Node17&#45;&gt;Node18</title>
<path fill="none" stroke="midnightblue" d="M696.94,-448.08C701.98,-440.53 709.34,-429.49 715.51,-420.23"/>
<polygon fill="midnightblue" stroke="midnightblue" points="718.53,-422.01 721.17,-411.75 712.71,-418.13 718.53,-422.01"/>
</g>
<!-- Node43 -->
<g id="node36" class="node">
<title>Node43</title>
<g id="a_node36"><a xlink:title=" ">
<polygon fill="white" stroke="#bfbfbf" points="580.5,-392.5 580.5,-411.5 675.5,-411.5 675.5,-392.5 580.5,-392.5"/>
<text text-anchor="middle" x="628" y="-399.5" font-family="Helvetica,sans-Serif" font-size="10.00">impl/Massey.ipp</text>
</a>
</g>
</g>
<!-- Node17&#45;&gt;Node43 -->
<g id="edge47" class="edge">
<title>Node17&#45;&gt;Node43</title>
<path fill="none" stroke="midnightblue" d="M680.88,-448.32C671.47,-440.26 657.26,-428.08 645.93,-418.37"/>
<polygon fill="midnightblue" stroke="midnightblue" points="648.18,-415.68 638.31,-411.83 643.62,-421 648.18,-415.68"/>
</g>
<!-- Node19 -->
<g id="node19" class="node">
<title>Node19</title>
<g id="a_node19"><a xlink:href="Levels_8hpp.html" target="_top" xlink:title="Contains the methods for transfering, restricting and Weyl&#45;group&#45;acting.">
<polygon fill="white" stroke="black" points="526,-336.5 526,-355.5 682,-355.5 682,-336.5 526,-336.5"/>
<text text-anchor="middle" x="604" y="-343.5" font-family="Helvetica,sans-Serif" font-size="10.00">Mackey_Functors/Levels.hpp</text>
</a>
</g>
</g>
<!-- Node18&#45;&gt;Node19 -->
<g id="edge18" class="edge">
<title>Node18&#45;&gt;Node19</title>
<path fill="none" stroke="midnightblue" d="M707.51,-392.44C687.36,-383.6 655.68,-369.69 632.67,-359.59"/>
<polygon fill="midnightblue" stroke="midnightblue" points="633.96,-356.33 623.4,-355.52 631.15,-362.74 633.96,-356.33"/>
</g>
<!-- Node30 -->
<g id="node28" class="node">
<title>Node30</title>
<g id="a_node28"><a xlink:href="Identify_8hpp.html" target="_top" xlink:title="Contains the classes mackey::IDGenerators and mackey::internal::IDGeneratorCompute">
<polygon fill="white" stroke="black" points="348,-336.5 348,-355.5 508,-355.5 508,-336.5 348,-336.5"/>
<text text-anchor="middle" x="428" y="-343.5" font-family="Helvetica,sans-Serif" font-size="10.00">Mackey_Functors/Identify.hpp</text>
</a>
</g>
</g>
<!-- Node18&#45;&gt;Node30 -->
<g id="edge32" class="edge">
<title>Node18&#45;&gt;Node30</title>
<path fill="none" stroke="midnightblue" d="M693.22,-393.82C690.11,-393.19 687,-392.58 684,-392 617.74,-379.25 541.54,-366.04 489.62,-357.26"/>
<polygon fill="midnightblue" stroke="midnightblue" points="490.02,-353.77 479.58,-355.56 488.85,-360.68 490.02,-353.77"/>
</g>
<!-- Node35 -->
<g id="node32" class="node">
<title>Node35</title>
<g id="a_node32"><a xlink:href="Box_8hpp.html" target="_top" xlink:title="Contains the class mackey::Tensor.">
<polygon fill="white" stroke="black" points="691,-224.5 691,-243.5 837,-243.5 837,-224.5 691,-224.5"/>
<text text-anchor="middle" x="764" y="-231.5" font-family="Helvetica,sans-Serif" font-size="10.00">Chain_Complexes/Box.hpp</text>
</a>
</g>
</g>
<!-- Node18&#45;&gt;Node35 -->
<g id="edge40" class="edge">
<title>Node18&#45;&gt;Node35</title>
<path fill="none" stroke="midnightblue" d="M752.16,-392.38C768.42,-385.34 788.29,-373.65 798,-356 803.57,-345.87 806.15,-312.72 795,-280 791.49,-269.71 784.92,-259.62 778.72,-251.61"/>
<polygon fill="midnightblue" stroke="midnightblue" points="781.37,-249.32 772.31,-243.82 775.96,-253.77 781.37,-249.32"/>
</g>
<!-- Node42 -->
<g id="node35" class="node">
<title>Node42</title>
<g id="a_node35"><a xlink:title=" ">
<polygon fill="white" stroke="#bfbfbf" points="700.5,-336.5 700.5,-355.5 789.5,-355.5 789.5,-336.5 700.5,-336.5"/>
<text text-anchor="middle" x="745" y="-343.5" font-family="Helvetica,sans-Serif" font-size="10.00">impl/Green.ipp</text>
</a>
</g>
</g>
<!-- Node18&#45;&gt;Node42 -->
<g id="edge46" class="edge">
<title>Node18&#45;&gt;Node42</title>
<path fill="none" stroke="midnightblue" d="M729.97,-392.08C732.38,-384.85 735.86,-374.41 738.87,-365.4"/>
<polygon fill="midnightblue" stroke="midnightblue" points="742.24,-366.34 742.08,-355.75 735.6,-364.13 742.24,-366.34"/>
</g>
<!-- Node20 -->
<g id="node20" class="node">
<title>Node20</title>
<g id="a_node20"><a xlink:href="Homology_8hpp.html" target="_top" xlink:title="Contains the class mackey::Homology.">
<polygon fill="white" stroke="black" points="537,-280.5 537,-299.5 677,-299.5 677,-280.5 537,-280.5"/>
<text text-anchor="middle" x="607" y="-287.5" font-family="Helvetica,sans-Serif" font-size="10.00">Homology/Homology.hpp</text>
</a>
</g>
</g>
<!-- Node19&#45;&gt;Node20 -->
<g id="edge19" class="edge">
<title>Node19&#45;&gt;Node20</title>
<path fill="none" stroke="midnightblue" d="M604.5,-336.08C604.89,-329.01 605.45,-318.86 605.95,-309.99"/>
<polygon fill="midnightblue" stroke="midnightblue" points="609.45,-309.93 606.51,-299.75 602.46,-309.54 609.45,-309.93"/>
</g>
<!-- Node29 -->
<g id="node27" class="node">
<title>Node29</title>
<g id="a_node27"><a xlink:title=" ">
<polygon fill="white" stroke="#bfbfbf" points="695.5,-280.5 695.5,-299.5 786.5,-299.5 786.5,-280.5 695.5,-280.5"/>
<text text-anchor="middle" x="741" y="-287.5" font-family="Helvetica,sans-Serif" font-size="10.00">impl/Levels.ipp</text>
</a>
</g>
</g>
<!-- Node19&#45;&gt;Node29 -->
<g id="edge31" class="edge">
<title>Node19&#45;&gt;Node29</title>
<path fill="none" stroke="midnightblue" d="M625.71,-336.44C648.35,-327.52 684.07,-313.44 709.75,-303.32"/>
<polygon fill="midnightblue" stroke="midnightblue" points="711.37,-306.44 719.39,-299.52 708.81,-299.93 711.37,-306.44"/>
</g>
<!-- Node20&#45;&gt;Node6 -->
<g id="edge24" class="edge">
<title>Node20&#45;&gt;Node6</title>
<path fill="none" stroke="midnightblue" d="M594.21,-280.37C566.24,-261.49 499.4,-216.38 465.1,-193.24"/>
<polygon fill="midnightblue" stroke="midnightblue" points="466.98,-190.28 456.73,-187.59 463.06,-196.09 466.98,-190.28"/>
</g>
<!-- Node21 -->
<g id="node21" class="node">
<title>Node21</title>
<g id="a_node21"><a xlink:href="Chains_8hpp.html" target="_top" xlink:title="Contains the classes mackey::Arrow, mackey::Chains and mackey::Junction.">
<polygon fill="white" stroke="black" points="870.5,-168.5 870.5,-187.5 1031.5,-187.5 1031.5,-168.5 870.5,-168.5"/>
<text text-anchor="middle" x="951" y="-175.5" font-family="Helvetica,sans-Serif" font-size="10.00">Chain_Complexes/Chains.hpp</text>
</a>
</g>
</g>
<!-- Node20&#45;&gt;Node21 -->
<g id="edge20" class="edge">
<title>Node20&#45;&gt;Node21</title>
<path fill="none" stroke="midnightblue" d="M665.73,-280.47C725.53,-271.33 813.87,-256.47 846,-244 878.38,-231.43 911.84,-208.74 932.03,-193.77"/>
<polygon fill="midnightblue" stroke="midnightblue" points="934.21,-196.51 940.08,-187.69 929.99,-190.92 934.21,-196.51"/>
</g>
<!-- Node24 -->
<g id="node24" class="node">
<title>Node24</title>
<g id="a_node24"><a xlink:href="Smith_8hpp.html" target="_top" xlink:title="Contains the class mackey::SmithNormalForm.">
<polygon fill="white" stroke="red" points="530,-168.5 530,-187.5 596,-187.5 596,-168.5 530,-168.5"/>
<text text-anchor="middle" x="563" y="-175.5" font-family="Helvetica,sans-Serif" font-size="10.00">Smith.hpp</text>
</a>
</g>
</g>
<!-- Node20&#45;&gt;Node24 -->
<g id="edge25" class="edge">
<title>Node20&#45;&gt;Node24</title>
<path fill="none" stroke="midnightblue" d="M591.27,-280.24C579.11,-272.48 563.19,-259.93 556,-244 549.37,-229.31 552.25,-210.91 556.13,-197.44"/>
<polygon fill="midnightblue" stroke="midnightblue" points="559.48,-198.45 559.29,-187.86 552.83,-196.26 559.48,-198.45"/>
</g>
<!-- Node26 -->
<g id="node25" class="node">
<title>Node26</title>
<g id="a_node25"><a xlink:href="Abelian_8hpp.html" target="_top" xlink:title="Contains the class mackey::AbelianGroup.">
<polygon fill="white" stroke="red" points="397,-224.5 397,-243.5 471,-243.5 471,-224.5 397,-224.5"/>
<text text-anchor="middle" x="434" y="-231.5" font-family="Helvetica,sans-Serif" font-size="10.00">Abelian.hpp</text>
</a>
</g>
</g>
<!-- Node20&#45;&gt;Node26 -->
<g id="edge28" class="edge">
<title>Node20&#45;&gt;Node26</title>
<path fill="none" stroke="midnightblue" d="M579.59,-280.44C550.23,-271.28 503.48,-256.69 470.9,-246.52"/>
<polygon fill="midnightblue" stroke="midnightblue" points="471.87,-243.16 461.28,-243.52 469.79,-249.84 471.87,-243.16"/>
</g>
<!-- Node28 -->
<g id="node26" class="node">
<title>Node28</title>
<g id="a_node26"><a xlink:title=" ">
<polygon fill="white" stroke="#bfbfbf" points="565,-224.5 565,-243.5 673,-243.5 673,-224.5 565,-224.5"/>
<text text-anchor="middle" x="619" y="-231.5" font-family="Helvetica,sans-Serif" font-size="10.00">impl/Homology.ipp</text>
</a>
</g>
</g>
<!-- Node20&#45;&gt;Node28 -->
<g id="edge30" class="edge">
<title>Node20&#45;&gt;Node28</title>
<path fill="none" stroke="midnightblue" d="M608.98,-280.08C610.57,-272.93 612.86,-262.64 614.85,-253.69"/>
<polygon fill="midnightblue" stroke="midnightblue" points="618.3,-254.27 617.06,-243.75 611.47,-252.75 618.3,-254.27"/>
</g>
<!-- Node21&#45;&gt;Node7 -->
<g id="edge21" class="edge">
<title>Node21&#45;&gt;Node7</title>
<path fill="none" stroke="midnightblue" d="M921.21,-168.44C887.29,-158.7 831.99,-142.82 796.57,-132.64"/>
<polygon fill="midnightblue" stroke="midnightblue" points="797.27,-129.2 786.7,-129.81 795.34,-135.93 797.27,-129.2"/>
</g>
<!-- Node22 -->
<g id="node22" class="node">
<title>Node22</title>
<g id="a_node22"><a xlink:title=" ">
<polygon fill="white" stroke="#bfbfbf" points="968.5,-112.5 968.5,-131.5 1025.5,-131.5 1025.5,-112.5 968.5,-112.5"/>
<text text-anchor="middle" x="997" y="-119.5" font-family="Helvetica,sans-Serif" font-size="10.00">ostream</text>
</a>
</g>
</g>
<!-- Node21&#45;&gt;Node22 -->
<g id="edge22" class="edge">
<title>Node21&#45;&gt;Node22</title>
<path fill="none" stroke="midnightblue" d="M958.6,-168.08C965.23,-160.3 975.02,-148.8 983.06,-139.37"/>
<polygon fill="midnightblue" stroke="midnightblue" points="985.73,-141.63 989.55,-131.75 980.4,-137.09 985.73,-141.63"/>
</g>
<!-- Node23 -->
<g id="node23" class="node">
<title>Node23</title>
<g id="a_node23"><a xlink:title=" ">
<polygon fill="white" stroke="#bfbfbf" points="858,-112.5 858,-131.5 950,-131.5 950,-112.5 858,-112.5"/>
<text text-anchor="middle" x="904" y="-119.5" font-family="Helvetica,sans-Serif" font-size="10.00">impl/Chains.ipp</text>
</a>
</g>
</g>
<!-- Node21&#45;&gt;Node23 -->
<g id="edge23" class="edge">
<title>Node21&#45;&gt;Node23</title>
<path fill="none" stroke="midnightblue" d="M943.24,-168.08C936.46,-160.3 926.46,-148.8 918.24,-139.37"/>
<polygon fill="midnightblue" stroke="midnightblue" points="920.82,-137 911.62,-131.75 915.54,-141.59 920.82,-137"/>
</g>
<!-- Node24&#45;&gt;Node7 -->
<g id="edge26" class="edge">
<title>Node24&#45;&gt;Node7</title>
<path fill="none" stroke="midnightblue" d="M594.69,-168.44C631.44,-158.52 691.76,-142.23 729.33,-132.09"/>
<polygon fill="midnightblue" stroke="midnightblue" points="730.54,-135.39 739.29,-129.4 728.72,-128.63 730.54,-135.39"/>
</g>
<!-- Node24&#45;&gt;Node8 -->
<g id="edge27" class="edge">
<title>Node24&#45;&gt;Node8</title>
<path fill="none" stroke="midnightblue" d="M563,-168.08C563,-161.01 563,-150.86 563,-141.99"/>
<polygon fill="midnightblue" stroke="midnightblue" points="566.5,-141.75 563,-131.75 559.5,-141.75 566.5,-141.75"/>
</g>
<!-- Node26&#45;&gt;Node6 -->
<g id="edge29" class="edge">
<title>Node26&#45;&gt;Node6</title>
<path fill="none" stroke="midnightblue" d="M435.65,-224.08C436.98,-216.93 438.88,-206.64 440.54,-197.69"/>
<polygon fill="midnightblue" stroke="midnightblue" points="444,-198.22 442.38,-187.75 437.12,-196.95 444,-198.22"/>
</g>
<!-- Node30&#45;&gt;Node20 -->
<g id="edge33" class="edge">
<title>Node30&#45;&gt;Node20</title>
<path fill="none" stroke="midnightblue" d="M456.36,-336.44C486.74,-327.28 535.11,-312.69 568.82,-302.52"/>
<polygon fill="midnightblue" stroke="midnightblue" points="570.21,-305.76 578.77,-299.52 568.18,-299.05 570.21,-305.76"/>
</g>
<!-- Node31 -->
<g id="node29" class="node">
<title>Node31</title>
<g id="a_node29"><a xlink:href="MackeyFunctor_8hpp.html" target="_top" xlink:title="Contains the class mackey::MackeyFunctor.">
<polygon fill="white" stroke="red" points="208.5,-280.5 208.5,-299.5 405.5,-299.5 405.5,-280.5 208.5,-280.5"/>
<text text-anchor="middle" x="307" y="-287.5" font-family="Helvetica,sans-Serif" font-size="10.00">Mackey_Functors/MackeyFunctor.hpp</text>
</a>
</g>
</g>
<!-- Node30&#45;&gt;Node31 -->
<g id="edge34" class="edge">
<title>Node30&#45;&gt;Node31</title>
<path fill="none" stroke="midnightblue" d="M408.83,-336.44C389.09,-327.64 358.11,-313.81 335.51,-303.72"/>
<polygon fill="midnightblue" stroke="midnightblue" points="336.64,-300.4 326.08,-299.52 333.79,-306.79 336.64,-300.4"/>
</g>
<!-- Node34 -->
<g id="node31" class="node">
<title>Node34</title>
<g id="a_node31"><a xlink:title=" ">
<polygon fill="white" stroke="#bfbfbf" points="423.5,-280.5 423.5,-299.5 518.5,-299.5 518.5,-280.5 423.5,-280.5"/>
<text text-anchor="middle" x="471" y="-287.5" font-family="Helvetica,sans-Serif" font-size="10.00">impl/Identify.ipp</text>
</a>
</g>
</g>
<!-- Node30&#45;&gt;Node34 -->
<g id="edge39" class="edge">
<title>Node30&#45;&gt;Node34</title>
<path fill="none" stroke="midnightblue" d="M435.1,-336.08C441.24,-328.38 450.27,-317.03 457.74,-307.65"/>
<polygon fill="midnightblue" stroke="midnightblue" points="460.54,-309.75 464.03,-299.75 455.06,-305.39 460.54,-309.75"/>
</g>
<!-- Node31&#45;&gt;Node13 -->
<g id="edge37" class="edge">
<title>Node31&#45;&gt;Node13</title>
<path fill="none" stroke="midnightblue" d="M304.02,-280.46C300.96,-271.46 296.21,-256.86 293,-244 284.05,-208.16 276.71,-165.6 272.88,-141.7"/>
<polygon fill="midnightblue" stroke="midnightblue" points="276.3,-140.92 271.29,-131.58 269.38,-142 276.3,-140.92"/>
</g>
<!-- Node31&#45;&gt;Node14 -->
<g id="edge36" class="edge">
<title>Node31&#45;&gt;Node14</title>
<path fill="none" stroke="midnightblue" d="M309.15,-280.08C315.45,-253.95 333.94,-177.21 342.52,-141.58"/>
<polygon fill="midnightblue" stroke="midnightblue" points="346,-142.11 344.94,-131.57 339.19,-140.47 346,-142.11"/>
</g>
<!-- Node31&#45;&gt;Node26 -->
<g id="edge38" class="edge">
<title>Node31&#45;&gt;Node26</title>
<path fill="none" stroke="midnightblue" d="M327.12,-280.44C348.02,-271.56 380.93,-257.56 404.72,-247.45"/>
<polygon fill="midnightblue" stroke="midnightblue" points="406.14,-250.65 413.97,-243.52 403.4,-244.21 406.14,-250.65"/>
</g>
<!-- Node32 -->
<g id="node30" class="node">
<title>Node32</title>
<g id="a_node30"><a xlink:title=" ">
<polygon fill="white" stroke="#bfbfbf" points="335,-224.5 335,-243.5 379,-243.5 379,-224.5 335,-224.5"/>
<text text-anchor="middle" x="357" y="-231.5" font-family="Helvetica,sans-Serif" font-size="10.00">string</text>
</a>
</g>
</g>
<!-- Node31&#45;&gt;Node32 -->
<g id="edge35" class="edge">
<title>Node31&#45;&gt;Node32</title>
<path fill="none" stroke="midnightblue" d="M315.26,-280.08C322.46,-272.3 333.11,-260.8 341.85,-251.37"/>
<polygon fill="midnightblue" stroke="midnightblue" points="344.67,-253.47 348.9,-243.75 339.53,-248.71 344.67,-253.47"/>
</g>
<!-- Node35&#45;&gt;Node6 -->
<g id="edge41" class="edge">
<title>Node35&#45;&gt;Node6</title>
<path fill="none" stroke="midnightblue" d="M713.3,-224.44C656.65,-214.89 565,-199.42 504.62,-189.23"/>
<polygon fill="midnightblue" stroke="midnightblue" points="504.91,-185.73 494.47,-187.52 503.75,-192.63 504.91,-185.73"/>
</g>
<!-- Node35&#45;&gt;Node21 -->
<g id="edge42" class="edge">
<title>Node35&#45;&gt;Node21</title>
<path fill="none" stroke="midnightblue" d="M793.63,-224.44C825.5,-215.24 876.33,-200.56 911.56,-190.39"/>
<polygon fill="midnightblue" stroke="midnightblue" points="912.87,-193.65 921.51,-187.52 910.93,-186.93 912.87,-193.65"/>
</g>
<!-- Node36 -->
<g id="node33" class="node">
<title>Node36</title>
<g id="a_node33"><a xlink:href="ChangeBasis_8hpp.html" target="_top" xlink:title="Contains the class mackey::ChangeBasis.">
<polygon fill="white" stroke="red" points="712.5,-168.5 712.5,-187.5 813.5,-187.5 813.5,-168.5 712.5,-168.5"/>
<text text-anchor="middle" x="763" y="-175.5" font-family="Helvetica,sans-Serif" font-size="10.00">ChangeBasis.hpp</text>
</a>
</g>
</g>
<!-- Node35&#45;&gt;Node36 -->
<g id="edge43" class="edge">
<title>Node35&#45;&gt;Node36</title>
<path fill="none" stroke="midnightblue" d="M763.83,-224.08C763.7,-217.01 763.52,-206.86 763.35,-197.99"/>
<polygon fill="midnightblue" stroke="midnightblue" points="766.85,-197.68 763.16,-187.75 759.85,-197.81 766.85,-197.68"/>
</g>
<!-- Node41 -->
<g id="node34" class="node">
<title>Node41</title>
<g id="a_node34"><a xlink:title=" ">
<polygon fill="white" stroke="#bfbfbf" points="616,-168.5 616,-187.5 694,-187.5 694,-168.5 616,-168.5"/>
<text text-anchor="middle" x="655" y="-175.5" font-family="Helvetica,sans-Serif" font-size="10.00">impl/Box.ipp</text>
</a>
</g>
</g>
<!-- Node35&#45;&gt;Node41 -->
<g id="edge45" class="edge">
<title>Node35&#45;&gt;Node41</title>
<path fill="none" stroke="midnightblue" d="M746.49,-224.32C728.93,-215.62 701.67,-202.12 681.47,-192.11"/>
<polygon fill="midnightblue" stroke="midnightblue" points="682.98,-188.96 672.47,-187.65 679.88,-195.23 682.98,-188.96"/>
</g>
<!-- Node36&#45;&gt;Node7 -->
<g id="edge44" class="edge">
<title>Node36&#45;&gt;Node7</title>
<path fill="none" stroke="midnightblue" d="M763,-168.08C763,-161.01 763,-150.86 763,-141.99"/>
<polygon fill="midnightblue" stroke="midnightblue" points="766.5,-141.75 763,-131.75 759.5,-141.75 766.5,-141.75"/>
</g>
<!-- Node44&#45;&gt;Node10 -->
<g id="edge50" class="edge">
<title>Node44&#45;&gt;Node10</title>
<path fill="none" stroke="midnightblue" d="M1093.15,-224.46C1123.28,-214.01 1163.86,-194.39 1148,-168 1117.79,-117.73 1053.19,-91.14 1007.73,-78.08"/>
<polygon fill="midnightblue" stroke="midnightblue" points="1008.62,-74.7 998.05,-75.42 1006.77,-81.45 1008.62,-74.7"/>
</g>
<!-- Node44&#45;&gt;Node21 -->
<g id="edge49" class="edge">
<title>Node44&#45;&gt;Node21</title>
<path fill="none" stroke="midnightblue" d="M1046.09,-224.44C1027.75,-215.68 998.99,-201.94 977.91,-191.86"/>
<polygon fill="midnightblue" stroke="midnightblue" points="979.35,-188.67 968.82,-187.52 976.33,-194.99 979.35,-188.67"/>
</g>
<!-- Node45 -->
<g id="node38" class="node">
<title>Node45</title>
<g id="a_node38"><a xlink:title=" ">
<polygon fill="white" stroke="#bfbfbf" points="1049.5,-168.5 1049.5,-187.5 1138.5,-187.5 1138.5,-168.5 1049.5,-168.5"/>
<text text-anchor="middle" x="1094" y="-175.5" font-family="Helvetica,sans-Serif" font-size="10.00">impl/Morse.ipp</text>
</a>
</g>
</g>
<!-- Node44&#45;&gt;Node45 -->
<g id="edge51" class="edge">
<title>Node44&#45;&gt;Node45</title>
<path fill="none" stroke="midnightblue" d="M1068.95,-224.08C1073.1,-216.61 1079.15,-205.72 1084.27,-196.52"/>
<polygon fill="midnightblue" stroke="midnightblue" points="1087.34,-198.19 1089.14,-187.75 1081.22,-194.79 1087.34,-198.19"/>
</g>
<!-- Node49 -->
<g id="node42" class="node">
<title>Node49</title>
<g id="a_node42"><a xlink:href="Graph_8hpp.html" target="_top" xlink:title="Contains the classes mackey::Neighborhood, mackey::Graph, mackey::ShortestPaths.">
<polygon fill="white" stroke="black" points="925.5,-504.5 925.5,-523.5 992.5,-523.5 992.5,-504.5 925.5,-504.5"/>
<text text-anchor="middle" x="959" y="-511.5" font-family="Helvetica,sans-Serif" font-size="10.00">Graph.hpp</text>
</a>
</g>
</g>
<!-- Node48&#45;&gt;Node49 -->
<g id="edge55" class="edge">
<title>Node48&#45;&gt;Node49</title>
<path fill="none" stroke="midnightblue" d="M959,-560.08C959,-553.01 959,-542.86 959,-533.99"/>
<polygon fill="midnightblue" stroke="midnightblue" points="962.5,-533.75 959,-523.75 955.5,-533.75 962.5,-533.75"/>
</g>
<!-- Node54 -->
<g id="node47" class="node">
<title>Node54</title>
<g id="a_node47"><a xlink:title=" ">
<polygon fill="white" stroke="#bfbfbf" points="1010.5,-504.5 1010.5,-523.5 1141.5,-523.5 1141.5,-504.5 1010.5,-504.5"/>
<text text-anchor="middle" x="1076" y="-511.5" font-family="Helvetica,sans-Serif" font-size="10.00">impl/Graph_Policies.ipp</text>
</a>
</g>
</g>
<!-- Node48&#45;&gt;Node54 -->
<g id="edge61" class="edge">
<title>Node48&#45;&gt;Node54</title>
<path fill="none" stroke="midnightblue" d="M977.54,-560.44C996.62,-551.64 1026.57,-537.81 1048.44,-527.72"/>
<polygon fill="midnightblue" stroke="midnightblue" points="1049.93,-530.88 1057.55,-523.52 1047,-524.53 1049.93,-530.88"/>
</g>
<!-- Node49&#45;&gt;Node7 -->
<g id="edge56" class="edge">
<title>Node49&#45;&gt;Node7</title>
<path fill="none" stroke="midnightblue" d="M947.07,-504.32C936.6,-496.1 921.73,-482.83 913,-468 842.3,-347.94 907.65,-277.9 822,-168 812.41,-155.69 798.68,-144.96 786.89,-137.06"/>
<polygon fill="midnightblue" stroke="midnightblue" points="788.65,-134.04 778.34,-131.6 784.88,-139.93 788.65,-134.04"/>
</g>
<!-- Node50 -->
<g id="node43" class="node">
<title>Node50</title>
<g id="a_node43"><a xlink:title=" ">
<polygon fill="white" stroke="#bfbfbf" points="1103.5,-448.5 1103.5,-467.5 1150.5,-467.5 1150.5,-448.5 1103.5,-448.5"/>
<text text-anchor="middle" x="1127" y="-455.5" font-family="Helvetica,sans-Serif" font-size="10.00">queue</text>
</a>
</g>
</g>
<!-- Node49&#45;&gt;Node50 -->
<g id="edge57" class="edge">
<title>Node49&#45;&gt;Node50</title>
<path fill="none" stroke="midnightblue" d="M985.62,-504.44C1014.92,-495.02 1062.07,-479.87 1093.78,-469.68"/>
<polygon fill="midnightblue" stroke="midnightblue" points="1095.04,-472.95 1103.49,-466.56 1092.89,-466.29 1095.04,-472.95"/>
</g>
<!-- Node51 -->
<g id="node44" class="node">
<title>Node51</title>
<g id="a_node44"><a xlink:title=" ">
<polygon fill="white" stroke="#bfbfbf" points="1169,-448.5 1169,-467.5 1201,-467.5 1201,-448.5 1169,-448.5"/>
<text text-anchor="middle" x="1185" y="-455.5" font-family="Helvetica,sans-Serif" font-size="10.00">set</text>
</a>
</g>
</g>
<!-- Node49&#45;&gt;Node51 -->
<g id="edge58" class="edge">
<title>Node49&#45;&gt;Node51</title>
<path fill="none" stroke="midnightblue" d="M992.71,-505.69C1040.31,-495.35 1124.56,-476.9 1159.23,-467.81"/>
<polygon fill="midnightblue" stroke="midnightblue" points="1160.26,-471.16 1168.96,-465.11 1158.39,-464.41 1160.26,-471.16"/>
</g>
<!-- Node52 -->
<g id="node45" class="node">
<title>Node52</title>
<g id="a_node45"><a xlink:title=" ">
<polygon fill="white" stroke="#bfbfbf" points="922,-448.5 922,-467.5 978,-467.5 978,-448.5 922,-448.5"/>
<text text-anchor="middle" x="950" y="-455.5" font-family="Helvetica,sans-Serif" font-size="10.00">iomanip</text>
</a>
</g>
</g>
<!-- Node49&#45;&gt;Node52 -->
<g id="edge59" class="edge">
<title>Node49&#45;&gt;Node52</title>
<path fill="none" stroke="midnightblue" d="M957.51,-504.08C956.32,-496.93 954.61,-486.64 953.12,-477.69"/>
<polygon fill="midnightblue" stroke="midnightblue" points="956.55,-477.04 951.46,-467.75 949.65,-478.19 956.55,-477.04"/>
</g>
<!-- Node53 -->
<g id="node46" class="node">
<title>Node53</title>
<g id="a_node46"><a xlink:title=" ">
<polygon fill="white" stroke="#bfbfbf" points="996.5,-448.5 996.5,-467.5 1085.5,-467.5 1085.5,-448.5 996.5,-448.5"/>
<text text-anchor="middle" x="1041" y="-455.5" font-family="Helvetica,sans-Serif" font-size="10.00">impl/Graph.ipp</text>
</a>
</g>
</g>
<!-- Node49&#45;&gt;Node53 -->
<g id="edge60" class="edge">
<title>Node49&#45;&gt;Node53</title>
<path fill="none" stroke="midnightblue" d="M972.17,-504.32C984.85,-495.98 1004.23,-483.21 1019.21,-473.35"/>
<polygon fill="midnightblue" stroke="midnightblue" points="1021.43,-476.08 1027.86,-467.65 1017.58,-470.23 1021.43,-476.08"/>
</g>
</g>
</svg>
        <g id="navigator" transform="translate(0 0)" fill="#404254">
                <rect fill="#f2f5e9" fill-opacity="0.5" stroke="#606060" stroke-width=".5" x="0" y="0" width="60" height="60"/>
                <use id="zoomplus" xlink:href="#zoomPlus" x="17" y="9" onmousedown="handleZoom(evt,'in')"/>
                <use id="zoomminus" xlink:href="#zoomMin" x="42" y="9" onmousedown="handleZoom(evt,'out')"/>
                <use id="reset" xlink:href="#resetDef" x="30" y="36" onmousedown="handleReset()"/>
                <g id="arrowUp" xlink:href="#dirArrow" transform="translate(30 24)" onmousedown="handlePan(0,-1)">
                  <use xlink:href="#rim" fill="#404040">
                        <set attributeName="fill" to="#808080" begin="arrowUp.mouseover" end="arrowUp.mouseout"/>
                  </use>
                  <path fill="none" stroke="white" stroke-width="1.5" d="M0,-3.0v7 M-2.5,-0.5L0,-3.0L2.5,-0.5"/>
                </g>
                <g id="arrowRight" xlink:href="#dirArrow" transform="rotate(90) translate(36 -43)" onmousedown="handlePan(1,0)">
                  <use xlink:href="#rim" fill="#404040">
                        <set attributeName="fill" to="#808080" begin="arrowRight.mouseover" end="arrowRight.mouseout"/>
                  </use>
                  <path fill="none" stroke="white" stroke-width="1.5" d="M0,-3.0v7 M-2.5,-0.5L0,-3.0L2.5,-0.5"/>
                </g>
                <g id="arrowDown" xlink:href="#dirArrow" transform="rotate(180) translate(-30 -48)" onmousedown="handlePan(0,1)">
                  <use xlink:href="#rim" fill="#404040">
                        <set attributeName="fill" to="#808080" begin="arrowDown.mouseover" end="arrowDown.mouseout"/>
                  </use>
                  <path fill="none" stroke="white" stroke-width="1.5" d="M0,-3.0v7 M-2.5,-0.5L0,-3.0L2.5,-0.5"/>
                </g>
                <g id="arrowLeft" xlink:href="#dirArrow" transform="rotate(270) translate(-36 17)" onmousedown="handlePan(-1,0)">
                  <use xlink:href="#rim" fill="#404040">
                        <set attributeName="fill" to="#808080" begin="arrowLeft.mouseover" end="arrowLeft.mouseout"/>
                  </use>
                  <path fill="none" stroke="white" stroke-width="1.5" d="M0,-3.0v7 M-2.5,-0.5L0,-3.0L2.5,-0.5"/>
                </g>
        </g>
        <svg viewBox="0 0 15 15" width="100%" height="30px" preserveAspectRatio="xMaxYMin meet">
         <g id="arrow_out" transform="scale(0.3 0.3)">
          <a xlink:href="Factorization_8hpp__incl_org.svg" target="_base">
           <rect id="button" ry="5" rx="5" y="6" x="6" height="38" width="38"
                fill="#f2f5e9" fill-opacity="0.5" stroke="#606060" stroke-width="1.0"/>
           <path id="arrow"
             d="M 11.500037,31.436501 C 11.940474,20.09759 22.043105,11.32322 32.158766,21.979434 L 37.068811,17.246167 C 37.068811,17.246167 37.088388,32 37.088388,32 L 22.160133,31.978069 C 22.160133,31.978069 26.997745,27.140456 26.997745,27.140456 C 18.528582,18.264221 13.291696,25.230495 11.500037,31.436501 z"
             style="fill:#404040;"/>
          </a>
         </g>
        </svg>
</svg>
