<?xml version="1.0" encoding="UTF-8" standalone="no"?>
<!DOCTYPE svg PUBLIC "-//W3C//DTD SVG 1.1//EN"
 "http://www.w3.org/Graphics/SVG/1.1/DTD/svg11.dtd">
<!-- Generated by graphviz version 2.43.0 (0)
 -->
<!-- Title: General.hpp Pages: 1 -->
<svg width="544pt" height="644pt"
 viewBox="0.00 0.00 543.69 644.00" xmlns="http://www.w3.org/2000/svg" xmlns:xlink="http://www.w3.org/1999/xlink">
<g id="graph0" class="graph" transform="scale(1 1) rotate(0) translate(4 640)">
<title>General.hpp</title>
<polygon fill="white" stroke="transparent" points="-4,4 -4,-640 539.69,-640 539.69,4 -4,4"/>
<!-- Node1 -->
<g id="node1" class="node">
<title>Node1</title>
<g id="a_node1"><a xlink:title="Contains general functions and vector overloads independent of everything else.">
<polygon fill="#bfbfbf" stroke="black" points="252.69,-616.5 252.69,-635.5 328.69,-635.5 328.69,-616.5 252.69,-616.5"/>
<text text-anchor="middle" x="290.69" y="-623.5" font-family="Helvetica,sans-Serif" font-size="10.00">General.hpp</text>
</a>
</g>
</g>
<!-- Node2 -->
<g id="node2" class="node">
<title>Node2</title>
<g id="a_node2"><a xlink:href="Box_8hpp.html" target="_top" xlink:title="Contains the construction of box products of Chains.">
<polygon fill="white" stroke="black" points="141.69,-504.5 141.69,-523.5 197.69,-523.5 197.69,-504.5 141.69,-504.5"/>
<text text-anchor="middle" x="169.69" y="-511.5" font-family="Helvetica,sans-Serif" font-size="10.00">Box.hpp</text>
</a>
</g>
</g>
<!-- Node1&#45;&gt;Node2 -->
<g id="edge1" class="edge">
<title>Node1&#45;&gt;Node2</title>
<path fill="none" stroke="midnightblue" d="M273.65,-609.51C247.8,-586.01 199.51,-542.11 179.14,-523.59"/>
<polygon fill="midnightblue" stroke="midnightblue" points="271.44,-612.23 281.19,-616.37 276.15,-607.05 271.44,-612.23"/>
</g>
<!-- Node6 -->
<g id="node6" class="node">
<title>Node6</title>
<g id="a_node6"><a xlink:href="Mult__Table_8hpp.html" target="_top" xlink:title="Contains the classes mackey::MultTableData and mackey::MultTable that form the multiplication table.">
<polygon fill="white" stroke="black" points="68.69,-224.5 68.69,-243.5 158.69,-243.5 158.69,-224.5 68.69,-224.5"/>
<text text-anchor="middle" x="113.69" y="-231.5" font-family="Helvetica,sans-Serif" font-size="10.00">Mult_Table.hpp</text>
</a>
</g>
</g>
<!-- Node1&#45;&gt;Node6 -->
<g id="edge20" class="edge">
<title>Node1&#45;&gt;Node6</title>
<path fill="none" stroke="midnightblue" d="M242.47,-616.52C190.06,-604.22 113.69,-575.84 113.69,-515 113.69,-515 113.69,-515 113.69,-345 113.69,-307.19 113.69,-262.06 113.69,-243.56"/>
<polygon fill="midnightblue" stroke="midnightblue" points="241.76,-619.95 252.28,-618.71 243.28,-613.12 241.76,-619.95"/>
</g>
<!-- Node16 -->
<g id="node16" class="node">
<title>Node16</title>
<g id="a_node16"><a xlink:href="C2n_8hpp.html" target="_top" xlink:title="Defines the groups .">
<polygon fill="white" stroke="black" points="427.69,-392.5 427.69,-411.5 483.69,-411.5 483.69,-392.5 427.69,-392.5"/>
<text text-anchor="middle" x="455.69" y="-399.5" font-family="Helvetica,sans-Serif" font-size="10.00">C2n.hpp</text>
</a>
</g>
</g>
<!-- Node1&#45;&gt;Node16 -->
<g id="edge21" class="edge">
<title>Node1&#45;&gt;Node16</title>
<path fill="none" stroke="midnightblue" d="M324.23,-612.6C359.56,-597.56 413.51,-568.56 438.69,-524 459.87,-486.51 458.15,-432.39 456.53,-411.59"/>
<polygon fill="midnightblue" stroke="midnightblue" points="322.71,-609.44 314.79,-616.47 325.37,-615.91 322.71,-609.44"/>
</g>
<!-- Node17 -->
<g id="node17" class="node">
<title>Node17</title>
<g id="a_node17"><a xlink:href="C4_8hpp.html" target="_top" xlink:title="Defines group .">
<polygon fill="white" stroke="black" points="485.69,-560.5 485.69,-579.5 535.69,-579.5 535.69,-560.5 485.69,-560.5"/>
<text text-anchor="middle" x="510.69" y="-567.5" font-family="Helvetica,sans-Serif" font-size="10.00">C4.hpp</text>
</a>
</g>
</g>
<!-- Node1&#45;&gt;Node17 -->
<g id="edge23" class="edge">
<title>Node1&#45;&gt;Node17</title>
<path fill="none" stroke="midnightblue" d="M335.4,-614.03C380.66,-602.92 449.04,-586.13 485.57,-577.16"/>
<polygon fill="midnightblue" stroke="midnightblue" points="334.43,-610.66 325.55,-616.44 336.09,-617.46 334.43,-610.66"/>
</g>
<!-- Node18 -->
<g id="node18" class="node">
<title>Node18</title>
<g id="a_node18"><a xlink:href="Abelian_8hpp.html" target="_top" xlink:title="Contains the methods for finding the automorphisms of finitely generated abelian groups.">
<polygon fill="white" stroke="black" points="286.69,-560.5 286.69,-579.5 360.69,-579.5 360.69,-560.5 286.69,-560.5"/>
<text text-anchor="middle" x="323.69" y="-567.5" font-family="Helvetica,sans-Serif" font-size="10.00">Abelian.hpp</text>
</a>
</g>
</g>
<!-- Node1&#45;&gt;Node18 -->
<g id="edge24" class="edge">
<title>Node1&#45;&gt;Node18</title>
<path fill="none" stroke="midnightblue" d="M301.52,-607.27C307.16,-598.05 313.81,-587.17 318.34,-579.75"/>
<polygon fill="midnightblue" stroke="midnightblue" points="298.37,-605.73 296.14,-616.08 304.34,-609.38 298.37,-605.73"/>
</g>
<!-- Node19 -->
<g id="node19" class="node">
<title>Node19</title>
<g id="a_node19"><a xlink:href="Homology_8hpp.html" target="_top" xlink:title="Contains the Homology class and algorithms.">
<polygon fill="white" stroke="black" points="215.69,-504.5 215.69,-523.5 301.69,-523.5 301.69,-504.5 215.69,-504.5"/>
<text text-anchor="middle" x="258.69" y="-511.5" font-family="Helvetica,sans-Serif" font-size="10.00">Homology.hpp</text>
</a>
</g>
</g>
<!-- Node1&#45;&gt;Node19 -->
<g id="edge32" class="edge">
<title>Node1&#45;&gt;Node19</title>
<path fill="none" stroke="midnightblue" d="M285.36,-606.67C278.36,-582.62 266.36,-541.39 261.19,-523.59"/>
<polygon fill="midnightblue" stroke="midnightblue" points="282.02,-607.74 288.18,-616.37 288.74,-605.79 282.02,-607.74"/>
</g>
<!-- Node3 -->
<g id="node3" class="node">
<title>Node3</title>
<g id="a_node3"><a xlink:href="Green_8hpp.html" target="_top" xlink:title="Contains the class and methods for multiplying generators.">
<polygon fill="white" stroke="black" points="226.19,-392.5 226.19,-411.5 293.19,-411.5 293.19,-392.5 226.19,-392.5"/>
<text text-anchor="middle" x="259.69" y="-399.5" font-family="Helvetica,sans-Serif" font-size="10.00">Green.hpp</text>
</a>
</g>
</g>
<!-- Node2&#45;&gt;Node3 -->
<g id="edge2" class="edge">
<title>Node2&#45;&gt;Node3</title>
<path fill="none" stroke="midnightblue" d="M180.57,-495.51C189.22,-482.06 201.95,-463.26 214.69,-448 226.02,-434.43 240.76,-420.24 250.23,-411.51"/>
<polygon fill="midnightblue" stroke="midnightblue" points="177.44,-493.91 175.05,-504.23 183.35,-497.65 177.44,-493.91"/>
</g>
<!-- Node4 -->
<g id="node4" class="node">
<title>Node4</title>
<g id="a_node4"><a xlink:href="Massey_8hpp.html" target="_top" xlink:title="Contains the class and methods for Massey Products.">
<polygon fill="white" stroke="black" points="227.69,-336.5 227.69,-355.5 301.69,-355.5 301.69,-336.5 227.69,-336.5"/>
<text text-anchor="middle" x="264.69" y="-343.5" font-family="Helvetica,sans-Serif" font-size="10.00">Massey.hpp</text>
</a>
</g>
</g>
<!-- Node3&#45;&gt;Node4 -->
<g id="edge3" class="edge">
<title>Node3&#45;&gt;Node4</title>
<path fill="none" stroke="midnightblue" d="M261.44,-382.1C262.27,-373.14 263.22,-362.86 263.88,-355.75"/>
<polygon fill="midnightblue" stroke="midnightblue" points="257.95,-381.8 260.51,-392.08 264.92,-382.45 257.95,-381.8"/>
</g>
<!-- Node5 -->
<g id="node5" class="node">
<title>Node5</title>
<g id="a_node5"><a xlink:href="Point_8hpp.html" target="_top" xlink:title="Contains the computations for RO(G) homology of a point.">
<polygon fill="white" stroke="black" points="235.69,-280.5 235.69,-299.5 297.69,-299.5 297.69,-280.5 235.69,-280.5"/>
<text text-anchor="middle" x="266.69" y="-287.5" font-family="Helvetica,sans-Serif" font-size="10.00">Point.hpp</text>
</a>
</g>
</g>
<!-- Node4&#45;&gt;Node5 -->
<g id="edge4" class="edge">
<title>Node4&#45;&gt;Node5</title>
<path fill="none" stroke="midnightblue" d="M265.4,-325.8C265.73,-316.91 266.1,-306.78 266.36,-299.75"/>
<polygon fill="midnightblue" stroke="midnightblue" points="261.89,-325.96 265.02,-336.08 268.89,-326.22 261.89,-325.96"/>
</g>
<!-- Node5&#45;&gt;Node6 -->
<g id="edge5" class="edge">
<title>Node5&#45;&gt;Node6</title>
<path fill="none" stroke="midnightblue" d="M232.8,-277.04C204.01,-266.88 163.4,-252.55 137.82,-243.52"/>
<polygon fill="midnightblue" stroke="midnightblue" points="231.85,-280.42 242.44,-280.44 234.18,-273.81 231.85,-280.42"/>
</g>
<!-- Node13 -->
<g id="node13" class="node">
<title>Node13</title>
<g id="a_node13"><a xlink:href="Additive_8hpp.html" target="_top" xlink:title="Contains the class for presenting the additive structure of the RO(G) homology.">
<polygon fill="white" stroke="black" points="229.69,-56.5 229.69,-75.5 307.69,-75.5 307.69,-56.5 229.69,-56.5"/>
<text text-anchor="middle" x="268.69" y="-63.5" font-family="Helvetica,sans-Serif" font-size="10.00">Additive.hpp</text>
</a>
</g>
</g>
<!-- Node5&#45;&gt;Node13 -->
<g id="edge14" class="edge">
<title>Node5&#45;&gt;Node13</title>
<path fill="none" stroke="midnightblue" d="M266.86,-270.3C267.27,-224.64 268.31,-108.85 268.61,-75.88"/>
<polygon fill="midnightblue" stroke="midnightblue" points="263.36,-270.27 266.77,-280.3 270.36,-270.33 263.36,-270.27"/>
</g>
<!-- Node14 -->
<g id="node14" class="node">
<title>Node14</title>
<g id="a_node14"><a xlink:href="Space_8hpp.html" target="_top" xlink:title="File containing the class for spaces other than points!">
<polygon fill="white" stroke="black" points="314.19,-224.5 314.19,-243.5 381.19,-243.5 381.19,-224.5 314.19,-224.5"/>
<text text-anchor="middle" x="347.69" y="-231.5" font-family="Helvetica,sans-Serif" font-size="10.00">Space.hpp</text>
</a>
</g>
</g>
<!-- Node5&#45;&gt;Node14 -->
<g id="edge17" class="edge">
<title>Node5&#45;&gt;Node14</title>
<path fill="none" stroke="midnightblue" d="M288.26,-274.62C303.05,-264.76 322.2,-251.99 334.71,-243.65"/>
<polygon fill="midnightblue" stroke="midnightblue" points="286.08,-271.86 279.7,-280.32 289.96,-277.69 286.08,-271.86"/>
</g>
<!-- Node7 -->
<g id="node7" class="node">
<title>Node7</title>
<g id="a_node7"><a xlink:href="Mult__Graph_8hpp.html" target="_top" xlink:title="Contains the multiplication graph.">
<polygon fill="white" stroke="black" points="28.69,-168.5 28.69,-187.5 122.69,-187.5 122.69,-168.5 28.69,-168.5"/>
<text text-anchor="middle" x="75.69" y="-175.5" font-family="Helvetica,sans-Serif" font-size="10.00">Mult_Graph.hpp</text>
</a>
</g>
</g>
<!-- Node6&#45;&gt;Node7 -->
<g id="edge6" class="edge">
<title>Node6&#45;&gt;Node7</title>
<path fill="none" stroke="midnightblue" d="M101.62,-215.86C95.04,-206.5 87.18,-195.33 81.85,-187.75"/>
<polygon fill="midnightblue" stroke="midnightblue" points="98.8,-217.92 107.41,-224.08 104.52,-213.89 98.8,-217.92"/>
</g>
<!-- Node8 -->
<g id="node8" class="node">
<title>Node8</title>
<g id="a_node8"><a xlink:href="Factorization_8hpp.html" target="_top" xlink:title="Contains the multiplication graph and the methods for factorizing generators.">
<polygon fill="white" stroke="black" points="44.69,-56.5 44.69,-75.5 144.69,-75.5 144.69,-56.5 44.69,-56.5"/>
<text text-anchor="middle" x="94.69" y="-63.5" font-family="Helvetica,sans-Serif" font-size="10.00">Factorization.hpp</text>
</a>
</g>
</g>
<!-- Node7&#45;&gt;Node8 -->
<g id="edge7" class="edge">
<title>Node7&#45;&gt;Node8</title>
<path fill="none" stroke="midnightblue" d="M42.83,-164.21C17.96,-152.49 -9.78,-133.69 3.69,-112 15.31,-93.28 37.28,-82.12 56.72,-75.59"/>
<polygon fill="midnightblue" stroke="midnightblue" points="41.56,-167.48 52.12,-168.35 44.41,-161.09 41.56,-167.48"/>
</g>
<!-- Node11 -->
<g id="node11" class="node">
<title>Node11</title>
<g id="a_node11"><a xlink:href="Mult__Connectivity_8hpp.html" target="_top" xlink:title="Contains methods for the finding the connectivity of the multiplication graph should identification f...">
<polygon fill="white" stroke="black" points="131.19,-112.5 131.19,-131.5 256.19,-131.5 256.19,-112.5 131.19,-112.5"/>
<text text-anchor="middle" x="193.69" y="-119.5" font-family="Helvetica,sans-Serif" font-size="10.00">Mult_Connectivity.hpp</text>
</a>
</g>
</g>
<!-- Node7&#45;&gt;Node11 -->
<g id="edge10" class="edge">
<title>Node7&#45;&gt;Node11</title>
<path fill="none" stroke="midnightblue" d="M103.59,-164.23C125.66,-154.13 155.86,-140.31 175.08,-131.52"/>
<polygon fill="midnightblue" stroke="midnightblue" points="102.02,-161.1 94.39,-168.44 104.94,-167.46 102.02,-161.1"/>
</g>
<!-- Node12 -->
<g id="node12" class="node">
<title>Node12</title>
<g id="a_node12"><a xlink:href="Mult__Identify_8hpp.html" target="_top" xlink:title="Contains extra identification methods for the multiplication graph.">
<polygon fill="white" stroke="black" points="12.69,-112.5 12.69,-131.5 112.69,-131.5 112.69,-112.5 12.69,-112.5"/>
<text text-anchor="middle" x="62.69" y="-119.5" font-family="Helvetica,sans-Serif" font-size="10.00">Mult_Identify.hpp</text>
</a>
</g>
</g>
<!-- Node7&#45;&gt;Node12 -->
<g id="edge12" class="edge">
<title>Node7&#45;&gt;Node12</title>
<path fill="none" stroke="midnightblue" d="M71.14,-158.1C68.98,-149.14 66.51,-138.86 64.79,-131.75"/>
<polygon fill="midnightblue" stroke="midnightblue" points="67.8,-159.18 73.54,-168.08 74.6,-157.54 67.8,-159.18"/>
</g>
<!-- Node9 -->
<g id="node9" class="node">
<title>Node9</title>
<g id="a_node9"><a xlink:href="Mackey_8hpp.html" target="_top" xlink:title="Includes the entire library.">
<polygon fill="white" stroke="black" points="231.69,-0.5 231.69,-19.5 305.69,-19.5 305.69,-0.5 231.69,-0.5"/>
<text text-anchor="middle" x="268.69" y="-7.5" font-family="Helvetica,sans-Serif" font-size="10.00">Mackey.hpp</text>
</a>
</g>
</g>
<!-- Node8&#45;&gt;Node9 -->
<g id="edge8" class="edge">
<title>Node8&#45;&gt;Node9</title>
<path fill="none" stroke="midnightblue" d="M131.95,-53.44C164.76,-43.26 211.77,-28.66 241.25,-19.52"/>
<polygon fill="midnightblue" stroke="midnightblue" points="130.77,-50.14 122.26,-56.44 132.85,-56.82 130.77,-50.14"/>
</g>
<!-- Node10 -->
<g id="node10" class="node">
<title>Node10</title>
<g id="a_node10"><a xlink:href="Cerealizer_8hpp.html" target="_top" xlink:title="Contains the methods for serializing the results of our computations (before their interpretation) vi...">
<polygon fill="white" stroke="black" points="94.69,-0.5 94.69,-19.5 180.69,-19.5 180.69,-0.5 94.69,-0.5"/>
<text text-anchor="middle" x="137.69" y="-7.5" font-family="Helvetica,sans-Serif" font-size="10.00">Cerealizer.hpp</text>
</a>
</g>
</g>
<!-- Node8&#45;&gt;Node10 -->
<g id="edge9" class="edge">
<title>Node8&#45;&gt;Node10</title>
<path fill="none" stroke="midnightblue" d="M108.11,-48.14C115.6,-38.74 124.63,-27.4 130.72,-19.75"/>
<polygon fill="midnightblue" stroke="midnightblue" points="105.28,-46.08 101.79,-56.08 110.76,-50.44 105.28,-46.08"/>
</g>
<!-- Node11&#45;&gt;Node9 -->
<g id="edge11" class="edge">
<title>Node11&#45;&gt;Node9</title>
<path fill="none" stroke="midnightblue" d="M198.95,-102.76C203.42,-89.12 210.7,-70.43 220.69,-56 230.83,-41.35 246.44,-27.84 257.08,-19.53"/>
<polygon fill="midnightblue" stroke="midnightblue" points="195.57,-101.84 195.98,-112.43 202.26,-103.9 195.57,-101.84"/>
</g>
<!-- Node12&#45;&gt;Node8 -->
<g id="edge13" class="edge">
<title>Node12&#45;&gt;Node8</title>
<path fill="none" stroke="midnightblue" d="M73.19,-103.27C78.66,-94.05 85.11,-83.17 89.5,-75.75"/>
<polygon fill="midnightblue" stroke="midnightblue" points="70.06,-101.7 67.97,-112.08 76.08,-105.26 70.06,-101.7"/>
</g>
<!-- Node13&#45;&gt;Node9 -->
<g id="edge15" class="edge">
<title>Node13&#45;&gt;Node9</title>
<path fill="none" stroke="midnightblue" d="M268.69,-45.8C268.69,-36.91 268.69,-26.78 268.69,-19.75"/>
<polygon fill="midnightblue" stroke="midnightblue" points="265.19,-46.08 268.69,-56.08 272.19,-46.08 265.19,-46.08"/>
</g>
<!-- Node13&#45;&gt;Node10 -->
<g id="edge16" class="edge">
<title>Node13&#45;&gt;Node10</title>
<path fill="none" stroke="midnightblue" d="M238.37,-52.5C213.81,-42.38 179.87,-28.39 158.35,-19.52"/>
<polygon fill="midnightblue" stroke="midnightblue" points="237.35,-55.87 247.93,-56.44 240.02,-49.4 237.35,-55.87"/>
</g>
<!-- Node15 -->
<g id="node15" class="node">
<title>Node15</title>
<g id="a_node15"><a xlink:href="BC4S2_8hpp.html" target="_top" xlink:title=" ">
<polygon fill="white" stroke="black" points="313.19,-168.5 313.19,-187.5 382.19,-187.5 382.19,-168.5 313.19,-168.5"/>
<text text-anchor="middle" x="347.69" y="-175.5" font-family="Helvetica,sans-Serif" font-size="10.00">BC4S2.hpp</text>
</a>
</g>
</g>
<!-- Node14&#45;&gt;Node15 -->
<g id="edge18" class="edge">
<title>Node14&#45;&gt;Node15</title>
<path fill="none" stroke="midnightblue" d="M347.69,-213.8C347.69,-204.91 347.69,-194.78 347.69,-187.75"/>
<polygon fill="midnightblue" stroke="midnightblue" points="344.19,-214.08 347.69,-224.08 351.19,-214.08 344.19,-214.08"/>
</g>
<!-- Node15&#45;&gt;Node9 -->
<g id="edge19" class="edge">
<title>Node15&#45;&gt;Node9</title>
<path fill="none" stroke="midnightblue" d="M346.16,-158.24C343.42,-133.34 336.04,-88.71 316.69,-56 307.73,-40.86 292.18,-27.65 281.21,-19.53"/>
<polygon fill="midnightblue" stroke="midnightblue" points="342.7,-158.84 347.13,-168.46 349.67,-158.17 342.7,-158.84"/>
</g>
<!-- Node16&#45;&gt;Node9 -->
<g id="edge22" class="edge">
<title>Node16&#45;&gt;Node9</title>
<path fill="none" stroke="midnightblue" d="M453.22,-382.29C450.56,-360.43 446.69,-323.16 446.69,-291 446.69,-291 446.69,-291 446.69,-121 446.69,-55.43 358.2,-27.64 306,-16.95"/>
<polygon fill="midnightblue" stroke="midnightblue" points="449.78,-382.98 454.51,-392.46 456.73,-382.1 449.78,-382.98"/>
</g>
<!-- Node18&#45;&gt;Node19 -->
<g id="edge25" class="edge">
<title>Node18&#45;&gt;Node19</title>
<path fill="none" stroke="midnightblue" d="M305.42,-553.82C293.77,-544.15 279.09,-531.95 269.32,-523.83"/>
<polygon fill="midnightblue" stroke="midnightblue" points="303.32,-556.63 313.24,-560.32 307.79,-551.24 303.32,-556.63"/>
</g>
<!-- Node22 -->
<g id="node22" class="node">
<title>Node22</title>
<g id="a_node22"><a xlink:href="MackeyFunctor_8hpp.html" target="_top" xlink:title="Contains the class describing Mackey Functors.">
<polygon fill="white" stroke="black" points="319.69,-504.5 319.69,-523.5 429.69,-523.5 429.69,-504.5 319.69,-504.5"/>
<text text-anchor="middle" x="374.69" y="-511.5" font-family="Helvetica,sans-Serif" font-size="10.00">MackeyFunctor.hpp</text>
</a>
</g>
</g>
<!-- Node18&#45;&gt;Node22 -->
<g id="edge30" class="edge">
<title>Node18&#45;&gt;Node22</title>
<path fill="none" stroke="midnightblue" d="M339.07,-552.72C348.06,-543.2 359.05,-531.56 366.42,-523.75"/>
<polygon fill="midnightblue" stroke="midnightblue" points="336.43,-550.41 332.11,-560.08 341.52,-555.22 336.43,-550.41"/>
</g>
<!-- Node20 -->
<g id="node20" class="node">
<title>Node20</title>
<g id="a_node20"><a xlink:href="Identify_8hpp.html" target="_top" xlink:title="Contains the identification classes.">
<polygon fill="white" stroke="black" points="311.19,-448.5 311.19,-467.5 384.19,-467.5 384.19,-448.5 311.19,-448.5"/>
<text text-anchor="middle" x="347.69" y="-455.5" font-family="Helvetica,sans-Serif" font-size="10.00">Identify.hpp</text>
</a>
</g>
</g>
<!-- Node19&#45;&gt;Node20 -->
<g id="edge26" class="edge">
<title>Node19&#45;&gt;Node20</title>
<path fill="none" stroke="midnightblue" d="M281.93,-498.9C298.25,-489 319.55,-476.07 333.42,-467.65"/>
<polygon fill="midnightblue" stroke="midnightblue" points="279.72,-496.14 272.99,-504.32 283.35,-502.13 279.72,-496.14"/>
</g>
<!-- Node21 -->
<g id="node21" class="node">
<title>Node21</title>
<g id="a_node21"><a xlink:href="Levels_8hpp.html" target="_top" xlink:title="Contains the methods for transfering, restricting and act&#45;group&#45;acting.">
<polygon fill="white" stroke="black" points="224.19,-448.5 224.19,-467.5 293.19,-467.5 293.19,-448.5 224.19,-448.5"/>
<text text-anchor="middle" x="258.69" y="-455.5" font-family="Helvetica,sans-Serif" font-size="10.00">Levels.hpp</text>
</a>
</g>
</g>
<!-- Node19&#45;&gt;Node21 -->
<g id="edge28" class="edge">
<title>Node19&#45;&gt;Node21</title>
<path fill="none" stroke="midnightblue" d="M258.69,-493.8C258.69,-484.91 258.69,-474.78 258.69,-467.75"/>
<polygon fill="midnightblue" stroke="midnightblue" points="255.19,-494.08 258.69,-504.08 262.19,-494.08 255.19,-494.08"/>
</g>
<!-- Node20&#45;&gt;Node3 -->
<g id="edge27" class="edge">
<title>Node20&#45;&gt;Node3</title>
<path fill="none" stroke="midnightblue" d="M324.71,-442.9C308.57,-433 287.51,-420.07 273.79,-411.65"/>
<polygon fill="midnightblue" stroke="midnightblue" points="323.2,-446.08 333.55,-448.32 326.86,-440.11 323.2,-446.08"/>
</g>
<!-- Node21&#45;&gt;Node3 -->
<g id="edge29" class="edge">
<title>Node21&#45;&gt;Node3</title>
<path fill="none" stroke="midnightblue" d="M259.04,-437.8C259.21,-428.91 259.4,-418.78 259.53,-411.75"/>
<polygon fill="midnightblue" stroke="midnightblue" points="255.54,-438.02 258.85,-448.08 262.54,-438.15 255.54,-438.02"/>
</g>
<!-- Node22&#45;&gt;Node20 -->
<g id="edge31" class="edge">
<title>Node22&#45;&gt;Node20</title>
<path fill="none" stroke="midnightblue" d="M365.68,-494.98C361.1,-485.82 355.73,-475.09 352.06,-467.75"/>
<polygon fill="midnightblue" stroke="midnightblue" points="362.63,-496.7 370.23,-504.08 368.89,-493.57 362.63,-496.7"/>
</g>
</g>
</svg>
