<?xml version="1.0" encoding="UTF-8" standalone="no"?>
<!DOCTYPE svg PUBLIC "-//W3C//DTD SVG 1.1//EN"
 "http://www.w3.org/Graphics/SVG/1.1/DTD/svg11.dtd">
<!-- Generated by graphviz version 2.43.0 (0)
 -->
<!-- Title: General.hpp Pages: 1 -->
<!--zoomable 644 -->
<svg id="main" version="1.1" xmlns="http://www.w3.org/2000/svg" xmlns:xlink="http://www.w3.org/1999/xlink" xml:space="preserve" onload="init(evt)">
<style type="text/css"><![CDATA[
.edge:hover path { stroke: red; }
.edge:hover polygon { stroke: red; fill: red; }
]]></style>
<script type="text/javascript"><![CDATA[
var edges = document.getElementsByTagName('g');
if (edges && edges.length) {
  for (var i=0;i<edges.length;i++) {
    if (edges[i].id.substr(0,4)=='edge') {
      edges[i].setAttribute('class','edge');
    }
  }
}
]]></script>
        <defs>
                <circle id="rim" cx="0" cy="0" r="7"/>
                <circle id="rim2" cx="0" cy="0" r="3.5"/>
                <g id="zoomPlus">
                        <use xlink:href="#rim" fill="#404040">
                                <set attributeName="fill" to="#808080" begin="zoomplus.mouseover" end="zoomplus.mouseout"/>
                        </use>
                        <path d="M-4,0h8M0,-4v8" fill="none" stroke="white" stroke-width="1.5" pointer-events="none"/>
                </g>
                <g id="zoomMin">
                        <use xlink:href="#rim" fill="#404040">
                                <set attributeName="fill" to="#808080" begin="zoomminus.mouseover" end="zoomminus.mouseout"/>
                        </use>
                        <path d="M-4,0h8" fill="none" stroke="white" stroke-width="1.5" pointer-events="none"/>
                </g>
                <g id="dirArrow">
                        <path fill="none" stroke="white" stroke-width="1.5" d="M0,-3.0v7 M-2.5,-0.5L0,-3.0L2.5,-0.5"/>
                </g>
               <g id="resetDef">
                       <use xlink:href="#rim2" fill="#404040">
                               <set attributeName="fill" to="#808080" begin="reset.mouseover" end="reset.mouseout"/>
                       </use>
               </g>
        </defs>

<script type="text/javascript">
var viewWidth = 460;
var viewHeight = 644;
var sectionId = 'dynsection-1';
</script>
<script xlink:href="svgpan.js"/>
<svg id="graph" class="graph">
<g id="viewport">
<title>General.hpp</title>
<polygon fill="white" stroke="transparent" points="-4,4 -4,-640 456,-640 456,4 -4,4"/>
<!-- Node1 -->
<g id="node1" class="node">
<title>Node1</title>
<g id="a_node1"><a xlink:title="Contains general functions and vector overloads independent of everything else.">
<polygon fill="#bfbfbf" stroke="black" points="259,-616.5 259,-635.5 335,-635.5 335,-616.5 259,-616.5"/>
<text text-anchor="middle" x="297" y="-623.5" font-family="Helvetica,sans-Serif" font-size="10.00">General.hpp</text>
</a>
</g>
</g>
<!-- Node2 -->
<g id="node2" class="node">
<title>Node2</title>
<g id="a_node2"><a xlink:href="Box_8hpp.html" target="_top" xlink:title="Contains the class mackey::Tensor.">
<polygon fill="white" stroke="black" points="232,-504.5 232,-523.5 288,-523.5 288,-504.5 232,-504.5"/>
<text text-anchor="middle" x="260" y="-511.5" font-family="Helvetica,sans-Serif" font-size="10.00">Box.hpp</text>
</a>
</g>
</g>
<!-- Node1&#45;&gt;Node2 -->
<g id="edge1" class="edge">
<title>Node1&#45;&gt;Node2</title>
<path fill="none" stroke="midnightblue" d="M290.84,-606.67C282.75,-582.62 268.88,-541.39 262.89,-523.59"/>
<polygon fill="midnightblue" stroke="midnightblue" points="287.59,-608.01 294.1,-616.37 294.23,-605.77 287.59,-608.01"/>
</g>
<!-- Node6 -->
<g id="node6" class="node">
<title>Node6</title>
<g id="a_node6"><a xlink:href="Mult__Table_8hpp.html" target="_top" xlink:title="Contains the classes mackey::MultTableData and mackey::MultTable.">
<polygon fill="white" stroke="black" points="236,-224.5 236,-243.5 326,-243.5 326,-224.5 236,-224.5"/>
<text text-anchor="middle" x="281" y="-231.5" font-family="Helvetica,sans-Serif" font-size="10.00">Mult_Table.hpp</text>
</a>
</g>
</g>
<!-- Node1&#45;&gt;Node6 -->
<g id="edge19" class="edge">
<title>Node1&#45;&gt;Node6</title>
<path fill="none" stroke="midnightblue" d="M302.22,-606.39C307.84,-584.65 316,-547.51 316,-515 316,-515 316,-515 316,-345 316,-305.52 295.27,-261.66 285.72,-243.54"/>
<polygon fill="midnightblue" stroke="midnightblue" points="298.78,-605.68 299.56,-616.25 305.54,-607.5 298.78,-605.68"/>
</g>
<!-- Node16 -->
<g id="node16" class="node">
<title>Node16</title>
<g id="a_node16"><a xlink:href="C2n_8hpp.html" target="_top" xlink:title="Defines the groups &#160;via mackey::C2Power.">
<polygon fill="white" stroke="black" points="384,-392.5 384,-411.5 440,-411.5 440,-392.5 384,-392.5"/>
<text text-anchor="middle" x="412" y="-399.5" font-family="Helvetica,sans-Serif" font-size="10.00">C2n.hpp</text>
</a>
</g>
</g>
<!-- Node1&#45;&gt;Node16 -->
<g id="edge20" class="edge">
<title>Node1&#45;&gt;Node16</title>
<path fill="none" stroke="midnightblue" d="M310.44,-608.35C316.79,-600.09 324.21,-589.8 330,-580 366.33,-518.46 398.48,-438.12 408.66,-411.78"/>
<polygon fill="midnightblue" stroke="midnightblue" points="307.55,-606.37 304.12,-616.39 313.05,-610.7 307.55,-606.37"/>
</g>
<!-- Node17 -->
<g id="node17" class="node">
<title>Node17</title>
<g id="a_node17"><a xlink:href="C4_8hpp.html" target="_top" xlink:title="Defines group &#160;via mackey::C_4.">
<polygon fill="white" stroke="black" points="382,-560.5 382,-579.5 432,-579.5 432,-560.5 382,-560.5"/>
<text text-anchor="middle" x="407" y="-567.5" font-family="Helvetica,sans-Serif" font-size="10.00">C4.hpp</text>
</a>
</g>
</g>
<!-- Node1&#45;&gt;Node17 -->
<g id="edge22" class="edge">
<title>Node1&#45;&gt;Node17</title>
<path fill="none" stroke="midnightblue" d="M323.76,-611.86C344.16,-601.85 371.67,-588.35 389.37,-579.65"/>
<polygon fill="midnightblue" stroke="midnightblue" points="322.11,-608.78 314.67,-616.32 325.19,-615.06 322.11,-608.78"/>
</g>
<!-- Node18 -->
<g id="node18" class="node">
<title>Node18</title>
<g id="a_node18"><a xlink:href="Abelian_8hpp.html" target="_top" xlink:title="Contains the class mackey::AbelianGroup.">
<polygon fill="white" stroke="black" points="122,-560.5 122,-579.5 196,-579.5 196,-560.5 122,-560.5"/>
<text text-anchor="middle" x="159" y="-567.5" font-family="Helvetica,sans-Serif" font-size="10.00">Abelian.hpp</text>
</a>
</g>
</g>
<!-- Node1&#45;&gt;Node18 -->
<g id="edge23" class="edge">
<title>Node1&#45;&gt;Node18</title>
<path fill="none" stroke="midnightblue" d="M265.75,-612.77C239.83,-602.63 203.64,-588.47 180.76,-579.52"/>
<polygon fill="midnightblue" stroke="midnightblue" points="264.55,-616.06 275.13,-616.44 267.1,-609.54 264.55,-616.06"/>
</g>
<!-- Node19 -->
<g id="node19" class="node">
<title>Node19</title>
<g id="a_node19"><a xlink:href="Homology_8hpp.html" target="_top" xlink:title="Contains the class mackey::Homology.">
<polygon fill="white" stroke="black" points="0,-504.5 0,-523.5 86,-523.5 86,-504.5 0,-504.5"/>
<text text-anchor="middle" x="43" y="-511.5" font-family="Helvetica,sans-Serif" font-size="10.00">Homology.hpp</text>
</a>
</g>
</g>
<!-- Node1&#45;&gt;Node19 -->
<g id="edge31" class="edge">
<title>Node1&#45;&gt;Node19</title>
<path fill="none" stroke="midnightblue" d="M248.74,-619.98C210.16,-614.41 155.66,-602.98 113,-580 85.84,-565.37 61.2,-537.69 49.75,-523.64"/>
<polygon fill="midnightblue" stroke="midnightblue" points="248.31,-623.45 258.69,-621.34 249.25,-616.52 248.31,-623.45"/>
</g>
<!-- Node3 -->
<g id="node3" class="node">
<title>Node3</title>
<g id="a_node3"><a xlink:href="Green_8hpp.html" target="_top" xlink:title="Contains the classes mackey::Green, mackey::internal::GreenCompute, mackey::internal::ChainsLevelGen,...">
<polygon fill="white" stroke="black" points="118.5,-392.5 118.5,-411.5 185.5,-411.5 185.5,-392.5 118.5,-392.5"/>
<text text-anchor="middle" x="152" y="-399.5" font-family="Helvetica,sans-Serif" font-size="10.00">Green.hpp</text>
</a>
</g>
</g>
<!-- Node2&#45;&gt;Node3 -->
<g id="edge2" class="edge">
<title>Node2&#45;&gt;Node3</title>
<path fill="none" stroke="midnightblue" d="M245.13,-497.11C232.67,-483.86 214.33,-464.54 198,-448 185.28,-435.12 170.24,-420.52 160.91,-411.54"/>
<polygon fill="midnightblue" stroke="midnightblue" points="242.67,-499.6 252.07,-504.5 247.78,-494.81 242.67,-499.6"/>
</g>
<!-- Node4 -->
<g id="node4" class="node">
<title>Node4</title>
<g id="a_node4"><a xlink:href="Massey_8hpp.html" target="_top" xlink:title="Contains the classes mackey::Massey and mackey::internal::MasseyCompute.">
<polygon fill="white" stroke="black" points="115,-336.5 115,-355.5 189,-355.5 189,-336.5 115,-336.5"/>
<text text-anchor="middle" x="152" y="-343.5" font-family="Helvetica,sans-Serif" font-size="10.00">Massey.hpp</text>
</a>
</g>
</g>
<!-- Node3&#45;&gt;Node4 -->
<g id="edge3" class="edge">
<title>Node3&#45;&gt;Node4</title>
<path fill="none" stroke="midnightblue" d="M152,-381.8C152,-372.91 152,-362.78 152,-355.75"/>
<polygon fill="midnightblue" stroke="midnightblue" points="148.5,-382.08 152,-392.08 155.5,-382.08 148.5,-382.08"/>
</g>
<!-- Node5 -->
<g id="node5" class="node">
<title>Node5</title>
<g id="a_node5"><a xlink:href="Point_8hpp.html" target="_top" xlink:title="Contains the methods computing the RO(G) homology of a point.">
<polygon fill="white" stroke="black" points="121,-280.5 121,-299.5 183,-299.5 183,-280.5 121,-280.5"/>
<text text-anchor="middle" x="152" y="-287.5" font-family="Helvetica,sans-Serif" font-size="10.00">Point.hpp</text>
</a>
</g>
</g>
<!-- Node4&#45;&gt;Node5 -->
<g id="edge4" class="edge">
<title>Node4&#45;&gt;Node5</title>
<path fill="none" stroke="midnightblue" d="M152,-325.8C152,-316.91 152,-306.78 152,-299.75"/>
<polygon fill="midnightblue" stroke="midnightblue" points="148.5,-326.08 152,-336.08 155.5,-326.08 148.5,-326.08"/>
</g>
<!-- Node5&#45;&gt;Node6 -->
<g id="edge5" class="edge">
<title>Node5&#45;&gt;Node6</title>
<path fill="none" stroke="midnightblue" d="M181.85,-276.5C206.04,-266.38 239.46,-252.39 260.66,-243.52"/>
<polygon fill="midnightblue" stroke="midnightblue" points="180.31,-273.35 172.44,-280.44 183.02,-279.81 180.31,-273.35"/>
</g>
<!-- Node13 -->
<g id="node13" class="node">
<title>Node13</title>
<g id="a_node13"><a xlink:href="Additive_8hpp.html" target="_top" xlink:title="Contains the class mackey::AdditiveStructure">
<polygon fill="white" stroke="black" points="46,-56.5 46,-75.5 124,-75.5 124,-56.5 46,-56.5"/>
<text text-anchor="middle" x="85" y="-63.5" font-family="Helvetica,sans-Serif" font-size="10.00">Additive.hpp</text>
</a>
</g>
</g>
<!-- Node5&#45;&gt;Node13 -->
<g id="edge13" class="edge">
<title>Node5&#45;&gt;Node13</title>
<path fill="none" stroke="midnightblue" d="M132.79,-273.87C124.08,-265.93 114.53,-255.48 109,-244 80.48,-184.77 82.74,-102.25 84.36,-75.64"/>
<polygon fill="midnightblue" stroke="midnightblue" points="130.53,-276.54 140.4,-280.4 135.09,-271.23 130.53,-276.54"/>
</g>
<!-- Node14 -->
<g id="node14" class="node">
<title>Node14</title>
<g id="a_node14"><a xlink:href="Space_8hpp.html" target="_top" xlink:title="Contains the class mackey::Space.">
<polygon fill="white" stroke="black" points="118.5,-224.5 118.5,-243.5 185.5,-243.5 185.5,-224.5 118.5,-224.5"/>
<text text-anchor="middle" x="152" y="-231.5" font-family="Helvetica,sans-Serif" font-size="10.00">Space.hpp</text>
</a>
</g>
</g>
<!-- Node5&#45;&gt;Node14 -->
<g id="edge16" class="edge">
<title>Node5&#45;&gt;Node14</title>
<path fill="none" stroke="midnightblue" d="M152,-269.8C152,-260.91 152,-250.78 152,-243.75"/>
<polygon fill="midnightblue" stroke="midnightblue" points="148.5,-270.08 152,-280.08 155.5,-270.08 148.5,-270.08"/>
</g>
<!-- Node7 -->
<g id="node7" class="node">
<title>Node7</title>
<g id="a_node7"><a xlink:href="Mult__Graph_8hpp.html" target="_top" xlink:title="Contains the class mackey::MultGraph.">
<polygon fill="white" stroke="black" points="234,-168.5 234,-187.5 328,-187.5 328,-168.5 234,-168.5"/>
<text text-anchor="middle" x="281" y="-175.5" font-family="Helvetica,sans-Serif" font-size="10.00">Mult_Graph.hpp</text>
</a>
</g>
</g>
<!-- Node6&#45;&gt;Node7 -->
<g id="edge6" class="edge">
<title>Node6&#45;&gt;Node7</title>
<path fill="none" stroke="midnightblue" d="M281,-213.8C281,-204.91 281,-194.78 281,-187.75"/>
<polygon fill="midnightblue" stroke="midnightblue" points="277.5,-214.08 281,-224.08 284.5,-214.08 277.5,-214.08"/>
</g>
<!-- Node8 -->
<g id="node8" class="node">
<title>Node8</title>
<g id="a_node8"><a xlink:href="Mult__Connectivity_8hpp.html" target="_top" xlink:title="Contains the class mackey::MultConnectivity.">
<polygon fill="white" stroke="black" points="298.5,-112.5 298.5,-131.5 423.5,-131.5 423.5,-112.5 298.5,-112.5"/>
<text text-anchor="middle" x="361" y="-119.5" font-family="Helvetica,sans-Serif" font-size="10.00">Mult_Connectivity.hpp</text>
</a>
</g>
</g>
<!-- Node7&#45;&gt;Node8 -->
<g id="edge7" class="edge">
<title>Node7&#45;&gt;Node8</title>
<path fill="none" stroke="midnightblue" d="M302.3,-162.62C316.92,-152.76 335.83,-139.99 348.18,-131.65"/>
<polygon fill="midnightblue" stroke="midnightblue" points="300.18,-159.83 293.85,-168.32 304.1,-165.63 300.18,-159.83"/>
</g>
<!-- Node10 -->
<g id="node10" class="node">
<title>Node10</title>
<g id="a_node10"><a xlink:href="Mult__Identify_8hpp.html" target="_top" xlink:title="Contains the class mackey::MultIdentify.">
<polygon fill="white" stroke="black" points="180,-112.5 180,-131.5 280,-131.5 280,-112.5 180,-112.5"/>
<text text-anchor="middle" x="230" y="-119.5" font-family="Helvetica,sans-Serif" font-size="10.00">Mult_Identify.hpp</text>
</a>
</g>
</g>
<!-- Node7&#45;&gt;Node10 -->
<g id="edge9" class="edge">
<title>Node7&#45;&gt;Node10</title>
<path fill="none" stroke="midnightblue" d="M265.62,-160.72C256.63,-151.2 245.64,-139.56 238.26,-131.75"/>
<polygon fill="midnightblue" stroke="midnightblue" points="263.17,-163.22 272.58,-168.08 268.26,-158.41 263.17,-163.22"/>
</g>
<!-- Node9 -->
<g id="node9" class="node">
<title>Node9</title>
<g id="a_node9"><a xlink:href="Mackey_8hpp.html" target="_top" xlink:title="Includes the entire library apart from Serialization/Cerealizer.hpp.">
<polygon fill="white" stroke="black" points="193,-0.5 193,-19.5 267,-19.5 267,-0.5 193,-0.5"/>
<text text-anchor="middle" x="230" y="-7.5" font-family="Helvetica,sans-Serif" font-size="10.00">Mackey.hpp</text>
</a>
</g>
</g>
<!-- Node8&#45;&gt;Node9 -->
<g id="edge8" class="edge">
<title>Node8&#45;&gt;Node9</title>
<path fill="none" stroke="midnightblue" d="M344.32,-105.22C329.95,-91.8 308.49,-72.19 289,-56 273.14,-42.83 254.06,-28.55 241.98,-19.68"/>
<polygon fill="midnightblue" stroke="midnightblue" points="342.21,-108.04 351.9,-112.34 347,-102.94 342.21,-108.04"/>
</g>
<!-- Node11 -->
<g id="node11" class="node">
<title>Node11</title>
<g id="a_node11"><a xlink:href="Factorization_8hpp.html" target="_top" xlink:title="Contains the class mackey::Factorization.">
<polygon fill="white" stroke="black" points="180,-56.5 180,-75.5 280,-75.5 280,-56.5 180,-56.5"/>
<text text-anchor="middle" x="230" y="-63.5" font-family="Helvetica,sans-Serif" font-size="10.00">Factorization.hpp</text>
</a>
</g>
</g>
<!-- Node10&#45;&gt;Node11 -->
<g id="edge10" class="edge">
<title>Node10&#45;&gt;Node11</title>
<path fill="none" stroke="midnightblue" d="M230,-101.8C230,-92.91 230,-82.78 230,-75.75"/>
<polygon fill="midnightblue" stroke="midnightblue" points="226.5,-102.08 230,-112.08 233.5,-102.08 226.5,-102.08"/>
</g>
<!-- Node11&#45;&gt;Node9 -->
<g id="edge11" class="edge">
<title>Node11&#45;&gt;Node9</title>
<path fill="none" stroke="midnightblue" d="M230,-45.8C230,-36.91 230,-26.78 230,-19.75"/>
<polygon fill="midnightblue" stroke="midnightblue" points="226.5,-46.08 230,-56.08 233.5,-46.08 226.5,-46.08"/>
</g>
<!-- Node12 -->
<g id="node12" class="node">
<title>Node12</title>
<g id="a_node12"><a xlink:href="Cerealizer_8hpp.html" target="_top" xlink:title="Contains the methods for serializing the results of our computations via cereal.">
<polygon fill="white" stroke="black" points="66,-0.5 66,-19.5 152,-19.5 152,-0.5 66,-0.5"/>
<text text-anchor="middle" x="109" y="-7.5" font-family="Helvetica,sans-Serif" font-size="10.00">Cerealizer.hpp</text>
</a>
</g>
</g>
<!-- Node11&#45;&gt;Node12 -->
<g id="edge12" class="edge">
<title>Node11&#45;&gt;Node12</title>
<path fill="none" stroke="midnightblue" d="M201.69,-52.37C179.03,-42.26 147.87,-28.35 128.08,-19.52"/>
<polygon fill="midnightblue" stroke="midnightblue" points="200.27,-55.56 210.83,-56.44 203.12,-49.17 200.27,-55.56"/>
</g>
<!-- Node13&#45;&gt;Node9 -->
<g id="edge14" class="edge">
<title>Node13&#45;&gt;Node9</title>
<path fill="none" stroke="midnightblue" d="M117.48,-52.91C144.74,-42.75 182.99,-28.51 207.13,-19.52"/>
<polygon fill="midnightblue" stroke="midnightblue" points="116.13,-49.67 107.98,-56.44 118.57,-56.23 116.13,-49.67"/>
</g>
<!-- Node13&#45;&gt;Node12 -->
<g id="edge15" class="edge">
<title>Node13&#45;&gt;Node12</title>
<path fill="none" stroke="midnightblue" d="M93.14,-46.69C97.18,-37.59 101.88,-27.01 105.11,-19.75"/>
<polygon fill="midnightblue" stroke="midnightblue" points="89.83,-45.52 88.96,-56.08 96.22,-48.37 89.83,-45.52"/>
</g>
<!-- Node15 -->
<g id="node15" class="node">
<title>Node15</title>
<g id="a_node15"><a xlink:href="BC4S2_8hpp.html" target="_top" xlink:title="Contains the class mackey::BC4S2.">
<polygon fill="white" stroke="black" points="117.5,-168.5 117.5,-187.5 186.5,-187.5 186.5,-168.5 117.5,-168.5"/>
<text text-anchor="middle" x="152" y="-175.5" font-family="Helvetica,sans-Serif" font-size="10.00">BC4S2.hpp</text>
</a>
</g>
</g>
<!-- Node14&#45;&gt;Node15 -->
<g id="edge17" class="edge">
<title>Node14&#45;&gt;Node15</title>
<path fill="none" stroke="midnightblue" d="M152,-213.8C152,-204.91 152,-194.78 152,-187.75"/>
<polygon fill="midnightblue" stroke="midnightblue" points="148.5,-214.08 152,-224.08 155.5,-214.08 148.5,-214.08"/>
</g>
<!-- Node15&#45;&gt;Node9 -->
<g id="edge18" class="edge">
<title>Node15&#45;&gt;Node9</title>
<path fill="none" stroke="midnightblue" d="M150.78,-158.03C150.06,-132.9 151.92,-88.01 171,-56 180.76,-39.62 198.96,-27.14 212.57,-19.52"/>
<polygon fill="midnightblue" stroke="midnightblue" points="147.3,-158.53 151.26,-168.36 154.3,-158.2 147.3,-158.53"/>
</g>
<!-- Node16&#45;&gt;Node9 -->
<g id="edge21" class="edge">
<title>Node16&#45;&gt;Node9</title>
<path fill="none" stroke="midnightblue" d="M422.68,-383.5C434.53,-362.37 452,-325.38 452,-291 452,-291 452,-291 452,-121 452,-39.49 330.36,-18.38 267.16,-12.91"/>
<polygon fill="midnightblue" stroke="midnightblue" points="419.58,-381.87 417.56,-392.27 425.62,-385.39 419.58,-381.87"/>
</g>
<!-- Node18&#45;&gt;Node19 -->
<g id="edge24" class="edge">
<title>Node18&#45;&gt;Node19</title>
<path fill="none" stroke="midnightblue" d="M131.28,-556.1C109.61,-546.01 80.1,-532.27 61.29,-523.52"/>
<polygon fill="midnightblue" stroke="midnightblue" points="130.08,-559.4 140.62,-560.44 133.03,-553.05 130.08,-559.4"/>
</g>
<!-- Node22 -->
<g id="node22" class="node">
<title>Node22</title>
<g id="a_node22"><a xlink:href="MackeyFunctor_8hpp.html" target="_top" xlink:title="Contains the class mackey::MackeyFunctor.">
<polygon fill="white" stroke="black" points="104,-504.5 104,-523.5 214,-523.5 214,-504.5 104,-504.5"/>
<text text-anchor="middle" x="159" y="-511.5" font-family="Helvetica,sans-Serif" font-size="10.00">MackeyFunctor.hpp</text>
</a>
</g>
</g>
<!-- Node18&#45;&gt;Node22 -->
<g id="edge29" class="edge">
<title>Node18&#45;&gt;Node22</title>
<path fill="none" stroke="midnightblue" d="M159,-549.8C159,-540.91 159,-530.78 159,-523.75"/>
<polygon fill="midnightblue" stroke="midnightblue" points="155.5,-550.08 159,-560.08 162.5,-550.08 155.5,-550.08"/>
</g>
<!-- Node20 -->
<g id="node20" class="node">
<title>Node20</title>
<g id="a_node20"><a xlink:href="Identify_8hpp.html" target="_top" xlink:title="Contains the classes mackey::IDGenerators and mackey::internal::IDGeneratorCompute">
<polygon fill="white" stroke="black" points="115.5,-448.5 115.5,-467.5 188.5,-467.5 188.5,-448.5 115.5,-448.5"/>
<text text-anchor="middle" x="152" y="-455.5" font-family="Helvetica,sans-Serif" font-size="10.00">Identify.hpp</text>
</a>
</g>
</g>
<!-- Node19&#45;&gt;Node20 -->
<g id="edge25" class="edge">
<title>Node19&#45;&gt;Node20</title>
<path fill="none" stroke="midnightblue" d="M69.52,-499.86C89.73,-489.85 116.99,-476.35 134.53,-467.65"/>
<polygon fill="midnightblue" stroke="midnightblue" points="67.92,-496.75 60.51,-504.32 71.03,-503.02 67.92,-496.75"/>
</g>
<!-- Node21 -->
<g id="node21" class="node">
<title>Node21</title>
<g id="a_node21"><a xlink:href="Levels_8hpp.html" target="_top" xlink:title="Contains the methods for transfering, restricting and Weyl&#45;group&#45;acting.">
<polygon fill="white" stroke="black" points="21.5,-448.5 21.5,-467.5 90.5,-467.5 90.5,-448.5 21.5,-448.5"/>
<text text-anchor="middle" x="56" y="-455.5" font-family="Helvetica,sans-Serif" font-size="10.00">Levels.hpp</text>
</a>
</g>
</g>
<!-- Node19&#45;&gt;Node21 -->
<g id="edge27" class="edge">
<title>Node19&#45;&gt;Node21</title>
<path fill="none" stroke="midnightblue" d="M47.55,-494.1C49.71,-485.14 52.18,-474.86 53.89,-467.75"/>
<polygon fill="midnightblue" stroke="midnightblue" points="44.08,-493.54 45.15,-504.08 50.89,-495.18 44.08,-493.54"/>
</g>
<!-- Node20&#45;&gt;Node3 -->
<g id="edge26" class="edge">
<title>Node20&#45;&gt;Node3</title>
<path fill="none" stroke="midnightblue" d="M152,-437.8C152,-428.91 152,-418.78 152,-411.75"/>
<polygon fill="midnightblue" stroke="midnightblue" points="148.5,-438.08 152,-448.08 155.5,-438.08 148.5,-438.08"/>
</g>
<!-- Node21&#45;&gt;Node3 -->
<g id="edge28" class="edge">
<title>Node21&#45;&gt;Node3</title>
<path fill="none" stroke="midnightblue" d="M80.57,-443.18C98.24,-433.24 121.51,-420.15 136.61,-411.65"/>
<polygon fill="midnightblue" stroke="midnightblue" points="78.42,-440.37 71.42,-448.32 81.86,-446.47 78.42,-440.37"/>
</g>
<!-- Node22&#45;&gt;Node20 -->
<g id="edge30" class="edge">
<title>Node22&#45;&gt;Node20</title>
<path fill="none" stroke="midnightblue" d="M156.55,-494.1C155.39,-485.14 154.06,-474.86 153.13,-467.75"/>
<polygon fill="midnightblue" stroke="midnightblue" points="153.09,-494.62 157.84,-504.08 160.03,-493.72 153.09,-494.62"/>
</g>
</g>
</svg>
        <g id="navigator" transform="translate(0 0)" fill="#404254">
                <rect fill="#f2f5e9" fill-opacity="0.5" stroke="#606060" stroke-width=".5" x="0" y="0" width="60" height="60"/>
                <use id="zoomplus" xlink:href="#zoomPlus" x="17" y="9" onmousedown="handleZoom(evt,'in')"/>
                <use id="zoomminus" xlink:href="#zoomMin" x="42" y="9" onmousedown="handleZoom(evt,'out')"/>
                <use id="reset" xlink:href="#resetDef" x="30" y="36" onmousedown="handleReset()"/>
                <g id="arrowUp" xlink:href="#dirArrow" transform="translate(30 24)" onmousedown="handlePan(0,-1)">
                  <use xlink:href="#rim" fill="#404040">
                        <set attributeName="fill" to="#808080" begin="arrowUp.mouseover" end="arrowUp.mouseout"/>
                  </use>
                  <path fill="none" stroke="white" stroke-width="1.5" d="M0,-3.0v7 M-2.5,-0.5L0,-3.0L2.5,-0.5"/>
                </g>
                <g id="arrowRight" xlink:href="#dirArrow" transform="rotate(90) translate(36 -43)" onmousedown="handlePan(1,0)">
                  <use xlink:href="#rim" fill="#404040">
                        <set attributeName="fill" to="#808080" begin="arrowRight.mouseover" end="arrowRight.mouseout"/>
                  </use>
                  <path fill="none" stroke="white" stroke-width="1.5" d="M0,-3.0v7 M-2.5,-0.5L0,-3.0L2.5,-0.5"/>
                </g>
                <g id="arrowDown" xlink:href="#dirArrow" transform="rotate(180) translate(-30 -48)" onmousedown="handlePan(0,1)">
                  <use xlink:href="#rim" fill="#404040">
                        <set attributeName="fill" to="#808080" begin="arrowDown.mouseover" end="arrowDown.mouseout"/>
                  </use>
                  <path fill="none" stroke="white" stroke-width="1.5" d="M0,-3.0v7 M-2.5,-0.5L0,-3.0L2.5,-0.5"/>
                </g>
                <g id="arrowLeft" xlink:href="#dirArrow" transform="rotate(270) translate(-36 17)" onmousedown="handlePan(-1,0)">
                  <use xlink:href="#rim" fill="#404040">
                        <set attributeName="fill" to="#808080" begin="arrowLeft.mouseover" end="arrowLeft.mouseout"/>
                  </use>
                  <path fill="none" stroke="white" stroke-width="1.5" d="M0,-3.0v7 M-2.5,-0.5L0,-3.0L2.5,-0.5"/>
                </g>
        </g>
        <svg viewBox="0 0 15 15" width="100%" height="30px" preserveAspectRatio="xMaxYMin meet">
         <g id="arrow_out" transform="scale(0.3 0.3)">
          <a xlink:href="General_8hpp__dep__incl_org.svg" target="_base">
           <rect id="button" ry="5" rx="5" y="6" x="6" height="38" width="38"
                fill="#f2f5e9" fill-opacity="0.5" stroke="#606060" stroke-width="1.0"/>
           <path id="arrow"
             d="M 11.500037,31.436501 C 11.940474,20.09759 22.043105,11.32322 32.158766,21.979434 L 37.068811,17.246167 C 37.068811,17.246167 37.088388,32 37.088388,32 L 22.160133,31.978069 C 22.160133,31.978069 26.997745,27.140456 26.997745,27.140456 C 18.528582,18.264221 13.291696,25.230495 11.500037,31.436501 z"
             style="fill:#404040;"/>
          </a>
         </g>
        </svg>
</svg>
