<?xml version="1.0" encoding="UTF-8" standalone="no"?>
<!DOCTYPE svg PUBLIC "-//W3C//DTD SVG 1.1//EN"
 "http://www.w3.org/Graphics/SVG/1.1/DTD/svg11.dtd">
<!-- Generated by graphviz version 2.43.0 (0)
 -->
<!-- Title: Graph_Policies.hpp Pages: 1 -->
<svg width="252pt" height="252pt"
 viewBox="0.00 0.00 251.50 252.00" xmlns="http://www.w3.org/2000/svg" xmlns:xlink="http://www.w3.org/1999/xlink">
<g id="graph0" class="graph" transform="scale(1 1) rotate(0) translate(4 248)">
<title>Graph_Policies.hpp</title>
<polygon fill="white" stroke="transparent" points="-4,4 -4,-248 247.5,-248 247.5,4 -4,4"/>
<!-- Node1 -->
<g id="node1" class="node">
<title>Node1</title>
<g id="a_node1"><a xlink:title="Contains the classes mackey::bicolored_edge_with_id, mackey::MinLength, mackey::MinColorsLength.">
<polygon fill="#bfbfbf" stroke="black" points="72.5,-224.5 72.5,-243.5 182.5,-243.5 182.5,-224.5 72.5,-224.5"/>
<text text-anchor="middle" x="127.5" y="-231.5" font-family="Helvetica,sans-Serif" font-size="10.00">Graph_Policies.hpp</text>
</a>
</g>
</g>
<!-- Node2 -->
<g id="node2" class="node">
<title>Node2</title>
<g id="a_node2"><a xlink:href="Mult__Graph_8hpp.html" target="_top" xlink:title="Contains the class mackey::MultGraph.">
<polygon fill="white" stroke="black" points="80.5,-168.5 80.5,-187.5 174.5,-187.5 174.5,-168.5 80.5,-168.5"/>
<text text-anchor="middle" x="127.5" y="-175.5" font-family="Helvetica,sans-Serif" font-size="10.00">Mult_Graph.hpp</text>
</a>
</g>
</g>
<!-- Node1&#45;&gt;Node2 -->
<g id="edge1" class="edge">
<title>Node1&#45;&gt;Node2</title>
<path fill="none" stroke="midnightblue" d="M127.5,-213.8C127.5,-204.91 127.5,-194.78 127.5,-187.75"/>
<polygon fill="midnightblue" stroke="midnightblue" points="124,-214.08 127.5,-224.08 131,-214.08 124,-214.08"/>
</g>
<!-- Node3 -->
<g id="node3" class="node">
<title>Node3</title>
<g id="a_node3"><a xlink:href="Mult__Connectivity_8hpp.html" target="_top" xlink:title="Contains the class mackey::MultConnectivity.">
<polygon fill="white" stroke="black" points="0,-56.5 0,-75.5 125,-75.5 125,-56.5 0,-56.5"/>
<text text-anchor="middle" x="62.5" y="-63.5" font-family="Helvetica,sans-Serif" font-size="10.00">Mult_Connectivity.hpp</text>
</a>
</g>
</g>
<!-- Node2&#45;&gt;Node3 -->
<g id="edge2" class="edge">
<title>Node2&#45;&gt;Node3</title>
<path fill="none" stroke="midnightblue" d="M117.24,-159.64C103.12,-135.74 78.24,-93.63 67.58,-75.59"/>
<polygon fill="midnightblue" stroke="midnightblue" points="114.3,-161.54 122.4,-168.37 120.33,-157.98 114.3,-161.54"/>
</g>
<!-- Node5 -->
<g id="node5" class="node">
<title>Node5</title>
<g id="a_node5"><a xlink:href="Mult__Identify_8hpp.html" target="_top" xlink:title="Contains the class mackey::MultIdentify.">
<polygon fill="white" stroke="black" points="129.5,-112.5 129.5,-131.5 229.5,-131.5 229.5,-112.5 129.5,-112.5"/>
<text text-anchor="middle" x="179.5" y="-119.5" font-family="Helvetica,sans-Serif" font-size="10.00">Mult_Identify.hpp</text>
</a>
</g>
</g>
<!-- Node2&#45;&gt;Node5 -->
<g id="edge4" class="edge">
<title>Node2&#45;&gt;Node5</title>
<path fill="none" stroke="midnightblue" d="M143.18,-160.72C152.34,-151.2 163.55,-139.56 171.07,-131.75"/>
<polygon fill="midnightblue" stroke="midnightblue" points="140.5,-158.45 136.09,-168.08 145.54,-163.31 140.5,-158.45"/>
</g>
<!-- Node4 -->
<g id="node4" class="node">
<title>Node4</title>
<g id="a_node4"><a xlink:href="Mackey_8hpp.html" target="_top" xlink:title="Includes the entire library apart from Serialization/Cerealizer.hpp.">
<polygon fill="white" stroke="black" points="42.5,-0.5 42.5,-19.5 116.5,-19.5 116.5,-0.5 42.5,-0.5"/>
<text text-anchor="middle" x="79.5" y="-7.5" font-family="Helvetica,sans-Serif" font-size="10.00">Mackey.hpp</text>
</a>
</g>
</g>
<!-- Node3&#45;&gt;Node4 -->
<g id="edge3" class="edge">
<title>Node3&#45;&gt;Node4</title>
<path fill="none" stroke="midnightblue" d="M68.36,-46.4C71.2,-37.36 74.48,-26.94 76.75,-19.75"/>
<polygon fill="midnightblue" stroke="midnightblue" points="64.97,-45.49 65.31,-56.08 71.65,-47.6 64.97,-45.49"/>
</g>
<!-- Node6 -->
<g id="node6" class="node">
<title>Node6</title>
<g id="a_node6"><a xlink:href="Factorization_8hpp.html" target="_top" xlink:title="Contains the class mackey::Factorization.">
<polygon fill="white" stroke="black" points="143.5,-56.5 143.5,-75.5 243.5,-75.5 243.5,-56.5 143.5,-56.5"/>
<text text-anchor="middle" x="193.5" y="-63.5" font-family="Helvetica,sans-Serif" font-size="10.00">Factorization.hpp</text>
</a>
</g>
</g>
<!-- Node5&#45;&gt;Node6 -->
<g id="edge5" class="edge">
<title>Node5&#45;&gt;Node6</title>
<path fill="none" stroke="midnightblue" d="M184.32,-102.4C186.67,-93.36 189.37,-82.94 191.23,-75.75"/>
<polygon fill="midnightblue" stroke="midnightblue" points="180.93,-101.52 181.81,-112.08 187.71,-103.28 180.93,-101.52"/>
</g>
<!-- Node6&#45;&gt;Node4 -->
<g id="edge6" class="edge">
<title>Node6&#45;&gt;Node4</title>
<path fill="none" stroke="midnightblue" d="M166.26,-52.1C144.96,-42.01 115.96,-28.27 97.48,-19.52"/>
<polygon fill="midnightblue" stroke="midnightblue" points="164.9,-55.33 175.44,-56.44 167.9,-49 164.9,-55.33"/>
</g>
<!-- Node7 -->
<g id="node7" class="node">
<title>Node7</title>
<g id="a_node7"><a xlink:href="Cerealizer_8hpp.html" target="_top" xlink:title="Contains the methods for serializing the results of our computations via cereal.">
<polygon fill="white" stroke="black" points="150.5,-0.5 150.5,-19.5 236.5,-19.5 236.5,-0.5 150.5,-0.5"/>
<text text-anchor="middle" x="193.5" y="-7.5" font-family="Helvetica,sans-Serif" font-size="10.00">Cerealizer.hpp</text>
</a>
</g>
</g>
<!-- Node6&#45;&gt;Node7 -->
<g id="edge7" class="edge">
<title>Node6&#45;&gt;Node7</title>
<path fill="none" stroke="midnightblue" d="M193.5,-45.8C193.5,-36.91 193.5,-26.78 193.5,-19.75"/>
<polygon fill="midnightblue" stroke="midnightblue" points="190,-46.08 193.5,-56.08 197,-46.08 190,-46.08"/>
</g>
</g>
</svg>
