<?xml version="1.0" encoding="UTF-8" standalone="no"?>
<!DOCTYPE svg PUBLIC "-//W3C//DTD SVG 1.1//EN"
 "http://www.w3.org/Graphics/SVG/1.1/DTD/svg11.dtd">
<!-- Generated by graphviz version 2.43.0 (0)
 -->
<!-- Title: Homology.hpp Pages: 1 -->
<svg width="330pt" height="532pt"
 viewBox="0.00 0.00 329.50 532.00" xmlns="http://www.w3.org/2000/svg" xmlns:xlink="http://www.w3.org/1999/xlink">
<g id="graph0" class="graph" transform="scale(1 1) rotate(0) translate(4 528)">
<title>Homology.hpp</title>
<polygon fill="white" stroke="transparent" points="-4,4 -4,-528 325.5,-528 325.5,4 -4,4"/>
<!-- Node1 -->
<g id="node1" class="node">
<title>Node1</title>
<g id="a_node1"><a xlink:title="Contains the Homology class and algorithms.">
<polygon fill="#bfbfbf" stroke="black" points="103,-504.5 103,-523.5 189,-523.5 189,-504.5 103,-504.5"/>
<text text-anchor="middle" x="146" y="-511.5" font-family="Helvetica,sans-Serif" font-size="10.00">Homology.hpp</text>
</a>
</g>
</g>
<!-- Node2 -->
<g id="node2" class="node">
<title>Node2</title>
<g id="a_node2"><a xlink:href="Identify_8hpp.html" target="_top" xlink:title="Contains the identification classes.">
<polygon fill="white" stroke="black" points="65.5,-448.5 65.5,-467.5 138.5,-467.5 138.5,-448.5 65.5,-448.5"/>
<text text-anchor="middle" x="102" y="-455.5" font-family="Helvetica,sans-Serif" font-size="10.00">Identify.hpp</text>
</a>
</g>
</g>
<!-- Node1&#45;&gt;Node2 -->
<g id="edge1" class="edge">
<title>Node1&#45;&gt;Node2</title>
<path fill="none" stroke="midnightblue" d="M132.27,-496.14C124.6,-486.74 115.37,-475.4 109.13,-467.75"/>
<polygon fill="midnightblue" stroke="midnightblue" points="129.7,-498.54 138.73,-504.08 135.13,-494.12 129.7,-498.54"/>
</g>
<!-- Node16 -->
<g id="node16" class="node">
<title>Node16</title>
<g id="a_node16"><a xlink:href="Levels_8hpp.html" target="_top" xlink:title="Contains the methods for transfering, restricting and act&#45;group&#45;acting.">
<polygon fill="white" stroke="black" points="156.5,-448.5 156.5,-467.5 225.5,-467.5 225.5,-448.5 156.5,-448.5"/>
<text text-anchor="middle" x="191" y="-455.5" font-family="Helvetica,sans-Serif" font-size="10.00">Levels.hpp</text>
</a>
</g>
</g>
<!-- Node1&#45;&gt;Node16 -->
<g id="edge20" class="edge">
<title>Node1&#45;&gt;Node16</title>
<path fill="none" stroke="midnightblue" d="M160.05,-496.14C167.89,-486.74 177.33,-475.4 183.71,-467.75"/>
<polygon fill="midnightblue" stroke="midnightblue" points="157.14,-494.16 153.43,-504.08 162.52,-498.64 157.14,-494.16"/>
</g>
<!-- Node3 -->
<g id="node3" class="node">
<title>Node3</title>
<g id="a_node3"><a xlink:href="Green_8hpp.html" target="_top" xlink:title="Contains the class and methods for multiplying generators.">
<polygon fill="white" stroke="black" points="112.5,-392.5 112.5,-411.5 179.5,-411.5 179.5,-392.5 112.5,-392.5"/>
<text text-anchor="middle" x="146" y="-399.5" font-family="Helvetica,sans-Serif" font-size="10.00">Green.hpp</text>
</a>
</g>
</g>
<!-- Node2&#45;&gt;Node3 -->
<g id="edge2" class="edge">
<title>Node2&#45;&gt;Node3</title>
<path fill="none" stroke="midnightblue" d="M115.73,-440.14C123.4,-430.74 132.63,-419.4 138.87,-411.75"/>
<polygon fill="midnightblue" stroke="midnightblue" points="112.87,-438.12 109.27,-448.08 118.3,-442.54 112.87,-438.12"/>
</g>
<!-- Node4 -->
<g id="node4" class="node">
<title>Node4</title>
<g id="a_node4"><a xlink:href="Massey_8hpp.html" target="_top" xlink:title="Contains the class and methods for Massey Products.">
<polygon fill="white" stroke="black" points="109,-336.5 109,-355.5 183,-355.5 183,-336.5 109,-336.5"/>
<text text-anchor="middle" x="146" y="-343.5" font-family="Helvetica,sans-Serif" font-size="10.00">Massey.hpp</text>
</a>
</g>
</g>
<!-- Node3&#45;&gt;Node4 -->
<g id="edge3" class="edge">
<title>Node3&#45;&gt;Node4</title>
<path fill="none" stroke="midnightblue" d="M146,-381.8C146,-372.91 146,-362.78 146,-355.75"/>
<polygon fill="midnightblue" stroke="midnightblue" points="142.5,-382.08 146,-392.08 149.5,-382.08 142.5,-382.08"/>
</g>
<!-- Node5 -->
<g id="node5" class="node">
<title>Node5</title>
<g id="a_node5"><a xlink:href="Point_8hpp.html" target="_top" xlink:title="Contains the computations for RO(G) homology of a point.">
<polygon fill="white" stroke="black" points="115,-280.5 115,-299.5 177,-299.5 177,-280.5 115,-280.5"/>
<text text-anchor="middle" x="146" y="-287.5" font-family="Helvetica,sans-Serif" font-size="10.00">Point.hpp</text>
</a>
</g>
</g>
<!-- Node4&#45;&gt;Node5 -->
<g id="edge4" class="edge">
<title>Node4&#45;&gt;Node5</title>
<path fill="none" stroke="midnightblue" d="M146,-325.8C146,-316.91 146,-306.78 146,-299.75"/>
<polygon fill="midnightblue" stroke="midnightblue" points="142.5,-326.08 146,-336.08 149.5,-326.08 142.5,-326.08"/>
</g>
<!-- Node6 -->
<g id="node6" class="node">
<title>Node6</title>
<g id="a_node6"><a xlink:href="Mult__Table_8hpp.html" target="_top" xlink:title="Contains the classes mackey::MultTableData and mackey::MultTable that form the multiplication table.">
<polygon fill="white" stroke="black" points="101,-224.5 101,-243.5 191,-243.5 191,-224.5 101,-224.5"/>
<text text-anchor="middle" x="146" y="-231.5" font-family="Helvetica,sans-Serif" font-size="10.00">Mult_Table.hpp</text>
</a>
</g>
</g>
<!-- Node5&#45;&gt;Node6 -->
<g id="edge5" class="edge">
<title>Node5&#45;&gt;Node6</title>
<path fill="none" stroke="midnightblue" d="M146,-269.8C146,-260.91 146,-250.78 146,-243.75"/>
<polygon fill="midnightblue" stroke="midnightblue" points="142.5,-270.08 146,-280.08 149.5,-270.08 142.5,-270.08"/>
</g>
<!-- Node13 -->
<g id="node13" class="node">
<title>Node13</title>
<g id="a_node13"><a xlink:href="Additive_8hpp.html" target="_top" xlink:title="Contains the class for presenting the additive structure of the RO(G) homology.">
<polygon fill="white" stroke="black" points="0,-56.5 0,-75.5 78,-75.5 78,-56.5 0,-56.5"/>
<text text-anchor="middle" x="39" y="-63.5" font-family="Helvetica,sans-Serif" font-size="10.00">Additive.hpp</text>
</a>
</g>
</g>
<!-- Node5&#45;&gt;Node13 -->
<g id="edge14" class="edge">
<title>Node5&#45;&gt;Node13</title>
<path fill="none" stroke="midnightblue" d="M124.88,-273.99C91.94,-249.03 29.94,-195.43 9,-132 2.06,-110.99 19.28,-87.77 30.41,-75.57"/>
<polygon fill="midnightblue" stroke="midnightblue" points="123.22,-277.12 133.34,-280.25 127.39,-271.49 123.22,-277.12"/>
</g>
<!-- Node14 -->
<g id="node14" class="node">
<title>Node14</title>
<g id="a_node14"><a xlink:href="Space_8hpp.html" target="_top" xlink:title="File containing the class for spaces other than points!">
<polygon fill="white" stroke="black" points="231.5,-224.5 231.5,-243.5 298.5,-243.5 298.5,-224.5 231.5,-224.5"/>
<text text-anchor="middle" x="265" y="-231.5" font-family="Helvetica,sans-Serif" font-size="10.00">Space.hpp</text>
</a>
</g>
</g>
<!-- Node5&#45;&gt;Node14 -->
<g id="edge17" class="edge">
<title>Node5&#45;&gt;Node14</title>
<path fill="none" stroke="midnightblue" d="M174.14,-276.23C196.4,-266.13 226.86,-252.31 246.23,-243.52"/>
<polygon fill="midnightblue" stroke="midnightblue" points="172.52,-273.12 164.86,-280.44 175.41,-279.5 172.52,-273.12"/>
</g>
<!-- Node7 -->
<g id="node7" class="node">
<title>Node7</title>
<g id="a_node7"><a xlink:href="Mult__Graph_8hpp.html" target="_top" xlink:title="Contains the multiplication graph.">
<polygon fill="white" stroke="black" points="99,-168.5 99,-187.5 193,-187.5 193,-168.5 99,-168.5"/>
<text text-anchor="middle" x="146" y="-175.5" font-family="Helvetica,sans-Serif" font-size="10.00">Mult_Graph.hpp</text>
</a>
</g>
</g>
<!-- Node6&#45;&gt;Node7 -->
<g id="edge6" class="edge">
<title>Node6&#45;&gt;Node7</title>
<path fill="none" stroke="midnightblue" d="M146,-213.8C146,-204.91 146,-194.78 146,-187.75"/>
<polygon fill="midnightblue" stroke="midnightblue" points="142.5,-214.08 146,-224.08 149.5,-214.08 142.5,-214.08"/>
</g>
<!-- Node8 -->
<g id="node8" class="node">
<title>Node8</title>
<g id="a_node8"><a xlink:href="Factorization_8hpp.html" target="_top" xlink:title="Contains the multiplication graph and the methods for factorizing generators.">
<polygon fill="white" stroke="black" points="96,-56.5 96,-75.5 196,-75.5 196,-56.5 96,-56.5"/>
<text text-anchor="middle" x="146" y="-63.5" font-family="Helvetica,sans-Serif" font-size="10.00">Factorization.hpp</text>
</a>
</g>
</g>
<!-- Node7&#45;&gt;Node8 -->
<g id="edge7" class="edge">
<title>Node7&#45;&gt;Node8</title>
<path fill="none" stroke="midnightblue" d="M146,-158.35C146,-134.25 146,-93.31 146,-75.59"/>
<polygon fill="midnightblue" stroke="midnightblue" points="142.5,-158.37 146,-168.37 149.5,-158.37 142.5,-158.37"/>
</g>
<!-- Node11 -->
<g id="node11" class="node">
<title>Node11</title>
<g id="a_node11"><a xlink:href="Mult__Connectivity_8hpp.html" target="_top" xlink:title="Contains methods for the finding the connectivity of the multiplication graph should identification f...">
<polygon fill="white" stroke="black" points="174.5,-112.5 174.5,-131.5 299.5,-131.5 299.5,-112.5 174.5,-112.5"/>
<text text-anchor="middle" x="237" y="-119.5" font-family="Helvetica,sans-Serif" font-size="10.00">Mult_Connectivity.hpp</text>
</a>
</g>
</g>
<!-- Node7&#45;&gt;Node11 -->
<g id="edge10" class="edge">
<title>Node7&#45;&gt;Node11</title>
<path fill="none" stroke="midnightblue" d="M169.29,-163.18C186.04,-153.24 208.1,-140.15 222.42,-131.65"/>
<polygon fill="midnightblue" stroke="midnightblue" points="167.43,-160.21 160.62,-168.32 171.01,-166.23 167.43,-160.21"/>
</g>
<!-- Node12 -->
<g id="node12" class="node">
<title>Node12</title>
<g id="a_node12"><a xlink:href="Mult__Identify_8hpp.html" target="_top" xlink:title="Contains extra identification methods for the multiplication graph.">
<polygon fill="white" stroke="black" points="18,-112.5 18,-131.5 118,-131.5 118,-112.5 18,-112.5"/>
<text text-anchor="middle" x="68" y="-119.5" font-family="Helvetica,sans-Serif" font-size="10.00">Mult_Identify.hpp</text>
</a>
</g>
</g>
<!-- Node7&#45;&gt;Node12 -->
<g id="edge12" class="edge">
<title>Node7&#45;&gt;Node12</title>
<path fill="none" stroke="midnightblue" d="M125.23,-162.62C110.98,-152.76 92.54,-139.99 80.5,-131.65"/>
<polygon fill="midnightblue" stroke="midnightblue" points="123.25,-165.51 133.47,-168.32 127.24,-159.75 123.25,-165.51"/>
</g>
<!-- Node9 -->
<g id="node9" class="node">
<title>Node9</title>
<g id="a_node9"><a xlink:href="Mackey_8hpp.html" target="_top" xlink:title="Includes the entire library.">
<polygon fill="white" stroke="black" points="151,-0.5 151,-19.5 225,-19.5 225,-0.5 151,-0.5"/>
<text text-anchor="middle" x="188" y="-7.5" font-family="Helvetica,sans-Serif" font-size="10.00">Mackey.hpp</text>
</a>
</g>
</g>
<!-- Node8&#45;&gt;Node9 -->
<g id="edge8" class="edge">
<title>Node8&#45;&gt;Node9</title>
<path fill="none" stroke="midnightblue" d="M159.11,-48.14C166.43,-38.74 175.24,-27.4 181.19,-19.75"/>
<polygon fill="midnightblue" stroke="midnightblue" points="156.31,-46.04 152.94,-56.08 161.84,-50.34 156.31,-46.04"/>
</g>
<!-- Node10 -->
<g id="node10" class="node">
<title>Node10</title>
<g id="a_node10"><a xlink:href="Cerealizer_8hpp.html" target="_top" xlink:title="Contains the methods for serializing the results of our computations (before their interpretation) vi...">
<polygon fill="white" stroke="black" points="43,-0.5 43,-19.5 129,-19.5 129,-0.5 43,-0.5"/>
<text text-anchor="middle" x="86" y="-7.5" font-family="Helvetica,sans-Serif" font-size="10.00">Cerealizer.hpp</text>
</a>
</g>
</g>
<!-- Node8&#45;&gt;Node10 -->
<g id="edge9" class="edge">
<title>Node8&#45;&gt;Node10</title>
<path fill="none" stroke="midnightblue" d="M128.82,-49.54C118.12,-39.91 104.74,-27.87 95.82,-19.83"/>
<polygon fill="midnightblue" stroke="midnightblue" points="126.59,-52.24 136.36,-56.32 131.27,-47.03 126.59,-52.24"/>
</g>
<!-- Node11&#45;&gt;Node9 -->
<g id="edge11" class="edge">
<title>Node11&#45;&gt;Node9</title>
<path fill="none" stroke="midnightblue" d="M228.98,-103C218.29,-79 199.79,-37.47 191.83,-19.59"/>
<polygon fill="midnightblue" stroke="midnightblue" points="225.89,-104.66 233.16,-112.37 232.28,-101.81 225.89,-104.66"/>
</g>
<!-- Node12&#45;&gt;Node8 -->
<g id="edge13" class="edge">
<title>Node12&#45;&gt;Node8</title>
<path fill="none" stroke="midnightblue" d="M88.77,-106.62C103.02,-96.76 121.46,-83.99 133.5,-75.65"/>
<polygon fill="midnightblue" stroke="midnightblue" points="86.76,-103.75 80.53,-112.32 90.75,-109.51 86.76,-103.75"/>
</g>
<!-- Node13&#45;&gt;Node9 -->
<g id="edge15" class="edge">
<title>Node13&#45;&gt;Node9</title>
<path fill="none" stroke="midnightblue" d="M72.37,-52.91C100.38,-42.75 139.7,-28.51 164.5,-19.52"/>
<polygon fill="midnightblue" stroke="midnightblue" points="70.82,-49.75 62.61,-56.44 73.2,-56.33 70.82,-49.75"/>
</g>
<!-- Node13&#45;&gt;Node10 -->
<g id="edge16" class="edge">
<title>Node13&#45;&gt;Node10</title>
<path fill="none" stroke="midnightblue" d="M53.42,-48.43C61.66,-38.97 71.65,-27.48 78.38,-19.75"/>
<polygon fill="midnightblue" stroke="midnightblue" points="50.69,-46.24 46.76,-56.08 55.97,-50.84 50.69,-46.24"/>
</g>
<!-- Node15 -->
<g id="node15" class="node">
<title>Node15</title>
<g id="a_node15"><a xlink:href="BC4S2_8hpp.html" target="_top" xlink:title=" ">
<polygon fill="white" stroke="black" points="252.5,-168.5 252.5,-187.5 321.5,-187.5 321.5,-168.5 252.5,-168.5"/>
<text text-anchor="middle" x="287" y="-175.5" font-family="Helvetica,sans-Serif" font-size="10.00">BC4S2.hpp</text>
</a>
</g>
</g>
<!-- Node14&#45;&gt;Node15 -->
<g id="edge18" class="edge">
<title>Node14&#45;&gt;Node15</title>
<path fill="none" stroke="midnightblue" d="M272.46,-214.69C276.17,-205.59 280.48,-195.01 283.43,-187.75"/>
<polygon fill="midnightblue" stroke="midnightblue" points="269.16,-213.5 268.63,-224.08 275.65,-216.14 269.16,-213.5"/>
</g>
<!-- Node15&#45;&gt;Node9 -->
<g id="edge19" class="edge">
<title>Node15&#45;&gt;Node9</title>
<path fill="none" stroke="midnightblue" d="M299.73,-160.11C308.15,-146.75 316.38,-127.78 309,-112 287.66,-66.4 234.49,-34.17 206.27,-19.65"/>
<polygon fill="midnightblue" stroke="midnightblue" points="296.85,-158.13 294.07,-168.35 302.62,-162.09 296.85,-158.13"/>
</g>
<!-- Node16&#45;&gt;Node3 -->
<g id="edge21" class="edge">
<title>Node16&#45;&gt;Node3</title>
<path fill="none" stroke="midnightblue" d="M176.95,-440.14C169.11,-430.74 159.67,-419.4 153.29,-411.75"/>
<polygon fill="midnightblue" stroke="midnightblue" points="174.48,-442.64 183.57,-448.08 179.86,-438.16 174.48,-442.64"/>
</g>
</g>
</svg>
