<?xml version="1.0" encoding="UTF-8" standalone="no"?>
<!DOCTYPE svg PUBLIC "-//W3C//DTD SVG 1.1//EN"
 "http://www.w3.org/Graphics/SVG/1.1/DTD/svg11.dtd">
<!-- Generated by graphviz version 2.43.0 (0)
 -->
<!-- Title: Homology.hpp Pages: 1 -->
<!--zoomable 308 -->
<svg id="main" version="1.1" xmlns="http://www.w3.org/2000/svg" xmlns:xlink="http://www.w3.org/1999/xlink" xml:space="preserve" onload="init(evt)">
<style type="text/css"><![CDATA[
.edge:hover path { stroke: red; }
.edge:hover polygon { stroke: red; fill: red; }
]]></style>
<script type="text/javascript"><![CDATA[
var edges = document.getElementsByTagName('g');
if (edges && edges.length) {
  for (var i=0;i<edges.length;i++) {
    if (edges[i].id.substr(0,4)=='edge') {
      edges[i].setAttribute('class','edge');
    }
  }
}
]]></script>
        <defs>
                <circle id="rim" cx="0" cy="0" r="7"/>
                <circle id="rim2" cx="0" cy="0" r="3.5"/>
                <g id="zoomPlus">
                        <use xlink:href="#rim" fill="#404040">
                                <set attributeName="fill" to="#808080" begin="zoomplus.mouseover" end="zoomplus.mouseout"/>
                        </use>
                        <path d="M-4,0h8M0,-4v8" fill="none" stroke="white" stroke-width="1.5" pointer-events="none"/>
                </g>
                <g id="zoomMin">
                        <use xlink:href="#rim" fill="#404040">
                                <set attributeName="fill" to="#808080" begin="zoomminus.mouseover" end="zoomminus.mouseout"/>
                        </use>
                        <path d="M-4,0h8" fill="none" stroke="white" stroke-width="1.5" pointer-events="none"/>
                </g>
                <g id="dirArrow">
                        <path fill="none" stroke="white" stroke-width="1.5" d="M0,-3.0v7 M-2.5,-0.5L0,-3.0L2.5,-0.5"/>
                </g>
               <g id="resetDef">
                       <use xlink:href="#rim2" fill="#404040">
                               <set attributeName="fill" to="#808080" begin="reset.mouseover" end="reset.mouseout"/>
                       </use>
               </g>
        </defs>

<script type="text/javascript">
var viewWidth = 567;
var viewHeight = 308;
var sectionId = 'dynsection-0';
</script>
<script xlink:href="svgpan.js"/>
<svg id="graph" class="graph">
<g id="viewport">
<title>Homology.hpp</title>
<polygon fill="white" stroke="transparent" points="-4,4 -4,-304 563.38,-304 563.38,4 -4,4"/>
<!-- Node1 -->
<g id="node1" class="node">
<title>Node1</title>
<g id="a_node1"><a xlink:title="Contains the Homology class and algorithms.">
<polygon fill="#bfbfbf" stroke="black" points="229.38,-280.5 229.38,-299.5 315.38,-299.5 315.38,-280.5 229.38,-280.5"/>
<text text-anchor="middle" x="272.38" y="-287.5" font-family="Helvetica,sans-Serif" font-size="10.00">Homology.hpp</text>
</a>
</g>
</g>
<!-- Node2 -->
<g id="node2" class="node">
<title>Node2</title>
<g id="a_node2"><a xlink:href="Chains_8hpp.html" target="_top" xlink:title="Contains Chains and Junction classes for using chain complexes.">
<polygon fill="white" stroke="black" points="2.88,-224.5 2.88,-243.5 163.88,-243.5 163.88,-224.5 2.88,-224.5"/>
<text text-anchor="middle" x="83.38" y="-231.5" font-family="Helvetica,sans-Serif" font-size="10.00">Chain_Complexes/Chains.hpp</text>
</a>
</g>
</g>
<!-- Node1&#45;&gt;Node2 -->
<g id="edge1" class="edge">
<title>Node1&#45;&gt;Node2</title>
<path fill="none" stroke="midnightblue" d="M242.43,-280.44C210.22,-271.24 158.85,-256.56 123.24,-246.39"/>
<polygon fill="midnightblue" stroke="midnightblue" points="123.77,-242.9 113.19,-243.52 121.84,-249.63 123.77,-242.9"/>
</g>
<!-- Node6 -->
<g id="node6" class="node">
<title>Node6</title>
<g id="a_node6"><a xlink:href="General_8hpp.html" target="_top" xlink:title="Contains general functions and vector overloads independent of everything else.">
<polygon fill="white" stroke="black" points="282.88,-168.5 282.88,-187.5 391.88,-187.5 391.88,-168.5 282.88,-168.5"/>
<text text-anchor="middle" x="337.38" y="-175.5" font-family="Helvetica,sans-Serif" font-size="10.00">Utility/General.hpp</text>
</a>
</g>
</g>
<!-- Node1&#45;&gt;Node6 -->
<g id="edge5" class="edge">
<title>Node1&#45;&gt;Node6</title>
<path fill="none" stroke="midnightblue" d="M273.47,-280.45C275.41,-267.46 280.37,-242.35 291.38,-224 298.16,-212.7 308.45,-202.27 317.58,-194.3"/>
<polygon fill="midnightblue" stroke="midnightblue" points="320.05,-196.79 325.51,-187.71 315.58,-191.41 320.05,-196.79"/>
</g>
<!-- Node15 -->
<g id="node15" class="node">
<title>Node15</title>
<g id="a_node15"><a xlink:href="Smith_8hpp.html" target="_top" xlink:title="Contains the base class for all Smith implementations.">
<polygon fill="white" stroke="black" points="198.38,-168.5 198.38,-187.5 264.38,-187.5 264.38,-168.5 198.38,-168.5"/>
<text text-anchor="middle" x="231.38" y="-175.5" font-family="Helvetica,sans-Serif" font-size="10.00">Smith.hpp</text>
</a>
</g>
</g>
<!-- Node1&#45;&gt;Node15 -->
<g id="edge15" class="edge">
<title>Node1&#45;&gt;Node15</title>
<path fill="none" stroke="midnightblue" d="M269.16,-280.37C262.52,-262.54 247.15,-221.3 238.19,-197.27"/>
<polygon fill="midnightblue" stroke="midnightblue" points="241.36,-195.74 234.58,-187.59 234.8,-198.18 241.36,-195.74"/>
</g>
<!-- Node17 -->
<g id="node17" class="node">
<title>Node17</title>
<g id="a_node17"><a xlink:href="Abelian_8hpp.html" target="_top" xlink:title="Contains the methods for finding the automorphisms of finitely generated abelian groups.">
<polygon fill="white" stroke="black" points="300.38,-224.5 300.38,-243.5 374.38,-243.5 374.38,-224.5 300.38,-224.5"/>
<text text-anchor="middle" x="337.38" y="-231.5" font-family="Helvetica,sans-Serif" font-size="10.00">Abelian.hpp</text>
</a>
</g>
</g>
<!-- Node1&#45;&gt;Node17 -->
<g id="edge19" class="edge">
<title>Node1&#45;&gt;Node17</title>
<path fill="none" stroke="midnightblue" d="M282.82,-280.32C292.53,-272.26 307.2,-260.08 318.88,-250.37"/>
<polygon fill="midnightblue" stroke="midnightblue" points="321.29,-252.92 326.75,-243.83 316.82,-247.53 321.29,-252.92"/>
</g>
<!-- Node19 -->
<g id="node19" class="node">
<title>Node19</title>
<g id="a_node19"><a xlink:title=" ">
<polygon fill="white" stroke="#bfbfbf" points="392.38,-224.5 392.38,-243.5 500.38,-243.5 500.38,-224.5 392.38,-224.5"/>
<text text-anchor="middle" x="446.38" y="-231.5" font-family="Helvetica,sans-Serif" font-size="10.00">impl/Homology.ipp</text>
</a>
</g>
</g>
<!-- Node1&#45;&gt;Node19 -->
<g id="edge22" class="edge">
<title>Node1&#45;&gt;Node19</title>
<path fill="none" stroke="midnightblue" d="M299.95,-280.44C329.48,-271.28 376.5,-256.69 409.26,-246.52"/>
<polygon fill="midnightblue" stroke="midnightblue" points="410.43,-249.82 418.94,-243.52 408.35,-243.14 410.43,-249.82"/>
</g>
<!-- Node3 -->
<g id="node3" class="node">
<title>Node3</title>
<g id="a_node3"><a xlink:title=" ">
<polygon fill="white" stroke="#bfbfbf" points="15.88,-112.5 15.88,-131.5 62.88,-131.5 62.88,-112.5 15.88,-112.5"/>
<text text-anchor="middle" x="39.38" y="-119.5" font-family="Helvetica,sans-Serif" font-size="10.00">vector</text>
</a>
</g>
</g>
<!-- Node2&#45;&gt;Node3 -->
<g id="edge2" class="edge">
<title>Node2&#45;&gt;Node3</title>
<path fill="none" stroke="midnightblue" d="M53.13,-224.49C35.26,-217.73 14.08,-206.29 3.38,-188 -6.31,-171.43 7.43,-152.16 20.63,-138.93"/>
<polygon fill="midnightblue" stroke="midnightblue" points="23.24,-141.29 28.16,-131.91 18.46,-136.17 23.24,-141.29"/>
</g>
<!-- Node4 -->
<g id="node4" class="node">
<title>Node4</title>
<g id="a_node4"><a xlink:title=" ">
<polygon fill="white" stroke="#bfbfbf" points="12.88,-168.5 12.88,-187.5 69.88,-187.5 69.88,-168.5 12.88,-168.5"/>
<text text-anchor="middle" x="41.38" y="-175.5" font-family="Helvetica,sans-Serif" font-size="10.00">ostream</text>
</a>
</g>
</g>
<!-- Node2&#45;&gt;Node4 -->
<g id="edge3" class="edge">
<title>Node2&#45;&gt;Node4</title>
<path fill="none" stroke="midnightblue" d="M76.45,-224.08C70.45,-216.38 61.63,-205.03 54.33,-195.65"/>
<polygon fill="midnightblue" stroke="midnightblue" points="57.09,-193.5 48.19,-187.75 51.56,-197.79 57.09,-193.5"/>
</g>
<!-- Node5 -->
<g id="node5" class="node">
<title>Node5</title>
<g id="a_node5"><a xlink:title=" ">
<polygon fill="white" stroke="#bfbfbf" points="88.38,-168.5 88.38,-187.5 180.38,-187.5 180.38,-168.5 88.38,-168.5"/>
<text text-anchor="middle" x="134.38" y="-175.5" font-family="Helvetica,sans-Serif" font-size="10.00">impl/Chains.ipp</text>
</a>
</g>
</g>
<!-- Node2&#45;&gt;Node5 -->
<g id="edge4" class="edge">
<title>Node2&#45;&gt;Node5</title>
<path fill="none" stroke="midnightblue" d="M91.8,-224.08C99.23,-216.22 110.23,-204.57 119.19,-195.08"/>
<polygon fill="midnightblue" stroke="midnightblue" points="121.79,-197.42 126.12,-187.75 116.71,-192.62 121.79,-197.42"/>
</g>
<!-- Node6&#45;&gt;Node3 -->
<g id="edge6" class="edge">
<title>Node6&#45;&gt;Node3</title>
<path fill="none" stroke="midnightblue" d="M282.77,-169.33C231.19,-161.72 151.48,-149.04 73.15,-131.98"/>
<polygon fill="midnightblue" stroke="midnightblue" points="73.62,-128.5 63.1,-129.77 72.12,-135.34 73.62,-128.5"/>
</g>
<!-- Node7 -->
<g id="node7" class="node">
<title>Node7</title>
<g id="a_node7"><a xlink:href="Aliases_8hpp.html" target="_top" xlink:title="Contains general template aliases.">
<polygon fill="white" stroke="black" points="187.38,-112.5 187.38,-131.5 291.38,-131.5 291.38,-112.5 187.38,-112.5"/>
<text text-anchor="middle" x="239.38" y="-119.5" font-family="Helvetica,sans-Serif" font-size="10.00">Types/Aliases.hpp</text>
</a>
</g>
</g>
<!-- Node6&#45;&gt;Node7 -->
<g id="edge7" class="edge">
<title>Node6&#45;&gt;Node7</title>
<path fill="none" stroke="midnightblue" d="M321.64,-168.32C306.06,-159.74 282,-146.49 263.92,-136.52"/>
<polygon fill="midnightblue" stroke="midnightblue" points="265.53,-133.42 255.09,-131.65 262.16,-139.55 265.53,-133.42"/>
</g>
<!-- Node12 -->
<g id="node12" class="node">
<title>Node12</title>
<g id="a_node12"><a xlink:title=" ">
<polygon fill="white" stroke="#bfbfbf" points="309.38,-112.5 309.38,-131.5 365.38,-131.5 365.38,-112.5 309.38,-112.5"/>
<text text-anchor="middle" x="337.38" y="-119.5" font-family="Helvetica,sans-Serif" font-size="10.00">numeric</text>
</a>
</g>
</g>
<!-- Node6&#45;&gt;Node12 -->
<g id="edge12" class="edge">
<title>Node6&#45;&gt;Node12</title>
<path fill="none" stroke="midnightblue" d="M337.38,-168.08C337.38,-161.01 337.38,-150.86 337.38,-141.99"/>
<polygon fill="midnightblue" stroke="midnightblue" points="340.88,-141.75 337.38,-131.75 333.88,-141.75 340.88,-141.75"/>
</g>
<!-- Node13 -->
<g id="node13" class="node">
<title>Node13</title>
<g id="a_node13"><a xlink:title=" ">
<polygon fill="white" stroke="#bfbfbf" points="383.38,-112.5 383.38,-131.5 443.38,-131.5 443.38,-112.5 383.38,-112.5"/>
<text text-anchor="middle" x="413.38" y="-119.5" font-family="Helvetica,sans-Serif" font-size="10.00">iostream</text>
</a>
</g>
</g>
<!-- Node6&#45;&gt;Node13 -->
<g id="edge13" class="edge">
<title>Node6&#45;&gt;Node13</title>
<path fill="none" stroke="midnightblue" d="M349.59,-168.32C361.16,-160.11 378.76,-147.6 392.54,-137.81"/>
<polygon fill="midnightblue" stroke="midnightblue" points="394.82,-140.48 400.95,-131.83 390.77,-134.77 394.82,-140.48"/>
</g>
<!-- Node14 -->
<g id="node14" class="node">
<title>Node14</title>
<g id="a_node14"><a xlink:title=" ">
<polygon fill="white" stroke="#bfbfbf" points="461.38,-112.5 461.38,-131.5 559.38,-131.5 559.38,-112.5 461.38,-112.5"/>
<text text-anchor="middle" x="510.38" y="-119.5" font-family="Helvetica,sans-Serif" font-size="10.00">impl/General.ipp</text>
</a>
</g>
</g>
<!-- Node6&#45;&gt;Node14 -->
<g id="edge14" class="edge">
<title>Node6&#45;&gt;Node14</title>
<path fill="none" stroke="midnightblue" d="M364.79,-168.44C394.15,-159.28 440.9,-144.69 473.48,-134.52"/>
<polygon fill="midnightblue" stroke="midnightblue" points="474.59,-137.84 483.1,-131.52 472.51,-131.16 474.59,-137.84"/>
</g>
<!-- Node8 -->
<g id="node8" class="node">
<title>Node8</title>
<g id="a_node8"><a xlink:title=" ">
<polygon fill="white" stroke="#bfbfbf" points="103.88,-56.5 103.88,-75.5 180.88,-75.5 180.88,-56.5 103.88,-56.5"/>
<text text-anchor="middle" x="142.38" y="-63.5" font-family="Helvetica,sans-Serif" font-size="10.00">Eigen/Dense</text>
</a>
</g>
</g>
<!-- Node7&#45;&gt;Node8 -->
<g id="edge8" class="edge">
<title>Node7&#45;&gt;Node8</title>
<path fill="none" stroke="midnightblue" d="M223.8,-112.32C208.38,-103.74 184.57,-90.49 166.67,-80.52"/>
<polygon fill="midnightblue" stroke="midnightblue" points="168.37,-77.46 157.93,-75.65 164.96,-83.58 168.37,-77.46"/>
</g>
<!-- Node9 -->
<g id="node9" class="node">
<title>Node9</title>
<g id="a_node9"><a xlink:title=" ">
<polygon fill="white" stroke="#bfbfbf" points="199.38,-56.5 199.38,-75.5 279.38,-75.5 279.38,-56.5 199.38,-56.5"/>
<text text-anchor="middle" x="239.38" y="-63.5" font-family="Helvetica,sans-Serif" font-size="10.00">Eigen/Sparse</text>
</a>
</g>
</g>
<!-- Node7&#45;&gt;Node9 -->
<g id="edge9" class="edge">
<title>Node7&#45;&gt;Node9</title>
<path fill="none" stroke="midnightblue" d="M239.38,-112.08C239.38,-105.01 239.38,-94.86 239.38,-85.99"/>
<polygon fill="midnightblue" stroke="midnightblue" points="242.88,-85.75 239.38,-75.75 235.88,-85.75 242.88,-85.75"/>
</g>
<!-- Node10 -->
<g id="node10" class="node">
<title>Node10</title>
<g id="a_node10"><a xlink:href="SFINAE_8hpp.html" target="_top" xlink:title="Contains all the SFINAE tricks.">
<polygon fill="white" stroke="black" points="297.88,-56.5 297.88,-75.5 370.88,-75.5 370.88,-56.5 297.88,-56.5"/>
<text text-anchor="middle" x="334.38" y="-63.5" font-family="Helvetica,sans-Serif" font-size="10.00">SFINAE.hpp</text>
</a>
</g>
</g>
<!-- Node7&#45;&gt;Node10 -->
<g id="edge10" class="edge">
<title>Node7&#45;&gt;Node10</title>
<path fill="none" stroke="midnightblue" d="M254.64,-112.32C269.6,-103.82 292.64,-90.73 310.11,-80.8"/>
<polygon fill="midnightblue" stroke="midnightblue" points="312.19,-83.64 319.16,-75.65 308.73,-77.55 312.19,-83.64"/>
</g>
<!-- Node11 -->
<g id="node11" class="node">
<title>Node11</title>
<g id="a_node11"><a xlink:title=" ">
<polygon fill="white" stroke="#bfbfbf" points="299.88,-0.5 299.88,-19.5 368.88,-19.5 368.88,-0.5 299.88,-0.5"/>
<text text-anchor="middle" x="334.38" y="-7.5" font-family="Helvetica,sans-Serif" font-size="10.00">type_traits</text>
</a>
</g>
</g>
<!-- Node10&#45;&gt;Node11 -->
<g id="edge11" class="edge">
<title>Node10&#45;&gt;Node11</title>
<path fill="none" stroke="midnightblue" d="M334.38,-56.08C334.38,-49.01 334.38,-38.86 334.38,-29.99"/>
<polygon fill="midnightblue" stroke="midnightblue" points="337.88,-29.75 334.38,-19.75 330.88,-29.75 337.88,-29.75"/>
</g>
<!-- Node15&#45;&gt;Node3 -->
<g id="edge16" class="edge">
<title>Node15&#45;&gt;Node3</title>
<path fill="none" stroke="midnightblue" d="M200.96,-168.44C166.12,-158.65 109.21,-142.64 73.06,-132.47"/>
<polygon fill="midnightblue" stroke="midnightblue" points="73.58,-128.98 63,-129.64 71.68,-135.72 73.58,-128.98"/>
</g>
<!-- Node15&#45;&gt;Node7 -->
<g id="edge17" class="edge">
<title>Node15&#45;&gt;Node7</title>
<path fill="none" stroke="midnightblue" d="M232.7,-168.08C233.76,-160.93 235.29,-150.64 236.61,-141.69"/>
<polygon fill="midnightblue" stroke="midnightblue" points="240.08,-142.16 238.08,-131.75 233.16,-141.13 240.08,-142.16"/>
</g>
<!-- Node16 -->
<g id="node16" class="node">
<title>Node16</title>
<g id="a_node16"><a xlink:title=" ">
<polygon fill="white" stroke="#bfbfbf" points="81.38,-112.5 81.38,-131.5 169.38,-131.5 169.38,-112.5 81.38,-112.5"/>
<text text-anchor="middle" x="125.38" y="-119.5" font-family="Helvetica,sans-Serif" font-size="10.00">impl/Smith.ipp</text>
</a>
</g>
</g>
<!-- Node15&#45;&gt;Node16 -->
<g id="edge18" class="edge">
<title>Node15&#45;&gt;Node16</title>
<path fill="none" stroke="midnightblue" d="M214.35,-168.32C197.35,-159.66 171,-146.24 151.39,-136.25"/>
<polygon fill="midnightblue" stroke="midnightblue" points="152.87,-133.08 142.37,-131.65 149.69,-139.31 152.87,-133.08"/>
</g>
<!-- Node17&#45;&gt;Node6 -->
<g id="edge20" class="edge">
<title>Node17&#45;&gt;Node6</title>
<path fill="none" stroke="midnightblue" d="M337.38,-224.08C337.38,-217.01 337.38,-206.86 337.38,-197.99"/>
<polygon fill="midnightblue" stroke="midnightblue" points="340.88,-197.75 337.38,-187.75 333.88,-197.75 340.88,-197.75"/>
</g>
<!-- Node18 -->
<g id="node18" class="node">
<title>Node18</title>
<g id="a_node18"><a xlink:title=" ">
<polygon fill="white" stroke="#bfbfbf" points="410.38,-168.5 410.38,-187.5 506.38,-187.5 506.38,-168.5 410.38,-168.5"/>
<text text-anchor="middle" x="458.38" y="-175.5" font-family="Helvetica,sans-Serif" font-size="10.00">impl/Abelian.ipp</text>
</a>
</g>
</g>
<!-- Node17&#45;&gt;Node18 -->
<g id="edge21" class="edge">
<title>Node17&#45;&gt;Node18</title>
<path fill="none" stroke="midnightblue" d="M356.55,-224.44C376.29,-215.64 407.27,-201.81 429.87,-191.72"/>
<polygon fill="midnightblue" stroke="midnightblue" points="431.59,-194.79 439.3,-187.52 428.74,-188.4 431.59,-194.79"/>
</g>
</g>
</svg>
        <g id="navigator" transform="translate(0 0)" fill="#404254">
                <rect fill="#f2f5e9" fill-opacity="0.5" stroke="#606060" stroke-width=".5" x="0" y="0" width="60" height="60"/>
                <use id="zoomplus" xlink:href="#zoomPlus" x="17" y="9" onmousedown="handleZoom(evt,'in')"/>
                <use id="zoomminus" xlink:href="#zoomMin" x="42" y="9" onmousedown="handleZoom(evt,'out')"/>
                <use id="reset" xlink:href="#resetDef" x="30" y="36" onmousedown="handleReset()"/>
                <g id="arrowUp" xlink:href="#dirArrow" transform="translate(30 24)" onmousedown="handlePan(0,-1)">
                  <use xlink:href="#rim" fill="#404040">
                        <set attributeName="fill" to="#808080" begin="arrowUp.mouseover" end="arrowUp.mouseout"/>
                  </use>
                  <path fill="none" stroke="white" stroke-width="1.5" d="M0,-3.0v7 M-2.5,-0.5L0,-3.0L2.5,-0.5"/>
                </g>
                <g id="arrowRight" xlink:href="#dirArrow" transform="rotate(90) translate(36 -43)" onmousedown="handlePan(1,0)">
                  <use xlink:href="#rim" fill="#404040">
                        <set attributeName="fill" to="#808080" begin="arrowRight.mouseover" end="arrowRight.mouseout"/>
                  </use>
                  <path fill="none" stroke="white" stroke-width="1.5" d="M0,-3.0v7 M-2.5,-0.5L0,-3.0L2.5,-0.5"/>
                </g>
                <g id="arrowDown" xlink:href="#dirArrow" transform="rotate(180) translate(-30 -48)" onmousedown="handlePan(0,1)">
                  <use xlink:href="#rim" fill="#404040">
                        <set attributeName="fill" to="#808080" begin="arrowDown.mouseover" end="arrowDown.mouseout"/>
                  </use>
                  <path fill="none" stroke="white" stroke-width="1.5" d="M0,-3.0v7 M-2.5,-0.5L0,-3.0L2.5,-0.5"/>
                </g>
                <g id="arrowLeft" xlink:href="#dirArrow" transform="rotate(270) translate(-36 17)" onmousedown="handlePan(-1,0)">
                  <use xlink:href="#rim" fill="#404040">
                        <set attributeName="fill" to="#808080" begin="arrowLeft.mouseover" end="arrowLeft.mouseout"/>
                  </use>
                  <path fill="none" stroke="white" stroke-width="1.5" d="M0,-3.0v7 M-2.5,-0.5L0,-3.0L2.5,-0.5"/>
                </g>
        </g>
        <svg viewBox="0 0 15 15" width="100%" height="30px" preserveAspectRatio="xMaxYMin meet">
         <g id="arrow_out" transform="scale(0.3 0.3)">
          <a xlink:href="Homology_8hpp__incl_org.svg" target="_base">
           <rect id="button" ry="5" rx="5" y="6" x="6" height="38" width="38"
                fill="#f2f5e9" fill-opacity="0.5" stroke="#606060" stroke-width="1.0"/>
           <path id="arrow"
             d="M 11.500037,31.436501 C 11.940474,20.09759 22.043105,11.32322 32.158766,21.979434 L 37.068811,17.246167 C 37.068811,17.246167 37.088388,32 37.088388,32 L 22.160133,31.978069 C 22.160133,31.978069 26.997745,27.140456 26.997745,27.140456 C 18.528582,18.264221 13.291696,25.230495 11.500037,31.436501 z"
             style="fill:#404040;"/>
          </a>
         </g>
        </svg>
</svg>
