<?xml version="1.0" encoding="UTF-8" standalone="no"?>
<!DOCTYPE svg PUBLIC "-//W3C//DTD SVG 1.1//EN"
 "http://www.w3.org/Graphics/SVG/1.1/DTD/svg11.dtd">
<!-- Generated by graphviz version 2.43.0 (0)
 -->
<!-- Title: Identify.hpp Pages: 1 -->
<svg width="279pt" height="476pt"
 viewBox="0.00 0.00 279.00 476.00" xmlns="http://www.w3.org/2000/svg" xmlns:xlink="http://www.w3.org/1999/xlink">
<g id="graph0" class="graph" transform="scale(1 1) rotate(0) translate(4 472)">
<title>Identify.hpp</title>
<polygon fill="white" stroke="transparent" points="-4,4 -4,-472 275,-472 275,4 -4,4"/>
<!-- Node1 -->
<g id="node1" class="node">
<title>Node1</title>
<g id="a_node1"><a xlink:title="Contains the identification classes.">
<polygon fill="#bfbfbf" stroke="black" points="128.5,-448.5 128.5,-467.5 201.5,-467.5 201.5,-448.5 128.5,-448.5"/>
<text text-anchor="middle" x="165" y="-455.5" font-family="Helvetica,sans-Serif" font-size="10.00">Identify.hpp</text>
</a>
</g>
</g>
<!-- Node2 -->
<g id="node2" class="node">
<title>Node2</title>
<g id="a_node2"><a xlink:href="Green_8hpp.html" target="_top" xlink:title="Contains the class and methods for multiplying generators.">
<polygon fill="white" stroke="black" points="131.5,-392.5 131.5,-411.5 198.5,-411.5 198.5,-392.5 131.5,-392.5"/>
<text text-anchor="middle" x="165" y="-399.5" font-family="Helvetica,sans-Serif" font-size="10.00">Green.hpp</text>
</a>
</g>
</g>
<!-- Node1&#45;&gt;Node2 -->
<g id="edge1" class="edge">
<title>Node1&#45;&gt;Node2</title>
<path fill="none" stroke="midnightblue" d="M165,-437.8C165,-428.91 165,-418.78 165,-411.75"/>
<polygon fill="midnightblue" stroke="midnightblue" points="161.5,-438.08 165,-448.08 168.5,-438.08 161.5,-438.08"/>
</g>
<!-- Node3 -->
<g id="node3" class="node">
<title>Node3</title>
<g id="a_node3"><a xlink:href="Massey_8hpp.html" target="_top" xlink:title="Contains the class and methods for Massey Products.">
<polygon fill="white" stroke="black" points="128,-336.5 128,-355.5 202,-355.5 202,-336.5 128,-336.5"/>
<text text-anchor="middle" x="165" y="-343.5" font-family="Helvetica,sans-Serif" font-size="10.00">Massey.hpp</text>
</a>
</g>
</g>
<!-- Node2&#45;&gt;Node3 -->
<g id="edge2" class="edge">
<title>Node2&#45;&gt;Node3</title>
<path fill="none" stroke="midnightblue" d="M165,-381.8C165,-372.91 165,-362.78 165,-355.75"/>
<polygon fill="midnightblue" stroke="midnightblue" points="161.5,-382.08 165,-392.08 168.5,-382.08 161.5,-382.08"/>
</g>
<!-- Node4 -->
<g id="node4" class="node">
<title>Node4</title>
<g id="a_node4"><a xlink:href="Compute_8hpp.html" target="_top" xlink:title="Contains the computations for RO(G) Chains and Homology as Mackey and Green functors.">
<polygon fill="white" stroke="black" points="124,-280.5 124,-299.5 206,-299.5 206,-280.5 124,-280.5"/>
<text text-anchor="middle" x="165" y="-287.5" font-family="Helvetica,sans-Serif" font-size="10.00">Compute.hpp</text>
</a>
</g>
</g>
<!-- Node3&#45;&gt;Node4 -->
<g id="edge3" class="edge">
<title>Node3&#45;&gt;Node4</title>
<path fill="none" stroke="midnightblue" d="M165,-325.8C165,-316.91 165,-306.78 165,-299.75"/>
<polygon fill="midnightblue" stroke="midnightblue" points="161.5,-326.08 165,-336.08 168.5,-326.08 161.5,-326.08"/>
</g>
<!-- Node5 -->
<g id="node5" class="node">
<title>Node5</title>
<g id="a_node5"><a xlink:href="Mult__Table_8hpp.html" target="_top" xlink:title="Contains the class and methods to form the multiplication table.">
<polygon fill="white" stroke="black" points="23,-224.5 23,-243.5 113,-243.5 113,-224.5 23,-224.5"/>
<text text-anchor="middle" x="68" y="-231.5" font-family="Helvetica,sans-Serif" font-size="10.00">Mult_Table.hpp</text>
</a>
</g>
</g>
<!-- Node4&#45;&gt;Node5 -->
<g id="edge4" class="edge">
<title>Node4&#45;&gt;Node5</title>
<path fill="none" stroke="midnightblue" d="M140.66,-275.45C122.76,-265.48 98.95,-252.23 83.55,-243.65"/>
<polygon fill="midnightblue" stroke="midnightblue" points="138.98,-278.52 149.42,-280.32 142.38,-272.4 138.98,-278.52"/>
</g>
<!-- Node10 -->
<g id="node10" class="node">
<title>Node10</title>
<g id="a_node10"><a xlink:href="Space_8hpp.html" target="_top" xlink:title="File containing the class for spaces other than points!">
<polygon fill="white" stroke="black" points="131.5,-224.5 131.5,-243.5 198.5,-243.5 198.5,-224.5 131.5,-224.5"/>
<text text-anchor="middle" x="165" y="-231.5" font-family="Helvetica,sans-Serif" font-size="10.00">Space.hpp</text>
</a>
</g>
</g>
<!-- Node4&#45;&gt;Node10 -->
<g id="edge9" class="edge">
<title>Node4&#45;&gt;Node10</title>
<path fill="none" stroke="midnightblue" d="M165,-269.8C165,-260.91 165,-250.78 165,-243.75"/>
<polygon fill="midnightblue" stroke="midnightblue" points="161.5,-270.08 165,-280.08 168.5,-270.08 161.5,-270.08"/>
</g>
<!-- Node12 -->
<g id="node12" class="node">
<title>Node12</title>
<g id="a_node12"><a xlink:href="Additive_8hpp.html" target="_top" xlink:title="Contains the class for presenting the additive structure of the RO(G) homology.">
<polygon fill="white" stroke="black" points="193,-112.5 193,-131.5 271,-131.5 271,-112.5 193,-112.5"/>
<text text-anchor="middle" x="232" y="-119.5" font-family="Helvetica,sans-Serif" font-size="10.00">Additive.hpp</text>
</a>
</g>
</g>
<!-- Node4&#45;&gt;Node12 -->
<g id="edge12" class="edge">
<title>Node4&#45;&gt;Node12</title>
<path fill="none" stroke="midnightblue" d="M183.68,-273.37C192.04,-265.41 201.27,-255.08 207,-244 226.91,-205.51 230.96,-152.43 231.79,-131.74"/>
<polygon fill="midnightblue" stroke="midnightblue" points="181.17,-270.92 176.09,-280.22 185.86,-276.12 181.17,-270.92"/>
</g>
<!-- Node6 -->
<g id="node6" class="node">
<title>Node6</title>
<g id="a_node6"><a xlink:href="Mult__Graph_8hpp.html" target="_top" xlink:title="Contains the multiplication graph.">
<polygon fill="white" stroke="black" points="21,-168.5 21,-187.5 115,-187.5 115,-168.5 21,-168.5"/>
<text text-anchor="middle" x="68" y="-175.5" font-family="Helvetica,sans-Serif" font-size="10.00">Mult_Graph.hpp</text>
</a>
</g>
</g>
<!-- Node5&#45;&gt;Node6 -->
<g id="edge5" class="edge">
<title>Node5&#45;&gt;Node6</title>
<path fill="none" stroke="midnightblue" d="M68,-213.8C68,-204.91 68,-194.78 68,-187.75"/>
<polygon fill="midnightblue" stroke="midnightblue" points="64.5,-214.08 68,-224.08 71.5,-214.08 64.5,-214.08"/>
</g>
<!-- Node7 -->
<g id="node7" class="node">
<title>Node7</title>
<g id="a_node7"><a xlink:href="Mult__Graph__Identify_8hpp.html" target="_top" xlink:title="Contains extra identification methods for the multiplication graph.">
<polygon fill="white" stroke="black" points="0,-112.5 0,-131.5 134,-131.5 134,-112.5 0,-112.5"/>
<text text-anchor="middle" x="67" y="-119.5" font-family="Helvetica,sans-Serif" font-size="10.00">Mult_Graph_Identify.hpp</text>
</a>
</g>
</g>
<!-- Node6&#45;&gt;Node7 -->
<g id="edge6" class="edge">
<title>Node6&#45;&gt;Node7</title>
<path fill="none" stroke="midnightblue" d="M67.64,-157.8C67.48,-148.91 67.29,-138.78 67.16,-131.75"/>
<polygon fill="midnightblue" stroke="midnightblue" points="64.15,-158.15 67.83,-168.08 71.15,-158.02 64.15,-158.15"/>
</g>
<!-- Node8 -->
<g id="node8" class="node">
<title>Node8</title>
<g id="a_node8"><a xlink:href="Factorization_8hpp.html" target="_top" xlink:title="Contains the multiplication graph and the methods for factorizing generators.">
<polygon fill="white" stroke="black" points="16,-56.5 16,-75.5 116,-75.5 116,-56.5 16,-56.5"/>
<text text-anchor="middle" x="66" y="-63.5" font-family="Helvetica,sans-Serif" font-size="10.00">Factorization.hpp</text>
</a>
</g>
</g>
<!-- Node7&#45;&gt;Node8 -->
<g id="edge7" class="edge">
<title>Node7&#45;&gt;Node8</title>
<path fill="none" stroke="midnightblue" d="M66.64,-101.8C66.48,-92.91 66.29,-82.78 66.16,-75.75"/>
<polygon fill="midnightblue" stroke="midnightblue" points="63.15,-102.15 66.83,-112.08 70.15,-102.02 63.15,-102.15"/>
</g>
<!-- Node9 -->
<g id="node9" class="node">
<title>Node9</title>
<g id="a_node9"><a xlink:href="Mackey_8hpp.html" target="_top" xlink:title="Includes the entire library.">
<polygon fill="white" stroke="black" points="132,-0.5 132,-19.5 206,-19.5 206,-0.5 132,-0.5"/>
<text text-anchor="middle" x="169" y="-7.5" font-family="Helvetica,sans-Serif" font-size="10.00">Mackey.hpp</text>
</a>
</g>
</g>
<!-- Node8&#45;&gt;Node9 -->
<g id="edge8" class="edge">
<title>Node8&#45;&gt;Node9</title>
<path fill="none" stroke="midnightblue" d="M91.58,-51.59C110.62,-41.61 136.06,-28.27 152.49,-19.65"/>
<polygon fill="midnightblue" stroke="midnightblue" points="89.78,-48.58 82.55,-56.32 93.03,-54.78 89.78,-48.58"/>
</g>
<!-- Node11 -->
<g id="node11" class="node">
<title>Node11</title>
<g id="a_node11"><a xlink:href="BC4S2_8hpp.html" target="_top" xlink:title=" ">
<polygon fill="white" stroke="black" points="134.5,-56.5 134.5,-75.5 203.5,-75.5 203.5,-56.5 134.5,-56.5"/>
<text text-anchor="middle" x="169" y="-63.5" font-family="Helvetica,sans-Serif" font-size="10.00">BC4S2.hpp</text>
</a>
</g>
</g>
<!-- Node10&#45;&gt;Node11 -->
<g id="edge10" class="edge">
<title>Node10&#45;&gt;Node11</title>
<path fill="none" stroke="midnightblue" d="M165.46,-213.93C166.33,-177.92 168.18,-101.23 168.79,-75.57"/>
<polygon fill="midnightblue" stroke="midnightblue" points="161.96,-213.99 165.22,-224.08 168.96,-214.16 161.96,-213.99"/>
</g>
<!-- Node11&#45;&gt;Node9 -->
<g id="edge11" class="edge">
<title>Node11&#45;&gt;Node9</title>
<path fill="none" stroke="midnightblue" d="M169,-45.8C169,-36.91 169,-26.78 169,-19.75"/>
<polygon fill="midnightblue" stroke="midnightblue" points="165.5,-46.08 169,-56.08 172.5,-46.08 165.5,-46.08"/>
</g>
<!-- Node12&#45;&gt;Node9 -->
<g id="edge13" class="edge">
<title>Node12&#45;&gt;Node9</title>
<path fill="none" stroke="midnightblue" d="M228.69,-102.47C225.72,-88.93 220.5,-70.48 212,-56 203.47,-41.46 189.37,-27.93 179.65,-19.58"/>
<polygon fill="midnightblue" stroke="midnightblue" points="225.3,-103.36 230.68,-112.49 232.17,-102 225.3,-103.36"/>
</g>
</g>
</svg>
