<?xml version="1.0" encoding="UTF-8" standalone="no"?>
<!DOCTYPE svg PUBLIC "-//W3C//DTD SVG 1.1//EN"
 "http://www.w3.org/Graphics/SVG/1.1/DTD/svg11.dtd">
<!-- Generated by graphviz version 2.43.0 (0)
 -->
<!-- Title: Identify.hpp Pages: 1 -->
<!--zoomable 476 -->
<svg id="main" version="1.1" xmlns="http://www.w3.org/2000/svg" xmlns:xlink="http://www.w3.org/1999/xlink" xml:space="preserve" onload="init(evt)">
<style type="text/css"><![CDATA[
.edge:hover path { stroke: red; }
.edge:hover polygon { stroke: red; fill: red; }
]]></style>
<script type="text/javascript"><![CDATA[
var edges = document.getElementsByTagName('g');
if (edges && edges.length) {
  for (var i=0;i<edges.length;i++) {
    if (edges[i].id.substr(0,4)=='edge') {
      edges[i].setAttribute('class','edge');
    }
  }
}
]]></script>
        <defs>
                <circle id="rim" cx="0" cy="0" r="7"/>
                <circle id="rim2" cx="0" cy="0" r="3.5"/>
                <g id="zoomPlus">
                        <use xlink:href="#rim" fill="#404040">
                                <set attributeName="fill" to="#808080" begin="zoomplus.mouseover" end="zoomplus.mouseout"/>
                        </use>
                        <path d="M-4,0h8M0,-4v8" fill="none" stroke="white" stroke-width="1.5" pointer-events="none"/>
                </g>
                <g id="zoomMin">
                        <use xlink:href="#rim" fill="#404040">
                                <set attributeName="fill" to="#808080" begin="zoomminus.mouseover" end="zoomminus.mouseout"/>
                        </use>
                        <path d="M-4,0h8" fill="none" stroke="white" stroke-width="1.5" pointer-events="none"/>
                </g>
                <g id="dirArrow">
                        <path fill="none" stroke="white" stroke-width="1.5" d="M0,-3.0v7 M-2.5,-0.5L0,-3.0L2.5,-0.5"/>
                </g>
               <g id="resetDef">
                       <use xlink:href="#rim2" fill="#404040">
                               <set attributeName="fill" to="#808080" begin="reset.mouseover" end="reset.mouseout"/>
                       </use>
               </g>
        </defs>

<script type="text/javascript">
var viewWidth = 339;
var viewHeight = 476;
var sectionId = 'dynsection-1';
</script>
<script xlink:href="svgpan.js"/>
<svg id="graph" class="graph">
<g id="viewport">
<title>Identify.hpp</title>
<polygon fill="white" stroke="transparent" points="-4,4 -4,-472 334.5,-472 334.5,4 -4,4"/>
<!-- Node1 -->
<g id="node1" class="node">
<title>Node1</title>
<g id="a_node1"><a xlink:title="Contains the classes mackey::IDGenerators and mackey::internal::IDGeneratorCompute">
<polygon fill="#bfbfbf" stroke="black" points="128,-448.5 128,-467.5 201,-467.5 201,-448.5 128,-448.5"/>
<text text-anchor="middle" x="164.5" y="-455.5" font-family="Helvetica,sans-Serif" font-size="10.00">Identify.hpp</text>
</a>
</g>
</g>
<!-- Node2 -->
<g id="node2" class="node">
<title>Node2</title>
<g id="a_node2"><a xlink:href="Green_8hpp.html" target="_top" xlink:title="Contains the classes mackey::Green, mackey::internal::GreenCompute, mackey::internal::ChainsLevelGen,...">
<polygon fill="white" stroke="black" points="131,-392.5 131,-411.5 198,-411.5 198,-392.5 131,-392.5"/>
<text text-anchor="middle" x="164.5" y="-399.5" font-family="Helvetica,sans-Serif" font-size="10.00">Green.hpp</text>
</a>
</g>
</g>
<!-- Node1&#45;&gt;Node2 -->
<g id="edge1" class="edge">
<title>Node1&#45;&gt;Node2</title>
<path fill="none" stroke="midnightblue" d="M164.5,-437.8C164.5,-428.91 164.5,-418.78 164.5,-411.75"/>
<polygon fill="midnightblue" stroke="midnightblue" points="161,-438.08 164.5,-448.08 168,-438.08 161,-438.08"/>
</g>
<!-- Node3 -->
<g id="node3" class="node">
<title>Node3</title>
<g id="a_node3"><a xlink:href="Massey_8hpp.html" target="_top" xlink:title="Contains the classes mackey::Massey and mackey::internal::MasseyCompute.">
<polygon fill="white" stroke="black" points="127.5,-336.5 127.5,-355.5 201.5,-355.5 201.5,-336.5 127.5,-336.5"/>
<text text-anchor="middle" x="164.5" y="-343.5" font-family="Helvetica,sans-Serif" font-size="10.00">Massey.hpp</text>
</a>
</g>
</g>
<!-- Node2&#45;&gt;Node3 -->
<g id="edge2" class="edge">
<title>Node2&#45;&gt;Node3</title>
<path fill="none" stroke="midnightblue" d="M164.5,-381.8C164.5,-372.91 164.5,-362.78 164.5,-355.75"/>
<polygon fill="midnightblue" stroke="midnightblue" points="161,-382.08 164.5,-392.08 168,-382.08 161,-382.08"/>
</g>
<!-- Node4 -->
<g id="node4" class="node">
<title>Node4</title>
<g id="a_node4"><a xlink:href="Point_8hpp.html" target="_top" xlink:title="Contains the methods computing the RO(G) homology of a point.">
<polygon fill="white" stroke="black" points="133.5,-280.5 133.5,-299.5 195.5,-299.5 195.5,-280.5 133.5,-280.5"/>
<text text-anchor="middle" x="164.5" y="-287.5" font-family="Helvetica,sans-Serif" font-size="10.00">Point.hpp</text>
</a>
</g>
</g>
<!-- Node3&#45;&gt;Node4 -->
<g id="edge3" class="edge">
<title>Node3&#45;&gt;Node4</title>
<path fill="none" stroke="midnightblue" d="M164.5,-325.8C164.5,-316.91 164.5,-306.78 164.5,-299.75"/>
<polygon fill="midnightblue" stroke="midnightblue" points="161,-326.08 164.5,-336.08 168,-326.08 161,-326.08"/>
</g>
<!-- Node5 -->
<g id="node5" class="node">
<title>Node5</title>
<g id="a_node5"><a xlink:href="Mult__Table_8hpp.html" target="_top" xlink:title="Contains the classes mackey::MultTableData and mackey::MultTable.">
<polygon fill="white" stroke="black" points="119.5,-224.5 119.5,-243.5 209.5,-243.5 209.5,-224.5 119.5,-224.5"/>
<text text-anchor="middle" x="164.5" y="-231.5" font-family="Helvetica,sans-Serif" font-size="10.00">Mult_Table.hpp</text>
</a>
</g>
</g>
<!-- Node4&#45;&gt;Node5 -->
<g id="edge4" class="edge">
<title>Node4&#45;&gt;Node5</title>
<path fill="none" stroke="midnightblue" d="M164.5,-269.8C164.5,-260.91 164.5,-250.78 164.5,-243.75"/>
<polygon fill="midnightblue" stroke="midnightblue" points="161,-270.08 164.5,-280.08 168,-270.08 161,-270.08"/>
</g>
<!-- Node12 -->
<g id="node12" class="node">
<title>Node12</title>
<g id="a_node12"><a xlink:href="Additive_8hpp.html" target="_top" xlink:title="Contains the class mackey::AdditiveStructure">
<polygon fill="white" stroke="black" points="252.5,-56.5 252.5,-75.5 330.5,-75.5 330.5,-56.5 252.5,-56.5"/>
<text text-anchor="middle" x="291.5" y="-63.5" font-family="Helvetica,sans-Serif" font-size="10.00">Additive.hpp</text>
</a>
</g>
</g>
<!-- Node4&#45;&gt;Node12 -->
<g id="edge12" class="edge">
<title>Node4&#45;&gt;Node12</title>
<path fill="none" stroke="midnightblue" d="M185.19,-274.46C195.92,-266.29 208.77,-255.45 218.5,-244 255.91,-199.97 266.33,-186.85 284.5,-132 290.92,-112.61 291.78,-88.35 291.71,-75.66"/>
<polygon fill="midnightblue" stroke="midnightblue" points="183.1,-271.65 177.14,-280.41 187.26,-277.28 183.1,-271.65"/>
</g>
<!-- Node13 -->
<g id="node13" class="node">
<title>Node13</title>
<g id="a_node13"><a xlink:href="Space_8hpp.html" target="_top" xlink:title="Contains the class mackey::Space.">
<polygon fill="white" stroke="black" points="33,-224.5 33,-243.5 100,-243.5 100,-224.5 33,-224.5"/>
<text text-anchor="middle" x="66.5" y="-231.5" font-family="Helvetica,sans-Serif" font-size="10.00">Space.hpp</text>
</a>
</g>
</g>
<!-- Node4&#45;&gt;Node13 -->
<g id="edge15" class="edge">
<title>Node4&#45;&gt;Node13</title>
<path fill="none" stroke="midnightblue" d="M139.91,-275.45C121.82,-265.48 97.77,-252.23 82.21,-243.65"/>
<polygon fill="midnightblue" stroke="midnightblue" points="138.31,-278.56 148.75,-280.32 141.69,-272.43 138.31,-278.56"/>
</g>
<!-- Node6 -->
<g id="node6" class="node">
<title>Node6</title>
<g id="a_node6"><a xlink:href="Mult__Graph_8hpp.html" target="_top" xlink:title="Contains the class mackey::MultGraph.">
<polygon fill="white" stroke="black" points="117.5,-168.5 117.5,-187.5 211.5,-187.5 211.5,-168.5 117.5,-168.5"/>
<text text-anchor="middle" x="164.5" y="-175.5" font-family="Helvetica,sans-Serif" font-size="10.00">Mult_Graph.hpp</text>
</a>
</g>
</g>
<!-- Node5&#45;&gt;Node6 -->
<g id="edge5" class="edge">
<title>Node5&#45;&gt;Node6</title>
<path fill="none" stroke="midnightblue" d="M164.5,-213.8C164.5,-204.91 164.5,-194.78 164.5,-187.75"/>
<polygon fill="midnightblue" stroke="midnightblue" points="161,-214.08 164.5,-224.08 168,-214.08 161,-214.08"/>
</g>
<!-- Node7 -->
<g id="node7" class="node">
<title>Node7</title>
<g id="a_node7"><a xlink:href="Mult__Connectivity_8hpp.html" target="_top" xlink:title="Contains the class mackey::MultConnectivity.">
<polygon fill="white" stroke="black" points="32,-112.5 32,-131.5 157,-131.5 157,-112.5 32,-112.5"/>
<text text-anchor="middle" x="94.5" y="-119.5" font-family="Helvetica,sans-Serif" font-size="10.00">Mult_Connectivity.hpp</text>
</a>
</g>
</g>
<!-- Node6&#45;&gt;Node7 -->
<g id="edge6" class="edge">
<title>Node6&#45;&gt;Node7</title>
<path fill="none" stroke="midnightblue" d="M145.19,-162.1C132.59,-152.38 116.57,-140.03 105.95,-131.83"/>
<polygon fill="midnightblue" stroke="midnightblue" points="143.2,-164.99 153.25,-168.32 147.47,-159.44 143.2,-164.99"/>
</g>
<!-- Node9 -->
<g id="node9" class="node">
<title>Node9</title>
<g id="a_node9"><a xlink:href="Mult__Identify_8hpp.html" target="_top" xlink:title="Contains the class mackey::MultIdentify.">
<polygon fill="white" stroke="black" points="175.5,-112.5 175.5,-131.5 275.5,-131.5 275.5,-112.5 175.5,-112.5"/>
<text text-anchor="middle" x="225.5" y="-119.5" font-family="Helvetica,sans-Serif" font-size="10.00">Mult_Identify.hpp</text>
</a>
</g>
</g>
<!-- Node6&#45;&gt;Node9 -->
<g id="edge8" class="edge">
<title>Node6&#45;&gt;Node9</title>
<path fill="none" stroke="midnightblue" d="M181.97,-161.54C192.84,-151.91 206.44,-139.87 215.52,-131.83"/>
<polygon fill="midnightblue" stroke="midnightblue" points="179.47,-159.07 174.3,-168.32 184.11,-164.32 179.47,-159.07"/>
</g>
<!-- Node8 -->
<g id="node8" class="node">
<title>Node8</title>
<g id="a_node8"><a xlink:href="Mackey_8hpp.html" target="_top" xlink:title="Includes the entire library apart from Serialization/Cerealizer.hpp.">
<polygon fill="white" stroke="black" points="59.5,-0.5 59.5,-19.5 133.5,-19.5 133.5,-0.5 59.5,-0.5"/>
<text text-anchor="middle" x="96.5" y="-7.5" font-family="Helvetica,sans-Serif" font-size="10.00">Mackey.hpp</text>
</a>
</g>
</g>
<!-- Node7&#45;&gt;Node8 -->
<g id="edge7" class="edge">
<title>Node7&#45;&gt;Node8</title>
<path fill="none" stroke="midnightblue" d="M94.84,-102.35C95.28,-78.25 96.02,-37.31 96.34,-19.59"/>
<polygon fill="midnightblue" stroke="midnightblue" points="91.34,-102.31 94.66,-112.37 98.34,-102.43 91.34,-102.31"/>
</g>
<!-- Node10 -->
<g id="node10" class="node">
<title>Node10</title>
<g id="a_node10"><a xlink:href="Factorization_8hpp.html" target="_top" xlink:title="Contains the class mackey::Factorization.">
<polygon fill="white" stroke="black" points="134.5,-56.5 134.5,-75.5 234.5,-75.5 234.5,-56.5 134.5,-56.5"/>
<text text-anchor="middle" x="184.5" y="-63.5" font-family="Helvetica,sans-Serif" font-size="10.00">Factorization.hpp</text>
</a>
</g>
</g>
<!-- Node9&#45;&gt;Node10 -->
<g id="edge9" class="edge">
<title>Node9&#45;&gt;Node10</title>
<path fill="none" stroke="midnightblue" d="M212.48,-103.86C205.38,-94.5 196.9,-83.33 191.14,-75.75"/>
<polygon fill="midnightblue" stroke="midnightblue" points="209.89,-106.24 218.73,-112.08 215.47,-102 209.89,-106.24"/>
</g>
<!-- Node10&#45;&gt;Node8 -->
<g id="edge10" class="edge">
<title>Node10&#45;&gt;Node8</title>
<path fill="none" stroke="midnightblue" d="M161.52,-50.9C145.39,-41 124.32,-28.07 110.6,-19.65"/>
<polygon fill="midnightblue" stroke="midnightblue" points="160.01,-54.08 170.36,-56.32 163.67,-48.11 160.01,-54.08"/>
</g>
<!-- Node11 -->
<g id="node11" class="node">
<title>Node11</title>
<g id="a_node11"><a xlink:href="Cerealizer_8hpp.html" target="_top" xlink:title="Contains the methods for serializing the results of our computations via cereal.">
<polygon fill="white" stroke="black" points="152.5,-0.5 152.5,-19.5 238.5,-19.5 238.5,-0.5 152.5,-0.5"/>
<text text-anchor="middle" x="195.5" y="-7.5" font-family="Helvetica,sans-Serif" font-size="10.00">Cerealizer.hpp</text>
</a>
</g>
</g>
<!-- Node10&#45;&gt;Node11 -->
<g id="edge11" class="edge">
<title>Node10&#45;&gt;Node11</title>
<path fill="none" stroke="midnightblue" d="M188.35,-46.1C190.18,-37.14 192.27,-26.86 193.72,-19.75"/>
<polygon fill="midnightblue" stroke="midnightblue" points="184.88,-45.59 186.32,-56.08 191.74,-46.98 184.88,-45.59"/>
</g>
<!-- Node12&#45;&gt;Node8 -->
<g id="edge13" class="edge">
<title>Node12&#45;&gt;Node8</title>
<path fill="none" stroke="midnightblue" d="M250.69,-53.7C213.89,-43.51 160.57,-28.74 127.25,-19.52"/>
<polygon fill="midnightblue" stroke="midnightblue" points="250.03,-57.15 260.6,-56.44 251.9,-50.4 250.03,-57.15"/>
</g>
<!-- Node12&#45;&gt;Node11 -->
<g id="edge14" class="edge">
<title>Node12&#45;&gt;Node11</title>
<path fill="none" stroke="midnightblue" d="M266.93,-51.18C249.26,-41.24 225.99,-28.15 210.89,-19.65"/>
<polygon fill="midnightblue" stroke="midnightblue" points="265.64,-54.47 276.08,-56.32 269.08,-48.37 265.64,-54.47"/>
</g>
<!-- Node14 -->
<g id="node14" class="node">
<title>Node14</title>
<g id="a_node14"><a xlink:href="BC4S2_8hpp.html" target="_top" xlink:title="Contains the class mackey::BC4S2.">
<polygon fill="white" stroke="black" points="0,-168.5 0,-187.5 69,-187.5 69,-168.5 0,-168.5"/>
<text text-anchor="middle" x="34.5" y="-175.5" font-family="Helvetica,sans-Serif" font-size="10.00">BC4S2.hpp</text>
</a>
</g>
</g>
<!-- Node13&#45;&gt;Node14 -->
<g id="edge16" class="edge">
<title>Node13&#45;&gt;Node14</title>
<path fill="none" stroke="midnightblue" d="M56,-215.27C50.53,-206.05 44.08,-195.17 39.69,-187.75"/>
<polygon fill="midnightblue" stroke="midnightblue" points="53.11,-217.26 61.22,-224.08 59.13,-213.7 53.11,-217.26"/>
</g>
<!-- Node14&#45;&gt;Node8 -->
<g id="edge17" class="edge">
<title>Node14&#45;&gt;Node8</title>
<path fill="none" stroke="midnightblue" d="M26.47,-159.03C21.68,-145.8 17.43,-127.49 22.5,-112 35.41,-72.54 70.25,-35.74 87.11,-19.6"/>
<polygon fill="midnightblue" stroke="midnightblue" points="23.27,-160.45 30.26,-168.41 29.76,-157.82 23.27,-160.45"/>
</g>
</g>
</svg>
        <g id="navigator" transform="translate(0 0)" fill="#404254">
                <rect fill="#f2f5e9" fill-opacity="0.5" stroke="#606060" stroke-width=".5" x="0" y="0" width="60" height="60"/>
                <use id="zoomplus" xlink:href="#zoomPlus" x="17" y="9" onmousedown="handleZoom(evt,'in')"/>
                <use id="zoomminus" xlink:href="#zoomMin" x="42" y="9" onmousedown="handleZoom(evt,'out')"/>
                <use id="reset" xlink:href="#resetDef" x="30" y="36" onmousedown="handleReset()"/>
                <g id="arrowUp" xlink:href="#dirArrow" transform="translate(30 24)" onmousedown="handlePan(0,-1)">
                  <use xlink:href="#rim" fill="#404040">
                        <set attributeName="fill" to="#808080" begin="arrowUp.mouseover" end="arrowUp.mouseout"/>
                  </use>
                  <path fill="none" stroke="white" stroke-width="1.5" d="M0,-3.0v7 M-2.5,-0.5L0,-3.0L2.5,-0.5"/>
                </g>
                <g id="arrowRight" xlink:href="#dirArrow" transform="rotate(90) translate(36 -43)" onmousedown="handlePan(1,0)">
                  <use xlink:href="#rim" fill="#404040">
                        <set attributeName="fill" to="#808080" begin="arrowRight.mouseover" end="arrowRight.mouseout"/>
                  </use>
                  <path fill="none" stroke="white" stroke-width="1.5" d="M0,-3.0v7 M-2.5,-0.5L0,-3.0L2.5,-0.5"/>
                </g>
                <g id="arrowDown" xlink:href="#dirArrow" transform="rotate(180) translate(-30 -48)" onmousedown="handlePan(0,1)">
                  <use xlink:href="#rim" fill="#404040">
                        <set attributeName="fill" to="#808080" begin="arrowDown.mouseover" end="arrowDown.mouseout"/>
                  </use>
                  <path fill="none" stroke="white" stroke-width="1.5" d="M0,-3.0v7 M-2.5,-0.5L0,-3.0L2.5,-0.5"/>
                </g>
                <g id="arrowLeft" xlink:href="#dirArrow" transform="rotate(270) translate(-36 17)" onmousedown="handlePan(-1,0)">
                  <use xlink:href="#rim" fill="#404040">
                        <set attributeName="fill" to="#808080" begin="arrowLeft.mouseover" end="arrowLeft.mouseout"/>
                  </use>
                  <path fill="none" stroke="white" stroke-width="1.5" d="M0,-3.0v7 M-2.5,-0.5L0,-3.0L2.5,-0.5"/>
                </g>
        </g>
        <svg viewBox="0 0 15 15" width="100%" height="30px" preserveAspectRatio="xMaxYMin meet">
         <g id="arrow_out" transform="scale(0.3 0.3)">
          <a xlink:href="Identify_8hpp__dep__incl_org.svg" target="_base">
           <rect id="button" ry="5" rx="5" y="6" x="6" height="38" width="38"
                fill="#f2f5e9" fill-opacity="0.5" stroke="#606060" stroke-width="1.0"/>
           <path id="arrow"
             d="M 11.500037,31.436501 C 11.940474,20.09759 22.043105,11.32322 32.158766,21.979434 L 37.068811,17.246167 C 37.068811,17.246167 37.088388,32 37.088388,32 L 22.160133,31.978069 C 22.160133,31.978069 26.997745,27.140456 26.997745,27.140456 C 18.528582,18.264221 13.291696,25.230495 11.500037,31.436501 z"
             style="fill:#404040;"/>
          </a>
         </g>
        </svg>
</svg>
