<?xml version="1.0" encoding="UTF-8" standalone="no"?>
<!DOCTYPE svg PUBLIC "-//W3C//DTD SVG 1.1//EN"
 "http://www.w3.org/Graphics/SVG/1.1/DTD/svg11.dtd">
<!-- Generated by graphviz version 2.43.0 (0)
 -->
<!-- Title: Identify.hpp Pages: 1 -->
<svg width="762pt" height="364pt"
 viewBox="0.00 0.00 762.37 364.00" xmlns="http://www.w3.org/2000/svg" xmlns:xlink="http://www.w3.org/1999/xlink">
<g id="graph0" class="graph" transform="scale(1 1) rotate(0) translate(4 360)">
<title>Identify.hpp</title>
<polygon fill="white" stroke="transparent" points="-4,4 -4,-360 758.37,-360 758.37,4 -4,4"/>
<!-- Node1 -->
<g id="node1" class="node">
<title>Node1</title>
<g id="a_node1"><a xlink:title="Contains the classes mackey::IDGenerators and mackey::internal::IDGeneratorCompute">
<polygon fill="#bfbfbf" stroke="black" points="506.37,-336.5 506.37,-355.5 579.37,-355.5 579.37,-336.5 506.37,-336.5"/>
<text text-anchor="middle" x="542.87" y="-343.5" font-family="Helvetica,sans-Serif" font-size="10.00">Identify.hpp</text>
</a>
</g>
</g>
<!-- Node2 -->
<g id="node2" class="node">
<title>Node2</title>
<g id="a_node2"><a xlink:href="Homology_8hpp.html" target="_top" xlink:title="Contains the class mackey::Homology.">
<polygon fill="white" stroke="black" points="231.87,-280.5 231.87,-299.5 371.87,-299.5 371.87,-280.5 231.87,-280.5"/>
<text text-anchor="middle" x="301.87" y="-287.5" font-family="Helvetica,sans-Serif" font-size="10.00">Homology/Homology.hpp</text>
</a>
</g>
</g>
<!-- Node1&#45;&gt;Node2 -->
<g id="edge1" class="edge">
<title>Node1&#45;&gt;Node2</title>
<path fill="none" stroke="midnightblue" d="M506.26,-336.8C464.52,-327.44 396.11,-312.12 350.05,-301.8"/>
<polygon fill="midnightblue" stroke="midnightblue" points="350.53,-298.32 340.01,-299.55 349,-305.15 350.53,-298.32"/>
</g>
<!-- Node21 -->
<g id="node21" class="node">
<title>Node21</title>
<g id="a_node21"><a xlink:href="MackeyFunctor_8hpp.html" target="_top" xlink:title="Contains the class mackey::MackeyFunctor.">
<polygon fill="white" stroke="black" points="444.37,-280.5 444.37,-299.5 641.37,-299.5 641.37,-280.5 444.37,-280.5"/>
<text text-anchor="middle" x="542.87" y="-287.5" font-family="Helvetica,sans-Serif" font-size="10.00">Mackey_Functors/MackeyFunctor.hpp</text>
</a>
</g>
</g>
<!-- Node1&#45;&gt;Node21 -->
<g id="edge24" class="edge">
<title>Node1&#45;&gt;Node21</title>
<path fill="none" stroke="midnightblue" d="M542.87,-336.08C542.87,-329.01 542.87,-318.86 542.87,-309.99"/>
<polygon fill="midnightblue" stroke="midnightblue" points="546.37,-309.75 542.87,-299.75 539.37,-309.75 546.37,-309.75"/>
</g>
<!-- Node24 -->
<g id="node24" class="node">
<title>Node24</title>
<g id="a_node24"><a xlink:title=" ">
<polygon fill="white" stroke="#bfbfbf" points="659.37,-280.5 659.37,-299.5 754.37,-299.5 754.37,-280.5 659.37,-280.5"/>
<text text-anchor="middle" x="706.87" y="-287.5" font-family="Helvetica,sans-Serif" font-size="10.00">impl/Identify.ipp</text>
</a>
</g>
</g>
<!-- Node1&#45;&gt;Node24 -->
<g id="edge30" class="edge">
<title>Node1&#45;&gt;Node24</title>
<path fill="none" stroke="midnightblue" d="M568.85,-336.44C596.56,-327.32 640.62,-312.81 671.48,-302.65"/>
<polygon fill="midnightblue" stroke="midnightblue" points="672.6,-305.97 681,-299.52 670.41,-299.32 672.6,-305.97"/>
</g>
<!-- Node3 -->
<g id="node3" class="node">
<title>Node3</title>
<g id="a_node3"><a xlink:href="Chains_8hpp.html" target="_top" xlink:title="Contains the classes mackey::Arrow, mackey::Chains and mackey::Junction.">
<polygon fill="white" stroke="black" points="140.37,-224.5 140.37,-243.5 301.37,-243.5 301.37,-224.5 140.37,-224.5"/>
<text text-anchor="middle" x="220.87" y="-231.5" font-family="Helvetica,sans-Serif" font-size="10.00">Chain_Complexes/Chains.hpp</text>
</a>
</g>
</g>
<!-- Node2&#45;&gt;Node3 -->
<g id="edge2" class="edge">
<title>Node2&#45;&gt;Node3</title>
<path fill="none" stroke="midnightblue" d="M288.85,-280.32C276.34,-271.98 257.19,-259.21 242.4,-249.35"/>
<polygon fill="midnightblue" stroke="midnightblue" points="244.11,-246.29 233.85,-243.65 240.23,-252.11 244.11,-246.29"/>
</g>
<!-- Node7 -->
<g id="node7" class="node">
<title>Node7</title>
<g id="a_node7"><a xlink:href="General_8hpp.html" target="_top" xlink:title="Contains general functions and vector overloads independent of everything else.">
<polygon fill="white" stroke="black" points="340.37,-168.5 340.37,-187.5 449.37,-187.5 449.37,-168.5 340.37,-168.5"/>
<text text-anchor="middle" x="394.87" y="-175.5" font-family="Helvetica,sans-Serif" font-size="10.00">Utility/General.hpp</text>
</a>
</g>
</g>
<!-- Node2&#45;&gt;Node7 -->
<g id="edge6" class="edge">
<title>Node2&#45;&gt;Node7</title>
<path fill="none" stroke="midnightblue" d="M307.51,-280.24C315.92,-267.41 332.5,-242.99 348.87,-224 357.8,-213.63 368.72,-202.88 377.67,-194.49"/>
<polygon fill="midnightblue" stroke="midnightblue" points="380.25,-196.88 385.23,-187.53 375.51,-191.73 380.25,-196.88"/>
</g>
<!-- Node16 -->
<g id="node16" class="node">
<title>Node16</title>
<g id="a_node16"><a xlink:href="Smith_8hpp.html" target="_top" xlink:title="Contains the class mackey::SmithNormalForm.">
<polygon fill="white" stroke="black" points="25.87,-168.5 25.87,-187.5 91.87,-187.5 91.87,-168.5 25.87,-168.5"/>
<text text-anchor="middle" x="58.87" y="-175.5" font-family="Helvetica,sans-Serif" font-size="10.00">Smith.hpp</text>
</a>
</g>
</g>
<!-- Node2&#45;&gt;Node16 -->
<g id="edge16" class="edge">
<title>Node2&#45;&gt;Node16</title>
<path fill="none" stroke="midnightblue" d="M231.53,-288.5C153.12,-286.27 33.51,-277.31 4.87,-244 -10.05,-226.66 13.24,-206.33 33.72,-193.08"/>
<polygon fill="midnightblue" stroke="midnightblue" points="35.81,-195.91 42.5,-187.7 32.15,-189.94 35.81,-195.91"/>
</g>
<!-- Node18 -->
<g id="node18" class="node">
<title>Node18</title>
<g id="a_node18"><a xlink:href="Abelian_8hpp.html" target="_top" xlink:title="Contains the class mackey::AbelianGroup.">
<polygon fill="white" stroke="black" points="357.87,-224.5 357.87,-243.5 431.87,-243.5 431.87,-224.5 357.87,-224.5"/>
<text text-anchor="middle" x="394.87" y="-231.5" font-family="Helvetica,sans-Serif" font-size="10.00">Abelian.hpp</text>
</a>
</g>
</g>
<!-- Node2&#45;&gt;Node18 -->
<g id="edge20" class="edge">
<title>Node2&#45;&gt;Node18</title>
<path fill="none" stroke="midnightblue" d="M316.81,-280.32C331.45,-271.82 354,-258.73 371.1,-248.8"/>
<polygon fill="midnightblue" stroke="midnightblue" points="373.07,-251.7 379.96,-243.65 369.56,-245.65 373.07,-251.7"/>
</g>
<!-- Node20 -->
<g id="node20" class="node">
<title>Node20</title>
<g id="a_node20"><a xlink:title=" ">
<polygon fill="white" stroke="#bfbfbf" points="13.87,-224.5 13.87,-243.5 121.87,-243.5 121.87,-224.5 13.87,-224.5"/>
<text text-anchor="middle" x="67.87" y="-231.5" font-family="Helvetica,sans-Serif" font-size="10.00">impl/Homology.ipp</text>
</a>
</g>
</g>
<!-- Node2&#45;&gt;Node20 -->
<g id="edge23" class="edge">
<title>Node2&#45;&gt;Node20</title>
<path fill="none" stroke="midnightblue" d="M264.79,-280.44C224.14,-271.06 158.83,-255.99 114.68,-245.8"/>
<polygon fill="midnightblue" stroke="midnightblue" points="115.3,-242.35 104.77,-243.52 113.73,-249.18 115.3,-242.35"/>
</g>
<!-- Node4 -->
<g id="node4" class="node">
<title>Node4</title>
<g id="a_node4"><a xlink:title=" ">
<polygon fill="white" stroke="#bfbfbf" points="109.37,-112.5 109.37,-131.5 156.37,-131.5 156.37,-112.5 109.37,-112.5"/>
<text text-anchor="middle" x="132.87" y="-119.5" font-family="Helvetica,sans-Serif" font-size="10.00">vector</text>
</a>
</g>
</g>
<!-- Node3&#45;&gt;Node4 -->
<g id="edge3" class="edge">
<title>Node3&#45;&gt;Node4</title>
<path fill="none" stroke="midnightblue" d="M195.76,-224.5C178.73,-217.41 157.15,-205.6 144.87,-188 135.53,-174.62 132.86,-156.05 132.34,-142.19"/>
<polygon fill="midnightblue" stroke="midnightblue" points="135.83,-141.85 132.3,-131.86 128.83,-141.87 135.83,-141.85"/>
</g>
<!-- Node5 -->
<g id="node5" class="node">
<title>Node5</title>
<g id="a_node5"><a xlink:title=" ">
<polygon fill="white" stroke="#bfbfbf" points="154.37,-168.5 154.37,-187.5 211.37,-187.5 211.37,-168.5 154.37,-168.5"/>
<text text-anchor="middle" x="182.87" y="-175.5" font-family="Helvetica,sans-Serif" font-size="10.00">ostream</text>
</a>
</g>
</g>
<!-- Node3&#45;&gt;Node5 -->
<g id="edge4" class="edge">
<title>Node3&#45;&gt;Node5</title>
<path fill="none" stroke="midnightblue" d="M214.59,-224.08C209.22,-216.46 201.35,-205.26 194.79,-195.94"/>
<polygon fill="midnightblue" stroke="midnightblue" points="197.64,-193.91 189.03,-187.75 191.92,-197.94 197.64,-193.91"/>
</g>
<!-- Node6 -->
<g id="node6" class="node">
<title>Node6</title>
<g id="a_node6"><a xlink:title=" ">
<polygon fill="white" stroke="#bfbfbf" points="229.87,-168.5 229.87,-187.5 321.87,-187.5 321.87,-168.5 229.87,-168.5"/>
<text text-anchor="middle" x="275.87" y="-175.5" font-family="Helvetica,sans-Serif" font-size="10.00">impl/Chains.ipp</text>
</a>
</g>
</g>
<!-- Node3&#45;&gt;Node6 -->
<g id="edge5" class="edge">
<title>Node3&#45;&gt;Node6</title>
<path fill="none" stroke="midnightblue" d="M229.95,-224.08C238.04,-216.14 250.06,-204.34 259.78,-194.8"/>
<polygon fill="midnightblue" stroke="midnightblue" points="262.27,-197.25 266.95,-187.75 257.37,-192.26 262.27,-197.25"/>
</g>
<!-- Node7&#45;&gt;Node4 -->
<g id="edge7" class="edge">
<title>Node7&#45;&gt;Node4</title>
<path fill="none" stroke="midnightblue" d="M353.35,-168.44C301.6,-157.78 214.15,-139.75 166.42,-129.91"/>
<polygon fill="midnightblue" stroke="midnightblue" points="167.08,-126.48 156.58,-127.89 165.67,-133.33 167.08,-126.48"/>
</g>
<!-- Node8 -->
<g id="node8" class="node">
<title>Node8</title>
<g id="a_node8"><a xlink:href="Aliases_8hpp.html" target="_top" xlink:title="Contains general template aliases.">
<polygon fill="white" stroke="black" points="202.87,-112.5 202.87,-131.5 306.87,-131.5 306.87,-112.5 202.87,-112.5"/>
<text text-anchor="middle" x="254.87" y="-119.5" font-family="Helvetica,sans-Serif" font-size="10.00">Types/Aliases.hpp</text>
</a>
</g>
</g>
<!-- Node7&#45;&gt;Node8 -->
<g id="edge8" class="edge">
<title>Node7&#45;&gt;Node8</title>
<path fill="none" stroke="midnightblue" d="M372.68,-168.44C349.44,-159.48 312.72,-145.31 286.45,-135.18"/>
<polygon fill="midnightblue" stroke="midnightblue" points="287.54,-131.85 276.95,-131.52 285.02,-138.38 287.54,-131.85"/>
</g>
<!-- Node13 -->
<g id="node13" class="node">
<title>Node13</title>
<g id="a_node13"><a xlink:title=" ">
<polygon fill="white" stroke="#bfbfbf" points="502.87,-112.5 502.87,-131.5 558.87,-131.5 558.87,-112.5 502.87,-112.5"/>
<text text-anchor="middle" x="530.87" y="-119.5" font-family="Helvetica,sans-Serif" font-size="10.00">numeric</text>
</a>
</g>
</g>
<!-- Node7&#45;&gt;Node13 -->
<g id="edge13" class="edge">
<title>Node7&#45;&gt;Node13</title>
<path fill="none" stroke="midnightblue" d="M416.42,-168.44C438.9,-159.52 474.35,-145.44 499.85,-135.32"/>
<polygon fill="midnightblue" stroke="midnightblue" points="501.42,-138.46 509.42,-131.52 498.83,-131.95 501.42,-138.46"/>
</g>
<!-- Node14 -->
<g id="node14" class="node">
<title>Node14</title>
<g id="a_node14"><a xlink:title=" ">
<polygon fill="white" stroke="#bfbfbf" points="596.87,-112.5 596.87,-131.5 656.87,-131.5 656.87,-112.5 596.87,-112.5"/>
<text text-anchor="middle" x="626.87" y="-119.5" font-family="Helvetica,sans-Serif" font-size="10.00">iostream</text>
</a>
</g>
</g>
<!-- Node7&#45;&gt;Node14 -->
<g id="edge14" class="edge">
<title>Node7&#45;&gt;Node14</title>
<path fill="none" stroke="midnightblue" d="M431.63,-168.44C473.86,-158.61 542.92,-142.54 586.58,-132.38"/>
<polygon fill="midnightblue" stroke="midnightblue" points="587.62,-135.73 596.56,-130.05 586.03,-128.91 587.62,-135.73"/>
</g>
<!-- Node15 -->
<g id="node15" class="node">
<title>Node15</title>
<g id="a_node15"><a xlink:title=" ">
<polygon fill="white" stroke="#bfbfbf" points="345.87,-112.5 345.87,-131.5 443.87,-131.5 443.87,-112.5 345.87,-112.5"/>
<text text-anchor="middle" x="394.87" y="-119.5" font-family="Helvetica,sans-Serif" font-size="10.00">impl/General.ipp</text>
</a>
</g>
</g>
<!-- Node7&#45;&gt;Node15 -->
<g id="edge15" class="edge">
<title>Node7&#45;&gt;Node15</title>
<path fill="none" stroke="midnightblue" d="M394.87,-168.08C394.87,-161.01 394.87,-150.86 394.87,-141.99"/>
<polygon fill="midnightblue" stroke="midnightblue" points="398.37,-141.75 394.87,-131.75 391.37,-141.75 398.37,-141.75"/>
</g>
<!-- Node9 -->
<g id="node9" class="node">
<title>Node9</title>
<g id="a_node9"><a xlink:title=" ">
<polygon fill="white" stroke="#bfbfbf" points="119.37,-56.5 119.37,-75.5 196.37,-75.5 196.37,-56.5 119.37,-56.5"/>
<text text-anchor="middle" x="157.87" y="-63.5" font-family="Helvetica,sans-Serif" font-size="10.00">Eigen/Dense</text>
</a>
</g>
</g>
<!-- Node8&#45;&gt;Node9 -->
<g id="edge9" class="edge">
<title>Node8&#45;&gt;Node9</title>
<path fill="none" stroke="midnightblue" d="M239.28,-112.32C223.87,-103.74 200.05,-90.49 182.16,-80.52"/>
<polygon fill="midnightblue" stroke="midnightblue" points="183.85,-77.46 173.41,-75.65 180.45,-83.58 183.85,-77.46"/>
</g>
<!-- Node10 -->
<g id="node10" class="node">
<title>Node10</title>
<g id="a_node10"><a xlink:title=" ">
<polygon fill="white" stroke="#bfbfbf" points="214.87,-56.5 214.87,-75.5 294.87,-75.5 294.87,-56.5 214.87,-56.5"/>
<text text-anchor="middle" x="254.87" y="-63.5" font-family="Helvetica,sans-Serif" font-size="10.00">Eigen/Sparse</text>
</a>
</g>
</g>
<!-- Node8&#45;&gt;Node10 -->
<g id="edge10" class="edge">
<title>Node8&#45;&gt;Node10</title>
<path fill="none" stroke="midnightblue" d="M254.87,-112.08C254.87,-105.01 254.87,-94.86 254.87,-85.99"/>
<polygon fill="midnightblue" stroke="midnightblue" points="258.37,-85.75 254.87,-75.75 251.37,-85.75 258.37,-85.75"/>
</g>
<!-- Node11 -->
<g id="node11" class="node">
<title>Node11</title>
<g id="a_node11"><a xlink:href="SFINAE_8hpp.html" target="_top" xlink:title="Contains all the SFINAE tricks.">
<polygon fill="white" stroke="black" points="313.37,-56.5 313.37,-75.5 386.37,-75.5 386.37,-56.5 313.37,-56.5"/>
<text text-anchor="middle" x="349.87" y="-63.5" font-family="Helvetica,sans-Serif" font-size="10.00">SFINAE.hpp</text>
</a>
</g>
</g>
<!-- Node8&#45;&gt;Node11 -->
<g id="edge11" class="edge">
<title>Node8&#45;&gt;Node11</title>
<path fill="none" stroke="midnightblue" d="M270.13,-112.32C285.09,-103.82 308.12,-90.73 325.59,-80.8"/>
<polygon fill="midnightblue" stroke="midnightblue" points="327.68,-83.64 334.64,-75.65 324.22,-77.55 327.68,-83.64"/>
</g>
<!-- Node12 -->
<g id="node12" class="node">
<title>Node12</title>
<g id="a_node12"><a xlink:title=" ">
<polygon fill="white" stroke="#bfbfbf" points="315.37,-0.5 315.37,-19.5 384.37,-19.5 384.37,-0.5 315.37,-0.5"/>
<text text-anchor="middle" x="349.87" y="-7.5" font-family="Helvetica,sans-Serif" font-size="10.00">type_traits</text>
</a>
</g>
</g>
<!-- Node11&#45;&gt;Node12 -->
<g id="edge12" class="edge">
<title>Node11&#45;&gt;Node12</title>
<path fill="none" stroke="midnightblue" d="M349.87,-56.08C349.87,-49.01 349.87,-38.86 349.87,-29.99"/>
<polygon fill="midnightblue" stroke="midnightblue" points="353.37,-29.75 349.87,-19.75 346.37,-29.75 353.37,-29.75"/>
</g>
<!-- Node16&#45;&gt;Node4 -->
<g id="edge17" class="edge">
<title>Node16&#45;&gt;Node4</title>
<path fill="none" stroke="midnightblue" d="M70.76,-168.32C82.02,-160.11 99.15,-147.6 112.58,-137.81"/>
<polygon fill="midnightblue" stroke="midnightblue" points="114.75,-140.56 120.76,-131.83 110.62,-134.9 114.75,-140.56"/>
</g>
<!-- Node16&#45;&gt;Node8 -->
<g id="edge18" class="edge">
<title>Node16&#45;&gt;Node8</title>
<path fill="none" stroke="midnightblue" d="M89.92,-168.44C123.47,-159.2 177.06,-144.44 214.01,-134.26"/>
<polygon fill="midnightblue" stroke="midnightblue" points="215.24,-137.55 223.96,-131.52 213.38,-130.8 215.24,-137.55"/>
</g>
<!-- Node17 -->
<g id="node17" class="node">
<title>Node17</title>
<g id="a_node17"><a xlink:title=" ">
<polygon fill="white" stroke="#bfbfbf" points="2.87,-112.5 2.87,-131.5 90.87,-131.5 90.87,-112.5 2.87,-112.5"/>
<text text-anchor="middle" x="46.87" y="-119.5" font-family="Helvetica,sans-Serif" font-size="10.00">impl/Smith.ipp</text>
</a>
</g>
</g>
<!-- Node16&#45;&gt;Node17 -->
<g id="edge19" class="edge">
<title>Node16&#45;&gt;Node17</title>
<path fill="none" stroke="midnightblue" d="M56.89,-168.08C55.3,-160.93 53.01,-150.64 51.02,-141.69"/>
<polygon fill="midnightblue" stroke="midnightblue" points="54.4,-140.75 48.81,-131.75 47.56,-142.27 54.4,-140.75"/>
</g>
<!-- Node18&#45;&gt;Node7 -->
<g id="edge21" class="edge">
<title>Node18&#45;&gt;Node7</title>
<path fill="none" stroke="midnightblue" d="M394.87,-224.08C394.87,-217.01 394.87,-206.86 394.87,-197.99"/>
<polygon fill="midnightblue" stroke="midnightblue" points="398.37,-197.75 394.87,-187.75 391.37,-197.75 398.37,-197.75"/>
</g>
<!-- Node19 -->
<g id="node19" class="node">
<title>Node19</title>
<g id="a_node19"><a xlink:title=" ">
<polygon fill="white" stroke="#bfbfbf" points="467.87,-168.5 467.87,-187.5 563.87,-187.5 563.87,-168.5 467.87,-168.5"/>
<text text-anchor="middle" x="515.87" y="-175.5" font-family="Helvetica,sans-Serif" font-size="10.00">impl/Abelian.ipp</text>
</a>
</g>
</g>
<!-- Node18&#45;&gt;Node19 -->
<g id="edge22" class="edge">
<title>Node18&#45;&gt;Node19</title>
<path fill="none" stroke="midnightblue" d="M414.04,-224.44C433.78,-215.64 464.75,-201.81 487.36,-191.72"/>
<polygon fill="midnightblue" stroke="midnightblue" points="489.08,-194.79 496.78,-187.52 486.23,-188.4 489.08,-194.79"/>
</g>
<!-- Node21&#45;&gt;Node13 -->
<g id="edge27" class="edge">
<title>Node21&#45;&gt;Node13</title>
<path fill="none" stroke="midnightblue" d="M557.24,-280.33C568.75,-272.47 584.06,-259.72 590.87,-244 594.4,-235.84 592.24,-232.78 590.87,-224 586.82,-198.17 586.1,-190.54 572.87,-168 566.47,-157.11 557.02,-146.68 548.71,-138.61"/>
<polygon fill="midnightblue" stroke="midnightblue" points="550.93,-135.89 541.22,-131.65 546.17,-141.02 550.93,-135.89"/>
</g>
<!-- Node21&#45;&gt;Node14 -->
<g id="edge26" class="edge">
<title>Node21&#45;&gt;Node14</title>
<path fill="none" stroke="midnightblue" d="M561.35,-280.47C575.56,-272.93 594.46,-260.55 604.87,-244 624.88,-212.18 627.77,-166.91 627.63,-141.73"/>
<polygon fill="midnightblue" stroke="midnightblue" points="631.12,-141.61 627.4,-131.69 624.13,-141.77 631.12,-141.61"/>
</g>
<!-- Node21&#45;&gt;Node18 -->
<g id="edge28" class="edge">
<title>Node21&#45;&gt;Node18</title>
<path fill="none" stroke="midnightblue" d="M519.42,-280.44C494.73,-271.44 455.68,-257.19 427.89,-247.05"/>
<polygon fill="midnightblue" stroke="midnightblue" points="428.8,-243.66 418.21,-243.52 426.4,-250.23 428.8,-243.66"/>
</g>
<!-- Node22 -->
<g id="node22" class="node">
<title>Node22</title>
<g id="a_node22"><a xlink:title=" ">
<polygon fill="white" stroke="#bfbfbf" points="675.87,-224.5 675.87,-243.5 719.87,-243.5 719.87,-224.5 675.87,-224.5"/>
<text text-anchor="middle" x="697.87" y="-231.5" font-family="Helvetica,sans-Serif" font-size="10.00">string</text>
</a>
</g>
</g>
<!-- Node21&#45;&gt;Node22 -->
<g id="edge25" class="edge">
<title>Node21&#45;&gt;Node22</title>
<path fill="none" stroke="midnightblue" d="M567.43,-280.44C594,-271.19 636.48,-256.39 665.7,-246.21"/>
<polygon fill="midnightblue" stroke="midnightblue" points="667.14,-249.41 675.43,-242.82 664.84,-242.8 667.14,-249.41"/>
</g>
<!-- Node23 -->
<g id="node23" class="node">
<title>Node23</title>
<g id="a_node23"><a xlink:title=" ">
<polygon fill="white" stroke="#bfbfbf" points="449.87,-224.5 449.87,-243.5 581.87,-243.5 581.87,-224.5 449.87,-224.5"/>
<text text-anchor="middle" x="515.87" y="-231.5" font-family="Helvetica,sans-Serif" font-size="10.00">impl/MackeyFunctor.ipp</text>
</a>
</g>
</g>
<!-- Node21&#45;&gt;Node23 -->
<g id="edge29" class="edge">
<title>Node21&#45;&gt;Node23</title>
<path fill="none" stroke="midnightblue" d="M538.41,-280.08C534.71,-272.69 529.34,-261.95 524.77,-252.81"/>
<polygon fill="midnightblue" stroke="midnightblue" points="527.85,-251.13 520.24,-243.75 521.58,-254.26 527.85,-251.13"/>
</g>
</g>
</svg>
