<?xml version="1.0" encoding="UTF-8" standalone="no"?>
<!DOCTYPE svg PUBLIC "-//W3C//DTD SVG 1.1//EN"
 "http://www.w3.org/Graphics/SVG/1.1/DTD/svg11.dtd">
<!-- Generated by graphviz version 2.43.0 (0)
 -->
<!-- Title: Mackey.hpp Pages: 1 -->
<svg width="1003pt" height="711pt"
 viewBox="0.00 0.00 1002.50 711.00" xmlns="http://www.w3.org/2000/svg" xmlns:xlink="http://www.w3.org/1999/xlink">
<g id="graph0" class="graph" transform="scale(1 1) rotate(0) translate(4 707)">
<title>Mackey.hpp</title>
<polygon fill="white" stroke="transparent" points="-4,4 -4,-707 998.5,-707 998.5,4 -4,4"/>
<!-- Node1 -->
<g id="node1" class="node">
<title>Node1</title>
<g id="a_node1"><a xlink:title="Includes the entire library apart from Serialization/Cerealizer.hpp.">
<polygon fill="#bfbfbf" stroke="black" points="285,-683.5 285,-702.5 359,-702.5 359,-683.5 285,-683.5"/>
<text text-anchor="middle" x="322" y="-690.5" font-family="Helvetica,sans-Serif" font-size="10.00">Mackey.hpp</text>
</a>
</g>
</g>
<!-- Node2 -->
<g id="node2" class="node">
<title>Node2</title>
<g id="a_node2"><a xlink:href="Z__n_8hpp.html" target="_top" xlink:title="Contains the class mackey::Z_mod.">
<polygon fill="white" stroke="black" points="12,-168.5 12,-187.5 128,-187.5 128,-168.5 12,-168.5"/>
<text text-anchor="middle" x="70" y="-175.5" font-family="Helvetica,sans-Serif" font-size="10.00">Coefficients/Z_n.hpp</text>
</a>
</g>
</g>
<!-- Node1&#45;&gt;Node2 -->
<g id="edge1" class="edge">
<title>Node1&#45;&gt;Node2</title>
<path fill="none" stroke="midnightblue" d="M284.92,-690.91C214.2,-686.64 67,-666.31 67,-571 67,-571 67,-571 67,-289 67,-256.94 68.29,-219.63 69.18,-197.74"/>
<polygon fill="midnightblue" stroke="midnightblue" points="72.68,-197.69 69.61,-187.56 65.69,-197.4 72.68,-197.69"/>
</g>
<!-- Node9 -->
<g id="node9" class="node">
<title>Node9</title>
<g id="a_node9"><a xlink:href="C2n_8hpp.html" target="_top" xlink:title="Defines the groups &#160;via mackey::C2Power.">
<polygon fill="white" stroke="black" points="95,-224.5 95,-243.5 189,-243.5 189,-224.5 95,-224.5"/>
<text text-anchor="middle" x="142" y="-231.5" font-family="Helvetica,sans-Serif" font-size="10.00">Groups/C2n.hpp</text>
</a>
</g>
</g>
<!-- Node1&#45;&gt;Node9 -->
<g id="edge8" class="edge">
<title>Node1&#45;&gt;Node9</title>
<path fill="none" stroke="midnightblue" d="M284.98,-685.87C229.19,-674.29 130,-643.5 130,-571 130,-571 130,-571 130,-345 130,-312.76 135.16,-275.51 138.71,-253.68"/>
<polygon fill="midnightblue" stroke="midnightblue" points="142.21,-253.97 140.43,-243.52 135.31,-252.8 142.21,-253.97"/>
</g>
<!-- Node20 -->
<g id="node20" class="node">
<title>Node20</title>
<g id="a_node20"><a xlink:href="BC4S2_8hpp.html" target="_top" xlink:title="Contains the class mackey::BC4S2.">
<polygon fill="white" stroke="black" points="227.5,-622 227.5,-641 334.5,-641 334.5,-622 227.5,-622"/>
<text text-anchor="middle" x="281" y="-629" font-family="Helvetica,sans-Serif" font-size="10.00">Spaces/BC4S2.hpp</text>
</a>
</g>
</g>
<!-- Node1&#45;&gt;Node20 -->
<g id="edge23" class="edge">
<title>Node1&#45;&gt;Node20</title>
<path fill="none" stroke="midnightblue" d="M316.13,-683.48C310.04,-674.64 300.36,-660.59 292.7,-649.48"/>
<polygon fill="midnightblue" stroke="midnightblue" points="295.42,-647.26 286.86,-641.01 289.66,-651.23 295.42,-647.26"/>
</g>
<!-- Node51 -->
<g id="node34" class="node">
<title>Node51</title>
<g id="a_node34"><a xlink:href="Additive_8hpp.html" target="_top" xlink:title="Contains the class mackey::AdditiveStructure">
<polygon fill="white" stroke="black" points="329.5,-448.5 329.5,-467.5 494.5,-467.5 494.5,-448.5 329.5,-448.5"/>
<text text-anchor="middle" x="412" y="-455.5" font-family="Helvetica,sans-Serif" font-size="10.00">Mackey_Functors/Additive.hpp</text>
</a>
</g>
</g>
<!-- Node1&#45;&gt;Node51 -->
<g id="edge41" class="edge">
<title>Node1&#45;&gt;Node51</title>
<path fill="none" stroke="midnightblue" d="M326.25,-683.47C330.65,-674.49 337.64,-659.9 343,-647 368.43,-585.86 394.22,-511.63 405.75,-477.63"/>
<polygon fill="midnightblue" stroke="midnightblue" points="409.21,-478.31 409.09,-467.72 402.58,-476.08 409.21,-478.31"/>
</g>
<!-- Node55 -->
<g id="node38" class="node">
<title>Node55</title>
<g id="a_node38"><a xlink:href="Factorization_8hpp.html" target="_top" xlink:title="Contains the class mackey::Factorization.">
<polygon fill="white" stroke="black" points="391.5,-622 391.5,-641 556.5,-641 556.5,-622 391.5,-622"/>
<text text-anchor="middle" x="474" y="-629" font-family="Helvetica,sans-Serif" font-size="10.00">Factorization/Factorization.hpp</text>
</a>
</g>
</g>
<!-- Node1&#45;&gt;Node55 -->
<g id="edge46" class="edge">
<title>Node1&#45;&gt;Node55</title>
<path fill="none" stroke="midnightblue" d="M343.78,-683.48C369.74,-673.31 413.31,-656.26 442.83,-644.7"/>
<polygon fill="midnightblue" stroke="midnightblue" points="444.23,-647.91 452.26,-641.01 441.67,-641.4 444.23,-647.91"/>
</g>
<!-- Node69 -->
<g id="node49" class="node">
<title>Node69</title>
<g id="a_node49"><a xlink:href="Mult__Connectivity_8hpp.html" target="_top" xlink:title="Contains the class mackey::MultConnectivity.">
<polygon fill="white" stroke="black" points="670,-616.5 670,-646.5 774,-646.5 774,-616.5 670,-616.5"/>
<text text-anchor="start" x="678" y="-634.5" font-family="Helvetica,sans-Serif" font-size="10.00">Factorization/Mult</text>
<text text-anchor="middle" x="722" y="-623.5" font-family="Helvetica,sans-Serif" font-size="10.00">_Connectivity.hpp</text>
</a>
</g>
</g>
<!-- Node1&#45;&gt;Node69 -->
<g id="edge62" class="edge">
<title>Node1&#45;&gt;Node69</title>
<path fill="none" stroke="midnightblue" d="M359.27,-686.46C428.04,-676.23 575.53,-654.29 659.72,-641.76"/>
<polygon fill="midnightblue" stroke="midnightblue" points="660.29,-645.22 669.67,-640.28 659.26,-638.29 660.29,-645.22"/>
</g>
<!-- Node3 -->
<g id="node3" class="node">
<title>Node3</title>
<g id="a_node3"><a xlink:title=" ">
<polygon fill="white" stroke="#bfbfbf" points="232,-112.5 232,-131.5 292,-131.5 292,-112.5 232,-112.5"/>
<text text-anchor="middle" x="262" y="-119.5" font-family="Helvetica,sans-Serif" font-size="10.00">iostream</text>
</a>
</g>
</g>
<!-- Node2&#45;&gt;Node3 -->
<g id="edge2" class="edge">
<title>Node2&#45;&gt;Node3</title>
<path fill="none" stroke="midnightblue" d="M100.42,-168.44C133.28,-159.2 185.78,-144.44 221.97,-134.26"/>
<polygon fill="midnightblue" stroke="midnightblue" points="223.04,-137.59 231.72,-131.52 221.15,-130.85 223.04,-137.59"/>
</g>
<!-- Node4 -->
<g id="node4" class="node">
<title>Node4</title>
<g id="a_node4"><a xlink:title=" ">
<polygon fill="white" stroke="#bfbfbf" points="0,-112.5 0,-131.5 42,-131.5 42,-112.5 0,-112.5"/>
<text text-anchor="middle" x="21" y="-119.5" font-family="Helvetica,sans-Serif" font-size="10.00">array</text>
</a>
</g>
</g>
<!-- Node2&#45;&gt;Node4 -->
<g id="edge3" class="edge">
<title>Node2&#45;&gt;Node4</title>
<path fill="none" stroke="midnightblue" d="M61.91,-168.08C54.84,-160.3 44.41,-148.8 35.85,-139.37"/>
<polygon fill="midnightblue" stroke="midnightblue" points="38.25,-136.8 28.94,-131.75 33.07,-141.51 38.25,-136.8"/>
</g>
<!-- Node5 -->
<g id="node5" class="node">
<title>Node5</title>
<g id="a_node5"><a xlink:title=" ">
<polygon fill="white" stroke="#bfbfbf" points="114.5,-56.5 114.5,-75.5 191.5,-75.5 191.5,-56.5 114.5,-56.5"/>
<text text-anchor="middle" x="153" y="-63.5" font-family="Helvetica,sans-Serif" font-size="10.00">Eigen/Dense</text>
</a>
</g>
</g>
<!-- Node2&#45;&gt;Node5 -->
<g id="edge4" class="edge">
<title>Node2&#45;&gt;Node5</title>
<path fill="none" stroke="midnightblue" d="M71.59,-168.26C74.35,-155.03 80.99,-129.61 94,-112 103.21,-99.53 116.8,-88.84 128.61,-81.02"/>
<polygon fill="midnightblue" stroke="midnightblue" points="130.61,-83.9 137.2,-75.61 126.87,-77.98 130.61,-83.9"/>
</g>
<!-- Node6 -->
<g id="node6" class="node">
<title>Node6</title>
<g id="a_node6"><a xlink:href="SFINAE_8hpp.html" target="_top" xlink:title="Contains all the SFINAE tricks.">
<polygon fill="white" stroke="black" points="246,-56.5 246,-75.5 350,-75.5 350,-56.5 246,-56.5"/>
<text text-anchor="middle" x="298" y="-63.5" font-family="Helvetica,sans-Serif" font-size="10.00">Types/SFINAE.hpp</text>
</a>
</g>
</g>
<!-- Node2&#45;&gt;Node6 -->
<g id="edge5" class="edge">
<title>Node2&#45;&gt;Node6</title>
<path fill="none" stroke="midnightblue" d="M75.13,-168.37C83.93,-154.35 103.26,-126.69 127,-112 159.91,-91.64 201.87,-80.42 235.99,-74.27"/>
<polygon fill="midnightblue" stroke="midnightblue" points="236.57,-77.72 245.85,-72.6 235.4,-70.82 236.57,-77.72"/>
</g>
<!-- Node8 -->
<g id="node8" class="node">
<title>Node8</title>
<g id="a_node8"><a xlink:title=" ">
<polygon fill="white" stroke="#bfbfbf" points="136.5,-112.5 136.5,-131.5 213.5,-131.5 213.5,-112.5 136.5,-112.5"/>
<text text-anchor="middle" x="175" y="-119.5" font-family="Helvetica,sans-Serif" font-size="10.00">impl/Z_n.ipp</text>
</a>
</g>
</g>
<!-- Node2&#45;&gt;Node8 -->
<g id="edge7" class="edge">
<title>Node2&#45;&gt;Node8</title>
<path fill="none" stroke="midnightblue" d="M86.87,-168.32C103.71,-159.66 129.81,-146.24 149.24,-136.25"/>
<polygon fill="midnightblue" stroke="midnightblue" points="150.88,-139.34 158.17,-131.65 147.68,-133.12 150.88,-139.34"/>
</g>
<!-- Node7 -->
<g id="node7" class="node">
<title>Node7</title>
<g id="a_node7"><a xlink:title=" ">
<polygon fill="white" stroke="#bfbfbf" points="263.5,-0.5 263.5,-19.5 332.5,-19.5 332.5,-0.5 263.5,-0.5"/>
<text text-anchor="middle" x="298" y="-7.5" font-family="Helvetica,sans-Serif" font-size="10.00">type_traits</text>
</a>
</g>
</g>
<!-- Node6&#45;&gt;Node7 -->
<g id="edge6" class="edge">
<title>Node6&#45;&gt;Node7</title>
<path fill="none" stroke="midnightblue" d="M298,-56.08C298,-49.01 298,-38.86 298,-29.99"/>
<polygon fill="midnightblue" stroke="midnightblue" points="301.5,-29.75 298,-19.75 294.5,-29.75 301.5,-29.75"/>
</g>
<!-- Node10 -->
<g id="node10" class="node">
<title>Node10</title>
<g id="a_node10"><a xlink:href="Chains_8hpp.html" target="_top" xlink:title="Contains the classes mackey::Arrow, mackey::Chains and mackey::Junction.">
<polygon fill="white" stroke="black" points="589.5,-168.5 589.5,-187.5 750.5,-187.5 750.5,-168.5 589.5,-168.5"/>
<text text-anchor="middle" x="670" y="-175.5" font-family="Helvetica,sans-Serif" font-size="10.00">Chain_Complexes/Chains.hpp</text>
</a>
</g>
</g>
<!-- Node9&#45;&gt;Node10 -->
<g id="edge9" class="edge">
<title>Node9&#45;&gt;Node10</title>
<path fill="none" stroke="midnightblue" d="M189.02,-225.22C192.06,-224.79 195.07,-224.37 198,-224 330.15,-207.1 483.87,-193.58 579.06,-185.92"/>
<polygon fill="midnightblue" stroke="midnightblue" points="579.54,-189.4 589.23,-185.11 578.98,-182.42 579.54,-189.4"/>
</g>
<!-- Node14 -->
<g id="node14" class="node">
<title>Node14</title>
<g id="a_node14"><a xlink:href="General_8hpp.html" target="_top" xlink:title="Contains general functions and vector overloads independent of everything else.">
<polygon fill="white" stroke="black" points="433.5,-168.5 433.5,-187.5 542.5,-187.5 542.5,-168.5 433.5,-168.5"/>
<text text-anchor="middle" x="488" y="-175.5" font-family="Helvetica,sans-Serif" font-size="10.00">Utility/General.hpp</text>
</a>
</g>
</g>
<!-- Node9&#45;&gt;Node14 -->
<g id="edge13" class="edge">
<title>Node9&#45;&gt;Node14</title>
<path fill="none" stroke="midnightblue" d="M189.05,-225.42C192.08,-224.94 195.08,-224.46 198,-224 275.55,-211.75 364.8,-197.95 423.58,-188.89"/>
<polygon fill="midnightblue" stroke="midnightblue" points="424.12,-192.35 433.47,-187.37 423.05,-185.43 424.12,-192.35"/>
</g>
<!-- Node19 -->
<g id="node19" class="node">
<title>Node19</title>
<g id="a_node19"><a xlink:title=" ">
<polygon fill="white" stroke="#bfbfbf" points="146,-168.5 146,-187.5 224,-187.5 224,-168.5 146,-168.5"/>
<text text-anchor="middle" x="185" y="-175.5" font-family="Helvetica,sans-Serif" font-size="10.00">impl/C2n.ipp</text>
</a>
</g>
</g>
<!-- Node9&#45;&gt;Node19 -->
<g id="edge22" class="edge">
<title>Node9&#45;&gt;Node19</title>
<path fill="none" stroke="midnightblue" d="M149.1,-224.08C155.24,-216.38 164.27,-205.03 171.74,-195.65"/>
<polygon fill="midnightblue" stroke="midnightblue" points="174.54,-197.75 178.03,-187.75 169.06,-193.39 174.54,-197.75"/>
</g>
<!-- Node11 -->
<g id="node11" class="node">
<title>Node11</title>
<g id="a_node11"><a xlink:title=" ">
<polygon fill="white" stroke="#bfbfbf" points="622.5,-112.5 622.5,-131.5 669.5,-131.5 669.5,-112.5 622.5,-112.5"/>
<text text-anchor="middle" x="646" y="-119.5" font-family="Helvetica,sans-Serif" font-size="10.00">vector</text>
</a>
</g>
</g>
<!-- Node10&#45;&gt;Node11 -->
<g id="edge10" class="edge">
<title>Node10&#45;&gt;Node11</title>
<path fill="none" stroke="midnightblue" d="M666.04,-168.08C662.79,-160.77 658.08,-150.18 654.05,-141.1"/>
<polygon fill="midnightblue" stroke="midnightblue" points="657.15,-139.47 649.89,-131.75 650.75,-142.31 657.15,-139.47"/>
</g>
<!-- Node12 -->
<g id="node12" class="node">
<title>Node12</title>
<g id="a_node12"><a xlink:title=" ">
<polygon fill="white" stroke="#bfbfbf" points="687.5,-112.5 687.5,-131.5 744.5,-131.5 744.5,-112.5 687.5,-112.5"/>
<text text-anchor="middle" x="716" y="-119.5" font-family="Helvetica,sans-Serif" font-size="10.00">ostream</text>
</a>
</g>
</g>
<!-- Node10&#45;&gt;Node12 -->
<g id="edge11" class="edge">
<title>Node10&#45;&gt;Node12</title>
<path fill="none" stroke="midnightblue" d="M677.6,-168.08C684.23,-160.3 694.02,-148.8 702.06,-139.37"/>
<polygon fill="midnightblue" stroke="midnightblue" points="704.73,-141.63 708.55,-131.75 699.4,-137.09 704.73,-141.63"/>
</g>
<!-- Node13 -->
<g id="node13" class="node">
<title>Node13</title>
<g id="a_node13"><a xlink:title=" ">
<polygon fill="white" stroke="#bfbfbf" points="763,-112.5 763,-131.5 855,-131.5 855,-112.5 763,-112.5"/>
<text text-anchor="middle" x="809" y="-119.5" font-family="Helvetica,sans-Serif" font-size="10.00">impl/Chains.ipp</text>
</a>
</g>
</g>
<!-- Node10&#45;&gt;Node13 -->
<g id="edge12" class="edge">
<title>Node10&#45;&gt;Node13</title>
<path fill="none" stroke="midnightblue" d="M692.02,-168.44C715.1,-159.48 751.56,-145.31 777.64,-135.18"/>
<polygon fill="midnightblue" stroke="midnightblue" points="779.02,-138.4 787.08,-131.52 776.49,-131.88 779.02,-138.4"/>
</g>
<!-- Node14&#45;&gt;Node3 -->
<g id="edge20" class="edge">
<title>Node14&#45;&gt;Node3</title>
<path fill="none" stroke="midnightblue" d="M452.19,-168.44C411.28,-158.67 344.53,-142.72 301.96,-132.55"/>
<polygon fill="midnightblue" stroke="midnightblue" points="302.76,-129.14 292.22,-130.22 301.13,-135.95 302.76,-129.14"/>
</g>
<!-- Node14&#45;&gt;Node11 -->
<g id="edge14" class="edge">
<title>Node14&#45;&gt;Node11</title>
<path fill="none" stroke="midnightblue" d="M513.04,-168.44C540.01,-159.23 583.05,-144.51 612.83,-134.34"/>
<polygon fill="midnightblue" stroke="midnightblue" points="614.04,-137.62 622.37,-131.08 611.78,-131 614.04,-137.62"/>
</g>
<!-- Node15 -->
<g id="node15" class="node">
<title>Node15</title>
<g id="a_node15"><a xlink:href="Aliases_8hpp.html" target="_top" xlink:title="Contains general template aliases.">
<polygon fill="white" stroke="black" points="310,-112.5 310,-131.5 414,-131.5 414,-112.5 310,-112.5"/>
<text text-anchor="middle" x="362" y="-119.5" font-family="Helvetica,sans-Serif" font-size="10.00">Types/Aliases.hpp</text>
</a>
</g>
</g>
<!-- Node14&#45;&gt;Node15 -->
<g id="edge15" class="edge">
<title>Node14&#45;&gt;Node15</title>
<path fill="none" stroke="midnightblue" d="M468.03,-168.44C447.39,-159.6 414.94,-145.69 391.37,-135.59"/>
<polygon fill="midnightblue" stroke="midnightblue" points="392.44,-132.24 381.87,-131.52 389.68,-138.67 392.44,-132.24"/>
</g>
<!-- Node17 -->
<g id="node17" class="node">
<title>Node17</title>
<g id="a_node17"><a xlink:title=" ">
<polygon fill="white" stroke="#bfbfbf" points="432,-112.5 432,-131.5 488,-131.5 488,-112.5 432,-112.5"/>
<text text-anchor="middle" x="460" y="-119.5" font-family="Helvetica,sans-Serif" font-size="10.00">numeric</text>
</a>
</g>
</g>
<!-- Node14&#45;&gt;Node17 -->
<g id="edge19" class="edge">
<title>Node14&#45;&gt;Node17</title>
<path fill="none" stroke="midnightblue" d="M483.38,-168.08C479.54,-160.69 473.98,-149.95 469.24,-140.81"/>
<polygon fill="midnightblue" stroke="midnightblue" points="472.25,-139.02 464.54,-131.75 466.03,-142.24 472.25,-139.02"/>
</g>
<!-- Node18 -->
<g id="node18" class="node">
<title>Node18</title>
<g id="a_node18"><a xlink:title=" ">
<polygon fill="white" stroke="#bfbfbf" points="506,-112.5 506,-131.5 604,-131.5 604,-112.5 506,-112.5"/>
<text text-anchor="middle" x="555" y="-119.5" font-family="Helvetica,sans-Serif" font-size="10.00">impl/General.ipp</text>
</a>
</g>
</g>
<!-- Node14&#45;&gt;Node18 -->
<g id="edge21" class="edge">
<title>Node14&#45;&gt;Node18</title>
<path fill="none" stroke="midnightblue" d="M498.76,-168.32C508.77,-160.26 523.89,-148.08 535.93,-138.37"/>
<polygon fill="midnightblue" stroke="midnightblue" points="538.45,-140.83 544.04,-131.83 534.06,-135.38 538.45,-140.83"/>
</g>
<!-- Node15&#45;&gt;Node5 -->
<g id="edge16" class="edge">
<title>Node15&#45;&gt;Node5</title>
<path fill="none" stroke="midnightblue" d="M328.88,-112.44C292.88,-103.14 235.23,-88.25 195.81,-78.06"/>
<polygon fill="midnightblue" stroke="midnightblue" points="196.52,-74.63 185.96,-75.52 194.77,-81.41 196.52,-74.63"/>
</g>
<!-- Node15&#45;&gt;Node6 -->
<g id="edge18" class="edge">
<title>Node15&#45;&gt;Node6</title>
<path fill="none" stroke="midnightblue" d="M351.72,-112.32C342.16,-104.26 327.72,-92.08 316.22,-82.37"/>
<polygon fill="midnightblue" stroke="midnightblue" points="318.37,-79.61 308.47,-75.83 313.86,-84.96 318.37,-79.61"/>
</g>
<!-- Node16 -->
<g id="node16" class="node">
<title>Node16</title>
<g id="a_node16"><a xlink:title=" ">
<polygon fill="white" stroke="#bfbfbf" points="386,-56.5 386,-75.5 466,-75.5 466,-56.5 386,-56.5"/>
<text text-anchor="middle" x="426" y="-63.5" font-family="Helvetica,sans-Serif" font-size="10.00">Eigen/Sparse</text>
</a>
</g>
</g>
<!-- Node15&#45;&gt;Node16 -->
<g id="edge17" class="edge">
<title>Node15&#45;&gt;Node16</title>
<path fill="none" stroke="midnightblue" d="M372.28,-112.32C381.84,-104.26 396.28,-92.08 407.78,-82.37"/>
<polygon fill="midnightblue" stroke="midnightblue" points="410.14,-84.96 415.53,-75.83 405.63,-79.61 410.14,-84.96"/>
</g>
<!-- Node21 -->
<g id="node21" class="node">
<title>Node21</title>
<g id="a_node21"><a xlink:href="Space_8hpp.html" target="_top" xlink:title="Contains the class mackey::Space.">
<polygon fill="white" stroke="black" points="267.5,-560.5 267.5,-579.5 334.5,-579.5 334.5,-560.5 267.5,-560.5"/>
<text text-anchor="middle" x="301" y="-567.5" font-family="Helvetica,sans-Serif" font-size="10.00">Space.hpp</text>
</a>
</g>
</g>
<!-- Node20&#45;&gt;Node21 -->
<g id="edge24" class="edge">
<title>Node20&#45;&gt;Node21</title>
<path fill="none" stroke="midnightblue" d="M283.87,-621.98C286.72,-613.49 291.18,-600.2 294.84,-589.32"/>
<polygon fill="midnightblue" stroke="midnightblue" points="298.27,-590.1 298.14,-579.51 291.64,-587.87 298.27,-590.1"/>
</g>
<!-- Node50 -->
<g id="node33" class="node">
<title>Node50</title>
<g id="a_node33"><a xlink:title=" ">
<polygon fill="white" stroke="#bfbfbf" points="158.5,-560.5 158.5,-579.5 249.5,-579.5 249.5,-560.5 158.5,-560.5"/>
<text text-anchor="middle" x="204" y="-567.5" font-family="Helvetica,sans-Serif" font-size="10.00">impl/BC4S2.ipp</text>
</a>
</g>
</g>
<!-- Node20&#45;&gt;Node50 -->
<g id="edge40" class="edge">
<title>Node20&#45;&gt;Node50</title>
<path fill="none" stroke="midnightblue" d="M269.97,-621.98C257.73,-612.52 237.77,-597.1 223.01,-585.69"/>
<polygon fill="midnightblue" stroke="midnightblue" points="225.06,-582.85 215.01,-579.51 220.78,-588.39 225.06,-582.85"/>
</g>
<!-- Node22 -->
<g id="node22" class="node">
<title>Node22</title>
<g id="a_node22"><a xlink:href="Point_8hpp.html" target="_top" xlink:title="Contains the methods computing the RO(G) homology of a point.">
<polygon fill="white" stroke="black" points="322,-392.5 322,-411.5 384,-411.5 384,-392.5 322,-392.5"/>
<text text-anchor="middle" x="353" y="-399.5" font-family="Helvetica,sans-Serif" font-size="10.00">Point.hpp</text>
</a>
</g>
</g>
<!-- Node21&#45;&gt;Node22 -->
<g id="edge25" class="edge">
<title>Node21&#45;&gt;Node22</title>
<path fill="none" stroke="midnightblue" d="M300.98,-560.41C301.21,-540.07 303.5,-487.66 320,-448 324.32,-437.62 331.5,-427.41 338.06,-419.34"/>
<polygon fill="midnightblue" stroke="midnightblue" points="340.92,-421.39 344.78,-411.52 335.61,-416.83 340.92,-421.39"/>
</g>
<!-- Node49 -->
<g id="node32" class="node">
<title>Node49</title>
<g id="a_node32"><a xlink:title=" ">
<polygon fill="white" stroke="#bfbfbf" points="183.5,-504.5 183.5,-523.5 272.5,-523.5 272.5,-504.5 183.5,-504.5"/>
<text text-anchor="middle" x="228" y="-511.5" font-family="Helvetica,sans-Serif" font-size="10.00">impl/Space.ipp</text>
</a>
</g>
</g>
<!-- Node21&#45;&gt;Node49 -->
<g id="edge39" class="edge">
<title>Node21&#45;&gt;Node49</title>
<path fill="none" stroke="midnightblue" d="M289.27,-560.32C278.16,-552.11 261.26,-539.6 248.02,-529.81"/>
<polygon fill="midnightblue" stroke="midnightblue" points="250.06,-526.97 239.94,-523.83 245.9,-532.59 250.06,-526.97"/>
</g>
<!-- Node23 -->
<g id="node23" class="node">
<title>Node23</title>
<g id="a_node23"><a xlink:href="Massey_8hpp.html" target="_top" xlink:title="Contains the classes mackey::Massey and mackey::internal::MasseyCompute.">
<polygon fill="white" stroke="black" points="293.5,-336.5 293.5,-355.5 412.5,-355.5 412.5,-336.5 293.5,-336.5"/>
<text text-anchor="middle" x="353" y="-343.5" font-family="Helvetica,sans-Serif" font-size="10.00">Products/Massey.hpp</text>
</a>
</g>
</g>
<!-- Node22&#45;&gt;Node23 -->
<g id="edge26" class="edge">
<title>Node22&#45;&gt;Node23</title>
<path fill="none" stroke="midnightblue" d="M353,-392.08C353,-385.01 353,-374.86 353,-365.99"/>
<polygon fill="midnightblue" stroke="midnightblue" points="356.5,-365.75 353,-355.75 349.5,-365.75 356.5,-365.75"/>
</g>
<!-- Node46 -->
<g id="node29" class="node">
<title>Node46</title>
<g id="a_node29"><a xlink:href="Morse_8hpp.html" target="_top" xlink:title="Contains the classes mackey::AMT and mackey::EquivariantAMT.">
<polygon fill="white" stroke="black" points="761,-224.5 761,-243.5 919,-243.5 919,-224.5 761,-224.5"/>
<text text-anchor="middle" x="840" y="-231.5" font-family="Helvetica,sans-Serif" font-size="10.00">Chain_Complexes/Morse.hpp</text>
</a>
</g>
</g>
<!-- Node22&#45;&gt;Node46 -->
<g id="edge34" class="edge">
<title>Node22&#45;&gt;Node46</title>
<path fill="none" stroke="midnightblue" d="M384.18,-393.87C418.69,-385.73 475.79,-371.52 524,-356 631.13,-321.51 754.88,-270.88 810.39,-247.58"/>
<polygon fill="midnightblue" stroke="midnightblue" points="812.08,-250.66 819.94,-243.56 809.36,-244.21 812.08,-250.66"/>
</g>
<!-- Node48 -->
<g id="node31" class="node">
<title>Node48</title>
<g id="a_node31"><a xlink:title=" ">
<polygon fill="white" stroke="#bfbfbf" points="431,-336.5 431,-355.5 515,-355.5 515,-336.5 431,-336.5"/>
<text text-anchor="middle" x="473" y="-343.5" font-family="Helvetica,sans-Serif" font-size="10.00">impl/Point.ipp</text>
</a>
</g>
</g>
<!-- Node22&#45;&gt;Node48 -->
<g id="edge38" class="edge">
<title>Node22&#45;&gt;Node48</title>
<path fill="none" stroke="midnightblue" d="M372.01,-392.44C391.59,-383.64 422.31,-369.81 444.73,-359.72"/>
<polygon fill="midnightblue" stroke="midnightblue" points="446.39,-362.81 454.07,-355.52 443.52,-356.43 446.39,-362.81"/>
</g>
<!-- Node24 -->
<g id="node24" class="node">
<title>Node24</title>
<g id="a_node24"><a xlink:href="Green_8hpp.html" target="_top" xlink:title="Contains the classes mackey::Green, mackey::internal::GreenCompute, mackey::internal::ChainsLevelGen,...">
<polygon fill="white" stroke="red" points="421.5,-280.5 421.5,-299.5 488.5,-299.5 488.5,-280.5 421.5,-280.5"/>
<text text-anchor="middle" x="455" y="-287.5" font-family="Helvetica,sans-Serif" font-size="10.00">Green.hpp</text>
</a>
</g>
</g>
<!-- Node23&#45;&gt;Node24 -->
<g id="edge27" class="edge">
<title>Node23&#45;&gt;Node24</title>
<path fill="none" stroke="midnightblue" d="M369.39,-336.32C385.67,-327.7 410.87,-314.36 429.72,-304.39"/>
<polygon fill="midnightblue" stroke="midnightblue" points="431.45,-307.43 438.65,-299.65 428.18,-301.24 431.45,-307.43"/>
</g>
<!-- Node45 -->
<g id="node28" class="node">
<title>Node45</title>
<g id="a_node28"><a xlink:title=" ">
<polygon fill="white" stroke="#bfbfbf" points="305.5,-280.5 305.5,-299.5 400.5,-299.5 400.5,-280.5 305.5,-280.5"/>
<text text-anchor="middle" x="353" y="-287.5" font-family="Helvetica,sans-Serif" font-size="10.00">impl/Massey.ipp</text>
</a>
</g>
</g>
<!-- Node23&#45;&gt;Node45 -->
<g id="edge33" class="edge">
<title>Node23&#45;&gt;Node45</title>
<path fill="none" stroke="midnightblue" d="M353,-336.08C353,-329.01 353,-318.86 353,-309.99"/>
<polygon fill="midnightblue" stroke="midnightblue" points="356.5,-309.75 353,-299.75 349.5,-309.75 356.5,-309.75"/>
</g>
<!-- Node25 -->
<g id="node25" class="node">
<title>Node25</title>
<g id="a_node25"><a xlink:href="Levels_8hpp.html" target="_top" xlink:title="Contains the methods for transfering, restricting and Weyl&#45;group&#45;acting.">
<polygon fill="white" stroke="red" points="207,-224.5 207,-243.5 363,-243.5 363,-224.5 207,-224.5"/>
<text text-anchor="middle" x="285" y="-231.5" font-family="Helvetica,sans-Serif" font-size="10.00">Mackey_Functors/Levels.hpp</text>
</a>
</g>
</g>
<!-- Node24&#45;&gt;Node25 -->
<g id="edge28" class="edge">
<title>Node24&#45;&gt;Node25</title>
<path fill="none" stroke="midnightblue" d="M428.06,-280.44C399.34,-271.32 353.67,-256.81 321.68,-246.65"/>
<polygon fill="midnightblue" stroke="midnightblue" points="322.4,-243.21 311.81,-243.52 320.28,-249.88 322.4,-243.21"/>
</g>
<!-- Node33 -->
<g id="node26" class="node">
<title>Node33</title>
<g id="a_node26"><a xlink:href="Identify_8hpp.html" target="_top" xlink:title="Contains the classes mackey::IDGenerators and mackey::internal::IDGeneratorCompute">
<polygon fill="white" stroke="red" points="381,-224.5 381,-243.5 541,-243.5 541,-224.5 381,-224.5"/>
<text text-anchor="middle" x="461" y="-231.5" font-family="Helvetica,sans-Serif" font-size="10.00">Mackey_Functors/Identify.hpp</text>
</a>
</g>
</g>
<!-- Node24&#45;&gt;Node33 -->
<g id="edge29" class="edge">
<title>Node24&#45;&gt;Node33</title>
<path fill="none" stroke="midnightblue" d="M455.99,-280.08C456.79,-272.93 457.93,-262.64 458.92,-253.69"/>
<polygon fill="midnightblue" stroke="midnightblue" points="462.4,-254.08 460.03,-243.75 455.44,-253.3 462.4,-254.08"/>
</g>
<!-- Node38 -->
<g id="node27" class="node">
<title>Node38</title>
<g id="a_node27"><a xlink:href="Box_8hpp.html" target="_top" xlink:title="Contains the class mackey::Tensor.">
<polygon fill="white" stroke="red" points="597,-224.5 597,-243.5 743,-243.5 743,-224.5 597,-224.5"/>
<text text-anchor="middle" x="670" y="-231.5" font-family="Helvetica,sans-Serif" font-size="10.00">Chain_Complexes/Box.hpp</text>
</a>
</g>
</g>
<!-- Node24&#45;&gt;Node38 -->
<g id="edge30" class="edge">
<title>Node24&#45;&gt;Node38</title>
<path fill="none" stroke="midnightblue" d="M488.59,-280.56C525.61,-271.26 585.29,-256.28 626.01,-246.05"/>
<polygon fill="midnightblue" stroke="midnightblue" points="627.09,-249.39 635.93,-243.56 625.38,-242.6 627.09,-249.39"/>
</g>
<!-- Node38&#45;&gt;Node10 -->
<g id="edge32" class="edge">
<title>Node38&#45;&gt;Node10</title>
<path fill="none" stroke="midnightblue" d="M670,-224.08C670,-217.01 670,-206.86 670,-197.99"/>
<polygon fill="midnightblue" stroke="midnightblue" points="673.5,-197.75 670,-187.75 666.5,-197.75 673.5,-197.75"/>
</g>
<!-- Node38&#45;&gt;Node14 -->
<g id="edge31" class="edge">
<title>Node38&#45;&gt;Node14</title>
<path fill="none" stroke="midnightblue" d="M641.16,-224.44C610.14,-215.24 560.67,-200.56 526.38,-190.39"/>
<polygon fill="midnightblue" stroke="midnightblue" points="527.29,-187.01 516.7,-187.52 525.29,-193.72 527.29,-187.01"/>
</g>
<!-- Node46&#45;&gt;Node10 -->
<g id="edge35" class="edge">
<title>Node46&#45;&gt;Node10</title>
<path fill="none" stroke="midnightblue" d="M813.06,-224.44C784.34,-215.32 738.67,-200.81 706.68,-190.65"/>
<polygon fill="midnightblue" stroke="midnightblue" points="707.4,-187.21 696.81,-187.52 705.28,-193.88 707.4,-187.21"/>
</g>
<!-- Node46&#45;&gt;Node16 -->
<g id="edge36" class="edge">
<title>Node46&#45;&gt;Node16</title>
<path fill="none" stroke="midnightblue" d="M847.15,-224.36C853.77,-215.76 863.16,-201.87 867,-188 872.04,-169.82 873.65,-122.13 864,-112 837.67,-84.35 585.63,-72.45 476.24,-68.56"/>
<polygon fill="midnightblue" stroke="midnightblue" points="476.23,-65.05 466.12,-68.2 475.99,-72.05 476.23,-65.05"/>
</g>
<!-- Node47 -->
<g id="node30" class="node">
<title>Node47</title>
<g id="a_node30"><a xlink:title=" ">
<polygon fill="white" stroke="#bfbfbf" points="768.5,-168.5 768.5,-187.5 857.5,-187.5 857.5,-168.5 768.5,-168.5"/>
<text text-anchor="middle" x="813" y="-175.5" font-family="Helvetica,sans-Serif" font-size="10.00">impl/Morse.ipp</text>
</a>
</g>
</g>
<!-- Node46&#45;&gt;Node47 -->
<g id="edge37" class="edge">
<title>Node46&#45;&gt;Node47</title>
<path fill="none" stroke="midnightblue" d="M835.54,-224.08C831.85,-216.69 826.48,-205.95 821.91,-196.81"/>
<polygon fill="midnightblue" stroke="midnightblue" points="824.98,-195.13 817.38,-187.75 818.72,-198.26 824.98,-195.13"/>
</g>
<!-- Node51&#45;&gt;Node22 -->
<g id="edge43" class="edge">
<title>Node51&#45;&gt;Node22</title>
<path fill="none" stroke="midnightblue" d="M402.52,-448.32C393.8,-440.34 380.66,-428.31 370.1,-418.65"/>
<polygon fill="midnightblue" stroke="midnightblue" points="372.39,-416 362.65,-411.83 367.67,-421.17 372.39,-416"/>
</g>
<!-- Node52 -->
<g id="node35" class="node">
<title>Node52</title>
<g id="a_node35"><a xlink:href="OpenMP__Macros_8hpp.html" target="_top" xlink:title="Contains open MP macros that enable and control multithreading.">
<polygon fill="white" stroke="black" points="440,-392.5 440,-411.5 592,-411.5 592,-392.5 440,-392.5"/>
<text text-anchor="middle" x="516" y="-399.5" font-family="Helvetica,sans-Serif" font-size="10.00">Utility/OpenMP_Macros.hpp</text>
</a>
</g>
</g>
<!-- Node51&#45;&gt;Node52 -->
<g id="edge42" class="edge">
<title>Node51&#45;&gt;Node52</title>
<path fill="none" stroke="midnightblue" d="M428.71,-448.32C445.31,-439.7 471,-426.36 490.22,-416.39"/>
<polygon fill="midnightblue" stroke="midnightblue" points="492.07,-419.37 499.33,-411.65 488.84,-413.16 492.07,-419.37"/>
</g>
<!-- Node53 -->
<g id="node36" class="node">
<title>Node53</title>
<g id="a_node36"><a xlink:title=" ">
<polygon fill="white" stroke="#bfbfbf" points="757,-336.5 757,-355.5 813,-355.5 813,-336.5 757,-336.5"/>
<text text-anchor="middle" x="785" y="-343.5" font-family="Helvetica,sans-Serif" font-size="10.00">iomanip</text>
</a>
</g>
</g>
<!-- Node51&#45;&gt;Node53 -->
<g id="edge44" class="edge">
<title>Node51&#45;&gt;Node53</title>
<path fill="none" stroke="midnightblue" d="M411.75,-448.26C411.87,-434.08 414.37,-406.19 431,-392 454.72,-371.76 660.12,-355.52 746.74,-349.51"/>
<polygon fill="midnightblue" stroke="midnightblue" points="747.19,-352.99 756.93,-348.81 746.72,-346 747.19,-352.99"/>
</g>
<!-- Node54 -->
<g id="node37" class="node">
<title>Node54</title>
<g id="a_node37"><a xlink:title=" ">
<polygon fill="white" stroke="#bfbfbf" points="204,-392.5 204,-411.5 304,-411.5 304,-392.5 204,-392.5"/>
<text text-anchor="middle" x="254" y="-399.5" font-family="Helvetica,sans-Serif" font-size="10.00">impl/Additive.ipp</text>
</a>
</g>
</g>
<!-- Node51&#45;&gt;Node54 -->
<g id="edge45" class="edge">
<title>Node51&#45;&gt;Node54</title>
<path fill="none" stroke="midnightblue" d="M386.96,-448.44C360.38,-439.36 318.19,-424.94 288.48,-414.78"/>
<polygon fill="midnightblue" stroke="midnightblue" points="289.51,-411.44 278.92,-411.52 287.25,-418.06 289.51,-411.44"/>
</g>
<!-- Node56 -->
<g id="node39" class="node">
<title>Node56</title>
<g id="a_node39"><a xlink:href="Mult__Identify_8hpp.html" target="_top" xlink:title="Contains the class mackey::MultIdentify.">
<polygon fill="white" stroke="black" points="531,-560.5 531,-579.5 631,-579.5 631,-560.5 531,-560.5"/>
<text text-anchor="middle" x="581" y="-567.5" font-family="Helvetica,sans-Serif" font-size="10.00">Mult_Identify.hpp</text>
</a>
</g>
</g>
<!-- Node55&#45;&gt;Node56 -->
<g id="edge47" class="edge">
<title>Node55&#45;&gt;Node56</title>
<path fill="none" stroke="midnightblue" d="M489.33,-621.98C506.97,-612.17 536.16,-595.93 556.86,-584.42"/>
<polygon fill="midnightblue" stroke="midnightblue" points="558.66,-587.43 565.7,-579.51 555.26,-581.31 558.66,-587.43"/>
</g>
<!-- Node68 -->
<g id="node48" class="node">
<title>Node68</title>
<g id="a_node48"><a xlink:title=" ">
<polygon fill="white" stroke="#bfbfbf" points="391,-560.5 391,-579.5 513,-579.5 513,-560.5 391,-560.5"/>
<text text-anchor="middle" x="452" y="-567.5" font-family="Helvetica,sans-Serif" font-size="10.00">impl/Factorization.ipp</text>
</a>
</g>
</g>
<!-- Node55&#45;&gt;Node68 -->
<g id="edge61" class="edge">
<title>Node55&#45;&gt;Node68</title>
<path fill="none" stroke="midnightblue" d="M470.85,-621.98C467.68,-613.4 462.7,-599.93 458.65,-588.98"/>
<polygon fill="midnightblue" stroke="midnightblue" points="461.9,-587.67 455.15,-579.51 455.33,-590.1 461.9,-587.67"/>
</g>
<!-- Node57 -->
<g id="node40" class="node">
<title>Node57</title>
<g id="a_node40"><a xlink:href="Mult__Graph_8hpp.html" target="_top" xlink:title="Contains the class mackey::MultGraph.">
<polygon fill="white" stroke="black" points="677,-504.5 677,-523.5 771,-523.5 771,-504.5 677,-504.5"/>
<text text-anchor="middle" x="724" y="-511.5" font-family="Helvetica,sans-Serif" font-size="10.00">Mult_Graph.hpp</text>
</a>
</g>
</g>
<!-- Node56&#45;&gt;Node57 -->
<g id="edge48" class="edge">
<title>Node56&#45;&gt;Node57</title>
<path fill="none" stroke="midnightblue" d="M603.66,-560.44C627.4,-551.48 664.91,-537.31 691.74,-527.18"/>
<polygon fill="midnightblue" stroke="midnightblue" points="693.33,-530.32 701.45,-523.52 690.86,-523.77 693.33,-530.32"/>
</g>
<!-- Node67 -->
<g id="node47" class="node">
<title>Node67</title>
<g id="a_node47"><a xlink:title=" ">
<polygon fill="white" stroke="#bfbfbf" points="520,-504.5 520,-523.5 642,-523.5 642,-504.5 520,-504.5"/>
<text text-anchor="middle" x="581" y="-511.5" font-family="Helvetica,sans-Serif" font-size="10.00">impl/Mult_Identify.ipp</text>
</a>
</g>
</g>
<!-- Node56&#45;&gt;Node67 -->
<g id="edge60" class="edge">
<title>Node56&#45;&gt;Node67</title>
<path fill="none" stroke="midnightblue" d="M581,-560.08C581,-553.01 581,-542.86 581,-533.99"/>
<polygon fill="midnightblue" stroke="midnightblue" points="584.5,-533.75 581,-523.75 577.5,-533.75 584.5,-533.75"/>
</g>
<!-- Node58 -->
<g id="node41" class="node">
<title>Node58</title>
<g id="a_node41"><a xlink:href="Mult__Table_8hpp.html" target="_top" xlink:title="Contains the classes mackey::MultTableData and mackey::MultTable.">
<polygon fill="white" stroke="black" points="558,-448.5 558,-467.5 648,-467.5 648,-448.5 558,-448.5"/>
<text text-anchor="middle" x="603" y="-455.5" font-family="Helvetica,sans-Serif" font-size="10.00">Mult_Table.hpp</text>
</a>
</g>
</g>
<!-- Node57&#45;&gt;Node58 -->
<g id="edge49" class="edge">
<title>Node57&#45;&gt;Node58</title>
<path fill="none" stroke="midnightblue" d="M704.83,-504.44C685.09,-495.64 654.11,-481.81 631.51,-471.72"/>
<polygon fill="midnightblue" stroke="midnightblue" points="632.64,-468.4 622.08,-467.52 629.79,-474.79 632.64,-468.4"/>
</g>
<!-- Node60 -->
<g id="node43" class="node">
<title>Node60</title>
<g id="a_node43"><a xlink:href="Graph__Policies_8hpp.html" target="_top" xlink:title="Contains the classes mackey::bicolored_edge_with_id, mackey::MinLength, mackey::MinColorsLength.">
<polygon fill="white" stroke="black" points="800,-448.5 800,-467.5 942,-467.5 942,-448.5 800,-448.5"/>
<text text-anchor="middle" x="871" y="-455.5" font-family="Helvetica,sans-Serif" font-size="10.00">Graph/Graph_Policies.hpp</text>
</a>
</g>
</g>
<!-- Node57&#45;&gt;Node60 -->
<g id="edge54" class="edge">
<title>Node57&#45;&gt;Node60</title>
<path fill="none" stroke="midnightblue" d="M747.29,-504.44C771.81,-495.44 810.6,-481.19 838.2,-471.05"/>
<polygon fill="midnightblue" stroke="midnightblue" points="839.64,-474.25 847.82,-467.52 837.22,-467.68 839.64,-474.25"/>
</g>
<!-- Node66 -->
<g id="node46" class="node">
<title>Node66</title>
<g id="a_node46"><a xlink:title=" ">
<polygon fill="white" stroke="#bfbfbf" points="666,-448.5 666,-467.5 782,-467.5 782,-448.5 666,-448.5"/>
<text text-anchor="middle" x="724" y="-455.5" font-family="Helvetica,sans-Serif" font-size="10.00">impl/Mult_Graph.ipp</text>
</a>
</g>
</g>
<!-- Node57&#45;&gt;Node66 -->
<g id="edge59" class="edge">
<title>Node57&#45;&gt;Node66</title>
<path fill="none" stroke="midnightblue" d="M724,-504.08C724,-497.01 724,-486.86 724,-477.99"/>
<polygon fill="midnightblue" stroke="midnightblue" points="727.5,-477.75 724,-467.75 720.5,-477.75 727.5,-477.75"/>
</g>
<!-- Node58&#45;&gt;Node14 -->
<g id="edge51" class="edge">
<title>Node58&#45;&gt;Node14</title>
<path fill="none" stroke="midnightblue" d="M603.3,-448.44C604.02,-415.91 602.7,-298 550,-224 540.75,-211.01 526.56,-200.32 514.1,-192.62"/>
<polygon fill="midnightblue" stroke="midnightblue" points="515.82,-189.57 505.41,-187.55 512.29,-195.62 515.82,-189.57"/>
</g>
<!-- Node58&#45;&gt;Node22 -->
<g id="edge52" class="edge">
<title>Node58&#45;&gt;Node22</title>
<path fill="none" stroke="midnightblue" d="M563.39,-448.44C517.08,-438.44 440.83,-421.97 393.96,-411.85"/>
<polygon fill="midnightblue" stroke="midnightblue" points="394.65,-408.42 384.13,-409.73 393.17,-415.26 394.65,-408.42"/>
</g>
<!-- Node58&#45;&gt;Node52 -->
<g id="edge50" class="edge">
<title>Node58&#45;&gt;Node52</title>
<path fill="none" stroke="midnightblue" d="M589.02,-448.32C575.45,-439.9 554.62,-426.97 538.68,-417.07"/>
<polygon fill="midnightblue" stroke="midnightblue" points="540.29,-413.95 529.94,-411.65 536.59,-419.9 540.29,-413.95"/>
</g>
<!-- Node59 -->
<g id="node42" class="node">
<title>Node59</title>
<g id="a_node42"><a xlink:title=" ">
<polygon fill="white" stroke="#bfbfbf" points="648,-392.5 648,-411.5 760,-411.5 760,-392.5 648,-392.5"/>
<text text-anchor="middle" x="704" y="-399.5" font-family="Helvetica,sans-Serif" font-size="10.00">impl/Mult_Table.ipp</text>
</a>
</g>
</g>
<!-- Node58&#45;&gt;Node59 -->
<g id="edge53" class="edge">
<title>Node58&#45;&gt;Node59</title>
<path fill="none" stroke="midnightblue" d="M619.23,-448.32C635.35,-439.7 660.3,-426.36 678.96,-416.39"/>
<polygon fill="midnightblue" stroke="midnightblue" points="680.64,-419.46 687.81,-411.65 677.34,-413.28 680.64,-419.46"/>
</g>
<!-- Node61 -->
<g id="node44" class="node">
<title>Node61</title>
<g id="a_node44"><a xlink:href="Graph_8hpp.html" target="_top" xlink:title="Contains the classes mackey::Neighborhood, mackey::Graph, mackey::ShortestPaths.">
<polygon fill="white" stroke="red" points="927.5,-392.5 927.5,-411.5 994.5,-411.5 994.5,-392.5 927.5,-392.5"/>
<text text-anchor="middle" x="961" y="-399.5" font-family="Helvetica,sans-Serif" font-size="10.00">Graph.hpp</text>
</a>
</g>
</g>
<!-- Node60&#45;&gt;Node61 -->
<g id="edge55" class="edge">
<title>Node60&#45;&gt;Node61</title>
<path fill="none" stroke="midnightblue" d="M885.46,-448.32C899.5,-439.9 921.05,-426.97 937.54,-417.07"/>
<polygon fill="midnightblue" stroke="midnightblue" points="939.8,-419.8 946.58,-411.65 936.2,-413.8 939.8,-419.8"/>
</g>
<!-- Node65 -->
<g id="node45" class="node">
<title>Node65</title>
<g id="a_node45"><a xlink:title=" ">
<polygon fill="white" stroke="#bfbfbf" points="778.5,-392.5 778.5,-411.5 909.5,-411.5 909.5,-392.5 778.5,-392.5"/>
<text text-anchor="middle" x="844" y="-399.5" font-family="Helvetica,sans-Serif" font-size="10.00">impl/Graph_Policies.ipp</text>
</a>
</g>
</g>
<!-- Node60&#45;&gt;Node65 -->
<g id="edge58" class="edge">
<title>Node60&#45;&gt;Node65</title>
<path fill="none" stroke="midnightblue" d="M866.54,-448.08C862.85,-440.69 857.48,-429.95 852.91,-420.81"/>
<polygon fill="midnightblue" stroke="midnightblue" points="855.98,-419.13 848.38,-411.75 849.72,-422.26 855.98,-419.13"/>
</g>
<!-- Node61&#45;&gt;Node11 -->
<g id="edge56" class="edge">
<title>Node61&#45;&gt;Node11</title>
<path fill="none" stroke="midnightblue" d="M959.56,-392.47C956.58,-374.02 950,-329 950,-291 950,-291 950,-291 950,-233 950,-135.62 737.23,-137.22 679.74,-131.2"/>
<polygon fill="midnightblue" stroke="midnightblue" points="680.14,-127.72 669.74,-129.71 679.11,-134.65 680.14,-127.72"/>
</g>
<!-- Node61&#45;&gt;Node53 -->
<g id="edge57" class="edge">
<title>Node61&#45;&gt;Node53</title>
<path fill="none" stroke="midnightblue" d="M933.11,-392.44C903.25,-383.28 855.69,-368.69 822.54,-358.52"/>
<polygon fill="midnightblue" stroke="midnightblue" points="823.34,-355.1 812.76,-355.52 821.29,-361.8 823.34,-355.1"/>
</g>
<!-- Node69&#45;&gt;Node57 -->
<g id="edge63" class="edge">
<title>Node69&#45;&gt;Node57</title>
<path fill="none" stroke="midnightblue" d="M761.12,-616.48C777.43,-608.47 794.71,-596.64 804,-580 817.02,-556.69 787.7,-538.48 760.96,-527.33"/>
<polygon fill="midnightblue" stroke="midnightblue" points="761.9,-523.94 751.31,-523.55 759.35,-530.46 761.9,-523.94"/>
</g>
<!-- Node70 -->
<g id="node50" class="node">
<title>Node70</title>
<g id="a_node50"><a xlink:title=" ">
<polygon fill="white" stroke="#bfbfbf" points="649,-560.5 649,-579.5 795,-579.5 795,-560.5 649,-560.5"/>
<text text-anchor="middle" x="722" y="-567.5" font-family="Helvetica,sans-Serif" font-size="10.00">impl/Mult_Connectivity.ipp</text>
</a>
</g>
</g>
<!-- Node69&#45;&gt;Node70 -->
<g id="edge64" class="edge">
<title>Node69&#45;&gt;Node70</title>
<path fill="none" stroke="midnightblue" d="M722,-616.4C722,-608.47 722,-598.46 722,-589.86"/>
<polygon fill="midnightblue" stroke="midnightblue" points="725.5,-589.66 722,-579.66 718.5,-589.66 725.5,-589.66"/>
</g>
</g>
</svg>
