<?xml version="1.0" encoding="UTF-8" standalone="no"?>
<!DOCTYPE svg PUBLIC "-//W3C//DTD SVG 1.1//EN"
 "http://www.w3.org/Graphics/SVG/1.1/DTD/svg11.dtd">
<!-- Generated by graphviz version 2.43.0 (0)
 -->
<!-- Title: Mackey.hpp Pages: 1 -->
<!--zoomable 487 -->
<svg id="main" version="1.1" xmlns="http://www.w3.org/2000/svg" xmlns:xlink="http://www.w3.org/1999/xlink" xml:space="preserve" onload="init(evt)">
<style type="text/css"><![CDATA[
.edge:hover path { stroke: red; }
.edge:hover polygon { stroke: red; fill: red; }
]]></style>
<script type="text/javascript"><![CDATA[
var edges = document.getElementsByTagName('g');
if (edges && edges.length) {
  for (var i=0;i<edges.length;i++) {
    if (edges[i].id.substr(0,4)=='edge') {
      edges[i].setAttribute('class','edge');
    }
  }
}
]]></script>
        <defs>
                <circle id="rim" cx="0" cy="0" r="7"/>
                <circle id="rim2" cx="0" cy="0" r="3.5"/>
                <g id="zoomPlus">
                        <use xlink:href="#rim" fill="#404040">
                                <set attributeName="fill" to="#808080" begin="zoomplus.mouseover" end="zoomplus.mouseout"/>
                        </use>
                        <path d="M-4,0h8M0,-4v8" fill="none" stroke="white" stroke-width="1.5" pointer-events="none"/>
                </g>
                <g id="zoomMin">
                        <use xlink:href="#rim" fill="#404040">
                                <set attributeName="fill" to="#808080" begin="zoomminus.mouseover" end="zoomminus.mouseout"/>
                        </use>
                        <path d="M-4,0h8" fill="none" stroke="white" stroke-width="1.5" pointer-events="none"/>
                </g>
                <g id="dirArrow">
                        <path fill="none" stroke="white" stroke-width="1.5" d="M0,-3.0v7 M-2.5,-0.5L0,-3.0L2.5,-0.5"/>
                </g>
               <g id="resetDef">
                       <use xlink:href="#rim2" fill="#404040">
                               <set attributeName="fill" to="#808080" begin="reset.mouseover" end="reset.mouseout"/>
                       </use>
               </g>
        </defs>

<script type="text/javascript">
var viewWidth = 1468;
var viewHeight = 487;
var sectionId = 'dynsection-0';
</script>
<script xlink:href="svgpan.js"/>
<svg id="graph" class="graph">
<g id="viewport">
<title>Mackey.hpp</title>
<polygon fill="white" stroke="transparent" points="-4,4 -4,-483 1463.5,-483 1463.5,4 -4,4"/>
<!-- Node1 -->
<g id="node1" class="node">
<title>Node1</title>
<g id="a_node1"><a xlink:title="Includes the entire library.">
<polygon fill="#bfbfbf" stroke="black" points="811.5,-459.5 811.5,-478.5 885.5,-478.5 885.5,-459.5 811.5,-459.5"/>
<text text-anchor="middle" x="848.5" y="-466.5" font-family="Helvetica,sans-Serif" font-size="10.00">Mackey.hpp</text>
</a>
</g>
</g>
<!-- Node2 -->
<g id="node2" class="node">
<title>Node2</title>
<g id="a_node2"><a xlink:href="Z__n_8hpp.html" target="_top" xlink:title="Contains the class for Z/N coefficients.">
<polygon fill="white" stroke="black" points="121.5,-168.5 121.5,-187.5 237.5,-187.5 237.5,-168.5 121.5,-168.5"/>
<text text-anchor="middle" x="179.5" y="-175.5" font-family="Helvetica,sans-Serif" font-size="10.00">Coefficients/Z_n.hpp</text>
</a>
</g>
</g>
<!-- Node1&#45;&gt;Node2 -->
<g id="edge1" class="edge">
<title>Node1&#45;&gt;Node2</title>
<path fill="none" stroke="midnightblue" d="M811.12,-467.97C685.38,-466.86 285.5,-454.85 285.5,-347 285.5,-347 285.5,-347 285.5,-289 285.5,-243.81 238.55,-210.05 207.14,-192.52"/>
<polygon fill="midnightblue" stroke="midnightblue" points="208.43,-189.24 197.96,-187.61 205.13,-195.41 208.43,-189.24"/>
</g>
<!-- Node9 -->
<g id="node9" class="node">
<title>Node9</title>
<g id="a_node9"><a xlink:href="C2n_8hpp.html" target="_top" xlink:title="Defines the groups .">
<polygon fill="white" stroke="black" points="436.5,-224.5 436.5,-243.5 530.5,-243.5 530.5,-224.5 436.5,-224.5"/>
<text text-anchor="middle" x="483.5" y="-231.5" font-family="Helvetica,sans-Serif" font-size="10.00">Groups/C2n.hpp</text>
</a>
</g>
</g>
<!-- Node1&#45;&gt;Node9 -->
<g id="edge8" class="edge">
<title>Node1&#45;&gt;Node9</title>
<path fill="none" stroke="midnightblue" d="M835.08,-459.43C780.41,-424.54 574.24,-292.93 505.76,-249.21"/>
<polygon fill="midnightblue" stroke="midnightblue" points="507.36,-246.08 497.05,-243.65 503.59,-251.98 507.36,-246.08"/>
</g>
<!-- Node20 -->
<g id="node20" class="node">
<title>Node20</title>
<g id="a_node20"><a xlink:href="BC4S2_8hpp.html" target="_top" xlink:title=" ">
<polygon fill="white" stroke="black" points="836,-398 836,-417 943,-417 943,-398 836,-398"/>
<text text-anchor="middle" x="889.5" y="-405" font-family="Helvetica,sans-Serif" font-size="10.00">Spaces/BC4S2.hpp</text>
</a>
</g>
</g>
<!-- Node1&#45;&gt;Node20 -->
<g id="edge23" class="edge">
<title>Node1&#45;&gt;Node20</title>
<path fill="none" stroke="midnightblue" d="M854.37,-459.48C860.46,-450.64 870.14,-436.59 877.8,-425.48"/>
<polygon fill="midnightblue" stroke="midnightblue" points="880.84,-427.23 883.64,-417.01 875.08,-423.26 880.84,-427.23"/>
</g>
<!-- Node51 -->
<g id="node33" class="node">
<title>Node51</title>
<g id="a_node33"><a xlink:href="Additive_8hpp.html" target="_top" xlink:title="Contains the class for presenting the additive structure of the RO(G) homology.">
<polygon fill="white" stroke="black" points="801,-224.5 801,-243.5 966,-243.5 966,-224.5 801,-224.5"/>
<text text-anchor="middle" x="883.5" y="-231.5" font-family="Helvetica,sans-Serif" font-size="10.00">Mackey_Functors/Additive.hpp</text>
</a>
</g>
</g>
<!-- Node1&#45;&gt;Node51 -->
<g id="edge38" class="edge">
<title>Node1&#45;&gt;Node51</title>
<path fill="none" stroke="midnightblue" d="M842.86,-459.48C837.45,-450.74 829.64,-436.56 826.5,-423 817.78,-385.33 814.6,-372.79 826.5,-336 832.57,-317.22 842.43,-316.98 852.5,-300 861.56,-284.73 870.11,-266.39 875.92,-253.1"/>
<polygon fill="midnightblue" stroke="midnightblue" points="879.24,-254.24 879.96,-243.67 872.81,-251.48 879.24,-254.24"/>
</g>
<!-- Node55 -->
<g id="node37" class="node">
<title>Node55</title>
<g id="a_node37"><a xlink:href="Factorization_8hpp.html" target="_top" xlink:title="Contains the multiplication graph and the methods for factorizing generators.">
<polygon fill="white" stroke="black" points="1007,-398 1007,-417 1172,-417 1172,-398 1007,-398"/>
<text text-anchor="middle" x="1089.5" y="-405" font-family="Helvetica,sans-Serif" font-size="10.00">Factorization/Factorization.hpp</text>
</a>
</g>
</g>
<!-- Node1&#45;&gt;Node55 -->
<g id="edge43" class="edge">
<title>Node1&#45;&gt;Node55</title>
<path fill="none" stroke="midnightblue" d="M883.03,-459.48C925.71,-448.94 998.42,-430.99 1045.18,-419.44"/>
<polygon fill="midnightblue" stroke="midnightblue" points="1046.17,-422.8 1055.03,-417.01 1044.49,-416.01 1046.17,-422.8"/>
</g>
<!-- Node67 -->
<g id="node49" class="node">
<title>Node67</title>
<g id="a_node49"><a xlink:href="Mult__Connectivity_8hpp.html" target="_top" xlink:title="Contains methods for the finding the connectivity of the multiplication graph should identification f...">
<polygon fill="white" stroke="black" points="1262.5,-392.5 1262.5,-422.5 1366.5,-422.5 1366.5,-392.5 1262.5,-392.5"/>
<text text-anchor="start" x="1270.5" y="-410.5" font-family="Helvetica,sans-Serif" font-size="10.00">Factorization/Mult</text>
<text text-anchor="middle" x="1314.5" y="-399.5" font-family="Helvetica,sans-Serif" font-size="10.00">_Connectivity.hpp</text>
</a>
</g>
</g>
<!-- Node1&#45;&gt;Node67 -->
<g id="edge62" class="edge">
<title>Node1&#45;&gt;Node67</title>
<path fill="none" stroke="midnightblue" d="M885.85,-463.23C965.74,-453.03 1153.94,-429 1252.24,-416.45"/>
<polygon fill="midnightblue" stroke="midnightblue" points="1252.86,-419.9 1262.33,-415.16 1251.97,-412.96 1252.86,-419.9"/>
</g>
<!-- Node3 -->
<g id="node3" class="node">
<title>Node3</title>
<g id="a_node3"><a xlink:title=" ">
<polygon fill="white" stroke="#bfbfbf" points="231.5,-112.5 231.5,-131.5 291.5,-131.5 291.5,-112.5 231.5,-112.5"/>
<text text-anchor="middle" x="261.5" y="-119.5" font-family="Helvetica,sans-Serif" font-size="10.00">iostream</text>
</a>
</g>
</g>
<!-- Node2&#45;&gt;Node3 -->
<g id="edge2" class="edge">
<title>Node2&#45;&gt;Node3</title>
<path fill="none" stroke="midnightblue" d="M192.67,-168.32C205.35,-159.98 224.73,-147.21 239.71,-137.35"/>
<polygon fill="midnightblue" stroke="midnightblue" points="241.93,-140.08 248.36,-131.65 238.08,-134.23 241.93,-140.08"/>
</g>
<!-- Node4 -->
<g id="node4" class="node">
<title>Node4</title>
<g id="a_node4"><a xlink:title=" ">
<polygon fill="white" stroke="#bfbfbf" points="133.5,-112.5 133.5,-131.5 175.5,-131.5 175.5,-112.5 133.5,-112.5"/>
<text text-anchor="middle" x="154.5" y="-119.5" font-family="Helvetica,sans-Serif" font-size="10.00">array</text>
</a>
</g>
</g>
<!-- Node2&#45;&gt;Node4 -->
<g id="edge3" class="edge">
<title>Node2&#45;&gt;Node4</title>
<path fill="none" stroke="midnightblue" d="M175.37,-168.08C171.99,-160.77 167.08,-150.18 162.88,-141.1"/>
<polygon fill="midnightblue" stroke="midnightblue" points="165.93,-139.36 158.55,-131.75 159.58,-142.3 165.93,-139.36"/>
</g>
<!-- Node5 -->
<g id="node5" class="node">
<title>Node5</title>
<g id="a_node5"><a xlink:title=" ">
<polygon fill="white" stroke="#bfbfbf" points="310,-56.5 310,-75.5 387,-75.5 387,-56.5 310,-56.5"/>
<text text-anchor="middle" x="348.5" y="-63.5" font-family="Helvetica,sans-Serif" font-size="10.00">Eigen/Dense</text>
</a>
</g>
</g>
<!-- Node2&#45;&gt;Node5 -->
<g id="edge4" class="edge">
<title>Node2&#45;&gt;Node5</title>
<path fill="none" stroke="midnightblue" d="M183.14,-168.11C189.26,-154.22 202.9,-127.36 222.5,-112 245.02,-94.36 275.03,-83.27 300.11,-76.52"/>
<polygon fill="midnightblue" stroke="midnightblue" points="300.98,-79.91 309.81,-74.06 299.26,-73.13 300.98,-79.91"/>
</g>
<!-- Node6 -->
<g id="node6" class="node">
<title>Node6</title>
<g id="a_node6"><a xlink:href="SFINAE_8hpp.html" target="_top" xlink:title="Contains all the SFINAE tricks.">
<polygon fill="white" stroke="black" points="126.5,-56.5 126.5,-75.5 230.5,-75.5 230.5,-56.5 126.5,-56.5"/>
<text text-anchor="middle" x="178.5" y="-63.5" font-family="Helvetica,sans-Serif" font-size="10.00">Types/SFINAE.hpp</text>
</a>
</g>
</g>
<!-- Node2&#45;&gt;Node6 -->
<g id="edge5" class="edge">
<title>Node2&#45;&gt;Node6</title>
<path fill="none" stroke="midnightblue" d="M162.3,-168.39C149.25,-160.79 132.27,-148.39 124.5,-132 115.11,-112.18 135.11,-93.33 153.37,-81.09"/>
<polygon fill="midnightblue" stroke="midnightblue" points="155.46,-83.92 162.06,-75.63 151.73,-77.99 155.46,-83.92"/>
</g>
<!-- Node8 -->
<g id="node8" class="node">
<title>Node8</title>
<g id="a_node8"><a xlink:title=" ">
<polygon fill="white" stroke="#bfbfbf" points="0,-112.5 0,-131.5 77,-131.5 77,-112.5 0,-112.5"/>
<text text-anchor="middle" x="38.5" y="-119.5" font-family="Helvetica,sans-Serif" font-size="10.00">impl/Z_n.ipp</text>
</a>
</g>
</g>
<!-- Node2&#45;&gt;Node8 -->
<g id="edge7" class="edge">
<title>Node2&#45;&gt;Node8</title>
<path fill="none" stroke="midnightblue" d="M157.16,-168.44C133.75,-159.48 96.76,-145.31 70.31,-135.18"/>
<polygon fill="midnightblue" stroke="midnightblue" points="71.33,-131.82 60.74,-131.52 68.82,-138.36 71.33,-131.82"/>
</g>
<!-- Node7 -->
<g id="node7" class="node">
<title>Node7</title>
<g id="a_node7"><a xlink:title=" ">
<polygon fill="white" stroke="#bfbfbf" points="144,-0.5 144,-19.5 213,-19.5 213,-0.5 144,-0.5"/>
<text text-anchor="middle" x="178.5" y="-7.5" font-family="Helvetica,sans-Serif" font-size="10.00">type_traits</text>
</a>
</g>
</g>
<!-- Node6&#45;&gt;Node7 -->
<g id="edge6" class="edge">
<title>Node6&#45;&gt;Node7</title>
<path fill="none" stroke="midnightblue" d="M178.5,-56.08C178.5,-49.01 178.5,-38.86 178.5,-29.99"/>
<polygon fill="midnightblue" stroke="midnightblue" points="182,-29.75 178.5,-19.75 175,-29.75 182,-29.75"/>
</g>
<!-- Node10 -->
<g id="node10" class="node">
<title>Node10</title>
<g id="a_node10"><a xlink:href="Chains_8hpp.html" target="_top" xlink:title="Contains Chains and Junction classes for using chain complexes.">
<polygon fill="white" stroke="black" points="528,-56.5 528,-75.5 689,-75.5 689,-56.5 528,-56.5"/>
<text text-anchor="middle" x="608.5" y="-63.5" font-family="Helvetica,sans-Serif" font-size="10.00">Chain_Complexes/Chains.hpp</text>
</a>
</g>
</g>
<!-- Node9&#45;&gt;Node10 -->
<g id="edge9" class="edge">
<title>Node9&#45;&gt;Node10</title>
<path fill="none" stroke="midnightblue" d="M477.82,-224.39C464.55,-203.07 434.53,-147.05 460.5,-112 474.29,-93.39 495.58,-82.22 517.76,-75.57"/>
<polygon fill="midnightblue" stroke="midnightblue" points="518.9,-78.89 527.64,-72.91 517.08,-72.13 518.9,-78.89"/>
</g>
<!-- Node14 -->
<g id="node14" class="node">
<title>Node14</title>
<g id="a_node14"><a xlink:href="General_8hpp.html" target="_top" xlink:title="Contains general functions and vector overloads independent of everything else.">
<polygon fill="white" stroke="black" points="470,-168.5 470,-187.5 579,-187.5 579,-168.5 470,-168.5"/>
<text text-anchor="middle" x="524.5" y="-175.5" font-family="Helvetica,sans-Serif" font-size="10.00">Utility/General.hpp</text>
</a>
</g>
</g>
<!-- Node9&#45;&gt;Node14 -->
<g id="edge13" class="edge">
<title>Node9&#45;&gt;Node14</title>
<path fill="none" stroke="midnightblue" d="M490.27,-224.08C496.06,-216.46 504.56,-205.26 511.64,-195.94"/>
<polygon fill="midnightblue" stroke="midnightblue" points="514.6,-197.83 517.86,-187.75 509.02,-193.6 514.6,-197.83"/>
</g>
<!-- Node19 -->
<g id="node19" class="node">
<title>Node19</title>
<g id="a_node19"><a xlink:title=" ">
<polygon fill="white" stroke="#bfbfbf" points="335.5,-168.5 335.5,-187.5 413.5,-187.5 413.5,-168.5 335.5,-168.5"/>
<text text-anchor="middle" x="374.5" y="-175.5" font-family="Helvetica,sans-Serif" font-size="10.00">impl/C2n.ipp</text>
</a>
</g>
</g>
<!-- Node9&#45;&gt;Node19 -->
<g id="edge22" class="edge">
<title>Node9&#45;&gt;Node19</title>
<path fill="none" stroke="midnightblue" d="M465.99,-224.32C448.43,-215.62 421.17,-202.12 400.97,-192.11"/>
<polygon fill="midnightblue" stroke="midnightblue" points="402.48,-188.96 391.97,-187.65 399.38,-195.23 402.48,-188.96"/>
</g>
<!-- Node11 -->
<g id="node11" class="node">
<title>Node11</title>
<g id="a_node11"><a xlink:title=" ">
<polygon fill="white" stroke="#bfbfbf" points="822,-0.5 822,-19.5 869,-19.5 869,-0.5 822,-0.5"/>
<text text-anchor="middle" x="845.5" y="-7.5" font-family="Helvetica,sans-Serif" font-size="10.00">vector</text>
</a>
</g>
</g>
<!-- Node10&#45;&gt;Node11 -->
<g id="edge10" class="edge">
<title>Node10&#45;&gt;Node11</title>
<path fill="none" stroke="midnightblue" d="M646.05,-56.44C691.73,-46.04 768.14,-28.63 811.93,-18.65"/>
<polygon fill="midnightblue" stroke="midnightblue" points="812.83,-22.03 821.8,-16.4 811.28,-15.21 812.83,-22.03"/>
</g>
<!-- Node12 -->
<g id="node12" class="node">
<title>Node12</title>
<g id="a_node12"><a xlink:title=" ">
<polygon fill="white" stroke="#bfbfbf" points="627,-0.5 627,-19.5 684,-19.5 684,-0.5 627,-0.5"/>
<text text-anchor="middle" x="655.5" y="-7.5" font-family="Helvetica,sans-Serif" font-size="10.00">ostream</text>
</a>
</g>
</g>
<!-- Node10&#45;&gt;Node12 -->
<g id="edge11" class="edge">
<title>Node10&#45;&gt;Node12</title>
<path fill="none" stroke="midnightblue" d="M616.26,-56.08C623.04,-48.3 633.04,-36.8 641.26,-27.37"/>
<polygon fill="midnightblue" stroke="midnightblue" points="643.96,-29.59 647.88,-19.75 638.68,-25 643.96,-29.59"/>
</g>
<!-- Node13 -->
<g id="node13" class="node">
<title>Node13</title>
<g id="a_node13"><a xlink:title=" ">
<polygon fill="white" stroke="#bfbfbf" points="516.5,-0.5 516.5,-19.5 608.5,-19.5 608.5,-0.5 516.5,-0.5"/>
<text text-anchor="middle" x="562.5" y="-7.5" font-family="Helvetica,sans-Serif" font-size="10.00">impl/Chains.ipp</text>
</a>
</g>
</g>
<!-- Node10&#45;&gt;Node13 -->
<g id="edge12" class="edge">
<title>Node10&#45;&gt;Node13</title>
<path fill="none" stroke="midnightblue" d="M600.9,-56.08C594.27,-48.3 584.48,-36.8 576.44,-27.37"/>
<polygon fill="midnightblue" stroke="midnightblue" points="579.1,-25.09 569.95,-19.75 573.77,-29.63 579.1,-25.09"/>
</g>
<!-- Node14&#45;&gt;Node3 -->
<g id="edge20" class="edge">
<title>Node14&#45;&gt;Node3</title>
<path fill="none" stroke="midnightblue" d="M480.22,-168.49C437.1,-160.12 369.45,-146.76 301.71,-132.22"/>
<polygon fill="midnightblue" stroke="midnightblue" points="302.23,-128.75 291.71,-130.06 300.75,-135.59 302.23,-128.75"/>
</g>
<!-- Node14&#45;&gt;Node11 -->
<g id="edge14" class="edge">
<title>Node14&#45;&gt;Node11</title>
<path fill="none" stroke="midnightblue" d="M579.05,-169.28C665.45,-157 824.31,-134.17 826.5,-132 853.71,-105 852.02,-56.04 848.64,-29.42"/>
<polygon fill="midnightblue" stroke="midnightblue" points="852.1,-28.89 847.17,-19.51 845.18,-29.92 852.1,-28.89"/>
</g>
<!-- Node15 -->
<g id="node15" class="node">
<title>Node15</title>
<g id="a_node15"><a xlink:href="Aliases_8hpp.html" target="_top" xlink:title="Contains general template aliases.">
<polygon fill="white" stroke="black" points="309.5,-112.5 309.5,-131.5 413.5,-131.5 413.5,-112.5 309.5,-112.5"/>
<text text-anchor="middle" x="361.5" y="-119.5" font-family="Helvetica,sans-Serif" font-size="10.00">Types/Aliases.hpp</text>
</a>
</g>
</g>
<!-- Node14&#45;&gt;Node15 -->
<g id="edge15" class="edge">
<title>Node14&#45;&gt;Node15</title>
<path fill="none" stroke="midnightblue" d="M498.67,-168.44C471.25,-159.36 427.72,-144.94 397.07,-134.78"/>
<polygon fill="midnightblue" stroke="midnightblue" points="397.8,-131.34 387.21,-131.52 395.6,-137.98 397.8,-131.34"/>
</g>
<!-- Node17 -->
<g id="node17" class="node">
<title>Node17</title>
<g id="a_node17"><a xlink:title=" ">
<polygon fill="white" stroke="#bfbfbf" points="469.5,-112.5 469.5,-131.5 525.5,-131.5 525.5,-112.5 469.5,-112.5"/>
<text text-anchor="middle" x="497.5" y="-119.5" font-family="Helvetica,sans-Serif" font-size="10.00">numeric</text>
</a>
</g>
</g>
<!-- Node14&#45;&gt;Node17 -->
<g id="edge19" class="edge">
<title>Node14&#45;&gt;Node17</title>
<path fill="none" stroke="midnightblue" d="M520.04,-168.08C516.35,-160.69 510.98,-149.95 506.41,-140.81"/>
<polygon fill="midnightblue" stroke="midnightblue" points="509.48,-139.13 501.88,-131.75 503.22,-142.26 509.48,-139.13"/>
</g>
<!-- Node18 -->
<g id="node18" class="node">
<title>Node18</title>
<g id="a_node18"><a xlink:title=" ">
<polygon fill="white" stroke="#bfbfbf" points="543.5,-112.5 543.5,-131.5 641.5,-131.5 641.5,-112.5 543.5,-112.5"/>
<text text-anchor="middle" x="592.5" y="-119.5" font-family="Helvetica,sans-Serif" font-size="10.00">impl/General.ipp</text>
</a>
</g>
</g>
<!-- Node14&#45;&gt;Node18 -->
<g id="edge21" class="edge">
<title>Node14&#45;&gt;Node18</title>
<path fill="none" stroke="midnightblue" d="M535.43,-168.32C545.67,-160.18 561.22,-147.84 573.5,-138.09"/>
<polygon fill="midnightblue" stroke="midnightblue" points="575.72,-140.79 581.38,-131.83 571.37,-135.31 575.72,-140.79"/>
</g>
<!-- Node15&#45;&gt;Node5 -->
<g id="edge16" class="edge">
<title>Node15&#45;&gt;Node5</title>
<path fill="none" stroke="midnightblue" d="M359.35,-112.08C357.63,-104.93 355.15,-94.64 353,-85.69"/>
<polygon fill="midnightblue" stroke="midnightblue" points="356.35,-84.65 350.61,-75.75 349.54,-86.29 356.35,-84.65"/>
</g>
<!-- Node15&#45;&gt;Node6 -->
<g id="edge18" class="edge">
<title>Node15&#45;&gt;Node6</title>
<path fill="none" stroke="midnightblue" d="M332.5,-112.44C301.32,-103.24 251.57,-88.56 217.09,-78.39"/>
<polygon fill="midnightblue" stroke="midnightblue" points="217.94,-74.99 207.36,-75.52 215.96,-81.7 217.94,-74.99"/>
</g>
<!-- Node16 -->
<g id="node16" class="node">
<title>Node16</title>
<g id="a_node16"><a xlink:title=" ">
<polygon fill="white" stroke="#bfbfbf" points="421.5,-56.5 421.5,-75.5 501.5,-75.5 501.5,-56.5 421.5,-56.5"/>
<text text-anchor="middle" x="461.5" y="-63.5" font-family="Helvetica,sans-Serif" font-size="10.00">Eigen/Sparse</text>
</a>
</g>
</g>
<!-- Node15&#45;&gt;Node16 -->
<g id="edge17" class="edge">
<title>Node15&#45;&gt;Node16</title>
<path fill="none" stroke="midnightblue" d="M377.57,-112.32C393.46,-103.74 418.01,-90.49 436.46,-80.52"/>
<polygon fill="midnightblue" stroke="midnightblue" points="438.34,-83.49 445.47,-75.65 435.01,-77.33 438.34,-83.49"/>
</g>
<!-- Node21 -->
<g id="node21" class="node">
<title>Node21</title>
<g id="a_node21"><a xlink:href="Space_8hpp.html" target="_top" xlink:title="File containing the class for spaces other than points!">
<polygon fill="white" stroke="black" points="712,-336.5 712,-355.5 779,-355.5 779,-336.5 712,-336.5"/>
<text text-anchor="middle" x="745.5" y="-343.5" font-family="Helvetica,sans-Serif" font-size="10.00">Space.hpp</text>
</a>
</g>
</g>
<!-- Node20&#45;&gt;Node21 -->
<g id="edge24" class="edge">
<title>Node20&#45;&gt;Node21</title>
<path fill="none" stroke="midnightblue" d="M868.87,-397.98C844.38,-387.86 803.35,-370.9 775.39,-359.35"/>
<polygon fill="midnightblue" stroke="midnightblue" points="776.67,-356.09 766.09,-355.51 774,-362.56 776.67,-356.09"/>
</g>
<!-- Node50 -->
<g id="node32" class="node">
<title>Node50</title>
<g id="a_node32"><a xlink:title=" ">
<polygon fill="white" stroke="#bfbfbf" points="836,-336.5 836,-355.5 927,-355.5 927,-336.5 836,-336.5"/>
<text text-anchor="middle" x="881.5" y="-343.5" font-family="Helvetica,sans-Serif" font-size="10.00">impl/BC4S2.ipp</text>
</a>
</g>
</g>
<!-- Node20&#45;&gt;Node50 -->
<g id="edge37" class="edge">
<title>Node20&#45;&gt;Node50</title>
<path fill="none" stroke="midnightblue" d="M888.35,-397.98C887.23,-389.58 885.46,-376.48 884.01,-365.66"/>
<polygon fill="midnightblue" stroke="midnightblue" points="887.45,-364.95 882.64,-355.51 880.51,-365.89 887.45,-364.95"/>
</g>
<!-- Node22 -->
<g id="node22" class="node">
<title>Node22</title>
<g id="a_node22"><a xlink:href="Point_8hpp.html" target="_top" xlink:title="Contains the computations for RO(G) homology of a point.">
<polygon fill="white" stroke="black" points="727.5,-168.5 727.5,-187.5 789.5,-187.5 789.5,-168.5 727.5,-168.5"/>
<text text-anchor="middle" x="758.5" y="-175.5" font-family="Helvetica,sans-Serif" font-size="10.00">Point.hpp</text>
</a>
</g>
</g>
<!-- Node21&#45;&gt;Node22 -->
<g id="edge25" class="edge">
<title>Node21&#45;&gt;Node22</title>
<path fill="none" stroke="midnightblue" d="M745.14,-336.16C744.72,-323.64 744.22,-300.05 745.5,-280 747.35,-251.11 752.15,-217.85 755.37,-197.63"/>
<polygon fill="midnightblue" stroke="midnightblue" points="758.85,-198.04 757.01,-187.61 751.95,-196.91 758.85,-198.04"/>
</g>
<!-- Node49 -->
<g id="node31" class="node">
<title>Node49</title>
<g id="a_node31"><a xlink:title=" ">
<polygon fill="white" stroke="#bfbfbf" points="755,-280.5 755,-299.5 844,-299.5 844,-280.5 755,-280.5"/>
<text text-anchor="middle" x="799.5" y="-287.5" font-family="Helvetica,sans-Serif" font-size="10.00">impl/Space.ipp</text>
</a>
</g>
</g>
<!-- Node21&#45;&gt;Node49 -->
<g id="edge36" class="edge">
<title>Node21&#45;&gt;Node49</title>
<path fill="none" stroke="midnightblue" d="M754.42,-336.08C762.28,-328.22 773.93,-316.57 783.42,-307.08"/>
<polygon fill="midnightblue" stroke="midnightblue" points="786.15,-309.3 790.75,-299.75 781.2,-304.35 786.15,-309.3"/>
</g>
<!-- Node23 -->
<g id="node23" class="node">
<title>Node23</title>
<g id="a_node23"><a xlink:href="Massey_8hpp.html" target="_top" xlink:title="Contains the class and methods for Massey Products.">
<polygon fill="white" stroke="black" points="1029,-112.5 1029,-131.5 1148,-131.5 1148,-112.5 1029,-112.5"/>
<text text-anchor="middle" x="1088.5" y="-119.5" font-family="Helvetica,sans-Serif" font-size="10.00">Products/Massey.hpp</text>
</a>
</g>
</g>
<!-- Node22&#45;&gt;Node23 -->
<g id="edge26" class="edge">
<title>Node22&#45;&gt;Node23</title>
<path fill="none" stroke="midnightblue" d="M789.9,-169.72C792.8,-169.12 795.7,-168.53 798.5,-168 873.5,-153.76 960.05,-140.77 1018.94,-132.45"/>
<polygon fill="midnightblue" stroke="midnightblue" points="1019.45,-135.91 1028.87,-131.06 1018.48,-128.98 1019.45,-135.91"/>
</g>
<!-- Node46 -->
<g id="node28" class="node">
<title>Node46</title>
<g id="a_node28"><a xlink:href="Morse_8hpp.html" target="_top" xlink:title="Contains classes for (equivariant) Algebraic Morse Theory.">
<polygon fill="white" stroke="black" points="659.5,-112.5 659.5,-131.5 817.5,-131.5 817.5,-112.5 659.5,-112.5"/>
<text text-anchor="middle" x="738.5" y="-119.5" font-family="Helvetica,sans-Serif" font-size="10.00">Chain_Complexes/Morse.hpp</text>
</a>
</g>
</g>
<!-- Node22&#45;&gt;Node46 -->
<g id="edge31" class="edge">
<title>Node22&#45;&gt;Node46</title>
<path fill="none" stroke="midnightblue" d="M755.2,-168.08C752.52,-160.85 748.65,-150.41 745.31,-141.4"/>
<polygon fill="midnightblue" stroke="midnightblue" points="748.5,-139.91 741.74,-131.75 741.93,-142.34 748.5,-139.91"/>
</g>
<!-- Node48 -->
<g id="node30" class="node">
<title>Node48</title>
<g id="a_node30"><a xlink:title=" ">
<polygon fill="white" stroke="#bfbfbf" points="873.5,-112.5 873.5,-131.5 957.5,-131.5 957.5,-112.5 873.5,-112.5"/>
<text text-anchor="middle" x="915.5" y="-119.5" font-family="Helvetica,sans-Serif" font-size="10.00">impl/Point.ipp</text>
</a>
</g>
</g>
<!-- Node22&#45;&gt;Node48 -->
<g id="edge35" class="edge">
<title>Node22&#45;&gt;Node48</title>
<path fill="none" stroke="midnightblue" d="M783.38,-168.44C809.79,-159.36 851.72,-144.94 881.24,-134.78"/>
<polygon fill="midnightblue" stroke="midnightblue" points="882.42,-138.08 890.74,-131.52 880.14,-131.46 882.42,-138.08"/>
</g>
<!-- Node24 -->
<g id="node24" class="node">
<title>Node24</title>
<g id="a_node24"><a xlink:href="Green_8hpp.html" target="_top" xlink:title="Contains the class and methods for multiplying generators.">
<polygon fill="white" stroke="red" points="1258,-56.5 1258,-75.5 1325,-75.5 1325,-56.5 1258,-56.5"/>
<text text-anchor="middle" x="1291.5" y="-63.5" font-family="Helvetica,sans-Serif" font-size="10.00">Green.hpp</text>
</a>
</g>
</g>
<!-- Node23&#45;&gt;Node24 -->
<g id="edge27" class="edge">
<title>Node23&#45;&gt;Node24</title>
<path fill="none" stroke="midnightblue" d="M1120.67,-112.44C1155.56,-103.16 1211.39,-88.31 1249.67,-78.13"/>
<polygon fill="midnightblue" stroke="midnightblue" points="1250.72,-81.47 1259.48,-75.52 1248.92,-74.7 1250.72,-81.47"/>
</g>
<!-- Node45 -->
<g id="node27" class="node">
<title>Node45</title>
<g id="a_node27"><a xlink:title=" ">
<polygon fill="white" stroke="#bfbfbf" points="1041,-56.5 1041,-75.5 1136,-75.5 1136,-56.5 1041,-56.5"/>
<text text-anchor="middle" x="1088.5" y="-63.5" font-family="Helvetica,sans-Serif" font-size="10.00">impl/Massey.ipp</text>
</a>
</g>
</g>
<!-- Node23&#45;&gt;Node45 -->
<g id="edge30" class="edge">
<title>Node23&#45;&gt;Node45</title>
<path fill="none" stroke="midnightblue" d="M1088.5,-112.08C1088.5,-105.01 1088.5,-94.86 1088.5,-85.99"/>
<polygon fill="midnightblue" stroke="midnightblue" points="1092,-85.75 1088.5,-75.75 1085,-85.75 1092,-85.75"/>
</g>
<!-- Node25 -->
<g id="node25" class="node">
<title>Node25</title>
<g id="a_node25"><a xlink:href="Levels_8hpp.html" target="_top" xlink:title="Contains the methods for transfering, restricting and act&#45;group&#45;acting.">
<polygon fill="white" stroke="red" points="1125.5,-0.5 1125.5,-19.5 1281.5,-19.5 1281.5,-0.5 1125.5,-0.5"/>
<text text-anchor="middle" x="1203.5" y="-7.5" font-family="Helvetica,sans-Serif" font-size="10.00">Mackey_Functors/Levels.hpp</text>
</a>
</g>
</g>
<!-- Node24&#45;&gt;Node25 -->
<g id="edge28" class="edge">
<title>Node24&#45;&gt;Node25</title>
<path fill="none" stroke="midnightblue" d="M1277.36,-56.32C1263.63,-47.9 1242.56,-34.97 1226.44,-25.07"/>
<polygon fill="midnightblue" stroke="midnightblue" points="1227.96,-21.9 1217.6,-19.65 1224.3,-27.87 1227.96,-21.9"/>
</g>
<!-- Node33 -->
<g id="node26" class="node">
<title>Node33</title>
<g id="a_node26"><a xlink:href="Identify_8hpp.html" target="_top" xlink:title="Contains the identification classes.">
<polygon fill="white" stroke="red" points="1299.5,-0.5 1299.5,-19.5 1459.5,-19.5 1459.5,-0.5 1299.5,-0.5"/>
<text text-anchor="middle" x="1379.5" y="-7.5" font-family="Helvetica,sans-Serif" font-size="10.00">Mackey_Functors/Identify.hpp</text>
</a>
</g>
</g>
<!-- Node24&#45;&gt;Node33 -->
<g id="edge29" class="edge">
<title>Node24&#45;&gt;Node33</title>
<path fill="none" stroke="midnightblue" d="M1305.64,-56.32C1319.37,-47.9 1340.44,-34.97 1356.56,-25.07"/>
<polygon fill="midnightblue" stroke="midnightblue" points="1358.7,-27.87 1365.4,-19.65 1355.04,-21.9 1358.7,-27.87"/>
</g>
<!-- Node46&#45;&gt;Node10 -->
<g id="edge32" class="edge">
<title>Node46&#45;&gt;Node10</title>
<path fill="none" stroke="midnightblue" d="M717.9,-112.44C696.51,-103.56 662.82,-89.56 638.48,-79.45"/>
<polygon fill="midnightblue" stroke="midnightblue" points="639.58,-76.12 629,-75.52 636.89,-82.58 639.58,-76.12"/>
</g>
<!-- Node46&#45;&gt;Node16 -->
<g id="edge33" class="edge">
<title>Node46&#45;&gt;Node16</title>
<path fill="none" stroke="midnightblue" d="M694.61,-112.44C644.84,-102.74 563.85,-86.95 511.63,-76.77"/>
<polygon fill="midnightblue" stroke="midnightblue" points="512.07,-73.29 501.59,-74.82 510.73,-80.16 512.07,-73.29"/>
</g>
<!-- Node47 -->
<g id="node29" class="node">
<title>Node47</title>
<g id="a_node29"><a xlink:title=" ">
<polygon fill="white" stroke="#bfbfbf" points="707,-56.5 707,-75.5 796,-75.5 796,-56.5 707,-56.5"/>
<text text-anchor="middle" x="751.5" y="-63.5" font-family="Helvetica,sans-Serif" font-size="10.00">impl/Morse.ipp</text>
</a>
</g>
</g>
<!-- Node46&#45;&gt;Node47 -->
<g id="edge34" class="edge">
<title>Node46&#45;&gt;Node47</title>
<path fill="none" stroke="midnightblue" d="M740.65,-112.08C742.37,-104.93 744.85,-94.64 747,-85.69"/>
<polygon fill="midnightblue" stroke="midnightblue" points="750.46,-86.29 749.39,-75.75 743.65,-84.65 750.46,-86.29"/>
</g>
<!-- Node51&#45;&gt;Node22 -->
<g id="edge40" class="edge">
<title>Node51&#45;&gt;Node22</title>
<path fill="none" stroke="midnightblue" d="M863.69,-224.44C843.21,-215.6 811.02,-201.69 787.64,-191.59"/>
<polygon fill="midnightblue" stroke="midnightblue" points="788.78,-188.27 778.21,-187.52 786.01,-194.7 788.78,-188.27"/>
</g>
<!-- Node52 -->
<g id="node34" class="node">
<title>Node52</title>
<g id="a_node34"><a xlink:href="OpenMP__Macros_8hpp.html" target="_top" xlink:title="Contains open MP macros if multithreading is desired in this library.">
<polygon fill="white" stroke="black" points="807.5,-168.5 807.5,-187.5 959.5,-187.5 959.5,-168.5 807.5,-168.5"/>
<text text-anchor="middle" x="883.5" y="-175.5" font-family="Helvetica,sans-Serif" font-size="10.00">Utility/OpenMP_Macros.hpp</text>
</a>
</g>
</g>
<!-- Node51&#45;&gt;Node52 -->
<g id="edge39" class="edge">
<title>Node51&#45;&gt;Node52</title>
<path fill="none" stroke="midnightblue" d="M883.5,-224.08C883.5,-217.01 883.5,-206.86 883.5,-197.99"/>
<polygon fill="midnightblue" stroke="midnightblue" points="887,-197.75 883.5,-187.75 880,-197.75 887,-197.75"/>
</g>
<!-- Node53 -->
<g id="node35" class="node">
<title>Node53</title>
<g id="a_node35"><a xlink:title=" ">
<polygon fill="white" stroke="#bfbfbf" points="1095.5,-168.5 1095.5,-187.5 1151.5,-187.5 1151.5,-168.5 1095.5,-168.5"/>
<text text-anchor="middle" x="1123.5" y="-175.5" font-family="Helvetica,sans-Serif" font-size="10.00">iomanip</text>
</a>
</g>
</g>
<!-- Node51&#45;&gt;Node53 -->
<g id="edge41" class="edge">
<title>Node51&#45;&gt;Node53</title>
<path fill="none" stroke="midnightblue" d="M923.23,-224.44C962.11,-216.02 1023.28,-202.61 1085.28,-188.25"/>
<polygon fill="midnightblue" stroke="midnightblue" points="1086.28,-191.61 1095.23,-185.94 1084.7,-184.79 1086.28,-191.61"/>
</g>
<!-- Node54 -->
<g id="node36" class="node">
<title>Node54</title>
<g id="a_node36"><a xlink:title=" ">
<polygon fill="white" stroke="#bfbfbf" points="977.5,-168.5 977.5,-187.5 1077.5,-187.5 1077.5,-168.5 977.5,-168.5"/>
<text text-anchor="middle" x="1027.5" y="-175.5" font-family="Helvetica,sans-Serif" font-size="10.00">impl/Additive.ipp</text>
</a>
</g>
</g>
<!-- Node51&#45;&gt;Node54 -->
<g id="edge42" class="edge">
<title>Node51&#45;&gt;Node54</title>
<path fill="none" stroke="midnightblue" d="M906.32,-224.44C930.33,-215.44 968.33,-201.19 995.37,-191.05"/>
<polygon fill="midnightblue" stroke="midnightblue" points="996.66,-194.3 1004.79,-187.52 994.2,-187.75 996.66,-194.3"/>
</g>
<!-- Node56 -->
<g id="node38" class="node">
<title>Node56</title>
<g id="a_node38"><a xlink:href="Mult__Graph_8hpp.html" target="_top" xlink:title="Contains the multiplication graph.">
<polygon fill="white" stroke="black" points="1137.5,-280.5 1137.5,-299.5 1231.5,-299.5 1231.5,-280.5 1137.5,-280.5"/>
<text text-anchor="middle" x="1184.5" y="-287.5" font-family="Helvetica,sans-Serif" font-size="10.00">Mult_Graph.hpp</text>
</a>
</g>
</g>
<!-- Node55&#45;&gt;Node56 -->
<g id="edge44" class="edge">
<title>Node55&#45;&gt;Node56</title>
<path fill="none" stroke="midnightblue" d="M1130.86,-397.94C1153.85,-390.84 1180.56,-378.18 1194.5,-356 1203.31,-341.98 1198.93,-322.98 1193.48,-309.15"/>
<polygon fill="midnightblue" stroke="midnightblue" points="1196.56,-307.46 1189.3,-299.74 1190.16,-310.3 1196.56,-307.46"/>
</g>
<!-- Node64 -->
<g id="node46" class="node">
<title>Node64</title>
<g id="a_node46"><a xlink:href="Mult__Identify_8hpp.html" target="_top" xlink:title="Contains extra identification methods for the multiplication graph.">
<polygon fill="white" stroke="black" points="1085.5,-336.5 1085.5,-355.5 1185.5,-355.5 1185.5,-336.5 1085.5,-336.5"/>
<text text-anchor="middle" x="1135.5" y="-343.5" font-family="Helvetica,sans-Serif" font-size="10.00">Mult_Identify.hpp</text>
</a>
</g>
</g>
<!-- Node55&#45;&gt;Node64 -->
<g id="edge58" class="edge">
<title>Node55&#45;&gt;Node64</title>
<path fill="none" stroke="midnightblue" d="M1096.09,-397.98C1102.99,-389.05 1114,-374.81 1122.63,-363.64"/>
<polygon fill="midnightblue" stroke="midnightblue" points="1125.57,-365.56 1128.92,-355.51 1120.04,-361.28 1125.57,-365.56"/>
</g>
<!-- Node66 -->
<g id="node48" class="node">
<title>Node66</title>
<g id="a_node48"><a xlink:title=" ">
<polygon fill="white" stroke="#bfbfbf" points="945.5,-336.5 945.5,-355.5 1067.5,-355.5 1067.5,-336.5 945.5,-336.5"/>
<text text-anchor="middle" x="1006.5" y="-343.5" font-family="Helvetica,sans-Serif" font-size="10.00">impl/Factorization.ipp</text>
</a>
</g>
</g>
<!-- Node55&#45;&gt;Node66 -->
<g id="edge61" class="edge">
<title>Node55&#45;&gt;Node66</title>
<path fill="none" stroke="midnightblue" d="M1077.61,-397.98C1064.3,-388.43 1042.5,-372.81 1026.54,-361.37"/>
<polygon fill="midnightblue" stroke="midnightblue" points="1028.54,-358.49 1018.37,-355.51 1024.46,-364.18 1028.54,-358.49"/>
</g>
<!-- Node57 -->
<g id="node39" class="node">
<title>Node57</title>
<g id="a_node39"><a xlink:href="Mult__Table_8hpp.html" target="_top" xlink:title="Contains the classes mackey::MultTableData and mackey::MultTable that form the multiplication table.">
<polygon fill="white" stroke="black" points="608.5,-224.5 608.5,-243.5 698.5,-243.5 698.5,-224.5 608.5,-224.5"/>
<text text-anchor="middle" x="653.5" y="-231.5" font-family="Helvetica,sans-Serif" font-size="10.00">Mult_Table.hpp</text>
</a>
</g>
</g>
<!-- Node56&#45;&gt;Node57 -->
<g id="edge45" class="edge">
<title>Node56&#45;&gt;Node57</title>
<path fill="none" stroke="midnightblue" d="M1137.48,-281.22C1134.44,-280.78 1131.43,-280.37 1128.5,-280 977.14,-260.69 797.67,-245.87 708.91,-239.08"/>
<polygon fill="midnightblue" stroke="midnightblue" points="709.04,-235.58 698.8,-238.31 708.5,-242.56 709.04,-235.58"/>
</g>
<!-- Node59 -->
<g id="node41" class="node">
<title>Node59</title>
<g id="a_node41"><a xlink:href="Graph_8hpp.html" target="_top" xlink:title=" ">
<polygon fill="white" stroke="black" points="1231.5,-224.5 1231.5,-243.5 1331.5,-243.5 1331.5,-224.5 1231.5,-224.5"/>
<text text-anchor="middle" x="1281.5" y="-231.5" font-family="Helvetica,sans-Serif" font-size="10.00">Utility/Graph.hpp</text>
</a>
</g>
</g>
<!-- Node56&#45;&gt;Node59 -->
<g id="edge50" class="edge">
<title>Node56&#45;&gt;Node59</title>
<path fill="none" stroke="midnightblue" d="M1200.08,-280.32C1215.5,-271.74 1239.31,-258.49 1257.21,-248.52"/>
<polygon fill="midnightblue" stroke="midnightblue" points="1258.92,-251.58 1265.95,-243.65 1255.51,-245.46 1258.92,-251.58"/>
</g>
<!-- Node61 -->
<g id="node43" class="node">
<title>Node61</title>
<g id="a_node43"><a xlink:title=" ">
<polygon fill="white" stroke="#bfbfbf" points="1169.5,-168.5 1169.5,-187.5 1201.5,-187.5 1201.5,-168.5 1169.5,-168.5"/>
<text text-anchor="middle" x="1185.5" y="-175.5" font-family="Helvetica,sans-Serif" font-size="10.00">set</text>
</a>
</g>
</g>
<!-- Node56&#45;&gt;Node61 -->
<g id="edge56" class="edge">
<title>Node56&#45;&gt;Node61</title>
<path fill="none" stroke="midnightblue" d="M1148.71,-280.45C1114.59,-270.44 1070.85,-251.65 1088.5,-224 1092.66,-217.49 1132.46,-200.4 1159.77,-189.26"/>
<polygon fill="midnightblue" stroke="midnightblue" points="1161.22,-192.45 1169.18,-185.45 1158.59,-185.96 1161.22,-192.45"/>
</g>
<!-- Node63 -->
<g id="node45" class="node">
<title>Node63</title>
<g id="a_node45"><a xlink:title=" ">
<polygon fill="white" stroke="#bfbfbf" points="1097.5,-224.5 1097.5,-243.5 1213.5,-243.5 1213.5,-224.5 1097.5,-224.5"/>
<text text-anchor="middle" x="1155.5" y="-231.5" font-family="Helvetica,sans-Serif" font-size="10.00">impl/Mult_Graph.ipp</text>
</a>
</g>
</g>
<!-- Node56&#45;&gt;Node63 -->
<g id="edge57" class="edge">
<title>Node56&#45;&gt;Node63</title>
<path fill="none" stroke="midnightblue" d="M1179.71,-280.08C1175.74,-272.69 1169.97,-261.95 1165.07,-252.81"/>
<polygon fill="midnightblue" stroke="midnightblue" points="1168.01,-250.91 1160.2,-243.75 1161.85,-254.22 1168.01,-250.91"/>
</g>
<!-- Node57&#45;&gt;Node14 -->
<g id="edge47" class="edge">
<title>Node57&#45;&gt;Node14</title>
<path fill="none" stroke="midnightblue" d="M633.06,-224.44C611.83,-215.56 578.4,-201.56 554.25,-191.45"/>
<polygon fill="midnightblue" stroke="midnightblue" points="555.42,-188.15 544.84,-187.52 552.72,-194.61 555.42,-188.15"/>
</g>
<!-- Node57&#45;&gt;Node22 -->
<g id="edge48" class="edge">
<title>Node57&#45;&gt;Node22</title>
<path fill="none" stroke="midnightblue" d="M670.37,-224.32C687.21,-215.66 713.31,-202.24 732.74,-192.25"/>
<polygon fill="midnightblue" stroke="midnightblue" points="734.38,-195.34 741.67,-187.65 731.18,-189.12 734.38,-195.34"/>
</g>
<!-- Node57&#45;&gt;Node52 -->
<g id="edge46" class="edge">
<title>Node57&#45;&gt;Node52</title>
<path fill="none" stroke="midnightblue" d="M689.94,-224.44C729.9,-215.06 794.09,-199.99 837.48,-189.8"/>
<polygon fill="midnightblue" stroke="midnightblue" points="838.29,-193.21 847.23,-187.52 836.69,-186.39 838.29,-193.21"/>
</g>
<!-- Node58 -->
<g id="node40" class="node">
<title>Node58</title>
<g id="a_node40"><a xlink:title=" ">
<polygon fill="white" stroke="#bfbfbf" points="597.5,-168.5 597.5,-187.5 709.5,-187.5 709.5,-168.5 597.5,-168.5"/>
<text text-anchor="middle" x="653.5" y="-175.5" font-family="Helvetica,sans-Serif" font-size="10.00">impl/Mult_Table.ipp</text>
</a>
</g>
</g>
<!-- Node57&#45;&gt;Node58 -->
<g id="edge49" class="edge">
<title>Node57&#45;&gt;Node58</title>
<path fill="none" stroke="midnightblue" d="M653.5,-224.08C653.5,-217.01 653.5,-206.86 653.5,-197.99"/>
<polygon fill="midnightblue" stroke="midnightblue" points="657,-197.75 653.5,-187.75 650,-197.75 657,-197.75"/>
</g>
<!-- Node59&#45;&gt;Node11 -->
<g id="edge51" class="edge">
<title>Node59&#45;&gt;Node11</title>
<path fill="none" stroke="midnightblue" d="M1275.09,-224.28C1249.38,-189.4 1154.72,-61.43 1145.5,-56 1100.92,-29.74 948.04,-17.28 879.37,-12.91"/>
<polygon fill="midnightblue" stroke="midnightblue" points="879.3,-9.4 869.1,-12.27 878.87,-16.38 879.3,-9.4"/>
</g>
<!-- Node59&#45;&gt;Node53 -->
<g id="edge54" class="edge">
<title>Node59&#45;&gt;Node53</title>
<path fill="none" stroke="midnightblue" d="M1256.46,-224.44C1229.88,-215.36 1187.69,-200.94 1157.98,-190.78"/>
<polygon fill="midnightblue" stroke="midnightblue" points="1159.01,-187.44 1148.42,-187.52 1156.75,-194.06 1159.01,-187.44"/>
</g>
<!-- Node60 -->
<g id="node42" class="node">
<title>Node60</title>
<g id="a_node42"><a xlink:title=" ">
<polygon fill="white" stroke="#bfbfbf" points="1258,-168.5 1258,-187.5 1305,-187.5 1305,-168.5 1258,-168.5"/>
<text text-anchor="middle" x="1281.5" y="-175.5" font-family="Helvetica,sans-Serif" font-size="10.00">queue</text>
</a>
</g>
</g>
<!-- Node59&#45;&gt;Node60 -->
<g id="edge52" class="edge">
<title>Node59&#45;&gt;Node60</title>
<path fill="none" stroke="midnightblue" d="M1281.5,-224.08C1281.5,-217.01 1281.5,-206.86 1281.5,-197.99"/>
<polygon fill="midnightblue" stroke="midnightblue" points="1285,-197.75 1281.5,-187.75 1278,-197.75 1285,-197.75"/>
</g>
<!-- Node59&#45;&gt;Node61 -->
<g id="edge53" class="edge">
<title>Node59&#45;&gt;Node61</title>
<path fill="none" stroke="midnightblue" d="M1266.08,-224.32C1250.96,-215.82 1227.68,-202.73 1210.03,-192.8"/>
<polygon fill="midnightblue" stroke="midnightblue" points="1211.32,-189.51 1200.89,-187.65 1207.89,-195.61 1211.32,-189.51"/>
</g>
<!-- Node62 -->
<g id="node44" class="node">
<title>Node62</title>
<g id="a_node44"><a xlink:title=" ">
<polygon fill="white" stroke="#bfbfbf" points="1323,-168.5 1323,-187.5 1412,-187.5 1412,-168.5 1323,-168.5"/>
<text text-anchor="middle" x="1367.5" y="-175.5" font-family="Helvetica,sans-Serif" font-size="10.00">impl/Graph.ipp</text>
</a>
</g>
</g>
<!-- Node59&#45;&gt;Node62 -->
<g id="edge55" class="edge">
<title>Node59&#45;&gt;Node62</title>
<path fill="none" stroke="midnightblue" d="M1295.32,-224.32C1308.73,-215.9 1329.32,-202.97 1345.09,-193.07"/>
<polygon fill="midnightblue" stroke="midnightblue" points="1347.11,-195.94 1353.72,-187.65 1343.39,-190.01 1347.11,-195.94"/>
</g>
<!-- Node64&#45;&gt;Node56 -->
<g id="edge59" class="edge">
<title>Node64&#45;&gt;Node56</title>
<path fill="none" stroke="midnightblue" d="M1143.59,-336.08C1150.66,-328.3 1161.09,-316.8 1169.65,-307.37"/>
<polygon fill="midnightblue" stroke="midnightblue" points="1172.43,-309.51 1176.56,-299.75 1167.25,-304.8 1172.43,-309.51"/>
</g>
<!-- Node65 -->
<g id="node47" class="node">
<title>Node65</title>
<g id="a_node47"><a xlink:title=" ">
<polygon fill="white" stroke="#bfbfbf" points="997.5,-280.5 997.5,-299.5 1119.5,-299.5 1119.5,-280.5 997.5,-280.5"/>
<text text-anchor="middle" x="1058.5" y="-287.5" font-family="Helvetica,sans-Serif" font-size="10.00">impl/Mult_Identify.ipp</text>
</a>
</g>
</g>
<!-- Node64&#45;&gt;Node65 -->
<g id="edge60" class="edge">
<title>Node64&#45;&gt;Node65</title>
<path fill="none" stroke="midnightblue" d="M1123.13,-336.32C1111.34,-328.06 1093.37,-315.45 1079.36,-305.63"/>
<polygon fill="midnightblue" stroke="midnightblue" points="1081.04,-302.53 1070.84,-299.65 1077.02,-308.26 1081.04,-302.53"/>
</g>
<!-- Node67&#45;&gt;Node56 -->
<g id="edge63" class="edge">
<title>Node67&#45;&gt;Node56</title>
<path fill="none" stroke="midnightblue" d="M1352.13,-392.41C1381.54,-379.28 1414.64,-358.39 1396.5,-336 1377.38,-312.4 1298.06,-300.67 1242.07,-295.22"/>
<polygon fill="midnightblue" stroke="midnightblue" points="1242.19,-291.72 1231.91,-294.28 1241.54,-298.69 1242.19,-291.72"/>
</g>
<!-- Node68 -->
<g id="node50" class="node">
<title>Node68</title>
<g id="a_node50"><a xlink:title=" ">
<polygon fill="white" stroke="#bfbfbf" points="1241.5,-336.5 1241.5,-355.5 1387.5,-355.5 1387.5,-336.5 1241.5,-336.5"/>
<text text-anchor="middle" x="1314.5" y="-343.5" font-family="Helvetica,sans-Serif" font-size="10.00">impl/Mult_Connectivity.ipp</text>
</a>
</g>
</g>
<!-- Node67&#45;&gt;Node68 -->
<g id="edge64" class="edge">
<title>Node67&#45;&gt;Node68</title>
<path fill="none" stroke="midnightblue" d="M1314.5,-392.4C1314.5,-384.47 1314.5,-374.46 1314.5,-365.86"/>
<polygon fill="midnightblue" stroke="midnightblue" points="1318,-365.66 1314.5,-355.66 1311,-365.66 1318,-365.66"/>
</g>
</g>
</svg>
        <g id="navigator" transform="translate(0 0)" fill="#404254">
                <rect fill="#f2f5e9" fill-opacity="0.5" stroke="#606060" stroke-width=".5" x="0" y="0" width="60" height="60"/>
                <use id="zoomplus" xlink:href="#zoomPlus" x="17" y="9" onmousedown="handleZoom(evt,'in')"/>
                <use id="zoomminus" xlink:href="#zoomMin" x="42" y="9" onmousedown="handleZoom(evt,'out')"/>
                <use id="reset" xlink:href="#resetDef" x="30" y="36" onmousedown="handleReset()"/>
                <g id="arrowUp" xlink:href="#dirArrow" transform="translate(30 24)" onmousedown="handlePan(0,-1)">
                  <use xlink:href="#rim" fill="#404040">
                        <set attributeName="fill" to="#808080" begin="arrowUp.mouseover" end="arrowUp.mouseout"/>
                  </use>
                  <path fill="none" stroke="white" stroke-width="1.5" d="M0,-3.0v7 M-2.5,-0.5L0,-3.0L2.5,-0.5"/>
                </g>
                <g id="arrowRight" xlink:href="#dirArrow" transform="rotate(90) translate(36 -43)" onmousedown="handlePan(1,0)">
                  <use xlink:href="#rim" fill="#404040">
                        <set attributeName="fill" to="#808080" begin="arrowRight.mouseover" end="arrowRight.mouseout"/>
                  </use>
                  <path fill="none" stroke="white" stroke-width="1.5" d="M0,-3.0v7 M-2.5,-0.5L0,-3.0L2.5,-0.5"/>
                </g>
                <g id="arrowDown" xlink:href="#dirArrow" transform="rotate(180) translate(-30 -48)" onmousedown="handlePan(0,1)">
                  <use xlink:href="#rim" fill="#404040">
                        <set attributeName="fill" to="#808080" begin="arrowDown.mouseover" end="arrowDown.mouseout"/>
                  </use>
                  <path fill="none" stroke="white" stroke-width="1.5" d="M0,-3.0v7 M-2.5,-0.5L0,-3.0L2.5,-0.5"/>
                </g>
                <g id="arrowLeft" xlink:href="#dirArrow" transform="rotate(270) translate(-36 17)" onmousedown="handlePan(-1,0)">
                  <use xlink:href="#rim" fill="#404040">
                        <set attributeName="fill" to="#808080" begin="arrowLeft.mouseover" end="arrowLeft.mouseout"/>
                  </use>
                  <path fill="none" stroke="white" stroke-width="1.5" d="M0,-3.0v7 M-2.5,-0.5L0,-3.0L2.5,-0.5"/>
                </g>
        </g>
        <svg viewBox="0 0 15 15" width="100%" height="30px" preserveAspectRatio="xMaxYMin meet">
         <g id="arrow_out" transform="scale(0.3 0.3)">
          <a xlink:href="Mackey_8hpp__incl_org.svg" target="_base">
           <rect id="button" ry="5" rx="5" y="6" x="6" height="38" width="38"
                fill="#f2f5e9" fill-opacity="0.5" stroke="#606060" stroke-width="1.0"/>
           <path id="arrow"
             d="M 11.500037,31.436501 C 11.940474,20.09759 22.043105,11.32322 32.158766,21.979434 L 37.068811,17.246167 C 37.068811,17.246167 37.088388,32 37.088388,32 L 22.160133,31.978069 C 22.160133,31.978069 26.997745,27.140456 26.997745,27.140456 C 18.528582,18.264221 13.291696,25.230495 11.500037,31.436501 z"
             style="fill:#404040;"/>
          </a>
         </g>
        </svg>
</svg>
