<?xml version="1.0" encoding="UTF-8" standalone="no"?>
<!DOCTYPE svg PUBLIC "-//W3C//DTD SVG 1.1//EN"
 "http://www.w3.org/Graphics/SVG/1.1/DTD/svg11.dtd">
<!-- Generated by graphviz version 2.43.0 (0)
 -->
<!-- Title: Mackey.hpp Pages: 1 -->
<svg width="1562pt" height="487pt"
 viewBox="0.00 0.00 1562.00 487.00" xmlns="http://www.w3.org/2000/svg" xmlns:xlink="http://www.w3.org/1999/xlink">
<g id="graph0" class="graph" transform="scale(1 1) rotate(0) translate(4 483)">
<title>Mackey.hpp</title>
<polygon fill="white" stroke="transparent" points="-4,4 -4,-483 1558,-483 1558,4 -4,4"/>
<!-- Node1 -->
<g id="node1" class="node">
<title>Node1</title>
<g id="a_node1"><a xlink:title="Includes the entire library apart from Serialization/Cerealizer.hpp.">
<polygon fill="#bfbfbf" stroke="black" points="640.5,-459.5 640.5,-478.5 714.5,-478.5 714.5,-459.5 640.5,-459.5"/>
<text text-anchor="middle" x="677.5" y="-466.5" font-family="Helvetica,sans-Serif" font-size="10.00">Mackey.hpp</text>
</a>
</g>
</g>
<!-- Node2 -->
<g id="node2" class="node">
<title>Node2</title>
<g id="a_node2"><a xlink:href="Z__n_8hpp.html" target="_top" xlink:title="Contains the class mackey::Z_mod.">
<polygon fill="white" stroke="black" points="52.5,-168.5 52.5,-187.5 168.5,-187.5 168.5,-168.5 52.5,-168.5"/>
<text text-anchor="middle" x="110.5" y="-175.5" font-family="Helvetica,sans-Serif" font-size="10.00">Coefficients/Z_n.hpp</text>
</a>
</g>
</g>
<!-- Node1&#45;&gt;Node2 -->
<g id="edge1" class="edge">
<title>Node1&#45;&gt;Node2</title>
<path fill="none" stroke="midnightblue" d="M640.37,-467.06C523.74,-463.11 172.5,-443.24 172.5,-347 172.5,-347 172.5,-347 172.5,-289 172.5,-251.62 145,-215.24 126.63,-195.1"/>
<polygon fill="midnightblue" stroke="midnightblue" points="129.07,-192.59 119.65,-187.75 123.99,-197.41 129.07,-192.59"/>
</g>
<!-- Node9 -->
<g id="node9" class="node">
<title>Node9</title>
<g id="a_node9"><a xlink:href="C2n_8hpp.html" target="_top" xlink:title="Defines the groups &#160;via mackey::C2Power.">
<polygon fill="white" stroke="black" points="445.5,-224.5 445.5,-243.5 539.5,-243.5 539.5,-224.5 445.5,-224.5"/>
<text text-anchor="middle" x="492.5" y="-231.5" font-family="Helvetica,sans-Serif" font-size="10.00">Groups/C2n.hpp</text>
</a>
</g>
</g>
<!-- Node1&#45;&gt;Node9 -->
<g id="edge8" class="edge">
<title>Node1&#45;&gt;Node9</title>
<path fill="none" stroke="midnightblue" d="M670.7,-459.43C643.51,-425.18 542.35,-297.78 505.79,-251.74"/>
<polygon fill="midnightblue" stroke="midnightblue" points="508.52,-249.55 499.56,-243.9 503.04,-253.9 508.52,-249.55"/>
</g>
<!-- Node20 -->
<g id="node20" class="node">
<title>Node20</title>
<g id="a_node20"><a xlink:href="BC4S2_8hpp.html" target="_top" xlink:title="Contains the class mackey::BC4S2.">
<polygon fill="white" stroke="black" points="580,-280.5 580,-299.5 687,-299.5 687,-280.5 580,-280.5"/>
<text text-anchor="middle" x="633.5" y="-287.5" font-family="Helvetica,sans-Serif" font-size="10.00">Spaces/BC4S2.hpp</text>
</a>
</g>
</g>
<!-- Node1&#45;&gt;Node20 -->
<g id="edge23" class="edge">
<title>Node1&#45;&gt;Node20</title>
<path fill="none" stroke="midnightblue" d="M675.38,-459.46C668.63,-432.31 647.55,-347.51 638.13,-309.62"/>
<polygon fill="midnightblue" stroke="midnightblue" points="641.51,-308.73 635.7,-299.87 634.72,-310.42 641.51,-308.73"/>
</g>
<!-- Node53 -->
<g id="node34" class="node">
<title>Node53</title>
<g id="a_node34"><a xlink:href="Additive_8hpp.html" target="_top" xlink:title="Contains the class mackey::AdditiveStructure">
<polygon fill="white" stroke="black" points="849,-224.5 849,-243.5 1014,-243.5 1014,-224.5 849,-224.5"/>
<text text-anchor="middle" x="931.5" y="-231.5" font-family="Helvetica,sans-Serif" font-size="10.00">Mackey_Functors/Additive.hpp</text>
</a>
</g>
</g>
<!-- Node1&#45;&gt;Node53 -->
<g id="edge41" class="edge">
<title>Node1&#45;&gt;Node53</title>
<path fill="none" stroke="midnightblue" d="M679.99,-459.39C688.99,-429.72 722.78,-330.81 786.5,-280 807.6,-263.17 835.03,-252.61 860.34,-245.99"/>
<polygon fill="midnightblue" stroke="midnightblue" points="861.4,-249.33 870.28,-243.55 859.74,-242.53 861.4,-249.33"/>
</g>
<!-- Node57 -->
<g id="node38" class="node">
<title>Node57</title>
<g id="a_node38"><a xlink:href="Factorization_8hpp.html" target="_top" xlink:title="Contains the class mackey::Factorization.">
<polygon fill="white" stroke="black" points="774,-398 774,-417 939,-417 939,-398 774,-398"/>
<text text-anchor="middle" x="856.5" y="-405" font-family="Helvetica,sans-Serif" font-size="10.00">Factorization/Factorization.hpp</text>
</a>
</g>
</g>
<!-- Node1&#45;&gt;Node57 -->
<g id="edge46" class="edge">
<title>Node1&#45;&gt;Node57</title>
<path fill="none" stroke="midnightblue" d="M703.15,-459.48C734.12,-449.18 786.37,-431.81 821.15,-420.25"/>
<polygon fill="midnightblue" stroke="midnightblue" points="822.52,-423.48 830.9,-417.01 820.31,-416.84 822.52,-423.48"/>
</g>
<!-- Node71 -->
<g id="node49" class="node">
<title>Node71</title>
<g id="a_node49"><a xlink:href="Mult__Connectivity_8hpp.html" target="_top" xlink:title="Contains the class mackey::MultConnectivity.">
<polygon fill="white" stroke="black" points="1029.5,-392.5 1029.5,-422.5 1133.5,-422.5 1133.5,-392.5 1029.5,-392.5"/>
<text text-anchor="start" x="1037.5" y="-410.5" font-family="Helvetica,sans-Serif" font-size="10.00">Factorization/Mult</text>
<text text-anchor="middle" x="1081.5" y="-399.5" font-family="Helvetica,sans-Serif" font-size="10.00">_Connectivity.hpp</text>
</a>
</g>
</g>
<!-- Node1&#45;&gt;Node71 -->
<g id="edge62" class="edge">
<title>Node1&#45;&gt;Node71</title>
<path fill="none" stroke="midnightblue" d="M714.78,-462.51C784.24,-452.28 934.07,-430.21 1019.16,-417.68"/>
<polygon fill="midnightblue" stroke="midnightblue" points="1019.82,-421.12 1029.2,-416.2 1018.8,-414.2 1019.82,-421.12"/>
</g>
<!-- Node3 -->
<g id="node3" class="node">
<title>Node3</title>
<g id="a_node3"><a xlink:title=" ">
<polygon fill="white" stroke="#bfbfbf" points="499.5,-112.5 499.5,-131.5 559.5,-131.5 559.5,-112.5 499.5,-112.5"/>
<text text-anchor="middle" x="529.5" y="-119.5" font-family="Helvetica,sans-Serif" font-size="10.00">iostream</text>
</a>
</g>
</g>
<!-- Node2&#45;&gt;Node3 -->
<g id="edge2" class="edge">
<title>Node2&#45;&gt;Node3</title>
<path fill="none" stroke="midnightblue" d="M168.76,-169.49C255.02,-158.37 414.54,-137.82 489.11,-128.21"/>
<polygon fill="midnightblue" stroke="midnightblue" points="490.01,-131.62 499.48,-126.87 489.11,-124.68 490.01,-131.62"/>
</g>
<!-- Node4 -->
<g id="node4" class="node">
<title>Node4</title>
<g id="a_node4"><a xlink:title=" ">
<polygon fill="white" stroke="#bfbfbf" points="149.5,-112.5 149.5,-131.5 191.5,-131.5 191.5,-112.5 149.5,-112.5"/>
<text text-anchor="middle" x="170.5" y="-119.5" font-family="Helvetica,sans-Serif" font-size="10.00">array</text>
</a>
</g>
</g>
<!-- Node2&#45;&gt;Node4 -->
<g id="edge3" class="edge">
<title>Node2&#45;&gt;Node4</title>
<path fill="none" stroke="midnightblue" d="M120.14,-168.32C129.01,-160.34 142.37,-148.31 153.11,-138.65"/>
<polygon fill="midnightblue" stroke="midnightblue" points="155.59,-141.13 160.68,-131.83 150.91,-135.92 155.59,-141.13"/>
</g>
<!-- Node5 -->
<g id="node5" class="node">
<title>Node5</title>
<g id="a_node5"><a xlink:title=" ">
<polygon fill="white" stroke="#bfbfbf" points="0,-56.5 0,-75.5 77,-75.5 77,-56.5 0,-56.5"/>
<text text-anchor="middle" x="38.5" y="-63.5" font-family="Helvetica,sans-Serif" font-size="10.00">Eigen/Dense</text>
</a>
</g>
</g>
<!-- Node2&#45;&gt;Node5 -->
<g id="edge4" class="edge">
<title>Node2&#45;&gt;Node5</title>
<path fill="none" stroke="midnightblue" d="M83.57,-168.36C66.78,-161.41 46.52,-149.82 36.5,-132 28.55,-117.87 30.15,-99.14 33.09,-85.41"/>
<polygon fill="midnightblue" stroke="midnightblue" points="36.49,-86.22 35.57,-75.66 29.71,-84.49 36.49,-86.22"/>
</g>
<!-- Node6 -->
<g id="node6" class="node">
<title>Node6</title>
<g id="a_node6"><a xlink:href="SFINAE_8hpp.html" target="_top" xlink:title="Contains all the SFINAE tricks.">
<polygon fill="white" stroke="black" points="121.5,-56.5 121.5,-75.5 225.5,-75.5 225.5,-56.5 121.5,-56.5"/>
<text text-anchor="middle" x="173.5" y="-63.5" font-family="Helvetica,sans-Serif" font-size="10.00">Types/SFINAE.hpp</text>
</a>
</g>
</g>
<!-- Node2&#45;&gt;Node6 -->
<g id="edge5" class="edge">
<title>Node2&#45;&gt;Node6</title>
<path fill="none" stroke="midnightblue" d="M89.96,-168.49C65.03,-156.89 28.2,-134.95 44.5,-112 59.84,-90.4 86.34,-79.09 111.35,-73.19"/>
<polygon fill="midnightblue" stroke="midnightblue" points="112.14,-76.6 121.2,-71.12 110.7,-69.75 112.14,-76.6"/>
</g>
<!-- Node8 -->
<g id="node8" class="node">
<title>Node8</title>
<g id="a_node8"><a xlink:title=" ">
<polygon fill="white" stroke="#bfbfbf" points="54,-112.5 54,-131.5 131,-131.5 131,-112.5 54,-112.5"/>
<text text-anchor="middle" x="92.5" y="-119.5" font-family="Helvetica,sans-Serif" font-size="10.00">impl/Z_n.ipp</text>
</a>
</g>
</g>
<!-- Node2&#45;&gt;Node8 -->
<g id="edge7" class="edge">
<title>Node2&#45;&gt;Node8</title>
<path fill="none" stroke="midnightblue" d="M107.53,-168.08C105.12,-160.85 101.64,-150.41 98.63,-141.4"/>
<polygon fill="midnightblue" stroke="midnightblue" points="101.9,-140.13 95.42,-131.75 95.26,-142.34 101.9,-140.13"/>
</g>
<!-- Node7 -->
<g id="node7" class="node">
<title>Node7</title>
<g id="a_node7"><a xlink:title=" ">
<polygon fill="white" stroke="#bfbfbf" points="139,-0.5 139,-19.5 208,-19.5 208,-0.5 139,-0.5"/>
<text text-anchor="middle" x="173.5" y="-7.5" font-family="Helvetica,sans-Serif" font-size="10.00">type_traits</text>
</a>
</g>
</g>
<!-- Node6&#45;&gt;Node7 -->
<g id="edge6" class="edge">
<title>Node6&#45;&gt;Node7</title>
<path fill="none" stroke="midnightblue" d="M173.5,-56.08C173.5,-49.01 173.5,-38.86 173.5,-29.99"/>
<polygon fill="midnightblue" stroke="midnightblue" points="177,-29.75 173.5,-19.75 170,-29.75 177,-29.75"/>
</g>
<!-- Node10 -->
<g id="node10" class="node">
<title>Node10</title>
<g id="a_node10"><a xlink:href="Chains_8hpp.html" target="_top" xlink:title="Contains the classes mackey::Arrow, mackey::Chains and mackey::Junction.">
<polygon fill="white" stroke="black" points="317,-56.5 317,-75.5 478,-75.5 478,-56.5 317,-56.5"/>
<text text-anchor="middle" x="397.5" y="-63.5" font-family="Helvetica,sans-Serif" font-size="10.00">Chain_Complexes/Chains.hpp</text>
</a>
</g>
</g>
<!-- Node9&#45;&gt;Node10 -->
<g id="edge9" class="edge">
<title>Node9&#45;&gt;Node10</title>
<path fill="none" stroke="midnightblue" d="M487.39,-224.08C472.31,-197.72 427.76,-119.88 407.61,-84.66"/>
<polygon fill="midnightblue" stroke="midnightblue" points="410.41,-82.51 402.4,-75.57 404.33,-85.99 410.41,-82.51"/>
</g>
<!-- Node14 -->
<g id="node14" class="node">
<title>Node14</title>
<g id="a_node14"><a xlink:href="General_8hpp.html" target="_top" xlink:title="Contains general functions and vector overloads independent of everything else.">
<polygon fill="white" stroke="black" points="674,-168.5 674,-187.5 783,-187.5 783,-168.5 674,-168.5"/>
<text text-anchor="middle" x="728.5" y="-175.5" font-family="Helvetica,sans-Serif" font-size="10.00">Utility/General.hpp</text>
</a>
</g>
</g>
<!-- Node9&#45;&gt;Node14 -->
<g id="edge13" class="edge">
<title>Node9&#45;&gt;Node14</title>
<path fill="none" stroke="midnightblue" d="M529.89,-224.44C570.89,-215.06 636.75,-199.99 681.28,-189.8"/>
<polygon fill="midnightblue" stroke="midnightblue" points="682.31,-193.16 691.28,-187.52 680.75,-186.34 682.31,-193.16"/>
</g>
<!-- Node19 -->
<g id="node19" class="node">
<title>Node19</title>
<g id="a_node19"><a xlink:title=" ">
<polygon fill="white" stroke="#bfbfbf" points="347.5,-168.5 347.5,-187.5 425.5,-187.5 425.5,-168.5 347.5,-168.5"/>
<text text-anchor="middle" x="386.5" y="-175.5" font-family="Helvetica,sans-Serif" font-size="10.00">impl/C2n.ipp</text>
</a>
</g>
</g>
<!-- Node9&#45;&gt;Node19 -->
<g id="edge22" class="edge">
<title>Node9&#45;&gt;Node19</title>
<path fill="none" stroke="midnightblue" d="M475.47,-224.32C458.47,-215.66 432.12,-202.24 412.51,-192.25"/>
<polygon fill="midnightblue" stroke="midnightblue" points="413.99,-189.08 403.49,-187.65 410.81,-195.31 413.99,-189.08"/>
</g>
<!-- Node11 -->
<g id="node11" class="node">
<title>Node11</title>
<g id="a_node11"><a xlink:title=" ">
<polygon fill="white" stroke="#bfbfbf" points="524,-0.5 524,-19.5 571,-19.5 571,-0.5 524,-0.5"/>
<text text-anchor="middle" x="547.5" y="-7.5" font-family="Helvetica,sans-Serif" font-size="10.00">vector</text>
</a>
</g>
</g>
<!-- Node10&#45;&gt;Node11 -->
<g id="edge10" class="edge">
<title>Node10&#45;&gt;Node11</title>
<path fill="none" stroke="midnightblue" d="M421.27,-56.44C446.39,-47.4 486.21,-33.06 514.4,-22.92"/>
<polygon fill="midnightblue" stroke="midnightblue" points="515.62,-26.2 523.84,-19.52 513.25,-19.61 515.62,-26.2"/>
</g>
<!-- Node12 -->
<g id="node12" class="node">
<title>Node12</title>
<g id="a_node12"><a xlink:title=" ">
<polygon fill="white" stroke="#bfbfbf" points="328,-0.5 328,-19.5 385,-19.5 385,-0.5 328,-0.5"/>
<text text-anchor="middle" x="356.5" y="-7.5" font-family="Helvetica,sans-Serif" font-size="10.00">ostream</text>
</a>
</g>
</g>
<!-- Node10&#45;&gt;Node12 -->
<g id="edge11" class="edge">
<title>Node10&#45;&gt;Node12</title>
<path fill="none" stroke="midnightblue" d="M390.73,-56.08C384.94,-48.46 376.44,-37.26 369.36,-27.94"/>
<polygon fill="midnightblue" stroke="midnightblue" points="371.98,-25.6 363.14,-19.75 366.4,-29.83 371.98,-25.6"/>
</g>
<!-- Node13 -->
<g id="node13" class="node">
<title>Node13</title>
<g id="a_node13"><a xlink:title=" ">
<polygon fill="white" stroke="#bfbfbf" points="403.5,-0.5 403.5,-19.5 495.5,-19.5 495.5,-0.5 403.5,-0.5"/>
<text text-anchor="middle" x="449.5" y="-7.5" font-family="Helvetica,sans-Serif" font-size="10.00">impl/Chains.ipp</text>
</a>
</g>
</g>
<!-- Node10&#45;&gt;Node13 -->
<g id="edge12" class="edge">
<title>Node10&#45;&gt;Node13</title>
<path fill="none" stroke="midnightblue" d="M406.09,-56.08C413.66,-48.22 424.88,-36.57 434.01,-27.08"/>
<polygon fill="midnightblue" stroke="midnightblue" points="436.66,-29.38 441.07,-19.75 431.62,-24.53 436.66,-29.38"/>
</g>
<!-- Node14&#45;&gt;Node3 -->
<g id="edge20" class="edge">
<title>Node14&#45;&gt;Node3</title>
<path fill="none" stroke="midnightblue" d="M696.97,-168.44C662.51,-159.09 607.21,-144.09 569.67,-133.9"/>
<polygon fill="midnightblue" stroke="midnightblue" points="570.15,-130.4 559.58,-131.16 568.32,-137.16 570.15,-130.4"/>
</g>
<!-- Node14&#45;&gt;Node11 -->
<g id="edge14" class="edge">
<title>Node14&#45;&gt;Node11</title>
<path fill="none" stroke="midnightblue" d="M783.31,-169.28C786.42,-168.84 789.5,-168.42 792.5,-168 851.15,-159.88 1017.56,-176.61 1056.5,-132 1062.35,-125.3 1058.9,-120.56 1056.5,-112 1048.65,-83.96 1047.17,-71.46 1022.5,-56 948.92,-9.89 677.24,-9.12 581.31,-10.36"/>
<polygon fill="midnightblue" stroke="midnightblue" points="580.97,-6.86 571.03,-10.51 581.08,-13.86 580.97,-6.86"/>
</g>
<!-- Node15 -->
<g id="node15" class="node">
<title>Node15</title>
<g id="a_node15"><a xlink:href="Aliases_8hpp.html" target="_top" xlink:title="Contains general template aliases.">
<polygon fill="white" stroke="black" points="577.5,-112.5 577.5,-131.5 681.5,-131.5 681.5,-112.5 577.5,-112.5"/>
<text text-anchor="middle" x="629.5" y="-119.5" font-family="Helvetica,sans-Serif" font-size="10.00">Types/Aliases.hpp</text>
</a>
</g>
</g>
<!-- Node14&#45;&gt;Node15 -->
<g id="edge15" class="edge">
<title>Node14&#45;&gt;Node15</title>
<path fill="none" stroke="midnightblue" d="M712.59,-168.32C696.86,-159.74 672.56,-146.49 654.29,-136.52"/>
<polygon fill="midnightblue" stroke="midnightblue" points="655.82,-133.37 645.37,-131.65 652.47,-139.52 655.82,-133.37"/>
</g>
<!-- Node17 -->
<g id="node17" class="node">
<title>Node17</title>
<g id="a_node17"><a xlink:title=" ">
<polygon fill="white" stroke="#bfbfbf" points="699.5,-112.5 699.5,-131.5 755.5,-131.5 755.5,-112.5 699.5,-112.5"/>
<text text-anchor="middle" x="727.5" y="-119.5" font-family="Helvetica,sans-Serif" font-size="10.00">numeric</text>
</a>
</g>
</g>
<!-- Node14&#45;&gt;Node17 -->
<g id="edge19" class="edge">
<title>Node14&#45;&gt;Node17</title>
<path fill="none" stroke="midnightblue" d="M728.33,-168.08C728.2,-161.01 728.02,-150.86 727.85,-141.99"/>
<polygon fill="midnightblue" stroke="midnightblue" points="731.35,-141.68 727.66,-131.75 724.35,-141.81 731.35,-141.68"/>
</g>
<!-- Node18 -->
<g id="node18" class="node">
<title>Node18</title>
<g id="a_node18"><a xlink:title=" ">
<polygon fill="white" stroke="#bfbfbf" points="773.5,-112.5 773.5,-131.5 871.5,-131.5 871.5,-112.5 773.5,-112.5"/>
<text text-anchor="middle" x="822.5" y="-119.5" font-family="Helvetica,sans-Serif" font-size="10.00">impl/General.ipp</text>
</a>
</g>
</g>
<!-- Node14&#45;&gt;Node18 -->
<g id="edge21" class="edge">
<title>Node14&#45;&gt;Node18</title>
<path fill="none" stroke="midnightblue" d="M743.6,-168.32C758.4,-159.82 781.19,-146.73 798.48,-136.8"/>
<polygon fill="midnightblue" stroke="midnightblue" points="800.51,-139.67 807.43,-131.65 797.02,-133.6 800.51,-139.67"/>
</g>
<!-- Node15&#45;&gt;Node5 -->
<g id="edge16" class="edge">
<title>Node15&#45;&gt;Node5</title>
<path fill="none" stroke="midnightblue" d="M577.29,-113.06C574.32,-112.68 571.37,-112.32 568.5,-112 366.49,-89.15 314.78,-96.28 112.5,-76 104.35,-75.18 95.71,-74.22 87.32,-73.23"/>
<polygon fill="midnightblue" stroke="midnightblue" points="87.6,-69.74 77.26,-72.03 86.77,-76.69 87.6,-69.74"/>
</g>
<!-- Node15&#45;&gt;Node6 -->
<g id="edge18" class="edge">
<title>Node15&#45;&gt;Node6</title>
<path fill="none" stroke="midnightblue" d="M577.27,-113.18C574.31,-112.77 571.37,-112.37 568.5,-112 451.1,-96.66 313.67,-81.67 235.77,-73.45"/>
<polygon fill="midnightblue" stroke="midnightblue" points="235.96,-69.95 225.64,-72.39 235.22,-76.91 235.96,-69.95"/>
</g>
<!-- Node16 -->
<g id="node16" class="node">
<title>Node16</title>
<g id="a_node16"><a xlink:title=" ">
<polygon fill="white" stroke="#bfbfbf" points="707.5,-56.5 707.5,-75.5 787.5,-75.5 787.5,-56.5 707.5,-56.5"/>
<text text-anchor="middle" x="747.5" y="-63.5" font-family="Helvetica,sans-Serif" font-size="10.00">Eigen/Sparse</text>
</a>
</g>
</g>
<!-- Node15&#45;&gt;Node16 -->
<g id="edge17" class="edge">
<title>Node15&#45;&gt;Node16</title>
<path fill="none" stroke="midnightblue" d="M648.2,-112.44C667.44,-103.64 697.65,-89.81 719.7,-79.72"/>
<polygon fill="midnightblue" stroke="midnightblue" points="721.25,-82.86 728.89,-75.52 718.34,-76.5 721.25,-82.86"/>
</g>
<!-- Node21 -->
<g id="node21" class="node">
<title>Node21</title>
<g id="a_node21"><a xlink:href="Space_8hpp.html" target="_top" xlink:title="Contains the class mackey::Space.">
<polygon fill="white" stroke="black" points="589,-224.5 589,-243.5 656,-243.5 656,-224.5 589,-224.5"/>
<text text-anchor="middle" x="622.5" y="-231.5" font-family="Helvetica,sans-Serif" font-size="10.00">Space.hpp</text>
</a>
</g>
</g>
<!-- Node20&#45;&gt;Node21 -->
<g id="edge24" class="edge">
<title>Node20&#45;&gt;Node21</title>
<path fill="none" stroke="midnightblue" d="M631.68,-280.08C630.23,-272.93 628.13,-262.64 626.31,-253.69"/>
<polygon fill="midnightblue" stroke="midnightblue" points="629.71,-252.85 624.28,-243.75 622.85,-254.25 629.71,-252.85"/>
</g>
<!-- Node50 -->
<g id="node30" class="node">
<title>Node50</title>
<g id="a_node30"><a xlink:href="Generators_8hpp.html" target="_top" xlink:title="Contains classes for generating permutations, combinations and a factory for such classes.">
<polygon fill="white" stroke="black" points="204,-168.5 204,-187.5 329,-187.5 329,-168.5 204,-168.5"/>
<text text-anchor="middle" x="266.5" y="-175.5" font-family="Helvetica,sans-Serif" font-size="10.00">Utility/Generators.hpp</text>
</a>
</g>
</g>
<!-- Node20&#45;&gt;Node50 -->
<g id="edge35" class="edge">
<title>Node20&#45;&gt;Node50</title>
<path fill="none" stroke="midnightblue" d="M587.64,-280.43C547.41,-272.46 487.52,-259.5 436.5,-244 386.09,-228.69 329.22,-205.74 295.7,-191.61"/>
<polygon fill="midnightblue" stroke="midnightblue" points="296.65,-188.21 286.08,-187.52 293.91,-194.65 296.65,-188.21"/>
</g>
<!-- Node52 -->
<g id="node33" class="node">
<title>Node52</title>
<g id="a_node33"><a xlink:title=" ">
<polygon fill="white" stroke="#bfbfbf" points="674,-224.5 674,-243.5 765,-243.5 765,-224.5 674,-224.5"/>
<text text-anchor="middle" x="719.5" y="-231.5" font-family="Helvetica,sans-Serif" font-size="10.00">impl/BC4S2.ipp</text>
</a>
</g>
</g>
<!-- Node20&#45;&gt;Node52 -->
<g id="edge40" class="edge">
<title>Node20&#45;&gt;Node52</title>
<path fill="none" stroke="midnightblue" d="M647.32,-280.32C660.73,-271.9 681.32,-258.97 697.09,-249.07"/>
<polygon fill="midnightblue" stroke="midnightblue" points="699.11,-251.94 705.72,-243.65 695.39,-246.01 699.11,-251.94"/>
</g>
<!-- Node22 -->
<g id="node22" class="node">
<title>Node22</title>
<g id="a_node22"><a xlink:href="Point_8hpp.html" target="_top" xlink:title="Contains the methods computing the RO(G) homology of a point.">
<polygon fill="white" stroke="black" points="801.5,-168.5 801.5,-187.5 863.5,-187.5 863.5,-168.5 801.5,-168.5"/>
<text text-anchor="middle" x="832.5" y="-175.5" font-family="Helvetica,sans-Serif" font-size="10.00">Point.hpp</text>
</a>
</g>
</g>
<!-- Node21&#45;&gt;Node22 -->
<g id="edge25" class="edge">
<title>Node21&#45;&gt;Node22</title>
<path fill="none" stroke="midnightblue" d="M655.78,-224.44C692.59,-214.98 751.93,-199.72 791.56,-189.53"/>
<polygon fill="midnightblue" stroke="midnightblue" points="792.62,-192.87 801.43,-186.99 790.88,-186.09 792.62,-192.87"/>
</g>
<!-- Node49 -->
<g id="node29" class="node">
<title>Node49</title>
<g id="a_node29"><a xlink:title=" ">
<polygon fill="white" stroke="#bfbfbf" points="567,-168.5 567,-187.5 656,-187.5 656,-168.5 567,-168.5"/>
<text text-anchor="middle" x="611.5" y="-175.5" font-family="Helvetica,sans-Serif" font-size="10.00">impl/Space.ipp</text>
</a>
</g>
</g>
<!-- Node21&#45;&gt;Node49 -->
<g id="edge34" class="edge">
<title>Node21&#45;&gt;Node49</title>
<path fill="none" stroke="midnightblue" d="M620.68,-224.08C619.23,-216.93 617.13,-206.64 615.31,-197.69"/>
<polygon fill="midnightblue" stroke="midnightblue" points="618.71,-196.85 613.28,-187.75 611.85,-198.25 618.71,-196.85"/>
</g>
<!-- Node23 -->
<g id="node23" class="node">
<title>Node23</title>
<g id="a_node23"><a xlink:href="Massey_8hpp.html" target="_top" xlink:title="Contains the classes mackey::Massey and mackey::internal::MasseyCompute.">
<polygon fill="white" stroke="black" points="1104,-112.5 1104,-131.5 1223,-131.5 1223,-112.5 1104,-112.5"/>
<text text-anchor="middle" x="1163.5" y="-119.5" font-family="Helvetica,sans-Serif" font-size="10.00">Products/Massey.hpp</text>
</a>
</g>
</g>
<!-- Node22&#45;&gt;Node23 -->
<g id="edge26" class="edge">
<title>Node22&#45;&gt;Node23</title>
<path fill="none" stroke="midnightblue" d="M863.9,-169.72C866.8,-169.11 869.7,-168.53 872.5,-168 947.87,-153.71 1034.88,-140.71 1093.97,-132.4"/>
<polygon fill="midnightblue" stroke="midnightblue" points="1094.52,-135.86 1103.94,-131 1093.55,-128.92 1094.52,-135.86"/>
</g>
<!-- Node46 -->
<g id="node26" class="node">
<title>Node46</title>
<g id="a_node26"><a xlink:href="Morse_8hpp.html" target="_top" xlink:title="Contains the classes mackey::AMT and mackey::EquivariantAMT.">
<polygon fill="white" stroke="black" points="889.5,-112.5 889.5,-131.5 1047.5,-131.5 1047.5,-112.5 889.5,-112.5"/>
<text text-anchor="middle" x="968.5" y="-119.5" font-family="Helvetica,sans-Serif" font-size="10.00">Chain_Complexes/Morse.hpp</text>
</a>
</g>
</g>
<!-- Node22&#45;&gt;Node46 -->
<g id="edge29" class="edge">
<title>Node22&#45;&gt;Node46</title>
<path fill="none" stroke="midnightblue" d="M854.05,-168.44C876.53,-159.52 911.99,-145.44 937.48,-135.32"/>
<polygon fill="midnightblue" stroke="midnightblue" points="939.05,-138.46 947.05,-131.52 936.47,-131.95 939.05,-138.46"/>
</g>
<!-- Node48 -->
<g id="node28" class="node">
<title>Node48</title>
<g id="a_node28"><a xlink:title=" ">
<polygon fill="white" stroke="#bfbfbf" points="1241.5,-112.5 1241.5,-131.5 1325.5,-131.5 1325.5,-112.5 1241.5,-112.5"/>
<text text-anchor="middle" x="1283.5" y="-119.5" font-family="Helvetica,sans-Serif" font-size="10.00">impl/Point.ipp</text>
</a>
</g>
</g>
<!-- Node22&#45;&gt;Node48 -->
<g id="edge33" class="edge">
<title>Node22&#45;&gt;Node48</title>
<path fill="none" stroke="midnightblue" d="M863.87,-169.56C866.78,-168.99 869.69,-168.45 872.5,-168 1027.98,-142.83 1071.44,-153.52 1231.06,-132.1"/>
<polygon fill="midnightblue" stroke="midnightblue" points="1231.8,-135.53 1241.24,-130.71 1230.86,-128.59 1231.8,-135.53"/>
</g>
<!-- Node24 -->
<g id="node24" class="node">
<title>Node24</title>
<g id="a_node24"><a xlink:href="Green_8hpp.html" target="_top" xlink:title="Contains the classes mackey::Green, mackey::internal::GreenCompute, mackey::internal::ChainsLevelGen,...">
<polygon fill="white" stroke="red" points="1117,-56.5 1117,-75.5 1184,-75.5 1184,-56.5 1117,-56.5"/>
<text text-anchor="middle" x="1150.5" y="-63.5" font-family="Helvetica,sans-Serif" font-size="10.00">Green.hpp</text>
</a>
</g>
</g>
<!-- Node23&#45;&gt;Node24 -->
<g id="edge27" class="edge">
<title>Node23&#45;&gt;Node24</title>
<path fill="none" stroke="midnightblue" d="M1161.35,-112.08C1159.63,-104.93 1157.15,-94.64 1155,-85.69"/>
<polygon fill="midnightblue" stroke="midnightblue" points="1158.35,-84.65 1152.61,-75.75 1151.54,-86.29 1158.35,-84.65"/>
</g>
<!-- Node45 -->
<g id="node25" class="node">
<title>Node45</title>
<g id="a_node25"><a xlink:title=" ">
<polygon fill="white" stroke="#bfbfbf" points="1202,-56.5 1202,-75.5 1297,-75.5 1297,-56.5 1202,-56.5"/>
<text text-anchor="middle" x="1249.5" y="-63.5" font-family="Helvetica,sans-Serif" font-size="10.00">impl/Massey.ipp</text>
</a>
</g>
</g>
<!-- Node23&#45;&gt;Node45 -->
<g id="edge28" class="edge">
<title>Node23&#45;&gt;Node45</title>
<path fill="none" stroke="midnightblue" d="M1177.32,-112.32C1190.73,-103.9 1211.32,-90.97 1227.09,-81.07"/>
<polygon fill="midnightblue" stroke="midnightblue" points="1229.11,-83.94 1235.72,-75.65 1225.39,-78.01 1229.11,-83.94"/>
</g>
<!-- Node46&#45;&gt;Node10 -->
<g id="edge30" class="edge">
<title>Node46&#45;&gt;Node10</title>
<path fill="none" stroke="midnightblue" d="M889.35,-112.87C886.36,-112.58 883.4,-112.28 880.5,-112 743.89,-98.65 585.46,-84.06 488.36,-75.22"/>
<polygon fill="midnightblue" stroke="midnightblue" points="488.56,-71.72 478.28,-74.3 487.92,-78.69 488.56,-71.72"/>
</g>
<!-- Node46&#45;&gt;Node16 -->
<g id="edge31" class="edge">
<title>Node46&#45;&gt;Node16</title>
<path fill="none" stroke="midnightblue" d="M933.48,-112.44C895.25,-103.1 833.93,-88.12 792.24,-77.93"/>
<polygon fill="midnightblue" stroke="midnightblue" points="792.9,-74.49 782.35,-75.52 791.24,-81.29 792.9,-74.49"/>
</g>
<!-- Node47 -->
<g id="node27" class="node">
<title>Node47</title>
<g id="a_node27"><a xlink:title=" ">
<polygon fill="white" stroke="#bfbfbf" points="924,-56.5 924,-75.5 1013,-75.5 1013,-56.5 924,-56.5"/>
<text text-anchor="middle" x="968.5" y="-63.5" font-family="Helvetica,sans-Serif" font-size="10.00">impl/Morse.ipp</text>
</a>
</g>
</g>
<!-- Node46&#45;&gt;Node47 -->
<g id="edge32" class="edge">
<title>Node46&#45;&gt;Node47</title>
<path fill="none" stroke="midnightblue" d="M968.5,-112.08C968.5,-105.01 968.5,-94.86 968.5,-85.99"/>
<polygon fill="midnightblue" stroke="midnightblue" points="972,-85.75 968.5,-75.75 965,-85.75 972,-85.75"/>
</g>
<!-- Node50&#45;&gt;Node4 -->
<g id="edge38" class="edge">
<title>Node50&#45;&gt;Node4</title>
<path fill="none" stroke="midnightblue" d="M251.08,-168.32C235.96,-159.82 212.68,-146.73 195.03,-136.8"/>
<polygon fill="midnightblue" stroke="midnightblue" points="196.32,-133.51 185.89,-131.65 192.89,-139.61 196.32,-133.51"/>
</g>
<!-- Node50&#45;&gt;Node11 -->
<g id="edge37" class="edge">
<title>Node50&#45;&gt;Node11</title>
<path fill="none" stroke="midnightblue" d="M308.91,-168.46C339.4,-161.3 380.88,-149.42 414.5,-132 450.49,-113.35 456.54,-103.31 486.5,-76 503.55,-60.46 521.43,-40.98 533.39,-27.42"/>
<polygon fill="midnightblue" stroke="midnightblue" points="536.07,-29.66 540.01,-19.82 530.8,-25.06 536.07,-29.66"/>
</g>
<!-- Node41 -->
<g id="node31" class="node">
<title>Node41</title>
<g id="a_node31"><a xlink:title=" ">
<polygon fill="white" stroke="#bfbfbf" points="341.5,-112.5 341.5,-131.5 405.5,-131.5 405.5,-112.5 341.5,-112.5"/>
<text text-anchor="middle" x="373.5" y="-119.5" font-family="Helvetica,sans-Serif" font-size="10.00">algorithm</text>
</a>
</g>
</g>
<!-- Node50&#45;&gt;Node41 -->
<g id="edge36" class="edge">
<title>Node50&#45;&gt;Node41</title>
<path fill="none" stroke="midnightblue" d="M283.69,-168.32C300.85,-159.66 327.45,-146.24 347.25,-136.25"/>
<polygon fill="midnightblue" stroke="midnightblue" points="349,-139.28 356.35,-131.65 345.85,-133.04 349,-139.28"/>
</g>
<!-- Node51 -->
<g id="node32" class="node">
<title>Node51</title>
<g id="a_node32"><a xlink:title=" ">
<polygon fill="white" stroke="#bfbfbf" points="210,-112.5 210,-131.5 323,-131.5 323,-112.5 210,-112.5"/>
<text text-anchor="middle" x="266.5" y="-119.5" font-family="Helvetica,sans-Serif" font-size="10.00">impl/Generators.ipp</text>
</a>
</g>
</g>
<!-- Node50&#45;&gt;Node51 -->
<g id="edge39" class="edge">
<title>Node50&#45;&gt;Node51</title>
<path fill="none" stroke="midnightblue" d="M266.5,-168.08C266.5,-161.01 266.5,-150.86 266.5,-141.99"/>
<polygon fill="midnightblue" stroke="midnightblue" points="270,-141.75 266.5,-131.75 263,-141.75 270,-141.75"/>
</g>
<!-- Node53&#45;&gt;Node22 -->
<g id="edge43" class="edge">
<title>Node53&#45;&gt;Node22</title>
<path fill="none" stroke="midnightblue" d="M915.59,-224.32C899.86,-215.74 875.56,-202.49 857.29,-192.52"/>
<polygon fill="midnightblue" stroke="midnightblue" points="858.82,-189.37 848.37,-187.65 855.47,-195.52 858.82,-189.37"/>
</g>
<!-- Node54 -->
<g id="node35" class="node">
<title>Node54</title>
<g id="a_node35"><a xlink:href="OpenMP__Macros_8hpp.html" target="_top" xlink:title="Contains open MP macros that enable and control multithreading.">
<polygon fill="white" stroke="black" points="1037.5,-168.5 1037.5,-187.5 1189.5,-187.5 1189.5,-168.5 1037.5,-168.5"/>
<text text-anchor="middle" x="1113.5" y="-175.5" font-family="Helvetica,sans-Serif" font-size="10.00">Utility/OpenMP_Macros.hpp</text>
</a>
</g>
</g>
<!-- Node53&#45;&gt;Node54 -->
<g id="edge42" class="edge">
<title>Node53&#45;&gt;Node54</title>
<path fill="none" stroke="midnightblue" d="M960.34,-224.44C991.36,-215.24 1040.83,-200.56 1075.12,-190.39"/>
<polygon fill="midnightblue" stroke="midnightblue" points="1076.21,-193.72 1084.8,-187.52 1074.21,-187.01 1076.21,-193.72"/>
</g>
<!-- Node55 -->
<g id="node36" class="node">
<title>Node55</title>
<g id="a_node36"><a xlink:title=" ">
<polygon fill="white" stroke="#bfbfbf" points="1343.5,-112.5 1343.5,-131.5 1399.5,-131.5 1399.5,-112.5 1343.5,-112.5"/>
<text text-anchor="middle" x="1371.5" y="-119.5" font-family="Helvetica,sans-Serif" font-size="10.00">iomanip</text>
</a>
</g>
</g>
<!-- Node53&#45;&gt;Node55 -->
<g id="edge44" class="edge">
<title>Node53&#45;&gt;Node55</title>
<path fill="none" stroke="midnightblue" d="M942.9,-224.36C964.34,-208.28 1010.15,-174.78 1028.5,-168 1153.95,-121.67 1197.67,-154.6 1333.36,-131.96"/>
<polygon fill="midnightblue" stroke="midnightblue" points="1334.04,-135.4 1343.29,-130.23 1332.84,-128.5 1334.04,-135.4"/>
</g>
<!-- Node56 -->
<g id="node37" class="node">
<title>Node56</title>
<g id="a_node37"><a xlink:title=" ">
<polygon fill="white" stroke="#bfbfbf" points="881.5,-168.5 881.5,-187.5 981.5,-187.5 981.5,-168.5 881.5,-168.5"/>
<text text-anchor="middle" x="931.5" y="-175.5" font-family="Helvetica,sans-Serif" font-size="10.00">impl/Additive.ipp</text>
</a>
</g>
</g>
<!-- Node53&#45;&gt;Node56 -->
<g id="edge45" class="edge">
<title>Node53&#45;&gt;Node56</title>
<path fill="none" stroke="midnightblue" d="M931.5,-224.08C931.5,-217.01 931.5,-206.86 931.5,-197.99"/>
<polygon fill="midnightblue" stroke="midnightblue" points="935,-197.75 931.5,-187.75 928,-197.75 935,-197.75"/>
</g>
<!-- Node58 -->
<g id="node39" class="node">
<title>Node58</title>
<g id="a_node39"><a xlink:href="Mult__Identify_8hpp.html" target="_top" xlink:title="Contains the class mackey::MultIdentify.">
<polygon fill="white" stroke="black" points="806.5,-336.5 806.5,-355.5 906.5,-355.5 906.5,-336.5 806.5,-336.5"/>
<text text-anchor="middle" x="856.5" y="-343.5" font-family="Helvetica,sans-Serif" font-size="10.00">Mult_Identify.hpp</text>
</a>
</g>
</g>
<!-- Node57&#45;&gt;Node58 -->
<g id="edge47" class="edge">
<title>Node57&#45;&gt;Node58</title>
<path fill="none" stroke="midnightblue" d="M856.5,-397.98C856.5,-389.58 856.5,-376.48 856.5,-365.66"/>
<polygon fill="midnightblue" stroke="midnightblue" points="860,-365.51 856.5,-355.51 853,-365.51 860,-365.51"/>
</g>
<!-- Node70 -->
<g id="node48" class="node">
<title>Node70</title>
<g id="a_node48"><a xlink:title=" ">
<polygon fill="white" stroke="#bfbfbf" points="924.5,-336.5 924.5,-355.5 1046.5,-355.5 1046.5,-336.5 924.5,-336.5"/>
<text text-anchor="middle" x="985.5" y="-343.5" font-family="Helvetica,sans-Serif" font-size="10.00">impl/Factorization.ipp</text>
</a>
</g>
</g>
<!-- Node57&#45;&gt;Node70 -->
<g id="edge61" class="edge">
<title>Node57&#45;&gt;Node70</title>
<path fill="none" stroke="midnightblue" d="M874.98,-397.98C896.63,-387.99 932.71,-371.35 957.73,-359.81"/>
<polygon fill="midnightblue" stroke="midnightblue" points="959.44,-362.88 967.05,-355.51 956.51,-356.52 959.44,-362.88"/>
</g>
<!-- Node59 -->
<g id="node40" class="node">
<title>Node59</title>
<g id="a_node40"><a xlink:href="Mult__Graph_8hpp.html" target="_top" xlink:title="Contains the class mackey::MultGraph.">
<polygon fill="white" stroke="black" points="1048.5,-280.5 1048.5,-299.5 1142.5,-299.5 1142.5,-280.5 1048.5,-280.5"/>
<text text-anchor="middle" x="1095.5" y="-287.5" font-family="Helvetica,sans-Serif" font-size="10.00">Mult_Graph.hpp</text>
</a>
</g>
</g>
<!-- Node58&#45;&gt;Node59 -->
<g id="edge48" class="edge">
<title>Node58&#45;&gt;Node59</title>
<path fill="none" stroke="midnightblue" d="M894.37,-336.44C935.98,-327.04 1002.87,-311.93 1047.97,-301.74"/>
<polygon fill="midnightblue" stroke="midnightblue" points="1048.82,-305.13 1057.81,-299.52 1047.28,-298.31 1048.82,-305.13"/>
</g>
<!-- Node69 -->
<g id="node47" class="node">
<title>Node69</title>
<g id="a_node47"><a xlink:title=" ">
<polygon fill="white" stroke="#bfbfbf" points="795.5,-280.5 795.5,-299.5 917.5,-299.5 917.5,-280.5 795.5,-280.5"/>
<text text-anchor="middle" x="856.5" y="-287.5" font-family="Helvetica,sans-Serif" font-size="10.00">impl/Mult_Identify.ipp</text>
</a>
</g>
</g>
<!-- Node58&#45;&gt;Node69 -->
<g id="edge60" class="edge">
<title>Node58&#45;&gt;Node69</title>
<path fill="none" stroke="midnightblue" d="M856.5,-336.08C856.5,-329.01 856.5,-318.86 856.5,-309.99"/>
<polygon fill="midnightblue" stroke="midnightblue" points="860,-309.75 856.5,-299.75 853,-309.75 860,-309.75"/>
</g>
<!-- Node60 -->
<g id="node41" class="node">
<title>Node60</title>
<g id="a_node41"><a xlink:href="Mult__Table_8hpp.html" target="_top" xlink:title="Contains the classes mackey::MultTableData and mackey::MultTable.">
<polygon fill="white" stroke="black" points="1050.5,-224.5 1050.5,-243.5 1140.5,-243.5 1140.5,-224.5 1050.5,-224.5"/>
<text text-anchor="middle" x="1095.5" y="-231.5" font-family="Helvetica,sans-Serif" font-size="10.00">Mult_Table.hpp</text>
</a>
</g>
</g>
<!-- Node59&#45;&gt;Node60 -->
<g id="edge49" class="edge">
<title>Node59&#45;&gt;Node60</title>
<path fill="none" stroke="midnightblue" d="M1095.5,-280.08C1095.5,-273.01 1095.5,-262.86 1095.5,-253.99"/>
<polygon fill="midnightblue" stroke="midnightblue" points="1099,-253.75 1095.5,-243.75 1092,-253.75 1099,-253.75"/>
</g>
<!-- Node62 -->
<g id="node43" class="node">
<title>Node62</title>
<g id="a_node43"><a xlink:href="Graph__Policies_8hpp.html" target="_top" xlink:title="Contains the classes mackey::bicolored_edge_with_id, mackey::MinLength, mackey::MinColorsLength.">
<polygon fill="white" stroke="black" points="1229.5,-224.5 1229.5,-243.5 1371.5,-243.5 1371.5,-224.5 1229.5,-224.5"/>
<text text-anchor="middle" x="1300.5" y="-231.5" font-family="Helvetica,sans-Serif" font-size="10.00">Graph/Graph_Policies.hpp</text>
</a>
</g>
</g>
<!-- Node59&#45;&gt;Node62 -->
<g id="edge54" class="edge">
<title>Node59&#45;&gt;Node62</title>
<path fill="none" stroke="midnightblue" d="M1127.98,-280.44C1163.22,-271.16 1219.6,-256.31 1258.26,-246.13"/>
<polygon fill="midnightblue" stroke="midnightblue" points="1259.39,-249.45 1268.17,-243.52 1257.61,-242.68 1259.39,-249.45"/>
</g>
<!-- Node68 -->
<g id="node46" class="node">
<title>Node68</title>
<g id="a_node46"><a xlink:title=" ">
<polygon fill="white" stroke="#bfbfbf" points="1389.5,-224.5 1389.5,-243.5 1505.5,-243.5 1505.5,-224.5 1389.5,-224.5"/>
<text text-anchor="middle" x="1447.5" y="-231.5" font-family="Helvetica,sans-Serif" font-size="10.00">impl/Mult_Graph.ipp</text>
</a>
</g>
</g>
<!-- Node59&#45;&gt;Node68 -->
<g id="edge59" class="edge">
<title>Node59&#45;&gt;Node68</title>
<path fill="none" stroke="midnightblue" d="M1142.61,-281.77C1204.21,-272.32 1312.44,-255.72 1382,-245.05"/>
<polygon fill="midnightblue" stroke="midnightblue" points="1382.62,-248.49 1391.98,-243.52 1381.56,-241.57 1382.62,-248.49"/>
</g>
<!-- Node60&#45;&gt;Node14 -->
<g id="edge51" class="edge">
<title>Node60&#45;&gt;Node14</title>
<path fill="none" stroke="midnightblue" d="M1050.5,-226.38C986.06,-216.9 867.14,-199.4 793.25,-188.53"/>
<polygon fill="midnightblue" stroke="midnightblue" points="793.54,-185.03 783.13,-187.04 792.52,-191.96 793.54,-185.03"/>
</g>
<!-- Node60&#45;&gt;Node22 -->
<g id="edge52" class="edge">
<title>Node60&#45;&gt;Node22</title>
<path fill="none" stroke="midnightblue" d="M1051.86,-224.49C1008.97,-216.06 941.39,-202.6 873.89,-188.26"/>
<polygon fill="midnightblue" stroke="midnightblue" points="874.44,-184.8 863.93,-186.14 872.98,-191.65 874.44,-184.8"/>
</g>
<!-- Node60&#45;&gt;Node54 -->
<g id="edge50" class="edge">
<title>Node60&#45;&gt;Node54</title>
<path fill="none" stroke="midnightblue" d="M1098.47,-224.08C1100.88,-216.85 1104.36,-206.41 1107.37,-197.4"/>
<polygon fill="midnightblue" stroke="midnightblue" points="1110.74,-198.34 1110.58,-187.75 1104.1,-196.13 1110.74,-198.34"/>
</g>
<!-- Node61 -->
<g id="node42" class="node">
<title>Node61</title>
<g id="a_node42"><a xlink:title=" ">
<polygon fill="white" stroke="#bfbfbf" points="1207.5,-168.5 1207.5,-187.5 1319.5,-187.5 1319.5,-168.5 1207.5,-168.5"/>
<text text-anchor="middle" x="1263.5" y="-175.5" font-family="Helvetica,sans-Serif" font-size="10.00">impl/Mult_Table.ipp</text>
</a>
</g>
</g>
<!-- Node60&#45;&gt;Node61 -->
<g id="edge53" class="edge">
<title>Node60&#45;&gt;Node61</title>
<path fill="none" stroke="midnightblue" d="M1122.12,-224.44C1150.51,-215.32 1195.64,-200.81 1227.25,-190.65"/>
<polygon fill="midnightblue" stroke="midnightblue" points="1228.56,-193.91 1237,-187.52 1226.41,-187.24 1228.56,-193.91"/>
</g>
<!-- Node63 -->
<g id="node44" class="node">
<title>Node63</title>
<g id="a_node44"><a xlink:href="Graph_8hpp.html" target="_top" xlink:title="Contains the classes mackey::Neighborhood, mackey::Graph, mackey::ShortestPaths.">
<polygon fill="white" stroke="red" points="1338,-168.5 1338,-187.5 1405,-187.5 1405,-168.5 1338,-168.5"/>
<text text-anchor="middle" x="1371.5" y="-175.5" font-family="Helvetica,sans-Serif" font-size="10.00">Graph.hpp</text>
</a>
</g>
</g>
<!-- Node62&#45;&gt;Node63 -->
<g id="edge55" class="edge">
<title>Node62&#45;&gt;Node63</title>
<path fill="none" stroke="midnightblue" d="M1311.91,-224.32C1322.61,-216.18 1338.84,-203.84 1351.66,-194.09"/>
<polygon fill="midnightblue" stroke="midnightblue" points="1354.04,-196.67 1359.89,-187.83 1349.81,-191.1 1354.04,-196.67"/>
</g>
<!-- Node67 -->
<g id="node45" class="node">
<title>Node67</title>
<g id="a_node45"><a xlink:title=" ">
<polygon fill="white" stroke="#bfbfbf" points="1423,-168.5 1423,-187.5 1554,-187.5 1554,-168.5 1423,-168.5"/>
<text text-anchor="middle" x="1488.5" y="-175.5" font-family="Helvetica,sans-Serif" font-size="10.00">impl/Graph_Policies.ipp</text>
</a>
</g>
</g>
<!-- Node62&#45;&gt;Node67 -->
<g id="edge58" class="edge">
<title>Node62&#45;&gt;Node67</title>
<path fill="none" stroke="midnightblue" d="M1330.29,-224.44C1362.33,-215.24 1413.43,-200.56 1448.85,-190.39"/>
<polygon fill="midnightblue" stroke="midnightblue" points="1450.21,-193.64 1458.85,-187.52 1448.27,-186.91 1450.21,-193.64"/>
</g>
<!-- Node63&#45;&gt;Node11 -->
<g id="edge56" class="edge">
<title>Node63&#45;&gt;Node11</title>
<path fill="none" stroke="midnightblue" d="M1382.99,-168.11C1397.79,-155.55 1420.27,-131.89 1408.5,-112 1382.16,-67.49 1356.19,-70.32 1306.5,-56 1167.4,-15.9 709.5,-11.48 581.19,-11.04"/>
<polygon fill="midnightblue" stroke="midnightblue" points="581.17,-7.54 571.16,-11.01 581.15,-14.54 581.17,-7.54"/>
</g>
<!-- Node63&#45;&gt;Node55 -->
<g id="edge57" class="edge">
<title>Node63&#45;&gt;Node55</title>
<path fill="none" stroke="midnightblue" d="M1371.5,-168.08C1371.5,-161.01 1371.5,-150.86 1371.5,-141.99"/>
<polygon fill="midnightblue" stroke="midnightblue" points="1375,-141.75 1371.5,-131.75 1368,-141.75 1375,-141.75"/>
</g>
<!-- Node71&#45;&gt;Node59 -->
<g id="edge63" class="edge">
<title>Node71&#45;&gt;Node59</title>
<path fill="none" stroke="midnightblue" d="M1083.22,-392.34C1085.73,-371.62 1090.41,-333.02 1093.21,-309.9"/>
<polygon fill="midnightblue" stroke="midnightblue" points="1096.72,-310.02 1094.45,-299.67 1089.77,-309.18 1096.72,-310.02"/>
</g>
<!-- Node72 -->
<g id="node50" class="node">
<title>Node72</title>
<g id="a_node50"><a xlink:title=" ">
<polygon fill="white" stroke="#bfbfbf" points="1109.5,-336.5 1109.5,-355.5 1255.5,-355.5 1255.5,-336.5 1109.5,-336.5"/>
<text text-anchor="middle" x="1182.5" y="-343.5" font-family="Helvetica,sans-Serif" font-size="10.00">impl/Mult_Connectivity.ipp</text>
</a>
</g>
</g>
<!-- Node71&#45;&gt;Node72 -->
<g id="edge64" class="edge">
<title>Node71&#45;&gt;Node72</title>
<path fill="none" stroke="midnightblue" d="M1105.44,-392.4C1121.63,-382.86 1142.91,-370.32 1159,-360.84"/>
<polygon fill="midnightblue" stroke="midnightblue" points="1160.96,-363.75 1167.8,-355.66 1157.41,-357.72 1160.96,-363.75"/>
</g>
</g>
</svg>
