<?xml version="1.0" encoding="UTF-8" standalone="no"?>
<!DOCTYPE svg PUBLIC "-//W3C//DTD SVG 1.1//EN"
 "http://www.w3.org/Graphics/SVG/1.1/DTD/svg11.dtd">
<!-- Generated by graphviz version 2.43.0 (0)
 -->
<!-- Title: MackeyFunctor.hpp Pages: 1 -->
<svg width="467pt" height="308pt"
 viewBox="0.00 0.00 467.00 308.00" xmlns="http://www.w3.org/2000/svg" xmlns:xlink="http://www.w3.org/1999/xlink">
<g id="graph0" class="graph" transform="scale(1 1) rotate(0) translate(4 304)">
<title>MackeyFunctor.hpp</title>
<polygon fill="white" stroke="transparent" points="-4,4 -4,-304 463,-304 463,4 -4,4"/>
<!-- Node1 -->
<g id="node1" class="node">
<title>Node1</title>
<g id="a_node1"><a xlink:title="Contains the class describing Mackey Functors.">
<polygon fill="#bfbfbf" stroke="black" points="55,-280.5 55,-299.5 165,-299.5 165,-280.5 55,-280.5"/>
<text text-anchor="middle" x="110" y="-287.5" font-family="Helvetica,sans-Serif" font-size="10.00">MackeyFunctor.hpp</text>
</a>
</g>
</g>
<!-- Node2 -->
<g id="node2" class="node">
<title>Node2</title>
<g id="a_node2"><a xlink:title=" ">
<polygon fill="white" stroke="#bfbfbf" points="0,-224.5 0,-243.5 44,-243.5 44,-224.5 0,-224.5"/>
<text text-anchor="middle" x="22" y="-231.5" font-family="Helvetica,sans-Serif" font-size="10.00">string</text>
</a>
</g>
</g>
<!-- Node1&#45;&gt;Node2 -->
<g id="edge1" class="edge">
<title>Node1&#45;&gt;Node2</title>
<path fill="none" stroke="midnightblue" d="M95.86,-280.32C82.13,-271.9 61.06,-258.97 44.94,-249.07"/>
<polygon fill="midnightblue" stroke="midnightblue" points="46.46,-245.9 36.1,-243.65 42.8,-251.87 46.46,-245.9"/>
</g>
<!-- Node3 -->
<g id="node3" class="node">
<title>Node3</title>
<g id="a_node3"><a xlink:title=" ">
<polygon fill="white" stroke="#bfbfbf" points="21,-112.5 21,-131.5 81,-131.5 81,-112.5 21,-112.5"/>
<text text-anchor="middle" x="51" y="-119.5" font-family="Helvetica,sans-Serif" font-size="10.00">iostream</text>
</a>
</g>
</g>
<!-- Node1&#45;&gt;Node3 -->
<g id="edge2" class="edge">
<title>Node1&#45;&gt;Node3</title>
<path fill="none" stroke="midnightblue" d="M106.83,-280.08C97.5,-253.83 70.03,-176.55 57.44,-141.12"/>
<polygon fill="midnightblue" stroke="midnightblue" points="60.69,-139.82 54.05,-131.57 54.1,-142.16 60.69,-139.82"/>
</g>
<!-- Node4 -->
<g id="node4" class="node">
<title>Node4</title>
<g id="a_node4"><a xlink:title=" ">
<polygon fill="white" stroke="#bfbfbf" points="99,-112.5 99,-131.5 155,-131.5 155,-112.5 99,-112.5"/>
<text text-anchor="middle" x="127" y="-119.5" font-family="Helvetica,sans-Serif" font-size="10.00">numeric</text>
</a>
</g>
</g>
<!-- Node1&#45;&gt;Node4 -->
<g id="edge3" class="edge">
<title>Node1&#45;&gt;Node4</title>
<path fill="none" stroke="midnightblue" d="M110.91,-280.08C113.59,-253.95 121.45,-177.21 125.1,-141.58"/>
<polygon fill="midnightblue" stroke="midnightblue" points="128.59,-141.87 126.12,-131.57 121.62,-141.16 128.59,-141.87"/>
</g>
<!-- Node5 -->
<g id="node5" class="node">
<title>Node5</title>
<g id="a_node5"><a xlink:href="Abelian_8hpp.html" target="_top" xlink:title="Contains the methods for finding the automorphisms of finitely generated abelian groups.">
<polygon fill="white" stroke="black" points="138,-224.5 138,-243.5 266,-243.5 266,-224.5 138,-224.5"/>
<text text-anchor="middle" x="202" y="-231.5" font-family="Helvetica,sans-Serif" font-size="10.00">Homology/Abelian.hpp</text>
</a>
</g>
</g>
<!-- Node1&#45;&gt;Node5 -->
<g id="edge4" class="edge">
<title>Node1&#45;&gt;Node5</title>
<path fill="none" stroke="midnightblue" d="M124.78,-280.32C139.27,-271.82 161.57,-258.73 178.49,-248.8"/>
<polygon fill="midnightblue" stroke="midnightblue" points="180.4,-251.74 187.26,-243.65 176.86,-245.7 180.4,-251.74"/>
</g>
<!-- Node15 -->
<g id="node15" class="node">
<title>Node15</title>
<g id="a_node15"><a xlink:title=" ">
<polygon fill="white" stroke="#bfbfbf" points="284,-224.5 284,-243.5 416,-243.5 416,-224.5 284,-224.5"/>
<text text-anchor="middle" x="350" y="-231.5" font-family="Helvetica,sans-Serif" font-size="10.00">impl/MackeyFunctor.ipp</text>
</a>
</g>
</g>
<!-- Node1&#45;&gt;Node15 -->
<g id="edge16" class="edge">
<title>Node1&#45;&gt;Node15</title>
<path fill="none" stroke="midnightblue" d="M148.03,-280.44C189.81,-271.04 256.98,-255.93 302.27,-245.74"/>
<polygon fill="midnightblue" stroke="midnightblue" points="303.16,-249.13 312.15,-243.52 301.62,-242.3 303.16,-249.13"/>
</g>
<!-- Node6 -->
<g id="node6" class="node">
<title>Node6</title>
<g id="a_node6"><a xlink:href="General_8hpp.html" target="_top" xlink:title="Contains general functions and vector overloads independent of everything else.">
<polygon fill="white" stroke="black" points="142.5,-168.5 142.5,-187.5 251.5,-187.5 251.5,-168.5 142.5,-168.5"/>
<text text-anchor="middle" x="197" y="-175.5" font-family="Helvetica,sans-Serif" font-size="10.00">Utility/General.hpp</text>
</a>
</g>
</g>
<!-- Node5&#45;&gt;Node6 -->
<g id="edge5" class="edge">
<title>Node5&#45;&gt;Node6</title>
<path fill="none" stroke="midnightblue" d="M201.17,-224.08C200.52,-217.01 199.58,-206.86 198.76,-197.99"/>
<polygon fill="midnightblue" stroke="midnightblue" points="202.22,-197.39 197.81,-187.75 195.25,-198.03 202.22,-197.39"/>
</g>
<!-- Node14 -->
<g id="node14" class="node">
<title>Node14</title>
<g id="a_node14"><a xlink:title=" ">
<polygon fill="white" stroke="#bfbfbf" points="270,-168.5 270,-187.5 366,-187.5 366,-168.5 270,-168.5"/>
<text text-anchor="middle" x="318" y="-175.5" font-family="Helvetica,sans-Serif" font-size="10.00">impl/Abelian.ipp</text>
</a>
</g>
</g>
<!-- Node5&#45;&gt;Node14 -->
<g id="edge15" class="edge">
<title>Node5&#45;&gt;Node14</title>
<path fill="none" stroke="midnightblue" d="M220.38,-224.44C239.22,-215.68 268.73,-201.94 290.38,-191.86"/>
<polygon fill="midnightblue" stroke="midnightblue" points="292.12,-194.91 299.71,-187.52 289.16,-188.56 292.12,-194.91"/>
</g>
<!-- Node6&#45;&gt;Node3 -->
<g id="edge13" class="edge">
<title>Node6&#45;&gt;Node3</title>
<path fill="none" stroke="midnightblue" d="M173.87,-168.44C149.52,-159.44 110.99,-145.19 83.58,-135.05"/>
<polygon fill="midnightblue" stroke="midnightblue" points="84.62,-131.7 74.03,-131.52 82.19,-138.27 84.62,-131.7"/>
</g>
<!-- Node6&#45;&gt;Node4 -->
<g id="edge12" class="edge">
<title>Node6&#45;&gt;Node4</title>
<path fill="none" stroke="midnightblue" d="M185.75,-168.32C175.2,-160.18 159.2,-147.84 146.56,-138.09"/>
<polygon fill="midnightblue" stroke="midnightblue" points="148.51,-135.17 138.45,-131.83 144.23,-140.71 148.51,-135.17"/>
</g>
<!-- Node7 -->
<g id="node7" class="node">
<title>Node7</title>
<g id="a_node7"><a xlink:title=" ">
<polygon fill="white" stroke="#bfbfbf" points="173.5,-112.5 173.5,-131.5 220.5,-131.5 220.5,-112.5 173.5,-112.5"/>
<text text-anchor="middle" x="197" y="-119.5" font-family="Helvetica,sans-Serif" font-size="10.00">vector</text>
</a>
</g>
</g>
<!-- Node6&#45;&gt;Node7 -->
<g id="edge6" class="edge">
<title>Node6&#45;&gt;Node7</title>
<path fill="none" stroke="midnightblue" d="M197,-168.08C197,-161.01 197,-150.86 197,-141.99"/>
<polygon fill="midnightblue" stroke="midnightblue" points="200.5,-141.75 197,-131.75 193.5,-141.75 200.5,-141.75"/>
</g>
<!-- Node8 -->
<g id="node8" class="node">
<title>Node8</title>
<g id="a_node8"><a xlink:href="Aliases_8hpp.html" target="_top" xlink:title="Contains general template aliases.">
<polygon fill="white" stroke="black" points="239,-112.5 239,-131.5 343,-131.5 343,-112.5 239,-112.5"/>
<text text-anchor="middle" x="291" y="-119.5" font-family="Helvetica,sans-Serif" font-size="10.00">Types/Aliases.hpp</text>
</a>
</g>
</g>
<!-- Node6&#45;&gt;Node8 -->
<g id="edge7" class="edge">
<title>Node6&#45;&gt;Node8</title>
<path fill="none" stroke="midnightblue" d="M212.1,-168.32C226.9,-159.82 249.69,-146.73 266.98,-136.8"/>
<polygon fill="midnightblue" stroke="midnightblue" points="269.01,-139.67 275.93,-131.65 265.52,-133.6 269.01,-139.67"/>
</g>
<!-- Node13 -->
<g id="node13" class="node">
<title>Node13</title>
<g id="a_node13"><a xlink:title=" ">
<polygon fill="white" stroke="#bfbfbf" points="361,-112.5 361,-131.5 459,-131.5 459,-112.5 361,-112.5"/>
<text text-anchor="middle" x="410" y="-119.5" font-family="Helvetica,sans-Serif" font-size="10.00">impl/General.ipp</text>
</a>
</g>
</g>
<!-- Node6&#45;&gt;Node13 -->
<g id="edge14" class="edge">
<title>Node6&#45;&gt;Node13</title>
<path fill="none" stroke="midnightblue" d="M230.75,-168.44C267.52,-159.12 326.45,-144.18 366.62,-134"/>
<polygon fill="midnightblue" stroke="midnightblue" points="367.57,-137.37 376.41,-131.52 365.85,-130.58 367.57,-137.37"/>
</g>
<!-- Node9 -->
<g id="node9" class="node">
<title>Node9</title>
<g id="a_node9"><a xlink:title=" ">
<polygon fill="white" stroke="#bfbfbf" points="155.5,-56.5 155.5,-75.5 232.5,-75.5 232.5,-56.5 155.5,-56.5"/>
<text text-anchor="middle" x="194" y="-63.5" font-family="Helvetica,sans-Serif" font-size="10.00">Eigen/Dense</text>
</a>
</g>
</g>
<!-- Node8&#45;&gt;Node9 -->
<g id="edge8" class="edge">
<title>Node8&#45;&gt;Node9</title>
<path fill="none" stroke="midnightblue" d="M275.42,-112.32C260,-103.74 236.19,-90.49 218.29,-80.52"/>
<polygon fill="midnightblue" stroke="midnightblue" points="219.99,-77.46 209.55,-75.65 216.58,-83.58 219.99,-77.46"/>
</g>
<!-- Node10 -->
<g id="node10" class="node">
<title>Node10</title>
<g id="a_node10"><a xlink:title=" ">
<polygon fill="white" stroke="#bfbfbf" points="251,-56.5 251,-75.5 331,-75.5 331,-56.5 251,-56.5"/>
<text text-anchor="middle" x="291" y="-63.5" font-family="Helvetica,sans-Serif" font-size="10.00">Eigen/Sparse</text>
</a>
</g>
</g>
<!-- Node8&#45;&gt;Node10 -->
<g id="edge9" class="edge">
<title>Node8&#45;&gt;Node10</title>
<path fill="none" stroke="midnightblue" d="M291,-112.08C291,-105.01 291,-94.86 291,-85.99"/>
<polygon fill="midnightblue" stroke="midnightblue" points="294.5,-85.75 291,-75.75 287.5,-85.75 294.5,-85.75"/>
</g>
<!-- Node11 -->
<g id="node11" class="node">
<title>Node11</title>
<g id="a_node11"><a xlink:href="SFINAE_8hpp.html" target="_top" xlink:title="Contains all the SFINAE tricks.">
<polygon fill="white" stroke="black" points="349.5,-56.5 349.5,-75.5 422.5,-75.5 422.5,-56.5 349.5,-56.5"/>
<text text-anchor="middle" x="386" y="-63.5" font-family="Helvetica,sans-Serif" font-size="10.00">SFINAE.hpp</text>
</a>
</g>
</g>
<!-- Node8&#45;&gt;Node11 -->
<g id="edge10" class="edge">
<title>Node8&#45;&gt;Node11</title>
<path fill="none" stroke="midnightblue" d="M306.26,-112.32C321.22,-103.82 344.25,-90.73 361.73,-80.8"/>
<polygon fill="midnightblue" stroke="midnightblue" points="363.81,-83.64 370.77,-75.65 360.35,-77.55 363.81,-83.64"/>
</g>
<!-- Node12 -->
<g id="node12" class="node">
<title>Node12</title>
<g id="a_node12"><a xlink:title=" ">
<polygon fill="white" stroke="#bfbfbf" points="351.5,-0.5 351.5,-19.5 420.5,-19.5 420.5,-0.5 351.5,-0.5"/>
<text text-anchor="middle" x="386" y="-7.5" font-family="Helvetica,sans-Serif" font-size="10.00">type_traits</text>
</a>
</g>
</g>
<!-- Node11&#45;&gt;Node12 -->
<g id="edge11" class="edge">
<title>Node11&#45;&gt;Node12</title>
<path fill="none" stroke="midnightblue" d="M386,-56.08C386,-49.01 386,-38.86 386,-29.99"/>
<polygon fill="midnightblue" stroke="midnightblue" points="389.5,-29.75 386,-19.75 382.5,-29.75 389.5,-29.75"/>
</g>
</g>
</svg>
