<?xml version="1.0" encoding="UTF-8" standalone="no"?>
<!DOCTYPE svg PUBLIC "-//W3C//DTD SVG 1.1//EN"
 "http://www.w3.org/Graphics/SVG/1.1/DTD/svg11.dtd">
<!-- Generated by graphviz version 2.43.0 (0)
 -->
<!-- Title: MackeyFunctor.hpp Pages: 1 -->
<svg width="524pt" height="85pt"
 viewBox="0.00 0.00 524.00 84.92" xmlns="http://www.w3.org/2000/svg" xmlns:xlink="http://www.w3.org/1999/xlink">
<g id="graph0" class="graph" transform="scale(1 1) rotate(0) translate(4 80.92)">
<title>MackeyFunctor.hpp</title>
<polygon fill="white" stroke="transparent" points="-4,4 -4,-80.92 520,-80.92 520,4 -4,4"/>
<!-- Node1 -->
<g id="node1" class="node">
<title>Node1</title>
<g id="a_node1"><a xlink:title="Contains the class describing Mackey Functors.">
<polygon fill="#bfbfbf" stroke="black" points="113,-56.5 113,-75.5 223,-75.5 223,-56.5 113,-56.5"/>
<text text-anchor="middle" x="168" y="-63.5" font-family="Helvetica,sans-Serif" font-size="10.00">MackeyFunctor.hpp</text>
</a>
</g>
</g>
<!-- Node1&#45;&gt;Node1 -->
<g id="edge6" class="edge">
<title>Node1&#45;&gt;Node1</title>
<path fill="none" stroke="midnightblue" d="M199.13,-75.53C220.29,-78.31 241,-75.13 241,-66 241,-58.37 226.53,-54.89 209.42,-55.59"/>
<polygon fill="midnightblue" stroke="midnightblue" points="208.8,-52.13 199.13,-56.47 209.4,-59.1 208.8,-52.13"/>
</g>
<!-- Node2 -->
<g id="node2" class="node">
<title>Node2</title>
<g id="a_node2"><a xlink:title=" ">
<polygon fill="white" stroke="#bfbfbf" points="0,-0.5 0,-19.5 44,-19.5 44,-0.5 0,-0.5"/>
<text text-anchor="middle" x="22" y="-7.5" font-family="Helvetica,sans-Serif" font-size="10.00">string</text>
</a>
</g>
</g>
<!-- Node1&#45;&gt;Node2 -->
<g id="edge1" class="edge">
<title>Node1&#45;&gt;Node2</title>
<path fill="none" stroke="midnightblue" d="M144.87,-56.44C120.23,-47.33 81.08,-32.85 53.61,-22.69"/>
<polygon fill="midnightblue" stroke="midnightblue" points="54.66,-19.35 44.07,-19.16 52.24,-25.91 54.66,-19.35"/>
</g>
<!-- Node3 -->
<g id="node3" class="node">
<title>Node3</title>
<g id="a_node3"><a xlink:title=" ">
<polygon fill="white" stroke="#bfbfbf" points="62,-0.5 62,-19.5 122,-19.5 122,-0.5 62,-0.5"/>
<text text-anchor="middle" x="92" y="-7.5" font-family="Helvetica,sans-Serif" font-size="10.00">iostream</text>
</a>
</g>
</g>
<!-- Node1&#45;&gt;Node3 -->
<g id="edge2" class="edge">
<title>Node1&#45;&gt;Node3</title>
<path fill="none" stroke="midnightblue" d="M155.79,-56.32C144.22,-48.11 126.62,-35.6 112.84,-25.81"/>
<polygon fill="midnightblue" stroke="midnightblue" points="114.61,-22.77 104.43,-19.83 110.56,-28.48 114.61,-22.77"/>
</g>
<!-- Node4 -->
<g id="node4" class="node">
<title>Node4</title>
<g id="a_node4"><a xlink:title=" ">
<polygon fill="white" stroke="#bfbfbf" points="140,-0.5 140,-19.5 196,-19.5 196,-0.5 140,-0.5"/>
<text text-anchor="middle" x="168" y="-7.5" font-family="Helvetica,sans-Serif" font-size="10.00">numeric</text>
</a>
</g>
</g>
<!-- Node1&#45;&gt;Node4 -->
<g id="edge3" class="edge">
<title>Node1&#45;&gt;Node4</title>
<path fill="none" stroke="midnightblue" d="M168,-56.08C168,-49.01 168,-38.86 168,-29.99"/>
<polygon fill="midnightblue" stroke="midnightblue" points="171.5,-29.75 168,-19.75 164.5,-29.75 171.5,-29.75"/>
</g>
<!-- Node5 -->
<g id="node5" class="node">
<title>Node5</title>
<g id="a_node5"><a xlink:title=" ">
<polygon fill="white" stroke="#bfbfbf" points="214,-0.5 214,-19.5 366,-19.5 366,-0.5 214,-0.5"/>
<text text-anchor="middle" x="290" y="-7.5" font-family="Helvetica,sans-Serif" font-size="10.00">Abelian Groups/Abelian.hpp</text>
</a>
</g>
</g>
<!-- Node1&#45;&gt;Node5 -->
<g id="edge4" class="edge">
<title>Node1&#45;&gt;Node5</title>
<path fill="none" stroke="midnightblue" d="M187.33,-56.44C207.32,-47.6 238.74,-33.69 261.56,-23.59"/>
<polygon fill="midnightblue" stroke="midnightblue" points="263.03,-26.76 270.76,-19.52 260.2,-20.36 263.03,-26.76"/>
</g>
<!-- Node6 -->
<g id="node6" class="node">
<title>Node6</title>
<g id="a_node6"><a xlink:title=" ">
<polygon fill="white" stroke="#bfbfbf" points="384,-0.5 384,-19.5 516,-19.5 516,-0.5 384,-0.5"/>
<text text-anchor="middle" x="450" y="-7.5" font-family="Helvetica,sans-Serif" font-size="10.00">impl/MackeyFunctor.ipp</text>
</a>
</g>
</g>
<!-- Node1&#45;&gt;Node6 -->
<g id="edge5" class="edge">
<title>Node1&#45;&gt;Node6</title>
<path fill="none" stroke="midnightblue" d="M212.68,-56.44C262.29,-46.94 342.36,-31.61 395.59,-21.42"/>
<polygon fill="midnightblue" stroke="midnightblue" points="396.36,-24.83 405.53,-19.52 395.05,-17.96 396.36,-24.83"/>
</g>
</g>
</svg>
