<?xml version="1.0" encoding="UTF-8" standalone="no"?>
<!DOCTYPE svg PUBLIC "-//W3C//DTD SVG 1.1//EN"
 "http://www.w3.org/Graphics/SVG/1.1/DTD/svg11.dtd">
<!-- Generated by graphviz version 2.43.0 (0)
 -->
<!-- Title: Mackey.hpp Pages: 1 -->
<svg width="1392pt" height="655pt"
 viewBox="0.00 0.00 1391.50 655.00" xmlns="http://www.w3.org/2000/svg" xmlns:xlink="http://www.w3.org/1999/xlink">
<g id="graph0" class="graph" transform="scale(1 1) rotate(0) translate(4 651)">
<title>Mackey.hpp</title>
<polygon fill="white" stroke="transparent" points="-4,4 -4,-651 1387.5,-651 1387.5,4 -4,4"/>
<!-- Node1 -->
<g id="node1" class="node">
<title>Node1</title>
<g id="a_node1"><a xlink:title="Includes the entire library.">
<polygon fill="#bfbfbf" stroke="black" points="553,-627.5 553,-646.5 627,-646.5 627,-627.5 553,-627.5"/>
<text text-anchor="middle" x="590" y="-634.5" font-family="Helvetica,sans-Serif" font-size="10.00">Mackey.hpp</text>
</a>
</g>
</g>
<!-- Node2 -->
<g id="node2" class="node">
<title>Node2</title>
<g id="a_node2"><a xlink:href="Z__n_8hpp.html" target="_top" xlink:title="Contains the class for Z/N coefficients.">
<polygon fill="white" stroke="black" points="60,-168.5 60,-187.5 176,-187.5 176,-168.5 60,-168.5"/>
<text text-anchor="middle" x="118" y="-175.5" font-family="Helvetica,sans-Serif" font-size="10.00">Coefficients/Z_n.hpp</text>
</a>
</g>
</g>
<!-- Node1&#45;&gt;Node2 -->
<g id="edge1" class="edge">
<title>Node1&#45;&gt;Node2</title>
<path fill="none" stroke="midnightblue" d="M552.63,-634.02C444.33,-627.27 138,-600.6 138,-515 138,-515 138,-515 138,-289 138,-256.44 129.41,-219.32 123.49,-197.59"/>
<polygon fill="midnightblue" stroke="midnightblue" points="126.79,-196.41 120.7,-187.74 120.06,-198.32 126.79,-196.41"/>
</g>
<!-- Node9 -->
<g id="node9" class="node">
<title>Node9</title>
<g id="a_node9"><a xlink:href="C2n_8hpp.html" target="_top" xlink:title="Defines the groups .">
<polygon fill="white" stroke="black" points="176,-224.5 176,-243.5 270,-243.5 270,-224.5 176,-224.5"/>
<text text-anchor="middle" x="223" y="-231.5" font-family="Helvetica,sans-Serif" font-size="10.00">Groups/C2n.hpp</text>
</a>
</g>
</g>
<!-- Node1&#45;&gt;Node9 -->
<g id="edge8" class="edge">
<title>Node1&#45;&gt;Node9</title>
<path fill="none" stroke="midnightblue" d="M552.76,-628.84C473.65,-612.57 296,-569.92 296,-515 296,-515 296,-515 296,-345 296,-305.78 263.38,-269.84 241.75,-250.32"/>
<polygon fill="midnightblue" stroke="midnightblue" points="243.93,-247.58 234.09,-243.67 239.35,-252.87 243.93,-247.58"/>
</g>
<!-- Node20 -->
<g id="node20" class="node">
<title>Node20</title>
<g id="a_node20"><a xlink:href="BC4S2_8hpp.html" target="_top" xlink:title=" ">
<polygon fill="white" stroke="black" points="495.5,-566 495.5,-585 602.5,-585 602.5,-566 495.5,-566"/>
<text text-anchor="middle" x="549" y="-573" font-family="Helvetica,sans-Serif" font-size="10.00">Spaces/BC4S2.hpp</text>
</a>
</g>
</g>
<!-- Node1&#45;&gt;Node20 -->
<g id="edge23" class="edge">
<title>Node1&#45;&gt;Node20</title>
<path fill="none" stroke="midnightblue" d="M584.13,-627.48C578.04,-618.64 568.36,-604.59 560.7,-593.48"/>
<polygon fill="midnightblue" stroke="midnightblue" points="563.42,-591.26 554.86,-585.01 557.66,-595.23 563.42,-591.26"/>
</g>
<!-- Node51 -->
<g id="node35" class="node">
<title>Node51</title>
<g id="a_node35"><a xlink:href="Additive_8hpp.html" target="_top" xlink:title="Contains the class for presenting the additive structure of the RO(G) homology.">
<polygon fill="white" stroke="black" points="570.5,-448.5 570.5,-467.5 735.5,-467.5 735.5,-448.5 570.5,-448.5"/>
<text text-anchor="middle" x="653" y="-455.5" font-family="Helvetica,sans-Serif" font-size="10.00">Mackey_Functors/Additive.hpp</text>
</a>
</g>
</g>
<!-- Node1&#45;&gt;Node51 -->
<g id="edge42" class="edge">
<title>Node1&#45;&gt;Node51</title>
<path fill="none" stroke="midnightblue" d="M594.53,-627.18C599.03,-618.21 605.98,-603.85 611,-591 626.47,-551.39 640.61,-503.52 647.87,-477.7"/>
<polygon fill="midnightblue" stroke="midnightblue" points="651.32,-478.36 650.63,-467.78 644.58,-476.48 651.32,-478.36"/>
</g>
<!-- Node55 -->
<g id="node39" class="node">
<title>Node55</title>
<g id="a_node39"><a xlink:href="Factorization_8hpp.html" target="_top" xlink:title="Contains the multiplication graph and the methods for factorizing generators.">
<polygon fill="white" stroke="black" points="659.5,-566 659.5,-585 824.5,-585 824.5,-566 659.5,-566"/>
<text text-anchor="middle" x="742" y="-573" font-family="Helvetica,sans-Serif" font-size="10.00">Factorization/Factorization.hpp</text>
</a>
</g>
</g>
<!-- Node1&#45;&gt;Node55 -->
<g id="edge47" class="edge">
<title>Node1&#45;&gt;Node55</title>
<path fill="none" stroke="midnightblue" d="M611.78,-627.48C637.74,-617.31 681.31,-600.26 710.83,-588.7"/>
<polygon fill="midnightblue" stroke="midnightblue" points="712.23,-591.91 720.26,-585.01 709.67,-585.4 712.23,-591.91"/>
</g>
<!-- Node65 -->
<g id="node49" class="node">
<title>Node65</title>
<g id="a_node49"><a xlink:href="Mult__Connectivity_8hpp.html" target="_top" xlink:title="Contains methods for the finding the connectivity of the multiplication graph should identification f...">
<polygon fill="white" stroke="black" points="843,-560.5 843,-590.5 947,-590.5 947,-560.5 843,-560.5"/>
<text text-anchor="start" x="851" y="-578.5" font-family="Helvetica,sans-Serif" font-size="10.00">Factorization/Mult</text>
<text text-anchor="middle" x="895" y="-567.5" font-family="Helvetica,sans-Serif" font-size="10.00">_Connectivity.hpp</text>
</a>
</g>
</g>
<!-- Node1&#45;&gt;Node65 -->
<g id="edge62" class="edge">
<title>Node1&#45;&gt;Node65</title>
<path fill="none" stroke="midnightblue" d="M627.32,-629.73C673.32,-621.86 754.11,-607.61 832.72,-591.21"/>
<polygon fill="midnightblue" stroke="midnightblue" points="833.73,-594.58 842.8,-589.09 832.29,-587.72 833.73,-594.58"/>
</g>
<!-- Node3 -->
<g id="node3" class="node">
<title>Node3</title>
<g id="a_node3"><a xlink:title=" ">
<polygon fill="white" stroke="#bfbfbf" points="418,-112.5 418,-131.5 478,-131.5 478,-112.5 418,-112.5"/>
<text text-anchor="middle" x="448" y="-119.5" font-family="Helvetica,sans-Serif" font-size="10.00">iostream</text>
</a>
</g>
</g>
<!-- Node2&#45;&gt;Node3 -->
<g id="edge2" class="edge">
<title>Node2&#45;&gt;Node3</title>
<path fill="none" stroke="midnightblue" d="M176.25,-169.14C234.94,-160.94 328.04,-147.18 408,-132 408.1,-131.98 408.2,-131.96 408.3,-131.94"/>
<polygon fill="midnightblue" stroke="midnightblue" points="408.8,-135.41 417.9,-130 407.41,-128.55 408.8,-135.41"/>
</g>
<!-- Node4 -->
<g id="node4" class="node">
<title>Node4</title>
<g id="a_node4"><a xlink:title=" ">
<polygon fill="white" stroke="#bfbfbf" points="0,-112.5 0,-131.5 42,-131.5 42,-112.5 0,-112.5"/>
<text text-anchor="middle" x="21" y="-119.5" font-family="Helvetica,sans-Serif" font-size="10.00">array</text>
</a>
</g>
</g>
<!-- Node2&#45;&gt;Node4 -->
<g id="edge3" class="edge">
<title>Node2&#45;&gt;Node4</title>
<path fill="none" stroke="midnightblue" d="M102.42,-168.32C87,-159.74 63.19,-146.49 45.29,-136.52"/>
<polygon fill="midnightblue" stroke="midnightblue" points="46.99,-133.46 36.55,-131.65 43.58,-139.58 46.99,-133.46"/>
</g>
<!-- Node5 -->
<g id="node5" class="node">
<title>Node5</title>
<g id="a_node5"><a xlink:title=" ">
<polygon fill="white" stroke="#bfbfbf" points="43.5,-56.5 43.5,-75.5 120.5,-75.5 120.5,-56.5 43.5,-56.5"/>
<text text-anchor="middle" x="82" y="-63.5" font-family="Helvetica,sans-Serif" font-size="10.00">Eigen/Dense</text>
</a>
</g>
</g>
<!-- Node2&#45;&gt;Node5 -->
<g id="edge4" class="edge">
<title>Node2&#45;&gt;Node5</title>
<path fill="none" stroke="midnightblue" d="M110.66,-168.35C103.79,-159.74 93.9,-145.84 89,-132 83.73,-117.1 82.12,-99.18 81.75,-85.94"/>
<polygon fill="midnightblue" stroke="midnightblue" points="85.25,-85.67 81.68,-75.69 78.25,-85.72 85.25,-85.67"/>
</g>
<!-- Node6 -->
<g id="node6" class="node">
<title>Node6</title>
<g id="a_node6"><a xlink:href="SFINAE_8hpp.html" target="_top" xlink:title="Contains all the SFINAE tricks.">
<polygon fill="white" stroke="black" points="357,-56.5 357,-75.5 461,-75.5 461,-56.5 357,-56.5"/>
<text text-anchor="middle" x="409" y="-63.5" font-family="Helvetica,sans-Serif" font-size="10.00">Types/SFINAE.hpp</text>
</a>
</g>
</g>
<!-- Node2&#45;&gt;Node6 -->
<g id="edge5" class="edge">
<title>Node2&#45;&gt;Node6</title>
<path fill="none" stroke="midnightblue" d="M130.85,-168.33C154.44,-152.53 204.01,-119.94 223,-112 262.65,-95.43 309.71,-84.12 346.58,-76.98"/>
<polygon fill="midnightblue" stroke="midnightblue" points="347.51,-80.36 356.69,-75.08 346.21,-73.49 347.51,-80.36"/>
</g>
<!-- Node8 -->
<g id="node8" class="node">
<title>Node8</title>
<g id="a_node8"><a xlink:title=" ">
<polygon fill="white" stroke="#bfbfbf" points="98.5,-112.5 98.5,-131.5 175.5,-131.5 175.5,-112.5 98.5,-112.5"/>
<text text-anchor="middle" x="137" y="-119.5" font-family="Helvetica,sans-Serif" font-size="10.00">impl/Z_n.ipp</text>
</a>
</g>
</g>
<!-- Node2&#45;&gt;Node8 -->
<g id="edge7" class="edge">
<title>Node2&#45;&gt;Node8</title>
<path fill="none" stroke="midnightblue" d="M121.14,-168.08C123.68,-160.85 127.36,-150.41 130.53,-141.4"/>
<polygon fill="midnightblue" stroke="midnightblue" points="133.9,-142.35 133.92,-131.75 127.3,-140.02 133.9,-142.35"/>
</g>
<!-- Node7 -->
<g id="node7" class="node">
<title>Node7</title>
<g id="a_node7"><a xlink:title=" ">
<polygon fill="white" stroke="#bfbfbf" points="374.5,-0.5 374.5,-19.5 443.5,-19.5 443.5,-0.5 374.5,-0.5"/>
<text text-anchor="middle" x="409" y="-7.5" font-family="Helvetica,sans-Serif" font-size="10.00">type_traits</text>
</a>
</g>
</g>
<!-- Node6&#45;&gt;Node7 -->
<g id="edge6" class="edge">
<title>Node6&#45;&gt;Node7</title>
<path fill="none" stroke="midnightblue" d="M409,-56.08C409,-49.01 409,-38.86 409,-29.99"/>
<polygon fill="midnightblue" stroke="midnightblue" points="412.5,-29.75 409,-19.75 405.5,-29.75 412.5,-29.75"/>
</g>
<!-- Node10 -->
<g id="node10" class="node">
<title>Node10</title>
<g id="a_node10"><a xlink:href="Chains_8hpp.html" target="_top" xlink:title="Contains Chains and Junction classes for using chain complexes.">
<polygon fill="white" stroke="black" points="290.5,-168.5 290.5,-187.5 451.5,-187.5 451.5,-168.5 290.5,-168.5"/>
<text text-anchor="middle" x="371" y="-175.5" font-family="Helvetica,sans-Serif" font-size="10.00">Chain_Complexes/Chains.hpp</text>
</a>
</g>
</g>
<!-- Node9&#45;&gt;Node10 -->
<g id="edge9" class="edge">
<title>Node9&#45;&gt;Node10</title>
<path fill="none" stroke="midnightblue" d="M246.45,-224.44C271.13,-215.44 310.19,-201.19 337.98,-191.05"/>
<polygon fill="midnightblue" stroke="midnightblue" points="339.46,-194.23 347.66,-187.52 337.06,-187.66 339.46,-194.23"/>
</g>
<!-- Node14 -->
<g id="node14" class="node">
<title>Node14</title>
<g id="a_node14"><a xlink:href="General_8hpp.html" target="_top" xlink:title="Contains general functions and vector overloads independent of everything else.">
<polygon fill="white" stroke="black" points="514.5,-168.5 514.5,-187.5 623.5,-187.5 623.5,-168.5 514.5,-168.5"/>
<text text-anchor="middle" x="569" y="-175.5" font-family="Helvetica,sans-Serif" font-size="10.00">Utility/General.hpp</text>
</a>
</g>
</g>
<!-- Node9&#45;&gt;Node14 -->
<g id="edge13" class="edge">
<title>Node9&#45;&gt;Node14</title>
<path fill="none" stroke="midnightblue" d="M270.05,-225.42C273.08,-224.94 276.08,-224.46 279,-224 356.55,-211.75 445.8,-197.95 504.58,-188.89"/>
<polygon fill="midnightblue" stroke="midnightblue" points="505.12,-192.35 514.47,-187.37 504.05,-185.43 505.12,-192.35"/>
</g>
<!-- Node19 -->
<g id="node19" class="node">
<title>Node19</title>
<g id="a_node19"><a xlink:title=" ">
<polygon fill="white" stroke="#bfbfbf" points="194,-168.5 194,-187.5 272,-187.5 272,-168.5 194,-168.5"/>
<text text-anchor="middle" x="233" y="-175.5" font-family="Helvetica,sans-Serif" font-size="10.00">impl/C2n.ipp</text>
</a>
</g>
</g>
<!-- Node9&#45;&gt;Node19 -->
<g id="edge22" class="edge">
<title>Node9&#45;&gt;Node19</title>
<path fill="none" stroke="midnightblue" d="M224.65,-224.08C225.98,-216.93 227.88,-206.64 229.54,-197.69"/>
<polygon fill="midnightblue" stroke="midnightblue" points="233,-198.22 231.38,-187.75 226.12,-196.95 233,-198.22"/>
</g>
<!-- Node11 -->
<g id="node11" class="node">
<title>Node11</title>
<g id="a_node11"><a xlink:title=" ">
<polygon fill="white" stroke="#bfbfbf" points="496.5,-112.5 496.5,-131.5 543.5,-131.5 543.5,-112.5 496.5,-112.5"/>
<text text-anchor="middle" x="520" y="-119.5" font-family="Helvetica,sans-Serif" font-size="10.00">vector</text>
</a>
</g>
</g>
<!-- Node10&#45;&gt;Node11 -->
<g id="edge10" class="edge">
<title>Node10&#45;&gt;Node11</title>
<path fill="none" stroke="midnightblue" d="M394.61,-168.44C419.46,-159.44 458.77,-145.19 486.75,-135.05"/>
<polygon fill="midnightblue" stroke="midnightblue" points="488.29,-138.21 496.5,-131.52 485.91,-131.63 488.29,-138.21"/>
</g>
<!-- Node12 -->
<g id="node12" class="node">
<title>Node12</title>
<g id="a_node12"><a xlink:title=" ">
<polygon fill="white" stroke="#bfbfbf" points="342.5,-112.5 342.5,-131.5 399.5,-131.5 399.5,-112.5 342.5,-112.5"/>
<text text-anchor="middle" x="371" y="-119.5" font-family="Helvetica,sans-Serif" font-size="10.00">ostream</text>
</a>
</g>
</g>
<!-- Node10&#45;&gt;Node12 -->
<g id="edge11" class="edge">
<title>Node10&#45;&gt;Node12</title>
<path fill="none" stroke="midnightblue" d="M371,-168.08C371,-161.01 371,-150.86 371,-141.99"/>
<polygon fill="midnightblue" stroke="midnightblue" points="374.5,-141.75 371,-131.75 367.5,-141.75 374.5,-141.75"/>
</g>
<!-- Node13 -->
<g id="node13" class="node">
<title>Node13</title>
<g id="a_node13"><a xlink:title=" ">
<polygon fill="white" stroke="#bfbfbf" points="232,-112.5 232,-131.5 324,-131.5 324,-112.5 232,-112.5"/>
<text text-anchor="middle" x="278" y="-119.5" font-family="Helvetica,sans-Serif" font-size="10.00">impl/Chains.ipp</text>
</a>
</g>
</g>
<!-- Node10&#45;&gt;Node13 -->
<g id="edge12" class="edge">
<title>Node10&#45;&gt;Node13</title>
<path fill="none" stroke="midnightblue" d="M356.06,-168.32C341.41,-159.82 318.87,-146.73 301.76,-136.8"/>
<polygon fill="midnightblue" stroke="midnightblue" points="303.31,-133.65 292.9,-131.65 299.8,-139.7 303.31,-133.65"/>
</g>
<!-- Node14&#45;&gt;Node3 -->
<g id="edge20" class="edge">
<title>Node14&#45;&gt;Node3</title>
<path fill="none" stroke="midnightblue" d="M549.83,-168.44C530.09,-159.64 499.11,-145.81 476.51,-135.72"/>
<polygon fill="midnightblue" stroke="midnightblue" points="477.64,-132.4 467.08,-131.52 474.79,-138.79 477.64,-132.4"/>
</g>
<!-- Node14&#45;&gt;Node11 -->
<g id="edge14" class="edge">
<title>Node14&#45;&gt;Node11</title>
<path fill="none" stroke="midnightblue" d="M560.91,-168.08C553.84,-160.3 543.41,-148.8 534.85,-139.37"/>
<polygon fill="midnightblue" stroke="midnightblue" points="537.25,-136.8 527.94,-131.75 532.07,-141.51 537.25,-136.8"/>
</g>
<!-- Node15 -->
<g id="node15" class="node">
<title>Node15</title>
<g id="a_node15"><a xlink:href="Aliases_8hpp.html" target="_top" xlink:title="Contains general template aliases.">
<polygon fill="white" stroke="black" points="562,-112.5 562,-131.5 666,-131.5 666,-112.5 562,-112.5"/>
<text text-anchor="middle" x="614" y="-119.5" font-family="Helvetica,sans-Serif" font-size="10.00">Types/Aliases.hpp</text>
</a>
</g>
</g>
<!-- Node14&#45;&gt;Node15 -->
<g id="edge15" class="edge">
<title>Node14&#45;&gt;Node15</title>
<path fill="none" stroke="midnightblue" d="M576.43,-168.08C582.85,-160.38 592.31,-149.03 600.12,-139.65"/>
<polygon fill="midnightblue" stroke="midnightblue" points="602.99,-141.67 606.71,-131.75 597.62,-137.19 602.99,-141.67"/>
</g>
<!-- Node17 -->
<g id="node17" class="node">
<title>Node17</title>
<g id="a_node17"><a xlink:title=" ">
<polygon fill="white" stroke="#bfbfbf" points="684,-112.5 684,-131.5 740,-131.5 740,-112.5 684,-112.5"/>
<text text-anchor="middle" x="712" y="-119.5" font-family="Helvetica,sans-Serif" font-size="10.00">numeric</text>
</a>
</g>
</g>
<!-- Node14&#45;&gt;Node17 -->
<g id="edge19" class="edge">
<title>Node14&#45;&gt;Node17</title>
<path fill="none" stroke="midnightblue" d="M591.66,-168.44C615.4,-159.48 652.91,-145.31 679.74,-135.18"/>
<polygon fill="midnightblue" stroke="midnightblue" points="681.33,-138.32 689.45,-131.52 678.86,-131.77 681.33,-138.32"/>
</g>
<!-- Node18 -->
<g id="node18" class="node">
<title>Node18</title>
<g id="a_node18"><a xlink:title=" ">
<polygon fill="white" stroke="#bfbfbf" points="758,-112.5 758,-131.5 856,-131.5 856,-112.5 758,-112.5"/>
<text text-anchor="middle" x="807" y="-119.5" font-family="Helvetica,sans-Serif" font-size="10.00">impl/General.ipp</text>
</a>
</g>
</g>
<!-- Node14&#45;&gt;Node18 -->
<g id="edge21" class="edge">
<title>Node14&#45;&gt;Node18</title>
<path fill="none" stroke="midnightblue" d="M606.71,-168.44C648.14,-159.04 714.76,-143.93 759.67,-133.74"/>
<polygon fill="midnightblue" stroke="midnightblue" points="760.49,-137.14 769.46,-131.52 758.94,-130.32 760.49,-137.14"/>
</g>
<!-- Node15&#45;&gt;Node5 -->
<g id="edge16" class="edge">
<title>Node15&#45;&gt;Node5</title>
<path fill="none" stroke="midnightblue" d="M561.93,-113.25C558.57,-112.81 555.24,-112.39 552,-112 398.68,-93.54 216.49,-77.88 130.95,-70.9"/>
<polygon fill="midnightblue" stroke="midnightblue" points="131.01,-67.39 120.76,-70.07 130.44,-74.37 131.01,-67.39"/>
</g>
<!-- Node15&#45;&gt;Node6 -->
<g id="edge18" class="edge">
<title>Node15&#45;&gt;Node6</title>
<path fill="none" stroke="midnightblue" d="M581.52,-112.44C546.28,-103.16 489.9,-88.31 451.24,-78.13"/>
<polygon fill="midnightblue" stroke="midnightblue" points="451.89,-74.68 441.33,-75.52 450.11,-81.45 451.89,-74.68"/>
</g>
<!-- Node16 -->
<g id="node16" class="node">
<title>Node16</title>
<g id="a_node16"><a xlink:title=" ">
<polygon fill="white" stroke="#bfbfbf" points="861,-56.5 861,-75.5 941,-75.5 941,-56.5 861,-56.5"/>
<text text-anchor="middle" x="901" y="-63.5" font-family="Helvetica,sans-Serif" font-size="10.00">Eigen/Sparse</text>
</a>
</g>
</g>
<!-- Node15&#45;&gt;Node16 -->
<g id="edge17" class="edge">
<title>Node15&#45;&gt;Node16</title>
<path fill="none" stroke="midnightblue" d="M659.48,-112.44C711.6,-102.64 796.76,-86.61 850.79,-76.45"/>
<polygon fill="midnightblue" stroke="midnightblue" points="851.65,-79.85 860.83,-74.56 850.36,-72.97 851.65,-79.85"/>
</g>
<!-- Node21 -->
<g id="node21" class="node">
<title>Node21</title>
<g id="a_node21"><a xlink:href="Space_8hpp.html" target="_top" xlink:title="File containing the class for spaces other than points!">
<polygon fill="white" stroke="black" points="422.5,-504.5 422.5,-523.5 489.5,-523.5 489.5,-504.5 422.5,-504.5"/>
<text text-anchor="middle" x="456" y="-511.5" font-family="Helvetica,sans-Serif" font-size="10.00">Space.hpp</text>
</a>
</g>
</g>
<!-- Node20&#45;&gt;Node21 -->
<g id="edge24" class="edge">
<title>Node20&#45;&gt;Node21</title>
<path fill="none" stroke="midnightblue" d="M535.68,-565.98C520.62,-556.34 495.88,-540.52 477.96,-529.05"/>
<polygon fill="midnightblue" stroke="midnightblue" points="479.61,-525.95 469.3,-523.51 475.84,-531.85 479.61,-525.95"/>
</g>
<!-- Node50 -->
<g id="node34" class="node">
<title>Node50</title>
<g id="a_node34"><a xlink:title=" ">
<polygon fill="white" stroke="#bfbfbf" points="507.5,-504.5 507.5,-523.5 598.5,-523.5 598.5,-504.5 507.5,-504.5"/>
<text text-anchor="middle" x="553" y="-511.5" font-family="Helvetica,sans-Serif" font-size="10.00">impl/BC4S2.ipp</text>
</a>
</g>
</g>
<!-- Node20&#45;&gt;Node50 -->
<g id="edge41" class="edge">
<title>Node20&#45;&gt;Node50</title>
<path fill="none" stroke="midnightblue" d="M549.57,-565.98C550.14,-557.58 551.02,-544.48 551.75,-533.66"/>
<polygon fill="midnightblue" stroke="midnightblue" points="555.25,-533.72 552.43,-523.51 548.26,-533.25 555.25,-533.72"/>
</g>
<!-- Node22 -->
<g id="node22" class="node">
<title>Node22</title>
<g id="a_node22"><a xlink:href="Point_8hpp.html" target="_top" xlink:title="Contains the computations for RO(G) homology of a point.">
<polygon fill="white" stroke="black" points="648,-392.5 648,-411.5 710,-411.5 710,-392.5 648,-392.5"/>
<text text-anchor="middle" x="679" y="-399.5" font-family="Helvetica,sans-Serif" font-size="10.00">Point.hpp</text>
</a>
</g>
</g>
<!-- Node21&#45;&gt;Node22 -->
<g id="edge25" class="edge">
<title>Node21&#45;&gt;Node22</title>
<path fill="none" stroke="midnightblue" d="M452.48,-504.27C447.6,-490.6 440.79,-464.03 454,-448 505.3,-385.76 553.32,-425.95 637.66,-412.02"/>
<polygon fill="midnightblue" stroke="midnightblue" points="638.39,-415.45 647.58,-410.16 637.1,-408.57 638.39,-415.45"/>
</g>
<!-- Node49 -->
<g id="node33" class="node">
<title>Node49</title>
<g id="a_node33"><a xlink:title=" ">
<polygon fill="white" stroke="#bfbfbf" points="463.5,-448.5 463.5,-467.5 552.5,-467.5 552.5,-448.5 463.5,-448.5"/>
<text text-anchor="middle" x="508" y="-455.5" font-family="Helvetica,sans-Serif" font-size="10.00">impl/Space.ipp</text>
</a>
</g>
</g>
<!-- Node21&#45;&gt;Node49 -->
<g id="edge40" class="edge">
<title>Node21&#45;&gt;Node49</title>
<path fill="none" stroke="midnightblue" d="M464.59,-504.08C472.16,-496.22 483.38,-484.57 492.51,-475.08"/>
<polygon fill="midnightblue" stroke="midnightblue" points="495.16,-477.38 499.57,-467.75 490.12,-472.53 495.16,-477.38"/>
</g>
<!-- Node23 -->
<g id="node23" class="node">
<title>Node23</title>
<g id="a_node23"><a xlink:href="Massey_8hpp.html" target="_top" xlink:title="Contains the class and methods for Massey Products.">
<polygon fill="white" stroke="black" points="571.5,-336.5 571.5,-355.5 690.5,-355.5 690.5,-336.5 571.5,-336.5"/>
<text text-anchor="middle" x="631" y="-343.5" font-family="Helvetica,sans-Serif" font-size="10.00">Products/Massey.hpp</text>
</a>
</g>
</g>
<!-- Node22&#45;&gt;Node23 -->
<g id="edge26" class="edge">
<title>Node22&#45;&gt;Node23</title>
<path fill="none" stroke="midnightblue" d="M671.07,-392.08C664.15,-384.3 653.93,-372.8 645.55,-363.37"/>
<polygon fill="midnightblue" stroke="midnightblue" points="648.04,-360.9 638.78,-355.75 642.81,-365.55 648.04,-360.9"/>
</g>
<!-- Node46 -->
<g id="node30" class="node">
<title>Node46</title>
<g id="a_node30"><a xlink:href="Morse_8hpp.html" target="_top" xlink:title="Contains classes for (equivariant) Algebraic Morse Theory.">
<polygon fill="white" stroke="black" points="950,-224.5 950,-243.5 1108,-243.5 1108,-224.5 950,-224.5"/>
<text text-anchor="middle" x="1029" y="-231.5" font-family="Helvetica,sans-Serif" font-size="10.00">Chain_Complexes/Morse.hpp</text>
</a>
</g>
</g>
<!-- Node22&#45;&gt;Node46 -->
<g id="edge35" class="edge">
<title>Node22&#45;&gt;Node46</title>
<path fill="none" stroke="midnightblue" d="M705.82,-392.39C731.02,-384.02 769.61,-370.47 802,-356 878.82,-321.68 965.51,-272.34 1005.94,-248.68"/>
<polygon fill="midnightblue" stroke="midnightblue" points="1007.9,-251.59 1014.74,-243.5 1004.35,-245.55 1007.9,-251.59"/>
</g>
<!-- Node48 -->
<g id="node32" class="node">
<title>Node48</title>
<g id="a_node32"><a xlink:title=" ">
<polygon fill="white" stroke="#bfbfbf" points="709,-336.5 709,-355.5 793,-355.5 793,-336.5 709,-336.5"/>
<text text-anchor="middle" x="751" y="-343.5" font-family="Helvetica,sans-Serif" font-size="10.00">impl/Point.ipp</text>
</a>
</g>
</g>
<!-- Node22&#45;&gt;Node48 -->
<g id="edge39" class="edge">
<title>Node22&#45;&gt;Node48</title>
<path fill="none" stroke="midnightblue" d="M690.57,-392.32C701.42,-384.18 717.88,-371.84 730.88,-362.09"/>
<polygon fill="midnightblue" stroke="midnightblue" points="733.32,-364.63 739.22,-355.83 729.12,-359.03 733.32,-364.63"/>
</g>
<!-- Node24 -->
<g id="node24" class="node">
<title>Node24</title>
<g id="a_node24"><a xlink:href="Green_8hpp.html" target="_top" xlink:title="Contains the class and methods for multiplying generators.">
<polygon fill="white" stroke="black" points="547.5,-280.5 547.5,-299.5 614.5,-299.5 614.5,-280.5 547.5,-280.5"/>
<text text-anchor="middle" x="581" y="-287.5" font-family="Helvetica,sans-Serif" font-size="10.00">Green.hpp</text>
</a>
</g>
</g>
<!-- Node23&#45;&gt;Node24 -->
<g id="edge27" class="edge">
<title>Node23&#45;&gt;Node24</title>
<path fill="none" stroke="midnightblue" d="M622.74,-336.08C615.54,-328.3 604.89,-316.8 596.15,-307.37"/>
<polygon fill="midnightblue" stroke="midnightblue" points="598.47,-304.71 589.1,-299.75 593.33,-309.47 598.47,-304.71"/>
</g>
<!-- Node45 -->
<g id="node29" class="node">
<title>Node45</title>
<g id="a_node29"><a xlink:title=" ">
<polygon fill="white" stroke="#bfbfbf" points="632.5,-280.5 632.5,-299.5 727.5,-299.5 727.5,-280.5 632.5,-280.5"/>
<text text-anchor="middle" x="680" y="-287.5" font-family="Helvetica,sans-Serif" font-size="10.00">impl/Massey.ipp</text>
</a>
</g>
</g>
<!-- Node23&#45;&gt;Node45 -->
<g id="edge34" class="edge">
<title>Node23&#45;&gt;Node45</title>
<path fill="none" stroke="midnightblue" d="M639.09,-336.08C646.16,-328.3 656.59,-316.8 665.15,-307.37"/>
<polygon fill="midnightblue" stroke="midnightblue" points="667.93,-309.51 672.06,-299.75 662.75,-304.8 667.93,-309.51"/>
</g>
<!-- Node25 -->
<g id="node25" class="node">
<title>Node25</title>
<g id="a_node25"><a xlink:href="Levels_8hpp.html" target="_top" xlink:title="Contains the methods for transfering, restricting and Weyl&#45;group&#45;acting.">
<polygon fill="white" stroke="red" points="738,-224.5 738,-243.5 894,-243.5 894,-224.5 738,-224.5"/>
<text text-anchor="middle" x="816" y="-231.5" font-family="Helvetica,sans-Serif" font-size="10.00">Mackey_Functors/Levels.hpp</text>
</a>
</g>
</g>
<!-- Node24&#45;&gt;Node25 -->
<g id="edge28" class="edge">
<title>Node24&#45;&gt;Node25</title>
<path fill="none" stroke="midnightblue" d="M614.67,-281.26C655.14,-271.96 723.3,-256.3 768.95,-245.81"/>
<polygon fill="midnightblue" stroke="midnightblue" points="769.94,-249.18 778.9,-243.52 768.37,-242.35 769.94,-249.18"/>
</g>
<!-- Node33 -->
<g id="node26" class="node">
<title>Node33</title>
<g id="a_node26"><a xlink:href="Identify_8hpp.html" target="_top" xlink:title="Contains the identification classes.">
<polygon fill="white" stroke="red" points="452,-224.5 452,-243.5 612,-243.5 612,-224.5 452,-224.5"/>
<text text-anchor="middle" x="532" y="-231.5" font-family="Helvetica,sans-Serif" font-size="10.00">Mackey_Functors/Identify.hpp</text>
</a>
</g>
</g>
<!-- Node24&#45;&gt;Node33 -->
<g id="edge29" class="edge">
<title>Node24&#45;&gt;Node33</title>
<path fill="none" stroke="midnightblue" d="M572.91,-280.08C565.84,-272.3 555.41,-260.8 546.85,-251.37"/>
<polygon fill="midnightblue" stroke="midnightblue" points="549.25,-248.8 539.94,-243.75 544.07,-253.51 549.25,-248.8"/>
</g>
<!-- Node38 -->
<g id="node27" class="node">
<title>Node38</title>
<g id="a_node27"><a xlink:href="Box_8hpp.html" target="_top" xlink:title="Contains the construction of box products of Chains.">
<polygon fill="white" stroke="red" points="288,-224.5 288,-243.5 434,-243.5 434,-224.5 288,-224.5"/>
<text text-anchor="middle" x="361" y="-231.5" font-family="Helvetica,sans-Serif" font-size="10.00">Chain_Complexes/Box.hpp</text>
</a>
</g>
</g>
<!-- Node24&#45;&gt;Node38 -->
<g id="edge30" class="edge">
<title>Node24&#45;&gt;Node38</title>
<path fill="none" stroke="midnightblue" d="M547.11,-280.68C509.14,-271.36 447.44,-256.22 405.58,-245.94"/>
<polygon fill="midnightblue" stroke="midnightblue" points="406.2,-242.49 395.66,-243.51 404.54,-249.29 406.2,-242.49"/>
</g>
<!-- Node44 -->
<g id="node28" class="node">
<title>Node44</title>
<g id="a_node28"><a xlink:title=" ">
<polygon fill="white" stroke="#bfbfbf" points="630.5,-224.5 630.5,-243.5 719.5,-243.5 719.5,-224.5 630.5,-224.5"/>
<text text-anchor="middle" x="675" y="-231.5" font-family="Helvetica,sans-Serif" font-size="10.00">impl/Green.ipp</text>
</a>
</g>
</g>
<!-- Node24&#45;&gt;Node44 -->
<g id="edge33" class="edge">
<title>Node24&#45;&gt;Node44</title>
<path fill="none" stroke="midnightblue" d="M596.1,-280.32C610.9,-271.82 633.69,-258.73 650.98,-248.8"/>
<polygon fill="midnightblue" stroke="midnightblue" points="653.01,-251.67 659.93,-243.65 649.52,-245.6 653.01,-251.67"/>
</g>
<!-- Node38&#45;&gt;Node10 -->
<g id="edge32" class="edge">
<title>Node38&#45;&gt;Node10</title>
<path fill="none" stroke="midnightblue" d="M362.65,-224.08C363.98,-216.93 365.88,-206.64 367.54,-197.69"/>
<polygon fill="midnightblue" stroke="midnightblue" points="371,-198.22 369.38,-187.75 364.12,-196.95 371,-198.22"/>
</g>
<!-- Node38&#45;&gt;Node14 -->
<g id="edge31" class="edge">
<title>Node38&#45;&gt;Node14</title>
<path fill="none" stroke="midnightblue" d="M393.96,-224.44C429.79,-215.14 487.16,-200.25 526.39,-190.06"/>
<polygon fill="midnightblue" stroke="midnightblue" points="527.4,-193.42 536.2,-187.52 525.64,-186.64 527.4,-193.42"/>
</g>
<!-- Node46&#45;&gt;Node10 -->
<g id="edge36" class="edge">
<title>Node46&#45;&gt;Node10</title>
<path fill="none" stroke="midnightblue" d="M949.96,-226.51C827.19,-216.44 591.38,-197.09 461.8,-186.45"/>
<polygon fill="midnightblue" stroke="midnightblue" points="461.77,-182.94 451.52,-185.61 461.2,-189.91 461.77,-182.94"/>
</g>
<!-- Node46&#45;&gt;Node16 -->
<g id="edge37" class="edge">
<title>Node46&#45;&gt;Node16</title>
<path fill="none" stroke="midnightblue" d="M1045.36,-224.44C1065.66,-212.63 1096.1,-190.25 1083,-168 1054,-118.74 991.35,-91.8 947.71,-78.39"/>
<polygon fill="midnightblue" stroke="midnightblue" points="948.46,-74.97 937.88,-75.51 946.49,-81.68 948.46,-74.97"/>
</g>
<!-- Node47 -->
<g id="node31" class="node">
<title>Node47</title>
<g id="a_node31"><a xlink:title=" ">
<polygon fill="white" stroke="#bfbfbf" points="984.5,-168.5 984.5,-187.5 1073.5,-187.5 1073.5,-168.5 984.5,-168.5"/>
<text text-anchor="middle" x="1029" y="-175.5" font-family="Helvetica,sans-Serif" font-size="10.00">impl/Morse.ipp</text>
</a>
</g>
</g>
<!-- Node46&#45;&gt;Node47 -->
<g id="edge38" class="edge">
<title>Node46&#45;&gt;Node47</title>
<path fill="none" stroke="midnightblue" d="M1029,-224.08C1029,-217.01 1029,-206.86 1029,-197.99"/>
<polygon fill="midnightblue" stroke="midnightblue" points="1032.5,-197.75 1029,-187.75 1025.5,-197.75 1032.5,-197.75"/>
</g>
<!-- Node51&#45;&gt;Node22 -->
<g id="edge44" class="edge">
<title>Node51&#45;&gt;Node22</title>
<path fill="none" stroke="midnightblue" d="M657.29,-448.08C660.85,-440.69 666.02,-429.95 670.42,-420.81"/>
<polygon fill="midnightblue" stroke="midnightblue" points="673.6,-422.28 674.79,-411.75 667.29,-419.24 673.6,-422.28"/>
</g>
<!-- Node52 -->
<g id="node36" class="node">
<title>Node52</title>
<g id="a_node36"><a xlink:href="OpenMP__Macros_8hpp.html" target="_top" xlink:title="Contains open MP macros if multithreading is desired in this library.">
<polygon fill="white" stroke="black" points="728,-392.5 728,-411.5 880,-411.5 880,-392.5 728,-392.5"/>
<text text-anchor="middle" x="804" y="-399.5" font-family="Helvetica,sans-Serif" font-size="10.00">Utility/OpenMP_Macros.hpp</text>
</a>
</g>
</g>
<!-- Node51&#45;&gt;Node52 -->
<g id="edge43" class="edge">
<title>Node51&#45;&gt;Node52</title>
<path fill="none" stroke="midnightblue" d="M676.93,-448.44C702.22,-439.4 742.3,-425.06 770.68,-414.92"/>
<polygon fill="midnightblue" stroke="midnightblue" points="771.95,-418.18 780.19,-411.52 769.59,-411.59 771.95,-418.18"/>
</g>
<!-- Node53 -->
<g id="node37" class="node">
<title>Node53</title>
<g id="a_node37"><a xlink:title=" ">
<polygon fill="white" stroke="#bfbfbf" points="1066,-392.5 1066,-411.5 1122,-411.5 1122,-392.5 1066,-392.5"/>
<text text-anchor="middle" x="1094" y="-399.5" font-family="Helvetica,sans-Serif" font-size="10.00">iomanip</text>
</a>
</g>
</g>
<!-- Node51&#45;&gt;Node53 -->
<g id="edge45" class="edge">
<title>Node51&#45;&gt;Node53</title>
<path fill="none" stroke="midnightblue" d="M734.51,-448.49C835.91,-437.81 1001.47,-420.09 1055.72,-411.9"/>
<polygon fill="midnightblue" stroke="midnightblue" points="1056.49,-415.32 1065.8,-410.25 1055.36,-408.41 1056.49,-415.32"/>
</g>
<!-- Node54 -->
<g id="node38" class="node">
<title>Node54</title>
<g id="a_node38"><a xlink:title=" ">
<polygon fill="white" stroke="#bfbfbf" points="530,-392.5 530,-411.5 630,-411.5 630,-392.5 530,-392.5"/>
<text text-anchor="middle" x="580" y="-399.5" font-family="Helvetica,sans-Serif" font-size="10.00">impl/Additive.ipp</text>
</a>
</g>
</g>
<!-- Node51&#45;&gt;Node54 -->
<g id="edge46" class="edge">
<title>Node51&#45;&gt;Node54</title>
<path fill="none" stroke="midnightblue" d="M641.27,-448.32C630.16,-440.11 613.26,-427.6 600.02,-417.81"/>
<polygon fill="midnightblue" stroke="midnightblue" points="602.06,-414.97 591.94,-411.83 597.9,-420.59 602.06,-414.97"/>
</g>
<!-- Node56 -->
<g id="node40" class="node">
<title>Node56</title>
<g id="a_node40"><a xlink:href="Mult__Graph_8hpp.html" target="_top" xlink:title="Contains the multiplication graph.">
<polygon fill="white" stroke="black" points="835,-504.5 835,-523.5 929,-523.5 929,-504.5 835,-504.5"/>
<text text-anchor="middle" x="882" y="-511.5" font-family="Helvetica,sans-Serif" font-size="10.00">Mult_Graph.hpp</text>
</a>
</g>
</g>
<!-- Node55&#45;&gt;Node56 -->
<g id="edge48" class="edge">
<title>Node55&#45;&gt;Node56</title>
<path fill="none" stroke="midnightblue" d="M762.06,-565.98C785.76,-555.9 825.41,-539.05 852.58,-527.5"/>
<polygon fill="midnightblue" stroke="midnightblue" points="854.14,-530.64 861.98,-523.51 851.41,-524.2 854.14,-530.64"/>
</g>
<!-- Node64 -->
<g id="node48" class="node">
<title>Node64</title>
<g id="a_node48"><a xlink:title=" ">
<polygon fill="white" stroke="#bfbfbf" points="681,-504.5 681,-523.5 803,-523.5 803,-504.5 681,-504.5"/>
<text text-anchor="middle" x="742" y="-511.5" font-family="Helvetica,sans-Serif" font-size="10.00">impl/Factorization.ipp</text>
</a>
</g>
</g>
<!-- Node55&#45;&gt;Node64 -->
<g id="edge61" class="edge">
<title>Node55&#45;&gt;Node64</title>
<path fill="none" stroke="midnightblue" d="M742,-565.98C742,-557.58 742,-544.48 742,-533.66"/>
<polygon fill="midnightblue" stroke="midnightblue" points="745.5,-533.51 742,-523.51 738.5,-533.51 745.5,-533.51"/>
</g>
<!-- Node57 -->
<g id="node41" class="node">
<title>Node57</title>
<g id="a_node41"><a xlink:href="Mult__Table_8hpp.html" target="_top" xlink:title="Contains the class and methods to form the multiplication table.">
<polygon fill="white" stroke="black" points="888,-448.5 888,-467.5 978,-467.5 978,-448.5 888,-448.5"/>
<text text-anchor="middle" x="933" y="-455.5" font-family="Helvetica,sans-Serif" font-size="10.00">Mult_Table.hpp</text>
</a>
</g>
</g>
<!-- Node56&#45;&gt;Node57 -->
<g id="edge49" class="edge">
<title>Node56&#45;&gt;Node57</title>
<path fill="none" stroke="midnightblue" d="M890.42,-504.08C897.85,-496.22 908.85,-484.57 917.81,-475.08"/>
<polygon fill="midnightblue" stroke="midnightblue" points="920.41,-477.42 924.74,-467.75 915.32,-472.62 920.41,-477.42"/>
</g>
<!-- Node59 -->
<g id="node43" class="node">
<title>Node59</title>
<g id="a_node43"><a xlink:href="Graph_8hpp.html" target="_top" xlink:title=" ">
<polygon fill="white" stroke="black" points="1126,-448.5 1126,-467.5 1226,-467.5 1226,-448.5 1126,-448.5"/>
<text text-anchor="middle" x="1176" y="-455.5" font-family="Helvetica,sans-Serif" font-size="10.00">Utility/Graph.hpp</text>
</a>
</g>
</g>
<!-- Node56&#45;&gt;Node59 -->
<g id="edge54" class="edge">
<title>Node56&#45;&gt;Node59</title>
<path fill="none" stroke="midnightblue" d="M928.59,-504.44C980.41,-494.92 1064.13,-479.55 1119.62,-469.36"/>
<polygon fill="midnightblue" stroke="midnightblue" points="1120.43,-472.77 1129.63,-467.52 1119.16,-465.88 1120.43,-472.77"/>
</g>
<!-- Node63 -->
<g id="node47" class="node">
<title>Node63</title>
<g id="a_node47"><a xlink:title=" ">
<polygon fill="white" stroke="#bfbfbf" points="754,-448.5 754,-467.5 870,-467.5 870,-448.5 754,-448.5"/>
<text text-anchor="middle" x="812" y="-455.5" font-family="Helvetica,sans-Serif" font-size="10.00">impl/Mult_Graph.ipp</text>
</a>
</g>
</g>
<!-- Node56&#45;&gt;Node63 -->
<g id="edge60" class="edge">
<title>Node56&#45;&gt;Node63</title>
<path fill="none" stroke="midnightblue" d="M870.75,-504.32C860.2,-496.18 844.2,-483.84 831.56,-474.09"/>
<polygon fill="midnightblue" stroke="midnightblue" points="833.51,-471.17 823.45,-467.83 829.23,-476.71 833.51,-471.17"/>
</g>
<!-- Node57&#45;&gt;Node14 -->
<g id="edge51" class="edge">
<title>Node57&#45;&gt;Node14</title>
<path fill="none" stroke="midnightblue" d="M931.84,-448.38C930.62,-439.32 928.65,-424.66 927,-412 916.1,-328.47 962.35,-283.77 903,-224 866.45,-187.2 720.33,-179.79 633.94,-178.71"/>
<polygon fill="midnightblue" stroke="midnightblue" points="633.74,-175.21 623.71,-178.61 633.67,-182.21 633.74,-175.21"/>
</g>
<!-- Node57&#45;&gt;Node22 -->
<g id="edge52" class="edge">
<title>Node57&#45;&gt;Node22</title>
<path fill="none" stroke="midnightblue" d="M891.54,-448.46C850.51,-439.97 785.63,-426.44 720.47,-412.3"/>
<polygon fill="midnightblue" stroke="midnightblue" points="720.95,-408.82 710.43,-410.12 719.46,-415.66 720.95,-408.82"/>
</g>
<!-- Node57&#45;&gt;Node52 -->
<g id="edge50" class="edge">
<title>Node57&#45;&gt;Node52</title>
<path fill="none" stroke="midnightblue" d="M912.56,-448.44C891.33,-439.56 857.9,-425.56 833.75,-415.45"/>
<polygon fill="midnightblue" stroke="midnightblue" points="834.92,-412.15 824.34,-411.52 832.22,-418.61 834.92,-412.15"/>
</g>
<!-- Node58 -->
<g id="node42" class="node">
<title>Node58</title>
<g id="a_node42"><a xlink:title=" ">
<polygon fill="white" stroke="#bfbfbf" points="936,-392.5 936,-411.5 1048,-411.5 1048,-392.5 936,-392.5"/>
<text text-anchor="middle" x="992" y="-399.5" font-family="Helvetica,sans-Serif" font-size="10.00">impl/Mult_Table.ipp</text>
</a>
</g>
</g>
<!-- Node57&#45;&gt;Node58 -->
<g id="edge53" class="edge">
<title>Node57&#45;&gt;Node58</title>
<path fill="none" stroke="midnightblue" d="M942.48,-448.32C951.2,-440.34 964.34,-428.31 974.9,-418.65"/>
<polygon fill="midnightblue" stroke="midnightblue" points="977.33,-421.17 982.35,-411.83 972.61,-416 977.33,-421.17"/>
</g>
<!-- Node59&#45;&gt;Node11 -->
<g id="edge55" class="edge">
<title>Node59&#45;&gt;Node11</title>
<path fill="none" stroke="midnightblue" d="M1172.49,-448.32C1165.4,-429.96 1150,-385.66 1150,-347 1150,-347 1150,-347 1150,-233 1150,-191.51 1120.9,-184.88 1083,-168 977.9,-121.19 684.81,-150.07 553.59,-131.6"/>
<polygon fill="midnightblue" stroke="midnightblue" points="554.09,-128.14 543.67,-130.06 553.01,-135.05 554.09,-128.14"/>
</g>
<!-- Node59&#45;&gt;Node53 -->
<g id="edge58" class="edge">
<title>Node59&#45;&gt;Node53</title>
<path fill="none" stroke="midnightblue" d="M1162.83,-448.32C1150.15,-439.98 1130.77,-427.21 1115.79,-417.35"/>
<polygon fill="midnightblue" stroke="midnightblue" points="1117.42,-414.23 1107.14,-411.65 1113.57,-420.08 1117.42,-414.23"/>
</g>
<!-- Node60 -->
<g id="node44" class="node">
<title>Node60</title>
<g id="a_node44"><a xlink:title=" ">
<polygon fill="white" stroke="#bfbfbf" points="1178.5,-392.5 1178.5,-411.5 1225.5,-411.5 1225.5,-392.5 1178.5,-392.5"/>
<text text-anchor="middle" x="1202" y="-399.5" font-family="Helvetica,sans-Serif" font-size="10.00">queue</text>
</a>
</g>
</g>
<!-- Node59&#45;&gt;Node60 -->
<g id="edge56" class="edge">
<title>Node59&#45;&gt;Node60</title>
<path fill="none" stroke="midnightblue" d="M1180.29,-448.08C1183.85,-440.69 1189.02,-429.95 1193.42,-420.81"/>
<polygon fill="midnightblue" stroke="midnightblue" points="1196.6,-422.28 1197.79,-411.75 1190.29,-419.24 1196.6,-422.28"/>
</g>
<!-- Node61 -->
<g id="node45" class="node">
<title>Node61</title>
<g id="a_node45"><a xlink:title=" ">
<polygon fill="white" stroke="#bfbfbf" points="1244,-392.5 1244,-411.5 1276,-411.5 1276,-392.5 1244,-392.5"/>
<text text-anchor="middle" x="1260" y="-399.5" font-family="Helvetica,sans-Serif" font-size="10.00">set</text>
</a>
</g>
</g>
<!-- Node59&#45;&gt;Node61 -->
<g id="edge57" class="edge">
<title>Node59&#45;&gt;Node61</title>
<path fill="none" stroke="midnightblue" d="M1189.5,-448.32C1202.6,-439.9 1222.71,-426.97 1238.11,-417.07"/>
<polygon fill="midnightblue" stroke="midnightblue" points="1240.02,-420.01 1246.54,-411.65 1236.23,-414.12 1240.02,-420.01"/>
</g>
<!-- Node62 -->
<g id="node46" class="node">
<title>Node62</title>
<g id="a_node46"><a xlink:title=" ">
<polygon fill="white" stroke="#bfbfbf" points="1294.5,-392.5 1294.5,-411.5 1383.5,-411.5 1383.5,-392.5 1294.5,-392.5"/>
<text text-anchor="middle" x="1339" y="-399.5" font-family="Helvetica,sans-Serif" font-size="10.00">impl/Graph.ipp</text>
</a>
</g>
</g>
<!-- Node59&#45;&gt;Node62 -->
<g id="edge59" class="edge">
<title>Node59&#45;&gt;Node62</title>
<path fill="none" stroke="midnightblue" d="M1201.83,-448.44C1229.25,-439.36 1272.78,-424.94 1303.43,-414.78"/>
<polygon fill="midnightblue" stroke="midnightblue" points="1304.9,-417.98 1313.29,-411.52 1302.7,-411.34 1304.9,-417.98"/>
</g>
<!-- Node65&#45;&gt;Node56 -->
<g id="edge63" class="edge">
<title>Node65&#45;&gt;Node56</title>
<path fill="none" stroke="midnightblue" d="M891.92,-560.4C890.17,-552.38 887.95,-542.23 886.06,-533.57"/>
<polygon fill="midnightblue" stroke="midnightblue" points="889.45,-532.68 883.89,-523.66 882.61,-534.17 889.45,-532.68"/>
</g>
<!-- Node66 -->
<g id="node50" class="node">
<title>Node66</title>
<g id="a_node50"><a xlink:title=" ">
<polygon fill="white" stroke="#bfbfbf" points="947,-504.5 947,-523.5 1093,-523.5 1093,-504.5 947,-504.5"/>
<text text-anchor="middle" x="1020" y="-511.5" font-family="Helvetica,sans-Serif" font-size="10.00">impl/Mult_Connectivity.ipp</text>
</a>
</g>
</g>
<!-- Node65&#45;&gt;Node66 -->
<g id="edge64" class="edge">
<title>Node65&#45;&gt;Node66</title>
<path fill="none" stroke="midnightblue" d="M924.62,-560.4C945.22,-550.59 972.48,-537.62 992.58,-528.05"/>
<polygon fill="midnightblue" stroke="midnightblue" points="994.29,-531.12 1001.81,-523.66 991.28,-524.8 994.29,-531.12"/>
</g>
</g>
</svg>
