<?xml version="1.0" encoding="UTF-8" standalone="no"?>
<!DOCTYPE svg PUBLIC "-//W3C//DTD SVG 1.1//EN"
 "http://www.w3.org/Graphics/SVG/1.1/DTD/svg11.dtd">
<!-- Generated by graphviz version 2.43.0 (0)
 -->
<!-- Title: Massey.hpp Pages: 1 -->
<svg width="361pt" height="308pt"
 viewBox="0.00 0.00 361.23 308.00" xmlns="http://www.w3.org/2000/svg" xmlns:xlink="http://www.w3.org/1999/xlink">
<g id="graph0" class="graph" transform="scale(1 1) rotate(0) translate(4 304)">
<title>Massey.hpp</title>
<polygon fill="white" stroke="transparent" points="-4,4 -4,-304 357.23,-304 357.23,4 -4,4"/>
<!-- Node1 -->
<g id="node1" class="node">
<title>Node1</title>
<g id="a_node1"><a xlink:title="Contains the class and methods for Massey Products.">
<polygon fill="#bfbfbf" stroke="black" points="139.23,-280.5 139.23,-299.5 213.23,-299.5 213.23,-280.5 139.23,-280.5"/>
<text text-anchor="middle" x="176.23" y="-287.5" font-family="Helvetica,sans-Serif" font-size="10.00">Massey.hpp</text>
</a>
</g>
</g>
<!-- Node2 -->
<g id="node2" class="node">
<title>Node2</title>
<g id="a_node2"><a xlink:href="Point_8hpp.html" target="_top" xlink:title="Contains the computations for RO(G) homology of a point.">
<polygon fill="white" stroke="black" points="145.23,-224.5 145.23,-243.5 207.23,-243.5 207.23,-224.5 145.23,-224.5"/>
<text text-anchor="middle" x="176.23" y="-231.5" font-family="Helvetica,sans-Serif" font-size="10.00">Point.hpp</text>
</a>
</g>
</g>
<!-- Node1&#45;&gt;Node2 -->
<g id="edge1" class="edge">
<title>Node1&#45;&gt;Node2</title>
<path fill="none" stroke="midnightblue" d="M176.23,-269.8C176.23,-260.91 176.23,-250.78 176.23,-243.75"/>
<polygon fill="midnightblue" stroke="midnightblue" points="172.73,-270.08 176.23,-280.08 179.73,-270.08 172.73,-270.08"/>
</g>
<!-- Node3 -->
<g id="node3" class="node">
<title>Node3</title>
<g id="a_node3"><a xlink:href="Mult__Table_8hpp.html" target="_top" xlink:title="Contains the class and methods to form the multiplication table.">
<polygon fill="white" stroke="black" points="131.23,-168.5 131.23,-187.5 221.23,-187.5 221.23,-168.5 131.23,-168.5"/>
<text text-anchor="middle" x="176.23" y="-175.5" font-family="Helvetica,sans-Serif" font-size="10.00">Mult_Table.hpp</text>
</a>
</g>
</g>
<!-- Node2&#45;&gt;Node3 -->
<g id="edge2" class="edge">
<title>Node2&#45;&gt;Node3</title>
<path fill="none" stroke="midnightblue" d="M176.23,-213.8C176.23,-204.91 176.23,-194.78 176.23,-187.75"/>
<polygon fill="midnightblue" stroke="midnightblue" points="172.73,-214.08 176.23,-224.08 179.73,-214.08 172.73,-214.08"/>
</g>
<!-- Node9 -->
<g id="node9" class="node">
<title>Node9</title>
<g id="a_node9"><a xlink:href="Additive_8hpp.html" target="_top" xlink:title="Contains the class for presenting the additive structure of the RO(G) homology.">
<polygon fill="white" stroke="black" points="275.23,-56.5 275.23,-75.5 353.23,-75.5 353.23,-56.5 275.23,-56.5"/>
<text text-anchor="middle" x="314.23" y="-63.5" font-family="Helvetica,sans-Serif" font-size="10.00">Additive.hpp</text>
</a>
</g>
</g>
<!-- Node2&#45;&gt;Node9 -->
<g id="edge9" class="edge">
<title>Node2&#45;&gt;Node9</title>
<path fill="none" stroke="midnightblue" d="M196.9,-217.92C207.47,-209.69 220.19,-198.97 230.23,-188 265.12,-149.9 297.25,-96.59 309.25,-75.79"/>
<polygon fill="midnightblue" stroke="midnightblue" points="194.48,-215.36 188.63,-224.19 198.71,-220.94 194.48,-215.36"/>
</g>
<!-- Node10 -->
<g id="node10" class="node">
<title>Node10</title>
<g id="a_node10"><a xlink:href="Space_8hpp.html" target="_top" xlink:title="File containing the class for spaces other than points!">
<polygon fill="white" stroke="black" points="44.73,-168.5 44.73,-187.5 111.73,-187.5 111.73,-168.5 44.73,-168.5"/>
<text text-anchor="middle" x="78.23" y="-175.5" font-family="Helvetica,sans-Serif" font-size="10.00">Space.hpp</text>
</a>
</g>
</g>
<!-- Node2&#45;&gt;Node10 -->
<g id="edge12" class="edge">
<title>Node2&#45;&gt;Node10</title>
<path fill="none" stroke="midnightblue" d="M151.65,-219.45C133.55,-209.48 109.5,-196.23 93.94,-187.65"/>
<polygon fill="midnightblue" stroke="midnightblue" points="150.04,-222.56 160.49,-224.32 153.42,-216.43 150.04,-222.56"/>
</g>
<!-- Node4 -->
<g id="node4" class="node">
<title>Node4</title>
<g id="a_node4"><a xlink:href="Mult__Graph_8hpp.html" target="_top" xlink:title="Contains the multiplication graph.">
<polygon fill="white" stroke="black" points="129.23,-112.5 129.23,-131.5 223.23,-131.5 223.23,-112.5 129.23,-112.5"/>
<text text-anchor="middle" x="176.23" y="-119.5" font-family="Helvetica,sans-Serif" font-size="10.00">Mult_Graph.hpp</text>
</a>
</g>
</g>
<!-- Node3&#45;&gt;Node4 -->
<g id="edge3" class="edge">
<title>Node3&#45;&gt;Node4</title>
<path fill="none" stroke="midnightblue" d="M176.23,-157.8C176.23,-148.91 176.23,-138.78 176.23,-131.75"/>
<polygon fill="midnightblue" stroke="midnightblue" points="172.73,-158.08 176.23,-168.08 179.73,-158.08 172.73,-158.08"/>
</g>
<!-- Node5 -->
<g id="node5" class="node">
<title>Node5</title>
<g id="a_node5"><a xlink:href="Factorization_8hpp.html" target="_top" xlink:title="Contains the multiplication graph and the methods for factorizing generators.">
<polygon fill="white" stroke="black" points="157.23,-56.5 157.23,-75.5 257.23,-75.5 257.23,-56.5 157.23,-56.5"/>
<text text-anchor="middle" x="207.23" y="-63.5" font-family="Helvetica,sans-Serif" font-size="10.00">Factorization.hpp</text>
</a>
</g>
</g>
<!-- Node4&#45;&gt;Node5 -->
<g id="edge4" class="edge">
<title>Node4&#45;&gt;Node5</title>
<path fill="none" stroke="midnightblue" d="M186.41,-103.27C191.71,-94.05 197.95,-83.17 202.21,-75.75"/>
<polygon fill="midnightblue" stroke="midnightblue" points="183.29,-101.67 181.35,-112.08 189.36,-105.15 183.29,-101.67"/>
</g>
<!-- Node8 -->
<g id="node8" class="node">
<title>Node8</title>
<g id="a_node8"><a xlink:href="Mult__Connectivity_8hpp.html" target="_top" xlink:title="Contains methods for the finding the connectivity of the multiplication graph should identification f...">
<polygon fill="white" stroke="black" points="13.73,-56.5 13.73,-75.5 138.73,-75.5 138.73,-56.5 13.73,-56.5"/>
<text text-anchor="middle" x="76.23" y="-63.5" font-family="Helvetica,sans-Serif" font-size="10.00">Mult_Connectivity.hpp</text>
</a>
</g>
</g>
<!-- Node4&#45;&gt;Node8 -->
<g id="edge7" class="edge">
<title>Node4&#45;&gt;Node8</title>
<path fill="none" stroke="midnightblue" d="M151.14,-107.45C132.68,-97.48 108.13,-84.23 92.26,-75.65"/>
<polygon fill="midnightblue" stroke="midnightblue" points="149.7,-110.65 160.16,-112.32 153.03,-104.49 149.7,-110.65"/>
</g>
<!-- Node6 -->
<g id="node6" class="node">
<title>Node6</title>
<g id="a_node6"><a xlink:href="Mackey_8hpp.html" target="_top" xlink:title="Includes the entire library.">
<polygon fill="white" stroke="black" points="109.23,-0.5 109.23,-19.5 183.23,-19.5 183.23,-0.5 109.23,-0.5"/>
<text text-anchor="middle" x="146.23" y="-7.5" font-family="Helvetica,sans-Serif" font-size="10.00">Mackey.hpp</text>
</a>
</g>
</g>
<!-- Node5&#45;&gt;Node6 -->
<g id="edge5" class="edge">
<title>Node5&#45;&gt;Node6</title>
<path fill="none" stroke="midnightblue" d="M189.76,-49.54C178.89,-39.91 165.29,-27.87 156.21,-19.83"/>
<polygon fill="midnightblue" stroke="midnightblue" points="187.62,-52.32 197.43,-56.32 192.26,-47.07 187.62,-52.32"/>
</g>
<!-- Node7 -->
<g id="node7" class="node">
<title>Node7</title>
<g id="a_node7"><a xlink:href="Cerealizer_8hpp.html" target="_top" xlink:title="Contains the methods for serializing the results of our computations (before their interpretation) vi...">
<polygon fill="white" stroke="black" points="217.23,-0.5 217.23,-19.5 303.23,-19.5 303.23,-0.5 217.23,-0.5"/>
<text text-anchor="middle" x="260.23" y="-7.5" font-family="Helvetica,sans-Serif" font-size="10.00">Cerealizer.hpp</text>
</a>
</g>
</g>
<!-- Node5&#45;&gt;Node7 -->
<g id="edge6" class="edge">
<title>Node5&#45;&gt;Node7</title>
<path fill="none" stroke="midnightblue" d="M223.21,-48.72C232.55,-39.2 243.98,-27.56 251.64,-19.75"/>
<polygon fill="midnightblue" stroke="midnightblue" points="220.49,-46.49 215.98,-56.08 225.49,-51.4 220.49,-46.49"/>
</g>
<!-- Node8&#45;&gt;Node6 -->
<g id="edge8" class="edge">
<title>Node8&#45;&gt;Node6</title>
<path fill="none" stroke="midnightblue" d="M95.54,-50.1C108.14,-40.38 124.16,-28.03 134.78,-19.83"/>
<polygon fill="midnightblue" stroke="midnightblue" points="93.26,-47.44 87.48,-56.32 97.53,-52.99 93.26,-47.44"/>
</g>
<!-- Node9&#45;&gt;Node6 -->
<g id="edge10" class="edge">
<title>Node9&#45;&gt;Node6</title>
<path fill="none" stroke="midnightblue" d="M277.84,-53.3C246.19,-43.13 201.06,-28.62 172.73,-19.52"/>
<polygon fill="midnightblue" stroke="midnightblue" points="277.02,-56.72 287.61,-56.44 279.16,-50.05 277.02,-56.72"/>
</g>
<!-- Node9&#45;&gt;Node7 -->
<g id="edge11" class="edge">
<title>Node9&#45;&gt;Node7</title>
<path fill="none" stroke="midnightblue" d="M298.23,-49C288.66,-39.43 276.87,-27.64 268.98,-19.75"/>
<polygon fill="midnightblue" stroke="midnightblue" points="295.77,-51.49 305.31,-56.08 300.72,-46.54 295.77,-51.49"/>
</g>
<!-- Node11 -->
<g id="node11" class="node">
<title>Node11</title>
<g id="a_node11"><a xlink:href="BC4S2_8hpp.html" target="_top" xlink:title=" ">
<polygon fill="white" stroke="black" points="11.73,-112.5 11.73,-131.5 80.73,-131.5 80.73,-112.5 11.73,-112.5"/>
<text text-anchor="middle" x="46.23" y="-119.5" font-family="Helvetica,sans-Serif" font-size="10.00">BC4S2.hpp</text>
</a>
</g>
</g>
<!-- Node10&#45;&gt;Node11 -->
<g id="edge13" class="edge">
<title>Node10&#45;&gt;Node11</title>
<path fill="none" stroke="midnightblue" d="M67.73,-159.27C62.26,-150.05 55.81,-139.17 51.42,-131.75"/>
<polygon fill="midnightblue" stroke="midnightblue" points="64.84,-161.26 72.95,-168.08 70.86,-157.7 64.84,-161.26"/>
</g>
<!-- Node11&#45;&gt;Node6 -->
<g id="edge14" class="edge">
<title>Node11&#45;&gt;Node6</title>
<path fill="none" stroke="midnightblue" d="M25.5,-106.03C9.53,-92.64 -7.93,-72.62 4.23,-56 28.06,-23.45 75.58,-13.86 109.07,-11.33"/>
<polygon fill="midnightblue" stroke="midnightblue" points="23.53,-108.93 33.55,-112.37 27.86,-103.44 23.53,-108.93"/>
</g>
</g>
</svg>
