<?xml version="1.0" encoding="UTF-8" standalone="no"?>
<!DOCTYPE svg PUBLIC "-//W3C//DTD SVG 1.1//EN"
 "http://www.w3.org/Graphics/SVG/1.1/DTD/svg11.dtd">
<!-- Generated by graphviz version 2.43.0 (0)
 -->
<!-- Title: Massey.hpp Pages: 1 -->
<svg width="1085pt" height="476pt"
 viewBox="0.00 0.00 1084.50 476.00" xmlns="http://www.w3.org/2000/svg" xmlns:xlink="http://www.w3.org/1999/xlink">
<g id="graph0" class="graph" transform="scale(1 1) rotate(0) translate(4 472)">
<title>Massey.hpp</title>
<polygon fill="white" stroke="transparent" points="-4,4 -4,-472 1080.5,-472 1080.5,4 -4,4"/>
<!-- Node1 -->
<g id="node1" class="node">
<title>Node1</title>
<g id="a_node1"><a xlink:title="Contains the classes mackey::Massey and mackey::internal::MasseyCompute.">
<polygon fill="#bfbfbf" stroke="black" points="815,-448.5 815,-467.5 889,-467.5 889,-448.5 815,-448.5"/>
<text text-anchor="middle" x="852" y="-455.5" font-family="Helvetica,sans-Serif" font-size="10.00">Massey.hpp</text>
</a>
</g>
</g>
<!-- Node2 -->
<g id="node2" class="node">
<title>Node2</title>
<g id="a_node2"><a xlink:href="Green_8hpp.html" target="_top" xlink:title="Contains the classes mackey::Green, mackey::internal::GreenCompute, mackey::internal::ChainsLevelGen,...">
<polygon fill="white" stroke="black" points="769.5,-392.5 769.5,-411.5 836.5,-411.5 836.5,-392.5 769.5,-392.5"/>
<text text-anchor="middle" x="803" y="-399.5" font-family="Helvetica,sans-Serif" font-size="10.00">Green.hpp</text>
</a>
</g>
</g>
<!-- Node1&#45;&gt;Node2 -->
<g id="edge1" class="edge">
<title>Node1&#45;&gt;Node2</title>
<path fill="none" stroke="midnightblue" d="M843.91,-448.08C836.84,-440.3 826.41,-428.8 817.85,-419.37"/>
<polygon fill="midnightblue" stroke="midnightblue" points="820.25,-416.8 810.94,-411.75 815.07,-421.51 820.25,-416.8"/>
</g>
<!-- Node37 -->
<g id="node37" class="node">
<title>Node37</title>
<g id="a_node37"><a xlink:title=" ">
<polygon fill="white" stroke="#bfbfbf" points="854.5,-392.5 854.5,-411.5 949.5,-411.5 949.5,-392.5 854.5,-392.5"/>
<text text-anchor="middle" x="902" y="-399.5" font-family="Helvetica,sans-Serif" font-size="10.00">impl/Massey.ipp</text>
</a>
</g>
</g>
<!-- Node1&#45;&gt;Node37 -->
<g id="edge47" class="edge">
<title>Node1&#45;&gt;Node37</title>
<path fill="none" stroke="midnightblue" d="M860.26,-448.08C867.46,-440.3 878.11,-428.8 886.85,-419.37"/>
<polygon fill="midnightblue" stroke="midnightblue" points="889.67,-421.47 893.9,-411.75 884.53,-416.71 889.67,-421.47"/>
</g>
<!-- Node3 -->
<g id="node3" class="node">
<title>Node3</title>
<g id="a_node3"><a xlink:href="Levels_8hpp.html" target="_top" xlink:title="Contains the methods for transfering, restricting and Weyl&#45;group&#45;acting.">
<polygon fill="white" stroke="black" points="813,-336.5 813,-355.5 969,-355.5 969,-336.5 813,-336.5"/>
<text text-anchor="middle" x="891" y="-343.5" font-family="Helvetica,sans-Serif" font-size="10.00">Mackey_Functors/Levels.hpp</text>
</a>
</g>
</g>
<!-- Node2&#45;&gt;Node3 -->
<g id="edge2" class="edge">
<title>Node2&#45;&gt;Node3</title>
<path fill="none" stroke="midnightblue" d="M817.14,-392.32C830.87,-383.9 851.94,-370.97 868.06,-361.07"/>
<polygon fill="midnightblue" stroke="midnightblue" points="870.2,-363.87 876.9,-355.65 866.54,-357.9 870.2,-363.87"/>
</g>
<!-- Node24 -->
<g id="node24" class="node">
<title>Node24</title>
<g id="a_node24"><a xlink:href="Identify_8hpp.html" target="_top" xlink:title="Contains the classes mackey::IDGenerators and mackey::internal::IDGeneratorCompute">
<polygon fill="white" stroke="black" points="635,-336.5 635,-355.5 795,-355.5 795,-336.5 635,-336.5"/>
<text text-anchor="middle" x="715" y="-343.5" font-family="Helvetica,sans-Serif" font-size="10.00">Mackey_Functors/Identify.hpp</text>
</a>
</g>
</g>
<!-- Node2&#45;&gt;Node24 -->
<g id="edge27" class="edge">
<title>Node2&#45;&gt;Node24</title>
<path fill="none" stroke="midnightblue" d="M788.86,-392.32C775.13,-383.9 754.06,-370.97 737.94,-361.07"/>
<polygon fill="midnightblue" stroke="midnightblue" points="739.46,-357.9 729.1,-355.65 735.8,-363.87 739.46,-357.9"/>
</g>
<!-- Node29 -->
<g id="node29" class="node">
<title>Node29</title>
<g id="a_node29"><a xlink:href="Box_8hpp.html" target="_top" xlink:title="Contains the class mackey::Tensor.">
<polygon fill="white" stroke="black" points="247,-224.5 247,-243.5 393,-243.5 393,-224.5 247,-224.5"/>
<text text-anchor="middle" x="320" y="-231.5" font-family="Helvetica,sans-Serif" font-size="10.00">Chain_Complexes/Box.hpp</text>
</a>
</g>
</g>
<!-- Node2&#45;&gt;Node29 -->
<g id="edge36" class="edge">
<title>Node2&#45;&gt;Node29</title>
<path fill="none" stroke="midnightblue" d="M769.17,-393.27C733.38,-384.89 675.37,-370.73 626,-356 552.6,-334.1 534.17,-328.33 463,-300 421.75,-283.58 375.13,-261.76 346.66,-248.04"/>
<polygon fill="midnightblue" stroke="midnightblue" points="347.9,-244.76 337.38,-243.55 344.85,-251.06 347.9,-244.76"/>
</g>
<!-- Node36 -->
<g id="node36" class="node">
<title>Node36</title>
<g id="a_node36"><a xlink:title=" ">
<polygon fill="white" stroke="#bfbfbf" points="987.5,-336.5 987.5,-355.5 1076.5,-355.5 1076.5,-336.5 987.5,-336.5"/>
<text text-anchor="middle" x="1032" y="-343.5" font-family="Helvetica,sans-Serif" font-size="10.00">impl/Green.ipp</text>
</a>
</g>
</g>
<!-- Node2&#45;&gt;Node36 -->
<g id="edge46" class="edge">
<title>Node2&#45;&gt;Node36</title>
<path fill="none" stroke="midnightblue" d="M836.79,-393.03C876.26,-383.72 941.78,-368.27 985.9,-357.87"/>
<polygon fill="midnightblue" stroke="midnightblue" points="986.87,-361.24 995.8,-355.54 985.26,-354.42 986.87,-361.24"/>
</g>
<!-- Node4 -->
<g id="node4" class="node">
<title>Node4</title>
<g id="a_node4"><a xlink:href="Homology_8hpp.html" target="_top" xlink:title="Contains the class mackey::Homology.">
<polygon fill="white" stroke="black" points="801,-280.5 801,-299.5 941,-299.5 941,-280.5 801,-280.5"/>
<text text-anchor="middle" x="871" y="-287.5" font-family="Helvetica,sans-Serif" font-size="10.00">Homology/Homology.hpp</text>
</a>
</g>
</g>
<!-- Node3&#45;&gt;Node4 -->
<g id="edge3" class="edge">
<title>Node3&#45;&gt;Node4</title>
<path fill="none" stroke="midnightblue" d="M887.7,-336.08C885.02,-328.85 881.15,-318.41 877.81,-309.4"/>
<polygon fill="midnightblue" stroke="midnightblue" points="881,-307.91 874.24,-299.75 874.43,-310.34 881,-307.91"/>
</g>
<!-- Node23 -->
<g id="node23" class="node">
<title>Node23</title>
<g id="a_node23"><a xlink:title=" ">
<polygon fill="white" stroke="#bfbfbf" points="959.5,-280.5 959.5,-299.5 1050.5,-299.5 1050.5,-280.5 959.5,-280.5"/>
<text text-anchor="middle" x="1005" y="-287.5" font-family="Helvetica,sans-Serif" font-size="10.00">impl/Levels.ipp</text>
</a>
</g>
</g>
<!-- Node3&#45;&gt;Node23 -->
<g id="edge26" class="edge">
<title>Node3&#45;&gt;Node23</title>
<path fill="none" stroke="midnightblue" d="M909.06,-336.44C927.57,-327.68 956.58,-313.94 977.86,-303.86"/>
<polygon fill="midnightblue" stroke="midnightblue" points="979.48,-306.96 987.02,-299.52 976.49,-300.63 979.48,-306.96"/>
</g>
<!-- Node5 -->
<g id="node5" class="node">
<title>Node5</title>
<g id="a_node5"><a xlink:href="Chains_8hpp.html" target="_top" xlink:title="Contains the classes mackey::Arrow, mackey::Chains and mackey::Junction.">
<polygon fill="white" stroke="black" points="381.5,-168.5 381.5,-187.5 542.5,-187.5 542.5,-168.5 381.5,-168.5"/>
<text text-anchor="middle" x="462" y="-175.5" font-family="Helvetica,sans-Serif" font-size="10.00">Chain_Complexes/Chains.hpp</text>
</a>
</g>
</g>
<!-- Node4&#45;&gt;Node5 -->
<g id="edge4" class="edge">
<title>Node4&#45;&gt;Node5</title>
<path fill="none" stroke="midnightblue" d="M843.83,-280.4C802.56,-267.47 721.55,-242.54 652,-224 604.19,-211.25 549.14,-198.41 510.64,-189.73"/>
<polygon fill="midnightblue" stroke="midnightblue" points="511.26,-186.28 500.73,-187.51 509.72,-193.11 511.26,-186.28"/>
</g>
<!-- Node9 -->
<g id="node9" class="node">
<title>Node9</title>
<g id="a_node9"><a xlink:href="General_8hpp.html" target="_top" xlink:title="Contains general functions and vector overloads independent of everything else.">
<polygon fill="white" stroke="black" points="728.5,-168.5 728.5,-187.5 837.5,-187.5 837.5,-168.5 728.5,-168.5"/>
<text text-anchor="middle" x="783" y="-175.5" font-family="Helvetica,sans-Serif" font-size="10.00">Utility/General.hpp</text>
</a>
</g>
</g>
<!-- Node4&#45;&gt;Node9 -->
<g id="edge8" class="edge">
<title>Node4&#45;&gt;Node9</title>
<path fill="none" stroke="midnightblue" d="M864.13,-280.12C854.4,-267.55 835.99,-243.91 820,-224 812.3,-214.42 803.58,-203.8 796.54,-195.28"/>
<polygon fill="midnightblue" stroke="midnightblue" points="799.23,-193.04 790.15,-187.58 793.84,-197.51 799.23,-193.04"/>
</g>
<!-- Node18 -->
<g id="node18" class="node">
<title>Node18</title>
<g id="a_node18"><a xlink:href="Smith_8hpp.html" target="_top" xlink:title="Contains the class mackey::SmithNormalForm.">
<polygon fill="white" stroke="black" points="970,-168.5 970,-187.5 1036,-187.5 1036,-168.5 970,-168.5"/>
<text text-anchor="middle" x="1003" y="-175.5" font-family="Helvetica,sans-Serif" font-size="10.00">Smith.hpp</text>
</a>
</g>
</g>
<!-- Node4&#45;&gt;Node18 -->
<g id="edge18" class="edge">
<title>Node4&#45;&gt;Node18</title>
<path fill="none" stroke="midnightblue" d="M917.79,-280.42C940.62,-273.99 966.81,-262.9 984,-244 995.49,-231.37 1000.05,-212.16 1001.86,-197.9"/>
<polygon fill="midnightblue" stroke="midnightblue" points="1005.36,-198.01 1002.79,-187.74 998.39,-197.37 1005.36,-198.01"/>
</g>
<!-- Node20 -->
<g id="node20" class="node">
<title>Node20</title>
<g id="a_node20"><a xlink:href="Abelian_8hpp.html" target="_top" xlink:title="Contains the class mackey::AbelianGroup.">
<polygon fill="white" stroke="black" points="737,-224.5 737,-243.5 811,-243.5 811,-224.5 737,-224.5"/>
<text text-anchor="middle" x="774" y="-231.5" font-family="Helvetica,sans-Serif" font-size="10.00">Abelian.hpp</text>
</a>
</g>
</g>
<!-- Node4&#45;&gt;Node20 -->
<g id="edge22" class="edge">
<title>Node4&#45;&gt;Node20</title>
<path fill="none" stroke="midnightblue" d="M855.42,-280.32C840,-271.74 816.19,-258.49 798.29,-248.52"/>
<polygon fill="midnightblue" stroke="midnightblue" points="799.99,-245.46 789.55,-243.65 796.58,-251.58 799.99,-245.46"/>
</g>
<!-- Node22 -->
<g id="node22" class="node">
<title>Node22</title>
<g id="a_node22"><a xlink:title=" ">
<polygon fill="white" stroke="#bfbfbf" points="867,-224.5 867,-243.5 975,-243.5 975,-224.5 867,-224.5"/>
<text text-anchor="middle" x="921" y="-231.5" font-family="Helvetica,sans-Serif" font-size="10.00">impl/Homology.ipp</text>
</a>
</g>
</g>
<!-- Node4&#45;&gt;Node22 -->
<g id="edge25" class="edge">
<title>Node4&#45;&gt;Node22</title>
<path fill="none" stroke="midnightblue" d="M879.26,-280.08C886.46,-272.3 897.11,-260.8 905.85,-251.37"/>
<polygon fill="midnightblue" stroke="midnightblue" points="908.67,-253.47 912.9,-243.75 903.53,-248.71 908.67,-253.47"/>
</g>
<!-- Node6 -->
<g id="node6" class="node">
<title>Node6</title>
<g id="a_node6"><a xlink:title=" ">
<polygon fill="white" stroke="#bfbfbf" points="528.5,-112.5 528.5,-131.5 575.5,-131.5 575.5,-112.5 528.5,-112.5"/>
<text text-anchor="middle" x="552" y="-119.5" font-family="Helvetica,sans-Serif" font-size="10.00">vector</text>
</a>
</g>
</g>
<!-- Node5&#45;&gt;Node6 -->
<g id="edge5" class="edge">
<title>Node5&#45;&gt;Node6</title>
<path fill="none" stroke="midnightblue" d="M476.46,-168.32C490.5,-159.9 512.05,-146.97 528.54,-137.07"/>
<polygon fill="midnightblue" stroke="midnightblue" points="530.8,-139.8 537.58,-131.65 527.2,-133.8 530.8,-139.8"/>
</g>
<!-- Node7 -->
<g id="node7" class="node">
<title>Node7</title>
<g id="a_node7"><a xlink:title=" ">
<polygon fill="white" stroke="#bfbfbf" points="341.5,-112.5 341.5,-131.5 398.5,-131.5 398.5,-112.5 341.5,-112.5"/>
<text text-anchor="middle" x="370" y="-119.5" font-family="Helvetica,sans-Serif" font-size="10.00">ostream</text>
</a>
</g>
</g>
<!-- Node5&#45;&gt;Node7 -->
<g id="edge6" class="edge">
<title>Node5&#45;&gt;Node7</title>
<path fill="none" stroke="midnightblue" d="M447.22,-168.32C432.73,-159.82 410.43,-146.73 393.51,-136.8"/>
<polygon fill="midnightblue" stroke="midnightblue" points="395.14,-133.7 384.74,-131.65 391.6,-139.74 395.14,-133.7"/>
</g>
<!-- Node8 -->
<g id="node8" class="node">
<title>Node8</title>
<g id="a_node8"><a xlink:title=" ">
<polygon fill="white" stroke="#bfbfbf" points="417,-112.5 417,-131.5 509,-131.5 509,-112.5 417,-112.5"/>
<text text-anchor="middle" x="463" y="-119.5" font-family="Helvetica,sans-Serif" font-size="10.00">impl/Chains.ipp</text>
</a>
</g>
</g>
<!-- Node5&#45;&gt;Node8 -->
<g id="edge7" class="edge">
<title>Node5&#45;&gt;Node8</title>
<path fill="none" stroke="midnightblue" d="M462.17,-168.08C462.3,-161.01 462.48,-150.86 462.65,-141.99"/>
<polygon fill="midnightblue" stroke="midnightblue" points="466.15,-141.81 462.84,-131.75 459.15,-141.68 466.15,-141.81"/>
</g>
<!-- Node9&#45;&gt;Node6 -->
<g id="edge9" class="edge">
<title>Node9&#45;&gt;Node6</title>
<path fill="none" stroke="midnightblue" d="M743.06,-168.45C705.02,-160.19 645.93,-147.05 585.47,-132.04"/>
<polygon fill="midnightblue" stroke="midnightblue" points="586.31,-128.64 575.76,-129.61 584.62,-135.43 586.31,-128.64"/>
</g>
<!-- Node10 -->
<g id="node10" class="node">
<title>Node10</title>
<g id="a_node10"><a xlink:href="Aliases_8hpp.html" target="_top" xlink:title="Contains general template aliases.">
<polygon fill="white" stroke="black" points="862,-112.5 862,-131.5 966,-131.5 966,-112.5 862,-112.5"/>
<text text-anchor="middle" x="914" y="-119.5" font-family="Helvetica,sans-Serif" font-size="10.00">Types/Aliases.hpp</text>
</a>
</g>
</g>
<!-- Node9&#45;&gt;Node10 -->
<g id="edge10" class="edge">
<title>Node9&#45;&gt;Node10</title>
<path fill="none" stroke="midnightblue" d="M803.76,-168.44C825.32,-159.56 859.26,-145.56 883.79,-135.45"/>
<polygon fill="midnightblue" stroke="midnightblue" points="885.43,-138.56 893.34,-131.52 882.76,-132.09 885.43,-138.56"/>
</g>
<!-- Node15 -->
<g id="node15" class="node">
<title>Node15</title>
<g id="a_node15"><a xlink:title=" ">
<polygon fill="white" stroke="#bfbfbf" points="672,-112.5 672,-131.5 728,-131.5 728,-112.5 672,-112.5"/>
<text text-anchor="middle" x="700" y="-119.5" font-family="Helvetica,sans-Serif" font-size="10.00">numeric</text>
</a>
</g>
</g>
<!-- Node9&#45;&gt;Node15 -->
<g id="edge15" class="edge">
<title>Node9&#45;&gt;Node15</title>
<path fill="none" stroke="midnightblue" d="M769.66,-168.32C756.84,-159.98 737.22,-147.21 722.06,-137.35"/>
<polygon fill="midnightblue" stroke="midnightblue" points="723.59,-134.17 713.3,-131.65 719.78,-140.04 723.59,-134.17"/>
</g>
<!-- Node16 -->
<g id="node16" class="node">
<title>Node16</title>
<g id="a_node16"><a xlink:title=" ">
<polygon fill="white" stroke="#bfbfbf" points="594,-112.5 594,-131.5 654,-131.5 654,-112.5 594,-112.5"/>
<text text-anchor="middle" x="624" y="-119.5" font-family="Helvetica,sans-Serif" font-size="10.00">iostream</text>
</a>
</g>
</g>
<!-- Node9&#45;&gt;Node16 -->
<g id="edge16" class="edge">
<title>Node9&#45;&gt;Node16</title>
<path fill="none" stroke="midnightblue" d="M757.81,-168.44C731.06,-159.36 688.6,-144.94 658.69,-134.78"/>
<polygon fill="midnightblue" stroke="midnightblue" points="659.67,-131.42 649.08,-131.52 657.42,-138.05 659.67,-131.42"/>
</g>
<!-- Node17 -->
<g id="node17" class="node">
<title>Node17</title>
<g id="a_node17"><a xlink:title=" ">
<polygon fill="white" stroke="#bfbfbf" points="746,-112.5 746,-131.5 844,-131.5 844,-112.5 746,-112.5"/>
<text text-anchor="middle" x="795" y="-119.5" font-family="Helvetica,sans-Serif" font-size="10.00">impl/General.ipp</text>
</a>
</g>
</g>
<!-- Node9&#45;&gt;Node17 -->
<g id="edge17" class="edge">
<title>Node9&#45;&gt;Node17</title>
<path fill="none" stroke="midnightblue" d="M784.98,-168.08C786.57,-160.93 788.86,-150.64 790.85,-141.69"/>
<polygon fill="midnightblue" stroke="midnightblue" points="794.3,-142.27 793.06,-131.75 787.47,-140.75 794.3,-142.27"/>
</g>
<!-- Node11 -->
<g id="node11" class="node">
<title>Node11</title>
<g id="a_node11"><a xlink:title=" ">
<polygon fill="white" stroke="#bfbfbf" points="778.5,-56.5 778.5,-75.5 855.5,-75.5 855.5,-56.5 778.5,-56.5"/>
<text text-anchor="middle" x="817" y="-63.5" font-family="Helvetica,sans-Serif" font-size="10.00">Eigen/Dense</text>
</a>
</g>
</g>
<!-- Node10&#45;&gt;Node11 -->
<g id="edge11" class="edge">
<title>Node10&#45;&gt;Node11</title>
<path fill="none" stroke="midnightblue" d="M898.42,-112.32C883,-103.74 859.19,-90.49 841.29,-80.52"/>
<polygon fill="midnightblue" stroke="midnightblue" points="842.99,-77.46 832.55,-75.65 839.58,-83.58 842.99,-77.46"/>
</g>
<!-- Node12 -->
<g id="node12" class="node">
<title>Node12</title>
<g id="a_node12"><a xlink:title=" ">
<polygon fill="white" stroke="#bfbfbf" points="874,-56.5 874,-75.5 954,-75.5 954,-56.5 874,-56.5"/>
<text text-anchor="middle" x="914" y="-63.5" font-family="Helvetica,sans-Serif" font-size="10.00">Eigen/Sparse</text>
</a>
</g>
</g>
<!-- Node10&#45;&gt;Node12 -->
<g id="edge12" class="edge">
<title>Node10&#45;&gt;Node12</title>
<path fill="none" stroke="midnightblue" d="M914,-112.08C914,-105.01 914,-94.86 914,-85.99"/>
<polygon fill="midnightblue" stroke="midnightblue" points="917.5,-85.75 914,-75.75 910.5,-85.75 917.5,-85.75"/>
</g>
<!-- Node13 -->
<g id="node13" class="node">
<title>Node13</title>
<g id="a_node13"><a xlink:href="SFINAE_8hpp.html" target="_top" xlink:title="Contains all the SFINAE tricks.">
<polygon fill="white" stroke="black" points="972.5,-56.5 972.5,-75.5 1045.5,-75.5 1045.5,-56.5 972.5,-56.5"/>
<text text-anchor="middle" x="1009" y="-63.5" font-family="Helvetica,sans-Serif" font-size="10.00">SFINAE.hpp</text>
</a>
</g>
</g>
<!-- Node10&#45;&gt;Node13 -->
<g id="edge13" class="edge">
<title>Node10&#45;&gt;Node13</title>
<path fill="none" stroke="midnightblue" d="M929.26,-112.32C944.22,-103.82 967.25,-90.73 984.73,-80.8"/>
<polygon fill="midnightblue" stroke="midnightblue" points="986.81,-83.64 993.77,-75.65 983.35,-77.55 986.81,-83.64"/>
</g>
<!-- Node14 -->
<g id="node14" class="node">
<title>Node14</title>
<g id="a_node14"><a xlink:title=" ">
<polygon fill="white" stroke="#bfbfbf" points="974.5,-0.5 974.5,-19.5 1043.5,-19.5 1043.5,-0.5 974.5,-0.5"/>
<text text-anchor="middle" x="1009" y="-7.5" font-family="Helvetica,sans-Serif" font-size="10.00">type_traits</text>
</a>
</g>
</g>
<!-- Node13&#45;&gt;Node14 -->
<g id="edge14" class="edge">
<title>Node13&#45;&gt;Node14</title>
<path fill="none" stroke="midnightblue" d="M1009,-56.08C1009,-49.01 1009,-38.86 1009,-29.99"/>
<polygon fill="midnightblue" stroke="midnightblue" points="1012.5,-29.75 1009,-19.75 1005.5,-29.75 1012.5,-29.75"/>
</g>
<!-- Node18&#45;&gt;Node6 -->
<g id="edge19" class="edge">
<title>Node18&#45;&gt;Node6</title>
<path fill="none" stroke="midnightblue" d="M969.59,-169.48C966.7,-168.94 963.8,-168.43 961,-168 798.33,-142.87 751.94,-161.44 585.76,-131.81"/>
<polygon fill="midnightblue" stroke="midnightblue" points="586.15,-128.32 575.68,-129.98 584.9,-135.21 586.15,-128.32"/>
</g>
<!-- Node18&#45;&gt;Node10 -->
<g id="edge20" class="edge">
<title>Node18&#45;&gt;Node10</title>
<path fill="none" stroke="midnightblue" d="M988.7,-168.32C974.82,-159.9 953.51,-146.97 937.2,-137.07"/>
<polygon fill="midnightblue" stroke="midnightblue" points="938.63,-133.85 928.26,-131.65 935,-139.83 938.63,-133.85"/>
</g>
<!-- Node19 -->
<g id="node19" class="node">
<title>Node19</title>
<g id="a_node19"><a xlink:title=" ">
<polygon fill="white" stroke="#bfbfbf" points="984,-112.5 984,-131.5 1072,-131.5 1072,-112.5 984,-112.5"/>
<text text-anchor="middle" x="1028" y="-119.5" font-family="Helvetica,sans-Serif" font-size="10.00">impl/Smith.ipp</text>
</a>
</g>
</g>
<!-- Node18&#45;&gt;Node19 -->
<g id="edge21" class="edge">
<title>Node18&#45;&gt;Node19</title>
<path fill="none" stroke="midnightblue" d="M1007.13,-168.08C1010.51,-160.77 1015.42,-150.18 1019.62,-141.1"/>
<polygon fill="midnightblue" stroke="midnightblue" points="1022.92,-142.3 1023.95,-131.75 1016.57,-139.36 1022.92,-142.3"/>
</g>
<!-- Node20&#45;&gt;Node9 -->
<g id="edge23" class="edge">
<title>Node20&#45;&gt;Node9</title>
<path fill="none" stroke="midnightblue" d="M775.49,-224.08C776.68,-216.93 778.39,-206.64 779.88,-197.69"/>
<polygon fill="midnightblue" stroke="midnightblue" points="783.35,-198.19 781.54,-187.75 776.45,-197.04 783.35,-198.19"/>
</g>
<!-- Node21 -->
<g id="node21" class="node">
<title>Node21</title>
<g id="a_node21"><a xlink:title=" ">
<polygon fill="white" stroke="#bfbfbf" points="856,-168.5 856,-187.5 952,-187.5 952,-168.5 856,-168.5"/>
<text text-anchor="middle" x="904" y="-175.5" font-family="Helvetica,sans-Serif" font-size="10.00">impl/Abelian.ipp</text>
</a>
</g>
</g>
<!-- Node20&#45;&gt;Node21 -->
<g id="edge24" class="edge">
<title>Node20&#45;&gt;Node21</title>
<path fill="none" stroke="midnightblue" d="M794.6,-224.44C815.99,-215.56 849.68,-201.56 874.02,-191.45"/>
<polygon fill="midnightblue" stroke="midnightblue" points="875.61,-194.58 883.5,-187.52 872.92,-188.12 875.61,-194.58"/>
</g>
<!-- Node24&#45;&gt;Node4 -->
<g id="edge28" class="edge">
<title>Node24&#45;&gt;Node4</title>
<path fill="none" stroke="midnightblue" d="M739.72,-336.44C765.85,-327.4 807.26,-313.06 836.58,-302.92"/>
<polygon fill="midnightblue" stroke="midnightblue" points="838.09,-306.1 846.4,-299.52 835.8,-299.48 838.09,-306.1"/>
</g>
<!-- Node25 -->
<g id="node25" class="node">
<title>Node25</title>
<g id="a_node25"><a xlink:href="MackeyFunctor_8hpp.html" target="_top" xlink:title="Contains the class mackey::MackeyFunctor.">
<polygon fill="white" stroke="black" points="472.5,-280.5 472.5,-299.5 669.5,-299.5 669.5,-280.5 472.5,-280.5"/>
<text text-anchor="middle" x="571" y="-287.5" font-family="Helvetica,sans-Serif" font-size="10.00">Mackey_Functors/MackeyFunctor.hpp</text>
</a>
</g>
</g>
<!-- Node24&#45;&gt;Node25 -->
<g id="edge29" class="edge">
<title>Node24&#45;&gt;Node25</title>
<path fill="none" stroke="midnightblue" d="M692.18,-336.44C668.17,-327.44 630.17,-313.19 603.13,-303.05"/>
<polygon fill="midnightblue" stroke="midnightblue" points="604.3,-299.75 593.71,-299.52 601.84,-306.3 604.3,-299.75"/>
</g>
<!-- Node28 -->
<g id="node28" class="node">
<title>Node28</title>
<g id="a_node28"><a xlink:title=" ">
<polygon fill="white" stroke="#bfbfbf" points="687.5,-280.5 687.5,-299.5 782.5,-299.5 782.5,-280.5 687.5,-280.5"/>
<text text-anchor="middle" x="735" y="-287.5" font-family="Helvetica,sans-Serif" font-size="10.00">impl/Identify.ipp</text>
</a>
</g>
</g>
<!-- Node24&#45;&gt;Node28 -->
<g id="edge35" class="edge">
<title>Node24&#45;&gt;Node28</title>
<path fill="none" stroke="midnightblue" d="M718.3,-336.08C720.98,-328.85 724.85,-318.41 728.19,-309.4"/>
<polygon fill="midnightblue" stroke="midnightblue" points="731.57,-310.34 731.76,-299.75 725,-307.91 731.57,-310.34"/>
</g>
<!-- Node25&#45;&gt;Node15 -->
<g id="edge32" class="edge">
<title>Node25&#45;&gt;Node15</title>
<path fill="none" stroke="midnightblue" d="M595.91,-280.39C613.65,-273.13 636.93,-261.16 652,-244 678.5,-213.83 691.34,-167.24 696.71,-141.56"/>
<polygon fill="midnightblue" stroke="midnightblue" points="700.17,-142.14 698.63,-131.66 693.29,-140.81 700.17,-142.14"/>
</g>
<!-- Node25&#45;&gt;Node16 -->
<g id="edge31" class="edge">
<title>Node25&#45;&gt;Node16</title>
<path fill="none" stroke="midnightblue" d="M573.47,-280.13C576.99,-267.59 583.72,-243.96 590,-224 599.17,-194.83 610.67,-161.22 617.67,-141.07"/>
<polygon fill="midnightblue" stroke="midnightblue" points="620.98,-142.2 620.97,-131.61 614.37,-139.9 620.98,-142.2"/>
</g>
<!-- Node25&#45;&gt;Node20 -->
<g id="edge33" class="edge">
<title>Node25&#45;&gt;Node20</title>
<path fill="none" stroke="midnightblue" d="M603.17,-280.44C638.06,-271.16 693.89,-256.31 732.17,-246.13"/>
<polygon fill="midnightblue" stroke="midnightblue" points="733.22,-249.47 741.98,-243.52 731.42,-242.7 733.22,-249.47"/>
</g>
<!-- Node26 -->
<g id="node26" class="node">
<title>Node26</title>
<g id="a_node26"><a xlink:title=" ">
<polygon fill="white" stroke="#bfbfbf" points="599,-224.5 599,-243.5 643,-243.5 643,-224.5 599,-224.5"/>
<text text-anchor="middle" x="621" y="-231.5" font-family="Helvetica,sans-Serif" font-size="10.00">string</text>
</a>
</g>
</g>
<!-- Node25&#45;&gt;Node26 -->
<g id="edge30" class="edge">
<title>Node25&#45;&gt;Node26</title>
<path fill="none" stroke="midnightblue" d="M579.26,-280.08C586.46,-272.3 597.11,-260.8 605.85,-251.37"/>
<polygon fill="midnightblue" stroke="midnightblue" points="608.67,-253.47 612.9,-243.75 603.53,-248.71 608.67,-253.47"/>
</g>
<!-- Node27 -->
<g id="node27" class="node">
<title>Node27</title>
<g id="a_node27"><a xlink:title=" ">
<polygon fill="white" stroke="#bfbfbf" points="411,-224.5 411,-243.5 543,-243.5 543,-224.5 411,-224.5"/>
<text text-anchor="middle" x="477" y="-231.5" font-family="Helvetica,sans-Serif" font-size="10.00">impl/MackeyFunctor.ipp</text>
</a>
</g>
</g>
<!-- Node25&#45;&gt;Node27 -->
<g id="edge34" class="edge">
<title>Node25&#45;&gt;Node27</title>
<path fill="none" stroke="midnightblue" d="M555.9,-280.32C541.1,-271.82 518.31,-258.73 501.02,-248.8"/>
<polygon fill="midnightblue" stroke="midnightblue" points="502.48,-245.6 492.07,-243.65 498.99,-251.67 502.48,-245.6"/>
</g>
<!-- Node29&#45;&gt;Node5 -->
<g id="edge38" class="edge">
<title>Node29&#45;&gt;Node5</title>
<path fill="none" stroke="midnightblue" d="M342.5,-224.44C366.08,-215.48 403.32,-201.31 429.96,-191.18"/>
<polygon fill="midnightblue" stroke="midnightblue" points="431.5,-194.34 439.6,-187.52 429.01,-187.8 431.5,-194.34"/>
</g>
<!-- Node29&#45;&gt;Node9 -->
<g id="edge37" class="edge">
<title>Node29&#45;&gt;Node9</title>
<path fill="none" stroke="midnightblue" d="M393.11,-224.47C482.61,-214.03 632.79,-196.52 718.28,-186.55"/>
<polygon fill="midnightblue" stroke="midnightblue" points="718.85,-190.01 728.38,-185.37 718.04,-183.05 718.85,-190.01"/>
</g>
<!-- Node30 -->
<g id="node30" class="node">
<title>Node30</title>
<g id="a_node30"><a xlink:href="ChangeBasis_8hpp.html" target="_top" xlink:title="Contains the class mackey::ChangeBasis.">
<polygon fill="white" stroke="black" points="165.5,-168.5 165.5,-187.5 266.5,-187.5 266.5,-168.5 165.5,-168.5"/>
<text text-anchor="middle" x="216" y="-175.5" font-family="Helvetica,sans-Serif" font-size="10.00">ChangeBasis.hpp</text>
</a>
</g>
</g>
<!-- Node29&#45;&gt;Node30 -->
<g id="edge39" class="edge">
<title>Node29&#45;&gt;Node30</title>
<path fill="none" stroke="midnightblue" d="M303.29,-224.32C286.69,-215.7 261,-202.36 241.78,-192.39"/>
<polygon fill="midnightblue" stroke="midnightblue" points="243.16,-189.16 232.67,-187.65 239.93,-195.37 243.16,-189.16"/>
</g>
<!-- Node35 -->
<g id="node35" class="node">
<title>Node35</title>
<g id="a_node35"><a xlink:title=" ">
<polygon fill="white" stroke="#bfbfbf" points="285,-168.5 285,-187.5 363,-187.5 363,-168.5 285,-168.5"/>
<text text-anchor="middle" x="324" y="-175.5" font-family="Helvetica,sans-Serif" font-size="10.00">impl/Box.ipp</text>
</a>
</g>
</g>
<!-- Node29&#45;&gt;Node35 -->
<g id="edge45" class="edge">
<title>Node29&#45;&gt;Node35</title>
<path fill="none" stroke="midnightblue" d="M320.66,-224.08C321.18,-217.01 321.94,-206.86 322.59,-197.99"/>
<polygon fill="midnightblue" stroke="midnightblue" points="326.1,-197.98 323.35,-187.75 319.12,-197.47 326.1,-197.98"/>
</g>
<!-- Node30&#45;&gt;Node6 -->
<g id="edge40" class="edge">
<title>Node30&#45;&gt;Node6</title>
<path fill="none" stroke="midnightblue" d="M266.74,-169.38C269.87,-168.92 272.98,-168.45 276,-168 383.55,-151.93 411.5,-153.95 518,-132 518.1,-131.98 518.21,-131.96 518.31,-131.93"/>
<polygon fill="midnightblue" stroke="midnightblue" points="519.34,-135.29 528.3,-129.63 517.77,-128.47 519.34,-135.29"/>
</g>
<!-- Node31 -->
<g id="node31" class="node">
<title>Node31</title>
<g id="a_node31"><a xlink:title=" ">
<polygon fill="white" stroke="#bfbfbf" points="200,-112.5 200,-131.5 238,-131.5 238,-112.5 200,-112.5"/>
<text text-anchor="middle" x="219" y="-119.5" font-family="Helvetica,sans-Serif" font-size="10.00">map</text>
</a>
</g>
</g>
<!-- Node30&#45;&gt;Node31 -->
<g id="edge41" class="edge">
<title>Node30&#45;&gt;Node31</title>
<path fill="none" stroke="midnightblue" d="M216.5,-168.08C216.89,-161.01 217.45,-150.86 217.95,-141.99"/>
<polygon fill="midnightblue" stroke="midnightblue" points="221.45,-141.93 218.51,-131.75 214.46,-141.54 221.45,-141.93"/>
</g>
<!-- Node32 -->
<g id="node32" class="node">
<title>Node32</title>
<g id="a_node32"><a xlink:title=" ">
<polygon fill="white" stroke="#bfbfbf" points="256,-112.5 256,-131.5 320,-131.5 320,-112.5 256,-112.5"/>
<text text-anchor="middle" x="288" y="-119.5" font-family="Helvetica,sans-Serif" font-size="10.00">algorithm</text>
</a>
</g>
</g>
<!-- Node30&#45;&gt;Node32 -->
<g id="edge42" class="edge">
<title>Node30&#45;&gt;Node32</title>
<path fill="none" stroke="midnightblue" d="M227.57,-168.32C238.42,-160.18 254.88,-147.84 267.88,-138.09"/>
<polygon fill="midnightblue" stroke="midnightblue" points="270.32,-140.63 276.22,-131.83 266.12,-135.03 270.32,-140.63"/>
</g>
<!-- Node33 -->
<g id="node33" class="node">
<title>Node33</title>
<g id="a_node33"><a xlink:title=" ">
<polygon fill="white" stroke="#bfbfbf" points="0,-112.5 0,-131.5 42,-131.5 42,-112.5 0,-112.5"/>
<text text-anchor="middle" x="21" y="-119.5" font-family="Helvetica,sans-Serif" font-size="10.00">array</text>
</a>
</g>
</g>
<!-- Node30&#45;&gt;Node33 -->
<g id="edge43" class="edge">
<title>Node30&#45;&gt;Node33</title>
<path fill="none" stroke="midnightblue" d="M183.68,-168.44C152.39,-160.1 103.35,-146.88 52.2,-132.29"/>
<polygon fill="midnightblue" stroke="midnightblue" points="52.86,-128.84 42.29,-129.46 50.94,-135.57 52.86,-128.84"/>
</g>
<!-- Node34 -->
<g id="node34" class="node">
<title>Node34</title>
<g id="a_node34"><a xlink:title=" ">
<polygon fill="white" stroke="#bfbfbf" points="60,-112.5 60,-131.5 182,-131.5 182,-112.5 60,-112.5"/>
<text text-anchor="middle" x="121" y="-119.5" font-family="Helvetica,sans-Serif" font-size="10.00">impl/ChangeBasis.ipp</text>
</a>
</g>
</g>
<!-- Node30&#45;&gt;Node34 -->
<g id="edge44" class="edge">
<title>Node30&#45;&gt;Node34</title>
<path fill="none" stroke="midnightblue" d="M200.74,-168.32C185.78,-159.82 162.75,-146.73 145.27,-136.8"/>
<polygon fill="midnightblue" stroke="midnightblue" points="146.65,-133.55 136.23,-131.65 143.19,-139.64 146.65,-133.55"/>
</g>
</g>
</svg>
