<?xml version="1.0" encoding="UTF-8" standalone="no"?>
<!DOCTYPE svg PUBLIC "-//W3C//DTD SVG 1.1//EN"
 "http://www.w3.org/Graphics/SVG/1.1/DTD/svg11.dtd">
<!-- Generated by graphviz version 2.43.0 (0)
 -->
<!-- Title: Morse.hpp Pages: 1 -->
<svg width="343pt" height="140pt"
 viewBox="0.00 0.00 343.00 140.00" xmlns="http://www.w3.org/2000/svg" xmlns:xlink="http://www.w3.org/1999/xlink">
<g id="graph0" class="graph" transform="scale(1 1) rotate(0) translate(4 136)">
<title>Morse.hpp</title>
<polygon fill="white" stroke="transparent" points="-4,4 -4,-136 339,-136 339,4 -4,4"/>
<!-- Node1 -->
<g id="node1" class="node">
<title>Node1</title>
<g id="a_node1"><a xlink:title="Contains the classes mackey::AMT and mackey::EquivariantAMT.">
<polygon fill="#bfbfbf" stroke="black" points="153.5,-112.5 153.5,-131.5 221.5,-131.5 221.5,-112.5 153.5,-112.5"/>
<text text-anchor="middle" x="187.5" y="-119.5" font-family="Helvetica,sans-Serif" font-size="10.00">Morse.hpp</text>
</a>
</g>
</g>
<!-- Node2 -->
<g id="node2" class="node">
<title>Node2</title>
<g id="a_node2"><a xlink:href="Chains_8hpp.html" target="_top" xlink:title="Contains the classes mackey::Arrow, mackey::Chains and mackey::Junction.">
<polygon fill="white" stroke="black" points="58,-56.5 58,-75.5 129,-75.5 129,-56.5 58,-56.5"/>
<text text-anchor="middle" x="93.5" y="-63.5" font-family="Helvetica,sans-Serif" font-size="10.00">Chains.hpp</text>
</a>
</g>
</g>
<!-- Node1&#45;&gt;Node2 -->
<g id="edge1" class="edge">
<title>Node1&#45;&gt;Node2</title>
<path fill="none" stroke="midnightblue" d="M172.4,-112.32C157.6,-103.82 134.81,-90.73 117.52,-80.8"/>
<polygon fill="midnightblue" stroke="midnightblue" points="118.98,-77.6 108.57,-75.65 115.49,-83.67 118.98,-77.6"/>
</g>
<!-- Node6 -->
<g id="node6" class="node">
<title>Node6</title>
<g id="a_node6"><a xlink:title=" ">
<polygon fill="white" stroke="#bfbfbf" points="147.5,-56.5 147.5,-75.5 227.5,-75.5 227.5,-56.5 147.5,-56.5"/>
<text text-anchor="middle" x="187.5" y="-63.5" font-family="Helvetica,sans-Serif" font-size="10.00">Eigen/Sparse</text>
</a>
</g>
</g>
<!-- Node1&#45;&gt;Node6 -->
<g id="edge5" class="edge">
<title>Node1&#45;&gt;Node6</title>
<path fill="none" stroke="midnightblue" d="M187.5,-112.08C187.5,-105.01 187.5,-94.86 187.5,-85.99"/>
<polygon fill="midnightblue" stroke="midnightblue" points="191,-85.75 187.5,-75.75 184,-85.75 191,-85.75"/>
</g>
<!-- Node7 -->
<g id="node7" class="node">
<title>Node7</title>
<g id="a_node7"><a xlink:title=" ">
<polygon fill="white" stroke="#bfbfbf" points="246,-56.5 246,-75.5 335,-75.5 335,-56.5 246,-56.5"/>
<text text-anchor="middle" x="290.5" y="-63.5" font-family="Helvetica,sans-Serif" font-size="10.00">impl/Morse.ipp</text>
</a>
</g>
</g>
<!-- Node1&#45;&gt;Node7 -->
<g id="edge6" class="edge">
<title>Node1&#45;&gt;Node7</title>
<path fill="none" stroke="midnightblue" d="M204.05,-112.32C220.49,-103.7 245.93,-90.36 264.97,-80.39"/>
<polygon fill="midnightblue" stroke="midnightblue" points="266.76,-83.4 273.99,-75.65 263.51,-77.2 266.76,-83.4"/>
</g>
<!-- Node3 -->
<g id="node3" class="node">
<title>Node3</title>
<g id="a_node3"><a xlink:title=" ">
<polygon fill="white" stroke="#bfbfbf" points="0,-0.5 0,-19.5 47,-19.5 47,-0.5 0,-0.5"/>
<text text-anchor="middle" x="23.5" y="-7.5" font-family="Helvetica,sans-Serif" font-size="10.00">vector</text>
</a>
</g>
</g>
<!-- Node2&#45;&gt;Node3 -->
<g id="edge2" class="edge">
<title>Node2&#45;&gt;Node3</title>
<path fill="none" stroke="midnightblue" d="M82.25,-56.32C71.7,-48.18 55.7,-35.84 43.06,-26.09"/>
<polygon fill="midnightblue" stroke="midnightblue" points="45.01,-23.17 34.95,-19.83 40.73,-28.71 45.01,-23.17"/>
</g>
<!-- Node4 -->
<g id="node4" class="node">
<title>Node4</title>
<g id="a_node4"><a xlink:title=" ">
<polygon fill="white" stroke="#bfbfbf" points="65,-0.5 65,-19.5 122,-19.5 122,-0.5 65,-0.5"/>
<text text-anchor="middle" x="93.5" y="-7.5" font-family="Helvetica,sans-Serif" font-size="10.00">ostream</text>
</a>
</g>
</g>
<!-- Node2&#45;&gt;Node4 -->
<g id="edge3" class="edge">
<title>Node2&#45;&gt;Node4</title>
<path fill="none" stroke="midnightblue" d="M93.5,-56.08C93.5,-49.01 93.5,-38.86 93.5,-29.99"/>
<polygon fill="midnightblue" stroke="midnightblue" points="97,-29.75 93.5,-19.75 90,-29.75 97,-29.75"/>
</g>
<!-- Node5 -->
<g id="node5" class="node">
<title>Node5</title>
<g id="a_node5"><a xlink:title=" ">
<polygon fill="white" stroke="#bfbfbf" points="140.5,-0.5 140.5,-19.5 232.5,-19.5 232.5,-0.5 140.5,-0.5"/>
<text text-anchor="middle" x="186.5" y="-7.5" font-family="Helvetica,sans-Serif" font-size="10.00">impl/Chains.ipp</text>
</a>
</g>
</g>
<!-- Node2&#45;&gt;Node5 -->
<g id="edge4" class="edge">
<title>Node2&#45;&gt;Node5</title>
<path fill="none" stroke="midnightblue" d="M108.44,-56.32C123.09,-47.82 145.63,-34.73 162.74,-24.8"/>
<polygon fill="midnightblue" stroke="midnightblue" points="164.7,-27.7 171.6,-19.65 161.19,-21.65 164.7,-27.7"/>
</g>
</g>
</svg>
