<?xml version="1.0" encoding="UTF-8" standalone="no"?>
<!DOCTYPE svg PUBLIC "-//W3C//DTD SVG 1.1//EN"
 "http://www.w3.org/Graphics/SVG/1.1/DTD/svg11.dtd">
<!-- Generated by graphviz version 2.43.0 (0)
 -->
<!-- Title: Mult_Table.hpp Pages: 1 -->
<svg width="252pt" height="252pt"
 viewBox="0.00 0.00 251.50 252.00" xmlns="http://www.w3.org/2000/svg" xmlns:xlink="http://www.w3.org/1999/xlink">
<g id="graph0" class="graph" transform="scale(1 1) rotate(0) translate(4 248)">
<title>Mult_Table.hpp</title>
<polygon fill="white" stroke="transparent" points="-4,4 -4,-248 247.5,-248 247.5,4 -4,4"/>
<!-- Node1 -->
<g id="node1" class="node">
<title>Node1</title>
<g id="a_node1"><a xlink:title="Contains the classes mackey::MultTableData and mackey::MultTable that form the multiplication table.">
<polygon fill="#bfbfbf" stroke="black" points="58,-224.5 58,-243.5 148,-243.5 148,-224.5 58,-224.5"/>
<text text-anchor="middle" x="103" y="-231.5" font-family="Helvetica,sans-Serif" font-size="10.00">Mult_Table.hpp</text>
</a>
</g>
</g>
<!-- Node2 -->
<g id="node2" class="node">
<title>Node2</title>
<g id="a_node2"><a xlink:href="Mult__Graph_8hpp.html" target="_top" xlink:title="Contains the multiplication graph.">
<polygon fill="white" stroke="black" points="56,-168.5 56,-187.5 150,-187.5 150,-168.5 56,-168.5"/>
<text text-anchor="middle" x="103" y="-175.5" font-family="Helvetica,sans-Serif" font-size="10.00">Mult_Graph.hpp</text>
</a>
</g>
</g>
<!-- Node1&#45;&gt;Node2 -->
<g id="edge1" class="edge">
<title>Node1&#45;&gt;Node2</title>
<path fill="none" stroke="midnightblue" d="M103,-213.8C103,-204.91 103,-194.78 103,-187.75"/>
<polygon fill="midnightblue" stroke="midnightblue" points="99.5,-214.08 103,-224.08 106.5,-214.08 99.5,-214.08"/>
</g>
<!-- Node3 -->
<g id="node3" class="node">
<title>Node3</title>
<g id="a_node3"><a xlink:href="Factorization_8hpp.html" target="_top" xlink:title="Contains the multiplication graph and the methods for factorizing generators.">
<polygon fill="white" stroke="black" points="0,-56.5 0,-75.5 100,-75.5 100,-56.5 0,-56.5"/>
<text text-anchor="middle" x="50" y="-63.5" font-family="Helvetica,sans-Serif" font-size="10.00">Factorization.hpp</text>
</a>
</g>
</g>
<!-- Node2&#45;&gt;Node3 -->
<g id="edge2" class="edge">
<title>Node2&#45;&gt;Node3</title>
<path fill="none" stroke="midnightblue" d="M75.17,-163.27C63.26,-155.81 50.6,-145.34 44,-132 34.85,-113.51 41.74,-88.46 46.49,-75.52"/>
<polygon fill="midnightblue" stroke="midnightblue" points="73.61,-166.41 84.02,-168.4 77.12,-160.36 73.61,-166.41"/>
</g>
<!-- Node6 -->
<g id="node6" class="node">
<title>Node6</title>
<g id="a_node6"><a xlink:href="Mult__Connectivity_8hpp.html" target="_top" xlink:title="Contains methods for the finding the connectivity of the multiplication graph should identification f...">
<polygon fill="white" stroke="black" points="118.5,-56.5 118.5,-75.5 243.5,-75.5 243.5,-56.5 118.5,-56.5"/>
<text text-anchor="middle" x="181" y="-63.5" font-family="Helvetica,sans-Serif" font-size="10.00">Mult_Connectivity.hpp</text>
</a>
</g>
</g>
<!-- Node2&#45;&gt;Node6 -->
<g id="edge5" class="edge">
<title>Node2&#45;&gt;Node6</title>
<path fill="none" stroke="midnightblue" d="M127.99,-163.09C139.84,-155.34 153.28,-144.69 162,-132 174.11,-114.36 178.61,-88.95 180.19,-75.73"/>
<polygon fill="midnightblue" stroke="midnightblue" points="126.01,-160.2 119.34,-168.44 129.69,-166.16 126.01,-160.2"/>
</g>
<!-- Node7 -->
<g id="node7" class="node">
<title>Node7</title>
<g id="a_node7"><a xlink:href="Mult__Identify_8hpp.html" target="_top" xlink:title="Contains extra identification methods for the multiplication graph.">
<polygon fill="white" stroke="black" points="53,-112.5 53,-131.5 153,-131.5 153,-112.5 53,-112.5"/>
<text text-anchor="middle" x="103" y="-119.5" font-family="Helvetica,sans-Serif" font-size="10.00">Mult_Identify.hpp</text>
</a>
</g>
</g>
<!-- Node2&#45;&gt;Node7 -->
<g id="edge7" class="edge">
<title>Node2&#45;&gt;Node7</title>
<path fill="none" stroke="midnightblue" d="M103,-157.8C103,-148.91 103,-138.78 103,-131.75"/>
<polygon fill="midnightblue" stroke="midnightblue" points="99.5,-158.08 103,-168.08 106.5,-158.08 99.5,-158.08"/>
</g>
<!-- Node4 -->
<g id="node4" class="node">
<title>Node4</title>
<g id="a_node4"><a xlink:href="Mackey_8hpp.html" target="_top" xlink:title="Includes the entire library.">
<polygon fill="white" stroke="black" points="127,-0.5 127,-19.5 201,-19.5 201,-0.5 127,-0.5"/>
<text text-anchor="middle" x="164" y="-7.5" font-family="Helvetica,sans-Serif" font-size="10.00">Mackey.hpp</text>
</a>
</g>
</g>
<!-- Node3&#45;&gt;Node4 -->
<g id="edge3" class="edge">
<title>Node3&#45;&gt;Node4</title>
<path fill="none" stroke="midnightblue" d="M77.24,-52.1C98.54,-42.01 127.54,-28.27 146.02,-19.52"/>
<polygon fill="midnightblue" stroke="midnightblue" points="75.6,-49 68.06,-56.44 78.6,-55.33 75.6,-49"/>
</g>
<!-- Node5 -->
<g id="node5" class="node">
<title>Node5</title>
<g id="a_node5"><a xlink:href="Cerealizer_8hpp.html" target="_top" xlink:title="Contains the methods for serializing the results of our computations (before their interpretation) vi...">
<polygon fill="white" stroke="black" points="7,-0.5 7,-19.5 93,-19.5 93,-0.5 7,-0.5"/>
<text text-anchor="middle" x="50" y="-7.5" font-family="Helvetica,sans-Serif" font-size="10.00">Cerealizer.hpp</text>
</a>
</g>
</g>
<!-- Node3&#45;&gt;Node5 -->
<g id="edge4" class="edge">
<title>Node3&#45;&gt;Node5</title>
<path fill="none" stroke="midnightblue" d="M50,-45.8C50,-36.91 50,-26.78 50,-19.75"/>
<polygon fill="midnightblue" stroke="midnightblue" points="46.5,-46.08 50,-56.08 53.5,-46.08 46.5,-46.08"/>
</g>
<!-- Node6&#45;&gt;Node4 -->
<g id="edge6" class="edge">
<title>Node6&#45;&gt;Node4</title>
<path fill="none" stroke="midnightblue" d="M175.14,-46.4C172.3,-37.36 169.02,-26.94 166.75,-19.75"/>
<polygon fill="midnightblue" stroke="midnightblue" points="171.85,-47.6 178.19,-56.08 178.53,-45.49 171.85,-47.6"/>
</g>
<!-- Node7&#45;&gt;Node3 -->
<g id="edge8" class="edge">
<title>Node7&#45;&gt;Node3</title>
<path fill="none" stroke="midnightblue" d="M87.02,-104.72C77.68,-95.2 66.25,-83.56 58.59,-75.75"/>
<polygon fill="midnightblue" stroke="midnightblue" points="84.75,-107.4 94.25,-112.08 89.74,-102.49 84.75,-107.4"/>
</g>
</g>
</svg>
