<?xml version="1.0" encoding="UTF-8" standalone="no"?>
<!DOCTYPE svg PUBLIC "-//W3C//DTD SVG 1.1//EN"
 "http://www.w3.org/Graphics/SVG/1.1/DTD/svg11.dtd">
<!-- Generated by graphviz version 2.43.0 (0)
 -->
<!-- Title: Mult_Identify.hpp Pages: 1 -->
<svg width="1362pt" height="700pt"
 viewBox="0.00 0.00 1361.50 700.00" xmlns="http://www.w3.org/2000/svg" xmlns:xlink="http://www.w3.org/1999/xlink">
<g id="graph0" class="graph" transform="scale(1 1) rotate(0) translate(4 696)">
<title>Mult_Identify.hpp</title>
<polygon fill="white" stroke="transparent" points="-4,4 -4,-696 1357.5,-696 1357.5,4 -4,4"/>
<!-- Node1 -->
<g id="node1" class="node">
<title>Node1</title>
<g id="a_node1"><a xlink:title="Contains the class mackey::MultIdentify.">
<polygon fill="#bfbfbf" stroke="black" points="1161.5,-672.5 1161.5,-691.5 1261.5,-691.5 1261.5,-672.5 1161.5,-672.5"/>
<text text-anchor="middle" x="1211.5" y="-679.5" font-family="Helvetica,sans-Serif" font-size="10.00">Mult_Identify.hpp</text>
</a>
</g>
</g>
<!-- Node2 -->
<g id="node2" class="node">
<title>Node2</title>
<g id="a_node2"><a xlink:href="Mult__Graph_8hpp.html" target="_top" xlink:title="Contains the class mackey::MultGraph.">
<polygon fill="white" stroke="black" points="1101.5,-616.5 1101.5,-635.5 1195.5,-635.5 1195.5,-616.5 1101.5,-616.5"/>
<text text-anchor="middle" x="1148.5" y="-623.5" font-family="Helvetica,sans-Serif" font-size="10.00">Mult_Graph.hpp</text>
</a>
</g>
</g>
<!-- Node1&#45;&gt;Node2 -->
<g id="edge1" class="edge">
<title>Node1&#45;&gt;Node2</title>
<path fill="none" stroke="midnightblue" d="M1201.38,-672.32C1191.97,-664.26 1177.76,-652.08 1166.43,-642.37"/>
<polygon fill="midnightblue" stroke="midnightblue" points="1168.68,-639.68 1158.81,-635.83 1164.12,-645 1168.68,-639.68"/>
</g>
<!-- Node55 -->
<g id="node50" class="node">
<title>Node55</title>
<g id="a_node50"><a xlink:title=" ">
<polygon fill="white" stroke="#bfbfbf" points="1213.5,-616.5 1213.5,-635.5 1335.5,-635.5 1335.5,-616.5 1213.5,-616.5"/>
<text text-anchor="middle" x="1274.5" y="-623.5" font-family="Helvetica,sans-Serif" font-size="10.00">impl/Mult_Identify.ipp</text>
</a>
</g>
</g>
<!-- Node1&#45;&gt;Node55 -->
<g id="edge64" class="edge">
<title>Node1&#45;&gt;Node55</title>
<path fill="none" stroke="midnightblue" d="M1221.62,-672.32C1231.03,-664.26 1245.24,-652.08 1256.57,-642.37"/>
<polygon fill="midnightblue" stroke="midnightblue" points="1258.88,-645 1264.19,-635.83 1254.32,-639.68 1258.88,-645"/>
</g>
<!-- Node3 -->
<g id="node3" class="node">
<title>Node3</title>
<g id="a_node3"><a xlink:href="Mult__Table_8hpp.html" target="_top" xlink:title="Contains the classes mackey::MultTableData and mackey::MultTable.">
<polygon fill="white" stroke="black" points="613.5,-560.5 613.5,-579.5 703.5,-579.5 703.5,-560.5 613.5,-560.5"/>
<text text-anchor="middle" x="658.5" y="-567.5" font-family="Helvetica,sans-Serif" font-size="10.00">Mult_Table.hpp</text>
</a>
</g>
</g>
<!-- Node2&#45;&gt;Node3 -->
<g id="edge2" class="edge">
<title>Node2&#45;&gt;Node3</title>
<path fill="none" stroke="midnightblue" d="M1101.07,-619.77C1010,-609.74 811.08,-587.82 714.01,-577.12"/>
<polygon fill="midnightblue" stroke="midnightblue" points="714.14,-573.61 703.81,-575.99 713.37,-580.57 714.14,-573.61"/>
</g>
<!-- Node47 -->
<g id="node42" class="node">
<title>Node47</title>
<g id="a_node42"><a xlink:href="Graph__Policies_8hpp.html" target="_top" xlink:title="Contains the classes mackey::bicolored_edge_with_id, mackey::MinLength, mackey::MinColorsLength.">
<polygon fill="white" stroke="black" points="1077.5,-560.5 1077.5,-579.5 1219.5,-579.5 1219.5,-560.5 1077.5,-560.5"/>
<text text-anchor="middle" x="1148.5" y="-567.5" font-family="Helvetica,sans-Serif" font-size="10.00">Graph/Graph_Policies.hpp</text>
</a>
</g>
</g>
<!-- Node2&#45;&gt;Node47 -->
<g id="edge55" class="edge">
<title>Node2&#45;&gt;Node47</title>
<path fill="none" stroke="midnightblue" d="M1148.5,-616.08C1148.5,-609.01 1148.5,-598.86 1148.5,-589.99"/>
<polygon fill="midnightblue" stroke="midnightblue" points="1152,-589.75 1148.5,-579.75 1145,-589.75 1152,-589.75"/>
</g>
<!-- Node54 -->
<g id="node49" class="node">
<title>Node54</title>
<g id="a_node49"><a xlink:title=" ">
<polygon fill="white" stroke="#bfbfbf" points="1237.5,-560.5 1237.5,-579.5 1353.5,-579.5 1353.5,-560.5 1237.5,-560.5"/>
<text text-anchor="middle" x="1295.5" y="-567.5" font-family="Helvetica,sans-Serif" font-size="10.00">impl/Mult_Graph.ipp</text>
</a>
</g>
</g>
<!-- Node2&#45;&gt;Node54 -->
<g id="edge63" class="edge">
<title>Node2&#45;&gt;Node54</title>
<path fill="none" stroke="midnightblue" d="M1171.79,-616.44C1196.31,-607.44 1235.1,-593.19 1262.7,-583.05"/>
<polygon fill="midnightblue" stroke="midnightblue" points="1264.14,-586.25 1272.32,-579.52 1261.72,-579.68 1264.14,-586.25"/>
</g>
<!-- Node4 -->
<g id="node4" class="node">
<title>Node4</title>
<g id="a_node4"><a xlink:href="OpenMP__Macros_8hpp.html" target="_top" xlink:title="Contains open MP macros that enable and control multithreading.">
<polygon fill="white" stroke="black" points="582.5,-504.5 582.5,-523.5 734.5,-523.5 734.5,-504.5 582.5,-504.5"/>
<text text-anchor="middle" x="658.5" y="-511.5" font-family="Helvetica,sans-Serif" font-size="10.00">Utility/OpenMP_Macros.hpp</text>
</a>
</g>
</g>
<!-- Node3&#45;&gt;Node4 -->
<g id="edge3" class="edge">
<title>Node3&#45;&gt;Node4</title>
<path fill="none" stroke="midnightblue" d="M658.5,-560.08C658.5,-553.01 658.5,-542.86 658.5,-533.99"/>
<polygon fill="midnightblue" stroke="midnightblue" points="662,-533.75 658.5,-523.75 655,-533.75 662,-533.75"/>
</g>
<!-- Node5 -->
<g id="node5" class="node">
<title>Node5</title>
<g id="a_node5"><a xlink:href="General_8hpp.html" target="_top" xlink:title="Contains general functions and vector overloads independent of everything else.">
<polygon fill="white" stroke="black" points="271,-168.5 271,-187.5 380,-187.5 380,-168.5 271,-168.5"/>
<text text-anchor="middle" x="325.5" y="-175.5" font-family="Helvetica,sans-Serif" font-size="10.00">Utility/General.hpp</text>
</a>
</g>
</g>
<!-- Node3&#45;&gt;Node5 -->
<g id="edge4" class="edge">
<title>Node3&#45;&gt;Node5</title>
<path fill="none" stroke="midnightblue" d="M692.3,-560.39C710.89,-553.74 732.39,-542.45 743.5,-524 748.08,-516.38 745.9,-512.56 743.5,-504 704.27,-363.8 693.47,-306.48 573.5,-224 565.87,-218.76 460.02,-200.79 389.09,-189.21"/>
<polygon fill="midnightblue" stroke="midnightblue" points="389.33,-185.7 378.9,-187.55 388.21,-192.61 389.33,-185.7"/>
</g>
<!-- Node15 -->
<g id="node15" class="node">
<title>Node15</title>
<g id="a_node15"><a xlink:href="Point_8hpp.html" target="_top" xlink:title="Contains the methods computing the RO(G) homology of a point.">
<polygon fill="white" stroke="black" points="334.5,-504.5 334.5,-523.5 434.5,-523.5 434.5,-504.5 334.5,-504.5"/>
<text text-anchor="middle" x="384.5" y="-511.5" font-family="Helvetica,sans-Serif" font-size="10.00">Spaces/Point.hpp</text>
</a>
</g>
</g>
<!-- Node3&#45;&gt;Node15 -->
<g id="edge14" class="edge">
<title>Node3&#45;&gt;Node15</title>
<path fill="none" stroke="midnightblue" d="M615.08,-560.44C566.98,-550.96 489.41,-535.67 437.69,-525.48"/>
<polygon fill="midnightblue" stroke="midnightblue" points="438.2,-522.02 427.71,-523.52 436.85,-528.88 438.2,-522.02"/>
</g>
<!-- Node46 -->
<g id="node41" class="node">
<title>Node46</title>
<g id="a_node41"><a xlink:title=" ">
<polygon fill="white" stroke="#bfbfbf" points="452.5,-504.5 452.5,-523.5 564.5,-523.5 564.5,-504.5 452.5,-504.5"/>
<text text-anchor="middle" x="508.5" y="-511.5" font-family="Helvetica,sans-Serif" font-size="10.00">impl/Mult_Table.ipp</text>
</a>
</g>
</g>
<!-- Node3&#45;&gt;Node46 -->
<g id="edge54" class="edge">
<title>Node3&#45;&gt;Node46</title>
<path fill="none" stroke="midnightblue" d="M634.73,-560.44C609.61,-551.4 569.79,-537.06 541.6,-526.92"/>
<polygon fill="midnightblue" stroke="midnightblue" points="542.75,-523.61 532.16,-523.52 540.38,-530.2 542.75,-523.61"/>
</g>
<!-- Node6 -->
<g id="node6" class="node">
<title>Node6</title>
<g id="a_node6"><a xlink:title=" ">
<polygon fill="white" stroke="#bfbfbf" points="576,-112.5 576,-131.5 623,-131.5 623,-112.5 576,-112.5"/>
<text text-anchor="middle" x="599.5" y="-119.5" font-family="Helvetica,sans-Serif" font-size="10.00">vector</text>
</a>
</g>
</g>
<!-- Node5&#45;&gt;Node6 -->
<g id="edge5" class="edge">
<title>Node5&#45;&gt;Node6</title>
<path fill="none" stroke="midnightblue" d="M368.92,-168.44C423.58,-157.67 516.31,-139.39 565.88,-129.62"/>
<polygon fill="midnightblue" stroke="midnightblue" points="566.64,-133.04 575.78,-127.67 565.29,-126.17 566.64,-133.04"/>
</g>
<!-- Node7 -->
<g id="node7" class="node">
<title>Node7</title>
<g id="a_node7"><a xlink:href="Aliases_8hpp.html" target="_top" xlink:title="Contains general template aliases.">
<polygon fill="white" stroke="black" points="386.5,-112.5 386.5,-131.5 490.5,-131.5 490.5,-112.5 386.5,-112.5"/>
<text text-anchor="middle" x="438.5" y="-119.5" font-family="Helvetica,sans-Serif" font-size="10.00">Types/Aliases.hpp</text>
</a>
</g>
</g>
<!-- Node5&#45;&gt;Node7 -->
<g id="edge6" class="edge">
<title>Node5&#45;&gt;Node7</title>
<path fill="none" stroke="midnightblue" d="M343.41,-168.44C361.75,-159.68 390.51,-145.94 411.59,-135.86"/>
<polygon fill="midnightblue" stroke="midnightblue" points="413.17,-138.99 420.68,-131.52 410.15,-132.67 413.17,-138.99"/>
</g>
<!-- Node12 -->
<g id="node12" class="node">
<title>Node12</title>
<g id="a_node12"><a xlink:title=" ">
<polygon fill="white" stroke="#bfbfbf" points="12.5,-112.5 12.5,-131.5 68.5,-131.5 68.5,-112.5 12.5,-112.5"/>
<text text-anchor="middle" x="40.5" y="-119.5" font-family="Helvetica,sans-Serif" font-size="10.00">numeric</text>
</a>
</g>
</g>
<!-- Node5&#45;&gt;Node12 -->
<g id="edge11" class="edge">
<title>Node5&#45;&gt;Node12</title>
<path fill="none" stroke="midnightblue" d="M280.34,-168.44C224.57,-157.88 130.7,-140.09 78.47,-130.19"/>
<polygon fill="midnightblue" stroke="midnightblue" points="79.08,-126.75 68.6,-128.32 77.78,-133.63 79.08,-126.75"/>
</g>
<!-- Node13 -->
<g id="node13" class="node">
<title>Node13</title>
<g id="a_node13"><a xlink:title=" ">
<polygon fill="white" stroke="#bfbfbf" points="157.5,-112.5 157.5,-131.5 217.5,-131.5 217.5,-112.5 157.5,-112.5"/>
<text text-anchor="middle" x="187.5" y="-119.5" font-family="Helvetica,sans-Serif" font-size="10.00">iostream</text>
</a>
</g>
</g>
<!-- Node5&#45;&gt;Node13 -->
<g id="edge12" class="edge">
<title>Node5&#45;&gt;Node13</title>
<path fill="none" stroke="midnightblue" d="M303.63,-168.44C280.72,-159.48 244.52,-145.31 218.63,-135.18"/>
<polygon fill="midnightblue" stroke="midnightblue" points="219.85,-131.9 209.26,-131.52 217.3,-138.42 219.85,-131.9"/>
</g>
<!-- Node14 -->
<g id="node14" class="node">
<title>Node14</title>
<g id="a_node14"><a xlink:title=" ">
<polygon fill="white" stroke="#bfbfbf" points="270.5,-112.5 270.5,-131.5 368.5,-131.5 368.5,-112.5 270.5,-112.5"/>
<text text-anchor="middle" x="319.5" y="-119.5" font-family="Helvetica,sans-Serif" font-size="10.00">impl/General.ipp</text>
</a>
</g>
</g>
<!-- Node5&#45;&gt;Node14 -->
<g id="edge13" class="edge">
<title>Node5&#45;&gt;Node14</title>
<path fill="none" stroke="midnightblue" d="M324.51,-168.08C323.71,-160.93 322.57,-150.64 321.58,-141.69"/>
<polygon fill="midnightblue" stroke="midnightblue" points="325.06,-141.3 320.47,-131.75 318.1,-142.08 325.06,-141.3"/>
</g>
<!-- Node8 -->
<g id="node8" class="node">
<title>Node8</title>
<g id="a_node8"><a xlink:title=" ">
<polygon fill="white" stroke="#bfbfbf" points="446,-56.5 446,-75.5 523,-75.5 523,-56.5 446,-56.5"/>
<text text-anchor="middle" x="484.5" y="-63.5" font-family="Helvetica,sans-Serif" font-size="10.00">Eigen/Dense</text>
</a>
</g>
</g>
<!-- Node7&#45;&gt;Node8 -->
<g id="edge7" class="edge">
<title>Node7&#45;&gt;Node8</title>
<path fill="none" stroke="midnightblue" d="M446.1,-112.08C452.73,-104.3 462.52,-92.8 470.56,-83.37"/>
<polygon fill="midnightblue" stroke="midnightblue" points="473.23,-85.63 477.05,-75.75 467.9,-81.09 473.23,-85.63"/>
</g>
<!-- Node9 -->
<g id="node9" class="node">
<title>Node9</title>
<g id="a_node9"><a xlink:title=" ">
<polygon fill="white" stroke="#bfbfbf" points="767.5,-56.5 767.5,-75.5 847.5,-75.5 847.5,-56.5 767.5,-56.5"/>
<text text-anchor="middle" x="807.5" y="-63.5" font-family="Helvetica,sans-Serif" font-size="10.00">Eigen/Sparse</text>
</a>
</g>
</g>
<!-- Node7&#45;&gt;Node9 -->
<g id="edge8" class="edge">
<title>Node7&#45;&gt;Node9</title>
<path fill="none" stroke="midnightblue" d="M490.59,-113.38C561.35,-103.02 687.05,-84.63 756.99,-74.39"/>
<polygon fill="midnightblue" stroke="midnightblue" points="757.92,-77.79 767.3,-72.88 756.9,-70.87 757.92,-77.79"/>
</g>
<!-- Node10 -->
<g id="node10" class="node">
<title>Node10</title>
<g id="a_node10"><a xlink:href="SFINAE_8hpp.html" target="_top" xlink:title="Contains all the SFINAE tricks.">
<polygon fill="white" stroke="black" points="355,-56.5 355,-75.5 428,-75.5 428,-56.5 355,-56.5"/>
<text text-anchor="middle" x="391.5" y="-63.5" font-family="Helvetica,sans-Serif" font-size="10.00">SFINAE.hpp</text>
</a>
</g>
</g>
<!-- Node7&#45;&gt;Node10 -->
<g id="edge9" class="edge">
<title>Node7&#45;&gt;Node10</title>
<path fill="none" stroke="midnightblue" d="M430.74,-112.08C423.96,-104.3 413.96,-92.8 405.74,-83.37"/>
<polygon fill="midnightblue" stroke="midnightblue" points="408.32,-81 399.12,-75.75 403.04,-85.59 408.32,-81"/>
</g>
<!-- Node11 -->
<g id="node11" class="node">
<title>Node11</title>
<g id="a_node11"><a xlink:title=" ">
<polygon fill="white" stroke="#bfbfbf" points="357,-0.5 357,-19.5 426,-19.5 426,-0.5 357,-0.5"/>
<text text-anchor="middle" x="391.5" y="-7.5" font-family="Helvetica,sans-Serif" font-size="10.00">type_traits</text>
</a>
</g>
</g>
<!-- Node10&#45;&gt;Node11 -->
<g id="edge10" class="edge">
<title>Node10&#45;&gt;Node11</title>
<path fill="none" stroke="midnightblue" d="M391.5,-56.08C391.5,-49.01 391.5,-38.86 391.5,-29.99"/>
<polygon fill="midnightblue" stroke="midnightblue" points="395,-29.75 391.5,-19.75 388,-29.75 395,-29.75"/>
</g>
<!-- Node16 -->
<g id="node16" class="node">
<title>Node16</title>
<g id="a_node16"><a xlink:href="Massey_8hpp.html" target="_top" xlink:title="Contains the classes mackey::Massey and mackey::internal::MasseyCompute.">
<polygon fill="white" stroke="black" points="440,-448.5 440,-467.5 559,-467.5 559,-448.5 440,-448.5"/>
<text text-anchor="middle" x="499.5" y="-455.5" font-family="Helvetica,sans-Serif" font-size="10.00">Products/Massey.hpp</text>
</a>
</g>
</g>
<!-- Node15&#45;&gt;Node16 -->
<g id="edge15" class="edge">
<title>Node15&#45;&gt;Node16</title>
<path fill="none" stroke="midnightblue" d="M402.72,-504.44C421.4,-495.68 450.66,-481.94 472.12,-471.86"/>
<polygon fill="midnightblue" stroke="midnightblue" points="473.8,-474.93 481.36,-467.52 470.82,-468.6 473.8,-474.93"/>
</g>
<!-- Node43 -->
<g id="node38" class="node">
<title>Node43</title>
<g id="a_node38"><a xlink:href="Morse_8hpp.html" target="_top" xlink:title="Contains the classes mackey::AMT and mackey::EquivariantAMT.">
<polygon fill="white" stroke="black" points="832.5,-224.5 832.5,-243.5 990.5,-243.5 990.5,-224.5 832.5,-224.5"/>
<text text-anchor="middle" x="911.5" y="-231.5" font-family="Helvetica,sans-Serif" font-size="10.00">Chain_Complexes/Morse.hpp</text>
</a>
</g>
</g>
<!-- Node15&#45;&gt;Node43 -->
<g id="edge49" class="edge">
<title>Node15&#45;&gt;Node43</title>
<path fill="none" stroke="midnightblue" d="M423.83,-504.49C513.33,-484.58 724.5,-434.29 724.5,-403 724.5,-403 724.5,-403 724.5,-345 724.5,-286.94 792.31,-258.91 846.26,-245.81"/>
<polygon fill="midnightblue" stroke="midnightblue" points="847.19,-249.18 856.15,-243.53 845.62,-242.36 847.19,-249.18"/>
</g>
<!-- Node45 -->
<g id="node40" class="node">
<title>Node45</title>
<g id="a_node40"><a xlink:title=" ">
<polygon fill="white" stroke="#bfbfbf" points="337.5,-448.5 337.5,-467.5 421.5,-467.5 421.5,-448.5 337.5,-448.5"/>
<text text-anchor="middle" x="379.5" y="-455.5" font-family="Helvetica,sans-Serif" font-size="10.00">impl/Point.ipp</text>
</a>
</g>
</g>
<!-- Node15&#45;&gt;Node45 -->
<g id="edge53" class="edge">
<title>Node15&#45;&gt;Node45</title>
<path fill="none" stroke="midnightblue" d="M383.67,-504.08C383.02,-497.01 382.08,-486.86 381.26,-477.99"/>
<polygon fill="midnightblue" stroke="midnightblue" points="384.72,-477.39 380.31,-467.75 377.75,-478.03 384.72,-477.39"/>
</g>
<!-- Node17 -->
<g id="node17" class="node">
<title>Node17</title>
<g id="a_node17"><a xlink:href="Green_8hpp.html" target="_top" xlink:title="Contains the classes mackey::Green, mackey::internal::GreenCompute, mackey::internal::ChainsLevelGen,...">
<polygon fill="white" stroke="black" points="416,-392.5 416,-411.5 483,-411.5 483,-392.5 416,-392.5"/>
<text text-anchor="middle" x="449.5" y="-399.5" font-family="Helvetica,sans-Serif" font-size="10.00">Green.hpp</text>
</a>
</g>
</g>
<!-- Node16&#45;&gt;Node17 -->
<g id="edge16" class="edge">
<title>Node16&#45;&gt;Node17</title>
<path fill="none" stroke="midnightblue" d="M491.24,-448.08C484.04,-440.3 473.39,-428.8 464.65,-419.37"/>
<polygon fill="midnightblue" stroke="midnightblue" points="466.97,-416.71 457.6,-411.75 461.83,-421.47 466.97,-416.71"/>
</g>
<!-- Node42 -->
<g id="node37" class="node">
<title>Node42</title>
<g id="a_node37"><a xlink:title=" ">
<polygon fill="white" stroke="#bfbfbf" points="501,-392.5 501,-411.5 596,-411.5 596,-392.5 501,-392.5"/>
<text text-anchor="middle" x="548.5" y="-399.5" font-family="Helvetica,sans-Serif" font-size="10.00">impl/Massey.ipp</text>
</a>
</g>
</g>
<!-- Node16&#45;&gt;Node42 -->
<g id="edge48" class="edge">
<title>Node16&#45;&gt;Node42</title>
<path fill="none" stroke="midnightblue" d="M507.59,-448.08C514.66,-440.3 525.09,-428.8 533.65,-419.37"/>
<polygon fill="midnightblue" stroke="midnightblue" points="536.43,-421.51 540.56,-411.75 531.25,-416.8 536.43,-421.51"/>
</g>
<!-- Node18 -->
<g id="node18" class="node">
<title>Node18</title>
<g id="a_node18"><a xlink:href="Levels_8hpp.html" target="_top" xlink:title="Contains the methods for transfering, restricting and Weyl&#45;group&#45;acting.">
<polygon fill="white" stroke="black" points="461.5,-336.5 461.5,-355.5 617.5,-355.5 617.5,-336.5 461.5,-336.5"/>
<text text-anchor="middle" x="539.5" y="-343.5" font-family="Helvetica,sans-Serif" font-size="10.00">Mackey_Functors/Levels.hpp</text>
</a>
</g>
</g>
<!-- Node17&#45;&gt;Node18 -->
<g id="edge17" class="edge">
<title>Node17&#45;&gt;Node18</title>
<path fill="none" stroke="midnightblue" d="M463.96,-392.32C478,-383.9 499.55,-370.97 516.04,-361.07"/>
<polygon fill="midnightblue" stroke="midnightblue" points="518.3,-363.8 525.08,-355.65 514.7,-357.8 518.3,-363.8"/>
</g>
<!-- Node29 -->
<g id="node27" class="node">
<title>Node29</title>
<g id="a_node27"><a xlink:href="Identify_8hpp.html" target="_top" xlink:title="Contains the classes mackey::IDGenerators and mackey::internal::IDGeneratorCompute">
<polygon fill="white" stroke="black" points="175.5,-336.5 175.5,-355.5 335.5,-355.5 335.5,-336.5 175.5,-336.5"/>
<text text-anchor="middle" x="255.5" y="-343.5" font-family="Helvetica,sans-Serif" font-size="10.00">Mackey_Functors/Identify.hpp</text>
</a>
</g>
</g>
<!-- Node17&#45;&gt;Node29 -->
<g id="edge31" class="edge">
<title>Node17&#45;&gt;Node29</title>
<path fill="none" stroke="midnightblue" d="M418.76,-392.44C385.56,-383.2 332.51,-368.44 295.94,-358.26"/>
<polygon fill="midnightblue" stroke="midnightblue" points="296.67,-354.83 286.1,-355.52 294.79,-361.57 296.67,-354.83"/>
</g>
<!-- Node34 -->
<g id="node32" class="node">
<title>Node34</title>
<g id="a_node32"><a xlink:href="Box_8hpp.html" target="_top" xlink:title="Contains the class mackey::Tensor.">
<polygon fill="white" stroke="black" points="620.5,-224.5 620.5,-243.5 766.5,-243.5 766.5,-224.5 620.5,-224.5"/>
<text text-anchor="middle" x="693.5" y="-231.5" font-family="Helvetica,sans-Serif" font-size="10.00">Chain_Complexes/Box.hpp</text>
</a>
</g>
</g>
<!-- Node17&#45;&gt;Node34 -->
<g id="edge40" class="edge">
<title>Node17&#45;&gt;Node34</title>
<path fill="none" stroke="midnightblue" d="M483.07,-393.19C532.78,-381.52 620.76,-360.43 626.5,-356 660.92,-329.45 680.17,-279.93 688.49,-253.21"/>
<polygon fill="midnightblue" stroke="midnightblue" points="691.85,-254.17 691.31,-243.59 685.14,-252.2 691.85,-254.17"/>
</g>
<!-- Node41 -->
<g id="node36" class="node">
<title>Node41</title>
<g id="a_node36"><a xlink:title=" ">
<polygon fill="white" stroke="#bfbfbf" points="354,-336.5 354,-355.5 443,-355.5 443,-336.5 354,-336.5"/>
<text text-anchor="middle" x="398.5" y="-343.5" font-family="Helvetica,sans-Serif" font-size="10.00">impl/Green.ipp</text>
</a>
</g>
</g>
<!-- Node17&#45;&gt;Node41 -->
<g id="edge47" class="edge">
<title>Node17&#45;&gt;Node41</title>
<path fill="none" stroke="midnightblue" d="M441.08,-392.08C433.65,-384.22 422.65,-372.57 413.69,-363.08"/>
<polygon fill="midnightblue" stroke="midnightblue" points="416.18,-360.62 406.76,-355.75 411.09,-365.42 416.18,-360.62"/>
</g>
<!-- Node19 -->
<g id="node19" class="node">
<title>Node19</title>
<g id="a_node19"><a xlink:href="Homology_8hpp.html" target="_top" xlink:title="Contains the class mackey::Homology.">
<polygon fill="white" stroke="black" points="332.5,-280.5 332.5,-299.5 472.5,-299.5 472.5,-280.5 332.5,-280.5"/>
<text text-anchor="middle" x="402.5" y="-287.5" font-family="Helvetica,sans-Serif" font-size="10.00">Homology/Homology.hpp</text>
</a>
</g>
</g>
<!-- Node18&#45;&gt;Node19 -->
<g id="edge18" class="edge">
<title>Node18&#45;&gt;Node19</title>
<path fill="none" stroke="midnightblue" d="M517.79,-336.44C495.15,-327.52 459.43,-313.44 433.75,-303.32"/>
<polygon fill="midnightblue" stroke="midnightblue" points="434.69,-299.93 424.11,-299.52 432.13,-306.44 434.69,-299.93"/>
</g>
<!-- Node28 -->
<g id="node26" class="node">
<title>Node28</title>
<g id="a_node26"><a xlink:title=" ">
<polygon fill="white" stroke="#bfbfbf" points="491,-280.5 491,-299.5 582,-299.5 582,-280.5 491,-280.5"/>
<text text-anchor="middle" x="536.5" y="-287.5" font-family="Helvetica,sans-Serif" font-size="10.00">impl/Levels.ipp</text>
</a>
</g>
</g>
<!-- Node18&#45;&gt;Node28 -->
<g id="edge30" class="edge">
<title>Node18&#45;&gt;Node28</title>
<path fill="none" stroke="midnightblue" d="M539,-336.08C538.61,-329.01 538.05,-318.86 537.55,-309.99"/>
<polygon fill="midnightblue" stroke="midnightblue" points="541.04,-309.54 536.99,-299.75 534.05,-309.93 541.04,-309.54"/>
</g>
<!-- Node19&#45;&gt;Node5 -->
<g id="edge23" class="edge">
<title>Node19&#45;&gt;Node5</title>
<path fill="none" stroke="midnightblue" d="M399.54,-280.49C394.82,-267.55 384.73,-242.51 371.5,-224 363.74,-213.15 353.21,-202.62 344.18,-194.49"/>
<polygon fill="midnightblue" stroke="midnightblue" points="346.27,-191.67 336.43,-187.75 341.68,-196.95 346.27,-191.67"/>
</g>
<!-- Node20 -->
<g id="node20" class="node">
<title>Node20</title>
<g id="a_node20"><a xlink:href="Chains_8hpp.html" target="_top" xlink:title="Contains the classes mackey::Arrow, mackey::Chains and mackey::Junction.">
<polygon fill="white" stroke="black" points="698,-168.5 698,-187.5 859,-187.5 859,-168.5 698,-168.5"/>
<text text-anchor="middle" x="778.5" y="-175.5" font-family="Helvetica,sans-Serif" font-size="10.00">Chain_Complexes/Chains.hpp</text>
</a>
</g>
</g>
<!-- Node19&#45;&gt;Node20 -->
<g id="edge19" class="edge">
<title>Node19&#45;&gt;Node20</title>
<path fill="none" stroke="midnightblue" d="M472.8,-280.8C580.52,-268.2 774.22,-245.38 775.5,-244 786.77,-231.86 786.12,-212.31 783.5,-197.81"/>
<polygon fill="midnightblue" stroke="midnightblue" points="786.88,-196.91 781.28,-187.92 780.05,-198.44 786.88,-196.91"/>
</g>
<!-- Node23 -->
<g id="node23" class="node">
<title>Node23</title>
<g id="a_node23"><a xlink:href="Smith_8hpp.html" target="_top" xlink:title="Contains the class mackey::SmithNormalForm.">
<polygon fill="white" stroke="red" points="398.5,-168.5 398.5,-187.5 464.5,-187.5 464.5,-168.5 398.5,-168.5"/>
<text text-anchor="middle" x="431.5" y="-175.5" font-family="Helvetica,sans-Serif" font-size="10.00">Smith.hpp</text>
</a>
</g>
</g>
<!-- Node19&#45;&gt;Node23 -->
<g id="edge24" class="edge">
<title>Node19&#45;&gt;Node23</title>
<path fill="none" stroke="midnightblue" d="M404.78,-280.37C409.48,-262.54 420.35,-221.3 426.68,-197.27"/>
<polygon fill="midnightblue" stroke="midnightblue" points="430.07,-198.15 429.23,-187.59 423.3,-196.37 430.07,-198.15"/>
</g>
<!-- Node25 -->
<g id="node24" class="node">
<title>Node25</title>
<g id="a_node24"><a xlink:href="Abelian_8hpp.html" target="_top" xlink:title="Contains the class mackey::AbelianGroup.">
<polygon fill="white" stroke="red" points="288.5,-224.5 288.5,-243.5 362.5,-243.5 362.5,-224.5 288.5,-224.5"/>
<text text-anchor="middle" x="325.5" y="-231.5" font-family="Helvetica,sans-Serif" font-size="10.00">Abelian.hpp</text>
</a>
</g>
</g>
<!-- Node19&#45;&gt;Node25 -->
<g id="edge27" class="edge">
<title>Node19&#45;&gt;Node25</title>
<path fill="none" stroke="midnightblue" d="M390.13,-280.32C378.34,-272.06 360.37,-259.45 346.36,-249.63"/>
<polygon fill="midnightblue" stroke="midnightblue" points="348.04,-246.53 337.84,-243.65 344.02,-252.26 348.04,-246.53"/>
</g>
<!-- Node27 -->
<g id="node25" class="node">
<title>Node27</title>
<g id="a_node25"><a xlink:title=" ">
<polygon fill="white" stroke="#bfbfbf" points="456.5,-224.5 456.5,-243.5 564.5,-243.5 564.5,-224.5 456.5,-224.5"/>
<text text-anchor="middle" x="510.5" y="-231.5" font-family="Helvetica,sans-Serif" font-size="10.00">impl/Homology.ipp</text>
</a>
</g>
</g>
<!-- Node19&#45;&gt;Node27 -->
<g id="edge29" class="edge">
<title>Node19&#45;&gt;Node27</title>
<path fill="none" stroke="midnightblue" d="M419.85,-280.32C437.17,-271.66 464.02,-258.24 484,-248.25"/>
<polygon fill="midnightblue" stroke="midnightblue" points="485.81,-251.26 493.19,-243.65 482.68,-245 485.81,-251.26"/>
</g>
<!-- Node20&#45;&gt;Node6 -->
<g id="edge20" class="edge">
<title>Node20&#45;&gt;Node6</title>
<path fill="none" stroke="midnightblue" d="M750.14,-168.44C718.33,-158.85 666.8,-143.3 633.03,-133.11"/>
<polygon fill="midnightblue" stroke="midnightblue" points="633.74,-129.67 623.16,-130.14 631.72,-136.38 633.74,-129.67"/>
</g>
<!-- Node21 -->
<g id="node21" class="node">
<title>Node21</title>
<g id="a_node21"><a xlink:title=" ">
<polygon fill="white" stroke="#bfbfbf" points="826,-112.5 826,-131.5 883,-131.5 883,-112.5 826,-112.5"/>
<text text-anchor="middle" x="854.5" y="-119.5" font-family="Helvetica,sans-Serif" font-size="10.00">ostream</text>
</a>
</g>
</g>
<!-- Node20&#45;&gt;Node21 -->
<g id="edge21" class="edge">
<title>Node20&#45;&gt;Node21</title>
<path fill="none" stroke="midnightblue" d="M790.71,-168.32C802.28,-160.11 819.88,-147.6 833.66,-137.81"/>
<polygon fill="midnightblue" stroke="midnightblue" points="835.94,-140.48 842.07,-131.83 831.89,-134.77 835.94,-140.48"/>
</g>
<!-- Node22 -->
<g id="node22" class="node">
<title>Node22</title>
<g id="a_node22"><a xlink:title=" ">
<polygon fill="white" stroke="#bfbfbf" points="715.5,-112.5 715.5,-131.5 807.5,-131.5 807.5,-112.5 715.5,-112.5"/>
<text text-anchor="middle" x="761.5" y="-119.5" font-family="Helvetica,sans-Serif" font-size="10.00">impl/Chains.ipp</text>
</a>
</g>
</g>
<!-- Node20&#45;&gt;Node22 -->
<g id="edge22" class="edge">
<title>Node20&#45;&gt;Node22</title>
<path fill="none" stroke="midnightblue" d="M775.69,-168.08C773.42,-160.85 770.13,-150.41 767.29,-141.4"/>
<polygon fill="midnightblue" stroke="midnightblue" points="770.6,-140.24 764.25,-131.75 763.92,-142.34 770.6,-140.24"/>
</g>
<!-- Node23&#45;&gt;Node6 -->
<g id="edge25" class="edge">
<title>Node23&#45;&gt;Node6</title>
<path fill="none" stroke="midnightblue" d="M458.12,-168.44C487.42,-159.02 534.57,-143.87 566.28,-133.68"/>
<polygon fill="midnightblue" stroke="midnightblue" points="567.54,-136.95 575.99,-130.56 565.39,-130.29 567.54,-136.95"/>
</g>
<!-- Node23&#45;&gt;Node7 -->
<g id="edge26" class="edge">
<title>Node23&#45;&gt;Node7</title>
<path fill="none" stroke="midnightblue" d="M432.66,-168.08C433.58,-160.93 434.92,-150.64 436.08,-141.69"/>
<polygon fill="midnightblue" stroke="midnightblue" points="439.55,-142.12 437.37,-131.75 432.61,-141.22 439.55,-142.12"/>
</g>
<!-- Node25&#45;&gt;Node5 -->
<g id="edge28" class="edge">
<title>Node25&#45;&gt;Node5</title>
<path fill="none" stroke="midnightblue" d="M325.5,-224.08C325.5,-217.01 325.5,-206.86 325.5,-197.99"/>
<polygon fill="midnightblue" stroke="midnightblue" points="329,-197.75 325.5,-187.75 322,-197.75 329,-197.75"/>
</g>
<!-- Node29&#45;&gt;Node19 -->
<g id="edge32" class="edge">
<title>Node29&#45;&gt;Node19</title>
<path fill="none" stroke="midnightblue" d="M278.79,-336.44C303.31,-327.44 342.1,-313.19 369.7,-303.05"/>
<polygon fill="midnightblue" stroke="midnightblue" points="371.14,-306.25 379.32,-299.52 368.72,-299.68 371.14,-306.25"/>
</g>
<!-- Node30 -->
<g id="node28" class="node">
<title>Node30</title>
<g id="a_node28"><a xlink:href="MackeyFunctor_8hpp.html" target="_top" xlink:title="Contains the class mackey::MackeyFunctor.">
<polygon fill="white" stroke="black" points="0,-280.5 0,-299.5 197,-299.5 197,-280.5 0,-280.5"/>
<text text-anchor="middle" x="98.5" y="-287.5" font-family="Helvetica,sans-Serif" font-size="10.00">Mackey_Functors/MackeyFunctor.hpp</text>
</a>
</g>
</g>
<!-- Node29&#45;&gt;Node30 -->
<g id="edge33" class="edge">
<title>Node29&#45;&gt;Node30</title>
<path fill="none" stroke="midnightblue" d="M230.62,-336.44C204.21,-327.36 162.28,-312.94 132.76,-302.78"/>
<polygon fill="midnightblue" stroke="midnightblue" points="133.86,-299.46 123.26,-299.52 131.58,-306.08 133.86,-299.46"/>
</g>
<!-- Node33 -->
<g id="node31" class="node">
<title>Node33</title>
<g id="a_node31"><a xlink:title=" ">
<polygon fill="white" stroke="#bfbfbf" points="215,-280.5 215,-299.5 310,-299.5 310,-280.5 215,-280.5"/>
<text text-anchor="middle" x="262.5" y="-287.5" font-family="Helvetica,sans-Serif" font-size="10.00">impl/Identify.ipp</text>
</a>
</g>
</g>
<!-- Node29&#45;&gt;Node33 -->
<g id="edge39" class="edge">
<title>Node29&#45;&gt;Node33</title>
<path fill="none" stroke="midnightblue" d="M256.66,-336.08C257.58,-328.93 258.92,-318.64 260.08,-309.69"/>
<polygon fill="midnightblue" stroke="midnightblue" points="263.55,-310.12 261.37,-299.75 256.61,-309.22 263.55,-310.12"/>
</g>
<!-- Node30&#45;&gt;Node12 -->
<g id="edge36" class="edge">
<title>Node30&#45;&gt;Node12</title>
<path fill="none" stroke="midnightblue" d="M77.02,-280.36C62.11,-273.09 43.39,-261.12 34.5,-244 17.36,-210.99 26.76,-165.85 34.22,-141.09"/>
<polygon fill="midnightblue" stroke="midnightblue" points="37.56,-142.13 37.3,-131.54 30.9,-139.98 37.56,-142.13"/>
</g>
<!-- Node30&#45;&gt;Node13 -->
<g id="edge35" class="edge">
<title>Node30&#45;&gt;Node13</title>
<path fill="none" stroke="midnightblue" d="M89,-280.19C76.77,-267.72 58.11,-244.18 67.5,-224 86.58,-183.01 131.38,-152.71 160.52,-136.47"/>
<polygon fill="midnightblue" stroke="midnightblue" points="162.24,-139.52 169.38,-131.69 158.92,-133.36 162.24,-139.52"/>
</g>
<!-- Node30&#45;&gt;Node25 -->
<g id="edge37" class="edge">
<title>Node30&#45;&gt;Node25</title>
<path fill="none" stroke="midnightblue" d="M134.47,-280.44C173.82,-271.08 236.99,-256.06 279.81,-245.87"/>
<polygon fill="midnightblue" stroke="midnightblue" points="280.78,-249.24 289.7,-243.52 279.16,-242.43 280.78,-249.24"/>
</g>
<!-- Node31 -->
<g id="node29" class="node">
<title>Node31</title>
<g id="a_node29"><a xlink:title=" ">
<polygon fill="white" stroke="#bfbfbf" points="76.5,-224.5 76.5,-243.5 120.5,-243.5 120.5,-224.5 76.5,-224.5"/>
<text text-anchor="middle" x="98.5" y="-231.5" font-family="Helvetica,sans-Serif" font-size="10.00">string</text>
</a>
</g>
</g>
<!-- Node30&#45;&gt;Node31 -->
<g id="edge34" class="edge">
<title>Node30&#45;&gt;Node31</title>
<path fill="none" stroke="midnightblue" d="M98.5,-280.08C98.5,-273.01 98.5,-262.86 98.5,-253.99"/>
<polygon fill="midnightblue" stroke="midnightblue" points="102,-253.75 98.5,-243.75 95,-253.75 102,-253.75"/>
</g>
<!-- Node32 -->
<g id="node30" class="node">
<title>Node32</title>
<g id="a_node30"><a xlink:title=" ">
<polygon fill="white" stroke="#bfbfbf" points="138.5,-224.5 138.5,-243.5 270.5,-243.5 270.5,-224.5 138.5,-224.5"/>
<text text-anchor="middle" x="204.5" y="-231.5" font-family="Helvetica,sans-Serif" font-size="10.00">impl/MackeyFunctor.ipp</text>
</a>
</g>
</g>
<!-- Node30&#45;&gt;Node32 -->
<g id="edge38" class="edge">
<title>Node30&#45;&gt;Node32</title>
<path fill="none" stroke="midnightblue" d="M115.53,-280.32C132.53,-271.66 158.88,-258.24 178.49,-248.25"/>
<polygon fill="midnightblue" stroke="midnightblue" points="180.19,-251.31 187.51,-243.65 177.01,-245.08 180.19,-251.31"/>
</g>
<!-- Node34&#45;&gt;Node5 -->
<g id="edge41" class="edge">
<title>Node34&#45;&gt;Node5</title>
<path fill="none" stroke="midnightblue" d="M635.19,-224.44C568.45,-214.65 459.45,-198.66 390.16,-188.49"/>
<polygon fill="midnightblue" stroke="midnightblue" points="390.64,-185.02 380.24,-187.03 389.62,-191.95 390.64,-185.02"/>
</g>
<!-- Node34&#45;&gt;Node20 -->
<g id="edge42" class="edge">
<title>Node34&#45;&gt;Node20</title>
<path fill="none" stroke="midnightblue" d="M707.16,-224.32C720.42,-215.9 740.77,-202.97 756.35,-193.07"/>
<polygon fill="midnightblue" stroke="midnightblue" points="758.31,-195.97 764.88,-187.65 754.56,-190.06 758.31,-195.97"/>
</g>
<!-- Node35 -->
<g id="node33" class="node">
<title>Node35</title>
<g id="a_node33"><a xlink:href="ChangeBasis_8hpp.html" target="_top" xlink:title="Contains the class mackey::ChangeBasis.">
<polygon fill="white" stroke="red" points="579,-168.5 579,-187.5 680,-187.5 680,-168.5 579,-168.5"/>
<text text-anchor="middle" x="629.5" y="-175.5" font-family="Helvetica,sans-Serif" font-size="10.00">ChangeBasis.hpp</text>
</a>
</g>
</g>
<!-- Node34&#45;&gt;Node35 -->
<g id="edge43" class="edge">
<title>Node34&#45;&gt;Node35</title>
<path fill="none" stroke="midnightblue" d="M683.22,-224.32C673.66,-216.26 659.22,-204.08 647.72,-194.37"/>
<polygon fill="midnightblue" stroke="midnightblue" points="649.87,-191.61 639.97,-187.83 645.36,-196.96 649.87,-191.61"/>
</g>
<!-- Node40 -->
<g id="node35" class="node">
<title>Node40</title>
<g id="a_node35"><a xlink:title=" ">
<polygon fill="white" stroke="#bfbfbf" points="482.5,-168.5 482.5,-187.5 560.5,-187.5 560.5,-168.5 482.5,-168.5"/>
<text text-anchor="middle" x="521.5" y="-175.5" font-family="Helvetica,sans-Serif" font-size="10.00">impl/Box.ipp</text>
</a>
</g>
</g>
<!-- Node34&#45;&gt;Node40 -->
<g id="edge46" class="edge">
<title>Node34&#45;&gt;Node40</title>
<path fill="none" stroke="midnightblue" d="M666.25,-224.44C637.06,-215.28 590.58,-200.69 558.19,-190.52"/>
<polygon fill="midnightblue" stroke="midnightblue" points="559.22,-187.17 548.63,-187.52 557.12,-193.85 559.22,-187.17"/>
</g>
<!-- Node35&#45;&gt;Node6 -->
<g id="edge44" class="edge">
<title>Node35&#45;&gt;Node6</title>
<path fill="none" stroke="midnightblue" d="M624.55,-168.08C620.4,-160.61 614.35,-149.72 609.23,-140.52"/>
<polygon fill="midnightblue" stroke="midnightblue" points="612.28,-138.79 604.36,-131.75 606.16,-142.19 612.28,-138.79"/>
</g>
<!-- Node36 -->
<g id="node34" class="node">
<title>Node36</title>
<g id="a_node34"><a xlink:title=" ">
<polygon fill="white" stroke="#bfbfbf" points="641.5,-112.5 641.5,-131.5 679.5,-131.5 679.5,-112.5 641.5,-112.5"/>
<text text-anchor="middle" x="660.5" y="-119.5" font-family="Helvetica,sans-Serif" font-size="10.00">map</text>
</a>
</g>
</g>
<!-- Node35&#45;&gt;Node36 -->
<g id="edge45" class="edge">
<title>Node35&#45;&gt;Node36</title>
<path fill="none" stroke="midnightblue" d="M634.62,-168.08C638.91,-160.61 645.16,-149.72 650.44,-140.52"/>
<polygon fill="midnightblue" stroke="midnightblue" points="653.53,-142.17 655.48,-131.75 647.46,-138.68 653.53,-142.17"/>
</g>
<!-- Node43&#45;&gt;Node9 -->
<g id="edge51" class="edge">
<title>Node43&#45;&gt;Node9</title>
<path fill="none" stroke="midnightblue" d="M931.5,-224.31C954.39,-213 987.19,-191.87 974.5,-168 949.01,-120.05 889.97,-92.55 849.39,-78.69"/>
<polygon fill="midnightblue" stroke="midnightblue" points="850.35,-75.32 839.75,-75.53 848.17,-81.97 850.35,-75.32"/>
</g>
<!-- Node43&#45;&gt;Node20 -->
<g id="edge50" class="edge">
<title>Node43&#45;&gt;Node20</title>
<path fill="none" stroke="midnightblue" d="M890.43,-224.44C868.44,-215.52 833.77,-201.44 808.84,-191.32"/>
<polygon fill="midnightblue" stroke="midnightblue" points="810.06,-188.04 799.48,-187.52 807.42,-194.52 810.06,-188.04"/>
</g>
<!-- Node44 -->
<g id="node39" class="node">
<title>Node44</title>
<g id="a_node39"><a xlink:title=" ">
<polygon fill="white" stroke="#bfbfbf" points="877,-168.5 877,-187.5 966,-187.5 966,-168.5 877,-168.5"/>
<text text-anchor="middle" x="921.5" y="-175.5" font-family="Helvetica,sans-Serif" font-size="10.00">impl/Morse.ipp</text>
</a>
</g>
</g>
<!-- Node43&#45;&gt;Node44 -->
<g id="edge52" class="edge">
<title>Node43&#45;&gt;Node44</title>
<path fill="none" stroke="midnightblue" d="M913.15,-224.08C914.48,-216.93 916.38,-206.64 918.04,-197.69"/>
<polygon fill="midnightblue" stroke="midnightblue" points="921.5,-198.22 919.88,-187.75 914.62,-196.95 921.5,-198.22"/>
</g>
<!-- Node48 -->
<g id="node43" class="node">
<title>Node48</title>
<g id="a_node43"><a xlink:href="Graph_8hpp.html" target="_top" xlink:title="Contains the classes mackey::Neighborhood, mackey::Graph, mackey::ShortestPaths.">
<polygon fill="white" stroke="black" points="1115,-504.5 1115,-523.5 1182,-523.5 1182,-504.5 1115,-504.5"/>
<text text-anchor="middle" x="1148.5" y="-511.5" font-family="Helvetica,sans-Serif" font-size="10.00">Graph.hpp</text>
</a>
</g>
</g>
<!-- Node47&#45;&gt;Node48 -->
<g id="edge56" class="edge">
<title>Node47&#45;&gt;Node48</title>
<path fill="none" stroke="midnightblue" d="M1148.5,-560.08C1148.5,-553.01 1148.5,-542.86 1148.5,-533.99"/>
<polygon fill="midnightblue" stroke="midnightblue" points="1152,-533.75 1148.5,-523.75 1145,-533.75 1152,-533.75"/>
</g>
<!-- Node53 -->
<g id="node48" class="node">
<title>Node53</title>
<g id="a_node48"><a xlink:title=" ">
<polygon fill="white" stroke="#bfbfbf" points="1200,-504.5 1200,-523.5 1331,-523.5 1331,-504.5 1200,-504.5"/>
<text text-anchor="middle" x="1265.5" y="-511.5" font-family="Helvetica,sans-Serif" font-size="10.00">impl/Graph_Policies.ipp</text>
</a>
</g>
</g>
<!-- Node47&#45;&gt;Node53 -->
<g id="edge62" class="edge">
<title>Node47&#45;&gt;Node53</title>
<path fill="none" stroke="midnightblue" d="M1167.04,-560.44C1186.12,-551.64 1216.07,-537.81 1237.94,-527.72"/>
<polygon fill="midnightblue" stroke="midnightblue" points="1239.43,-530.88 1247.05,-523.52 1236.5,-524.53 1239.43,-530.88"/>
</g>
<!-- Node48&#45;&gt;Node6 -->
<g id="edge57" class="edge">
<title>Node48&#45;&gt;Node6</title>
<path fill="none" stroke="midnightblue" d="M1114.93,-505.08C1093.92,-498.47 1067.84,-487 1051.5,-468 1031.87,-445.18 1032.5,-433.1 1032.5,-403 1032.5,-403 1032.5,-403 1032.5,-233 1032.5,-194.28 1008.96,-185.66 974.5,-168 841.4,-99.79 785.15,-157.6 633.33,-131.78"/>
<polygon fill="midnightblue" stroke="midnightblue" points="633.65,-128.28 623.19,-129.95 632.41,-135.17 633.65,-128.28"/>
</g>
<!-- Node49 -->
<g id="node44" class="node">
<title>Node49</title>
<g id="a_node44"><a xlink:title=" ">
<polygon fill="white" stroke="#bfbfbf" points="1168,-448.5 1168,-467.5 1215,-467.5 1215,-448.5 1168,-448.5"/>
<text text-anchor="middle" x="1191.5" y="-455.5" font-family="Helvetica,sans-Serif" font-size="10.00">queue</text>
</a>
</g>
</g>
<!-- Node48&#45;&gt;Node49 -->
<g id="edge58" class="edge">
<title>Node48&#45;&gt;Node49</title>
<path fill="none" stroke="midnightblue" d="M1155.6,-504.08C1161.74,-496.38 1170.77,-485.03 1178.24,-475.65"/>
<polygon fill="midnightblue" stroke="midnightblue" points="1181.04,-477.75 1184.53,-467.75 1175.56,-473.39 1181.04,-477.75"/>
</g>
<!-- Node50 -->
<g id="node45" class="node">
<title>Node50</title>
<g id="a_node45"><a xlink:title=" ">
<polygon fill="white" stroke="#bfbfbf" points="1233.5,-448.5 1233.5,-467.5 1265.5,-467.5 1265.5,-448.5 1233.5,-448.5"/>
<text text-anchor="middle" x="1249.5" y="-455.5" font-family="Helvetica,sans-Serif" font-size="10.00">set</text>
</a>
</g>
</g>
<!-- Node48&#45;&gt;Node50 -->
<g id="edge59" class="edge">
<title>Node48&#45;&gt;Node50</title>
<path fill="none" stroke="midnightblue" d="M1164.73,-504.32C1180.85,-495.7 1205.8,-482.36 1224.46,-472.39"/>
<polygon fill="midnightblue" stroke="midnightblue" points="1226.14,-475.46 1233.31,-467.65 1222.84,-469.28 1226.14,-475.46"/>
</g>
<!-- Node51 -->
<g id="node46" class="node">
<title>Node51</title>
<g id="a_node46"><a xlink:title=" ">
<polygon fill="white" stroke="#bfbfbf" points="1283.5,-448.5 1283.5,-467.5 1339.5,-467.5 1339.5,-448.5 1283.5,-448.5"/>
<text text-anchor="middle" x="1311.5" y="-455.5" font-family="Helvetica,sans-Serif" font-size="10.00">iomanip</text>
</a>
</g>
</g>
<!-- Node48&#45;&gt;Node51 -->
<g id="edge60" class="edge">
<title>Node48&#45;&gt;Node51</title>
<path fill="none" stroke="midnightblue" d="M1174.33,-504.44C1201.75,-495.36 1245.28,-480.94 1275.93,-470.78"/>
<polygon fill="midnightblue" stroke="midnightblue" points="1277.4,-473.98 1285.79,-467.52 1275.2,-467.34 1277.4,-473.98"/>
</g>
<!-- Node52 -->
<g id="node47" class="node">
<title>Node52</title>
<g id="a_node47"><a xlink:title=" ">
<polygon fill="white" stroke="#bfbfbf" points="1061,-448.5 1061,-467.5 1150,-467.5 1150,-448.5 1061,-448.5"/>
<text text-anchor="middle" x="1105.5" y="-455.5" font-family="Helvetica,sans-Serif" font-size="10.00">impl/Graph.ipp</text>
</a>
</g>
</g>
<!-- Node48&#45;&gt;Node52 -->
<g id="edge61" class="edge">
<title>Node48&#45;&gt;Node52</title>
<path fill="none" stroke="midnightblue" d="M1141.4,-504.08C1135.26,-496.38 1126.23,-485.03 1118.76,-475.65"/>
<polygon fill="midnightblue" stroke="midnightblue" points="1121.44,-473.39 1112.47,-467.75 1115.96,-477.75 1121.44,-473.39"/>
</g>
</g>
</svg>
