<?xml version="1.0" encoding="UTF-8" standalone="no"?>
<!DOCTYPE svg PUBLIC "-//W3C//DTD SVG 1.1//EN"
 "http://www.w3.org/Graphics/SVG/1.1/DTD/svg11.dtd">
<!-- Generated by graphviz version 2.43.0 (0)
 -->
<!-- Title: Mult_Connectivity.hpp Pages: 1 -->
<!--zoomable 700 -->
<svg id="main" version="1.1" xmlns="http://www.w3.org/2000/svg" xmlns:xlink="http://www.w3.org/1999/xlink" xml:space="preserve" onload="init(evt)">
<style type="text/css"><![CDATA[
.edge:hover path { stroke: red; }
.edge:hover polygon { stroke: red; fill: red; }
]]></style>
<script type="text/javascript"><![CDATA[
var edges = document.getElementsByTagName('g');
if (edges && edges.length) {
  for (var i=0;i<edges.length;i++) {
    if (edges[i].id.substr(0,4)=='edge') {
      edges[i].setAttribute('class','edge');
    }
  }
}
]]></script>
        <defs>
                <circle id="rim" cx="0" cy="0" r="7"/>
                <circle id="rim2" cx="0" cy="0" r="3.5"/>
                <g id="zoomPlus">
                        <use xlink:href="#rim" fill="#404040">
                                <set attributeName="fill" to="#808080" begin="zoomplus.mouseover" end="zoomplus.mouseout"/>
                        </use>
                        <path d="M-4,0h8M0,-4v8" fill="none" stroke="white" stroke-width="1.5" pointer-events="none"/>
                </g>
                <g id="zoomMin">
                        <use xlink:href="#rim" fill="#404040">
                                <set attributeName="fill" to="#808080" begin="zoomminus.mouseover" end="zoomminus.mouseout"/>
                        </use>
                        <path d="M-4,0h8" fill="none" stroke="white" stroke-width="1.5" pointer-events="none"/>
                </g>
                <g id="dirArrow">
                        <path fill="none" stroke="white" stroke-width="1.5" d="M0,-3.0v7 M-2.5,-0.5L0,-3.0L2.5,-0.5"/>
                </g>
               <g id="resetDef">
                       <use xlink:href="#rim2" fill="#404040">
                               <set attributeName="fill" to="#808080" begin="reset.mouseover" end="reset.mouseout"/>
                       </use>
               </g>
        </defs>

<script type="text/javascript">
var viewWidth = 1265;
var viewHeight = 700;
var sectionId = 'dynsection-0';
</script>
<script xlink:href="svgpan.js"/>
<svg id="graph" class="graph">
<g id="viewport">
<title>Mult_Connectivity.hpp</title>
<polygon fill="white" stroke="transparent" points="-4,4 -4,-696 1260.5,-696 1260.5,4 -4,4"/>
<!-- Node1 -->
<g id="node1" class="node">
<title>Node1</title>
<g id="a_node1"><a xlink:title="Contains methods for the finding the connectivity of the multiplication graph should identification f...">
<polygon fill="#bfbfbf" stroke="black" points="1052,-672.5 1052,-691.5 1177,-691.5 1177,-672.5 1052,-672.5"/>
<text text-anchor="middle" x="1114.5" y="-679.5" font-family="Helvetica,sans-Serif" font-size="10.00">Mult_Connectivity.hpp</text>
</a>
</g>
</g>
<!-- Node2 -->
<g id="node2" class="node">
<title>Node2</title>
<g id="a_node2"><a xlink:href="Mult__Graph_8hpp.html" target="_top" xlink:title="Contains the multiplication graph.">
<polygon fill="white" stroke="black" points="998.5,-616.5 998.5,-635.5 1092.5,-635.5 1092.5,-616.5 998.5,-616.5"/>
<text text-anchor="middle" x="1045.5" y="-623.5" font-family="Helvetica,sans-Serif" font-size="10.00">Mult_Graph.hpp</text>
</a>
</g>
</g>
<!-- Node1&#45;&gt;Node2 -->
<g id="edge1" class="edge">
<title>Node1&#45;&gt;Node2</title>
<path fill="none" stroke="midnightblue" d="M1103.41,-672.32C1093.01,-664.18 1077.24,-651.84 1064.78,-642.09"/>
<polygon fill="midnightblue" stroke="midnightblue" points="1066.82,-639.24 1056.79,-635.83 1062.51,-644.75 1066.82,-639.24"/>
</g>
<!-- Node53 -->
<g id="node50" class="node">
<title>Node53</title>
<g id="a_node50"><a xlink:title=" ">
<polygon fill="white" stroke="#bfbfbf" points="1110.5,-616.5 1110.5,-635.5 1256.5,-635.5 1256.5,-616.5 1110.5,-616.5"/>
<text text-anchor="middle" x="1183.5" y="-623.5" font-family="Helvetica,sans-Serif" font-size="10.00">impl/Mult_Connectivity.ipp</text>
</a>
</g>
</g>
<!-- Node1&#45;&gt;Node53 -->
<g id="edge65" class="edge">
<title>Node1&#45;&gt;Node53</title>
<path fill="none" stroke="midnightblue" d="M1125.59,-672.32C1135.99,-664.18 1151.76,-651.84 1164.22,-642.09"/>
<polygon fill="midnightblue" stroke="midnightblue" points="1166.49,-644.75 1172.21,-635.83 1162.18,-639.24 1166.49,-644.75"/>
</g>
<!-- Node3 -->
<g id="node3" class="node">
<title>Node3</title>
<g id="a_node3"><a xlink:href="Mult__Table_8hpp.html" target="_top" xlink:title="Contains the classes mackey::MultTableData and mackey::MultTable that form the multiplication table.">
<polygon fill="white" stroke="black" points="602.5,-560.5 602.5,-579.5 692.5,-579.5 692.5,-560.5 602.5,-560.5"/>
<text text-anchor="middle" x="647.5" y="-567.5" font-family="Helvetica,sans-Serif" font-size="10.00">Mult_Table.hpp</text>
</a>
</g>
</g>
<!-- Node2&#45;&gt;Node3 -->
<g id="edge2" class="edge">
<title>Node2&#45;&gt;Node3</title>
<path fill="none" stroke="midnightblue" d="M998.28,-618.59C924.28,-608.55 781.35,-589.16 702.71,-578.49"/>
<polygon fill="midnightblue" stroke="midnightblue" points="702.9,-574.98 692.52,-577.11 701.95,-581.92 702.9,-574.98"/>
</g>
<!-- Node47 -->
<g id="node44" class="node">
<title>Node47</title>
<g id="a_node44"><a xlink:href="Graph_8hpp.html" target="_top" xlink:title=" ">
<polygon fill="white" stroke="black" points="956.5,-560.5 956.5,-579.5 1056.5,-579.5 1056.5,-560.5 956.5,-560.5"/>
<text text-anchor="middle" x="1006.5" y="-567.5" font-family="Helvetica,sans-Serif" font-size="10.00">Utility/Graph.hpp</text>
</a>
</g>
</g>
<!-- Node2&#45;&gt;Node47 -->
<g id="edge57" class="edge">
<title>Node2&#45;&gt;Node47</title>
<path fill="none" stroke="midnightblue" d="M1039.06,-616.08C1033.55,-608.46 1025.47,-597.26 1018.74,-587.94"/>
<polygon fill="midnightblue" stroke="midnightblue" points="1021.51,-585.81 1012.82,-579.75 1015.84,-589.91 1021.51,-585.81"/>
</g>
<!-- Node49 -->
<g id="node46" class="node">
<title>Node49</title>
<g id="a_node46"><a xlink:title=" ">
<polygon fill="white" stroke="#bfbfbf" points="1090.5,-504.5 1090.5,-523.5 1122.5,-523.5 1122.5,-504.5 1090.5,-504.5"/>
<text text-anchor="middle" x="1106.5" y="-511.5" font-family="Helvetica,sans-Serif" font-size="10.00">set</text>
</a>
</g>
</g>
<!-- Node2&#45;&gt;Node49 -->
<g id="edge63" class="edge">
<title>Node2&#45;&gt;Node49</title>
<path fill="none" stroke="midnightblue" d="M1050.29,-616.37C1060.26,-598.38 1083.46,-556.55 1096.73,-532.63"/>
<polygon fill="midnightblue" stroke="midnightblue" points="1099.95,-534.03 1101.74,-523.59 1093.83,-530.64 1099.95,-534.03"/>
</g>
<!-- Node52 -->
<g id="node49" class="node">
<title>Node52</title>
<g id="a_node49"><a xlink:title=" ">
<polygon fill="white" stroke="#bfbfbf" points="1112.5,-560.5 1112.5,-579.5 1228.5,-579.5 1228.5,-560.5 1112.5,-560.5"/>
<text text-anchor="middle" x="1170.5" y="-567.5" font-family="Helvetica,sans-Serif" font-size="10.00">impl/Mult_Graph.ipp</text>
</a>
</g>
</g>
<!-- Node2&#45;&gt;Node52 -->
<g id="edge64" class="edge">
<title>Node2&#45;&gt;Node52</title>
<path fill="none" stroke="midnightblue" d="M1065.31,-616.44C1085.79,-607.6 1117.98,-593.69 1141.36,-583.59"/>
<polygon fill="midnightblue" stroke="midnightblue" points="1142.99,-586.7 1150.79,-579.52 1140.22,-580.27 1142.99,-586.7"/>
</g>
<!-- Node4 -->
<g id="node4" class="node">
<title>Node4</title>
<g id="a_node4"><a xlink:href="OpenMP__Macros_8hpp.html" target="_top" xlink:title="Contains open MP macros if multithreading is desired in this library.">
<polygon fill="white" stroke="black" points="349.5,-504.5 349.5,-523.5 501.5,-523.5 501.5,-504.5 349.5,-504.5"/>
<text text-anchor="middle" x="425.5" y="-511.5" font-family="Helvetica,sans-Serif" font-size="10.00">Utility/OpenMP_Macros.hpp</text>
</a>
</g>
</g>
<!-- Node3&#45;&gt;Node4 -->
<g id="edge3" class="edge">
<title>Node3&#45;&gt;Node4</title>
<path fill="none" stroke="midnightblue" d="M612.32,-560.44C573.92,-551.1 512.32,-536.12 470.44,-525.93"/>
<polygon fill="midnightblue" stroke="midnightblue" points="471.06,-522.48 460.51,-523.52 469.4,-529.28 471.06,-522.48"/>
</g>
<!-- Node5 -->
<g id="node5" class="node">
<title>Node5</title>
<g id="a_node5"><a xlink:href="General_8hpp.html" target="_top" xlink:title="Contains general functions and vector overloads independent of everything else.">
<polygon fill="white" stroke="black" points="482,-168.5 482,-187.5 591,-187.5 591,-168.5 482,-168.5"/>
<text text-anchor="middle" x="536.5" y="-175.5" font-family="Helvetica,sans-Serif" font-size="10.00">Utility/General.hpp</text>
</a>
</g>
</g>
<!-- Node3&#45;&gt;Node5 -->
<g id="edge4" class="edge">
<title>Node3&#45;&gt;Node5</title>
<path fill="none" stroke="midnightblue" d="M650.52,-560.4C657.11,-540.46 671.47,-489.59 662.5,-448 640.56,-346.26 574.9,-237.75 548.09,-196.38"/>
<polygon fill="midnightblue" stroke="midnightblue" points="550.85,-194.2 542.44,-187.76 545,-198.04 550.85,-194.2"/>
</g>
<!-- Node15 -->
<g id="node15" class="node">
<title>Node15</title>
<g id="a_node15"><a xlink:href="Point_8hpp.html" target="_top" xlink:title="Contains the computations for RO(G) homology of a point.">
<polygon fill="white" stroke="black" points="519.5,-504.5 519.5,-523.5 619.5,-523.5 619.5,-504.5 519.5,-504.5"/>
<text text-anchor="middle" x="569.5" y="-511.5" font-family="Helvetica,sans-Serif" font-size="10.00">Spaces/Point.hpp</text>
</a>
</g>
</g>
<!-- Node3&#45;&gt;Node15 -->
<g id="edge14" class="edge">
<title>Node3&#45;&gt;Node15</title>
<path fill="none" stroke="midnightblue" d="M634.97,-560.32C622.91,-551.98 604.47,-539.21 590.23,-529.35"/>
<polygon fill="midnightblue" stroke="midnightblue" points="592.22,-526.47 582,-523.65 588.23,-532.22 592.22,-526.47"/>
</g>
<!-- Node46 -->
<g id="node43" class="node">
<title>Node46</title>
<g id="a_node43"><a xlink:title=" ">
<polygon fill="white" stroke="#bfbfbf" points="675.5,-504.5 675.5,-523.5 787.5,-523.5 787.5,-504.5 675.5,-504.5"/>
<text text-anchor="middle" x="731.5" y="-511.5" font-family="Helvetica,sans-Serif" font-size="10.00">impl/Mult_Table.ipp</text>
</a>
</g>
</g>
<!-- Node3&#45;&gt;Node46 -->
<g id="edge56" class="edge">
<title>Node3&#45;&gt;Node46</title>
<path fill="none" stroke="midnightblue" d="M661,-560.32C674.1,-551.9 694.21,-538.97 709.61,-529.07"/>
<polygon fill="midnightblue" stroke="midnightblue" points="711.52,-532.01 718.04,-523.65 707.73,-526.12 711.52,-532.01"/>
</g>
<!-- Node6 -->
<g id="node6" class="node">
<title>Node6</title>
<g id="a_node6"><a xlink:title=" ">
<polygon fill="white" stroke="#bfbfbf" points="721,-112.5 721,-131.5 768,-131.5 768,-112.5 721,-112.5"/>
<text text-anchor="middle" x="744.5" y="-119.5" font-family="Helvetica,sans-Serif" font-size="10.00">vector</text>
</a>
</g>
</g>
<!-- Node5&#45;&gt;Node6 -->
<g id="edge5" class="edge">
<title>Node5&#45;&gt;Node6</title>
<path fill="none" stroke="midnightblue" d="M569.46,-168.44C608.16,-158.4 671.99,-141.83 710.94,-131.71"/>
<polygon fill="midnightblue" stroke="midnightblue" points="711.95,-135.07 720.75,-129.16 710.2,-128.29 711.95,-135.07"/>
</g>
<!-- Node7 -->
<g id="node7" class="node">
<title>Node7</title>
<g id="a_node7"><a xlink:href="Aliases_8hpp.html" target="_top" xlink:title="Contains general template aliases.">
<polygon fill="white" stroke="black" points="594.5,-112.5 594.5,-131.5 698.5,-131.5 698.5,-112.5 594.5,-112.5"/>
<text text-anchor="middle" x="646.5" y="-119.5" font-family="Helvetica,sans-Serif" font-size="10.00">Types/Aliases.hpp</text>
</a>
</g>
</g>
<!-- Node5&#45;&gt;Node7 -->
<g id="edge6" class="edge">
<title>Node5&#45;&gt;Node7</title>
<path fill="none" stroke="midnightblue" d="M554.17,-168.32C571.89,-159.62 599.4,-146.12 619.79,-136.11"/>
<polygon fill="midnightblue" stroke="midnightblue" points="621.44,-139.2 628.87,-131.65 618.35,-132.92 621.44,-139.2"/>
</g>
<!-- Node12 -->
<g id="node12" class="node">
<title>Node12</title>
<g id="a_node12"><a xlink:title=" ">
<polygon fill="white" stroke="#bfbfbf" points="172.5,-112.5 172.5,-131.5 228.5,-131.5 228.5,-112.5 172.5,-112.5"/>
<text text-anchor="middle" x="200.5" y="-119.5" font-family="Helvetica,sans-Serif" font-size="10.00">numeric</text>
</a>
</g>
</g>
<!-- Node5&#45;&gt;Node12 -->
<g id="edge11" class="edge">
<title>Node5&#45;&gt;Node12</title>
<path fill="none" stroke="midnightblue" d="M483.26,-168.44C415.18,-157.5 298.94,-138.82 238.9,-129.17"/>
<polygon fill="midnightblue" stroke="midnightblue" points="239.15,-125.67 228.72,-127.54 238.04,-132.58 239.15,-125.67"/>
</g>
<!-- Node13 -->
<g id="node13" class="node">
<title>Node13</title>
<g id="a_node13"><a xlink:title=" ">
<polygon fill="white" stroke="#bfbfbf" points="333.5,-112.5 333.5,-131.5 393.5,-131.5 393.5,-112.5 333.5,-112.5"/>
<text text-anchor="middle" x="363.5" y="-119.5" font-family="Helvetica,sans-Serif" font-size="10.00">iostream</text>
</a>
</g>
</g>
<!-- Node5&#45;&gt;Node13 -->
<g id="edge12" class="edge">
<title>Node5&#45;&gt;Node13</title>
<path fill="none" stroke="midnightblue" d="M509.09,-168.44C479.73,-159.28 432.98,-144.69 400.4,-134.52"/>
<polygon fill="midnightblue" stroke="midnightblue" points="401.37,-131.16 390.78,-131.52 399.29,-137.84 401.37,-131.16"/>
</g>
<!-- Node14 -->
<g id="node14" class="node">
<title>Node14</title>
<g id="a_node14"><a xlink:title=" ">
<polygon fill="white" stroke="#bfbfbf" points="478.5,-112.5 478.5,-131.5 576.5,-131.5 576.5,-112.5 478.5,-112.5"/>
<text text-anchor="middle" x="527.5" y="-119.5" font-family="Helvetica,sans-Serif" font-size="10.00">impl/General.ipp</text>
</a>
</g>
</g>
<!-- Node5&#45;&gt;Node14 -->
<g id="edge13" class="edge">
<title>Node5&#45;&gt;Node14</title>
<path fill="none" stroke="midnightblue" d="M535.01,-168.08C533.82,-160.93 532.11,-150.64 530.62,-141.69"/>
<polygon fill="midnightblue" stroke="midnightblue" points="534.05,-141.04 528.96,-131.75 527.15,-142.19 534.05,-141.04"/>
</g>
<!-- Node8 -->
<g id="node8" class="node">
<title>Node8</title>
<g id="a_node8"><a xlink:title=" ">
<polygon fill="white" stroke="#bfbfbf" points="654,-56.5 654,-75.5 731,-75.5 731,-56.5 654,-56.5"/>
<text text-anchor="middle" x="692.5" y="-63.5" font-family="Helvetica,sans-Serif" font-size="10.00">Eigen/Dense</text>
</a>
</g>
</g>
<!-- Node7&#45;&gt;Node8 -->
<g id="edge7" class="edge">
<title>Node7&#45;&gt;Node8</title>
<path fill="none" stroke="midnightblue" d="M654.1,-112.08C660.73,-104.3 670.52,-92.8 678.56,-83.37"/>
<polygon fill="midnightblue" stroke="midnightblue" points="681.23,-85.63 685.05,-75.75 675.9,-81.09 681.23,-85.63"/>
</g>
<!-- Node9 -->
<g id="node9" class="node">
<title>Node9</title>
<g id="a_node9"><a xlink:title=" ">
<polygon fill="white" stroke="#bfbfbf" points="1001.5,-56.5 1001.5,-75.5 1081.5,-75.5 1081.5,-56.5 1001.5,-56.5"/>
<text text-anchor="middle" x="1041.5" y="-63.5" font-family="Helvetica,sans-Serif" font-size="10.00">Eigen/Sparse</text>
</a>
</g>
</g>
<!-- Node7&#45;&gt;Node9 -->
<g id="edge8" class="edge">
<title>Node7&#45;&gt;Node9</title>
<path fill="none" stroke="midnightblue" d="M698.65,-113.77C703,-113.17 707.32,-112.57 711.5,-112 810.73,-98.36 926.78,-82.58 991.44,-73.79"/>
<polygon fill="midnightblue" stroke="midnightblue" points="991.93,-77.26 1001.37,-72.45 990.99,-70.32 991.93,-77.26"/>
</g>
<!-- Node10 -->
<g id="node10" class="node">
<title>Node10</title>
<g id="a_node10"><a xlink:href="SFINAE_8hpp.html" target="_top" xlink:title="Contains all the SFINAE tricks.">
<polygon fill="white" stroke="black" points="563,-56.5 563,-75.5 636,-75.5 636,-56.5 563,-56.5"/>
<text text-anchor="middle" x="599.5" y="-63.5" font-family="Helvetica,sans-Serif" font-size="10.00">SFINAE.hpp</text>
</a>
</g>
</g>
<!-- Node7&#45;&gt;Node10 -->
<g id="edge9" class="edge">
<title>Node7&#45;&gt;Node10</title>
<path fill="none" stroke="midnightblue" d="M638.74,-112.08C631.96,-104.3 621.96,-92.8 613.74,-83.37"/>
<polygon fill="midnightblue" stroke="midnightblue" points="616.32,-81 607.12,-75.75 611.04,-85.59 616.32,-81"/>
</g>
<!-- Node11 -->
<g id="node11" class="node">
<title>Node11</title>
<g id="a_node11"><a xlink:title=" ">
<polygon fill="white" stroke="#bfbfbf" points="565,-0.5 565,-19.5 634,-19.5 634,-0.5 565,-0.5"/>
<text text-anchor="middle" x="599.5" y="-7.5" font-family="Helvetica,sans-Serif" font-size="10.00">type_traits</text>
</a>
</g>
</g>
<!-- Node10&#45;&gt;Node11 -->
<g id="edge10" class="edge">
<title>Node10&#45;&gt;Node11</title>
<path fill="none" stroke="midnightblue" d="M599.5,-56.08C599.5,-49.01 599.5,-38.86 599.5,-29.99"/>
<polygon fill="midnightblue" stroke="midnightblue" points="603,-29.75 599.5,-19.75 596,-29.75 603,-29.75"/>
</g>
<!-- Node16 -->
<g id="node16" class="node">
<title>Node16</title>
<g id="a_node16"><a xlink:href="Massey_8hpp.html" target="_top" xlink:title="Contains the class and methods for Massey Products.">
<polygon fill="white" stroke="black" points="390,-448.5 390,-467.5 509,-467.5 509,-448.5 390,-448.5"/>
<text text-anchor="middle" x="449.5" y="-455.5" font-family="Helvetica,sans-Serif" font-size="10.00">Products/Massey.hpp</text>
</a>
</g>
</g>
<!-- Node15&#45;&gt;Node16 -->
<g id="edge15" class="edge">
<title>Node15&#45;&gt;Node16</title>
<path fill="none" stroke="midnightblue" d="M550.49,-504.44C530.91,-495.64 500.19,-481.81 477.77,-471.72"/>
<polygon fill="midnightblue" stroke="midnightblue" points="478.98,-468.43 468.43,-467.52 476.11,-474.81 478.98,-468.43"/>
</g>
<!-- Node43 -->
<g id="node40" class="node">
<title>Node43</title>
<g id="a_node40"><a xlink:href="Morse_8hpp.html" target="_top" xlink:title="Contains classes for (equivariant) Algebraic Morse Theory.">
<polygon fill="white" stroke="black" points="1037.5,-224.5 1037.5,-243.5 1195.5,-243.5 1195.5,-224.5 1037.5,-224.5"/>
<text text-anchor="middle" x="1116.5" y="-231.5" font-family="Helvetica,sans-Serif" font-size="10.00">Chain_Complexes/Morse.hpp</text>
</a>
</g>
</g>
<!-- Node15&#45;&gt;Node43 -->
<g id="edge51" class="edge">
<title>Node15&#45;&gt;Node43</title>
<path fill="none" stroke="midnightblue" d="M580.68,-504.36C597.9,-491.27 632.2,-466.01 663.5,-448 816.32,-360.04 1011.45,-277.72 1085.83,-247.34"/>
<polygon fill="midnightblue" stroke="midnightblue" points="1087.16,-250.58 1095.11,-243.57 1084.52,-244.09 1087.16,-250.58"/>
</g>
<!-- Node45 -->
<g id="node42" class="node">
<title>Node45</title>
<g id="a_node42"><a xlink:title=" ">
<polygon fill="white" stroke="#bfbfbf" points="527.5,-448.5 527.5,-467.5 611.5,-467.5 611.5,-448.5 527.5,-448.5"/>
<text text-anchor="middle" x="569.5" y="-455.5" font-family="Helvetica,sans-Serif" font-size="10.00">impl/Point.ipp</text>
</a>
</g>
</g>
<!-- Node15&#45;&gt;Node45 -->
<g id="edge55" class="edge">
<title>Node15&#45;&gt;Node45</title>
<path fill="none" stroke="midnightblue" d="M569.5,-504.08C569.5,-497.01 569.5,-486.86 569.5,-477.99"/>
<polygon fill="midnightblue" stroke="midnightblue" points="573,-477.75 569.5,-467.75 566,-477.75 573,-477.75"/>
</g>
<!-- Node17 -->
<g id="node17" class="node">
<title>Node17</title>
<g id="a_node17"><a xlink:href="Green_8hpp.html" target="_top" xlink:title="Contains the class and methods for multiplying generators.">
<polygon fill="white" stroke="black" points="439,-392.5 439,-411.5 506,-411.5 506,-392.5 439,-392.5"/>
<text text-anchor="middle" x="472.5" y="-399.5" font-family="Helvetica,sans-Serif" font-size="10.00">Green.hpp</text>
</a>
</g>
</g>
<!-- Node16&#45;&gt;Node17 -->
<g id="edge16" class="edge">
<title>Node16&#45;&gt;Node17</title>
<path fill="none" stroke="midnightblue" d="M453.3,-448.08C456.41,-440.77 460.92,-430.18 464.79,-421.1"/>
<polygon fill="midnightblue" stroke="midnightblue" points="468.07,-422.32 468.77,-411.75 461.63,-419.58 468.07,-422.32"/>
</g>
<!-- Node42 -->
<g id="node39" class="node">
<title>Node42</title>
<g id="a_node39"><a xlink:title=" ">
<polygon fill="white" stroke="#bfbfbf" points="326,-392.5 326,-411.5 421,-411.5 421,-392.5 326,-392.5"/>
<text text-anchor="middle" x="373.5" y="-399.5" font-family="Helvetica,sans-Serif" font-size="10.00">impl/Massey.ipp</text>
</a>
</g>
</g>
<!-- Node16&#45;&gt;Node42 -->
<g id="edge50" class="edge">
<title>Node16&#45;&gt;Node42</title>
<path fill="none" stroke="midnightblue" d="M437.29,-448.32C425.72,-440.11 408.12,-427.6 394.34,-417.81"/>
<polygon fill="midnightblue" stroke="midnightblue" points="396.11,-414.77 385.93,-411.83 392.06,-420.48 396.11,-414.77"/>
</g>
<!-- Node18 -->
<g id="node18" class="node">
<title>Node18</title>
<g id="a_node18"><a xlink:href="Levels_8hpp.html" target="_top" xlink:title="Contains the methods for transfering, restricting and act&#45;group&#45;acting.">
<polygon fill="white" stroke="black" points="417.5,-336.5 417.5,-355.5 573.5,-355.5 573.5,-336.5 417.5,-336.5"/>
<text text-anchor="middle" x="495.5" y="-343.5" font-family="Helvetica,sans-Serif" font-size="10.00">Mackey_Functors/Levels.hpp</text>
</a>
</g>
</g>
<!-- Node17&#45;&gt;Node18 -->
<g id="edge17" class="edge">
<title>Node17&#45;&gt;Node18</title>
<path fill="none" stroke="midnightblue" d="M476.3,-392.08C479.41,-384.77 483.92,-374.18 487.79,-365.1"/>
<polygon fill="midnightblue" stroke="midnightblue" points="491.07,-366.32 491.77,-355.75 484.63,-363.58 491.07,-366.32"/>
</g>
<!-- Node29 -->
<g id="node27" class="node">
<title>Node29</title>
<g id="a_node27"><a xlink:href="Identify_8hpp.html" target="_top" xlink:title="Contains the identification classes.">
<polygon fill="white" stroke="black" points="131.5,-336.5 131.5,-355.5 291.5,-355.5 291.5,-336.5 131.5,-336.5"/>
<text text-anchor="middle" x="211.5" y="-343.5" font-family="Helvetica,sans-Serif" font-size="10.00">Mackey_Functors/Identify.hpp</text>
</a>
</g>
</g>
<!-- Node17&#45;&gt;Node29 -->
<g id="edge31" class="edge">
<title>Node17&#45;&gt;Node29</title>
<path fill="none" stroke="midnightblue" d="M438.7,-393.92C435.59,-393.27 432.49,-392.62 429.5,-392 372.46,-380.14 307,-366.65 262.82,-357.55"/>
<polygon fill="midnightblue" stroke="midnightblue" points="263.39,-354.1 252.89,-355.51 261.98,-360.95 263.39,-354.1"/>
</g>
<!-- Node34 -->
<g id="node32" class="node">
<title>Node34</title>
<g id="a_node32"><a xlink:href="Box_8hpp.html" target="_top" xlink:title="Contains the construction of box products of Chains.">
<polygon fill="white" stroke="black" points="665.5,-224.5 665.5,-243.5 811.5,-243.5 811.5,-224.5 665.5,-224.5"/>
<text text-anchor="middle" x="738.5" y="-231.5" font-family="Helvetica,sans-Serif" font-size="10.00">Chain_Complexes/Box.hpp</text>
</a>
</g>
</g>
<!-- Node17&#45;&gt;Node34 -->
<g id="edge40" class="edge">
<title>Node17&#45;&gt;Node34</title>
<path fill="none" stroke="midnightblue" d="M499.22,-392.37C522.1,-384.44 555.52,-371.59 582.5,-356 637.36,-324.29 694.34,-275.28 721.77,-250.49"/>
<polygon fill="midnightblue" stroke="midnightblue" points="724.27,-252.94 729.3,-243.62 719.55,-247.77 724.27,-252.94"/>
</g>
<!-- Node41 -->
<g id="node38" class="node">
<title>Node41</title>
<g id="a_node38"><a xlink:title=" ">
<polygon fill="white" stroke="#bfbfbf" points="310,-336.5 310,-355.5 399,-355.5 399,-336.5 310,-336.5"/>
<text text-anchor="middle" x="354.5" y="-343.5" font-family="Helvetica,sans-Serif" font-size="10.00">impl/Green.ipp</text>
</a>
</g>
</g>
<!-- Node17&#45;&gt;Node41 -->
<g id="edge49" class="edge">
<title>Node17&#45;&gt;Node41</title>
<path fill="none" stroke="midnightblue" d="M453.8,-392.44C434.56,-383.64 404.35,-369.81 382.3,-359.72"/>
<polygon fill="midnightblue" stroke="midnightblue" points="383.66,-356.5 373.11,-355.52 380.75,-362.86 383.66,-356.5"/>
</g>
<!-- Node19 -->
<g id="node19" class="node">
<title>Node19</title>
<g id="a_node19"><a xlink:href="Homology_8hpp.html" target="_top" xlink:title="Contains the Homology class and algorithms.">
<polygon fill="white" stroke="black" points="328.5,-280.5 328.5,-299.5 468.5,-299.5 468.5,-280.5 328.5,-280.5"/>
<text text-anchor="middle" x="398.5" y="-287.5" font-family="Helvetica,sans-Serif" font-size="10.00">Homology/Homology.hpp</text>
</a>
</g>
</g>
<!-- Node18&#45;&gt;Node19 -->
<g id="edge18" class="edge">
<title>Node18&#45;&gt;Node19</title>
<path fill="none" stroke="midnightblue" d="M479.92,-336.32C464.5,-327.74 440.69,-314.49 422.79,-304.52"/>
<polygon fill="midnightblue" stroke="midnightblue" points="424.49,-301.46 414.05,-299.65 421.08,-307.58 424.49,-301.46"/>
</g>
<!-- Node28 -->
<g id="node26" class="node">
<title>Node28</title>
<g id="a_node26"><a xlink:title=" ">
<polygon fill="white" stroke="#bfbfbf" points="487,-280.5 487,-299.5 578,-299.5 578,-280.5 487,-280.5"/>
<text text-anchor="middle" x="532.5" y="-287.5" font-family="Helvetica,sans-Serif" font-size="10.00">impl/Levels.ipp</text>
</a>
</g>
</g>
<!-- Node18&#45;&gt;Node28 -->
<g id="edge30" class="edge">
<title>Node18&#45;&gt;Node28</title>
<path fill="none" stroke="midnightblue" d="M501.61,-336.08C506.78,-328.53 514.35,-317.49 520.69,-308.23"/>
<polygon fill="midnightblue" stroke="midnightblue" points="523.74,-309.98 526.5,-299.75 517.96,-306.02 523.74,-309.98"/>
</g>
<!-- Node19&#45;&gt;Node5 -->
<g id="edge23" class="edge">
<title>Node19&#45;&gt;Node5</title>
<path fill="none" stroke="midnightblue" d="M445.76,-280.46C483.11,-272.64 530.83,-259.88 542.5,-244 552.34,-230.61 548.94,-211.24 544.24,-197.13"/>
<polygon fill="midnightblue" stroke="midnightblue" points="547.42,-195.64 540.59,-187.55 540.88,-198.14 547.42,-195.64"/>
</g>
<!-- Node20 -->
<g id="node20" class="node">
<title>Node20</title>
<g id="a_node20"><a xlink:href="Chains_8hpp.html" target="_top" xlink:title="Contains Chains and Junction classes for using chain complexes.">
<polygon fill="white" stroke="black" points="947,-168.5 947,-187.5 1108,-187.5 1108,-168.5 947,-168.5"/>
<text text-anchor="middle" x="1027.5" y="-175.5" font-family="Helvetica,sans-Serif" font-size="10.00">Chain_Complexes/Chains.hpp</text>
</a>
</g>
</g>
<!-- Node19&#45;&gt;Node20 -->
<g id="edge19" class="edge">
<title>Node19&#45;&gt;Node20</title>
<path fill="none" stroke="midnightblue" d="M468.71,-280.97C471.68,-280.64 474.62,-280.32 477.5,-280 629.87,-263.32 670.41,-275.12 820.5,-244 884.08,-230.82 955.9,-205.91 996.03,-191.05"/>
<polygon fill="midnightblue" stroke="midnightblue" points="997.38,-194.28 1005.52,-187.5 994.93,-187.73 997.38,-194.28"/>
</g>
<!-- Node23 -->
<g id="node23" class="node">
<title>Node23</title>
<g id="a_node23"><a xlink:href="Smith_8hpp.html" target="_top" xlink:title="Contains the base class for all Smith implementations.">
<polygon fill="white" stroke="red" points="609.5,-168.5 609.5,-187.5 675.5,-187.5 675.5,-168.5 609.5,-168.5"/>
<text text-anchor="middle" x="642.5" y="-175.5" font-family="Helvetica,sans-Serif" font-size="10.00">Smith.hpp</text>
</a>
</g>
</g>
<!-- Node19&#45;&gt;Node23 -->
<g id="edge24" class="edge">
<title>Node19&#45;&gt;Node23</title>
<path fill="none" stroke="midnightblue" d="M448.59,-280.47C481.61,-273.58 525.12,-262 560.5,-244 585.87,-231.09 610.9,-209.64 626.51,-194.93"/>
<polygon fill="midnightblue" stroke="midnightblue" points="628.99,-197.4 633.76,-187.94 624.13,-192.36 628.99,-197.4"/>
</g>
<!-- Node25 -->
<g id="node24" class="node">
<title>Node25</title>
<g id="a_node24"><a xlink:href="Abelian_8hpp.html" target="_top" xlink:title="Contains the methods for finding the automorphisms of finitely generated abelian groups.">
<polygon fill="white" stroke="red" points="333.5,-224.5 333.5,-243.5 407.5,-243.5 407.5,-224.5 333.5,-224.5"/>
<text text-anchor="middle" x="370.5" y="-231.5" font-family="Helvetica,sans-Serif" font-size="10.00">Abelian.hpp</text>
</a>
</g>
</g>
<!-- Node19&#45;&gt;Node25 -->
<g id="edge27" class="edge">
<title>Node19&#45;&gt;Node25</title>
<path fill="none" stroke="midnightblue" d="M393.88,-280.08C390.04,-272.69 384.48,-261.95 379.74,-252.81"/>
<polygon fill="midnightblue" stroke="midnightblue" points="382.75,-251.02 375.04,-243.75 376.53,-254.24 382.75,-251.02"/>
</g>
<!-- Node27 -->
<g id="node25" class="node">
<title>Node27</title>
<g id="a_node25"><a xlink:title=" ">
<polygon fill="white" stroke="#bfbfbf" points="425.5,-224.5 425.5,-243.5 533.5,-243.5 533.5,-224.5 425.5,-224.5"/>
<text text-anchor="middle" x="479.5" y="-231.5" font-family="Helvetica,sans-Serif" font-size="10.00">impl/Homology.ipp</text>
</a>
</g>
</g>
<!-- Node19&#45;&gt;Node27 -->
<g id="edge29" class="edge">
<title>Node19&#45;&gt;Node27</title>
<path fill="none" stroke="midnightblue" d="M411.51,-280.32C424.03,-271.98 443.18,-259.21 457.97,-249.35"/>
<polygon fill="midnightblue" stroke="midnightblue" points="460.14,-252.11 466.52,-243.65 456.26,-246.29 460.14,-252.11"/>
</g>
<!-- Node20&#45;&gt;Node6 -->
<g id="edge20" class="edge">
<title>Node20&#45;&gt;Node6</title>
<path fill="none" stroke="midnightblue" d="M972.11,-168.47C923.44,-160.65 850.55,-148.15 778,-131.94"/>
<polygon fill="midnightblue" stroke="midnightblue" points="778.76,-128.53 768.23,-129.74 777.21,-135.36 778.76,-128.53"/>
</g>
<!-- Node21 -->
<g id="node21" class="node">
<title>Node21</title>
<g id="a_node21"><a xlink:title=" ">
<polygon fill="white" stroke="#bfbfbf" points="1095,-112.5 1095,-131.5 1152,-131.5 1152,-112.5 1095,-112.5"/>
<text text-anchor="middle" x="1123.5" y="-119.5" font-family="Helvetica,sans-Serif" font-size="10.00">ostream</text>
</a>
</g>
</g>
<!-- Node20&#45;&gt;Node21 -->
<g id="edge21" class="edge">
<title>Node20&#45;&gt;Node21</title>
<path fill="none" stroke="midnightblue" d="M1042.92,-168.32C1058.04,-159.82 1081.32,-146.73 1098.97,-136.8"/>
<polygon fill="midnightblue" stroke="midnightblue" points="1101.11,-139.61 1108.11,-131.65 1097.68,-133.51 1101.11,-139.61"/>
</g>
<!-- Node22 -->
<g id="node22" class="node">
<title>Node22</title>
<g id="a_node22"><a xlink:title=" ">
<polygon fill="white" stroke="#bfbfbf" points="984.5,-112.5 984.5,-131.5 1076.5,-131.5 1076.5,-112.5 984.5,-112.5"/>
<text text-anchor="middle" x="1030.5" y="-119.5" font-family="Helvetica,sans-Serif" font-size="10.00">impl/Chains.ipp</text>
</a>
</g>
</g>
<!-- Node20&#45;&gt;Node22 -->
<g id="edge22" class="edge">
<title>Node20&#45;&gt;Node22</title>
<path fill="none" stroke="midnightblue" d="M1028,-168.08C1028.39,-161.01 1028.95,-150.86 1029.45,-141.99"/>
<polygon fill="midnightblue" stroke="midnightblue" points="1032.95,-141.93 1030.01,-131.75 1025.96,-141.54 1032.95,-141.93"/>
</g>
<!-- Node23&#45;&gt;Node6 -->
<g id="edge25" class="edge">
<title>Node23&#45;&gt;Node6</title>
<path fill="none" stroke="midnightblue" d="M658.89,-168.32C675.17,-159.7 700.37,-146.36 719.22,-136.39"/>
<polygon fill="midnightblue" stroke="midnightblue" points="720.95,-139.43 728.15,-131.65 717.68,-133.24 720.95,-139.43"/>
</g>
<!-- Node23&#45;&gt;Node7 -->
<g id="edge26" class="edge">
<title>Node23&#45;&gt;Node7</title>
<path fill="none" stroke="midnightblue" d="M643.16,-168.08C643.68,-161.01 644.44,-150.86 645.09,-141.99"/>
<polygon fill="midnightblue" stroke="midnightblue" points="648.6,-141.98 645.85,-131.75 641.62,-141.47 648.6,-141.98"/>
</g>
<!-- Node25&#45;&gt;Node5 -->
<g id="edge28" class="edge">
<title>Node25&#45;&gt;Node5</title>
<path fill="none" stroke="midnightblue" d="M396.8,-224.44C424.85,-215.32 469.44,-200.81 500.68,-190.65"/>
<polygon fill="midnightblue" stroke="midnightblue" points="501.89,-193.94 510.32,-187.52 499.73,-187.28 501.89,-193.94"/>
</g>
<!-- Node29&#45;&gt;Node19 -->
<g id="edge32" class="edge">
<title>Node29&#45;&gt;Node19</title>
<path fill="none" stroke="midnightblue" d="M241.13,-336.44C273,-327.24 323.83,-312.56 359.06,-302.39"/>
<polygon fill="midnightblue" stroke="midnightblue" points="360.37,-305.65 369.01,-299.52 358.43,-298.93 360.37,-305.65"/>
</g>
<!-- Node30 -->
<g id="node28" class="node">
<title>Node30</title>
<g id="a_node28"><a xlink:href="MackeyFunctor_8hpp.html" target="_top" xlink:title="Contains the class describing Mackey Functors.">
<polygon fill="white" stroke="black" points="113,-280.5 113,-299.5 310,-299.5 310,-280.5 113,-280.5"/>
<text text-anchor="middle" x="211.5" y="-287.5" font-family="Helvetica,sans-Serif" font-size="10.00">Mackey_Functors/MackeyFunctor.hpp</text>
</a>
</g>
</g>
<!-- Node29&#45;&gt;Node30 -->
<g id="edge33" class="edge">
<title>Node29&#45;&gt;Node30</title>
<path fill="none" stroke="midnightblue" d="M211.5,-336.08C211.5,-329.01 211.5,-318.86 211.5,-309.99"/>
<polygon fill="midnightblue" stroke="midnightblue" points="215,-309.75 211.5,-299.75 208,-309.75 215,-309.75"/>
</g>
<!-- Node33 -->
<g id="node31" class="node">
<title>Node33</title>
<g id="a_node31"><a xlink:title=" ">
<polygon fill="white" stroke="#bfbfbf" points="0,-280.5 0,-299.5 95,-299.5 95,-280.5 0,-280.5"/>
<text text-anchor="middle" x="47.5" y="-287.5" font-family="Helvetica,sans-Serif" font-size="10.00">impl/Identify.ipp</text>
</a>
</g>
</g>
<!-- Node29&#45;&gt;Node33 -->
<g id="edge39" class="edge">
<title>Node29&#45;&gt;Node33</title>
<path fill="none" stroke="midnightblue" d="M185.51,-336.44C157.8,-327.32 113.75,-312.81 82.88,-302.65"/>
<polygon fill="midnightblue" stroke="midnightblue" points="83.96,-299.32 73.36,-299.52 81.77,-305.97 83.96,-299.32"/>
</g>
<!-- Node30&#45;&gt;Node12 -->
<g id="edge36" class="edge">
<title>Node30&#45;&gt;Node12</title>
<path fill="none" stroke="midnightblue" d="M132.21,-280.44C109.97,-273.95 88.15,-262.86 74.5,-244 41.72,-198.73 121.44,-155.93 168.67,-135.5"/>
<polygon fill="midnightblue" stroke="midnightblue" points="170.07,-138.71 177.92,-131.61 167.35,-132.26 170.07,-138.71"/>
</g>
<!-- Node30&#45;&gt;Node13 -->
<g id="edge35" class="edge">
<title>Node30&#45;&gt;Node13</title>
<path fill="none" stroke="midnightblue" d="M231.04,-280.42C247.24,-272.61 270.18,-259.89 286.5,-244 318.48,-212.85 343.44,-165.98 355.52,-140.69"/>
<polygon fill="midnightblue" stroke="midnightblue" points="358.72,-142.11 359.76,-131.56 352.37,-139.15 358.72,-142.11"/>
</g>
<!-- Node30&#45;&gt;Node25 -->
<g id="edge37" class="edge">
<title>Node30&#45;&gt;Node25</title>
<path fill="none" stroke="midnightblue" d="M236.69,-280.44C263.44,-271.36 305.9,-256.94 335.81,-246.78"/>
<polygon fill="midnightblue" stroke="midnightblue" points="337.08,-250.05 345.42,-243.52 334.83,-243.42 337.08,-250.05"/>
</g>
<!-- Node31 -->
<g id="node29" class="node">
<title>Node31</title>
<g id="a_node29"><a xlink:title=" ">
<polygon fill="white" stroke="#bfbfbf" points="83.5,-224.5 83.5,-243.5 127.5,-243.5 127.5,-224.5 83.5,-224.5"/>
<text text-anchor="middle" x="105.5" y="-231.5" font-family="Helvetica,sans-Serif" font-size="10.00">string</text>
</a>
</g>
</g>
<!-- Node30&#45;&gt;Node31 -->
<g id="edge34" class="edge">
<title>Node30&#45;&gt;Node31</title>
<path fill="none" stroke="midnightblue" d="M194.47,-280.32C177.47,-271.66 151.12,-258.24 131.51,-248.25"/>
<polygon fill="midnightblue" stroke="midnightblue" points="132.99,-245.08 122.49,-243.65 129.81,-251.31 132.99,-245.08"/>
</g>
<!-- Node32 -->
<g id="node30" class="node">
<title>Node32</title>
<g id="a_node30"><a xlink:title=" ">
<polygon fill="white" stroke="#bfbfbf" points="145.5,-224.5 145.5,-243.5 277.5,-243.5 277.5,-224.5 145.5,-224.5"/>
<text text-anchor="middle" x="211.5" y="-231.5" font-family="Helvetica,sans-Serif" font-size="10.00">impl/MackeyFunctor.ipp</text>
</a>
</g>
</g>
<!-- Node30&#45;&gt;Node32 -->
<g id="edge38" class="edge">
<title>Node30&#45;&gt;Node32</title>
<path fill="none" stroke="midnightblue" d="M211.5,-280.08C211.5,-273.01 211.5,-262.86 211.5,-253.99"/>
<polygon fill="midnightblue" stroke="midnightblue" points="215,-253.75 211.5,-243.75 208,-253.75 215,-253.75"/>
</g>
<!-- Node34&#45;&gt;Node5 -->
<g id="edge41" class="edge">
<title>Node34&#45;&gt;Node5</title>
<path fill="none" stroke="midnightblue" d="M706.49,-224.44C671.77,-215.16 616.21,-200.31 578.12,-190.13"/>
<polygon fill="midnightblue" stroke="midnightblue" points="578.92,-186.72 568.36,-187.52 577.11,-193.48 578.92,-186.72"/>
</g>
<!-- Node34&#45;&gt;Node20 -->
<g id="edge42" class="edge">
<title>Node34&#45;&gt;Node20</title>
<path fill="none" stroke="midnightblue" d="M784.29,-224.44C835.24,-214.92 917.53,-199.55 972.07,-189.36"/>
<polygon fill="midnightblue" stroke="midnightblue" points="972.73,-192.79 981.92,-187.52 971.45,-185.91 972.73,-192.79"/>
</g>
<!-- Node35 -->
<g id="node33" class="node">
<title>Node35</title>
<g id="a_node33"><a xlink:href="ChangeBasis_8hpp.html" target="_top" xlink:title="Contains the construction of the change of basis matrices.">
<polygon fill="white" stroke="red" points="828,-168.5 828,-187.5 929,-187.5 929,-168.5 828,-168.5"/>
<text text-anchor="middle" x="878.5" y="-175.5" font-family="Helvetica,sans-Serif" font-size="10.00">ChangeBasis.hpp</text>
</a>
</g>
</g>
<!-- Node34&#45;&gt;Node35 -->
<g id="edge43" class="edge">
<title>Node34&#45;&gt;Node35</title>
<path fill="none" stroke="midnightblue" d="M760.68,-224.44C783.93,-215.48 820.65,-201.31 846.92,-191.18"/>
<polygon fill="midnightblue" stroke="midnightblue" points="848.35,-194.38 856.42,-187.52 845.83,-187.85 848.35,-194.38"/>
</g>
<!-- Node40 -->
<g id="node37" class="node">
<title>Node40</title>
<g id="a_node37"><a xlink:title=" ">
<polygon fill="white" stroke="#bfbfbf" points="693.5,-168.5 693.5,-187.5 771.5,-187.5 771.5,-168.5 693.5,-168.5"/>
<text text-anchor="middle" x="732.5" y="-175.5" font-family="Helvetica,sans-Serif" font-size="10.00">impl/Box.ipp</text>
</a>
</g>
</g>
<!-- Node34&#45;&gt;Node40 -->
<g id="edge48" class="edge">
<title>Node34&#45;&gt;Node40</title>
<path fill="none" stroke="midnightblue" d="M737.51,-224.08C736.71,-216.93 735.57,-206.64 734.58,-197.69"/>
<polygon fill="midnightblue" stroke="midnightblue" points="738.06,-197.3 733.47,-187.75 731.1,-198.08 738.06,-197.3"/>
</g>
<!-- Node35&#45;&gt;Node6 -->
<g id="edge44" class="edge">
<title>Node35&#45;&gt;Node6</title>
<path fill="none" stroke="midnightblue" d="M857.27,-168.44C835.12,-159.52 800.18,-145.44 775.06,-135.32"/>
<polygon fill="midnightblue" stroke="midnightblue" points="776.22,-132.01 765.63,-131.52 773.6,-138.5 776.22,-132.01"/>
</g>
<!-- Node36 -->
<g id="node34" class="node">
<title>Node36</title>
<g id="a_node34"><a xlink:title=" ">
<polygon fill="white" stroke="#bfbfbf" points="786.5,-112.5 786.5,-131.5 824.5,-131.5 824.5,-112.5 786.5,-112.5"/>
<text text-anchor="middle" x="805.5" y="-119.5" font-family="Helvetica,sans-Serif" font-size="10.00">map</text>
</a>
</g>
</g>
<!-- Node35&#45;&gt;Node36 -->
<g id="edge45" class="edge">
<title>Node35&#45;&gt;Node36</title>
<path fill="none" stroke="midnightblue" d="M866.77,-168.32C855.66,-160.11 838.76,-147.6 825.52,-137.81"/>
<polygon fill="midnightblue" stroke="midnightblue" points="827.56,-134.97 817.44,-131.83 823.4,-140.59 827.56,-134.97"/>
</g>
<!-- Node37 -->
<g id="node35" class="node">
<title>Node37</title>
<g id="a_node35"><a xlink:title=" ">
<polygon fill="white" stroke="#bfbfbf" points="842.5,-112.5 842.5,-131.5 906.5,-131.5 906.5,-112.5 842.5,-112.5"/>
<text text-anchor="middle" x="874.5" y="-119.5" font-family="Helvetica,sans-Serif" font-size="10.00">algorithm</text>
</a>
</g>
</g>
<!-- Node35&#45;&gt;Node37 -->
<g id="edge46" class="edge">
<title>Node35&#45;&gt;Node37</title>
<path fill="none" stroke="midnightblue" d="M877.84,-168.08C877.32,-161.01 876.56,-150.86 875.91,-141.99"/>
<polygon fill="midnightblue" stroke="midnightblue" points="879.38,-141.47 875.15,-131.75 872.4,-141.98 879.38,-141.47"/>
</g>
<!-- Node38 -->
<g id="node36" class="node">
<title>Node38</title>
<g id="a_node36"><a xlink:title=" ">
<polygon fill="white" stroke="#bfbfbf" points="924.5,-112.5 924.5,-131.5 966.5,-131.5 966.5,-112.5 924.5,-112.5"/>
<text text-anchor="middle" x="945.5" y="-119.5" font-family="Helvetica,sans-Serif" font-size="10.00">array</text>
</a>
</g>
</g>
<!-- Node35&#45;&gt;Node38 -->
<g id="edge47" class="edge">
<title>Node35&#45;&gt;Node38</title>
<path fill="none" stroke="midnightblue" d="M889.26,-168.32C899.27,-160.26 914.39,-148.08 926.43,-138.37"/>
<polygon fill="midnightblue" stroke="midnightblue" points="928.95,-140.83 934.54,-131.83 924.56,-135.38 928.95,-140.83"/>
</g>
<!-- Node43&#45;&gt;Node9 -->
<g id="edge53" class="edge">
<title>Node43&#45;&gt;Node9</title>
<path fill="none" stroke="midnightblue" d="M1162.59,-224.47C1197.76,-215.46 1238.08,-198.24 1224.5,-168 1201.09,-115.88 1137.26,-89.67 1091.58,-77.21"/>
<polygon fill="midnightblue" stroke="midnightblue" points="1092.39,-73.8 1081.84,-74.68 1090.64,-80.58 1092.39,-73.8"/>
</g>
<!-- Node43&#45;&gt;Node20 -->
<g id="edge52" class="edge">
<title>Node43&#45;&gt;Node20</title>
<path fill="none" stroke="midnightblue" d="M1102.2,-224.32C1088.32,-215.9 1067.01,-202.97 1050.7,-193.07"/>
<polygon fill="midnightblue" stroke="midnightblue" points="1052.13,-189.85 1041.76,-187.65 1048.5,-195.83 1052.13,-189.85"/>
</g>
<!-- Node44 -->
<g id="node41" class="node">
<title>Node44</title>
<g id="a_node41"><a xlink:title=" ">
<polygon fill="white" stroke="#bfbfbf" points="1126,-168.5 1126,-187.5 1215,-187.5 1215,-168.5 1126,-168.5"/>
<text text-anchor="middle" x="1170.5" y="-175.5" font-family="Helvetica,sans-Serif" font-size="10.00">impl/Morse.ipp</text>
</a>
</g>
</g>
<!-- Node43&#45;&gt;Node44 -->
<g id="edge54" class="edge">
<title>Node43&#45;&gt;Node44</title>
<path fill="none" stroke="midnightblue" d="M1125.42,-224.08C1133.28,-216.22 1144.93,-204.57 1154.42,-195.08"/>
<polygon fill="midnightblue" stroke="midnightblue" points="1157.15,-197.3 1161.75,-187.75 1152.2,-192.35 1157.15,-197.3"/>
</g>
<!-- Node47&#45;&gt;Node6 -->
<g id="edge58" class="edge">
<title>Node47&#45;&gt;Node6</title>
<path fill="none" stroke="midnightblue" d="M1016.94,-560.24C1025.92,-551.97 1038.25,-538.66 1043.5,-524 1046.5,-515.63 1046.4,-512.4 1043.5,-504 1013.52,-417.07 816.53,-200.58 759.77,-139.36"/>
<polygon fill="midnightblue" stroke="midnightblue" points="762.1,-136.72 752.73,-131.78 756.97,-141.49 762.1,-136.72"/>
</g>
<!-- Node48 -->
<g id="node45" class="node">
<title>Node48</title>
<g id="a_node45"><a xlink:title=" ">
<polygon fill="white" stroke="#bfbfbf" points="913,-504.5 913,-523.5 960,-523.5 960,-504.5 913,-504.5"/>
<text text-anchor="middle" x="936.5" y="-511.5" font-family="Helvetica,sans-Serif" font-size="10.00">queue</text>
</a>
</g>
</g>
<!-- Node47&#45;&gt;Node48 -->
<g id="edge59" class="edge">
<title>Node47&#45;&gt;Node48</title>
<path fill="none" stroke="midnightblue" d="M995.25,-560.32C984.7,-552.18 968.7,-539.84 956.06,-530.09"/>
<polygon fill="midnightblue" stroke="midnightblue" points="958.01,-527.17 947.95,-523.83 953.73,-532.71 958.01,-527.17"/>
</g>
<!-- Node47&#45;&gt;Node49 -->
<g id="edge60" class="edge">
<title>Node47&#45;&gt;Node49</title>
<path fill="none" stroke="midnightblue" d="M1022.57,-560.32C1038.46,-551.74 1063.01,-538.49 1081.46,-528.52"/>
<polygon fill="midnightblue" stroke="midnightblue" points="1083.34,-531.49 1090.47,-523.65 1080.01,-525.33 1083.34,-531.49"/>
</g>
<!-- Node50 -->
<g id="node47" class="node">
<title>Node50</title>
<g id="a_node47"><a xlink:title=" ">
<polygon fill="white" stroke="#bfbfbf" points="978.5,-504.5 978.5,-523.5 1034.5,-523.5 1034.5,-504.5 978.5,-504.5"/>
<text text-anchor="middle" x="1006.5" y="-511.5" font-family="Helvetica,sans-Serif" font-size="10.00">iomanip</text>
</a>
</g>
</g>
<!-- Node47&#45;&gt;Node50 -->
<g id="edge61" class="edge">
<title>Node47&#45;&gt;Node50</title>
<path fill="none" stroke="midnightblue" d="M1006.5,-560.08C1006.5,-553.01 1006.5,-542.86 1006.5,-533.99"/>
<polygon fill="midnightblue" stroke="midnightblue" points="1010,-533.75 1006.5,-523.75 1003,-533.75 1010,-533.75"/>
</g>
<!-- Node51 -->
<g id="node48" class="node">
<title>Node51</title>
<g id="a_node48"><a xlink:title=" ">
<polygon fill="white" stroke="#bfbfbf" points="806,-504.5 806,-523.5 895,-523.5 895,-504.5 806,-504.5"/>
<text text-anchor="middle" x="850.5" y="-511.5" font-family="Helvetica,sans-Serif" font-size="10.00">impl/Graph.ipp</text>
</a>
</g>
</g>
<!-- Node47&#45;&gt;Node51 -->
<g id="edge62" class="edge">
<title>Node47&#45;&gt;Node51</title>
<path fill="none" stroke="midnightblue" d="M981.78,-560.44C955.65,-551.4 914.24,-537.06 884.92,-526.92"/>
<polygon fill="midnightblue" stroke="midnightblue" points="885.7,-523.48 875.1,-523.52 883.41,-530.1 885.7,-523.48"/>
</g>
</g>
</svg>
        <g id="navigator" transform="translate(0 0)" fill="#404254">
                <rect fill="#f2f5e9" fill-opacity="0.5" stroke="#606060" stroke-width=".5" x="0" y="0" width="60" height="60"/>
                <use id="zoomplus" xlink:href="#zoomPlus" x="17" y="9" onmousedown="handleZoom(evt,'in')"/>
                <use id="zoomminus" xlink:href="#zoomMin" x="42" y="9" onmousedown="handleZoom(evt,'out')"/>
                <use id="reset" xlink:href="#resetDef" x="30" y="36" onmousedown="handleReset()"/>
                <g id="arrowUp" xlink:href="#dirArrow" transform="translate(30 24)" onmousedown="handlePan(0,-1)">
                  <use xlink:href="#rim" fill="#404040">
                        <set attributeName="fill" to="#808080" begin="arrowUp.mouseover" end="arrowUp.mouseout"/>
                  </use>
                  <path fill="none" stroke="white" stroke-width="1.5" d="M0,-3.0v7 M-2.5,-0.5L0,-3.0L2.5,-0.5"/>
                </g>
                <g id="arrowRight" xlink:href="#dirArrow" transform="rotate(90) translate(36 -43)" onmousedown="handlePan(1,0)">
                  <use xlink:href="#rim" fill="#404040">
                        <set attributeName="fill" to="#808080" begin="arrowRight.mouseover" end="arrowRight.mouseout"/>
                  </use>
                  <path fill="none" stroke="white" stroke-width="1.5" d="M0,-3.0v7 M-2.5,-0.5L0,-3.0L2.5,-0.5"/>
                </g>
                <g id="arrowDown" xlink:href="#dirArrow" transform="rotate(180) translate(-30 -48)" onmousedown="handlePan(0,1)">
                  <use xlink:href="#rim" fill="#404040">
                        <set attributeName="fill" to="#808080" begin="arrowDown.mouseover" end="arrowDown.mouseout"/>
                  </use>
                  <path fill="none" stroke="white" stroke-width="1.5" d="M0,-3.0v7 M-2.5,-0.5L0,-3.0L2.5,-0.5"/>
                </g>
                <g id="arrowLeft" xlink:href="#dirArrow" transform="rotate(270) translate(-36 17)" onmousedown="handlePan(-1,0)">
                  <use xlink:href="#rim" fill="#404040">
                        <set attributeName="fill" to="#808080" begin="arrowLeft.mouseover" end="arrowLeft.mouseout"/>
                  </use>
                  <path fill="none" stroke="white" stroke-width="1.5" d="M0,-3.0v7 M-2.5,-0.5L0,-3.0L2.5,-0.5"/>
                </g>
        </g>
        <svg viewBox="0 0 15 15" width="100%" height="30px" preserveAspectRatio="xMaxYMin meet">
         <g id="arrow_out" transform="scale(0.3 0.3)">
          <a xlink:href="Mult__Connectivity_8hpp__incl_org.svg" target="_base">
           <rect id="button" ry="5" rx="5" y="6" x="6" height="38" width="38"
                fill="#f2f5e9" fill-opacity="0.5" stroke="#606060" stroke-width="1.0"/>
           <path id="arrow"
             d="M 11.500037,31.436501 C 11.940474,20.09759 22.043105,11.32322 32.158766,21.979434 L 37.068811,17.246167 C 37.068811,17.246167 37.088388,32 37.088388,32 L 22.160133,31.978069 C 22.160133,31.978069 26.997745,27.140456 26.997745,27.140456 C 18.528582,18.264221 13.291696,25.230495 11.500037,31.436501 z"
             style="fill:#404040;"/>
          </a>
         </g>
        </svg>
</svg>
