<?xml version="1.0" encoding="UTF-8" standalone="no"?>
<!DOCTYPE svg PUBLIC "-//W3C//DTD SVG 1.1//EN"
 "http://www.w3.org/Graphics/SVG/1.1/DTD/svg11.dtd">
<!-- Generated by graphviz version 2.43.0 (0)
 -->
<!-- Title: Mult_Table.hpp Pages: 1 -->
<svg width="252pt" height="196pt"
 viewBox="0.00 0.00 251.50 196.00" xmlns="http://www.w3.org/2000/svg" xmlns:xlink="http://www.w3.org/1999/xlink">
<g id="graph0" class="graph" transform="scale(1 1) rotate(0) translate(4 192)">
<title>Mult_Table.hpp</title>
<polygon fill="white" stroke="transparent" points="-4,4 -4,-192 247.5,-192 247.5,4 -4,4"/>
<!-- Node1 -->
<g id="node1" class="node">
<title>Node1</title>
<g id="a_node1"><a xlink:title="Contains the class and methods to form the multiplication table.">
<polygon fill="#bfbfbf" stroke="black" points="82.5,-168.5 82.5,-187.5 172.5,-187.5 172.5,-168.5 82.5,-168.5"/>
<text text-anchor="middle" x="127.5" y="-175.5" font-family="Helvetica,sans-Serif" font-size="10.00">Mult_Table.hpp</text>
</a>
</g>
</g>
<!-- Node2 -->
<g id="node2" class="node">
<title>Node2</title>
<g id="a_node2"><a xlink:href="Mult__Graph_8hpp.html" target="_top" xlink:title="Contains the multiplication graph.">
<polygon fill="white" stroke="black" points="80.5,-112.5 80.5,-131.5 174.5,-131.5 174.5,-112.5 80.5,-112.5"/>
<text text-anchor="middle" x="127.5" y="-119.5" font-family="Helvetica,sans-Serif" font-size="10.00">Mult_Graph.hpp</text>
</a>
</g>
</g>
<!-- Node1&#45;&gt;Node2 -->
<g id="edge1" class="edge">
<title>Node1&#45;&gt;Node2</title>
<path fill="none" stroke="midnightblue" d="M127.5,-157.8C127.5,-148.91 127.5,-138.78 127.5,-131.75"/>
<polygon fill="midnightblue" stroke="midnightblue" points="124,-158.08 127.5,-168.08 131,-158.08 124,-158.08"/>
</g>
<!-- Node3 -->
<g id="node3" class="node">
<title>Node3</title>
<g id="a_node3"><a xlink:href="Factorization_8hpp.html" target="_top" xlink:title="Contains the multiplication graph and the methods for factorizing generators.">
<polygon fill="white" stroke="black" points="143.5,-56.5 143.5,-75.5 243.5,-75.5 243.5,-56.5 143.5,-56.5"/>
<text text-anchor="middle" x="193.5" y="-63.5" font-family="Helvetica,sans-Serif" font-size="10.00">Factorization.hpp</text>
</a>
</g>
</g>
<!-- Node2&#45;&gt;Node3 -->
<g id="edge2" class="edge">
<title>Node2&#45;&gt;Node3</title>
<path fill="none" stroke="midnightblue" d="M146.05,-105.82C157.88,-96.15 172.79,-83.95 182.7,-75.83"/>
<polygon fill="midnightblue" stroke="midnightblue" points="143.63,-103.28 138.1,-112.32 148.06,-108.7 143.63,-103.28"/>
</g>
<!-- Node6 -->
<g id="node6" class="node">
<title>Node6</title>
<g id="a_node6"><a xlink:href="Mult__Connectivity_8hpp.html" target="_top" xlink:title="Contains methods for the finding the connectivity of the multiplication graph should identification f...">
<polygon fill="white" stroke="black" points="0,-56.5 0,-75.5 125,-75.5 125,-56.5 0,-56.5"/>
<text text-anchor="middle" x="62.5" y="-63.5" font-family="Helvetica,sans-Serif" font-size="10.00">Mult_Connectivity.hpp</text>
</a>
</g>
</g>
<!-- Node2&#45;&gt;Node6 -->
<g id="edge5" class="edge">
<title>Node2&#45;&gt;Node6</title>
<path fill="none" stroke="midnightblue" d="M109.23,-105.82C97.58,-96.15 82.9,-83.95 73.13,-75.83"/>
<polygon fill="midnightblue" stroke="midnightblue" points="107.13,-108.63 117.06,-112.32 111.6,-103.24 107.13,-108.63"/>
</g>
<!-- Node4 -->
<g id="node4" class="node">
<title>Node4</title>
<g id="a_node4"><a xlink:href="Mackey_8hpp.html" target="_top" xlink:title="Includes the entire library.">
<polygon fill="white" stroke="black" points="42.5,-0.5 42.5,-19.5 116.5,-19.5 116.5,-0.5 42.5,-0.5"/>
<text text-anchor="middle" x="79.5" y="-7.5" font-family="Helvetica,sans-Serif" font-size="10.00">Mackey.hpp</text>
</a>
</g>
</g>
<!-- Node3&#45;&gt;Node4 -->
<g id="edge3" class="edge">
<title>Node3&#45;&gt;Node4</title>
<path fill="none" stroke="midnightblue" d="M166.26,-52.1C144.96,-42.01 115.96,-28.27 97.48,-19.52"/>
<polygon fill="midnightblue" stroke="midnightblue" points="164.9,-55.33 175.44,-56.44 167.9,-49 164.9,-55.33"/>
</g>
<!-- Node5 -->
<g id="node5" class="node">
<title>Node5</title>
<g id="a_node5"><a xlink:href="Cerealizer_8hpp.html" target="_top" xlink:title="Contains the methods for serializing the results of our computations (before their interpretation) vi...">
<polygon fill="white" stroke="black" points="150.5,-0.5 150.5,-19.5 236.5,-19.5 236.5,-0.5 150.5,-0.5"/>
<text text-anchor="middle" x="193.5" y="-7.5" font-family="Helvetica,sans-Serif" font-size="10.00">Cerealizer.hpp</text>
</a>
</g>
</g>
<!-- Node3&#45;&gt;Node5 -->
<g id="edge4" class="edge">
<title>Node3&#45;&gt;Node5</title>
<path fill="none" stroke="midnightblue" d="M193.5,-45.8C193.5,-36.91 193.5,-26.78 193.5,-19.75"/>
<polygon fill="midnightblue" stroke="midnightblue" points="190,-46.08 193.5,-56.08 197,-46.08 190,-46.08"/>
</g>
<!-- Node6&#45;&gt;Node4 -->
<g id="edge6" class="edge">
<title>Node6&#45;&gt;Node4</title>
<path fill="none" stroke="midnightblue" d="M68.36,-46.4C71.2,-37.36 74.48,-26.94 76.75,-19.75"/>
<polygon fill="midnightblue" stroke="midnightblue" points="64.97,-45.49 65.31,-56.08 71.65,-47.6 64.97,-45.49"/>
</g>
</g>
</svg>
