<?xml version="1.0" encoding="UTF-8" standalone="no"?>
<!DOCTYPE svg PUBLIC "-//W3C//DTD SVG 1.1//EN"
 "http://www.w3.org/Graphics/SVG/1.1/DTD/svg11.dtd">
<!-- Generated by graphviz version 2.43.0 (0)
 -->
<!-- Title: Mult_Graph_Identify.hpp Pages: 1 -->
<svg width="1280pt" height="700pt"
 viewBox="0.00 0.00 1280.00 700.00" xmlns="http://www.w3.org/2000/svg" xmlns:xlink="http://www.w3.org/1999/xlink">
<g id="graph0" class="graph" transform="scale(1 1) rotate(0) translate(4 696)">
<title>Mult_Graph_Identify.hpp</title>
<polygon fill="white" stroke="transparent" points="-4,4 -4,-696 1276,-696 1276,4 -4,4"/>
<!-- Node1 -->
<g id="node1" class="node">
<title>Node1</title>
<g id="a_node1"><a xlink:title="Contains extra identification methods for the multiplication graph.">
<polygon fill="#bfbfbf" stroke="black" points="632.5,-672.5 632.5,-691.5 766.5,-691.5 766.5,-672.5 632.5,-672.5"/>
<text text-anchor="middle" x="699.5" y="-679.5" font-family="Helvetica,sans-Serif" font-size="10.00">Mult_Graph_Identify.hpp</text>
</a>
</g>
</g>
<!-- Node2 -->
<g id="node2" class="node">
<title>Node2</title>
<g id="a_node2"><a xlink:href="Mult__Graph_8hpp.html" target="_top" xlink:title="Contains the multiplication graph.">
<polygon fill="white" stroke="black" points="581.5,-616.5 581.5,-635.5 675.5,-635.5 675.5,-616.5 581.5,-616.5"/>
<text text-anchor="middle" x="628.5" y="-623.5" font-family="Helvetica,sans-Serif" font-size="10.00">Mult_Graph.hpp</text>
</a>
</g>
</g>
<!-- Node1&#45;&gt;Node2 -->
<g id="edge1" class="edge">
<title>Node1&#45;&gt;Node2</title>
<path fill="none" stroke="midnightblue" d="M688.09,-672.32C677.39,-664.18 661.16,-651.84 648.34,-642.09"/>
<polygon fill="midnightblue" stroke="midnightblue" points="650.19,-639.1 640.11,-635.83 645.96,-644.67 650.19,-639.1"/>
</g>
<!-- Node53 -->
<g id="node50" class="node">
<title>Node53</title>
<g id="a_node50"><a xlink:title=" ">
<polygon fill="white" stroke="#bfbfbf" points="693.5,-616.5 693.5,-635.5 849.5,-635.5 849.5,-616.5 693.5,-616.5"/>
<text text-anchor="middle" x="771.5" y="-623.5" font-family="Helvetica,sans-Serif" font-size="10.00">impl/Mult_Graph_Identify.ipp</text>
</a>
</g>
</g>
<!-- Node1&#45;&gt;Node53 -->
<g id="edge74" class="edge">
<title>Node1&#45;&gt;Node53</title>
<path fill="none" stroke="midnightblue" d="M711.07,-672.32C721.92,-664.18 738.38,-651.84 751.38,-642.09"/>
<polygon fill="midnightblue" stroke="midnightblue" points="753.82,-644.63 759.72,-635.83 749.62,-639.03 753.82,-644.63"/>
</g>
<!-- Node3 -->
<g id="node3" class="node">
<title>Node3</title>
<g id="a_node3"><a xlink:href="Mult__Table_8hpp.html" target="_top" xlink:title="Contains the class and methods to form the multiplication table.">
<polygon fill="white" stroke="black" points="382.5,-560.5 382.5,-579.5 472.5,-579.5 472.5,-560.5 382.5,-560.5"/>
<text text-anchor="middle" x="427.5" y="-567.5" font-family="Helvetica,sans-Serif" font-size="10.00">Mult_Table.hpp</text>
</a>
</g>
</g>
<!-- Node2&#45;&gt;Node3 -->
<g id="edge2" class="edge">
<title>Node2&#45;&gt;Node3</title>
<path fill="none" stroke="midnightblue" d="M596.65,-616.44C562.1,-607.16 506.82,-592.31 468.92,-582.13"/>
<polygon fill="midnightblue" stroke="midnightblue" points="469.77,-578.73 459.2,-579.52 467.95,-585.49 469.77,-578.73"/>
</g>
<!-- Node47 -->
<g id="node44" class="node">
<title>Node47</title>
<g id="a_node44"><a xlink:href="Graph_8hpp.html" target="_top" xlink:title=" ">
<polygon fill="white" stroke="black" points="578.5,-560.5 578.5,-579.5 678.5,-579.5 678.5,-560.5 578.5,-560.5"/>
<text text-anchor="middle" x="628.5" y="-567.5" font-family="Helvetica,sans-Serif" font-size="10.00">Utility/Graph.hpp</text>
</a>
</g>
</g>
<!-- Node2&#45;&gt;Node47 -->
<g id="edge66" class="edge">
<title>Node2&#45;&gt;Node47</title>
<path fill="none" stroke="midnightblue" d="M628.5,-616.08C628.5,-609.01 628.5,-598.86 628.5,-589.99"/>
<polygon fill="midnightblue" stroke="midnightblue" points="632,-589.75 628.5,-579.75 625,-589.75 632,-589.75"/>
</g>
<!-- Node52 -->
<g id="node49" class="node">
<title>Node52</title>
<g id="a_node49"><a xlink:title=" ">
<polygon fill="white" stroke="#bfbfbf" points="714.5,-560.5 714.5,-579.5 830.5,-579.5 830.5,-560.5 714.5,-560.5"/>
<text text-anchor="middle" x="772.5" y="-567.5" font-family="Helvetica,sans-Serif" font-size="10.00">impl/Mult_Graph.ipp</text>
</a>
</g>
</g>
<!-- Node2&#45;&gt;Node52 -->
<g id="edge73" class="edge">
<title>Node2&#45;&gt;Node52</title>
<path fill="none" stroke="midnightblue" d="M651.32,-616.44C675.33,-607.44 713.33,-593.19 740.37,-583.05"/>
<polygon fill="midnightblue" stroke="midnightblue" points="741.66,-586.3 749.79,-579.52 739.2,-579.75 741.66,-586.3"/>
</g>
<!-- Node4 -->
<g id="node4" class="node">
<title>Node4</title>
<g id="a_node4"><a xlink:href="OpenMP__Macros_8hpp.html" target="_top" xlink:title="Contains open MP macros if multithreading is desired in this library.">
<polygon fill="white" stroke="black" points="197.5,-504.5 197.5,-523.5 349.5,-523.5 349.5,-504.5 197.5,-504.5"/>
<text text-anchor="middle" x="273.5" y="-511.5" font-family="Helvetica,sans-Serif" font-size="10.00">Utility/OpenMP_Macros.hpp</text>
</a>
</g>
</g>
<!-- Node3&#45;&gt;Node4 -->
<g id="edge3" class="edge">
<title>Node3&#45;&gt;Node4</title>
<path fill="none" stroke="midnightblue" d="M403.1,-560.44C377.3,-551.4 336.42,-537.06 307.48,-526.92"/>
<polygon fill="midnightblue" stroke="midnightblue" points="308.38,-523.52 297.79,-523.52 306.07,-530.13 308.38,-523.52"/>
</g>
<!-- Node5 -->
<g id="node5" class="node">
<title>Node5</title>
<g id="a_node5"><a xlink:href="General_8hpp.html" target="_top" xlink:title="Contains general functions and vector overloads independent of everything else.">
<polygon fill="white" stroke="black" points="689,-168.5 689,-187.5 798,-187.5 798,-168.5 689,-168.5"/>
<text text-anchor="middle" x="743.5" y="-175.5" font-family="Helvetica,sans-Serif" font-size="10.00">Utility/General.hpp</text>
</a>
</g>
</g>
<!-- Node3&#45;&gt;Node5 -->
<g id="edge4" class="edge">
<title>Node3&#45;&gt;Node5</title>
<path fill="none" stroke="midnightblue" d="M445.55,-560.39C460.44,-552.57 481.36,-539.84 495.5,-524 595.19,-412.36 541.13,-328.28 648.5,-224 664,-208.95 685.47,-198.2 704.09,-190.98"/>
<polygon fill="midnightblue" stroke="midnightblue" points="705.33,-194.26 713.51,-187.53 702.92,-187.69 705.33,-194.26"/>
</g>
<!-- Node14 -->
<g id="node14" class="node">
<title>Node14</title>
<g id="a_node14"><a xlink:href="Compute_8hpp.html" target="_top" xlink:title="Contains the computations for RO(G) Chains and Homology as Mackey and Green functors.">
<polygon fill="white" stroke="black" points="368,-504.5 368,-523.5 487,-523.5 487,-504.5 368,-504.5"/>
<text text-anchor="middle" x="427.5" y="-511.5" font-family="Helvetica,sans-Serif" font-size="10.00">Spaces/Compute.hpp</text>
</a>
</g>
</g>
<!-- Node3&#45;&gt;Node14 -->
<g id="edge14" class="edge">
<title>Node3&#45;&gt;Node14</title>
<path fill="none" stroke="midnightblue" d="M427.5,-560.08C427.5,-553.01 427.5,-542.86 427.5,-533.99"/>
<polygon fill="midnightblue" stroke="midnightblue" points="431,-533.75 427.5,-523.75 424,-533.75 431,-533.75"/>
</g>
<!-- Node46 -->
<g id="node43" class="node">
<title>Node46</title>
<g id="a_node43"><a xlink:title=" ">
<polygon fill="white" stroke="#bfbfbf" points="67.5,-504.5 67.5,-523.5 179.5,-523.5 179.5,-504.5 67.5,-504.5"/>
<text text-anchor="middle" x="123.5" y="-511.5" font-family="Helvetica,sans-Serif" font-size="10.00">impl/Mult_Table.ipp</text>
</a>
</g>
</g>
<!-- Node3&#45;&gt;Node46 -->
<g id="edge65" class="edge">
<title>Node3&#45;&gt;Node46</title>
<path fill="none" stroke="midnightblue" d="M382.32,-560.97C328.95,-551.5 240.07,-535.71 181.63,-525.33"/>
<polygon fill="midnightblue" stroke="midnightblue" points="181.9,-521.82 171.44,-523.52 180.68,-528.71 181.9,-521.82"/>
</g>
<!-- Node5&#45;&gt;Node5 -->
<g id="edge13" class="edge">
<title>Node5&#45;&gt;Node5</title>
<path fill="none" stroke="midnightblue" d="M774.42,-187.53C795.43,-190.31 816,-187.13 816,-178 816,-170.37 801.63,-166.89 784.64,-167.59"/>
<polygon fill="midnightblue" stroke="midnightblue" points="784.08,-164.12 774.42,-168.47 784.69,-171.1 784.08,-164.12"/>
</g>
<!-- Node6 -->
<g id="node6" class="node">
<title>Node6</title>
<g id="a_node6"><a xlink:title=" ">
<polygon fill="white" stroke="#bfbfbf" points="530,-112.5 530,-131.5 577,-131.5 577,-112.5 530,-112.5"/>
<text text-anchor="middle" x="553.5" y="-119.5" font-family="Helvetica,sans-Serif" font-size="10.00">vector</text>
</a>
</g>
</g>
<!-- Node5&#45;&gt;Node6 -->
<g id="edge5" class="edge">
<title>Node5&#45;&gt;Node6</title>
<path fill="none" stroke="midnightblue" d="M713.39,-168.44C679.01,-158.67 622.91,-142.73 587.13,-132.56"/>
<polygon fill="midnightblue" stroke="midnightblue" points="587.74,-129.09 577.16,-129.73 585.82,-135.83 587.74,-129.09"/>
</g>
<!-- Node7 -->
<g id="node7" class="node">
<title>Node7</title>
<g id="a_node7"><a xlink:href="Aliases_8hpp.html" target="_top" xlink:title="Contains general template aliases.">
<polygon fill="white" stroke="black" points="595.5,-112.5 595.5,-131.5 699.5,-131.5 699.5,-112.5 595.5,-112.5"/>
<text text-anchor="middle" x="647.5" y="-119.5" font-family="Helvetica,sans-Serif" font-size="10.00">Types/Aliases.hpp</text>
</a>
</g>
</g>
<!-- Node5&#45;&gt;Node7 -->
<g id="edge6" class="edge">
<title>Node5&#45;&gt;Node7</title>
<path fill="none" stroke="midnightblue" d="M728.08,-168.32C712.96,-159.82 689.68,-146.73 672.03,-136.8"/>
<polygon fill="midnightblue" stroke="midnightblue" points="673.32,-133.51 662.89,-131.65 669.89,-139.61 673.32,-133.51"/>
</g>
<!-- Node12 -->
<g id="node12" class="node">
<title>Node12</title>
<g id="a_node12"><a xlink:title=" ">
<polygon fill="white" stroke="#bfbfbf" points="1018.5,-112.5 1018.5,-131.5 1074.5,-131.5 1074.5,-112.5 1018.5,-112.5"/>
<text text-anchor="middle" x="1046.5" y="-119.5" font-family="Helvetica,sans-Serif" font-size="10.00">numeric</text>
</a>
</g>
</g>
<!-- Node5&#45;&gt;Node12 -->
<g id="edge11" class="edge">
<title>Node5&#45;&gt;Node12</title>
<path fill="none" stroke="midnightblue" d="M791.51,-168.44C851.55,-157.74 953.14,-139.64 1008.22,-129.82"/>
<polygon fill="midnightblue" stroke="midnightblue" points="1009.04,-133.23 1018.27,-128.03 1007.81,-126.34 1009.04,-133.23"/>
</g>
<!-- Node13 -->
<g id="node13" class="node">
<title>Node13</title>
<g id="a_node13"><a xlink:title=" ">
<polygon fill="white" stroke="#bfbfbf" points="717.5,-112.5 717.5,-131.5 815.5,-131.5 815.5,-112.5 717.5,-112.5"/>
<text text-anchor="middle" x="766.5" y="-119.5" font-family="Helvetica,sans-Serif" font-size="10.00">impl/General.ipp</text>
</a>
</g>
</g>
<!-- Node5&#45;&gt;Node13 -->
<g id="edge12" class="edge">
<title>Node5&#45;&gt;Node13</title>
<path fill="none" stroke="midnightblue" d="M747.3,-168.08C750.41,-160.77 754.92,-150.18 758.79,-141.1"/>
<polygon fill="midnightblue" stroke="midnightblue" points="762.07,-142.32 762.77,-131.75 755.63,-139.58 762.07,-142.32"/>
</g>
<!-- Node8 -->
<g id="node8" class="node">
<title>Node8</title>
<g id="a_node8"><a xlink:title=" ">
<polygon fill="white" stroke="#bfbfbf" points="655,-56.5 655,-75.5 732,-75.5 732,-56.5 655,-56.5"/>
<text text-anchor="middle" x="693.5" y="-63.5" font-family="Helvetica,sans-Serif" font-size="10.00">Eigen/Dense</text>
</a>
</g>
</g>
<!-- Node7&#45;&gt;Node8 -->
<g id="edge7" class="edge">
<title>Node7&#45;&gt;Node8</title>
<path fill="none" stroke="midnightblue" d="M655.1,-112.08C661.73,-104.3 671.52,-92.8 679.56,-83.37"/>
<polygon fill="midnightblue" stroke="midnightblue" points="682.23,-85.63 686.05,-75.75 676.9,-81.09 682.23,-85.63"/>
</g>
<!-- Node9 -->
<g id="node9" class="node">
<title>Node9</title>
<g id="a_node9"><a xlink:title=" ">
<polygon fill="white" stroke="#bfbfbf" points="294.5,-56.5 294.5,-75.5 374.5,-75.5 374.5,-56.5 294.5,-56.5"/>
<text text-anchor="middle" x="334.5" y="-63.5" font-family="Helvetica,sans-Serif" font-size="10.00">Eigen/Sparse</text>
</a>
</g>
</g>
<!-- Node7&#45;&gt;Node9 -->
<g id="edge8" class="edge">
<title>Node7&#45;&gt;Node9</title>
<path fill="none" stroke="midnightblue" d="M597.9,-112.44C539.69,-102.4 443.67,-85.83 385.04,-75.72"/>
<polygon fill="midnightblue" stroke="midnightblue" points="385.36,-72.22 374.91,-73.97 384.17,-79.12 385.36,-72.22"/>
</g>
<!-- Node10 -->
<g id="node10" class="node">
<title>Node10</title>
<g id="a_node10"><a xlink:href="SFINAE_8hpp.html" target="_top" xlink:title="Contains all the SFINAE tricks.">
<polygon fill="white" stroke="black" points="564,-56.5 564,-75.5 637,-75.5 637,-56.5 564,-56.5"/>
<text text-anchor="middle" x="600.5" y="-63.5" font-family="Helvetica,sans-Serif" font-size="10.00">SFINAE.hpp</text>
</a>
</g>
</g>
<!-- Node7&#45;&gt;Node10 -->
<g id="edge9" class="edge">
<title>Node7&#45;&gt;Node10</title>
<path fill="none" stroke="midnightblue" d="M639.74,-112.08C632.96,-104.3 622.96,-92.8 614.74,-83.37"/>
<polygon fill="midnightblue" stroke="midnightblue" points="617.32,-81 608.12,-75.75 612.04,-85.59 617.32,-81"/>
</g>
<!-- Node11 -->
<g id="node11" class="node">
<title>Node11</title>
<g id="a_node11"><a xlink:title=" ">
<polygon fill="white" stroke="#bfbfbf" points="566,-0.5 566,-19.5 635,-19.5 635,-0.5 566,-0.5"/>
<text text-anchor="middle" x="600.5" y="-7.5" font-family="Helvetica,sans-Serif" font-size="10.00">type_traits</text>
</a>
</g>
</g>
<!-- Node10&#45;&gt;Node11 -->
<g id="edge10" class="edge">
<title>Node10&#45;&gt;Node11</title>
<path fill="none" stroke="midnightblue" d="M600.5,-56.08C600.5,-49.01 600.5,-38.86 600.5,-29.99"/>
<polygon fill="midnightblue" stroke="midnightblue" points="604,-29.75 600.5,-19.75 597,-29.75 604,-29.75"/>
</g>
<!-- Node15 -->
<g id="node15" class="node">
<title>Node15</title>
<g id="a_node15"><a xlink:href="Massey_8hpp.html" target="_top" xlink:title="Contains the class and methods for Massey Products.">
<polygon fill="white" stroke="black" points="582,-448.5 582,-467.5 701,-467.5 701,-448.5 582,-448.5"/>
<text text-anchor="middle" x="641.5" y="-455.5" font-family="Helvetica,sans-Serif" font-size="10.00">Products/Massey.hpp</text>
</a>
</g>
</g>
<!-- Node14&#45;&gt;Node15 -->
<g id="edge15" class="edge">
<title>Node14&#45;&gt;Node15</title>
<path fill="none" stroke="midnightblue" d="M461.41,-504.44C498.35,-495.12 557.55,-480.18 597.92,-470"/>
<polygon fill="midnightblue" stroke="midnightblue" points="598.91,-473.36 607.75,-467.52 597.2,-466.57 598.91,-473.36"/>
</g>
<!-- Node43 -->
<g id="node40" class="node">
<title>Node43</title>
<g id="a_node40"><a xlink:href="Morse_8hpp.html" target="_top" xlink:title=" ">
<polygon fill="white" stroke="black" points="61.5,-224.5 61.5,-243.5 219.5,-243.5 219.5,-224.5 61.5,-224.5"/>
<text text-anchor="middle" x="140.5" y="-231.5" font-family="Helvetica,sans-Serif" font-size="10.00">Chain_Complexes/Morse.hpp</text>
</a>
</g>
</g>
<!-- Node14&#45;&gt;Node43 -->
<g id="edge59" class="edge">
<title>Node14&#45;&gt;Node43</title>
<path fill="none" stroke="midnightblue" d="M375.06,-504.48C320.98,-492.35 244.5,-464.35 244.5,-403 244.5,-403 244.5,-403 244.5,-345 244.5,-300.22 198.44,-266.32 167.62,-248.66"/>
<polygon fill="midnightblue" stroke="midnightblue" points="169.06,-245.46 158.62,-243.7 165.69,-251.59 169.06,-245.46"/>
</g>
<!-- Node45 -->
<g id="node42" class="node">
<title>Node45</title>
<g id="a_node42"><a xlink:title=" ">
<polygon fill="white" stroke="#bfbfbf" points="375.5,-448.5 375.5,-467.5 479.5,-467.5 479.5,-448.5 375.5,-448.5"/>
<text text-anchor="middle" x="427.5" y="-455.5" font-family="Helvetica,sans-Serif" font-size="10.00">impl/Compute.ipp</text>
</a>
</g>
</g>
<!-- Node14&#45;&gt;Node45 -->
<g id="edge64" class="edge">
<title>Node14&#45;&gt;Node45</title>
<path fill="none" stroke="midnightblue" d="M427.5,-504.08C427.5,-497.01 427.5,-486.86 427.5,-477.99"/>
<polygon fill="midnightblue" stroke="midnightblue" points="431,-477.75 427.5,-467.75 424,-477.75 431,-477.75"/>
</g>
<!-- Node15&#45;&gt;Node15 -->
<g id="edge58" class="edge">
<title>Node15&#45;&gt;Node15</title>
<path fill="none" stroke="midnightblue" d="M674.55,-467.53C697.01,-470.31 719,-467.13 719,-458 719,-450.26 703.2,-446.8 684.71,-447.62"/>
<polygon fill="midnightblue" stroke="midnightblue" points="684.22,-444.15 674.55,-448.47 684.81,-451.12 684.22,-444.15"/>
</g>
<!-- Node16 -->
<g id="node16" class="node">
<title>Node16</title>
<g id="a_node16"><a xlink:href="Green_8hpp.html" target="_top" xlink:title="Contains the class and methods for multiplying generators.">
<polygon fill="white" stroke="black" points="701,-392.5 701,-411.5 768,-411.5 768,-392.5 701,-392.5"/>
<text text-anchor="middle" x="734.5" y="-399.5" font-family="Helvetica,sans-Serif" font-size="10.00">Green.hpp</text>
</a>
</g>
</g>
<!-- Node15&#45;&gt;Node16 -->
<g id="edge16" class="edge">
<title>Node15&#45;&gt;Node16</title>
<path fill="none" stroke="midnightblue" d="M656.44,-448.32C671.09,-439.82 693.63,-426.73 710.74,-416.8"/>
<polygon fill="midnightblue" stroke="midnightblue" points="712.7,-419.7 719.6,-411.65 709.19,-413.65 712.7,-419.7"/>
</g>
<!-- Node42 -->
<g id="node39" class="node">
<title>Node42</title>
<g id="a_node39"><a xlink:title=" ">
<polygon fill="white" stroke="#bfbfbf" points="588,-392.5 588,-411.5 683,-411.5 683,-392.5 588,-392.5"/>
<text text-anchor="middle" x="635.5" y="-399.5" font-family="Helvetica,sans-Serif" font-size="10.00">impl/Massey.ipp</text>
</a>
</g>
</g>
<!-- Node15&#45;&gt;Node42 -->
<g id="edge57" class="edge">
<title>Node15&#45;&gt;Node42</title>
<path fill="none" stroke="midnightblue" d="M640.51,-448.08C639.71,-440.93 638.57,-430.64 637.58,-421.69"/>
<polygon fill="midnightblue" stroke="midnightblue" points="641.06,-421.3 636.47,-411.75 634.1,-422.08 641.06,-421.3"/>
</g>
<!-- Node16&#45;&gt;Node16 -->
<g id="edge56" class="edge">
<title>Node16&#45;&gt;Node16</title>
<path fill="none" stroke="midnightblue" d="M756.46,-411.53C771.39,-414.31 786,-411.13 786,-402 786,-395.01 777.44,-391.51 766.72,-391.5"/>
<polygon fill="midnightblue" stroke="midnightblue" points="766.09,-388.04 756.46,-392.47 766.75,-395.01 766.09,-388.04"/>
</g>
<!-- Node17 -->
<g id="node17" class="node">
<title>Node17</title>
<g id="a_node17"><a xlink:href="Levels_8hpp.html" target="_top" xlink:title="Contains the methods for transfering, restricting and Weyl&#45;group&#45;acting.">
<polygon fill="white" stroke="black" points="765.5,-336.5 765.5,-355.5 921.5,-355.5 921.5,-336.5 765.5,-336.5"/>
<text text-anchor="middle" x="843.5" y="-343.5" font-family="Helvetica,sans-Serif" font-size="10.00">Mackey_Functors/Levels.hpp</text>
</a>
</g>
</g>
<!-- Node16&#45;&gt;Node17 -->
<g id="edge17" class="edge">
<title>Node16&#45;&gt;Node17</title>
<path fill="none" stroke="midnightblue" d="M752.01,-392.32C769.57,-383.62 796.83,-370.12 817.03,-360.11"/>
<polygon fill="midnightblue" stroke="midnightblue" points="818.62,-363.23 826.03,-355.65 815.52,-356.96 818.62,-363.23"/>
</g>
<!-- Node28 -->
<g id="node26" class="node">
<title>Node28</title>
<g id="a_node26"><a xlink:href="Identify_8hpp.html" target="_top" xlink:title="Contains the identification classes.">
<polygon fill="white" stroke="black" points="957.5,-336.5 957.5,-355.5 1117.5,-355.5 1117.5,-336.5 957.5,-336.5"/>
<text text-anchor="middle" x="1037.5" y="-343.5" font-family="Helvetica,sans-Serif" font-size="10.00">Mackey_Functors/Identify.hpp</text>
</a>
</g>
</g>
<!-- Node16&#45;&gt;Node28 -->
<g id="edge34" class="edge">
<title>Node16&#45;&gt;Node28</title>
<path fill="none" stroke="midnightblue" d="M768.08,-395.01C819.1,-385.92 916.78,-368.51 979.46,-357.34"/>
<polygon fill="midnightblue" stroke="midnightblue" points="980.35,-360.74 989.58,-355.54 979.13,-353.85 980.35,-360.74"/>
</g>
<!-- Node34 -->
<g id="node32" class="node">
<title>Node34</title>
<g id="a_node32"><a xlink:href="Box_8hpp.html" target="_top" xlink:title="Contains the construction of box products of Chains.">
<polygon fill="white" stroke="black" points="361.5,-224.5 361.5,-243.5 507.5,-243.5 507.5,-224.5 361.5,-224.5"/>
<text text-anchor="middle" x="434.5" y="-231.5" font-family="Helvetica,sans-Serif" font-size="10.00">Chain_Complexes/Box.hpp</text>
</a>
</g>
</g>
<!-- Node16&#45;&gt;Node34 -->
<g id="edge45" class="edge">
<title>Node16&#45;&gt;Node34</title>
<path fill="none" stroke="midnightblue" d="M718.14,-392.5C700.97,-383.54 673.24,-368.96 649.5,-356 579.84,-317.97 498.38,-271.6 458.7,-248.89"/>
<polygon fill="midnightblue" stroke="midnightblue" points="459.96,-245.58 449.54,-243.64 456.48,-251.65 459.96,-245.58"/>
</g>
<!-- Node41 -->
<g id="node38" class="node">
<title>Node41</title>
<g id="a_node38"><a xlink:title=" ">
<polygon fill="white" stroke="#bfbfbf" points="658,-336.5 658,-355.5 747,-355.5 747,-336.5 658,-336.5"/>
<text text-anchor="middle" x="702.5" y="-343.5" font-family="Helvetica,sans-Serif" font-size="10.00">impl/Green.ipp</text>
</a>
</g>
</g>
<!-- Node16&#45;&gt;Node41 -->
<g id="edge55" class="edge">
<title>Node16&#45;&gt;Node41</title>
<path fill="none" stroke="midnightblue" d="M729.22,-392.08C724.79,-384.61 718.34,-373.72 712.88,-364.52"/>
<polygon fill="midnightblue" stroke="midnightblue" points="715.79,-362.57 707.69,-355.75 709.77,-366.14 715.79,-362.57"/>
</g>
<!-- Node17&#45;&gt;Node17 -->
<g id="edge33" class="edge">
<title>Node17&#45;&gt;Node17</title>
<path fill="none" stroke="midnightblue" d="M884.44,-355.53C912.26,-358.31 939.5,-355.13 939.5,-346 939.5,-337.97 918.46,-334.55 894.48,-335.73"/>
<polygon fill="midnightblue" stroke="midnightblue" points="894.16,-332.24 884.44,-336.47 894.68,-339.22 894.16,-332.24"/>
</g>
<!-- Node18 -->
<g id="node18" class="node">
<title>Node18</title>
<g id="a_node18"><a xlink:href="Homology_8hpp.html" target="_top" xlink:title="Contains the Homology class and algorithms.">
<polygon fill="white" stroke="black" points="767.5,-280.5 767.5,-299.5 907.5,-299.5 907.5,-280.5 767.5,-280.5"/>
<text text-anchor="middle" x="837.5" y="-287.5" font-family="Helvetica,sans-Serif" font-size="10.00">Homology/Homology.hpp</text>
</a>
</g>
</g>
<!-- Node17&#45;&gt;Node18 -->
<g id="edge18" class="edge">
<title>Node17&#45;&gt;Node18</title>
<path fill="none" stroke="midnightblue" d="M842.51,-336.08C841.71,-328.93 840.57,-318.64 839.58,-309.69"/>
<polygon fill="midnightblue" stroke="midnightblue" points="843.06,-309.3 838.47,-299.75 836.1,-310.08 843.06,-309.3"/>
</g>
<!-- Node27 -->
<g id="node25" class="node">
<title>Node27</title>
<g id="a_node25"><a xlink:title=" ">
<polygon fill="white" stroke="#bfbfbf" points="658,-280.5 658,-299.5 749,-299.5 749,-280.5 658,-280.5"/>
<text text-anchor="middle" x="703.5" y="-287.5" font-family="Helvetica,sans-Serif" font-size="10.00">impl/Levels.ipp</text>
</a>
</g>
</g>
<!-- Node17&#45;&gt;Node27 -->
<g id="edge32" class="edge">
<title>Node17&#45;&gt;Node27</title>
<path fill="none" stroke="midnightblue" d="M821.32,-336.44C798.07,-327.48 761.35,-313.31 735.08,-303.18"/>
<polygon fill="midnightblue" stroke="midnightblue" points="736.17,-299.85 725.58,-299.52 733.65,-306.38 736.17,-299.85"/>
</g>
<!-- Node18&#45;&gt;Node5 -->
<g id="edge23" class="edge">
<title>Node18&#45;&gt;Node5</title>
<path fill="none" stroke="midnightblue" d="M830.12,-280.37C814.47,-262.05 777.72,-219.05 757.48,-195.36"/>
<polygon fill="midnightblue" stroke="midnightblue" points="760,-192.92 750.84,-187.59 754.68,-197.47 760,-192.92"/>
</g>
<!-- Node18&#45;&gt;Node18 -->
<g id="edge31" class="edge">
<title>Node18&#45;&gt;Node18</title>
<path fill="none" stroke="midnightblue" d="M875.03,-299.53C900.53,-302.31 925.5,-299.13 925.5,-290 925.5,-282.08 906.73,-278.64 885.11,-279.68"/>
<polygon fill="midnightblue" stroke="midnightblue" points="884.73,-276.2 875.03,-280.47 885.28,-283.18 884.73,-276.2"/>
</g>
<!-- Node19 -->
<g id="node19" class="node">
<title>Node19</title>
<g id="a_node19"><a xlink:href="Chains_8hpp.html" target="_top" xlink:title="Contains Chains and Junction classes for using chain complexes.">
<polygon fill="white" stroke="black" points="149,-168.5 149,-187.5 310,-187.5 310,-168.5 149,-168.5"/>
<text text-anchor="middle" x="229.5" y="-175.5" font-family="Helvetica,sans-Serif" font-size="10.00">Chain_Complexes/Chains.hpp</text>
</a>
</g>
</g>
<!-- Node18&#45;&gt;Node19 -->
<g id="edge19" class="edge">
<title>Node18&#45;&gt;Node19</title>
<path fill="none" stroke="midnightblue" d="M767.3,-280.91C764.33,-280.6 761.38,-280.29 758.5,-280 578.27,-261.75 526.23,-295.33 352.5,-244 314.06,-232.64 273.76,-208.69 250.17,-193.25"/>
<polygon fill="midnightblue" stroke="midnightblue" points="251.97,-190.24 241.71,-187.6 248.08,-196.06 251.97,-190.24"/>
</g>
<!-- Node22 -->
<g id="node22" class="node">
<title>Node22</title>
<g id="a_node22"><a xlink:href="Smith_8hpp.html" target="_top" xlink:title="Contains the base class for all Smith implementations.">
<polygon fill="white" stroke="red" points="581.5,-168.5 581.5,-187.5 647.5,-187.5 647.5,-168.5 581.5,-168.5"/>
<text text-anchor="middle" x="614.5" y="-175.5" font-family="Helvetica,sans-Serif" font-size="10.00">Smith.hpp</text>
</a>
</g>
</g>
<!-- Node18&#45;&gt;Node22 -->
<g id="edge24" class="edge">
<title>Node18&#45;&gt;Node22</title>
<path fill="none" stroke="midnightblue" d="M778.81,-280.47C731.15,-272.57 668.66,-259.69 648.5,-244 633.46,-232.29 624.38,-212.06 619.44,-197.27"/>
<polygon fill="midnightblue" stroke="midnightblue" points="622.78,-196.22 616.54,-187.66 616.08,-198.24 622.78,-196.22"/>
</g>
<!-- Node24 -->
<g id="node23" class="node">
<title>Node24</title>
<g id="a_node23"><a xlink:href="Abelian_8hpp.html" target="_top" xlink:title="Contains the methods for finding the automorphisms of finitely generated abelian groups.">
<polygon fill="white" stroke="red" points="821.5,-224.5 821.5,-243.5 895.5,-243.5 895.5,-224.5 821.5,-224.5"/>
<text text-anchor="middle" x="858.5" y="-231.5" font-family="Helvetica,sans-Serif" font-size="10.00">Abelian.hpp</text>
</a>
</g>
</g>
<!-- Node18&#45;&gt;Node24 -->
<g id="edge27" class="edge">
<title>Node18&#45;&gt;Node24</title>
<path fill="none" stroke="midnightblue" d="M840.97,-280.08C843.81,-272.77 847.93,-262.18 851.46,-253.1"/>
<polygon fill="midnightblue" stroke="midnightblue" points="854.73,-254.34 855.1,-243.75 848.21,-251.8 854.73,-254.34"/>
</g>
<!-- Node26 -->
<g id="node24" class="node">
<title>Node26</title>
<g id="a_node24"><a xlink:title=" ">
<polygon fill="white" stroke="#bfbfbf" points="657.5,-224.5 657.5,-243.5 765.5,-243.5 765.5,-224.5 657.5,-224.5"/>
<text text-anchor="middle" x="711.5" y="-231.5" font-family="Helvetica,sans-Serif" font-size="10.00">impl/Homology.ipp</text>
</a>
</g>
</g>
<!-- Node18&#45;&gt;Node26 -->
<g id="edge30" class="edge">
<title>Node18&#45;&gt;Node26</title>
<path fill="none" stroke="midnightblue" d="M817.53,-280.44C796.89,-271.6 764.44,-257.69 740.87,-247.59"/>
<polygon fill="midnightblue" stroke="midnightblue" points="741.94,-244.24 731.37,-243.52 739.18,-250.67 741.94,-244.24"/>
</g>
<!-- Node19&#45;&gt;Node6 -->
<g id="edge20" class="edge">
<title>Node19&#45;&gt;Node6</title>
<path fill="none" stroke="midnightblue" d="M298.99,-168.5C355.88,-161.02 438.61,-148.99 519.88,-131.92"/>
<polygon fill="midnightblue" stroke="midnightblue" points="520.73,-135.32 529.79,-129.81 519.28,-128.47 520.73,-135.32"/>
</g>
<!-- Node20 -->
<g id="node20" class="node">
<title>Node20</title>
<g id="a_node20"><a xlink:title=" ">
<polygon fill="white" stroke="#bfbfbf" points="256,-112.5 256,-131.5 313,-131.5 313,-112.5 256,-112.5"/>
<text text-anchor="middle" x="284.5" y="-119.5" font-family="Helvetica,sans-Serif" font-size="10.00">ostream</text>
</a>
</g>
</g>
<!-- Node19&#45;&gt;Node20 -->
<g id="edge21" class="edge">
<title>Node19&#45;&gt;Node20</title>
<path fill="none" stroke="midnightblue" d="M238.58,-168.08C246.67,-160.14 258.7,-148.34 268.41,-138.8"/>
<polygon fill="midnightblue" stroke="midnightblue" points="270.9,-141.25 275.59,-131.75 266,-136.26 270.9,-141.25"/>
</g>
<!-- Node21 -->
<g id="node21" class="node">
<title>Node21</title>
<g id="a_node21"><a xlink:title=" ">
<polygon fill="white" stroke="#bfbfbf" points="145.5,-112.5 145.5,-131.5 237.5,-131.5 237.5,-112.5 145.5,-112.5"/>
<text text-anchor="middle" x="191.5" y="-119.5" font-family="Helvetica,sans-Serif" font-size="10.00">impl/Chains.ipp</text>
</a>
</g>
</g>
<!-- Node19&#45;&gt;Node21 -->
<g id="edge22" class="edge">
<title>Node19&#45;&gt;Node21</title>
<path fill="none" stroke="midnightblue" d="M223.23,-168.08C217.86,-160.46 209.98,-149.26 203.42,-139.94"/>
<polygon fill="midnightblue" stroke="midnightblue" points="206.28,-137.91 197.66,-131.75 200.55,-141.94 206.28,-137.91"/>
</g>
<!-- Node22&#45;&gt;Node6 -->
<g id="edge25" class="edge">
<title>Node22&#45;&gt;Node6</title>
<path fill="none" stroke="midnightblue" d="M604.7,-168.32C595.68,-160.34 582.09,-148.31 571.18,-138.65"/>
<polygon fill="midnightblue" stroke="midnightblue" points="573.29,-135.84 563.48,-131.83 568.65,-141.08 573.29,-135.84"/>
</g>
<!-- Node22&#45;&gt;Node7 -->
<g id="edge26" class="edge">
<title>Node22&#45;&gt;Node7</title>
<path fill="none" stroke="midnightblue" d="M619.95,-168.08C624.51,-160.61 631.17,-149.72 636.79,-140.52"/>
<polygon fill="midnightblue" stroke="midnightblue" points="639.92,-142.11 642.15,-131.75 633.95,-138.46 639.92,-142.11"/>
</g>
<!-- Node24&#45;&gt;Node5 -->
<g id="edge28" class="edge">
<title>Node24&#45;&gt;Node5</title>
<path fill="none" stroke="midnightblue" d="M840.28,-224.44C821.6,-215.68 792.34,-201.94 770.88,-191.86"/>
<polygon fill="midnightblue" stroke="midnightblue" points="772.18,-188.6 761.64,-187.52 769.2,-194.93 772.18,-188.6"/>
</g>
<!-- Node24&#45;&gt;Node24 -->
<g id="edge29" class="edge">
<title>Node24&#45;&gt;Node24</title>
<path fill="none" stroke="midnightblue" d="M881.96,-243.53C897.9,-246.31 913.5,-243.13 913.5,-234 913.5,-226.86 903.98,-223.37 892.21,-223.5"/>
<polygon fill="midnightblue" stroke="midnightblue" points="891.58,-220.05 881.96,-224.47 892.24,-227.02 891.58,-220.05"/>
</g>
<!-- Node28&#45;&gt;Node18 -->
<g id="edge35" class="edge">
<title>Node28&#45;&gt;Node18</title>
<path fill="none" stroke="midnightblue" d="M1005.81,-336.44C971.43,-327.16 916.42,-312.31 878.71,-302.13"/>
<polygon fill="midnightblue" stroke="midnightblue" points="879.61,-298.74 869.04,-299.52 877.78,-305.5 879.61,-298.74"/>
</g>
<!-- Node28&#45;&gt;Node28 -->
<g id="edge44" class="edge">
<title>Node28&#45;&gt;Node28</title>
<path fill="none" stroke="midnightblue" d="M1079.04,-355.5C1107.53,-358.33 1135.5,-355.16 1135.5,-346 1135.5,-337.95 1113.89,-334.53 1089.32,-335.74"/>
<polygon fill="midnightblue" stroke="midnightblue" points="1088.76,-332.27 1079.04,-336.5 1089.27,-339.25 1088.76,-332.27"/>
</g>
<!-- Node29 -->
<g id="node27" class="node">
<title>Node29</title>
<g id="a_node27"><a xlink:href="MackeyFunctor_8hpp.html" target="_top" xlink:title="Contains the class describing Mackey Functors.">
<polygon fill="white" stroke="black" points="1057,-280.5 1057,-299.5 1254,-299.5 1254,-280.5 1057,-280.5"/>
<text text-anchor="middle" x="1155.5" y="-287.5" font-family="Helvetica,sans-Serif" font-size="10.00">Mackey_Functors/MackeyFunctor.hpp</text>
</a>
</g>
</g>
<!-- Node28&#45;&gt;Node29 -->
<g id="edge36" class="edge">
<title>Node28&#45;&gt;Node29</title>
<path fill="none" stroke="midnightblue" d="M1056.2,-336.44C1075.44,-327.64 1105.65,-313.81 1127.7,-303.72"/>
<polygon fill="midnightblue" stroke="midnightblue" points="1129.25,-306.86 1136.89,-299.52 1126.34,-300.5 1129.25,-306.86"/>
</g>
<!-- Node33 -->
<g id="node31" class="node">
<title>Node33</title>
<g id="a_node31"><a xlink:title=" ">
<polygon fill="white" stroke="#bfbfbf" points="944,-280.5 944,-299.5 1039,-299.5 1039,-280.5 944,-280.5"/>
<text text-anchor="middle" x="991.5" y="-287.5" font-family="Helvetica,sans-Serif" font-size="10.00">impl/Identify.ipp</text>
</a>
</g>
</g>
<!-- Node28&#45;&gt;Node33 -->
<g id="edge43" class="edge">
<title>Node28&#45;&gt;Node33</title>
<path fill="none" stroke="midnightblue" d="M1029.9,-336.08C1023.27,-328.3 1013.48,-316.8 1005.44,-307.37"/>
<polygon fill="midnightblue" stroke="midnightblue" points="1008.1,-305.09 998.95,-299.75 1002.77,-309.63 1008.1,-305.09"/>
</g>
<!-- Node29&#45;&gt;Node12 -->
<g id="edge39" class="edge">
<title>Node29&#45;&gt;Node12</title>
<path fill="none" stroke="midnightblue" d="M1172.87,-280.47C1194.01,-268.86 1225.37,-246.9 1212.5,-224 1185.3,-175.61 1124.48,-147.7 1084.5,-133.93"/>
<polygon fill="midnightblue" stroke="midnightblue" points="1085.41,-130.55 1074.82,-130.73 1083.21,-137.19 1085.41,-130.55"/>
</g>
<!-- Node29&#45;&gt;Node24 -->
<g id="edge40" class="edge">
<title>Node29&#45;&gt;Node24</title>
<path fill="none" stroke="midnightblue" d="M1108.44,-280.44C1053.01,-270.36 961.45,-253.72 905.88,-243.61"/>
<polygon fill="midnightblue" stroke="midnightblue" points="906.4,-240.15 895.94,-241.81 905.15,-247.04 906.4,-240.15"/>
</g>
<!-- Node29&#45;&gt;Node29 -->
<g id="edge42" class="edge">
<title>Node29&#45;&gt;Node29</title>
<path fill="none" stroke="midnightblue" d="M1204.88,-299.5C1238.75,-302.33 1272,-299.16 1272,-290 1272,-281.77 1245.16,-278.38 1215.15,-279.82"/>
<polygon fill="midnightblue" stroke="midnightblue" points="1214.63,-276.35 1204.88,-280.5 1215.09,-283.34 1214.63,-276.35"/>
</g>
<!-- Node30 -->
<g id="node28" class="node">
<title>Node30</title>
<g id="a_node28"><a xlink:title=" ">
<polygon fill="white" stroke="#bfbfbf" points="1081.5,-224.5 1081.5,-243.5 1125.5,-243.5 1125.5,-224.5 1081.5,-224.5"/>
<text text-anchor="middle" x="1103.5" y="-231.5" font-family="Helvetica,sans-Serif" font-size="10.00">string</text>
</a>
</g>
</g>
<!-- Node29&#45;&gt;Node30 -->
<g id="edge37" class="edge">
<title>Node29&#45;&gt;Node30</title>
<path fill="none" stroke="midnightblue" d="M1146.91,-280.08C1139.34,-272.22 1128.12,-260.57 1118.99,-251.08"/>
<polygon fill="midnightblue" stroke="midnightblue" points="1121.38,-248.53 1111.93,-243.75 1116.34,-253.38 1121.38,-248.53"/>
</g>
<!-- Node31 -->
<g id="node29" class="node">
<title>Node31</title>
<g id="a_node29"><a xlink:title=" ">
<polygon fill="white" stroke="#bfbfbf" points="1143.5,-224.5 1143.5,-243.5 1203.5,-243.5 1203.5,-224.5 1143.5,-224.5"/>
<text text-anchor="middle" x="1173.5" y="-231.5" font-family="Helvetica,sans-Serif" font-size="10.00">iostream</text>
</a>
</g>
</g>
<!-- Node29&#45;&gt;Node31 -->
<g id="edge38" class="edge">
<title>Node29&#45;&gt;Node31</title>
<path fill="none" stroke="midnightblue" d="M1158.47,-280.08C1160.88,-272.85 1164.36,-262.41 1167.37,-253.4"/>
<polygon fill="midnightblue" stroke="midnightblue" points="1170.74,-254.34 1170.58,-243.75 1164.1,-252.13 1170.74,-254.34"/>
</g>
<!-- Node32 -->
<g id="node30" class="node">
<title>Node32</title>
<g id="a_node30"><a xlink:title=" ">
<polygon fill="white" stroke="#bfbfbf" points="931.5,-224.5 931.5,-243.5 1063.5,-243.5 1063.5,-224.5 931.5,-224.5"/>
<text text-anchor="middle" x="997.5" y="-231.5" font-family="Helvetica,sans-Serif" font-size="10.00">impl/MackeyFunctor.ipp</text>
</a>
</g>
</g>
<!-- Node29&#45;&gt;Node32 -->
<g id="edge41" class="edge">
<title>Node29&#45;&gt;Node32</title>
<path fill="none" stroke="midnightblue" d="M1130.46,-280.44C1103.88,-271.36 1061.69,-256.94 1031.98,-246.78"/>
<polygon fill="midnightblue" stroke="midnightblue" points="1033.01,-243.44 1022.42,-243.52 1030.75,-250.06 1033.01,-243.44"/>
</g>
<!-- Node34&#45;&gt;Node5 -->
<g id="edge46" class="edge">
<title>Node34&#45;&gt;Node5</title>
<path fill="none" stroke="midnightblue" d="M483.46,-224.44C538.04,-214.9 626.29,-199.48 684.6,-189.29"/>
<polygon fill="midnightblue" stroke="midnightblue" points="685.52,-192.69 694.77,-187.52 684.31,-185.79 685.52,-192.69"/>
</g>
<!-- Node34&#45;&gt;Node19 -->
<g id="edge47" class="edge">
<title>Node34&#45;&gt;Node19</title>
<path fill="none" stroke="midnightblue" d="M402.02,-224.44C366.78,-215.16 310.4,-200.31 271.74,-190.13"/>
<polygon fill="midnightblue" stroke="midnightblue" points="272.39,-186.68 261.83,-187.52 270.61,-193.45 272.39,-186.68"/>
</g>
<!-- Node34&#45;&gt;Node34 -->
<g id="edge54" class="edge">
<title>Node34&#45;&gt;Node34</title>
<path fill="none" stroke="midnightblue" d="M473.31,-243.53C499.68,-246.31 525.5,-243.13 525.5,-234 525.5,-226.04 505.91,-222.61 483.43,-223.7"/>
<polygon fill="midnightblue" stroke="midnightblue" points="483.01,-220.22 473.31,-224.47 483.55,-227.2 483.01,-220.22"/>
</g>
<!-- Node35 -->
<g id="node33" class="node">
<title>Node35</title>
<g id="a_node33"><a xlink:href="ChangeBasis_8hpp.html" target="_top" xlink:title="Contains the construction of the change of basis matrices.">
<polygon fill="white" stroke="red" points="328,-168.5 328,-187.5 429,-187.5 429,-168.5 328,-168.5"/>
<text text-anchor="middle" x="378.5" y="-175.5" font-family="Helvetica,sans-Serif" font-size="10.00">ChangeBasis.hpp</text>
</a>
</g>
</g>
<!-- Node34&#45;&gt;Node35 -->
<g id="edge48" class="edge">
<title>Node34&#45;&gt;Node35</title>
<path fill="none" stroke="midnightblue" d="M425.5,-224.32C417.31,-216.42 404.99,-204.55 395.03,-194.94"/>
<polygon fill="midnightblue" stroke="midnightblue" points="397.29,-192.26 387.66,-187.83 392.43,-197.29 397.29,-192.26"/>
</g>
<!-- Node40 -->
<g id="node37" class="node">
<title>Node40</title>
<g id="a_node37"><a xlink:title=" ">
<polygon fill="white" stroke="#bfbfbf" points="447.5,-168.5 447.5,-187.5 525.5,-187.5 525.5,-168.5 447.5,-168.5"/>
<text text-anchor="middle" x="486.5" y="-175.5" font-family="Helvetica,sans-Serif" font-size="10.00">impl/Box.ipp</text>
</a>
</g>
</g>
<!-- Node34&#45;&gt;Node40 -->
<g id="edge53" class="edge">
<title>Node34&#45;&gt;Node40</title>
<path fill="none" stroke="midnightblue" d="M443.09,-224.08C450.66,-216.22 461.88,-204.57 471.01,-195.08"/>
<polygon fill="midnightblue" stroke="midnightblue" points="473.66,-197.38 478.07,-187.75 468.62,-192.53 473.66,-197.38"/>
</g>
<!-- Node35&#45;&gt;Node6 -->
<g id="edge49" class="edge">
<title>Node35&#45;&gt;Node6</title>
<path fill="none" stroke="midnightblue" d="M406.23,-168.44C437.15,-158.9 487.14,-143.48 520.16,-133.29"/>
<polygon fill="midnightblue" stroke="midnightblue" points="521.31,-136.6 529.83,-130.3 519.24,-129.91 521.31,-136.6"/>
</g>
<!-- Node36 -->
<g id="node34" class="node">
<title>Node36</title>
<g id="a_node34"><a xlink:title=" ">
<polygon fill="white" stroke="#bfbfbf" points="391.5,-112.5 391.5,-131.5 429.5,-131.5 429.5,-112.5 391.5,-112.5"/>
<text text-anchor="middle" x="410.5" y="-119.5" font-family="Helvetica,sans-Serif" font-size="10.00">map</text>
</a>
</g>
</g>
<!-- Node35&#45;&gt;Node36 -->
<g id="edge50" class="edge">
<title>Node35&#45;&gt;Node36</title>
<path fill="none" stroke="midnightblue" d="M383.78,-168.08C388.21,-160.61 394.66,-149.72 400.12,-140.52"/>
<polygon fill="midnightblue" stroke="midnightblue" points="403.23,-142.14 405.31,-131.75 397.21,-138.57 403.23,-142.14"/>
</g>
<!-- Node37 -->
<g id="node35" class="node">
<title>Node37</title>
<g id="a_node35"><a xlink:title=" ">
<polygon fill="white" stroke="#bfbfbf" points="447.5,-112.5 447.5,-131.5 511.5,-131.5 511.5,-112.5 447.5,-112.5"/>
<text text-anchor="middle" x="479.5" y="-119.5" font-family="Helvetica,sans-Serif" font-size="10.00">algorithm</text>
</a>
</g>
</g>
<!-- Node35&#45;&gt;Node37 -->
<g id="edge51" class="edge">
<title>Node35&#45;&gt;Node37</title>
<path fill="none" stroke="midnightblue" d="M394.73,-168.32C410.85,-159.7 435.8,-146.36 454.46,-136.39"/>
<polygon fill="midnightblue" stroke="midnightblue" points="456.14,-139.46 463.31,-131.65 452.84,-133.28 456.14,-139.46"/>
</g>
<!-- Node38 -->
<g id="node36" class="node">
<title>Node38</title>
<g id="a_node36"><a xlink:title=" ">
<polygon fill="white" stroke="#bfbfbf" points="331.5,-112.5 331.5,-131.5 373.5,-131.5 373.5,-112.5 331.5,-112.5"/>
<text text-anchor="middle" x="352.5" y="-119.5" font-family="Helvetica,sans-Serif" font-size="10.00">array</text>
</a>
</g>
</g>
<!-- Node35&#45;&gt;Node38 -->
<g id="edge52" class="edge">
<title>Node35&#45;&gt;Node38</title>
<path fill="none" stroke="midnightblue" d="M374.21,-168.08C370.65,-160.69 365.48,-149.95 361.08,-140.81"/>
<polygon fill="midnightblue" stroke="midnightblue" points="364.21,-139.24 356.71,-131.75 357.9,-142.28 364.21,-139.24"/>
</g>
<!-- Node43&#45;&gt;Node9 -->
<g id="edge61" class="edge">
<title>Node43&#45;&gt;Node9</title>
<path fill="none" stroke="midnightblue" d="M136.76,-224.2C128.17,-202.45 109.75,-145.51 136.5,-112 154.64,-89.27 231.65,-77.15 284.11,-71.4"/>
<polygon fill="midnightblue" stroke="midnightblue" points="284.67,-74.86 294.25,-70.33 283.94,-67.9 284.67,-74.86"/>
</g>
<!-- Node43&#45;&gt;Node19 -->
<g id="edge60" class="edge">
<title>Node43&#45;&gt;Node19</title>
<path fill="none" stroke="midnightblue" d="M154.8,-224.32C168.68,-215.9 189.99,-202.97 206.3,-193.07"/>
<polygon fill="midnightblue" stroke="midnightblue" points="208.5,-195.83 215.24,-187.65 204.87,-189.85 208.5,-195.83"/>
</g>
<!-- Node43&#45;&gt;Node43 -->
<g id="edge63" class="edge">
<title>Node43&#45;&gt;Node43</title>
<path fill="none" stroke="midnightblue" d="M181.62,-243.5C209.82,-246.33 237.5,-243.16 237.5,-234 237.5,-225.95 216.11,-222.53 191.79,-223.74"/>
<polygon fill="midnightblue" stroke="midnightblue" points="191.33,-220.26 181.62,-224.5 191.85,-227.24 191.33,-220.26"/>
</g>
<!-- Node44 -->
<g id="node41" class="node">
<title>Node44</title>
<g id="a_node41"><a xlink:title=" ">
<polygon fill="white" stroke="#bfbfbf" points="0,-168.5 0,-187.5 89,-187.5 89,-168.5 0,-168.5"/>
<text text-anchor="middle" x="44.5" y="-175.5" font-family="Helvetica,sans-Serif" font-size="10.00">impl/Morse.ipp</text>
</a>
</g>
</g>
<!-- Node43&#45;&gt;Node44 -->
<g id="edge62" class="edge">
<title>Node43&#45;&gt;Node44</title>
<path fill="none" stroke="midnightblue" d="M125.08,-224.32C109.96,-215.82 86.68,-202.73 69.03,-192.8"/>
<polygon fill="midnightblue" stroke="midnightblue" points="70.32,-189.51 59.89,-187.65 66.89,-195.61 70.32,-189.51"/>
</g>
<!-- Node47&#45;&gt;Node6 -->
<g id="edge67" class="edge">
<title>Node47&#45;&gt;Node6</title>
<path fill="none" stroke="midnightblue" d="M613.25,-560.4C600.57,-552.5 582.96,-539.66 572.5,-524 555.78,-498.98 553.5,-489.1 553.5,-459 553.5,-459 553.5,-459 553.5,-233 553.5,-200.95 553.5,-163.64 553.5,-141.75"/>
<polygon fill="midnightblue" stroke="midnightblue" points="557,-141.56 553.5,-131.56 550,-141.56 557,-141.56"/>
</g>
<!-- Node47&#45;&gt;Node47 -->
<g id="edge72" class="edge">
<title>Node47&#45;&gt;Node47</title>
<path fill="none" stroke="midnightblue" d="M657.5,-579.53C677.21,-582.31 696.5,-579.13 696.5,-570 696.5,-562.44 683.27,-558.96 667.53,-559.57"/>
<polygon fill="midnightblue" stroke="midnightblue" points="667.15,-556.09 657.5,-560.47 667.78,-563.06 667.15,-556.09"/>
</g>
<!-- Node48 -->
<g id="node45" class="node">
<title>Node48</title>
<g id="a_node45"><a xlink:title=" ">
<polygon fill="white" stroke="#bfbfbf" points="813,-504.5 813,-523.5 860,-523.5 860,-504.5 813,-504.5"/>
<text text-anchor="middle" x="836.5" y="-511.5" font-family="Helvetica,sans-Serif" font-size="10.00">queue</text>
</a>
</g>
</g>
<!-- Node47&#45;&gt;Node48 -->
<g id="edge68" class="edge">
<title>Node47&#45;&gt;Node48</title>
<path fill="none" stroke="midnightblue" d="M662.96,-560.45C696.48,-552.07 749.07,-538.78 803.02,-524.36"/>
<polygon fill="midnightblue" stroke="midnightblue" points="804,-527.72 812.75,-521.75 802.19,-520.96 804,-527.72"/>
</g>
<!-- Node49 -->
<g id="node46" class="node">
<title>Node49</title>
<g id="a_node46"><a xlink:title=" ">
<polygon fill="white" stroke="#bfbfbf" points="581.5,-504.5 581.5,-523.5 613.5,-523.5 613.5,-504.5 581.5,-504.5"/>
<text text-anchor="middle" x="597.5" y="-511.5" font-family="Helvetica,sans-Serif" font-size="10.00">set</text>
</a>
</g>
</g>
<!-- Node47&#45;&gt;Node49 -->
<g id="edge69" class="edge">
<title>Node47&#45;&gt;Node49</title>
<path fill="none" stroke="midnightblue" d="M623.38,-560.08C619.09,-552.61 612.84,-541.72 607.56,-532.52"/>
<polygon fill="midnightblue" stroke="midnightblue" points="610.54,-530.68 602.52,-523.75 604.47,-534.17 610.54,-530.68"/>
</g>
<!-- Node50 -->
<g id="node47" class="node">
<title>Node50</title>
<g id="a_node47"><a xlink:title=" ">
<polygon fill="white" stroke="#bfbfbf" points="631.5,-504.5 631.5,-523.5 687.5,-523.5 687.5,-504.5 631.5,-504.5"/>
<text text-anchor="middle" x="659.5" y="-511.5" font-family="Helvetica,sans-Serif" font-size="10.00">iomanip</text>
</a>
</g>
</g>
<!-- Node47&#45;&gt;Node50 -->
<g id="edge70" class="edge">
<title>Node47&#45;&gt;Node50</title>
<path fill="none" stroke="midnightblue" d="M633.62,-560.08C637.91,-552.61 644.16,-541.72 649.44,-532.52"/>
<polygon fill="midnightblue" stroke="midnightblue" points="652.53,-534.17 654.48,-523.75 646.46,-530.68 652.53,-534.17"/>
</g>
<!-- Node51 -->
<g id="node48" class="node">
<title>Node51</title>
<g id="a_node48"><a xlink:title=" ">
<polygon fill="white" stroke="#bfbfbf" points="706,-504.5 706,-523.5 795,-523.5 795,-504.5 706,-504.5"/>
<text text-anchor="middle" x="750.5" y="-511.5" font-family="Helvetica,sans-Serif" font-size="10.00">impl/Graph.ipp</text>
</a>
</g>
</g>
<!-- Node47&#45;&gt;Node51 -->
<g id="edge71" class="edge">
<title>Node47&#45;&gt;Node51</title>
<path fill="none" stroke="midnightblue" d="M647.83,-560.44C667.82,-551.6 699.24,-537.69 722.06,-527.59"/>
<polygon fill="midnightblue" stroke="midnightblue" points="723.53,-530.76 731.26,-523.52 720.7,-524.36 723.53,-530.76"/>
</g>
</g>
</svg>
