<?xml version="1.0" encoding="UTF-8" standalone="no"?>
<!DOCTYPE svg PUBLIC "-//W3C//DTD SVG 1.1//EN"
 "http://www.w3.org/Graphics/SVG/1.1/DTD/svg11.dtd">
<!-- Generated by graphviz version 2.43.0 (0)
 -->
<!-- Title: Mult_Table.hpp Pages: 1 -->
<svg width="1254pt" height="588pt"
 viewBox="0.00 0.00 1253.84 588.00" xmlns="http://www.w3.org/2000/svg" xmlns:xlink="http://www.w3.org/1999/xlink">
<g id="graph0" class="graph" transform="scale(1 1) rotate(0) translate(4 584)">
<title>Mult_Table.hpp</title>
<polygon fill="white" stroke="transparent" points="-4,4 -4,-584 1249.84,-584 1249.84,4 -4,4"/>
<!-- Node1 -->
<g id="node1" class="node">
<title>Node1</title>
<g id="a_node1"><a xlink:title="Contains the classes mackey::MultTableData and mackey::MultTable.">
<polygon fill="#bfbfbf" stroke="black" points="420.84,-560.5 420.84,-579.5 510.84,-579.5 510.84,-560.5 420.84,-560.5"/>
<text text-anchor="middle" x="465.84" y="-567.5" font-family="Helvetica,sans-Serif" font-size="10.00">Mult_Table.hpp</text>
</a>
</g>
</g>
<!-- Node2 -->
<g id="node2" class="node">
<title>Node2</title>
<g id="a_node2"><a xlink:href="OpenMP__Macros_8hpp.html" target="_top" xlink:title="Contains open MP macros that enable and control multithreading.">
<polygon fill="white" stroke="black" points="246.84,-504.5 246.84,-523.5 398.84,-523.5 398.84,-504.5 246.84,-504.5"/>
<text text-anchor="middle" x="322.84" y="-511.5" font-family="Helvetica,sans-Serif" font-size="10.00">Utility/OpenMP_Macros.hpp</text>
</a>
</g>
</g>
<!-- Node1&#45;&gt;Node2 -->
<g id="edge1" class="edge">
<title>Node1&#45;&gt;Node2</title>
<path fill="none" stroke="midnightblue" d="M443.18,-560.44C419.44,-551.48 381.93,-537.31 355.1,-527.18"/>
<polygon fill="midnightblue" stroke="midnightblue" points="355.99,-523.77 345.4,-523.52 353.51,-530.32 355.99,-523.77"/>
</g>
<!-- Node3 -->
<g id="node3" class="node">
<title>Node3</title>
<g id="a_node3"><a xlink:href="General_8hpp.html" target="_top" xlink:title="Contains general functions and vector overloads independent of everything else.">
<polygon fill="white" stroke="black" points="717.34,-168.5 717.34,-187.5 826.34,-187.5 826.34,-168.5 717.34,-168.5"/>
<text text-anchor="middle" x="771.84" y="-175.5" font-family="Helvetica,sans-Serif" font-size="10.00">Utility/General.hpp</text>
</a>
</g>
</g>
<!-- Node1&#45;&gt;Node3 -->
<g id="edge2" class="edge">
<title>Node1&#45;&gt;Node3</title>
<path fill="none" stroke="midnightblue" d="M460.71,-560.41C455.78,-551.61 448.68,-537.38 445.84,-524 444,-515.3 444.4,-512.77 445.84,-504 462.96,-400.27 449.65,-356.42 521.84,-280 571.2,-227.76 651.27,-201.85 707.47,-189.48"/>
<polygon fill="midnightblue" stroke="midnightblue" points="708.26,-192.89 717.32,-187.4 706.81,-186.04 708.26,-192.89"/>
</g>
<!-- Node13 -->
<g id="node13" class="node">
<title>Node13</title>
<g id="a_node13"><a xlink:href="Point_8hpp.html" target="_top" xlink:title="Contains the methods computing the RO(G) homology of a point.">
<polygon fill="white" stroke="black" points="454.84,-504.5 454.84,-523.5 554.84,-523.5 554.84,-504.5 454.84,-504.5"/>
<text text-anchor="middle" x="504.84" y="-511.5" font-family="Helvetica,sans-Serif" font-size="10.00">Spaces/Point.hpp</text>
</a>
</g>
</g>
<!-- Node1&#45;&gt;Node13 -->
<g id="edge12" class="edge">
<title>Node1&#45;&gt;Node13</title>
<path fill="none" stroke="midnightblue" d="M472.28,-560.08C477.79,-552.46 485.87,-541.26 492.61,-531.94"/>
<polygon fill="midnightblue" stroke="midnightblue" points="495.5,-533.91 498.52,-523.75 489.83,-529.81 495.5,-533.91"/>
</g>
<!-- Node44 -->
<g id="node44" class="node">
<title>Node44</title>
<g id="a_node44"><a xlink:title=" ">
<polygon fill="white" stroke="#bfbfbf" points="572.84,-504.5 572.84,-523.5 684.84,-523.5 684.84,-504.5 572.84,-504.5"/>
<text text-anchor="middle" x="628.84" y="-511.5" font-family="Helvetica,sans-Serif" font-size="10.00">impl/Mult_Table.ipp</text>
</a>
</g>
</g>
<!-- Node1&#45;&gt;Node44 -->
<g id="edge57" class="edge">
<title>Node1&#45;&gt;Node44</title>
<path fill="none" stroke="midnightblue" d="M491.67,-560.44C519.09,-551.36 562.62,-536.94 593.27,-526.78"/>
<polygon fill="midnightblue" stroke="midnightblue" points="594.74,-529.98 603.14,-523.52 592.54,-523.34 594.74,-529.98"/>
</g>
<!-- Node4 -->
<g id="node4" class="node">
<title>Node4</title>
<g id="a_node4"><a xlink:title=" ">
<polygon fill="white" stroke="#bfbfbf" points="548.34,-112.5 548.34,-131.5 595.34,-131.5 595.34,-112.5 548.34,-112.5"/>
<text text-anchor="middle" x="571.84" y="-119.5" font-family="Helvetica,sans-Serif" font-size="10.00">vector</text>
</a>
</g>
</g>
<!-- Node3&#45;&gt;Node4 -->
<g id="edge3" class="edge">
<title>Node3&#45;&gt;Node4</title>
<path fill="none" stroke="midnightblue" d="M740.13,-168.49C708.5,-159.99 658.26,-146.47 605.51,-132.17"/>
<polygon fill="midnightblue" stroke="midnightblue" points="606.2,-128.74 595.63,-129.5 604.37,-135.49 606.2,-128.74"/>
</g>
<!-- Node5 -->
<g id="node5" class="node">
<title>Node5</title>
<g id="a_node5"><a xlink:href="Aliases_8hpp.html" target="_top" xlink:title="Contains general template aliases.">
<polygon fill="white" stroke="black" points="719.84,-112.5 719.84,-131.5 823.84,-131.5 823.84,-112.5 719.84,-112.5"/>
<text text-anchor="middle" x="771.84" y="-119.5" font-family="Helvetica,sans-Serif" font-size="10.00">Types/Aliases.hpp</text>
</a>
</g>
</g>
<!-- Node3&#45;&gt;Node5 -->
<g id="edge4" class="edge">
<title>Node3&#45;&gt;Node5</title>
<path fill="none" stroke="midnightblue" d="M771.84,-168.08C771.84,-161.01 771.84,-150.86 771.84,-141.99"/>
<polygon fill="midnightblue" stroke="midnightblue" points="775.34,-141.75 771.84,-131.75 768.34,-141.75 775.34,-141.75"/>
</g>
<!-- Node10 -->
<g id="node10" class="node">
<title>Node10</title>
<g id="a_node10"><a xlink:title=" ">
<polygon fill="white" stroke="#bfbfbf" points="957.84,-112.5 957.84,-131.5 1013.84,-131.5 1013.84,-112.5 957.84,-112.5"/>
<text text-anchor="middle" x="985.84" y="-119.5" font-family="Helvetica,sans-Serif" font-size="10.00">numeric</text>
</a>
</g>
</g>
<!-- Node3&#45;&gt;Node10 -->
<g id="edge9" class="edge">
<title>Node3&#45;&gt;Node10</title>
<path fill="none" stroke="midnightblue" d="M805.75,-168.44C844.43,-158.68 907.52,-142.76 947.83,-132.59"/>
<polygon fill="midnightblue" stroke="midnightblue" points="948.72,-135.98 957.56,-130.14 947.01,-129.19 948.72,-135.98"/>
</g>
<!-- Node11 -->
<g id="node11" class="node">
<title>Node11</title>
<g id="a_node11"><a xlink:title=" ">
<polygon fill="white" stroke="#bfbfbf" points="1031.84,-112.5 1031.84,-131.5 1091.84,-131.5 1091.84,-112.5 1031.84,-112.5"/>
<text text-anchor="middle" x="1061.84" y="-119.5" font-family="Helvetica,sans-Serif" font-size="10.00">iostream</text>
</a>
</g>
</g>
<!-- Node3&#45;&gt;Node11 -->
<g id="edge10" class="edge">
<title>Node3&#45;&gt;Node11</title>
<path fill="none" stroke="midnightblue" d="M823.9,-168.44C872.58,-160.26 947.53,-147.22 1021.66,-132.16"/>
<polygon fill="midnightblue" stroke="midnightblue" points="1022.54,-135.56 1031.64,-130.12 1021.14,-128.7 1022.54,-135.56"/>
</g>
<!-- Node12 -->
<g id="node12" class="node">
<title>Node12</title>
<g id="a_node12"><a xlink:title=" ">
<polygon fill="white" stroke="#bfbfbf" points="841.84,-112.5 841.84,-131.5 939.84,-131.5 939.84,-112.5 841.84,-112.5"/>
<text text-anchor="middle" x="890.84" y="-119.5" font-family="Helvetica,sans-Serif" font-size="10.00">impl/General.ipp</text>
</a>
</g>
</g>
<!-- Node3&#45;&gt;Node12 -->
<g id="edge11" class="edge">
<title>Node3&#45;&gt;Node12</title>
<path fill="none" stroke="midnightblue" d="M790.7,-168.44C810.11,-159.64 840.57,-145.81 862.81,-135.72"/>
<polygon fill="midnightblue" stroke="midnightblue" points="864.41,-138.84 872.07,-131.52 861.52,-132.46 864.41,-138.84"/>
</g>
<!-- Node6 -->
<g id="node6" class="node">
<title>Node6</title>
<g id="a_node6"><a xlink:title=" ">
<polygon fill="white" stroke="#bfbfbf" points="779.34,-56.5 779.34,-75.5 856.34,-75.5 856.34,-56.5 779.34,-56.5"/>
<text text-anchor="middle" x="817.84" y="-63.5" font-family="Helvetica,sans-Serif" font-size="10.00">Eigen/Dense</text>
</a>
</g>
</g>
<!-- Node5&#45;&gt;Node6 -->
<g id="edge5" class="edge">
<title>Node5&#45;&gt;Node6</title>
<path fill="none" stroke="midnightblue" d="M779.44,-112.08C786.07,-104.3 795.86,-92.8 803.9,-83.37"/>
<polygon fill="midnightblue" stroke="midnightblue" points="806.57,-85.63 810.39,-75.75 801.24,-81.09 806.57,-85.63"/>
</g>
<!-- Node7 -->
<g id="node7" class="node">
<title>Node7</title>
<g id="a_node7"><a xlink:title=" ">
<polygon fill="white" stroke="#bfbfbf" points="295.84,-56.5 295.84,-75.5 375.84,-75.5 375.84,-56.5 295.84,-56.5"/>
<text text-anchor="middle" x="335.84" y="-63.5" font-family="Helvetica,sans-Serif" font-size="10.00">Eigen/Sparse</text>
</a>
</g>
</g>
<!-- Node5&#45;&gt;Node7 -->
<g id="edge6" class="edge">
<title>Node5&#45;&gt;Node7</title>
<path fill="none" stroke="midnightblue" d="M719.61,-113.2C716.65,-112.79 713.71,-112.38 710.84,-112 594.69,-96.47 457.96,-80.69 385.99,-72.58"/>
<polygon fill="midnightblue" stroke="midnightblue" points="386.18,-69.08 375.85,-71.44 385.39,-76.04 386.18,-69.08"/>
</g>
<!-- Node8 -->
<g id="node8" class="node">
<title>Node8</title>
<g id="a_node8"><a xlink:href="SFINAE_8hpp.html" target="_top" xlink:title="Contains all the SFINAE tricks.">
<polygon fill="white" stroke="black" points="688.34,-56.5 688.34,-75.5 761.34,-75.5 761.34,-56.5 688.34,-56.5"/>
<text text-anchor="middle" x="724.84" y="-63.5" font-family="Helvetica,sans-Serif" font-size="10.00">SFINAE.hpp</text>
</a>
</g>
</g>
<!-- Node5&#45;&gt;Node8 -->
<g id="edge7" class="edge">
<title>Node5&#45;&gt;Node8</title>
<path fill="none" stroke="midnightblue" d="M764.08,-112.08C757.31,-104.3 747.3,-92.8 739.09,-83.37"/>
<polygon fill="midnightblue" stroke="midnightblue" points="741.66,-81 732.46,-75.75 736.38,-85.59 741.66,-81"/>
</g>
<!-- Node9 -->
<g id="node9" class="node">
<title>Node9</title>
<g id="a_node9"><a xlink:title=" ">
<polygon fill="white" stroke="#bfbfbf" points="690.34,-0.5 690.34,-19.5 759.34,-19.5 759.34,-0.5 690.34,-0.5"/>
<text text-anchor="middle" x="724.84" y="-7.5" font-family="Helvetica,sans-Serif" font-size="10.00">type_traits</text>
</a>
</g>
</g>
<!-- Node8&#45;&gt;Node9 -->
<g id="edge8" class="edge">
<title>Node8&#45;&gt;Node9</title>
<path fill="none" stroke="midnightblue" d="M724.84,-56.08C724.84,-49.01 724.84,-38.86 724.84,-29.99"/>
<polygon fill="midnightblue" stroke="midnightblue" points="728.34,-29.75 724.84,-19.75 721.34,-29.75 728.34,-29.75"/>
</g>
<!-- Node14 -->
<g id="node14" class="node">
<title>Node14</title>
<g id="a_node14"><a xlink:href="Massey_8hpp.html" target="_top" xlink:title="Contains the classes mackey::Massey and mackey::internal::MasseyCompute.">
<polygon fill="white" stroke="black" points="595.34,-448.5 595.34,-467.5 714.34,-467.5 714.34,-448.5 595.34,-448.5"/>
<text text-anchor="middle" x="654.84" y="-455.5" font-family="Helvetica,sans-Serif" font-size="10.00">Products/Massey.hpp</text>
</a>
</g>
</g>
<!-- Node13&#45;&gt;Node14 -->
<g id="edge13" class="edge">
<title>Node13&#45;&gt;Node14</title>
<path fill="none" stroke="midnightblue" d="M528.61,-504.44C553.74,-495.4 593.55,-481.06 621.74,-470.92"/>
<polygon fill="midnightblue" stroke="midnightblue" points="622.96,-474.2 631.19,-467.52 620.59,-467.61 622.96,-474.2"/>
</g>
<!-- Node41 -->
<g id="node41" class="node">
<title>Node41</title>
<g id="a_node41"><a xlink:href="Morse_8hpp.html" target="_top" xlink:title="Contains the classes mackey::AMT and mackey::EquivariantAMT.">
<polygon fill="white" stroke="black" points="8.84,-224.5 8.84,-243.5 166.84,-243.5 166.84,-224.5 8.84,-224.5"/>
<text text-anchor="middle" x="87.84" y="-231.5" font-family="Helvetica,sans-Serif" font-size="10.00">Chain_Complexes/Morse.hpp</text>
</a>
</g>
</g>
<!-- Node13&#45;&gt;Node41 -->
<g id="edge52" class="edge">
<title>Node13&#45;&gt;Node41</title>
<path fill="none" stroke="midnightblue" d="M491.91,-504.38C432.32,-464.65 184.02,-299.12 109.24,-249.27"/>
<polygon fill="midnightblue" stroke="midnightblue" points="110.89,-246.16 100.63,-243.52 107.01,-251.98 110.89,-246.16"/>
</g>
<!-- Node43 -->
<g id="node43" class="node">
<title>Node43</title>
<g id="a_node43"><a xlink:title=" ">
<polygon fill="white" stroke="#bfbfbf" points="492.84,-448.5 492.84,-467.5 576.84,-467.5 576.84,-448.5 492.84,-448.5"/>
<text text-anchor="middle" x="534.84" y="-455.5" font-family="Helvetica,sans-Serif" font-size="10.00">impl/Point.ipp</text>
</a>
</g>
</g>
<!-- Node13&#45;&gt;Node43 -->
<g id="edge56" class="edge">
<title>Node13&#45;&gt;Node43</title>
<path fill="none" stroke="midnightblue" d="M509.8,-504.08C513.95,-496.61 520,-485.72 525.11,-476.52"/>
<polygon fill="midnightblue" stroke="midnightblue" points="528.18,-478.19 529.98,-467.75 522.06,-474.79 528.18,-478.19"/>
</g>
<!-- Node15 -->
<g id="node15" class="node">
<title>Node15</title>
<g id="a_node15"><a xlink:href="Green_8hpp.html" target="_top" xlink:title="Contains the classes mackey::Green, mackey::internal::GreenCompute, mackey::internal::ChainsLevelGen,...">
<polygon fill="white" stroke="black" points="551.34,-392.5 551.34,-411.5 618.34,-411.5 618.34,-392.5 551.34,-392.5"/>
<text text-anchor="middle" x="584.84" y="-399.5" font-family="Helvetica,sans-Serif" font-size="10.00">Green.hpp</text>
</a>
</g>
</g>
<!-- Node14&#45;&gt;Node15 -->
<g id="edge14" class="edge">
<title>Node14&#45;&gt;Node15</title>
<path fill="none" stroke="midnightblue" d="M643.6,-448.32C633.05,-440.18 617.04,-427.84 604.4,-418.09"/>
<polygon fill="midnightblue" stroke="midnightblue" points="606.35,-415.17 596.29,-411.83 602.07,-420.71 606.35,-415.17"/>
</g>
<!-- Node40 -->
<g id="node40" class="node">
<title>Node40</title>
<g id="a_node40"><a xlink:title=" ">
<polygon fill="white" stroke="#bfbfbf" points="636.34,-392.5 636.34,-411.5 731.34,-411.5 731.34,-392.5 636.34,-392.5"/>
<text text-anchor="middle" x="683.84" y="-399.5" font-family="Helvetica,sans-Serif" font-size="10.00">impl/Massey.ipp</text>
</a>
</g>
</g>
<!-- Node14&#45;&gt;Node40 -->
<g id="edge51" class="edge">
<title>Node14&#45;&gt;Node40</title>
<path fill="none" stroke="midnightblue" d="M659.63,-448.08C663.6,-440.69 669.37,-429.95 674.28,-420.81"/>
<polygon fill="midnightblue" stroke="midnightblue" points="677.5,-422.22 679.14,-411.75 671.33,-418.91 677.5,-422.22"/>
</g>
<!-- Node16 -->
<g id="node16" class="node">
<title>Node16</title>
<g id="a_node16"><a xlink:href="Levels_8hpp.html" target="_top" xlink:title="Contains the methods for transfering, restricting and Weyl&#45;group&#45;acting.">
<polygon fill="white" stroke="black" points="624.84,-336.5 624.84,-355.5 780.84,-355.5 780.84,-336.5 624.84,-336.5"/>
<text text-anchor="middle" x="702.84" y="-343.5" font-family="Helvetica,sans-Serif" font-size="10.00">Mackey_Functors/Levels.hpp</text>
</a>
</g>
</g>
<!-- Node15&#45;&gt;Node16 -->
<g id="edge15" class="edge">
<title>Node15&#45;&gt;Node16</title>
<path fill="none" stroke="midnightblue" d="M603.54,-392.44C622.79,-383.64 653,-369.81 675.04,-359.72"/>
<polygon fill="midnightblue" stroke="midnightblue" points="676.6,-362.86 684.23,-355.52 673.68,-356.5 676.6,-362.86"/>
</g>
<!-- Node27 -->
<g id="node27" class="node">
<title>Node27</title>
<g id="a_node27"><a xlink:href="Identify_8hpp.html" target="_top" xlink:title="Contains the classes mackey::IDGenerators and mackey::internal::IDGeneratorCompute">
<polygon fill="white" stroke="black" points="798.84,-336.5 798.84,-355.5 958.84,-355.5 958.84,-336.5 798.84,-336.5"/>
<text text-anchor="middle" x="878.84" y="-343.5" font-family="Helvetica,sans-Serif" font-size="10.00">Mackey_Functors/Identify.hpp</text>
</a>
</g>
</g>
<!-- Node15&#45;&gt;Node27 -->
<g id="edge31" class="edge">
<title>Node15&#45;&gt;Node27</title>
<path fill="none" stroke="midnightblue" d="M618.75,-393.63C621.48,-393.07 624.21,-392.52 626.84,-392 692.05,-379.19 767.06,-366 818.17,-357.23"/>
<polygon fill="midnightblue" stroke="midnightblue" points="818.8,-360.68 828.07,-355.54 817.62,-353.78 818.8,-360.68"/>
</g>
<!-- Node32 -->
<g id="node32" class="node">
<title>Node32</title>
<g id="a_node32"><a xlink:href="Box_8hpp.html" target="_top" xlink:title="Contains the class mackey::Tensor.">
<polygon fill="white" stroke="black" points="276.84,-224.5 276.84,-243.5 422.84,-243.5 422.84,-224.5 276.84,-224.5"/>
<text text-anchor="middle" x="349.84" y="-231.5" font-family="Helvetica,sans-Serif" font-size="10.00">Chain_Complexes/Box.hpp</text>
</a>
</g>
</g>
<!-- Node15&#45;&gt;Node32 -->
<g id="edge40" class="edge">
<title>Node15&#45;&gt;Node32</title>
<path fill="none" stroke="midnightblue" d="M567.63,-392.38C551.56,-384 527.2,-370.45 507.84,-356 468.28,-326.47 466.4,-309.53 426.84,-280 410.81,-268.03 391.35,-256.69 376.01,-248.38"/>
<polygon fill="midnightblue" stroke="midnightblue" points="377.52,-245.22 367.05,-243.62 374.24,-251.4 377.52,-245.22"/>
</g>
<!-- Node39 -->
<g id="node39" class="node">
<title>Node39</title>
<g id="a_node39"><a xlink:title=" ">
<polygon fill="white" stroke="#bfbfbf" points="517.34,-336.5 517.34,-355.5 606.34,-355.5 606.34,-336.5 517.34,-336.5"/>
<text text-anchor="middle" x="561.84" y="-343.5" font-family="Helvetica,sans-Serif" font-size="10.00">impl/Green.ipp</text>
</a>
</g>
</g>
<!-- Node15&#45;&gt;Node39 -->
<g id="edge50" class="edge">
<title>Node15&#45;&gt;Node39</title>
<path fill="none" stroke="midnightblue" d="M581.04,-392.08C577.93,-384.77 573.42,-374.18 569.55,-365.1"/>
<polygon fill="midnightblue" stroke="midnightblue" points="572.71,-363.58 565.57,-355.75 566.27,-366.32 572.71,-363.58"/>
</g>
<!-- Node17 -->
<g id="node17" class="node">
<title>Node17</title>
<g id="a_node17"><a xlink:href="Homology_8hpp.html" target="_top" xlink:title="Contains the class mackey::Homology.">
<polygon fill="white" stroke="black" points="640.84,-280.5 640.84,-299.5 780.84,-299.5 780.84,-280.5 640.84,-280.5"/>
<text text-anchor="middle" x="710.84" y="-287.5" font-family="Helvetica,sans-Serif" font-size="10.00">Homology/Homology.hpp</text>
</a>
</g>
</g>
<!-- Node16&#45;&gt;Node17 -->
<g id="edge16" class="edge">
<title>Node16&#45;&gt;Node17</title>
<path fill="none" stroke="midnightblue" d="M704.16,-336.08C705.22,-328.93 706.75,-318.64 708.07,-309.69"/>
<polygon fill="midnightblue" stroke="midnightblue" points="711.54,-310.16 709.55,-299.75 704.62,-309.13 711.54,-310.16"/>
</g>
<!-- Node26 -->
<g id="node26" class="node">
<title>Node26</title>
<g id="a_node26"><a xlink:title=" ">
<polygon fill="white" stroke="#bfbfbf" points="531.34,-280.5 531.34,-299.5 622.34,-299.5 622.34,-280.5 531.34,-280.5"/>
<text text-anchor="middle" x="576.84" y="-287.5" font-family="Helvetica,sans-Serif" font-size="10.00">impl/Levels.ipp</text>
</a>
</g>
</g>
<!-- Node16&#45;&gt;Node26 -->
<g id="edge30" class="edge">
<title>Node16&#45;&gt;Node26</title>
<path fill="none" stroke="midnightblue" d="M682.88,-336.44C662.23,-327.6 629.78,-313.69 606.21,-303.59"/>
<polygon fill="midnightblue" stroke="midnightblue" points="607.28,-300.24 596.71,-299.52 604.53,-306.67 607.28,-300.24"/>
</g>
<!-- Node17&#45;&gt;Node3 -->
<g id="edge21" class="edge">
<title>Node17&#45;&gt;Node3</title>
<path fill="none" stroke="midnightblue" d="M712.1,-280.08C714.23,-267.05 719.37,-242.39 729.84,-224 736.09,-213.02 745.53,-202.59 753.87,-194.53"/>
<polygon fill="midnightblue" stroke="midnightblue" points="756.41,-196.95 761.4,-187.6 751.67,-191.8 756.41,-196.95"/>
</g>
<!-- Node18 -->
<g id="node18" class="node">
<title>Node18</title>
<g id="a_node18"><a xlink:href="Chains_8hpp.html" target="_top" xlink:title="Contains the classes mackey::Arrow, mackey::Chains and mackey::Junction.">
<polygon fill="white" stroke="black" points="131.34,-168.5 131.34,-187.5 292.34,-187.5 292.34,-168.5 131.34,-168.5"/>
<text text-anchor="middle" x="211.84" y="-175.5" font-family="Helvetica,sans-Serif" font-size="10.00">Chain_Complexes/Chains.hpp</text>
</a>
</g>
</g>
<!-- Node17&#45;&gt;Node18 -->
<g id="edge17" class="edge">
<title>Node17&#45;&gt;Node18</title>
<path fill="none" stroke="midnightblue" d="M640.61,-281.05C637.31,-280.69 634.04,-280.34 630.84,-280 550.23,-271.47 339.77,-281.38 267.84,-244 247.46,-233.41 231.31,-211.99 221.69,-196.63"/>
<polygon fill="midnightblue" stroke="midnightblue" points="224.45,-194.41 216.34,-187.59 218.42,-197.98 224.45,-194.41"/>
</g>
<!-- Node21 -->
<g id="node21" class="node">
<title>Node21</title>
<g id="a_node21"><a xlink:href="Smith_8hpp.html" target="_top" xlink:title="Contains the class mackey::SmithNormalForm.">
<polygon fill="white" stroke="black" points="626.84,-168.5 626.84,-187.5 692.84,-187.5 692.84,-168.5 626.84,-168.5"/>
<text text-anchor="middle" x="659.84" y="-175.5" font-family="Helvetica,sans-Serif" font-size="10.00">Smith.hpp</text>
</a>
</g>
</g>
<!-- Node17&#45;&gt;Node21 -->
<g id="edge22" class="edge">
<title>Node17&#45;&gt;Node21</title>
<path fill="none" stroke="midnightblue" d="M706.84,-280.37C698.54,-262.46 679.28,-220.92 668.16,-196.95"/>
<polygon fill="midnightblue" stroke="midnightblue" points="671.21,-195.19 663.83,-187.59 664.86,-198.14 671.21,-195.19"/>
</g>
<!-- Node23 -->
<g id="node23" class="node">
<title>Node23</title>
<g id="a_node23"><a xlink:href="Abelian_8hpp.html" target="_top" xlink:title="Contains the class mackey::AbelianGroup.">
<polygon fill="white" stroke="black" points="864.84,-224.5 864.84,-243.5 938.84,-243.5 938.84,-224.5 864.84,-224.5"/>
<text text-anchor="middle" x="901.84" y="-231.5" font-family="Helvetica,sans-Serif" font-size="10.00">Abelian.hpp</text>
</a>
</g>
</g>
<!-- Node17&#45;&gt;Node23 -->
<g id="edge26" class="edge">
<title>Node17&#45;&gt;Node23</title>
<path fill="none" stroke="midnightblue" d="M741.11,-280.44C773.8,-271.2 826.02,-256.44 862.03,-246.26"/>
<polygon fill="midnightblue" stroke="midnightblue" points="863.05,-249.61 871.72,-243.52 861.14,-242.87 863.05,-249.61"/>
</g>
<!-- Node25 -->
<g id="node25" class="node">
<title>Node25</title>
<g id="a_node25"><a xlink:title=" ">
<polygon fill="white" stroke="#bfbfbf" points="738.84,-224.5 738.84,-243.5 846.84,-243.5 846.84,-224.5 738.84,-224.5"/>
<text text-anchor="middle" x="792.84" y="-231.5" font-family="Helvetica,sans-Serif" font-size="10.00">impl/Homology.ipp</text>
</a>
</g>
</g>
<!-- Node17&#45;&gt;Node25 -->
<g id="edge29" class="edge">
<title>Node17&#45;&gt;Node25</title>
<path fill="none" stroke="midnightblue" d="M724.02,-280.32C736.69,-271.98 756.08,-259.21 771.05,-249.35"/>
<polygon fill="midnightblue" stroke="midnightblue" points="773.27,-252.08 779.7,-243.65 769.42,-246.23 773.27,-252.08"/>
</g>
<!-- Node18&#45;&gt;Node4 -->
<g id="edge18" class="edge">
<title>Node18&#45;&gt;Node4</title>
<path fill="none" stroke="midnightblue" d="M292.63,-168.83C356.71,-161.67 448.67,-149.89 538.09,-131.91"/>
<polygon fill="midnightblue" stroke="midnightblue" points="539.04,-135.29 548.14,-129.86 537.64,-128.43 539.04,-135.29"/>
</g>
<!-- Node19 -->
<g id="node19" class="node">
<title>Node19</title>
<g id="a_node19"><a xlink:title=" ">
<polygon fill="white" stroke="#bfbfbf" points="134.34,-112.5 134.34,-131.5 191.34,-131.5 191.34,-112.5 134.34,-112.5"/>
<text text-anchor="middle" x="162.84" y="-119.5" font-family="Helvetica,sans-Serif" font-size="10.00">ostream</text>
</a>
</g>
</g>
<!-- Node18&#45;&gt;Node19 -->
<g id="edge19" class="edge">
<title>Node18&#45;&gt;Node19</title>
<path fill="none" stroke="midnightblue" d="M203.75,-168.08C196.69,-160.3 186.25,-148.8 177.69,-139.37"/>
<polygon fill="midnightblue" stroke="midnightblue" points="180.1,-136.8 170.78,-131.75 174.91,-141.51 180.1,-136.8"/>
</g>
<!-- Node20 -->
<g id="node20" class="node">
<title>Node20</title>
<g id="a_node20"><a xlink:title=" ">
<polygon fill="white" stroke="#bfbfbf" points="23.84,-112.5 23.84,-131.5 115.84,-131.5 115.84,-112.5 23.84,-112.5"/>
<text text-anchor="middle" x="69.84" y="-119.5" font-family="Helvetica,sans-Serif" font-size="10.00">impl/Chains.ipp</text>
</a>
</g>
</g>
<!-- Node18&#45;&gt;Node20 -->
<g id="edge20" class="edge">
<title>Node18&#45;&gt;Node20</title>
<path fill="none" stroke="midnightblue" d="M189.34,-168.44C165.77,-159.48 128.52,-145.31 101.88,-135.18"/>
<polygon fill="midnightblue" stroke="midnightblue" points="102.83,-131.8 92.24,-131.52 100.34,-138.34 102.83,-131.8"/>
</g>
<!-- Node21&#45;&gt;Node4 -->
<g id="edge23" class="edge">
<title>Node21&#45;&gt;Node4</title>
<path fill="none" stroke="midnightblue" d="M645.7,-168.32C631.98,-159.9 610.91,-146.97 594.78,-137.07"/>
<polygon fill="midnightblue" stroke="midnightblue" points="596.3,-133.9 585.95,-131.65 592.64,-139.87 596.3,-133.9"/>
</g>
<!-- Node21&#45;&gt;Node5 -->
<g id="edge24" class="edge">
<title>Node21&#45;&gt;Node5</title>
<path fill="none" stroke="midnightblue" d="M677.84,-168.32C695.88,-159.62 723.89,-146.12 744.65,-136.11"/>
<polygon fill="midnightblue" stroke="midnightblue" points="746.4,-139.15 753.89,-131.65 743.36,-132.84 746.4,-139.15"/>
</g>
<!-- Node22 -->
<g id="node22" class="node">
<title>Node22</title>
<g id="a_node22"><a xlink:title=" ">
<polygon fill="white" stroke="#bfbfbf" points="613.84,-112.5 613.84,-131.5 701.84,-131.5 701.84,-112.5 613.84,-112.5"/>
<text text-anchor="middle" x="657.84" y="-119.5" font-family="Helvetica,sans-Serif" font-size="10.00">impl/Smith.ipp</text>
</a>
</g>
</g>
<!-- Node21&#45;&gt;Node22 -->
<g id="edge25" class="edge">
<title>Node21&#45;&gt;Node22</title>
<path fill="none" stroke="midnightblue" d="M659.51,-168.08C659.25,-161.01 658.87,-150.86 658.55,-141.99"/>
<polygon fill="midnightblue" stroke="midnightblue" points="662.03,-141.61 658.17,-131.75 655.04,-141.87 662.03,-141.61"/>
</g>
<!-- Node23&#45;&gt;Node3 -->
<g id="edge27" class="edge">
<title>Node23&#45;&gt;Node3</title>
<path fill="none" stroke="midnightblue" d="M881.24,-224.44C859.85,-215.56 826.16,-201.56 801.82,-191.45"/>
<polygon fill="midnightblue" stroke="midnightblue" points="802.92,-188.12 792.35,-187.52 800.24,-194.58 802.92,-188.12"/>
</g>
<!-- Node24 -->
<g id="node24" class="node">
<title>Node24</title>
<g id="a_node24"><a xlink:title=" ">
<polygon fill="white" stroke="#bfbfbf" points="853.84,-168.5 853.84,-187.5 949.84,-187.5 949.84,-168.5 853.84,-168.5"/>
<text text-anchor="middle" x="901.84" y="-175.5" font-family="Helvetica,sans-Serif" font-size="10.00">impl/Abelian.ipp</text>
</a>
</g>
</g>
<!-- Node23&#45;&gt;Node24 -->
<g id="edge28" class="edge">
<title>Node23&#45;&gt;Node24</title>
<path fill="none" stroke="midnightblue" d="M901.84,-224.08C901.84,-217.01 901.84,-206.86 901.84,-197.99"/>
<polygon fill="midnightblue" stroke="midnightblue" points="905.34,-197.75 901.84,-187.75 898.34,-197.75 905.34,-197.75"/>
</g>
<!-- Node27&#45;&gt;Node17 -->
<g id="edge32" class="edge">
<title>Node27&#45;&gt;Node17</title>
<path fill="none" stroke="midnightblue" d="M852.22,-336.44C823.84,-327.32 778.71,-312.81 747.09,-302.65"/>
<polygon fill="midnightblue" stroke="midnightblue" points="747.93,-299.24 737.34,-299.52 745.79,-305.91 747.93,-299.24"/>
</g>
<!-- Node28 -->
<g id="node28" class="node">
<title>Node28</title>
<g id="a_node28"><a xlink:href="MackeyFunctor_8hpp.html" target="_top" xlink:title="Contains the class mackey::MackeyFunctor.">
<polygon fill="white" stroke="black" points="925.34,-280.5 925.34,-299.5 1122.34,-299.5 1122.34,-280.5 925.34,-280.5"/>
<text text-anchor="middle" x="1023.84" y="-287.5" font-family="Helvetica,sans-Serif" font-size="10.00">Mackey_Functors/MackeyFunctor.hpp</text>
</a>
</g>
</g>
<!-- Node27&#45;&gt;Node28 -->
<g id="edge33" class="edge">
<title>Node27&#45;&gt;Node28</title>
<path fill="none" stroke="midnightblue" d="M901.82,-336.44C926,-327.44 964.26,-313.19 991.49,-303.05"/>
<polygon fill="midnightblue" stroke="midnightblue" points="992.82,-306.29 1000.97,-299.52 990.38,-299.73 992.82,-306.29"/>
</g>
<!-- Node31 -->
<g id="node31" class="node">
<title>Node31</title>
<g id="a_node31"><a xlink:title=" ">
<polygon fill="white" stroke="#bfbfbf" points="812.34,-280.5 812.34,-299.5 907.34,-299.5 907.34,-280.5 812.34,-280.5"/>
<text text-anchor="middle" x="859.84" y="-287.5" font-family="Helvetica,sans-Serif" font-size="10.00">impl/Identify.ipp</text>
</a>
</g>
</g>
<!-- Node27&#45;&gt;Node31 -->
<g id="edge39" class="edge">
<title>Node27&#45;&gt;Node31</title>
<path fill="none" stroke="midnightblue" d="M875.71,-336.08C873.16,-328.85 869.49,-318.41 866.32,-309.4"/>
<polygon fill="midnightblue" stroke="midnightblue" points="869.54,-308.02 862.92,-299.75 862.94,-310.35 869.54,-308.02"/>
</g>
<!-- Node28&#45;&gt;Node10 -->
<g id="edge36" class="edge">
<title>Node28&#45;&gt;Node10</title>
<path fill="none" stroke="midnightblue" d="M1021.8,-280.08C1015.82,-253.95 998.25,-177.21 990.1,-141.58"/>
<polygon fill="midnightblue" stroke="midnightblue" points="993.45,-140.53 987.8,-131.57 986.62,-142.1 993.45,-140.53"/>
</g>
<!-- Node28&#45;&gt;Node11 -->
<g id="edge35" class="edge">
<title>Node28&#45;&gt;Node11</title>
<path fill="none" stroke="midnightblue" d="M1025.89,-280.08C1031.87,-253.95 1049.43,-177.21 1057.59,-141.58"/>
<polygon fill="midnightblue" stroke="midnightblue" points="1061.06,-142.1 1059.88,-131.57 1054.24,-140.53 1061.06,-142.1"/>
</g>
<!-- Node28&#45;&gt;Node23 -->
<g id="edge37" class="edge">
<title>Node28&#45;&gt;Node23</title>
<path fill="none" stroke="midnightblue" d="M1004.51,-280.44C984.52,-271.6 953.1,-257.69 930.28,-247.59"/>
<polygon fill="midnightblue" stroke="midnightblue" points="931.64,-244.36 921.08,-243.52 928.81,-250.76 931.64,-244.36"/>
</g>
<!-- Node29 -->
<g id="node29" class="node">
<title>Node29</title>
<g id="a_node29"><a xlink:title=" ">
<polygon fill="white" stroke="#bfbfbf" points="1051.84,-224.5 1051.84,-243.5 1095.84,-243.5 1095.84,-224.5 1051.84,-224.5"/>
<text text-anchor="middle" x="1073.84" y="-231.5" font-family="Helvetica,sans-Serif" font-size="10.00">string</text>
</a>
</g>
</g>
<!-- Node28&#45;&gt;Node29 -->
<g id="edge34" class="edge">
<title>Node28&#45;&gt;Node29</title>
<path fill="none" stroke="midnightblue" d="M1032.1,-280.08C1039.31,-272.3 1049.95,-260.8 1058.69,-251.37"/>
<polygon fill="midnightblue" stroke="midnightblue" points="1061.51,-253.47 1065.74,-243.75 1056.38,-248.71 1061.51,-253.47"/>
</g>
<!-- Node30 -->
<g id="node30" class="node">
<title>Node30</title>
<g id="a_node30"><a xlink:title=" ">
<polygon fill="white" stroke="#bfbfbf" points="1113.84,-224.5 1113.84,-243.5 1245.84,-243.5 1245.84,-224.5 1113.84,-224.5"/>
<text text-anchor="middle" x="1179.84" y="-231.5" font-family="Helvetica,sans-Serif" font-size="10.00">impl/MackeyFunctor.ipp</text>
</a>
</g>
</g>
<!-- Node28&#45;&gt;Node30 -->
<g id="edge38" class="edge">
<title>Node28&#45;&gt;Node30</title>
<path fill="none" stroke="midnightblue" d="M1048.56,-280.44C1074.69,-271.4 1116.1,-257.06 1145.42,-246.92"/>
<polygon fill="midnightblue" stroke="midnightblue" points="1146.93,-250.1 1155.24,-243.52 1144.64,-243.48 1146.93,-250.1"/>
</g>
<!-- Node32&#45;&gt;Node3 -->
<g id="edge41" class="edge">
<title>Node32&#45;&gt;Node3</title>
<path fill="none" stroke="midnightblue" d="M416.67,-224.47C487.48,-215.43 602.54,-200.73 701.84,-188 703.56,-187.78 705.29,-187.56 707.04,-187.33"/>
<polygon fill="midnightblue" stroke="midnightblue" points="707.72,-190.77 717.2,-186.03 706.83,-183.83 707.72,-190.77"/>
</g>
<!-- Node32&#45;&gt;Node18 -->
<g id="edge42" class="edge">
<title>Node32&#45;&gt;Node18</title>
<path fill="none" stroke="midnightblue" d="M327.98,-224.44C305.06,-215.48 268.87,-201.31 242.98,-191.18"/>
<polygon fill="midnightblue" stroke="midnightblue" points="244.19,-187.9 233.61,-187.52 241.64,-194.42 244.19,-187.9"/>
</g>
<!-- Node33 -->
<g id="node33" class="node">
<title>Node33</title>
<g id="a_node33"><a xlink:href="ChangeBasis_8hpp.html" target="_top" xlink:title="Contains the class mackey::ChangeBasis.">
<polygon fill="white" stroke="black" points="407.34,-168.5 407.34,-187.5 508.34,-187.5 508.34,-168.5 407.34,-168.5"/>
<text text-anchor="middle" x="457.84" y="-175.5" font-family="Helvetica,sans-Serif" font-size="10.00">ChangeBasis.hpp</text>
</a>
</g>
</g>
<!-- Node32&#45;&gt;Node33 -->
<g id="edge43" class="edge">
<title>Node32&#45;&gt;Node33</title>
<path fill="none" stroke="midnightblue" d="M367.19,-224.32C384.51,-215.66 411.36,-202.24 431.34,-192.25"/>
<polygon fill="midnightblue" stroke="midnightblue" points="433.15,-195.26 440.53,-187.65 430.02,-189 433.15,-195.26"/>
</g>
<!-- Node38 -->
<g id="node38" class="node">
<title>Node38</title>
<g id="a_node38"><a xlink:title=" ">
<polygon fill="white" stroke="#bfbfbf" points="310.84,-168.5 310.84,-187.5 388.84,-187.5 388.84,-168.5 310.84,-168.5"/>
<text text-anchor="middle" x="349.84" y="-175.5" font-family="Helvetica,sans-Serif" font-size="10.00">impl/Box.ipp</text>
</a>
</g>
</g>
<!-- Node32&#45;&gt;Node38 -->
<g id="edge49" class="edge">
<title>Node32&#45;&gt;Node38</title>
<path fill="none" stroke="midnightblue" d="M349.84,-224.08C349.84,-217.01 349.84,-206.86 349.84,-197.99"/>
<polygon fill="midnightblue" stroke="midnightblue" points="353.34,-197.75 349.84,-187.75 346.34,-197.75 353.34,-197.75"/>
</g>
<!-- Node33&#45;&gt;Node4 -->
<g id="edge44" class="edge">
<title>Node33&#45;&gt;Node4</title>
<path fill="none" stroke="midnightblue" d="M475.91,-168.44C494.42,-159.68 523.42,-145.94 544.7,-135.86"/>
<polygon fill="midnightblue" stroke="midnightblue" points="546.32,-138.96 553.86,-131.52 543.33,-132.63 546.32,-138.96"/>
</g>
<!-- Node34 -->
<g id="node34" class="node">
<title>Node34</title>
<g id="a_node34"><a xlink:title=" ">
<polygon fill="white" stroke="#bfbfbf" points="349.84,-112.5 349.84,-131.5 387.84,-131.5 387.84,-112.5 349.84,-112.5"/>
<text text-anchor="middle" x="368.84" y="-119.5" font-family="Helvetica,sans-Serif" font-size="10.00">map</text>
</a>
</g>
</g>
<!-- Node33&#45;&gt;Node34 -->
<g id="edge45" class="edge">
<title>Node33&#45;&gt;Node34</title>
<path fill="none" stroke="midnightblue" d="M443.54,-168.32C429.66,-159.9 408.35,-146.97 392.04,-137.07"/>
<polygon fill="midnightblue" stroke="midnightblue" points="393.47,-133.85 383.11,-131.65 389.84,-139.83 393.47,-133.85"/>
</g>
<!-- Node35 -->
<g id="node35" class="node">
<title>Node35</title>
<g id="a_node35"><a xlink:title=" ">
<polygon fill="white" stroke="#bfbfbf" points="405.84,-112.5 405.84,-131.5 469.84,-131.5 469.84,-112.5 405.84,-112.5"/>
<text text-anchor="middle" x="437.84" y="-119.5" font-family="Helvetica,sans-Serif" font-size="10.00">algorithm</text>
</a>
</g>
</g>
<!-- Node33&#45;&gt;Node35 -->
<g id="edge46" class="edge">
<title>Node33&#45;&gt;Node35</title>
<path fill="none" stroke="midnightblue" d="M454.54,-168.08C451.86,-160.85 447.99,-150.41 444.66,-141.4"/>
<polygon fill="midnightblue" stroke="midnightblue" points="447.84,-139.91 441.08,-131.75 441.27,-142.34 447.84,-139.91"/>
</g>
<!-- Node36 -->
<g id="node36" class="node">
<title>Node36</title>
<g id="a_node36"><a xlink:title=" ">
<polygon fill="white" stroke="#bfbfbf" points="487.84,-112.5 487.84,-131.5 529.84,-131.5 529.84,-112.5 487.84,-112.5"/>
<text text-anchor="middle" x="508.84" y="-119.5" font-family="Helvetica,sans-Serif" font-size="10.00">array</text>
</a>
</g>
</g>
<!-- Node33&#45;&gt;Node36 -->
<g id="edge47" class="edge">
<title>Node33&#45;&gt;Node36</title>
<path fill="none" stroke="midnightblue" d="M466.26,-168.08C473.69,-160.22 484.69,-148.57 493.65,-139.08"/>
<polygon fill="midnightblue" stroke="midnightblue" points="496.26,-141.42 500.58,-131.75 491.17,-136.62 496.26,-141.42"/>
</g>
<!-- Node37 -->
<g id="node37" class="node">
<title>Node37</title>
<g id="a_node37"><a xlink:title=" ">
<polygon fill="white" stroke="#bfbfbf" points="209.84,-112.5 209.84,-131.5 331.84,-131.5 331.84,-112.5 209.84,-112.5"/>
<text text-anchor="middle" x="270.84" y="-119.5" font-family="Helvetica,sans-Serif" font-size="10.00">impl/ChangeBasis.ipp</text>
</a>
</g>
</g>
<!-- Node33&#45;&gt;Node37 -->
<g id="edge48" class="edge">
<title>Node33&#45;&gt;Node37</title>
<path fill="none" stroke="midnightblue" d="M428.21,-168.44C396.34,-159.24 345.51,-144.56 310.28,-134.39"/>
<polygon fill="midnightblue" stroke="midnightblue" points="310.91,-130.93 300.33,-131.52 308.97,-137.65 310.91,-130.93"/>
</g>
<!-- Node41&#45;&gt;Node7 -->
<g id="edge54" class="edge">
<title>Node41&#45;&gt;Node7</title>
<path fill="none" stroke="midnightblue" d="M61.63,-224.41C44.99,-217.44 24.79,-205.81 14.84,-188 -1.62,-158.51 -7.32,-137.49 14.84,-112 49.32,-72.35 204.34,-66.6 285.67,-66.39"/>
<polygon fill="midnightblue" stroke="midnightblue" points="285.68,-69.89 295.68,-66.39 285.68,-62.89 285.68,-69.89"/>
</g>
<!-- Node41&#45;&gt;Node18 -->
<g id="edge53" class="edge">
<title>Node41&#45;&gt;Node18</title>
<path fill="none" stroke="midnightblue" d="M107.49,-224.44C127.81,-215.6 159.75,-201.69 182.94,-191.59"/>
<polygon fill="midnightblue" stroke="midnightblue" points="184.52,-194.72 192.29,-187.52 181.72,-188.3 184.52,-194.72"/>
</g>
<!-- Node42 -->
<g id="node42" class="node">
<title>Node42</title>
<g id="a_node42"><a xlink:title=" ">
<polygon fill="white" stroke="#bfbfbf" points="24.34,-168.5 24.34,-187.5 113.34,-187.5 113.34,-168.5 24.34,-168.5"/>
<text text-anchor="middle" x="68.84" y="-175.5" font-family="Helvetica,sans-Serif" font-size="10.00">impl/Morse.ipp</text>
</a>
</g>
</g>
<!-- Node41&#45;&gt;Node42 -->
<g id="edge55" class="edge">
<title>Node41&#45;&gt;Node42</title>
<path fill="none" stroke="midnightblue" d="M84.71,-224.08C82.16,-216.85 78.49,-206.41 75.32,-197.4"/>
<polygon fill="midnightblue" stroke="midnightblue" points="78.54,-196.02 71.92,-187.75 71.94,-198.35 78.54,-196.02"/>
</g>
</g>
</svg>
