<?xml version="1.0" encoding="UTF-8" standalone="no"?>
<!DOCTYPE svg PUBLIC "-//W3C//DTD SVG 1.1//EN"
 "http://www.w3.org/Graphics/SVG/1.1/DTD/svg11.dtd">
<!-- Generated by graphviz version 2.43.0 (0)
 -->
<!-- Title: Mult_Graph.hpp Pages: 1 -->
<svg width="1351pt" height="644pt"
 viewBox="0.00 0.00 1351.00 644.00" xmlns="http://www.w3.org/2000/svg" xmlns:xlink="http://www.w3.org/1999/xlink">
<g id="graph0" class="graph" transform="scale(1 1) rotate(0) translate(4 640)">
<title>Mult_Graph.hpp</title>
<polygon fill="white" stroke="transparent" points="-4,4 -4,-640 1347,-640 1347,4 -4,4"/>
<!-- Node1 -->
<g id="node1" class="node">
<title>Node1</title>
<g id="a_node1"><a xlink:title="Contains the class mackey::MultGraph.">
<polygon fill="#bfbfbf" stroke="black" points="1073.5,-616.5 1073.5,-635.5 1167.5,-635.5 1167.5,-616.5 1073.5,-616.5"/>
<text text-anchor="middle" x="1120.5" y="-623.5" font-family="Helvetica,sans-Serif" font-size="10.00">Mult_Graph.hpp</text>
</a>
</g>
</g>
<!-- Node2 -->
<g id="node2" class="node">
<title>Node2</title>
<g id="a_node2"><a xlink:href="Mult__Table_8hpp.html" target="_top" xlink:title="Contains the classes mackey::MultTableData and mackey::MultTable.">
<polygon fill="white" stroke="black" points="887.5,-560.5 887.5,-579.5 977.5,-579.5 977.5,-560.5 887.5,-560.5"/>
<text text-anchor="middle" x="932.5" y="-567.5" font-family="Helvetica,sans-Serif" font-size="10.00">Mult_Table.hpp</text>
</a>
</g>
</g>
<!-- Node1&#45;&gt;Node2 -->
<g id="edge1" class="edge">
<title>Node1&#45;&gt;Node2</title>
<path fill="none" stroke="midnightblue" d="M1090.71,-616.44C1058.67,-607.24 1007.57,-592.56 972.15,-582.39"/>
<polygon fill="midnightblue" stroke="midnightblue" points="972.73,-578.91 962.15,-579.52 970.79,-585.64 972.73,-578.91"/>
</g>
<!-- Node46 -->
<g id="node43" class="node">
<title>Node46</title>
<g id="a_node43"><a xlink:href="Graph__Policies_8hpp.html" target="_top" xlink:title="Contains the classes mackey::bicolored_edge_with_id, mackey::MinLength, mackey::MinColorsLength.">
<polygon fill="white" stroke="black" points="1049.5,-560.5 1049.5,-579.5 1191.5,-579.5 1191.5,-560.5 1049.5,-560.5"/>
<text text-anchor="middle" x="1120.5" y="-567.5" font-family="Helvetica,sans-Serif" font-size="10.00">Graph/Graph_Policies.hpp</text>
</a>
</g>
</g>
<!-- Node1&#45;&gt;Node46 -->
<g id="edge56" class="edge">
<title>Node1&#45;&gt;Node46</title>
<path fill="none" stroke="midnightblue" d="M1120.5,-616.08C1120.5,-609.01 1120.5,-598.86 1120.5,-589.99"/>
<polygon fill="midnightblue" stroke="midnightblue" points="1124,-589.75 1120.5,-579.75 1117,-589.75 1124,-589.75"/>
</g>
<!-- Node53 -->
<g id="node50" class="node">
<title>Node53</title>
<g id="a_node50"><a xlink:title=" ">
<polygon fill="white" stroke="#bfbfbf" points="1209.5,-560.5 1209.5,-579.5 1325.5,-579.5 1325.5,-560.5 1209.5,-560.5"/>
<text text-anchor="middle" x="1267.5" y="-567.5" font-family="Helvetica,sans-Serif" font-size="10.00">impl/Mult_Graph.ipp</text>
</a>
</g>
</g>
<!-- Node1&#45;&gt;Node53 -->
<g id="edge64" class="edge">
<title>Node1&#45;&gt;Node53</title>
<path fill="none" stroke="midnightblue" d="M1143.79,-616.44C1168.31,-607.44 1207.1,-593.19 1234.7,-583.05"/>
<polygon fill="midnightblue" stroke="midnightblue" points="1236.14,-586.25 1244.32,-579.52 1233.72,-579.68 1236.14,-586.25"/>
</g>
<!-- Node3 -->
<g id="node3" class="node">
<title>Node3</title>
<g id="a_node3"><a xlink:href="OpenMP__Macros_8hpp.html" target="_top" xlink:title="Contains open MP macros that enable and control multithreading.">
<polygon fill="white" stroke="black" points="856.5,-504.5 856.5,-523.5 1008.5,-523.5 1008.5,-504.5 856.5,-504.5"/>
<text text-anchor="middle" x="932.5" y="-511.5" font-family="Helvetica,sans-Serif" font-size="10.00">Utility/OpenMP_Macros.hpp</text>
</a>
</g>
</g>
<!-- Node2&#45;&gt;Node3 -->
<g id="edge2" class="edge">
<title>Node2&#45;&gt;Node3</title>
<path fill="none" stroke="midnightblue" d="M932.5,-560.08C932.5,-553.01 932.5,-542.86 932.5,-533.99"/>
<polygon fill="midnightblue" stroke="midnightblue" points="936,-533.75 932.5,-523.75 929,-533.75 936,-533.75"/>
</g>
<!-- Node4 -->
<g id="node4" class="node">
<title>Node4</title>
<g id="a_node4"><a xlink:href="General_8hpp.html" target="_top" xlink:title="Contains general functions and vector overloads independent of everything else.">
<polygon fill="white" stroke="black" points="705,-168.5 705,-187.5 814,-187.5 814,-168.5 705,-168.5"/>
<text text-anchor="middle" x="759.5" y="-175.5" font-family="Helvetica,sans-Serif" font-size="10.00">Utility/General.hpp</text>
</a>
</g>
</g>
<!-- Node2&#45;&gt;Node4 -->
<g id="edge3" class="edge">
<title>Node2&#45;&gt;Node4</title>
<path fill="none" stroke="midnightblue" d="M961.15,-560.36C979.72,-553.37 1003.04,-541.73 1017.5,-524 1036.52,-500.68 1036.5,-489.1 1036.5,-459 1036.5,-459 1036.5,-459 1036.5,-289 1036.5,-258.9 1039.94,-244.06 1017.5,-224 989.61,-199.07 890.98,-187.59 824.07,-182.58"/>
<polygon fill="midnightblue" stroke="midnightblue" points="824.25,-179.08 814.03,-181.86 823.75,-186.07 824.25,-179.08"/>
</g>
<!-- Node14 -->
<g id="node14" class="node">
<title>Node14</title>
<g id="a_node14"><a xlink:href="Point_8hpp.html" target="_top" xlink:title="Contains the methods computing the RO(G) homology of a point.">
<polygon fill="white" stroke="black" points="238.5,-504.5 238.5,-523.5 338.5,-523.5 338.5,-504.5 238.5,-504.5"/>
<text text-anchor="middle" x="288.5" y="-511.5" font-family="Helvetica,sans-Serif" font-size="10.00">Spaces/Point.hpp</text>
</a>
</g>
</g>
<!-- Node2&#45;&gt;Node14 -->
<g id="edge13" class="edge">
<title>Node2&#45;&gt;Node14</title>
<path fill="none" stroke="midnightblue" d="M887.47,-565.22C774.09,-555.72 476.75,-530.79 348.64,-520.04"/>
<polygon fill="midnightblue" stroke="midnightblue" points="348.87,-516.55 338.62,-519.2 348.29,-523.53 348.87,-516.55"/>
</g>
<!-- Node45 -->
<g id="node42" class="node">
<title>Node45</title>
<g id="a_node42"><a xlink:title=" ">
<polygon fill="white" stroke="#bfbfbf" points="726.5,-504.5 726.5,-523.5 838.5,-523.5 838.5,-504.5 726.5,-504.5"/>
<text text-anchor="middle" x="782.5" y="-511.5" font-family="Helvetica,sans-Serif" font-size="10.00">impl/Mult_Table.ipp</text>
</a>
</g>
</g>
<!-- Node2&#45;&gt;Node45 -->
<g id="edge55" class="edge">
<title>Node2&#45;&gt;Node45</title>
<path fill="none" stroke="midnightblue" d="M908.73,-560.44C883.61,-551.4 843.79,-537.06 815.6,-526.92"/>
<polygon fill="midnightblue" stroke="midnightblue" points="816.75,-523.61 806.16,-523.52 814.38,-530.2 816.75,-523.61"/>
</g>
<!-- Node5 -->
<g id="node5" class="node">
<title>Node5</title>
<g id="a_node5"><a xlink:title=" ">
<polygon fill="white" stroke="#bfbfbf" points="530,-112.5 530,-131.5 577,-131.5 577,-112.5 530,-112.5"/>
<text text-anchor="middle" x="553.5" y="-119.5" font-family="Helvetica,sans-Serif" font-size="10.00">vector</text>
</a>
</g>
</g>
<!-- Node4&#45;&gt;Node5 -->
<g id="edge4" class="edge">
<title>Node4&#45;&gt;Node5</title>
<path fill="none" stroke="midnightblue" d="M726.3,-168.49C693.43,-160.03 641.4,-146.58 587.09,-132.13"/>
<polygon fill="midnightblue" stroke="midnightblue" points="587.85,-128.71 577.28,-129.52 586.05,-135.48 587.85,-128.71"/>
</g>
<!-- Node6 -->
<g id="node6" class="node">
<title>Node6</title>
<g id="a_node6"><a xlink:href="Aliases_8hpp.html" target="_top" xlink:title="Contains general template aliases.">
<polygon fill="white" stroke="black" points="595.5,-112.5 595.5,-131.5 699.5,-131.5 699.5,-112.5 595.5,-112.5"/>
<text text-anchor="middle" x="647.5" y="-119.5" font-family="Helvetica,sans-Serif" font-size="10.00">Types/Aliases.hpp</text>
</a>
</g>
</g>
<!-- Node4&#45;&gt;Node6 -->
<g id="edge5" class="edge">
<title>Node4&#45;&gt;Node6</title>
<path fill="none" stroke="midnightblue" d="M741.51,-168.32C723.46,-159.62 695.45,-146.12 674.7,-136.11"/>
<polygon fill="midnightblue" stroke="midnightblue" points="675.98,-132.84 665.45,-131.65 672.94,-139.15 675.98,-132.84"/>
</g>
<!-- Node11 -->
<g id="node11" class="node">
<title>Node11</title>
<g id="a_node11"><a xlink:title=" ">
<polygon fill="white" stroke="#bfbfbf" points="1036.5,-112.5 1036.5,-131.5 1092.5,-131.5 1092.5,-112.5 1036.5,-112.5"/>
<text text-anchor="middle" x="1064.5" y="-119.5" font-family="Helvetica,sans-Serif" font-size="10.00">numeric</text>
</a>
</g>
</g>
<!-- Node4&#45;&gt;Node11 -->
<g id="edge10" class="edge">
<title>Node4&#45;&gt;Node11</title>
<path fill="none" stroke="midnightblue" d="M807.83,-168.44C868.42,-157.72 971.05,-139.54 1026.4,-129.75"/>
<polygon fill="midnightblue" stroke="midnightblue" points="1027.25,-133.15 1036.49,-127.96 1026.03,-126.26 1027.25,-133.15"/>
</g>
<!-- Node12 -->
<g id="node12" class="node">
<title>Node12</title>
<g id="a_node12"><a xlink:title=" ">
<polygon fill="white" stroke="#bfbfbf" points="916.5,-112.5 916.5,-131.5 976.5,-131.5 976.5,-112.5 916.5,-112.5"/>
<text text-anchor="middle" x="946.5" y="-119.5" font-family="Helvetica,sans-Serif" font-size="10.00">iostream</text>
</a>
</g>
</g>
<!-- Node4&#45;&gt;Node12 -->
<g id="edge11" class="edge">
<title>Node4&#45;&gt;Node12</title>
<path fill="none" stroke="midnightblue" d="M789.13,-168.44C821,-159.24 871.83,-144.56 907.06,-134.39"/>
<polygon fill="midnightblue" stroke="midnightblue" points="908.37,-137.65 917.01,-131.52 906.43,-130.93 908.37,-137.65"/>
</g>
<!-- Node13 -->
<g id="node13" class="node">
<title>Node13</title>
<g id="a_node13"><a xlink:title=" ">
<polygon fill="white" stroke="#bfbfbf" points="717.5,-112.5 717.5,-131.5 815.5,-131.5 815.5,-112.5 717.5,-112.5"/>
<text text-anchor="middle" x="766.5" y="-119.5" font-family="Helvetica,sans-Serif" font-size="10.00">impl/General.ipp</text>
</a>
</g>
</g>
<!-- Node4&#45;&gt;Node13 -->
<g id="edge12" class="edge">
<title>Node4&#45;&gt;Node13</title>
<path fill="none" stroke="midnightblue" d="M760.66,-168.08C761.58,-160.93 762.92,-150.64 764.08,-141.69"/>
<polygon fill="midnightblue" stroke="midnightblue" points="767.55,-142.12 765.37,-131.75 760.61,-141.22 767.55,-142.12"/>
</g>
<!-- Node7 -->
<g id="node7" class="node">
<title>Node7</title>
<g id="a_node7"><a xlink:title=" ">
<polygon fill="white" stroke="#bfbfbf" points="655,-56.5 655,-75.5 732,-75.5 732,-56.5 655,-56.5"/>
<text text-anchor="middle" x="693.5" y="-63.5" font-family="Helvetica,sans-Serif" font-size="10.00">Eigen/Dense</text>
</a>
</g>
</g>
<!-- Node6&#45;&gt;Node7 -->
<g id="edge6" class="edge">
<title>Node6&#45;&gt;Node7</title>
<path fill="none" stroke="midnightblue" d="M655.1,-112.08C661.73,-104.3 671.52,-92.8 679.56,-83.37"/>
<polygon fill="midnightblue" stroke="midnightblue" points="682.23,-85.63 686.05,-75.75 676.9,-81.09 682.23,-85.63"/>
</g>
<!-- Node8 -->
<g id="node8" class="node">
<title>Node8</title>
<g id="a_node8"><a xlink:title=" ">
<polygon fill="white" stroke="#bfbfbf" points="294.5,-56.5 294.5,-75.5 374.5,-75.5 374.5,-56.5 294.5,-56.5"/>
<text text-anchor="middle" x="334.5" y="-63.5" font-family="Helvetica,sans-Serif" font-size="10.00">Eigen/Sparse</text>
</a>
</g>
</g>
<!-- Node6&#45;&gt;Node8 -->
<g id="edge7" class="edge">
<title>Node6&#45;&gt;Node8</title>
<path fill="none" stroke="midnightblue" d="M597.9,-112.44C539.69,-102.4 443.67,-85.83 385.04,-75.72"/>
<polygon fill="midnightblue" stroke="midnightblue" points="385.36,-72.22 374.91,-73.97 384.17,-79.12 385.36,-72.22"/>
</g>
<!-- Node9 -->
<g id="node9" class="node">
<title>Node9</title>
<g id="a_node9"><a xlink:href="SFINAE_8hpp.html" target="_top" xlink:title="Contains all the SFINAE tricks.">
<polygon fill="white" stroke="black" points="564,-56.5 564,-75.5 637,-75.5 637,-56.5 564,-56.5"/>
<text text-anchor="middle" x="600.5" y="-63.5" font-family="Helvetica,sans-Serif" font-size="10.00">SFINAE.hpp</text>
</a>
</g>
</g>
<!-- Node6&#45;&gt;Node9 -->
<g id="edge8" class="edge">
<title>Node6&#45;&gt;Node9</title>
<path fill="none" stroke="midnightblue" d="M639.74,-112.08C632.96,-104.3 622.96,-92.8 614.74,-83.37"/>
<polygon fill="midnightblue" stroke="midnightblue" points="617.32,-81 608.12,-75.75 612.04,-85.59 617.32,-81"/>
</g>
<!-- Node10 -->
<g id="node10" class="node">
<title>Node10</title>
<g id="a_node10"><a xlink:title=" ">
<polygon fill="white" stroke="#bfbfbf" points="566,-0.5 566,-19.5 635,-19.5 635,-0.5 566,-0.5"/>
<text text-anchor="middle" x="600.5" y="-7.5" font-family="Helvetica,sans-Serif" font-size="10.00">type_traits</text>
</a>
</g>
</g>
<!-- Node9&#45;&gt;Node10 -->
<g id="edge9" class="edge">
<title>Node9&#45;&gt;Node10</title>
<path fill="none" stroke="midnightblue" d="M600.5,-56.08C600.5,-49.01 600.5,-38.86 600.5,-29.99"/>
<polygon fill="midnightblue" stroke="midnightblue" points="604,-29.75 600.5,-19.75 597,-29.75 604,-29.75"/>
</g>
<!-- Node15 -->
<g id="node15" class="node">
<title>Node15</title>
<g id="a_node15"><a xlink:href="Massey_8hpp.html" target="_top" xlink:title="Contains the classes mackey::Massey and mackey::internal::MasseyCompute.">
<polygon fill="white" stroke="black" points="289,-448.5 289,-467.5 408,-467.5 408,-448.5 289,-448.5"/>
<text text-anchor="middle" x="348.5" y="-455.5" font-family="Helvetica,sans-Serif" font-size="10.00">Products/Massey.hpp</text>
</a>
</g>
</g>
<!-- Node14&#45;&gt;Node15 -->
<g id="edge14" class="edge">
<title>Node14&#45;&gt;Node15</title>
<path fill="none" stroke="midnightblue" d="M298.14,-504.32C307.01,-496.34 320.37,-484.31 331.11,-474.65"/>
<polygon fill="midnightblue" stroke="midnightblue" points="333.59,-477.13 338.68,-467.83 328.91,-471.92 333.59,-477.13"/>
</g>
<!-- Node42 -->
<g id="node39" class="node">
<title>Node42</title>
<g id="a_node39"><a xlink:href="Morse_8hpp.html" target="_top" xlink:title="Contains the classes mackey::AMT and mackey::EquivariantAMT.">
<polygon fill="white" stroke="black" points="49.5,-224.5 49.5,-243.5 207.5,-243.5 207.5,-224.5 49.5,-224.5"/>
<text text-anchor="middle" x="128.5" y="-231.5" font-family="Helvetica,sans-Serif" font-size="10.00">Chain_Complexes/Morse.hpp</text>
</a>
</g>
</g>
<!-- Node14&#45;&gt;Node42 -->
<g id="edge50" class="edge">
<title>Node14&#45;&gt;Node42</title>
<path fill="none" stroke="midnightblue" d="M250.99,-504.43C227.77,-497.62 198.49,-486.17 177.5,-468 152.2,-446.1 139.5,-436.46 139.5,-403 139.5,-403 139.5,-403 139.5,-345 139.5,-312.79 134.77,-275.53 131.52,-253.69"/>
<polygon fill="midnightblue" stroke="midnightblue" points="134.93,-252.87 129.94,-243.53 128.01,-253.95 134.93,-252.87"/>
</g>
<!-- Node44 -->
<g id="node41" class="node">
<title>Node44</title>
<g id="a_node41"><a xlink:title=" ">
<polygon fill="white" stroke="#bfbfbf" points="186.5,-448.5 186.5,-467.5 270.5,-467.5 270.5,-448.5 186.5,-448.5"/>
<text text-anchor="middle" x="228.5" y="-455.5" font-family="Helvetica,sans-Serif" font-size="10.00">impl/Point.ipp</text>
</a>
</g>
</g>
<!-- Node14&#45;&gt;Node44 -->
<g id="edge54" class="edge">
<title>Node14&#45;&gt;Node44</title>
<path fill="none" stroke="midnightblue" d="M278.86,-504.32C269.99,-496.34 256.63,-484.31 245.89,-474.65"/>
<polygon fill="midnightblue" stroke="midnightblue" points="248.09,-471.92 238.32,-467.83 243.41,-477.13 248.09,-471.92"/>
</g>
<!-- Node16 -->
<g id="node16" class="node">
<title>Node16</title>
<g id="a_node16"><a xlink:href="Green_8hpp.html" target="_top" xlink:title="Contains the classes mackey::Green, mackey::internal::GreenCompute, mackey::internal::ChainsLevelGen,...">
<polygon fill="white" stroke="black" points="334,-392.5 334,-411.5 401,-411.5 401,-392.5 334,-392.5"/>
<text text-anchor="middle" x="367.5" y="-399.5" font-family="Helvetica,sans-Serif" font-size="10.00">Green.hpp</text>
</a>
</g>
</g>
<!-- Node15&#45;&gt;Node16 -->
<g id="edge15" class="edge">
<title>Node15&#45;&gt;Node16</title>
<path fill="none" stroke="midnightblue" d="M351.64,-448.08C354.18,-440.85 357.86,-430.41 361.03,-421.4"/>
<polygon fill="midnightblue" stroke="midnightblue" points="364.4,-422.35 364.42,-411.75 357.8,-420.02 364.4,-422.35"/>
</g>
<!-- Node41 -->
<g id="node38" class="node">
<title>Node41</title>
<g id="a_node38"><a xlink:title=" ">
<polygon fill="white" stroke="#bfbfbf" points="221,-392.5 221,-411.5 316,-411.5 316,-392.5 221,-392.5"/>
<text text-anchor="middle" x="268.5" y="-399.5" font-family="Helvetica,sans-Serif" font-size="10.00">impl/Massey.ipp</text>
</a>
</g>
</g>
<!-- Node15&#45;&gt;Node41 -->
<g id="edge49" class="edge">
<title>Node15&#45;&gt;Node41</title>
<path fill="none" stroke="midnightblue" d="M335.65,-448.32C323.28,-439.98 304.37,-427.21 289.76,-417.35"/>
<polygon fill="midnightblue" stroke="midnightblue" points="291.57,-414.35 281.32,-411.65 287.65,-420.15 291.57,-414.35"/>
</g>
<!-- Node17 -->
<g id="node17" class="node">
<title>Node17</title>
<g id="a_node17"><a xlink:href="Levels_8hpp.html" target="_top" xlink:title="Contains the methods for transfering, restricting and Weyl&#45;group&#45;acting.">
<polygon fill="white" stroke="black" points="327.5,-336.5 327.5,-355.5 483.5,-355.5 483.5,-336.5 327.5,-336.5"/>
<text text-anchor="middle" x="405.5" y="-343.5" font-family="Helvetica,sans-Serif" font-size="10.00">Mackey_Functors/Levels.hpp</text>
</a>
</g>
</g>
<!-- Node16&#45;&gt;Node17 -->
<g id="edge16" class="edge">
<title>Node16&#45;&gt;Node17</title>
<path fill="none" stroke="midnightblue" d="M373.77,-392.08C379.14,-384.46 387.02,-373.26 393.58,-363.94"/>
<polygon fill="midnightblue" stroke="midnightblue" points="396.45,-365.94 399.34,-355.75 390.72,-361.91 396.45,-365.94"/>
</g>
<!-- Node28 -->
<g id="node26" class="node">
<title>Node28</title>
<g id="a_node26"><a xlink:href="Identify_8hpp.html" target="_top" xlink:title="Contains the classes mackey::IDGenerators and mackey::internal::IDGeneratorCompute">
<polygon fill="white" stroke="black" points="599.5,-336.5 599.5,-355.5 759.5,-355.5 759.5,-336.5 599.5,-336.5"/>
<text text-anchor="middle" x="679.5" y="-343.5" font-family="Helvetica,sans-Serif" font-size="10.00">Mackey_Functors/Identify.hpp</text>
</a>
</g>
</g>
<!-- Node16&#45;&gt;Node28 -->
<g id="edge30" class="edge">
<title>Node16&#45;&gt;Node28</title>
<path fill="none" stroke="midnightblue" d="M401.19,-395.17C453.61,-386.1 555.42,-368.48 620.3,-357.25"/>
<polygon fill="midnightblue" stroke="midnightblue" points="621.12,-360.66 630.38,-355.5 619.93,-353.76 621.12,-360.66"/>
</g>
<!-- Node33 -->
<g id="node31" class="node">
<title>Node33</title>
<g id="a_node31"><a xlink:href="Box_8hpp.html" target="_top" xlink:title="Contains the class mackey::Tensor.">
<polygon fill="white" stroke="black" points="291.5,-224.5 291.5,-243.5 437.5,-243.5 437.5,-224.5 291.5,-224.5"/>
<text text-anchor="middle" x="364.5" y="-231.5" font-family="Helvetica,sans-Serif" font-size="10.00">Chain_Complexes/Box.hpp</text>
</a>
</g>
</g>
<!-- Node16&#45;&gt;Node33 -->
<g id="edge39" class="edge">
<title>Node16&#45;&gt;Node33</title>
<path fill="none" stroke="midnightblue" d="M352.84,-392.4C341.09,-384.58 325.47,-371.86 318.5,-356 302.39,-319.33 331.01,-275.07 349.88,-251.56"/>
<polygon fill="midnightblue" stroke="midnightblue" points="352.79,-253.54 356.53,-243.63 347.42,-249.05 352.79,-253.54"/>
</g>
<!-- Node40 -->
<g id="node37" class="node">
<title>Node40</title>
<g id="a_node37"><a xlink:title=" ">
<polygon fill="white" stroke="#bfbfbf" points="182,-336.5 182,-355.5 271,-355.5 271,-336.5 182,-336.5"/>
<text text-anchor="middle" x="226.5" y="-343.5" font-family="Helvetica,sans-Serif" font-size="10.00">impl/Green.ipp</text>
</a>
</g>
</g>
<!-- Node16&#45;&gt;Node40 -->
<g id="edge48" class="edge">
<title>Node16&#45;&gt;Node40</title>
<path fill="none" stroke="midnightblue" d="M345.16,-392.44C321.75,-383.48 284.76,-369.31 258.31,-359.18"/>
<polygon fill="midnightblue" stroke="midnightblue" points="259.33,-355.82 248.74,-355.52 256.82,-362.36 259.33,-355.82"/>
</g>
<!-- Node18 -->
<g id="node18" class="node">
<title>Node18</title>
<g id="a_node18"><a xlink:href="Homology_8hpp.html" target="_top" xlink:title="Contains the class mackey::Homology.">
<polygon fill="white" stroke="black" points="532.5,-280.5 532.5,-299.5 672.5,-299.5 672.5,-280.5 532.5,-280.5"/>
<text text-anchor="middle" x="602.5" y="-287.5" font-family="Helvetica,sans-Serif" font-size="10.00">Homology/Homology.hpp</text>
</a>
</g>
</g>
<!-- Node17&#45;&gt;Node18 -->
<g id="edge17" class="edge">
<title>Node17&#45;&gt;Node18</title>
<path fill="none" stroke="midnightblue" d="M436.72,-336.44C470.43,-327.2 524.3,-312.44 561.43,-302.26"/>
<polygon fill="midnightblue" stroke="midnightblue" points="562.71,-305.54 571.43,-299.52 560.86,-298.78 562.71,-305.54"/>
</g>
<!-- Node27 -->
<g id="node25" class="node">
<title>Node27</title>
<g id="a_node25"><a xlink:title=" ">
<polygon fill="white" stroke="#bfbfbf" points="360,-280.5 360,-299.5 451,-299.5 451,-280.5 360,-280.5"/>
<text text-anchor="middle" x="405.5" y="-287.5" font-family="Helvetica,sans-Serif" font-size="10.00">impl/Levels.ipp</text>
</a>
</g>
</g>
<!-- Node17&#45;&gt;Node27 -->
<g id="edge29" class="edge">
<title>Node17&#45;&gt;Node27</title>
<path fill="none" stroke="midnightblue" d="M405.5,-336.08C405.5,-329.01 405.5,-318.86 405.5,-309.99"/>
<polygon fill="midnightblue" stroke="midnightblue" points="409,-309.75 405.5,-299.75 402,-309.75 409,-309.75"/>
</g>
<!-- Node18&#45;&gt;Node4 -->
<g id="edge22" class="edge">
<title>Node18&#45;&gt;Node4</title>
<path fill="none" stroke="midnightblue" d="M614.82,-280.37C641.65,-261.57 705.59,-216.77 738.76,-193.53"/>
<polygon fill="midnightblue" stroke="midnightblue" points="741.06,-196.2 747.24,-187.59 737.04,-190.46 741.06,-196.2"/>
</g>
<!-- Node19 -->
<g id="node19" class="node">
<title>Node19</title>
<g id="a_node19"><a xlink:href="Chains_8hpp.html" target="_top" xlink:title="Contains the classes mackey::Arrow, mackey::Chains and mackey::Junction.">
<polygon fill="white" stroke="black" points="146,-168.5 146,-187.5 307,-187.5 307,-168.5 146,-168.5"/>
<text text-anchor="middle" x="226.5" y="-175.5" font-family="Helvetica,sans-Serif" font-size="10.00">Chain_Complexes/Chains.hpp</text>
</a>
</g>
</g>
<!-- Node18&#45;&gt;Node19 -->
<g id="edge18" class="edge">
<title>Node18&#45;&gt;Node19</title>
<path fill="none" stroke="midnightblue" d="M532.24,-284.89C451.36,-279.16 324.3,-266.82 282.5,-244 262.55,-233.11 246.49,-212.11 236.77,-196.92"/>
<polygon fill="midnightblue" stroke="midnightblue" points="239.5,-194.68 231.32,-187.94 233.51,-198.31 239.5,-194.68"/>
</g>
<!-- Node22 -->
<g id="node22" class="node">
<title>Node22</title>
<g id="a_node22"><a xlink:href="Smith_8hpp.html" target="_top" xlink:title="Contains the class mackey::SmithNormalForm.">
<polygon fill="white" stroke="red" points="614.5,-168.5 614.5,-187.5 680.5,-187.5 680.5,-168.5 614.5,-168.5"/>
<text text-anchor="middle" x="647.5" y="-175.5" font-family="Helvetica,sans-Serif" font-size="10.00">Smith.hpp</text>
</a>
</g>
</g>
<!-- Node18&#45;&gt;Node22 -->
<g id="edge23" class="edge">
<title>Node18&#45;&gt;Node22</title>
<path fill="none" stroke="midnightblue" d="M611.55,-280.26C619.73,-271.79 631.39,-258.18 637.5,-244 643.79,-229.4 646.2,-211.46 647.08,-198.12"/>
<polygon fill="midnightblue" stroke="midnightblue" points="650.59,-197.94 647.53,-187.79 643.6,-197.63 650.59,-197.94"/>
</g>
<!-- Node24 -->
<g id="node23" class="node">
<title>Node24</title>
<g id="a_node23"><a xlink:href="Abelian_8hpp.html" target="_top" xlink:title="Contains the class mackey::AbelianGroup.">
<polygon fill="white" stroke="red" points="722.5,-224.5 722.5,-243.5 796.5,-243.5 796.5,-224.5 722.5,-224.5"/>
<text text-anchor="middle" x="759.5" y="-231.5" font-family="Helvetica,sans-Serif" font-size="10.00">Abelian.hpp</text>
</a>
</g>
</g>
<!-- Node18&#45;&gt;Node24 -->
<g id="edge26" class="edge">
<title>Node18&#45;&gt;Node24</title>
<path fill="none" stroke="midnightblue" d="M627.38,-280.44C653.79,-271.36 695.72,-256.94 725.24,-246.78"/>
<polygon fill="midnightblue" stroke="midnightblue" points="726.42,-250.08 734.74,-243.52 724.14,-243.46 726.42,-250.08"/>
</g>
<!-- Node26 -->
<g id="node24" class="node">
<title>Node26</title>
<g id="a_node24"><a xlink:title=" ">
<polygon fill="white" stroke="#bfbfbf" points="520.5,-224.5 520.5,-243.5 628.5,-243.5 628.5,-224.5 520.5,-224.5"/>
<text text-anchor="middle" x="574.5" y="-231.5" font-family="Helvetica,sans-Serif" font-size="10.00">impl/Homology.ipp</text>
</a>
</g>
</g>
<!-- Node18&#45;&gt;Node26 -->
<g id="edge28" class="edge">
<title>Node18&#45;&gt;Node26</title>
<path fill="none" stroke="midnightblue" d="M597.88,-280.08C594.04,-272.69 588.48,-261.95 583.74,-252.81"/>
<polygon fill="midnightblue" stroke="midnightblue" points="586.75,-251.02 579.04,-243.75 580.53,-254.24 586.75,-251.02"/>
</g>
<!-- Node19&#45;&gt;Node5 -->
<g id="edge19" class="edge">
<title>Node19&#45;&gt;Node5</title>
<path fill="none" stroke="midnightblue" d="M297.3,-168.47C354.77,-161.02 438.05,-149.03 519.82,-131.93"/>
<polygon fill="midnightblue" stroke="midnightblue" points="520.73,-135.31 529.79,-129.82 519.28,-128.46 520.73,-135.31"/>
</g>
<!-- Node20 -->
<g id="node20" class="node">
<title>Node20</title>
<g id="a_node20"><a xlink:title=" ">
<polygon fill="white" stroke="#bfbfbf" points="146,-112.5 146,-131.5 203,-131.5 203,-112.5 146,-112.5"/>
<text text-anchor="middle" x="174.5" y="-119.5" font-family="Helvetica,sans-Serif" font-size="10.00">ostream</text>
</a>
</g>
</g>
<!-- Node19&#45;&gt;Node20 -->
<g id="edge20" class="edge">
<title>Node19&#45;&gt;Node20</title>
<path fill="none" stroke="midnightblue" d="M217.91,-168.08C210.34,-160.22 199.12,-148.57 189.99,-139.08"/>
<polygon fill="midnightblue" stroke="midnightblue" points="192.38,-136.53 182.93,-131.75 187.34,-141.38 192.38,-136.53"/>
</g>
<!-- Node21 -->
<g id="node21" class="node">
<title>Node21</title>
<g id="a_node21"><a xlink:title=" ">
<polygon fill="white" stroke="#bfbfbf" points="221.5,-112.5 221.5,-131.5 313.5,-131.5 313.5,-112.5 221.5,-112.5"/>
<text text-anchor="middle" x="267.5" y="-119.5" font-family="Helvetica,sans-Serif" font-size="10.00">impl/Chains.ipp</text>
</a>
</g>
</g>
<!-- Node19&#45;&gt;Node21 -->
<g id="edge21" class="edge">
<title>Node19&#45;&gt;Node21</title>
<path fill="none" stroke="midnightblue" d="M233.27,-168.08C239.06,-160.46 247.56,-149.26 254.64,-139.94"/>
<polygon fill="midnightblue" stroke="midnightblue" points="257.6,-141.83 260.86,-131.75 252.02,-137.6 257.6,-141.83"/>
</g>
<!-- Node22&#45;&gt;Node5 -->
<g id="edge24" class="edge">
<title>Node22&#45;&gt;Node5</title>
<path fill="none" stroke="midnightblue" d="M632.4,-168.32C617.6,-159.82 594.81,-146.73 577.52,-136.8"/>
<polygon fill="midnightblue" stroke="midnightblue" points="578.98,-133.6 568.57,-131.65 575.49,-139.67 578.98,-133.6"/>
</g>
<!-- Node22&#45;&gt;Node6 -->
<g id="edge25" class="edge">
<title>Node22&#45;&gt;Node6</title>
<path fill="none" stroke="midnightblue" d="M647.5,-168.08C647.5,-161.01 647.5,-150.86 647.5,-141.99"/>
<polygon fill="midnightblue" stroke="midnightblue" points="651,-141.75 647.5,-131.75 644,-141.75 651,-141.75"/>
</g>
<!-- Node24&#45;&gt;Node4 -->
<g id="edge27" class="edge">
<title>Node24&#45;&gt;Node4</title>
<path fill="none" stroke="midnightblue" d="M759.5,-224.08C759.5,-217.01 759.5,-206.86 759.5,-197.99"/>
<polygon fill="midnightblue" stroke="midnightblue" points="763,-197.75 759.5,-187.75 756,-197.75 763,-197.75"/>
</g>
<!-- Node28&#45;&gt;Node18 -->
<g id="edge31" class="edge">
<title>Node28&#45;&gt;Node18</title>
<path fill="none" stroke="midnightblue" d="M667.13,-336.32C655.34,-328.06 637.37,-315.45 623.36,-305.63"/>
<polygon fill="midnightblue" stroke="midnightblue" points="625.04,-302.53 614.84,-299.65 621.02,-308.26 625.04,-302.53"/>
</g>
<!-- Node29 -->
<g id="node27" class="node">
<title>Node29</title>
<g id="a_node27"><a xlink:href="MackeyFunctor_8hpp.html" target="_top" xlink:title="Contains the class mackey::MackeyFunctor.">
<polygon fill="white" stroke="black" points="809,-280.5 809,-299.5 1006,-299.5 1006,-280.5 809,-280.5"/>
<text text-anchor="middle" x="907.5" y="-287.5" font-family="Helvetica,sans-Serif" font-size="10.00">Mackey_Functors/MackeyFunctor.hpp</text>
</a>
</g>
</g>
<!-- Node28&#45;&gt;Node29 -->
<g id="edge32" class="edge">
<title>Node28&#45;&gt;Node29</title>
<path fill="none" stroke="midnightblue" d="M715.63,-336.44C755.15,-327.08 818.6,-312.06 861.61,-301.87"/>
<polygon fill="midnightblue" stroke="midnightblue" points="862.62,-305.23 871.54,-299.52 861,-298.42 862.62,-305.23"/>
</g>
<!-- Node32 -->
<g id="node30" class="node">
<title>Node32</title>
<g id="a_node30"><a xlink:title=" ">
<polygon fill="white" stroke="#bfbfbf" points="691,-280.5 691,-299.5 786,-299.5 786,-280.5 691,-280.5"/>
<text text-anchor="middle" x="738.5" y="-287.5" font-family="Helvetica,sans-Serif" font-size="10.00">impl/Identify.ipp</text>
</a>
</g>
</g>
<!-- Node28&#45;&gt;Node32 -->
<g id="edge38" class="edge">
<title>Node28&#45;&gt;Node32</title>
<path fill="none" stroke="midnightblue" d="M688.98,-336.32C697.7,-328.34 710.84,-316.31 721.4,-306.65"/>
<polygon fill="midnightblue" stroke="midnightblue" points="723.83,-309.17 728.85,-299.83 719.11,-304 723.83,-309.17"/>
</g>
<!-- Node29&#45;&gt;Node11 -->
<g id="edge35" class="edge">
<title>Node29&#45;&gt;Node11</title>
<path fill="none" stroke="midnightblue" d="M968.3,-280.47C992.31,-274.15 1018.22,-263.15 1035.5,-244 1061.34,-215.36 1065.24,-167.8 1065.24,-141.65"/>
<polygon fill="midnightblue" stroke="midnightblue" points="1068.74,-141.51 1065.04,-131.58 1061.74,-141.65 1068.74,-141.51"/>
</g>
<!-- Node29&#45;&gt;Node12 -->
<g id="edge34" class="edge">
<title>Node29&#45;&gt;Node12</title>
<path fill="none" stroke="midnightblue" d="M960.82,-280.43C982.16,-274.1 1004.68,-263.1 1017.5,-244 1042.34,-207.01 995.42,-161.09 966.62,-137.9"/>
<polygon fill="midnightblue" stroke="midnightblue" points="968.74,-135.12 958.7,-131.73 964.43,-140.64 968.74,-135.12"/>
</g>
<!-- Node29&#45;&gt;Node24 -->
<g id="edge36" class="edge">
<title>Node29&#45;&gt;Node24</title>
<path fill="none" stroke="midnightblue" d="M884.05,-280.44C859.37,-271.44 820.31,-257.19 792.52,-247.05"/>
<polygon fill="midnightblue" stroke="midnightblue" points="793.44,-243.66 782.84,-243.52 791.04,-250.23 793.44,-243.66"/>
</g>
<!-- Node30 -->
<g id="node28" class="node">
<title>Node30</title>
<g id="a_node28"><a xlink:title=" ">
<polygon fill="white" stroke="#bfbfbf" points="814.5,-224.5 814.5,-243.5 858.5,-243.5 858.5,-224.5 814.5,-224.5"/>
<text text-anchor="middle" x="836.5" y="-231.5" font-family="Helvetica,sans-Serif" font-size="10.00">string</text>
</a>
</g>
</g>
<!-- Node29&#45;&gt;Node30 -->
<g id="edge33" class="edge">
<title>Node29&#45;&gt;Node30</title>
<path fill="none" stroke="midnightblue" d="M896.09,-280.32C885.39,-272.18 869.16,-259.84 856.34,-250.09"/>
<polygon fill="midnightblue" stroke="midnightblue" points="858.19,-247.1 848.11,-243.83 853.96,-252.67 858.19,-247.1"/>
</g>
<!-- Node31 -->
<g id="node29" class="node">
<title>Node31</title>
<g id="a_node29"><a xlink:title=" ">
<polygon fill="white" stroke="#bfbfbf" points="876.5,-224.5 876.5,-243.5 1008.5,-243.5 1008.5,-224.5 876.5,-224.5"/>
<text text-anchor="middle" x="942.5" y="-231.5" font-family="Helvetica,sans-Serif" font-size="10.00">impl/MackeyFunctor.ipp</text>
</a>
</g>
</g>
<!-- Node29&#45;&gt;Node31 -->
<g id="edge37" class="edge">
<title>Node29&#45;&gt;Node31</title>
<path fill="none" stroke="midnightblue" d="M913.28,-280.08C918.17,-272.53 925.33,-261.49 931.33,-252.23"/>
<polygon fill="midnightblue" stroke="midnightblue" points="934.33,-254.05 936.83,-243.75 928.45,-250.24 934.33,-254.05"/>
</g>
<!-- Node33&#45;&gt;Node4 -->
<g id="edge40" class="edge">
<title>Node33&#45;&gt;Node4</title>
<path fill="none" stroke="midnightblue" d="M427.09,-224.44C500.22,-214.45 620.63,-197.98 694.7,-187.86"/>
<polygon fill="midnightblue" stroke="midnightblue" points="695.4,-191.3 704.84,-186.47 694.45,-184.36 695.4,-191.3"/>
</g>
<!-- Node33&#45;&gt;Node19 -->
<g id="edge41" class="edge">
<title>Node33&#45;&gt;Node19</title>
<path fill="none" stroke="midnightblue" d="M342.63,-224.44C319.72,-215.48 283.52,-201.31 257.63,-191.18"/>
<polygon fill="midnightblue" stroke="midnightblue" points="258.85,-187.9 248.26,-187.52 256.3,-194.42 258.85,-187.9"/>
</g>
<!-- Node34 -->
<g id="node32" class="node">
<title>Node34</title>
<g id="a_node32"><a xlink:href="ChangeBasis_8hpp.html" target="_top" xlink:title="Contains the class mackey::ChangeBasis.">
<polygon fill="white" stroke="red" points="422,-168.5 422,-187.5 523,-187.5 523,-168.5 422,-168.5"/>
<text text-anchor="middle" x="472.5" y="-175.5" font-family="Helvetica,sans-Serif" font-size="10.00">ChangeBasis.hpp</text>
</a>
</g>
</g>
<!-- Node33&#45;&gt;Node34 -->
<g id="edge42" class="edge">
<title>Node33&#45;&gt;Node34</title>
<path fill="none" stroke="midnightblue" d="M381.85,-224.32C399.17,-215.66 426.02,-202.24 446,-192.25"/>
<polygon fill="midnightblue" stroke="midnightblue" points="447.81,-195.26 455.19,-187.65 444.68,-189 447.81,-195.26"/>
</g>
<!-- Node39 -->
<g id="node36" class="node">
<title>Node39</title>
<g id="a_node36"><a xlink:title=" ">
<polygon fill="white" stroke="#bfbfbf" points="325.5,-168.5 325.5,-187.5 403.5,-187.5 403.5,-168.5 325.5,-168.5"/>
<text text-anchor="middle" x="364.5" y="-175.5" font-family="Helvetica,sans-Serif" font-size="10.00">impl/Box.ipp</text>
</a>
</g>
</g>
<!-- Node33&#45;&gt;Node39 -->
<g id="edge47" class="edge">
<title>Node33&#45;&gt;Node39</title>
<path fill="none" stroke="midnightblue" d="M364.5,-224.08C364.5,-217.01 364.5,-206.86 364.5,-197.99"/>
<polygon fill="midnightblue" stroke="midnightblue" points="368,-197.75 364.5,-187.75 361,-197.75 368,-197.75"/>
</g>
<!-- Node34&#45;&gt;Node5 -->
<g id="edge43" class="edge">
<title>Node34&#45;&gt;Node5</title>
<path fill="none" stroke="midnightblue" d="M485.51,-168.32C498.03,-159.98 517.18,-147.21 531.97,-137.35"/>
<polygon fill="midnightblue" stroke="midnightblue" points="534.14,-140.11 540.52,-131.65 530.26,-134.29 534.14,-140.11"/>
</g>
<!-- Node35 -->
<g id="node33" class="node">
<title>Node35</title>
<g id="a_node33"><a xlink:title=" ">
<polygon fill="white" stroke="#bfbfbf" points="391.5,-112.5 391.5,-131.5 429.5,-131.5 429.5,-112.5 391.5,-112.5"/>
<text text-anchor="middle" x="410.5" y="-119.5" font-family="Helvetica,sans-Serif" font-size="10.00">map</text>
</a>
</g>
</g>
<!-- Node34&#45;&gt;Node35 -->
<g id="edge44" class="edge">
<title>Node34&#45;&gt;Node35</title>
<path fill="none" stroke="midnightblue" d="M462.54,-168.32C453.37,-160.34 439.56,-148.31 428.47,-138.65"/>
<polygon fill="midnightblue" stroke="midnightblue" points="430.48,-135.76 420.64,-131.83 425.88,-141.04 430.48,-135.76"/>
</g>
<!-- Node36 -->
<g id="node34" class="node">
<title>Node36</title>
<g id="a_node34"><a xlink:title=" ">
<polygon fill="white" stroke="#bfbfbf" points="447.5,-112.5 447.5,-131.5 511.5,-131.5 511.5,-112.5 447.5,-112.5"/>
<text text-anchor="middle" x="479.5" y="-119.5" font-family="Helvetica,sans-Serif" font-size="10.00">algorithm</text>
</a>
</g>
</g>
<!-- Node34&#45;&gt;Node36 -->
<g id="edge45" class="edge">
<title>Node34&#45;&gt;Node36</title>
<path fill="none" stroke="midnightblue" d="M473.66,-168.08C474.58,-160.93 475.92,-150.64 477.08,-141.69"/>
<polygon fill="midnightblue" stroke="midnightblue" points="480.55,-142.12 478.37,-131.75 473.61,-141.22 480.55,-142.12"/>
</g>
<!-- Node37 -->
<g id="node35" class="node">
<title>Node37</title>
<g id="a_node35"><a xlink:title=" ">
<polygon fill="white" stroke="#bfbfbf" points="331.5,-112.5 331.5,-131.5 373.5,-131.5 373.5,-112.5 331.5,-112.5"/>
<text text-anchor="middle" x="352.5" y="-119.5" font-family="Helvetica,sans-Serif" font-size="10.00">array</text>
</a>
</g>
</g>
<!-- Node34&#45;&gt;Node37 -->
<g id="edge46" class="edge">
<title>Node34&#45;&gt;Node37</title>
<path fill="none" stroke="midnightblue" d="M453.49,-168.44C433.91,-159.64 403.19,-145.81 380.77,-135.72"/>
<polygon fill="midnightblue" stroke="midnightblue" points="381.98,-132.43 371.43,-131.52 379.11,-138.81 381.98,-132.43"/>
</g>
<!-- Node42&#45;&gt;Node8 -->
<g id="edge52" class="edge">
<title>Node42&#45;&gt;Node8</title>
<path fill="none" stroke="midnightblue" d="M125.99,-224.41C120.2,-202.67 108.48,-144.82 136.5,-112 155.38,-89.88 232.18,-77.58 284.39,-71.63"/>
<polygon fill="midnightblue" stroke="midnightblue" points="284.92,-75.09 294.48,-70.53 284.16,-68.14 284.92,-75.09"/>
</g>
<!-- Node42&#45;&gt;Node19 -->
<g id="edge51" class="edge">
<title>Node42&#45;&gt;Node19</title>
<path fill="none" stroke="midnightblue" d="M144.25,-224.32C159.82,-215.74 183.88,-202.49 201.96,-192.52"/>
<polygon fill="midnightblue" stroke="midnightblue" points="203.72,-195.55 210.79,-187.65 200.35,-189.42 203.72,-195.55"/>
</g>
<!-- Node43 -->
<g id="node40" class="node">
<title>Node43</title>
<g id="a_node40"><a xlink:title=" ">
<polygon fill="white" stroke="#bfbfbf" points="0,-168.5 0,-187.5 89,-187.5 89,-168.5 0,-168.5"/>
<text text-anchor="middle" x="44.5" y="-175.5" font-family="Helvetica,sans-Serif" font-size="10.00">impl/Morse.ipp</text>
</a>
</g>
</g>
<!-- Node42&#45;&gt;Node43 -->
<g id="edge53" class="edge">
<title>Node42&#45;&gt;Node43</title>
<path fill="none" stroke="midnightblue" d="M115,-224.32C101.9,-215.9 81.79,-202.97 66.39,-193.07"/>
<polygon fill="midnightblue" stroke="midnightblue" points="68.27,-190.12 57.96,-187.65 64.48,-196.01 68.27,-190.12"/>
</g>
<!-- Node47 -->
<g id="node44" class="node">
<title>Node47</title>
<g id="a_node44"><a xlink:href="Graph_8hpp.html" target="_top" xlink:title="Contains the classes mackey::Neighborhood, mackey::Graph, mackey::ShortestPaths.">
<polygon fill="white" stroke="black" points="1087,-504.5 1087,-523.5 1154,-523.5 1154,-504.5 1087,-504.5"/>
<text text-anchor="middle" x="1120.5" y="-511.5" font-family="Helvetica,sans-Serif" font-size="10.00">Graph.hpp</text>
</a>
</g>
</g>
<!-- Node46&#45;&gt;Node47 -->
<g id="edge57" class="edge">
<title>Node46&#45;&gt;Node47</title>
<path fill="none" stroke="midnightblue" d="M1120.5,-560.08C1120.5,-553.01 1120.5,-542.86 1120.5,-533.99"/>
<polygon fill="midnightblue" stroke="midnightblue" points="1124,-533.75 1120.5,-523.75 1117,-533.75 1124,-533.75"/>
</g>
<!-- Node52 -->
<g id="node49" class="node">
<title>Node52</title>
<g id="a_node49"><a xlink:title=" ">
<polygon fill="white" stroke="#bfbfbf" points="1172,-504.5 1172,-523.5 1303,-523.5 1303,-504.5 1172,-504.5"/>
<text text-anchor="middle" x="1237.5" y="-511.5" font-family="Helvetica,sans-Serif" font-size="10.00">impl/Graph_Policies.ipp</text>
</a>
</g>
</g>
<!-- Node46&#45;&gt;Node52 -->
<g id="edge63" class="edge">
<title>Node46&#45;&gt;Node52</title>
<path fill="none" stroke="midnightblue" d="M1139.04,-560.44C1158.12,-551.64 1188.07,-537.81 1209.94,-527.72"/>
<polygon fill="midnightblue" stroke="midnightblue" points="1211.43,-530.88 1219.05,-523.52 1208.5,-524.53 1211.43,-530.88"/>
</g>
<!-- Node47&#45;&gt;Node5 -->
<g id="edge58" class="edge">
<title>Node47&#45;&gt;Node5</title>
<path fill="none" stroke="midnightblue" d="M1086.74,-507.91C1000.02,-493.82 764.1,-449.06 590.5,-356 556.3,-337.66 543.55,-333.23 523.5,-300 510.35,-278.21 514.18,-269.31 511.5,-244 510.56,-235.16 509.27,-232.6 511.5,-224 516.09,-206.28 524.09,-204.74 531.5,-188 538.28,-172.68 544.25,-154.58 548.25,-141.37"/>
<polygon fill="midnightblue" stroke="midnightblue" points="551.66,-142.18 551.13,-131.6 544.95,-140.21 551.66,-142.18"/>
</g>
<!-- Node48 -->
<g id="node45" class="node">
<title>Node48</title>
<g id="a_node45"><a xlink:title=" ">
<polygon fill="white" stroke="#bfbfbf" points="1296,-448.5 1296,-467.5 1343,-467.5 1343,-448.5 1296,-448.5"/>
<text text-anchor="middle" x="1319.5" y="-455.5" font-family="Helvetica,sans-Serif" font-size="10.00">queue</text>
</a>
</g>
</g>
<!-- Node47&#45;&gt;Node48 -->
<g id="edge59" class="edge">
<title>Node47&#45;&gt;Node48</title>
<path fill="none" stroke="midnightblue" d="M1152.54,-504.48C1184.21,-496.03 1234.3,-482.6 1286.06,-468.38"/>
<polygon fill="midnightblue" stroke="midnightblue" points="1287.03,-471.74 1295.74,-465.71 1285.17,-464.99 1287.03,-471.74"/>
</g>
<!-- Node49 -->
<g id="node46" class="node">
<title>Node49</title>
<g id="a_node46"><a xlink:title=" ">
<polygon fill="white" stroke="#bfbfbf" points="1064.5,-448.5 1064.5,-467.5 1096.5,-467.5 1096.5,-448.5 1064.5,-448.5"/>
<text text-anchor="middle" x="1080.5" y="-455.5" font-family="Helvetica,sans-Serif" font-size="10.00">set</text>
</a>
</g>
</g>
<!-- Node47&#45;&gt;Node49 -->
<g id="edge60" class="edge">
<title>Node47&#45;&gt;Node49</title>
<path fill="none" stroke="midnightblue" d="M1113.89,-504.08C1108.24,-496.46 1099.96,-485.26 1093.05,-475.94"/>
<polygon fill="midnightblue" stroke="midnightblue" points="1095.75,-473.7 1086.98,-467.75 1090.12,-477.87 1095.75,-473.7"/>
</g>
<!-- Node50 -->
<g id="node47" class="node">
<title>Node50</title>
<g id="a_node47"><a xlink:title=" ">
<polygon fill="white" stroke="#bfbfbf" points="1114.5,-448.5 1114.5,-467.5 1170.5,-467.5 1170.5,-448.5 1114.5,-448.5"/>
<text text-anchor="middle" x="1142.5" y="-455.5" font-family="Helvetica,sans-Serif" font-size="10.00">iomanip</text>
</a>
</g>
</g>
<!-- Node47&#45;&gt;Node50 -->
<g id="edge61" class="edge">
<title>Node47&#45;&gt;Node50</title>
<path fill="none" stroke="midnightblue" d="M1124.13,-504.08C1127.11,-496.77 1131.43,-486.18 1135.12,-477.1"/>
<polygon fill="midnightblue" stroke="midnightblue" points="1138.4,-478.33 1138.93,-467.75 1131.92,-475.69 1138.4,-478.33"/>
</g>
<!-- Node51 -->
<g id="node48" class="node">
<title>Node51</title>
<g id="a_node48"><a xlink:title=" ">
<polygon fill="white" stroke="#bfbfbf" points="1189,-448.5 1189,-467.5 1278,-467.5 1278,-448.5 1189,-448.5"/>
<text text-anchor="middle" x="1233.5" y="-455.5" font-family="Helvetica,sans-Serif" font-size="10.00">impl/Graph.ipp</text>
</a>
</g>
</g>
<!-- Node47&#45;&gt;Node51 -->
<g id="edge62" class="edge">
<title>Node47&#45;&gt;Node51</title>
<path fill="none" stroke="midnightblue" d="M1138.41,-504.44C1156.75,-495.68 1185.51,-481.94 1206.59,-471.86"/>
<polygon fill="midnightblue" stroke="midnightblue" points="1208.17,-474.99 1215.68,-467.52 1205.15,-468.67 1208.17,-474.99"/>
</g>
</g>
</svg>
