<?xml version="1.0" encoding="UTF-8" standalone="no"?>
<!DOCTYPE svg PUBLIC "-//W3C//DTD SVG 1.1//EN"
 "http://www.w3.org/Graphics/SVG/1.1/DTD/svg11.dtd">
<!-- Generated by graphviz version 2.43.0 (0)
 -->
<!-- Title: Mult_Graph.hpp Pages: 1 -->
<svg width="1222pt" height="644pt"
 viewBox="0.00 0.00 1221.50 644.00" xmlns="http://www.w3.org/2000/svg" xmlns:xlink="http://www.w3.org/1999/xlink">
<g id="graph0" class="graph" transform="scale(1 1) rotate(0) translate(4 640)">
<title>Mult_Graph.hpp</title>
<polygon fill="white" stroke="transparent" points="-4,4 -4,-640 1217.5,-640 1217.5,4 -4,4"/>
<!-- Node1 -->
<g id="node1" class="node">
<title>Node1</title>
<g id="a_node1"><a xlink:title="Contains the multiplication graph.">
<polygon fill="#bfbfbf" stroke="black" points="959.5,-616.5 959.5,-635.5 1053.5,-635.5 1053.5,-616.5 959.5,-616.5"/>
<text text-anchor="middle" x="1006.5" y="-623.5" font-family="Helvetica,sans-Serif" font-size="10.00">Mult_Graph.hpp</text>
</a>
</g>
</g>
<!-- Node2 -->
<g id="node2" class="node">
<title>Node2</title>
<g id="a_node2"><a xlink:href="Mult__Table_8hpp.html" target="_top" xlink:title="Contains the classes mackey::MultTableData and mackey::MultTable that form the multiplication table.">
<polygon fill="white" stroke="black" points="362.5,-560.5 362.5,-579.5 452.5,-579.5 452.5,-560.5 362.5,-560.5"/>
<text text-anchor="middle" x="407.5" y="-567.5" font-family="Helvetica,sans-Serif" font-size="10.00">Mult_Table.hpp</text>
</a>
</g>
</g>
<!-- Node1&#45;&gt;Node2 -->
<g id="edge1" class="edge">
<title>Node1&#45;&gt;Node2</title>
<path fill="none" stroke="midnightblue" d="M959.5,-620.76C850.27,-610.92 579.74,-586.53 462.8,-575.99"/>
<polygon fill="midnightblue" stroke="midnightblue" points="462.92,-572.48 452.65,-575.07 462.29,-579.45 462.92,-572.48"/>
</g>
<!-- Node46 -->
<g id="node45" class="node">
<title>Node46</title>
<g id="a_node45"><a xlink:href="Graph_8hpp.html" target="_top" xlink:title=" ">
<polygon fill="white" stroke="black" points="917.5,-560.5 917.5,-579.5 1017.5,-579.5 1017.5,-560.5 917.5,-560.5"/>
<text text-anchor="middle" x="967.5" y="-567.5" font-family="Helvetica,sans-Serif" font-size="10.00">Utility/Graph.hpp</text>
</a>
</g>
</g>
<!-- Node1&#45;&gt;Node46 -->
<g id="edge58" class="edge">
<title>Node1&#45;&gt;Node46</title>
<path fill="none" stroke="midnightblue" d="M1000.06,-616.08C994.55,-608.46 986.47,-597.26 979.74,-587.94"/>
<polygon fill="midnightblue" stroke="midnightblue" points="982.51,-585.81 973.82,-579.75 976.84,-589.91 982.51,-585.81"/>
</g>
<!-- Node48 -->
<g id="node47" class="node">
<title>Node48</title>
<g id="a_node47"><a xlink:title=" ">
<polygon fill="white" stroke="#bfbfbf" points="1083.5,-504.5 1083.5,-523.5 1115.5,-523.5 1115.5,-504.5 1083.5,-504.5"/>
<text text-anchor="middle" x="1099.5" y="-511.5" font-family="Helvetica,sans-Serif" font-size="10.00">set</text>
</a>
</g>
</g>
<!-- Node1&#45;&gt;Node48 -->
<g id="edge64" class="edge">
<title>Node1&#45;&gt;Node48</title>
<path fill="none" stroke="midnightblue" d="M1013.8,-616.37C1029.28,-598.05 1065.64,-555.05 1085.67,-531.36"/>
<polygon fill="midnightblue" stroke="midnightblue" points="1088.45,-533.49 1092.24,-523.59 1083.11,-528.97 1088.45,-533.49"/>
</g>
<!-- Node51 -->
<g id="node50" class="node">
<title>Node51</title>
<g id="a_node50"><a xlink:title=" ">
<polygon fill="white" stroke="#bfbfbf" points="1073.5,-560.5 1073.5,-579.5 1189.5,-579.5 1189.5,-560.5 1073.5,-560.5"/>
<text text-anchor="middle" x="1131.5" y="-567.5" font-family="Helvetica,sans-Serif" font-size="10.00">impl/Mult_Graph.ipp</text>
</a>
</g>
</g>
<!-- Node1&#45;&gt;Node51 -->
<g id="edge65" class="edge">
<title>Node1&#45;&gt;Node51</title>
<path fill="none" stroke="midnightblue" d="M1026.31,-616.44C1046.79,-607.6 1078.98,-593.69 1102.36,-583.59"/>
<polygon fill="midnightblue" stroke="midnightblue" points="1103.99,-586.7 1111.79,-579.52 1101.22,-580.27 1103.99,-586.7"/>
</g>
<!-- Node3 -->
<g id="node3" class="node">
<title>Node3</title>
<g id="a_node3"><a xlink:href="OpenMP__Macros_8hpp.html" target="_top" xlink:title="Contains open MP macros if multithreading is desired in this library.">
<polygon fill="white" stroke="black" points="187.5,-504.5 187.5,-523.5 339.5,-523.5 339.5,-504.5 187.5,-504.5"/>
<text text-anchor="middle" x="263.5" y="-511.5" font-family="Helvetica,sans-Serif" font-size="10.00">Utility/OpenMP_Macros.hpp</text>
</a>
</g>
</g>
<!-- Node2&#45;&gt;Node3 -->
<g id="edge2" class="edge">
<title>Node2&#45;&gt;Node3</title>
<path fill="none" stroke="midnightblue" d="M384.68,-560.44C360.67,-551.44 322.67,-537.19 295.63,-527.05"/>
<polygon fill="midnightblue" stroke="midnightblue" points="296.8,-523.75 286.21,-523.52 294.34,-530.3 296.8,-523.75"/>
</g>
<!-- Node4 -->
<g id="node4" class="node">
<title>Node4</title>
<g id="a_node4"><a xlink:href="General_8hpp.html" target="_top" xlink:title="Contains general functions and vector overloads independent of everything else.">
<polygon fill="white" stroke="black" points="839,-168.5 839,-187.5 948,-187.5 948,-168.5 839,-168.5"/>
<text text-anchor="middle" x="893.5" y="-175.5" font-family="Helvetica,sans-Serif" font-size="10.00">Utility/General.hpp</text>
</a>
</g>
</g>
<!-- Node2&#45;&gt;Node4 -->
<g id="edge3" class="edge">
<title>Node2&#45;&gt;Node4</title>
<path fill="none" stroke="midnightblue" d="M452.53,-566.02C573.58,-555.3 906.06,-507.35 1043.5,-300 1062.16,-271.85 1063.66,-251.1 1043.5,-224 1023.8,-197.53 989.07,-186.04 957.98,-181.28"/>
<polygon fill="midnightblue" stroke="midnightblue" points="958.41,-177.81 948.04,-179.96 957.49,-184.75 958.41,-177.81"/>
</g>
<!-- Node14 -->
<g id="node14" class="node">
<title>Node14</title>
<g id="a_node14"><a xlink:href="Point_8hpp.html" target="_top" xlink:title="Contains the computations for RO(G) homology of a point.">
<polygon fill="white" stroke="black" points="357.5,-504.5 357.5,-523.5 457.5,-523.5 457.5,-504.5 357.5,-504.5"/>
<text text-anchor="middle" x="407.5" y="-511.5" font-family="Helvetica,sans-Serif" font-size="10.00">Spaces/Point.hpp</text>
</a>
</g>
</g>
<!-- Node2&#45;&gt;Node14 -->
<g id="edge13" class="edge">
<title>Node2&#45;&gt;Node14</title>
<path fill="none" stroke="midnightblue" d="M407.5,-560.08C407.5,-553.01 407.5,-542.86 407.5,-533.99"/>
<polygon fill="midnightblue" stroke="midnightblue" points="411,-533.75 407.5,-523.75 404,-533.75 411,-533.75"/>
</g>
<!-- Node45 -->
<g id="node44" class="node">
<title>Node45</title>
<g id="a_node44"><a xlink:title=" ">
<polygon fill="white" stroke="#bfbfbf" points="57.5,-504.5 57.5,-523.5 169.5,-523.5 169.5,-504.5 57.5,-504.5"/>
<text text-anchor="middle" x="113.5" y="-511.5" font-family="Helvetica,sans-Serif" font-size="10.00">impl/Mult_Table.ipp</text>
</a>
</g>
</g>
<!-- Node2&#45;&gt;Node45 -->
<g id="edge57" class="edge">
<title>Node2&#45;&gt;Node45</title>
<path fill="none" stroke="midnightblue" d="M362.21,-560.68C310.5,-551.18 225.86,-535.64 169.91,-525.36"/>
<polygon fill="midnightblue" stroke="midnightblue" points="170.28,-521.87 159.82,-523.51 169.02,-528.76 170.28,-521.87"/>
</g>
<!-- Node5 -->
<g id="node5" class="node">
<title>Node5</title>
<g id="a_node5"><a xlink:title=" ">
<polygon fill="white" stroke="#bfbfbf" points="670,-112.5 670,-131.5 717,-131.5 717,-112.5 670,-112.5"/>
<text text-anchor="middle" x="693.5" y="-119.5" font-family="Helvetica,sans-Serif" font-size="10.00">vector</text>
</a>
</g>
</g>
<!-- Node4&#45;&gt;Node5 -->
<g id="edge4" class="edge">
<title>Node4&#45;&gt;Node5</title>
<path fill="none" stroke="midnightblue" d="M861.79,-168.49C830.16,-159.99 779.92,-146.47 727.17,-132.17"/>
<polygon fill="midnightblue" stroke="midnightblue" points="727.86,-128.74 717.29,-129.5 726.03,-135.49 727.86,-128.74"/>
</g>
<!-- Node6 -->
<g id="node6" class="node">
<title>Node6</title>
<g id="a_node6"><a xlink:href="Aliases_8hpp.html" target="_top" xlink:title="Contains general template aliases.">
<polygon fill="white" stroke="black" points="841.5,-112.5 841.5,-131.5 945.5,-131.5 945.5,-112.5 841.5,-112.5"/>
<text text-anchor="middle" x="893.5" y="-119.5" font-family="Helvetica,sans-Serif" font-size="10.00">Types/Aliases.hpp</text>
</a>
</g>
</g>
<!-- Node4&#45;&gt;Node6 -->
<g id="edge5" class="edge">
<title>Node4&#45;&gt;Node6</title>
<path fill="none" stroke="midnightblue" d="M893.5,-168.08C893.5,-161.01 893.5,-150.86 893.5,-141.99"/>
<polygon fill="midnightblue" stroke="midnightblue" points="897,-141.75 893.5,-131.75 890,-141.75 897,-141.75"/>
</g>
<!-- Node11 -->
<g id="node11" class="node">
<title>Node11</title>
<g id="a_node11"><a xlink:title=" ">
<polygon fill="white" stroke="#bfbfbf" points="1079.5,-112.5 1079.5,-131.5 1135.5,-131.5 1135.5,-112.5 1079.5,-112.5"/>
<text text-anchor="middle" x="1107.5" y="-119.5" font-family="Helvetica,sans-Serif" font-size="10.00">numeric</text>
</a>
</g>
</g>
<!-- Node4&#45;&gt;Node11 -->
<g id="edge10" class="edge">
<title>Node4&#45;&gt;Node11</title>
<path fill="none" stroke="midnightblue" d="M927.41,-168.44C966.09,-158.68 1029.17,-142.76 1069.49,-132.59"/>
<polygon fill="midnightblue" stroke="midnightblue" points="1070.38,-135.98 1079.22,-130.14 1068.66,-129.19 1070.38,-135.98"/>
</g>
<!-- Node12 -->
<g id="node12" class="node">
<title>Node12</title>
<g id="a_node12"><a xlink:title=" ">
<polygon fill="white" stroke="#bfbfbf" points="1153.5,-112.5 1153.5,-131.5 1213.5,-131.5 1213.5,-112.5 1153.5,-112.5"/>
<text text-anchor="middle" x="1183.5" y="-119.5" font-family="Helvetica,sans-Serif" font-size="10.00">iostream</text>
</a>
</g>
</g>
<!-- Node4&#45;&gt;Node12 -->
<g id="edge11" class="edge">
<title>Node4&#45;&gt;Node12</title>
<path fill="none" stroke="midnightblue" d="M945.56,-168.44C994.24,-160.26 1069.19,-147.22 1143.32,-132.16"/>
<polygon fill="midnightblue" stroke="midnightblue" points="1144.2,-135.56 1153.3,-130.12 1142.8,-128.7 1144.2,-135.56"/>
</g>
<!-- Node13 -->
<g id="node13" class="node">
<title>Node13</title>
<g id="a_node13"><a xlink:title=" ">
<polygon fill="white" stroke="#bfbfbf" points="963.5,-112.5 963.5,-131.5 1061.5,-131.5 1061.5,-112.5 963.5,-112.5"/>
<text text-anchor="middle" x="1012.5" y="-119.5" font-family="Helvetica,sans-Serif" font-size="10.00">impl/General.ipp</text>
</a>
</g>
</g>
<!-- Node4&#45;&gt;Node13 -->
<g id="edge12" class="edge">
<title>Node4&#45;&gt;Node13</title>
<path fill="none" stroke="midnightblue" d="M912.36,-168.44C931.77,-159.64 962.23,-145.81 984.46,-135.72"/>
<polygon fill="midnightblue" stroke="midnightblue" points="986.07,-138.84 993.73,-131.52 983.18,-132.46 986.07,-138.84"/>
</g>
<!-- Node7 -->
<g id="node7" class="node">
<title>Node7</title>
<g id="a_node7"><a xlink:title=" ">
<polygon fill="white" stroke="#bfbfbf" points="901,-56.5 901,-75.5 978,-75.5 978,-56.5 901,-56.5"/>
<text text-anchor="middle" x="939.5" y="-63.5" font-family="Helvetica,sans-Serif" font-size="10.00">Eigen/Dense</text>
</a>
</g>
</g>
<!-- Node6&#45;&gt;Node7 -->
<g id="edge6" class="edge">
<title>Node6&#45;&gt;Node7</title>
<path fill="none" stroke="midnightblue" d="M901.1,-112.08C907.73,-104.3 917.52,-92.8 925.56,-83.37"/>
<polygon fill="midnightblue" stroke="midnightblue" points="928.23,-85.63 932.05,-75.75 922.9,-81.09 928.23,-85.63"/>
</g>
<!-- Node8 -->
<g id="node8" class="node">
<title>Node8</title>
<g id="a_node8"><a xlink:title=" ">
<polygon fill="white" stroke="#bfbfbf" points="417.5,-56.5 417.5,-75.5 497.5,-75.5 497.5,-56.5 417.5,-56.5"/>
<text text-anchor="middle" x="457.5" y="-63.5" font-family="Helvetica,sans-Serif" font-size="10.00">Eigen/Sparse</text>
</a>
</g>
</g>
<!-- Node6&#45;&gt;Node8 -->
<g id="edge7" class="edge">
<title>Node6&#45;&gt;Node8</title>
<path fill="none" stroke="midnightblue" d="M841.27,-113.2C838.3,-112.79 835.36,-112.38 832.5,-112 716.35,-96.47 579.62,-80.69 507.64,-72.58"/>
<polygon fill="midnightblue" stroke="midnightblue" points="507.83,-69.08 497.5,-71.44 507.05,-76.04 507.83,-69.08"/>
</g>
<!-- Node9 -->
<g id="node9" class="node">
<title>Node9</title>
<g id="a_node9"><a xlink:href="SFINAE_8hpp.html" target="_top" xlink:title="Contains all the SFINAE tricks.">
<polygon fill="white" stroke="black" points="810,-56.5 810,-75.5 883,-75.5 883,-56.5 810,-56.5"/>
<text text-anchor="middle" x="846.5" y="-63.5" font-family="Helvetica,sans-Serif" font-size="10.00">SFINAE.hpp</text>
</a>
</g>
</g>
<!-- Node6&#45;&gt;Node9 -->
<g id="edge8" class="edge">
<title>Node6&#45;&gt;Node9</title>
<path fill="none" stroke="midnightblue" d="M885.74,-112.08C878.96,-104.3 868.96,-92.8 860.74,-83.37"/>
<polygon fill="midnightblue" stroke="midnightblue" points="863.32,-81 854.12,-75.75 858.04,-85.59 863.32,-81"/>
</g>
<!-- Node10 -->
<g id="node10" class="node">
<title>Node10</title>
<g id="a_node10"><a xlink:title=" ">
<polygon fill="white" stroke="#bfbfbf" points="812,-0.5 812,-19.5 881,-19.5 881,-0.5 812,-0.5"/>
<text text-anchor="middle" x="846.5" y="-7.5" font-family="Helvetica,sans-Serif" font-size="10.00">type_traits</text>
</a>
</g>
</g>
<!-- Node9&#45;&gt;Node10 -->
<g id="edge9" class="edge">
<title>Node9&#45;&gt;Node10</title>
<path fill="none" stroke="midnightblue" d="M846.5,-56.08C846.5,-49.01 846.5,-38.86 846.5,-29.99"/>
<polygon fill="midnightblue" stroke="midnightblue" points="850,-29.75 846.5,-19.75 843,-29.75 850,-29.75"/>
</g>
<!-- Node15 -->
<g id="node15" class="node">
<title>Node15</title>
<g id="a_node15"><a xlink:href="Massey_8hpp.html" target="_top" xlink:title="Contains the class and methods for Massey Products.">
<polygon fill="white" stroke="black" points="348,-448.5 348,-467.5 467,-467.5 467,-448.5 348,-448.5"/>
<text text-anchor="middle" x="407.5" y="-455.5" font-family="Helvetica,sans-Serif" font-size="10.00">Products/Massey.hpp</text>
</a>
</g>
</g>
<!-- Node14&#45;&gt;Node15 -->
<g id="edge14" class="edge">
<title>Node14&#45;&gt;Node15</title>
<path fill="none" stroke="midnightblue" d="M407.5,-504.08C407.5,-497.01 407.5,-486.86 407.5,-477.99"/>
<polygon fill="midnightblue" stroke="midnightblue" points="411,-477.75 407.5,-467.75 404,-477.75 411,-477.75"/>
</g>
<!-- Node42 -->
<g id="node41" class="node">
<title>Node42</title>
<g id="a_node41"><a xlink:href="Morse_8hpp.html" target="_top" xlink:title="Contains classes for (equivariant) Algebraic Morse Theory.">
<polygon fill="white" stroke="black" points="78.5,-224.5 78.5,-243.5 236.5,-243.5 236.5,-224.5 78.5,-224.5"/>
<text text-anchor="middle" x="157.5" y="-231.5" font-family="Helvetica,sans-Serif" font-size="10.00">Chain_Complexes/Morse.hpp</text>
</a>
</g>
</g>
<!-- Node14&#45;&gt;Node42 -->
<g id="edge52" class="edge">
<title>Node14&#45;&gt;Node42</title>
<path fill="none" stroke="midnightblue" d="M366.29,-504.48C317.42,-491.69 242.5,-462.39 242.5,-403 242.5,-403 242.5,-403 242.5,-345 242.5,-303.76 204.64,-268.57 179.45,-249.73"/>
<polygon fill="midnightblue" stroke="midnightblue" points="181.32,-246.76 171.16,-243.76 177.23,-252.44 181.32,-246.76"/>
</g>
<!-- Node44 -->
<g id="node43" class="node">
<title>Node44</title>
<g id="a_node43"><a xlink:title=" ">
<polygon fill="white" stroke="#bfbfbf" points="130.5,-448.5 130.5,-467.5 214.5,-467.5 214.5,-448.5 130.5,-448.5"/>
<text text-anchor="middle" x="172.5" y="-455.5" font-family="Helvetica,sans-Serif" font-size="10.00">impl/Point.ipp</text>
</a>
</g>
</g>
<!-- Node14&#45;&gt;Node44 -->
<g id="edge56" class="edge">
<title>Node14&#45;&gt;Node44</title>
<path fill="none" stroke="midnightblue" d="M370.26,-504.44C329.44,-495.06 263.86,-479.99 219.52,-469.8"/>
<polygon fill="midnightblue" stroke="midnightblue" points="220.09,-466.34 209.56,-467.52 218.52,-473.17 220.09,-466.34"/>
</g>
<!-- Node16 -->
<g id="node16" class="node">
<title>Node16</title>
<g id="a_node16"><a xlink:href="Green_8hpp.html" target="_top" xlink:title="Contains the class and methods for multiplying generators.">
<polygon fill="white" stroke="black" points="423,-392.5 423,-411.5 490,-411.5 490,-392.5 423,-392.5"/>
<text text-anchor="middle" x="456.5" y="-399.5" font-family="Helvetica,sans-Serif" font-size="10.00">Green.hpp</text>
</a>
</g>
</g>
<!-- Node15&#45;&gt;Node16 -->
<g id="edge15" class="edge">
<title>Node15&#45;&gt;Node16</title>
<path fill="none" stroke="midnightblue" d="M415.59,-448.08C422.66,-440.3 433.09,-428.8 441.65,-419.37"/>
<polygon fill="midnightblue" stroke="midnightblue" points="444.43,-421.51 448.56,-411.75 439.25,-416.8 444.43,-421.51"/>
</g>
<!-- Node41 -->
<g id="node40" class="node">
<title>Node41</title>
<g id="a_node40"><a xlink:title=" ">
<polygon fill="white" stroke="#bfbfbf" points="310,-392.5 310,-411.5 405,-411.5 405,-392.5 310,-392.5"/>
<text text-anchor="middle" x="357.5" y="-399.5" font-family="Helvetica,sans-Serif" font-size="10.00">impl/Massey.ipp</text>
</a>
</g>
</g>
<!-- Node15&#45;&gt;Node41 -->
<g id="edge51" class="edge">
<title>Node15&#45;&gt;Node41</title>
<path fill="none" stroke="midnightblue" d="M399.24,-448.08C392.04,-440.3 381.39,-428.8 372.65,-419.37"/>
<polygon fill="midnightblue" stroke="midnightblue" points="374.97,-416.71 365.6,-411.75 369.83,-421.47 374.97,-416.71"/>
</g>
<!-- Node17 -->
<g id="node17" class="node">
<title>Node17</title>
<g id="a_node17"><a xlink:href="Levels_8hpp.html" target="_top" xlink:title="Contains the methods for transfering, restricting and act&#45;group&#45;acting.">
<polygon fill="white" stroke="black" points="416.5,-336.5 416.5,-355.5 572.5,-355.5 572.5,-336.5 416.5,-336.5"/>
<text text-anchor="middle" x="494.5" y="-343.5" font-family="Helvetica,sans-Serif" font-size="10.00">Mackey_Functors/Levels.hpp</text>
</a>
</g>
</g>
<!-- Node16&#45;&gt;Node17 -->
<g id="edge16" class="edge">
<title>Node16&#45;&gt;Node17</title>
<path fill="none" stroke="midnightblue" d="M462.77,-392.08C468.14,-384.46 476.02,-373.26 482.58,-363.94"/>
<polygon fill="midnightblue" stroke="midnightblue" points="485.45,-365.94 488.34,-355.75 479.72,-361.91 485.45,-365.94"/>
</g>
<!-- Node28 -->
<g id="node27" class="node">
<title>Node28</title>
<g id="a_node27"><a xlink:href="Identify_8hpp.html" target="_top" xlink:title="Contains the identification classes.">
<polygon fill="white" stroke="black" points="605.5,-336.5 605.5,-355.5 765.5,-355.5 765.5,-336.5 605.5,-336.5"/>
<text text-anchor="middle" x="685.5" y="-343.5" font-family="Helvetica,sans-Serif" font-size="10.00">Mackey_Functors/Identify.hpp</text>
</a>
</g>
</g>
<!-- Node16&#45;&gt;Node28 -->
<g id="edge31" class="edge">
<title>Node16&#45;&gt;Node28</title>
<path fill="none" stroke="midnightblue" d="M490.29,-393.03C529.76,-383.72 595.28,-368.27 639.4,-357.87"/>
<polygon fill="midnightblue" stroke="midnightblue" points="640.37,-361.24 649.3,-355.54 638.76,-354.42 640.37,-361.24"/>
</g>
<!-- Node33 -->
<g id="node32" class="node">
<title>Node33</title>
<g id="a_node32"><a xlink:href="Box_8hpp.html" target="_top" xlink:title="Contains the construction of box products of Chains.">
<polygon fill="white" stroke="black" points="324.5,-224.5 324.5,-243.5 470.5,-243.5 470.5,-224.5 324.5,-224.5"/>
<text text-anchor="middle" x="397.5" y="-231.5" font-family="Helvetica,sans-Serif" font-size="10.00">Chain_Complexes/Box.hpp</text>
</a>
</g>
</g>
<!-- Node16&#45;&gt;Node33 -->
<g id="edge40" class="edge">
<title>Node16&#45;&gt;Node33</title>
<path fill="none" stroke="midnightblue" d="M442.17,-392.25C430.63,-384.34 415.12,-371.56 407.5,-356 391.34,-322.99 392.56,-278.8 394.97,-253.99"/>
<polygon fill="midnightblue" stroke="midnightblue" points="398.48,-254.11 396.15,-243.78 391.53,-253.31 398.48,-254.11"/>
</g>
<!-- Node40 -->
<g id="node39" class="node">
<title>Node40</title>
<g id="a_node39"><a xlink:title=" ">
<polygon fill="white" stroke="#bfbfbf" points="271,-336.5 271,-355.5 360,-355.5 360,-336.5 271,-336.5"/>
<text text-anchor="middle" x="315.5" y="-343.5" font-family="Helvetica,sans-Serif" font-size="10.00">impl/Green.ipp</text>
</a>
</g>
</g>
<!-- Node16&#45;&gt;Node40 -->
<g id="edge50" class="edge">
<title>Node16&#45;&gt;Node40</title>
<path fill="none" stroke="midnightblue" d="M434.16,-392.44C410.75,-383.48 373.76,-369.31 347.31,-359.18"/>
<polygon fill="midnightblue" stroke="midnightblue" points="348.33,-355.82 337.74,-355.52 345.82,-362.36 348.33,-355.82"/>
</g>
<!-- Node18 -->
<g id="node18" class="node">
<title>Node18</title>
<g id="a_node18"><a xlink:href="Homology_8hpp.html" target="_top" xlink:title="Contains the Homology class and algorithms.">
<polygon fill="white" stroke="black" points="526.5,-280.5 526.5,-299.5 666.5,-299.5 666.5,-280.5 526.5,-280.5"/>
<text text-anchor="middle" x="596.5" y="-287.5" font-family="Helvetica,sans-Serif" font-size="10.00">Homology/Homology.hpp</text>
</a>
</g>
</g>
<!-- Node17&#45;&gt;Node18 -->
<g id="edge17" class="edge">
<title>Node17&#45;&gt;Node18</title>
<path fill="none" stroke="midnightblue" d="M510.89,-336.32C527.17,-327.7 552.37,-314.36 571.22,-304.39"/>
<polygon fill="midnightblue" stroke="midnightblue" points="572.95,-307.43 580.15,-299.65 569.68,-301.24 572.95,-307.43"/>
</g>
<!-- Node27 -->
<g id="node26" class="node">
<title>Node27</title>
<g id="a_node26"><a xlink:title=" ">
<polygon fill="white" stroke="#bfbfbf" points="417,-280.5 417,-299.5 508,-299.5 508,-280.5 417,-280.5"/>
<text text-anchor="middle" x="462.5" y="-287.5" font-family="Helvetica,sans-Serif" font-size="10.00">impl/Levels.ipp</text>
</a>
</g>
</g>
<!-- Node17&#45;&gt;Node27 -->
<g id="edge30" class="edge">
<title>Node17&#45;&gt;Node27</title>
<path fill="none" stroke="midnightblue" d="M489.22,-336.08C484.79,-328.61 478.34,-317.72 472.88,-308.52"/>
<polygon fill="midnightblue" stroke="midnightblue" points="475.79,-306.57 467.69,-299.75 469.77,-310.14 475.79,-306.57"/>
</g>
<!-- Node18&#45;&gt;Node4 -->
<g id="edge22" class="edge">
<title>Node18&#45;&gt;Node4</title>
<path fill="none" stroke="midnightblue" d="M613.34,-280.39C639.74,-267.12 692.71,-241.37 739.5,-224 775.9,-210.49 818.33,-198.35 849.42,-190.09"/>
<polygon fill="midnightblue" stroke="midnightblue" points="850.31,-193.47 859.1,-187.55 848.54,-186.7 850.31,-193.47"/>
</g>
<!-- Node19 -->
<g id="node19" class="node">
<title>Node19</title>
<g id="a_node19"><a xlink:href="Chains_8hpp.html" target="_top" xlink:title="Contains Chains and Junction classes for using chain complexes.">
<polygon fill="white" stroke="black" points="179,-168.5 179,-187.5 340,-187.5 340,-168.5 179,-168.5"/>
<text text-anchor="middle" x="259.5" y="-175.5" font-family="Helvetica,sans-Serif" font-size="10.00">Chain_Complexes/Chains.hpp</text>
</a>
</g>
</g>
<!-- Node18&#45;&gt;Node19 -->
<g id="edge18" class="edge">
<title>Node18&#45;&gt;Node19</title>
<path fill="none" stroke="midnightblue" d="M527.51,-280.47C450.35,-270.53 333.73,-254.18 315.5,-244 295.66,-232.92 279.57,-211.96 269.82,-196.83"/>
<polygon fill="midnightblue" stroke="midnightblue" points="272.55,-194.59 264.35,-187.89 266.58,-198.25 272.55,-194.59"/>
</g>
<!-- Node22 -->
<g id="node22" class="node">
<title>Node22</title>
<g id="a_node22"><a xlink:href="Smith_8hpp.html" target="_top" xlink:title="Contains the base class for all Smith implementations.">
<polygon fill="white" stroke="black" points="748.5,-168.5 748.5,-187.5 814.5,-187.5 814.5,-168.5 748.5,-168.5"/>
<text text-anchor="middle" x="781.5" y="-175.5" font-family="Helvetica,sans-Serif" font-size="10.00">Smith.hpp</text>
</a>
</g>
</g>
<!-- Node18&#45;&gt;Node22 -->
<g id="edge23" class="edge">
<title>Node18&#45;&gt;Node22</title>
<path fill="none" stroke="midnightblue" d="M578.57,-280.38C555.45,-268.13 520.14,-244.85 537.5,-224 562.56,-193.89 675.17,-183.85 738.28,-180.56"/>
<polygon fill="midnightblue" stroke="midnightblue" points="738.52,-184.05 748.34,-180.07 738.18,-177.06 738.52,-184.05"/>
</g>
<!-- Node24 -->
<g id="node24" class="node">
<title>Node24</title>
<g id="a_node24"><a xlink:href="Abelian_8hpp.html" target="_top" xlink:title="Contains the methods for finding the automorphisms of finitely generated abelian groups.">
<polygon fill="white" stroke="red" points="748.5,-224.5 748.5,-243.5 822.5,-243.5 822.5,-224.5 748.5,-224.5"/>
<text text-anchor="middle" x="785.5" y="-231.5" font-family="Helvetica,sans-Serif" font-size="10.00">Abelian.hpp</text>
</a>
</g>
</g>
<!-- Node18&#45;&gt;Node24 -->
<g id="edge27" class="edge">
<title>Node18&#45;&gt;Node24</title>
<path fill="none" stroke="midnightblue" d="M626.45,-280.44C658.66,-271.24 710.03,-256.56 745.64,-246.39"/>
<polygon fill="midnightblue" stroke="midnightblue" points="747.04,-249.63 755.69,-243.52 745.12,-242.9 747.04,-249.63"/>
</g>
<!-- Node26 -->
<g id="node25" class="node">
<title>Node26</title>
<g id="a_node25"><a xlink:title=" ">
<polygon fill="white" stroke="#bfbfbf" points="546.5,-224.5 546.5,-243.5 654.5,-243.5 654.5,-224.5 546.5,-224.5"/>
<text text-anchor="middle" x="600.5" y="-231.5" font-family="Helvetica,sans-Serif" font-size="10.00">impl/Homology.ipp</text>
</a>
</g>
</g>
<!-- Node18&#45;&gt;Node26 -->
<g id="edge29" class="edge">
<title>Node18&#45;&gt;Node26</title>
<path fill="none" stroke="midnightblue" d="M597.16,-280.08C597.68,-273.01 598.44,-262.86 599.09,-253.99"/>
<polygon fill="midnightblue" stroke="midnightblue" points="602.6,-253.98 599.85,-243.75 595.62,-253.47 602.6,-253.98"/>
</g>
<!-- Node19&#45;&gt;Node5 -->
<g id="edge19" class="edge">
<title>Node19&#45;&gt;Node5</title>
<path fill="none" stroke="midnightblue" d="M340.42,-168.6C441.1,-158.04 605.46,-140.47 659.71,-131.71"/>
<polygon fill="midnightblue" stroke="midnightblue" points="660.57,-135.11 669.81,-129.93 659.35,-128.22 660.57,-135.11"/>
</g>
<!-- Node20 -->
<g id="node20" class="node">
<title>Node20</title>
<g id="a_node20"><a xlink:title=" ">
<polygon fill="white" stroke="#bfbfbf" points="146,-112.5 146,-131.5 203,-131.5 203,-112.5 146,-112.5"/>
<text text-anchor="middle" x="174.5" y="-119.5" font-family="Helvetica,sans-Serif" font-size="10.00">ostream</text>
</a>
</g>
</g>
<!-- Node19&#45;&gt;Node20 -->
<g id="edge20" class="edge">
<title>Node19&#45;&gt;Node20</title>
<path fill="none" stroke="midnightblue" d="M245.84,-168.32C232.58,-159.9 212.23,-146.97 196.65,-137.07"/>
<polygon fill="midnightblue" stroke="midnightblue" points="198.44,-134.06 188.12,-131.65 194.69,-139.97 198.44,-134.06"/>
</g>
<!-- Node21 -->
<g id="node21" class="node">
<title>Node21</title>
<g id="a_node21"><a xlink:title=" ">
<polygon fill="white" stroke="#bfbfbf" points="221.5,-112.5 221.5,-131.5 313.5,-131.5 313.5,-112.5 221.5,-112.5"/>
<text text-anchor="middle" x="267.5" y="-119.5" font-family="Helvetica,sans-Serif" font-size="10.00">impl/Chains.ipp</text>
</a>
</g>
</g>
<!-- Node19&#45;&gt;Node21 -->
<g id="edge21" class="edge">
<title>Node19&#45;&gt;Node21</title>
<path fill="none" stroke="midnightblue" d="M260.82,-168.08C261.88,-160.93 263.41,-150.64 264.73,-141.69"/>
<polygon fill="midnightblue" stroke="midnightblue" points="268.2,-142.16 266.2,-131.75 261.28,-141.13 268.2,-142.16"/>
</g>
<!-- Node22&#45;&gt;Node5 -->
<g id="edge24" class="edge">
<title>Node22&#45;&gt;Node5</title>
<path fill="none" stroke="midnightblue" d="M767.36,-168.32C753.63,-159.9 732.56,-146.97 716.44,-137.07"/>
<polygon fill="midnightblue" stroke="midnightblue" points="717.96,-133.9 707.6,-131.65 714.3,-139.87 717.96,-133.9"/>
</g>
<!-- Node22&#45;&gt;Node6 -->
<g id="edge25" class="edge">
<title>Node22&#45;&gt;Node6</title>
<path fill="none" stroke="midnightblue" d="M799.49,-168.32C817.54,-159.62 845.55,-146.12 866.3,-136.11"/>
<polygon fill="midnightblue" stroke="midnightblue" points="868.06,-139.15 875.55,-131.65 865.02,-132.84 868.06,-139.15"/>
</g>
<!-- Node23 -->
<g id="node23" class="node">
<title>Node23</title>
<g id="a_node23"><a xlink:title=" ">
<polygon fill="white" stroke="#bfbfbf" points="735.5,-112.5 735.5,-131.5 823.5,-131.5 823.5,-112.5 735.5,-112.5"/>
<text text-anchor="middle" x="779.5" y="-119.5" font-family="Helvetica,sans-Serif" font-size="10.00">impl/Smith.ipp</text>
</a>
</g>
</g>
<!-- Node22&#45;&gt;Node23 -->
<g id="edge26" class="edge">
<title>Node22&#45;&gt;Node23</title>
<path fill="none" stroke="midnightblue" d="M781.17,-168.08C780.91,-161.01 780.53,-150.86 780.2,-141.99"/>
<polygon fill="midnightblue" stroke="midnightblue" points="783.69,-141.61 779.82,-131.75 776.7,-141.87 783.69,-141.61"/>
</g>
<!-- Node24&#45;&gt;Node4 -->
<g id="edge28" class="edge">
<title>Node24&#45;&gt;Node4</title>
<path fill="none" stroke="midnightblue" d="M802.85,-224.32C820.17,-215.66 847.02,-202.24 867,-192.25"/>
<polygon fill="midnightblue" stroke="midnightblue" points="868.81,-195.26 876.19,-187.65 865.68,-189 868.81,-195.26"/>
</g>
<!-- Node28&#45;&gt;Node18 -->
<g id="edge32" class="edge">
<title>Node28&#45;&gt;Node18</title>
<path fill="none" stroke="midnightblue" d="M671.2,-336.32C657.32,-327.9 636.01,-314.97 619.7,-305.07"/>
<polygon fill="midnightblue" stroke="midnightblue" points="621.13,-301.85 610.76,-299.65 617.5,-307.83 621.13,-301.85"/>
</g>
<!-- Node29 -->
<g id="node28" class="node">
<title>Node29</title>
<g id="a_node28"><a xlink:href="MackeyFunctor_8hpp.html" target="_top" xlink:title="Contains the class describing Mackey Functors.">
<polygon fill="white" stroke="black" points="837,-280.5 837,-299.5 1034,-299.5 1034,-280.5 837,-280.5"/>
<text text-anchor="middle" x="935.5" y="-287.5" font-family="Helvetica,sans-Serif" font-size="10.00">Mackey_Functors/MackeyFunctor.hpp</text>
</a>
</g>
</g>
<!-- Node28&#45;&gt;Node29 -->
<g id="edge33" class="edge">
<title>Node28&#45;&gt;Node29</title>
<path fill="none" stroke="midnightblue" d="M725.11,-336.44C768.73,-327.02 838.9,-311.87 886.08,-301.68"/>
<polygon fill="midnightblue" stroke="midnightblue" points="887.04,-305.05 896.07,-299.52 885.56,-298.21 887.04,-305.05"/>
</g>
<!-- Node32 -->
<g id="node31" class="node">
<title>Node32</title>
<g id="a_node31"><a xlink:title=" ">
<polygon fill="white" stroke="#bfbfbf" points="685,-280.5 685,-299.5 780,-299.5 780,-280.5 685,-280.5"/>
<text text-anchor="middle" x="732.5" y="-287.5" font-family="Helvetica,sans-Serif" font-size="10.00">impl/Identify.ipp</text>
</a>
</g>
</g>
<!-- Node28&#45;&gt;Node32 -->
<g id="edge39" class="edge">
<title>Node28&#45;&gt;Node32</title>
<path fill="none" stroke="midnightblue" d="M693.26,-336.08C700.04,-328.3 710.04,-316.8 718.26,-307.37"/>
<polygon fill="midnightblue" stroke="midnightblue" points="720.96,-309.59 724.88,-299.75 715.68,-305 720.96,-309.59"/>
</g>
<!-- Node29&#45;&gt;Node11 -->
<g id="edge36" class="edge">
<title>Node29&#45;&gt;Node11</title>
<path fill="none" stroke="midnightblue" d="M972.52,-280.43C995.17,-273.64 1023.54,-262.21 1043.5,-244 1074.99,-215.27 1093.77,-167.4 1102.2,-141.31"/>
<polygon fill="midnightblue" stroke="midnightblue" points="1105.59,-142.17 1105.18,-131.58 1098.9,-140.12 1105.59,-142.17"/>
</g>
<!-- Node29&#45;&gt;Node12 -->
<g id="edge35" class="edge">
<title>Node29&#45;&gt;Node12</title>
<path fill="none" stroke="midnightblue" d="M974.87,-280.47C1001.81,-273.44 1037.57,-261.73 1065.5,-244 1110.93,-215.16 1151.82,-165.55 1171.37,-139.73"/>
<polygon fill="midnightblue" stroke="midnightblue" points="1174.21,-141.77 1177.36,-131.66 1168.59,-137.6 1174.21,-141.77"/>
</g>
<!-- Node29&#45;&gt;Node24 -->
<g id="edge37" class="edge">
<title>Node29&#45;&gt;Node24</title>
<path fill="none" stroke="midnightblue" d="M911.73,-280.44C886.61,-271.4 846.79,-257.06 818.6,-246.92"/>
<polygon fill="midnightblue" stroke="midnightblue" points="819.75,-243.61 809.16,-243.52 817.38,-250.2 819.75,-243.61"/>
</g>
<!-- Node30 -->
<g id="node29" class="node">
<title>Node30</title>
<g id="a_node29"><a xlink:title=" ">
<polygon fill="white" stroke="#bfbfbf" points="840.5,-224.5 840.5,-243.5 884.5,-243.5 884.5,-224.5 840.5,-224.5"/>
<text text-anchor="middle" x="862.5" y="-231.5" font-family="Helvetica,sans-Serif" font-size="10.00">string</text>
</a>
</g>
</g>
<!-- Node29&#45;&gt;Node30 -->
<g id="edge34" class="edge">
<title>Node29&#45;&gt;Node30</title>
<path fill="none" stroke="midnightblue" d="M923.77,-280.32C912.66,-272.11 895.76,-259.6 882.52,-249.81"/>
<polygon fill="midnightblue" stroke="midnightblue" points="884.56,-246.97 874.44,-243.83 880.4,-252.59 884.56,-246.97"/>
</g>
<!-- Node31 -->
<g id="node30" class="node">
<title>Node31</title>
<g id="a_node30"><a xlink:title=" ">
<polygon fill="white" stroke="#bfbfbf" points="902.5,-224.5 902.5,-243.5 1034.5,-243.5 1034.5,-224.5 902.5,-224.5"/>
<text text-anchor="middle" x="968.5" y="-231.5" font-family="Helvetica,sans-Serif" font-size="10.00">impl/MackeyFunctor.ipp</text>
</a>
</g>
</g>
<!-- Node29&#45;&gt;Node31 -->
<g id="edge38" class="edge">
<title>Node29&#45;&gt;Node31</title>
<path fill="none" stroke="midnightblue" d="M940.95,-280.08C945.51,-272.61 952.17,-261.72 957.79,-252.52"/>
<polygon fill="midnightblue" stroke="midnightblue" points="960.92,-254.11 963.15,-243.75 954.95,-250.46 960.92,-254.11"/>
</g>
<!-- Node33&#45;&gt;Node4 -->
<g id="edge41" class="edge">
<title>Node33&#45;&gt;Node4</title>
<path fill="none" stroke="midnightblue" d="M470.67,-225.78C555.58,-217.28 699.78,-202.49 823.5,-188 825.22,-187.8 826.95,-187.59 828.71,-187.38"/>
<polygon fill="midnightblue" stroke="midnightblue" points="829.37,-190.83 838.87,-186.15 828.52,-183.88 829.37,-190.83"/>
</g>
<!-- Node33&#45;&gt;Node19 -->
<g id="edge42" class="edge">
<title>Node33&#45;&gt;Node19</title>
<path fill="none" stroke="midnightblue" d="M375.63,-224.44C352.72,-215.48 316.52,-201.31 290.63,-191.18"/>
<polygon fill="midnightblue" stroke="midnightblue" points="291.85,-187.9 281.26,-187.52 289.3,-194.42 291.85,-187.9"/>
</g>
<!-- Node34 -->
<g id="node33" class="node">
<title>Node34</title>
<g id="a_node33"><a xlink:href="ChangeBasis_8hpp.html" target="_top" xlink:title="Contains the construction of the change of basis matrices.">
<polygon fill="white" stroke="black" points="455,-168.5 455,-187.5 556,-187.5 556,-168.5 455,-168.5"/>
<text text-anchor="middle" x="505.5" y="-175.5" font-family="Helvetica,sans-Serif" font-size="10.00">ChangeBasis.hpp</text>
</a>
</g>
</g>
<!-- Node33&#45;&gt;Node34 -->
<g id="edge43" class="edge">
<title>Node33&#45;&gt;Node34</title>
<path fill="none" stroke="midnightblue" d="M414.85,-224.32C432.17,-215.66 459.02,-202.24 479,-192.25"/>
<polygon fill="midnightblue" stroke="midnightblue" points="480.81,-195.26 488.19,-187.65 477.68,-189 480.81,-195.26"/>
</g>
<!-- Node39 -->
<g id="node38" class="node">
<title>Node39</title>
<g id="a_node38"><a xlink:title=" ">
<polygon fill="white" stroke="#bfbfbf" points="358.5,-168.5 358.5,-187.5 436.5,-187.5 436.5,-168.5 358.5,-168.5"/>
<text text-anchor="middle" x="397.5" y="-175.5" font-family="Helvetica,sans-Serif" font-size="10.00">impl/Box.ipp</text>
</a>
</g>
</g>
<!-- Node33&#45;&gt;Node39 -->
<g id="edge49" class="edge">
<title>Node33&#45;&gt;Node39</title>
<path fill="none" stroke="midnightblue" d="M397.5,-224.08C397.5,-217.01 397.5,-206.86 397.5,-197.99"/>
<polygon fill="midnightblue" stroke="midnightblue" points="401,-197.75 397.5,-187.75 394,-197.75 401,-197.75"/>
</g>
<!-- Node34&#45;&gt;Node5 -->
<g id="edge44" class="edge">
<title>Node34&#45;&gt;Node5</title>
<path fill="none" stroke="midnightblue" d="M535.29,-168.44C569.21,-158.7 624.51,-142.82 659.93,-132.64"/>
<polygon fill="midnightblue" stroke="midnightblue" points="661.16,-135.93 669.8,-129.81 659.23,-129.2 661.16,-135.93"/>
</g>
<!-- Node35 -->
<g id="node34" class="node">
<title>Node35</title>
<g id="a_node34"><a xlink:title=" ">
<polygon fill="white" stroke="#bfbfbf" points="331.5,-112.5 331.5,-131.5 369.5,-131.5 369.5,-112.5 331.5,-112.5"/>
<text text-anchor="middle" x="350.5" y="-119.5" font-family="Helvetica,sans-Serif" font-size="10.00">map</text>
</a>
</g>
</g>
<!-- Node34&#45;&gt;Node35 -->
<g id="edge45" class="edge">
<title>Node34&#45;&gt;Node35</title>
<path fill="none" stroke="midnightblue" d="M480.94,-168.44C453.3,-158.81 408.44,-143.19 379.21,-133"/>
<polygon fill="midnightblue" stroke="midnightblue" points="380.17,-129.63 369.57,-129.64 377.86,-136.24 380.17,-129.63"/>
</g>
<!-- Node36 -->
<g id="node35" class="node">
<title>Node36</title>
<g id="a_node35"><a xlink:title=" ">
<polygon fill="white" stroke="#bfbfbf" points="387.5,-112.5 387.5,-131.5 451.5,-131.5 451.5,-112.5 387.5,-112.5"/>
<text text-anchor="middle" x="419.5" y="-119.5" font-family="Helvetica,sans-Serif" font-size="10.00">algorithm</text>
</a>
</g>
</g>
<!-- Node34&#45;&gt;Node36 -->
<g id="edge46" class="edge">
<title>Node34&#45;&gt;Node36</title>
<path fill="none" stroke="midnightblue" d="M491.68,-168.32C478.27,-159.9 457.68,-146.97 441.91,-137.07"/>
<polygon fill="midnightblue" stroke="midnightblue" points="443.61,-134.01 433.28,-131.65 439.89,-139.94 443.61,-134.01"/>
</g>
<!-- Node37 -->
<g id="node36" class="node">
<title>Node37</title>
<g id="a_node36"><a xlink:title=" ">
<polygon fill="white" stroke="#bfbfbf" points="469.5,-112.5 469.5,-131.5 511.5,-131.5 511.5,-112.5 469.5,-112.5"/>
<text text-anchor="middle" x="490.5" y="-119.5" font-family="Helvetica,sans-Serif" font-size="10.00">array</text>
</a>
</g>
</g>
<!-- Node34&#45;&gt;Node37 -->
<g id="edge47" class="edge">
<title>Node34&#45;&gt;Node37</title>
<path fill="none" stroke="midnightblue" d="M503.02,-168.08C501.01,-160.85 498.11,-150.41 495.61,-141.4"/>
<polygon fill="midnightblue" stroke="midnightblue" points="498.98,-140.45 492.93,-131.75 492.24,-142.32 498.98,-140.45"/>
</g>
<!-- Node38 -->
<g id="node37" class="node">
<title>Node38</title>
<g id="a_node37"><a xlink:title=" ">
<polygon fill="white" stroke="#bfbfbf" points="529.5,-112.5 529.5,-131.5 651.5,-131.5 651.5,-112.5 529.5,-112.5"/>
<text text-anchor="middle" x="590.5" y="-119.5" font-family="Helvetica,sans-Serif" font-size="10.00">impl/ChangeBasis.ipp</text>
</a>
</g>
</g>
<!-- Node34&#45;&gt;Node38 -->
<g id="edge48" class="edge">
<title>Node34&#45;&gt;Node38</title>
<path fill="none" stroke="midnightblue" d="M519.16,-168.32C532.42,-159.9 552.77,-146.97 568.35,-137.07"/>
<polygon fill="midnightblue" stroke="midnightblue" points="570.31,-139.97 576.88,-131.65 566.56,-134.06 570.31,-139.97"/>
</g>
<!-- Node42&#45;&gt;Node8 -->
<g id="edge54" class="edge">
<title>Node42&#45;&gt;Node8</title>
<path fill="none" stroke="midnightblue" d="M151.92,-224.43C138.54,-202.73 107.82,-144.98 136.5,-112 170.98,-72.35 326,-66.6 407.33,-66.39"/>
<polygon fill="midnightblue" stroke="midnightblue" points="407.34,-69.89 417.34,-66.39 407.34,-62.89 407.34,-69.89"/>
</g>
<!-- Node42&#45;&gt;Node19 -->
<g id="edge53" class="edge">
<title>Node42&#45;&gt;Node19</title>
<path fill="none" stroke="midnightblue" d="M173.89,-224.32C190.17,-215.7 215.37,-202.36 234.22,-192.39"/>
<polygon fill="midnightblue" stroke="midnightblue" points="235.95,-195.43 243.15,-187.65 232.68,-189.24 235.95,-195.43"/>
</g>
<!-- Node43 -->
<g id="node42" class="node">
<title>Node43</title>
<g id="a_node42"><a xlink:title=" ">
<polygon fill="white" stroke="#bfbfbf" points="0,-168.5 0,-187.5 89,-187.5 89,-168.5 0,-168.5"/>
<text text-anchor="middle" x="44.5" y="-175.5" font-family="Helvetica,sans-Serif" font-size="10.00">impl/Morse.ipp</text>
</a>
</g>
</g>
<!-- Node42&#45;&gt;Node43 -->
<g id="edge55" class="edge">
<title>Node42&#45;&gt;Node43</title>
<path fill="none" stroke="midnightblue" d="M139.59,-224.44C121.25,-215.68 92.49,-201.94 71.41,-191.86"/>
<polygon fill="midnightblue" stroke="midnightblue" points="72.85,-188.67 62.32,-187.52 69.83,-194.99 72.85,-188.67"/>
</g>
<!-- Node46&#45;&gt;Node5 -->
<g id="edge59" class="edge">
<title>Node46&#45;&gt;Node5</title>
<path fill="none" stroke="midnightblue" d="M917.33,-564.55C887.5,-559.35 851.01,-548.14 827.5,-524 806.5,-502.44 808.5,-489.1 808.5,-459 808.5,-459 808.5,-459 808.5,-345 808.5,-314.77 806.01,-304.64 788.5,-280 772.85,-257.97 755.86,-265.51 739.5,-244 715.55,-212.51 702.79,-167.11 697.15,-141.82"/>
<polygon fill="midnightblue" stroke="midnightblue" points="700.52,-140.82 695.05,-131.74 693.66,-142.25 700.52,-140.82"/>
</g>
<!-- Node47 -->
<g id="node46" class="node">
<title>Node47</title>
<g id="a_node46"><a xlink:title=" ">
<polygon fill="white" stroke="#bfbfbf" points="944,-504.5 944,-523.5 991,-523.5 991,-504.5 944,-504.5"/>
<text text-anchor="middle" x="967.5" y="-511.5" font-family="Helvetica,sans-Serif" font-size="10.00">queue</text>
</a>
</g>
</g>
<!-- Node46&#45;&gt;Node47 -->
<g id="edge60" class="edge">
<title>Node46&#45;&gt;Node47</title>
<path fill="none" stroke="midnightblue" d="M967.5,-560.08C967.5,-553.01 967.5,-542.86 967.5,-533.99"/>
<polygon fill="midnightblue" stroke="midnightblue" points="971,-533.75 967.5,-523.75 964,-533.75 971,-533.75"/>
</g>
<!-- Node46&#45;&gt;Node48 -->
<g id="edge61" class="edge">
<title>Node46&#45;&gt;Node48</title>
<path fill="none" stroke="midnightblue" d="M988.42,-560.44C1011.55,-550.98 1048.82,-535.73 1073.74,-525.54"/>
<polygon fill="midnightblue" stroke="midnightblue" points="1075.33,-528.67 1083.26,-521.64 1072.68,-522.19 1075.33,-528.67"/>
</g>
<!-- Node49 -->
<g id="node48" class="node">
<title>Node49</title>
<g id="a_node48"><a xlink:title=" ">
<polygon fill="white" stroke="#bfbfbf" points="1009.5,-504.5 1009.5,-523.5 1065.5,-523.5 1065.5,-504.5 1009.5,-504.5"/>
<text text-anchor="middle" x="1037.5" y="-511.5" font-family="Helvetica,sans-Serif" font-size="10.00">iomanip</text>
</a>
</g>
</g>
<!-- Node46&#45;&gt;Node49 -->
<g id="edge62" class="edge">
<title>Node46&#45;&gt;Node49</title>
<path fill="none" stroke="midnightblue" d="M978.75,-560.32C989.3,-552.18 1005.3,-539.84 1017.94,-530.09"/>
<polygon fill="midnightblue" stroke="midnightblue" points="1020.27,-532.71 1026.05,-523.83 1015.99,-527.17 1020.27,-532.71"/>
</g>
<!-- Node50 -->
<g id="node49" class="node">
<title>Node50</title>
<g id="a_node49"><a xlink:title=" ">
<polygon fill="white" stroke="#bfbfbf" points="837,-504.5 837,-523.5 926,-523.5 926,-504.5 837,-504.5"/>
<text text-anchor="middle" x="881.5" y="-511.5" font-family="Helvetica,sans-Serif" font-size="10.00">impl/Graph.ipp</text>
</a>
</g>
</g>
<!-- Node46&#45;&gt;Node50 -->
<g id="edge63" class="edge">
<title>Node46&#45;&gt;Node50</title>
<path fill="none" stroke="midnightblue" d="M953.68,-560.32C940.27,-551.9 919.68,-538.97 903.91,-529.07"/>
<polygon fill="midnightblue" stroke="midnightblue" points="905.61,-526.01 895.28,-523.65 901.89,-531.94 905.61,-526.01"/>
</g>
</g>
</svg>
