<?xml version="1.0" encoding="UTF-8" standalone="no"?>
<!DOCTYPE svg PUBLIC "-//W3C//DTD SVG 1.1//EN"
 "http://www.w3.org/Graphics/SVG/1.1/DTD/svg11.dtd">
<!-- Generated by graphviz version 2.43.0 (0)
 -->
<!-- Title: OpenMP_Macros.hpp Pages: 1 -->
<svg width="341pt" height="308pt"
 viewBox="0.00 0.00 341.00 308.00" xmlns="http://www.w3.org/2000/svg" xmlns:xlink="http://www.w3.org/1999/xlink">
<g id="graph0" class="graph" transform="scale(1 1) rotate(0) translate(4 304)">
<title>OpenMP_Macros.hpp</title>
<polygon fill="white" stroke="transparent" points="-4,4 -4,-304 337,-304 337,4 -4,4"/>
<!-- Node1 -->
<g id="node1" class="node">
<title>Node1</title>
<g id="a_node1"><a xlink:title="Contains open MP macros if multithreading is desired in this library.">
<polygon fill="#bfbfbf" stroke="black" points="0,-280.5 0,-299.5 119,-299.5 119,-280.5 0,-280.5"/>
<text text-anchor="middle" x="59.5" y="-287.5" font-family="Helvetica,sans-Serif" font-size="10.00">OpenMP_Macros.hpp</text>
</a>
</g>
</g>
<!-- Node2 -->
<g id="node2" class="node">
<title>Node2</title>
<g id="a_node2"><a xlink:href="Mult__Table_8hpp.html" target="_top" xlink:title="Contains the classes mackey::MultTableData and mackey::MultTable that form the multiplication table.">
<polygon fill="white" stroke="black" points="53.5,-224.5 53.5,-243.5 143.5,-243.5 143.5,-224.5 53.5,-224.5"/>
<text text-anchor="middle" x="98.5" y="-231.5" font-family="Helvetica,sans-Serif" font-size="10.00">Mult_Table.hpp</text>
</a>
</g>
</g>
<!-- Node1&#45;&gt;Node2 -->
<g id="edge1" class="edge">
<title>Node1&#45;&gt;Node2</title>
<path fill="none" stroke="midnightblue" d="M71.88,-271.86C78.64,-262.5 86.71,-251.33 92.18,-243.75"/>
<polygon fill="midnightblue" stroke="midnightblue" points="68.96,-269.93 65.94,-280.08 74.63,-274.03 68.96,-269.93"/>
</g>
<!-- Node9 -->
<g id="node9" class="node">
<title>Node9</title>
<g id="a_node9"><a xlink:href="Additive_8hpp.html" target="_top" xlink:title="Contains the class for presenting the additive structure of the RO(G) homology.">
<polygon fill="white" stroke="black" points="8.5,-56.5 8.5,-75.5 86.5,-75.5 86.5,-56.5 8.5,-56.5"/>
<text text-anchor="middle" x="47.5" y="-63.5" font-family="Helvetica,sans-Serif" font-size="10.00">Additive.hpp</text>
</a>
</g>
</g>
<!-- Node1&#45;&gt;Node9 -->
<g id="edge10" class="edge">
<title>Node1&#45;&gt;Node9</title>
<path fill="none" stroke="midnightblue" d="M52.02,-270.77C49.08,-262.71 46.05,-253.03 44.5,-244 33.54,-180.08 42.69,-101.29 46.24,-75.56"/>
<polygon fill="midnightblue" stroke="midnightblue" points="48.81,-272.18 55.69,-280.24 55.34,-269.65 48.81,-272.18"/>
</g>
<!-- Node3 -->
<g id="node3" class="node">
<title>Node3</title>
<g id="a_node3"><a xlink:href="Mult__Graph_8hpp.html" target="_top" xlink:title="Contains the multiplication graph.">
<polygon fill="white" stroke="black" points="93.5,-168.5 93.5,-187.5 187.5,-187.5 187.5,-168.5 93.5,-168.5"/>
<text text-anchor="middle" x="140.5" y="-175.5" font-family="Helvetica,sans-Serif" font-size="10.00">Mult_Graph.hpp</text>
</a>
</g>
</g>
<!-- Node2&#45;&gt;Node3 -->
<g id="edge2" class="edge">
<title>Node2&#45;&gt;Node3</title>
<path fill="none" stroke="midnightblue" d="M111.61,-216.14C118.93,-206.74 127.74,-195.4 133.69,-187.75"/>
<polygon fill="midnightblue" stroke="midnightblue" points="108.81,-214.04 105.44,-224.08 114.34,-218.34 108.81,-214.04"/>
</g>
<!-- Node4 -->
<g id="node4" class="node">
<title>Node4</title>
<g id="a_node4"><a xlink:href="Factorization_8hpp.html" target="_top" xlink:title="Contains the multiplication graph and the methods for factorizing generators.">
<polygon fill="white" stroke="black" points="104.5,-56.5 104.5,-75.5 204.5,-75.5 204.5,-56.5 104.5,-56.5"/>
<text text-anchor="middle" x="154.5" y="-63.5" font-family="Helvetica,sans-Serif" font-size="10.00">Factorization.hpp</text>
</a>
</g>
</g>
<!-- Node3&#45;&gt;Node4 -->
<g id="edge3" class="edge">
<title>Node3&#45;&gt;Node4</title>
<path fill="none" stroke="midnightblue" d="M150.43,-159.3C154.4,-151.24 158.5,-141.41 160.5,-132 164.73,-112.05 160.05,-88.02 156.89,-75.51"/>
<polygon fill="midnightblue" stroke="midnightblue" points="147.19,-157.93 145.63,-168.41 153.39,-161.19 147.19,-157.93"/>
</g>
<!-- Node7 -->
<g id="node7" class="node">
<title>Node7</title>
<g id="a_node7"><a xlink:href="Mult__Connectivity_8hpp.html" target="_top" xlink:title="Contains methods for the finding the connectivity of the multiplication graph should identification f...">
<polygon fill="white" stroke="black" points="208,-112.5 208,-131.5 333,-131.5 333,-112.5 208,-112.5"/>
<text text-anchor="middle" x="270.5" y="-119.5" font-family="Helvetica,sans-Serif" font-size="10.00">Mult_Connectivity.hpp</text>
</a>
</g>
</g>
<!-- Node3&#45;&gt;Node7 -->
<g id="edge6" class="edge">
<title>Node3&#45;&gt;Node7</title>
<path fill="none" stroke="midnightblue" d="M170.59,-164.5C194.96,-154.38 228.64,-140.39 250,-131.52"/>
<polygon fill="midnightblue" stroke="midnightblue" points="168.99,-161.38 161.1,-168.44 171.68,-167.84 168.99,-161.38"/>
</g>
<!-- Node8 -->
<g id="node8" class="node">
<title>Node8</title>
<g id="a_node8"><a xlink:href="Mult__Identify_8hpp.html" target="_top" xlink:title="Contains extra identification methods for the multiplication graph.">
<polygon fill="white" stroke="black" points="51.5,-112.5 51.5,-131.5 151.5,-131.5 151.5,-112.5 51.5,-112.5"/>
<text text-anchor="middle" x="101.5" y="-119.5" font-family="Helvetica,sans-Serif" font-size="10.00">Mult_Identify.hpp</text>
</a>
</g>
</g>
<!-- Node3&#45;&gt;Node8 -->
<g id="edge8" class="edge">
<title>Node3&#45;&gt;Node8</title>
<path fill="none" stroke="midnightblue" d="M128.12,-159.86C121.36,-150.5 113.29,-139.33 107.82,-131.75"/>
<polygon fill="midnightblue" stroke="midnightblue" points="125.37,-162.03 134.06,-168.08 131.04,-157.93 125.37,-162.03"/>
</g>
<!-- Node5 -->
<g id="node5" class="node">
<title>Node5</title>
<g id="a_node5"><a xlink:href="Mackey_8hpp.html" target="_top" xlink:title="Includes the entire library.">
<polygon fill="white" stroke="black" points="117.5,-0.5 117.5,-19.5 191.5,-19.5 191.5,-0.5 117.5,-0.5"/>
<text text-anchor="middle" x="154.5" y="-7.5" font-family="Helvetica,sans-Serif" font-size="10.00">Mackey.hpp</text>
</a>
</g>
</g>
<!-- Node4&#45;&gt;Node5 -->
<g id="edge4" class="edge">
<title>Node4&#45;&gt;Node5</title>
<path fill="none" stroke="midnightblue" d="M154.5,-45.8C154.5,-36.91 154.5,-26.78 154.5,-19.75"/>
<polygon fill="midnightblue" stroke="midnightblue" points="151,-46.08 154.5,-56.08 158,-46.08 151,-46.08"/>
</g>
<!-- Node6 -->
<g id="node6" class="node">
<title>Node6</title>
<g id="a_node6"><a xlink:href="Cerealizer_8hpp.html" target="_top" xlink:title="Contains the methods for serializing the results of our computations (before their interpretation) vi...">
<polygon fill="white" stroke="black" points="9.5,-0.5 9.5,-19.5 95.5,-19.5 95.5,-0.5 9.5,-0.5"/>
<text text-anchor="middle" x="52.5" y="-7.5" font-family="Helvetica,sans-Serif" font-size="10.00">Cerealizer.hpp</text>
</a>
</g>
</g>
<!-- Node4&#45;&gt;Node6 -->
<g id="edge5" class="edge">
<title>Node4&#45;&gt;Node6</title>
<path fill="none" stroke="midnightblue" d="M129.17,-51.59C110.31,-41.61 85.12,-28.27 68.85,-19.65"/>
<polygon fill="midnightblue" stroke="midnightblue" points="127.64,-54.74 138.11,-56.32 130.91,-48.55 127.64,-54.74"/>
</g>
<!-- Node7&#45;&gt;Node5 -->
<g id="edge7" class="edge">
<title>Node7&#45;&gt;Node5</title>
<path fill="none" stroke="midnightblue" d="M257.22,-104.06C246.17,-90.43 229.7,-71.13 213.5,-56 198.62,-42.11 179.64,-28.22 167.28,-19.63"/>
<polygon fill="midnightblue" stroke="midnightblue" points="254.66,-106.46 263.63,-112.09 260.13,-102.09 254.66,-106.46"/>
</g>
<!-- Node8&#45;&gt;Node4 -->
<g id="edge9" class="edge">
<title>Node8&#45;&gt;Node4</title>
<path fill="none" stroke="midnightblue" d="M117.48,-104.72C126.82,-95.2 138.25,-83.56 145.91,-75.75"/>
<polygon fill="midnightblue" stroke="midnightblue" points="114.76,-102.49 110.25,-112.08 119.75,-107.4 114.76,-102.49"/>
</g>
<!-- Node9&#45;&gt;Node5 -->
<g id="edge11" class="edge">
<title>Node9&#45;&gt;Node5</title>
<path fill="none" stroke="midnightblue" d="M73.8,-51.73C93.61,-41.73 120.21,-28.31 137.35,-19.65"/>
<polygon fill="midnightblue" stroke="midnightblue" points="72.04,-48.69 64.69,-56.32 75.2,-54.94 72.04,-48.69"/>
</g>
<!-- Node9&#45;&gt;Node6 -->
<g id="edge12" class="edge">
<title>Node9&#45;&gt;Node6</title>
<path fill="none" stroke="midnightblue" d="M49.25,-46.1C50.08,-37.14 51.03,-26.86 51.69,-19.75"/>
<polygon fill="midnightblue" stroke="midnightblue" points="45.76,-45.8 48.33,-56.08 52.73,-46.45 45.76,-45.8"/>
</g>
</g>
</svg>
