<?xml version="1.0" encoding="UTF-8" standalone="no"?>
<!DOCTYPE svg PUBLIC "-//W3C//DTD SVG 1.1//EN"
 "http://www.w3.org/Graphics/SVG/1.1/DTD/svg11.dtd">
<!-- Generated by graphviz version 2.43.0 (0)
 -->
<!-- Title: OpenMP_Macros.hpp Pages: 1 -->
<svg width="348pt" height="252pt"
 viewBox="0.00 0.00 347.50 252.00" xmlns="http://www.w3.org/2000/svg" xmlns:xlink="http://www.w3.org/1999/xlink">
<g id="graph0" class="graph" transform="scale(1 1) rotate(0) translate(4 248)">
<title>OpenMP_Macros.hpp</title>
<polygon fill="white" stroke="transparent" points="-4,4 -4,-248 343.5,-248 343.5,4 -4,4"/>
<!-- Node1 -->
<g id="node1" class="node">
<title>Node1</title>
<g id="a_node1"><a xlink:title="Contains open MP macros if multithreading is desired in this library.">
<polygon fill="#bfbfbf" stroke="black" points="187,-224.5 187,-243.5 306,-243.5 306,-224.5 187,-224.5"/>
<text text-anchor="middle" x="246.5" y="-231.5" font-family="Helvetica,sans-Serif" font-size="10.00">OpenMP_Macros.hpp</text>
</a>
</g>
</g>
<!-- Node2 -->
<g id="node2" class="node">
<title>Node2</title>
<g id="a_node2"><a xlink:href="Mult__Table_8hpp.html" target="_top" xlink:title="Contains the class and methods to form the multiplication table.">
<polygon fill="white" stroke="black" points="165.5,-168.5 165.5,-187.5 255.5,-187.5 255.5,-168.5 165.5,-168.5"/>
<text text-anchor="middle" x="210.5" y="-175.5" font-family="Helvetica,sans-Serif" font-size="10.00">Mult_Table.hpp</text>
</a>
</g>
</g>
<!-- Node1&#45;&gt;Node2 -->
<g id="edge1" class="edge">
<title>Node1&#45;&gt;Node2</title>
<path fill="none" stroke="midnightblue" d="M234.88,-215.57C228.68,-206.27 221.33,-195.25 216.33,-187.75"/>
<polygon fill="midnightblue" stroke="midnightblue" points="232.1,-217.7 240.56,-224.08 237.92,-213.82 232.1,-217.7"/>
</g>
<!-- Node8 -->
<g id="node8" class="node">
<title>Node8</title>
<g id="a_node8"><a xlink:href="Additive_8hpp.html" target="_top" xlink:title="Contains the class for presenting the additive structure of the RO(G) homology.">
<polygon fill="white" stroke="black" points="261.5,-56.5 261.5,-75.5 339.5,-75.5 339.5,-56.5 261.5,-56.5"/>
<text text-anchor="middle" x="300.5" y="-63.5" font-family="Helvetica,sans-Serif" font-size="10.00">Additive.hpp</text>
</a>
</g>
</g>
<!-- Node1&#45;&gt;Node8 -->
<g id="edge8" class="edge">
<title>Node1&#45;&gt;Node8</title>
<path fill="none" stroke="midnightblue" d="M254.07,-215.17C257.44,-206.96 261.35,-197.05 264.5,-188 278.98,-146.39 292.91,-95.53 298.23,-75.59"/>
<polygon fill="midnightblue" stroke="midnightblue" points="250.81,-213.88 250.19,-224.46 257.27,-216.58 250.81,-213.88"/>
</g>
<!-- Node3 -->
<g id="node3" class="node">
<title>Node3</title>
<g id="a_node3"><a xlink:href="Mult__Graph_8hpp.html" target="_top" xlink:title="Contains the multiplication graph.">
<polygon fill="white" stroke="black" points="146.5,-112.5 146.5,-131.5 240.5,-131.5 240.5,-112.5 146.5,-112.5"/>
<text text-anchor="middle" x="193.5" y="-119.5" font-family="Helvetica,sans-Serif" font-size="10.00">Mult_Graph.hpp</text>
</a>
</g>
</g>
<!-- Node2&#45;&gt;Node3 -->
<g id="edge2" class="edge">
<title>Node2&#45;&gt;Node3</title>
<path fill="none" stroke="midnightblue" d="M204.64,-158.4C201.8,-149.36 198.52,-138.94 196.25,-131.75"/>
<polygon fill="midnightblue" stroke="midnightblue" points="201.35,-159.6 207.69,-168.08 208.03,-157.49 201.35,-159.6"/>
</g>
<!-- Node4 -->
<g id="node4" class="node">
<title>Node4</title>
<g id="a_node4"><a xlink:href="Factorization_8hpp.html" target="_top" xlink:title="Contains the multiplication graph and the methods for factorizing generators.">
<polygon fill="white" stroke="black" points="143.5,-56.5 143.5,-75.5 243.5,-75.5 243.5,-56.5 143.5,-56.5"/>
<text text-anchor="middle" x="193.5" y="-63.5" font-family="Helvetica,sans-Serif" font-size="10.00">Factorization.hpp</text>
</a>
</g>
</g>
<!-- Node3&#45;&gt;Node4 -->
<g id="edge3" class="edge">
<title>Node3&#45;&gt;Node4</title>
<path fill="none" stroke="midnightblue" d="M193.5,-101.8C193.5,-92.91 193.5,-82.78 193.5,-75.75"/>
<polygon fill="midnightblue" stroke="midnightblue" points="190,-102.08 193.5,-112.08 197,-102.08 190,-102.08"/>
</g>
<!-- Node7 -->
<g id="node7" class="node">
<title>Node7</title>
<g id="a_node7"><a xlink:href="Mult__Connectivity_8hpp.html" target="_top" xlink:title="Contains methods for the finding the connectivity of the multiplication graph should identification f...">
<polygon fill="white" stroke="black" points="0,-56.5 0,-75.5 125,-75.5 125,-56.5 0,-56.5"/>
<text text-anchor="middle" x="62.5" y="-63.5" font-family="Helvetica,sans-Serif" font-size="10.00">Mult_Connectivity.hpp</text>
</a>
</g>
</g>
<!-- Node3&#45;&gt;Node7 -->
<g id="edge6" class="edge">
<title>Node3&#45;&gt;Node7</title>
<path fill="none" stroke="midnightblue" d="M163.18,-108.5C138.62,-98.38 104.68,-84.39 83.16,-75.52"/>
<polygon fill="midnightblue" stroke="midnightblue" points="162.16,-111.87 172.74,-112.44 164.83,-105.4 162.16,-111.87"/>
</g>
<!-- Node5 -->
<g id="node5" class="node">
<title>Node5</title>
<g id="a_node5"><a xlink:href="Mackey_8hpp.html" target="_top" xlink:title="Includes the entire library.">
<polygon fill="white" stroke="black" points="156.5,-0.5 156.5,-19.5 230.5,-19.5 230.5,-0.5 156.5,-0.5"/>
<text text-anchor="middle" x="193.5" y="-7.5" font-family="Helvetica,sans-Serif" font-size="10.00">Mackey.hpp</text>
</a>
</g>
</g>
<!-- Node4&#45;&gt;Node5 -->
<g id="edge4" class="edge">
<title>Node4&#45;&gt;Node5</title>
<path fill="none" stroke="midnightblue" d="M193.5,-45.8C193.5,-36.91 193.5,-26.78 193.5,-19.75"/>
<polygon fill="midnightblue" stroke="midnightblue" points="190,-46.08 193.5,-56.08 197,-46.08 190,-46.08"/>
</g>
<!-- Node6 -->
<g id="node6" class="node">
<title>Node6</title>
<g id="a_node6"><a xlink:href="Cerealizer_8hpp.html" target="_top" xlink:title="Contains the methods for serializing the results of our computations (before their interpretation) vi...">
<polygon fill="white" stroke="black" points="252.5,-0.5 252.5,-19.5 338.5,-19.5 338.5,-0.5 252.5,-0.5"/>
<text text-anchor="middle" x="295.5" y="-7.5" font-family="Helvetica,sans-Serif" font-size="10.00">Cerealizer.hpp</text>
</a>
</g>
</g>
<!-- Node4&#45;&gt;Node6 -->
<g id="edge5" class="edge">
<title>Node4&#45;&gt;Node6</title>
<path fill="none" stroke="midnightblue" d="M218.83,-51.59C237.69,-41.61 262.88,-28.27 279.15,-19.65"/>
<polygon fill="midnightblue" stroke="midnightblue" points="217.09,-48.55 209.89,-56.32 220.36,-54.74 217.09,-48.55"/>
</g>
<!-- Node7&#45;&gt;Node5 -->
<g id="edge7" class="edge">
<title>Node7&#45;&gt;Node5</title>
<path fill="none" stroke="midnightblue" d="M92.82,-52.5C117.38,-42.38 151.32,-28.39 172.84,-19.52"/>
<polygon fill="midnightblue" stroke="midnightblue" points="91.17,-49.4 83.26,-56.44 93.84,-55.87 91.17,-49.4"/>
</g>
<!-- Node8&#45;&gt;Node5 -->
<g id="edge9" class="edge">
<title>Node8&#45;&gt;Node5</title>
<path fill="none" stroke="midnightblue" d="M274.2,-51.73C254.39,-41.73 227.79,-28.31 210.65,-19.65"/>
<polygon fill="midnightblue" stroke="midnightblue" points="272.8,-54.94 283.31,-56.32 275.96,-48.69 272.8,-54.94"/>
</g>
<!-- Node8&#45;&gt;Node6 -->
<g id="edge10" class="edge">
<title>Node8&#45;&gt;Node6</title>
<path fill="none" stroke="midnightblue" d="M298.75,-46.1C297.92,-37.14 296.97,-26.86 296.31,-19.75"/>
<polygon fill="midnightblue" stroke="midnightblue" points="295.27,-46.45 299.67,-56.08 302.24,-45.8 295.27,-46.45"/>
</g>
</g>
</svg>
