<?xml version="1.0" encoding="UTF-8" standalone="no"?>
<!DOCTYPE svg PUBLIC "-//W3C//DTD SVG 1.1//EN"
 "http://www.w3.org/Graphics/SVG/1.1/DTD/svg11.dtd">
<!-- Generated by graphviz version 2.43.0 (0)
 -->
<!-- Title: OpenMP_Macros.hpp Pages: 1 -->
<svg width="319pt" height="308pt"
 viewBox="0.00 0.00 318.50 308.00" xmlns="http://www.w3.org/2000/svg" xmlns:xlink="http://www.w3.org/1999/xlink">
<g id="graph0" class="graph" transform="scale(1 1) rotate(0) translate(4 304)">
<title>OpenMP_Macros.hpp</title>
<polygon fill="white" stroke="transparent" points="-4,4 -4,-304 314.5,-304 314.5,4 -4,4"/>
<!-- Node1 -->
<g id="node1" class="node">
<title>Node1</title>
<g id="a_node1"><a xlink:title="Contains open MP macros that enable and control multithreading.">
<polygon fill="#bfbfbf" stroke="black" points="173,-280.5 173,-299.5 292,-299.5 292,-280.5 173,-280.5"/>
<text text-anchor="middle" x="232.5" y="-287.5" font-family="Helvetica,sans-Serif" font-size="10.00">OpenMP_Macros.hpp</text>
</a>
</g>
</g>
<!-- Node2 -->
<g id="node2" class="node">
<title>Node2</title>
<g id="a_node2"><a xlink:href="Mult__Table_8hpp.html" target="_top" xlink:title="Contains the classes mackey::MultTableData and mackey::MultTable.">
<polygon fill="white" stroke="black" points="151.5,-224.5 151.5,-243.5 241.5,-243.5 241.5,-224.5 151.5,-224.5"/>
<text text-anchor="middle" x="196.5" y="-231.5" font-family="Helvetica,sans-Serif" font-size="10.00">Mult_Table.hpp</text>
</a>
</g>
</g>
<!-- Node1&#45;&gt;Node2 -->
<g id="edge1" class="edge">
<title>Node1&#45;&gt;Node2</title>
<path fill="none" stroke="midnightblue" d="M220.88,-271.57C214.68,-262.27 207.33,-251.25 202.33,-243.75"/>
<polygon fill="midnightblue" stroke="midnightblue" points="218.1,-273.7 226.56,-280.08 223.92,-269.82 218.1,-273.7"/>
</g>
<!-- Node9 -->
<g id="node9" class="node">
<title>Node9</title>
<g id="a_node9"><a xlink:href="Additive_8hpp.html" target="_top" xlink:title="Contains the class mackey::AdditiveStructure">
<polygon fill="white" stroke="black" points="232.5,-56.5 232.5,-75.5 310.5,-75.5 310.5,-56.5 232.5,-56.5"/>
<text text-anchor="middle" x="271.5" y="-63.5" font-family="Helvetica,sans-Serif" font-size="10.00">Additive.hpp</text>
</a>
</g>
</g>
<!-- Node1&#45;&gt;Node9 -->
<g id="edge9" class="edge">
<title>Node1&#45;&gt;Node9</title>
<path fill="none" stroke="midnightblue" d="M240.93,-271.08C244.41,-262.97 248.16,-253.17 250.5,-244 266.61,-180.73 270.43,-101.51 271.27,-75.62"/>
<polygon fill="midnightblue" stroke="midnightblue" points="237.7,-269.71 236.79,-280.27 244.09,-272.58 237.7,-269.71"/>
</g>
<!-- Node3 -->
<g id="node3" class="node">
<title>Node3</title>
<g id="a_node3"><a xlink:href="Mult__Graph_8hpp.html" target="_top" xlink:title="Contains the class mackey::MultGraph.">
<polygon fill="white" stroke="black" points="146.5,-168.5 146.5,-187.5 240.5,-187.5 240.5,-168.5 146.5,-168.5"/>
<text text-anchor="middle" x="193.5" y="-175.5" font-family="Helvetica,sans-Serif" font-size="10.00">Mult_Graph.hpp</text>
</a>
</g>
</g>
<!-- Node2&#45;&gt;Node3 -->
<g id="edge2" class="edge">
<title>Node2&#45;&gt;Node3</title>
<path fill="none" stroke="midnightblue" d="M195.43,-213.8C194.94,-204.91 194.38,-194.78 193.99,-187.75"/>
<polygon fill="midnightblue" stroke="midnightblue" points="191.96,-214.29 196,-224.08 198.94,-213.9 191.96,-214.29"/>
</g>
<!-- Node4 -->
<g id="node4" class="node">
<title>Node4</title>
<g id="a_node4"><a xlink:href="Mult__Connectivity_8hpp.html" target="_top" xlink:title="Contains the class mackey::MultConnectivity.">
<polygon fill="white" stroke="black" points="0,-112.5 0,-131.5 125,-131.5 125,-112.5 0,-112.5"/>
<text text-anchor="middle" x="62.5" y="-119.5" font-family="Helvetica,sans-Serif" font-size="10.00">Mult_Connectivity.hpp</text>
</a>
</g>
</g>
<!-- Node3&#45;&gt;Node4 -->
<g id="edge3" class="edge">
<title>Node3&#45;&gt;Node4</title>
<path fill="none" stroke="midnightblue" d="M163.18,-164.5C138.62,-154.38 104.68,-140.39 83.16,-131.52"/>
<polygon fill="midnightblue" stroke="midnightblue" points="162.16,-167.87 172.74,-168.44 164.83,-161.4 162.16,-167.87"/>
</g>
<!-- Node6 -->
<g id="node6" class="node">
<title>Node6</title>
<g id="a_node6"><a xlink:href="Mult__Identify_8hpp.html" target="_top" xlink:title="Contains the class mackey::MultIdentify.">
<polygon fill="white" stroke="black" points="143.5,-112.5 143.5,-131.5 243.5,-131.5 243.5,-112.5 143.5,-112.5"/>
<text text-anchor="middle" x="193.5" y="-119.5" font-family="Helvetica,sans-Serif" font-size="10.00">Mult_Identify.hpp</text>
</a>
</g>
</g>
<!-- Node3&#45;&gt;Node6 -->
<g id="edge5" class="edge">
<title>Node3&#45;&gt;Node6</title>
<path fill="none" stroke="midnightblue" d="M193.5,-157.8C193.5,-148.91 193.5,-138.78 193.5,-131.75"/>
<polygon fill="midnightblue" stroke="midnightblue" points="190,-158.08 193.5,-168.08 197,-158.08 190,-158.08"/>
</g>
<!-- Node5 -->
<g id="node5" class="node">
<title>Node5</title>
<g id="a_node5"><a xlink:href="Mackey_8hpp.html" target="_top" xlink:title="Includes the entire library apart from Serialization/Cerealizer.hpp.">
<polygon fill="white" stroke="black" points="127.5,-0.5 127.5,-19.5 201.5,-19.5 201.5,-0.5 127.5,-0.5"/>
<text text-anchor="middle" x="164.5" y="-7.5" font-family="Helvetica,sans-Serif" font-size="10.00">Mackey.hpp</text>
</a>
</g>
</g>
<!-- Node4&#45;&gt;Node5 -->
<g id="edge4" class="edge">
<title>Node4&#45;&gt;Node5</title>
<path fill="none" stroke="midnightblue" d="M71.95,-103.43C79.84,-89.66 91.97,-70.47 105.5,-56 119.23,-41.32 138.13,-27.82 150.81,-19.52"/>
<polygon fill="midnightblue" stroke="midnightblue" points="68.79,-101.91 66.99,-112.36 74.9,-105.32 68.79,-101.91"/>
</g>
<!-- Node7 -->
<g id="node7" class="node">
<title>Node7</title>
<g id="a_node7"><a xlink:href="Factorization_8hpp.html" target="_top" xlink:title="Contains the class mackey::Factorization.">
<polygon fill="white" stroke="black" points="114.5,-56.5 114.5,-75.5 214.5,-75.5 214.5,-56.5 114.5,-56.5"/>
<text text-anchor="middle" x="164.5" y="-63.5" font-family="Helvetica,sans-Serif" font-size="10.00">Factorization.hpp</text>
</a>
</g>
</g>
<!-- Node6&#45;&gt;Node7 -->
<g id="edge6" class="edge">
<title>Node6&#45;&gt;Node7</title>
<path fill="none" stroke="midnightblue" d="M183.82,-102.98C178.9,-93.82 173.14,-83.09 169.2,-75.75"/>
<polygon fill="midnightblue" stroke="midnightblue" points="180.9,-104.93 188.71,-112.08 187.06,-101.62 180.9,-104.93"/>
</g>
<!-- Node7&#45;&gt;Node5 -->
<g id="edge7" class="edge">
<title>Node7&#45;&gt;Node5</title>
<path fill="none" stroke="midnightblue" d="M164.5,-45.8C164.5,-36.91 164.5,-26.78 164.5,-19.75"/>
<polygon fill="midnightblue" stroke="midnightblue" points="161,-46.08 164.5,-56.08 168,-46.08 161,-46.08"/>
</g>
<!-- Node8 -->
<g id="node8" class="node">
<title>Node8</title>
<g id="a_node8"><a xlink:href="Cerealizer_8hpp.html" target="_top" xlink:title="Contains the methods for serializing the results of our computations via cereal.">
<polygon fill="white" stroke="black" points="223.5,-0.5 223.5,-19.5 309.5,-19.5 309.5,-0.5 223.5,-0.5"/>
<text text-anchor="middle" x="266.5" y="-7.5" font-family="Helvetica,sans-Serif" font-size="10.00">Cerealizer.hpp</text>
</a>
</g>
</g>
<!-- Node7&#45;&gt;Node8 -->
<g id="edge8" class="edge">
<title>Node7&#45;&gt;Node8</title>
<path fill="none" stroke="midnightblue" d="M189.83,-51.59C208.69,-41.61 233.88,-28.27 250.15,-19.65"/>
<polygon fill="midnightblue" stroke="midnightblue" points="188.09,-48.55 180.89,-56.32 191.36,-54.74 188.09,-48.55"/>
</g>
<!-- Node9&#45;&gt;Node5 -->
<g id="edge10" class="edge">
<title>Node9&#45;&gt;Node5</title>
<path fill="none" stroke="midnightblue" d="M245.2,-51.73C225.39,-41.73 198.79,-28.31 181.65,-19.65"/>
<polygon fill="midnightblue" stroke="midnightblue" points="243.8,-54.94 254.31,-56.32 246.96,-48.69 243.8,-54.94"/>
</g>
<!-- Node9&#45;&gt;Node8 -->
<g id="edge11" class="edge">
<title>Node9&#45;&gt;Node8</title>
<path fill="none" stroke="midnightblue" d="M269.75,-46.1C268.92,-37.14 267.97,-26.86 267.31,-19.75"/>
<polygon fill="midnightblue" stroke="midnightblue" points="266.27,-46.45 270.67,-56.08 273.24,-45.8 266.27,-46.45"/>
</g>
</g>
</svg>
