<?xml version="1.0" encoding="UTF-8" standalone="no"?>
<!DOCTYPE svg PUBLIC "-//W3C//DTD SVG 1.1//EN"
 "http://www.w3.org/Graphics/SVG/1.1/DTD/svg11.dtd">
<!-- Generated by graphviz version 2.43.0 (0)
 -->
<!-- Title: Point.hpp Pages: 1 -->
<!--zoomable 532 -->
<svg id="main" version="1.1" xmlns="http://www.w3.org/2000/svg" xmlns:xlink="http://www.w3.org/1999/xlink" xml:space="preserve" onload="init(evt)">
<style type="text/css"><![CDATA[
.edge:hover path { stroke: red; }
.edge:hover polygon { stroke: red; fill: red; }
]]></style>
<script type="text/javascript"><![CDATA[
var edges = document.getElementsByTagName('g');
if (edges && edges.length) {
  for (var i=0;i<edges.length;i++) {
    if (edges[i].id.substr(0,4)=='edge') {
      edges[i].setAttribute('class','edge');
    }
  }
}
]]></script>
        <defs>
                <circle id="rim" cx="0" cy="0" r="7"/>
                <circle id="rim2" cx="0" cy="0" r="3.5"/>
                <g id="zoomPlus">
                        <use xlink:href="#rim" fill="#404040">
                                <set attributeName="fill" to="#808080" begin="zoomplus.mouseover" end="zoomplus.mouseout"/>
                        </use>
                        <path d="M-4,0h8M0,-4v8" fill="none" stroke="white" stroke-width="1.5" pointer-events="none"/>
                </g>
                <g id="zoomMin">
                        <use xlink:href="#rim" fill="#404040">
                                <set attributeName="fill" to="#808080" begin="zoomminus.mouseover" end="zoomminus.mouseout"/>
                        </use>
                        <path d="M-4,0h8" fill="none" stroke="white" stroke-width="1.5" pointer-events="none"/>
                </g>
                <g id="dirArrow">
                        <path fill="none" stroke="white" stroke-width="1.5" d="M0,-3.0v7 M-2.5,-0.5L0,-3.0L2.5,-0.5"/>
                </g>
               <g id="resetDef">
                       <use xlink:href="#rim2" fill="#404040">
                               <set attributeName="fill" to="#808080" begin="reset.mouseover" end="reset.mouseout"/>
                       </use>
               </g>
        </defs>

<script type="text/javascript">
var viewWidth = 1230;
var viewHeight = 532;
var sectionId = 'dynsection-0';
</script>
<script xlink:href="svgpan.js"/>
<svg id="graph" class="graph">
<g id="viewport">
<title>Point.hpp</title>
<polygon fill="white" stroke="transparent" points="-4,4 -4,-528 1225.5,-528 1225.5,4 -4,4"/>
<!-- Node1 -->
<g id="node1" class="node">
<title>Node1</title>
<g id="a_node1"><a xlink:title="Contains the methods computing the RO(G) homology of a point.">
<polygon fill="#bfbfbf" stroke="black" points="907,-504.5 907,-523.5 969,-523.5 969,-504.5 907,-504.5"/>
<text text-anchor="middle" x="938" y="-511.5" font-family="Helvetica,sans-Serif" font-size="10.00">Point.hpp</text>
</a>
</g>
</g>
<!-- Node2 -->
<g id="node2" class="node">
<title>Node2</title>
<g id="a_node2"><a xlink:href="Massey_8hpp.html" target="_top" xlink:title="Contains the classes mackey::Massey and mackey::internal::MasseyCompute.">
<polygon fill="white" stroke="black" points="588.5,-448.5 588.5,-467.5 707.5,-467.5 707.5,-448.5 588.5,-448.5"/>
<text text-anchor="middle" x="648" y="-455.5" font-family="Helvetica,sans-Serif" font-size="10.00">Products/Massey.hpp</text>
</a>
</g>
</g>
<!-- Node1&#45;&gt;Node2 -->
<g id="edge1" class="edge">
<title>Node1&#45;&gt;Node2</title>
<path fill="none" stroke="midnightblue" d="M906.96,-507.22C858.55,-498.21 764.35,-480.66 703.89,-469.41"/>
<polygon fill="midnightblue" stroke="midnightblue" points="704.23,-465.91 693.76,-467.52 702.95,-472.79 704.23,-465.91"/>
</g>
<!-- Node39 -->
<g id="node39" class="node">
<title>Node39</title>
<g id="a_node39"><a xlink:href="Morse_8hpp.html" target="_top" xlink:title="Contains the classes mackey::AMT and mackey::EquivariantAMT.">
<polygon fill="white" stroke="black" points="943,-224.5 943,-243.5 1101,-243.5 1101,-224.5 943,-224.5"/>
<text text-anchor="middle" x="1022" y="-231.5" font-family="Helvetica,sans-Serif" font-size="10.00">Chain_Complexes/Morse.hpp</text>
</a>
</g>
</g>
<!-- Node1&#45;&gt;Node39 -->
<g id="edge49" class="edge">
<title>Node1&#45;&gt;Node39</title>
<path fill="none" stroke="midnightblue" d="M938,-504.44C938,-485.94 938,-440.81 938,-403 938,-403 938,-403 938,-345 938,-303.73 975.81,-268.32 1000.69,-249.49"/>
<polygon fill="midnightblue" stroke="midnightblue" points="1002.85,-252.25 1008.88,-243.54 998.73,-246.59 1002.85,-252.25"/>
</g>
<!-- Node41 -->
<g id="node41" class="node">
<title>Node41</title>
<g id="a_node41"><a xlink:title=" ">
<polygon fill="white" stroke="#bfbfbf" points="966,-448.5 966,-467.5 1050,-467.5 1050,-448.5 966,-448.5"/>
<text text-anchor="middle" x="1008" y="-455.5" font-family="Helvetica,sans-Serif" font-size="10.00">impl/Point.ipp</text>
</a>
</g>
</g>
<!-- Node1&#45;&gt;Node41 -->
<g id="edge53" class="edge">
<title>Node1&#45;&gt;Node41</title>
<path fill="none" stroke="midnightblue" d="M949.25,-504.32C959.8,-496.18 975.8,-483.84 988.44,-474.09"/>
<polygon fill="midnightblue" stroke="midnightblue" points="990.77,-476.71 996.55,-467.83 986.49,-471.17 990.77,-476.71"/>
</g>
<!-- Node3 -->
<g id="node3" class="node">
<title>Node3</title>
<g id="a_node3"><a xlink:href="Green_8hpp.html" target="_top" xlink:title="Contains the classes mackey::Green, mackey::internal::GreenCompute, mackey::internal::ChainsLevelGen,...">
<polygon fill="white" stroke="black" points="614.5,-392.5 614.5,-411.5 681.5,-411.5 681.5,-392.5 614.5,-392.5"/>
<text text-anchor="middle" x="648" y="-399.5" font-family="Helvetica,sans-Serif" font-size="10.00">Green.hpp</text>
</a>
</g>
</g>
<!-- Node2&#45;&gt;Node3 -->
<g id="edge2" class="edge">
<title>Node2&#45;&gt;Node3</title>
<path fill="none" stroke="midnightblue" d="M648,-448.08C648,-441.01 648,-430.86 648,-421.99"/>
<polygon fill="midnightblue" stroke="midnightblue" points="651.5,-421.75 648,-411.75 644.5,-421.75 651.5,-421.75"/>
</g>
<!-- Node38 -->
<g id="node38" class="node">
<title>Node38</title>
<g id="a_node38"><a xlink:title=" ">
<polygon fill="white" stroke="#bfbfbf" points="501.5,-392.5 501.5,-411.5 596.5,-411.5 596.5,-392.5 501.5,-392.5"/>
<text text-anchor="middle" x="549" y="-399.5" font-family="Helvetica,sans-Serif" font-size="10.00">impl/Massey.ipp</text>
</a>
</g>
</g>
<!-- Node2&#45;&gt;Node38 -->
<g id="edge48" class="edge">
<title>Node2&#45;&gt;Node38</title>
<path fill="none" stroke="midnightblue" d="M632.09,-448.32C616.36,-439.74 592.06,-426.49 573.79,-416.52"/>
<polygon fill="midnightblue" stroke="midnightblue" points="575.32,-413.37 564.87,-411.65 571.97,-419.52 575.32,-413.37"/>
</g>
<!-- Node4 -->
<g id="node4" class="node">
<title>Node4</title>
<g id="a_node4"><a xlink:href="Levels_8hpp.html" target="_top" xlink:title="Contains the methods for transfering, restricting and Weyl&#45;group&#45;acting.">
<polygon fill="white" stroke="black" points="429,-336.5 429,-355.5 585,-355.5 585,-336.5 429,-336.5"/>
<text text-anchor="middle" x="507" y="-343.5" font-family="Helvetica,sans-Serif" font-size="10.00">Mackey_Functors/Levels.hpp</text>
</a>
</g>
</g>
<!-- Node3&#45;&gt;Node4 -->
<g id="edge3" class="edge">
<title>Node3&#45;&gt;Node4</title>
<path fill="none" stroke="midnightblue" d="M625.66,-392.44C602.25,-383.48 565.26,-369.31 538.81,-359.18"/>
<polygon fill="midnightblue" stroke="midnightblue" points="539.83,-355.82 529.24,-355.52 537.32,-362.36 539.83,-355.82"/>
</g>
<!-- Node25 -->
<g id="node25" class="node">
<title>Node25</title>
<g id="a_node25"><a xlink:href="Identify_8hpp.html" target="_top" xlink:title="Contains the classes mackey::IDGenerators and mackey::internal::IDGeneratorCompute">
<polygon fill="white" stroke="black" points="202,-336.5 202,-355.5 362,-355.5 362,-336.5 202,-336.5"/>
<text text-anchor="middle" x="282" y="-343.5" font-family="Helvetica,sans-Serif" font-size="10.00">Mackey_Functors/Identify.hpp</text>
</a>
</g>
</g>
<!-- Node3&#45;&gt;Node25 -->
<g id="edge28" class="edge">
<title>Node3&#45;&gt;Node25</title>
<path fill="none" stroke="midnightblue" d="M614.24,-393.71C611.12,-393.1 608.01,-392.52 605,-392 523.2,-377.76 429.12,-365.07 363.67,-356.82"/>
<polygon fill="midnightblue" stroke="midnightblue" points="363.78,-353.31 353.42,-355.54 362.91,-360.25 363.78,-353.31"/>
</g>
<!-- Node30 -->
<g id="node30" class="node">
<title>Node30</title>
<g id="a_node30"><a xlink:href="Box_8hpp.html" target="_top" xlink:title="Contains the class mackey::Tensor.">
<polygon fill="white" stroke="black" points="648,-224.5 648,-243.5 794,-243.5 794,-224.5 648,-224.5"/>
<text text-anchor="middle" x="721" y="-231.5" font-family="Helvetica,sans-Serif" font-size="10.00">Chain_Complexes/Box.hpp</text>
</a>
</g>
</g>
<!-- Node3&#45;&gt;Node30 -->
<g id="edge37" class="edge">
<title>Node3&#45;&gt;Node30</title>
<path fill="none" stroke="midnightblue" d="M663.15,-392.35C675.41,-384.5 692.08,-371.75 701,-356 719.39,-323.53 721.97,-278.81 721.77,-253.83"/>
<polygon fill="midnightblue" stroke="midnightblue" points="725.27,-253.49 721.52,-243.58 718.27,-253.66 725.27,-253.49"/>
</g>
<!-- Node37 -->
<g id="node37" class="node">
<title>Node37</title>
<g id="a_node37"><a xlink:title=" ">
<polygon fill="white" stroke="#bfbfbf" points="603.5,-336.5 603.5,-355.5 692.5,-355.5 692.5,-336.5 603.5,-336.5"/>
<text text-anchor="middle" x="648" y="-343.5" font-family="Helvetica,sans-Serif" font-size="10.00">impl/Green.ipp</text>
</a>
</g>
</g>
<!-- Node3&#45;&gt;Node37 -->
<g id="edge47" class="edge">
<title>Node3&#45;&gt;Node37</title>
<path fill="none" stroke="midnightblue" d="M648,-392.08C648,-385.01 648,-374.86 648,-365.99"/>
<polygon fill="midnightblue" stroke="midnightblue" points="651.5,-365.75 648,-355.75 644.5,-365.75 651.5,-365.75"/>
</g>
<!-- Node5 -->
<g id="node5" class="node">
<title>Node5</title>
<g id="a_node5"><a xlink:href="Homology_8hpp.html" target="_top" xlink:title="Contains the class mackey::Homology.">
<polygon fill="white" stroke="black" points="354,-280.5 354,-299.5 494,-299.5 494,-280.5 354,-280.5"/>
<text text-anchor="middle" x="424" y="-287.5" font-family="Helvetica,sans-Serif" font-size="10.00">Homology/Homology.hpp</text>
</a>
</g>
</g>
<!-- Node4&#45;&gt;Node5 -->
<g id="edge4" class="edge">
<title>Node4&#45;&gt;Node5</title>
<path fill="none" stroke="midnightblue" d="M493.66,-336.32C480.84,-327.98 461.22,-315.21 446.06,-305.35"/>
<polygon fill="midnightblue" stroke="midnightblue" points="447.59,-302.17 437.3,-299.65 443.78,-308.04 447.59,-302.17"/>
</g>
<!-- Node24 -->
<g id="node24" class="node">
<title>Node24</title>
<g id="a_node24"><a xlink:title=" ">
<polygon fill="white" stroke="#bfbfbf" points="512.5,-280.5 512.5,-299.5 603.5,-299.5 603.5,-280.5 512.5,-280.5"/>
<text text-anchor="middle" x="558" y="-287.5" font-family="Helvetica,sans-Serif" font-size="10.00">impl/Levels.ipp</text>
</a>
</g>
</g>
<!-- Node4&#45;&gt;Node24 -->
<g id="edge27" class="edge">
<title>Node4&#45;&gt;Node24</title>
<path fill="none" stroke="midnightblue" d="M515.42,-336.08C522.85,-328.22 533.85,-316.57 542.81,-307.08"/>
<polygon fill="midnightblue" stroke="midnightblue" points="545.41,-309.42 549.74,-299.75 540.32,-304.62 545.41,-309.42"/>
</g>
<!-- Node6 -->
<g id="node6" class="node">
<title>Node6</title>
<g id="a_node6"><a xlink:href="Chains_8hpp.html" target="_top" xlink:title="Contains the classes mackey::Arrow, mackey::Chains and mackey::Junction.">
<polygon fill="white" stroke="black" points="518.5,-168.5 518.5,-187.5 679.5,-187.5 679.5,-168.5 518.5,-168.5"/>
<text text-anchor="middle" x="599" y="-175.5" font-family="Helvetica,sans-Serif" font-size="10.00">Chain_Complexes/Chains.hpp</text>
</a>
</g>
</g>
<!-- Node5&#45;&gt;Node6 -->
<g id="edge5" class="edge">
<title>Node5&#45;&gt;Node6</title>
<path fill="none" stroke="midnightblue" d="M477.88,-280.44C519.43,-272.72 572.22,-260.12 587,-244 598.26,-231.72 600.61,-212.46 600.53,-198.09"/>
<polygon fill="midnightblue" stroke="midnightblue" points="604.01,-197.67 600.07,-187.84 597.02,-197.99 604.01,-197.67"/>
</g>
<!-- Node10 -->
<g id="node10" class="node">
<title>Node10</title>
<g id="a_node10"><a xlink:href="General_8hpp.html" target="_top" xlink:title="Contains general functions and vector overloads independent of everything else.">
<polygon fill="white" stroke="black" points="282.5,-168.5 282.5,-187.5 391.5,-187.5 391.5,-168.5 282.5,-168.5"/>
<text text-anchor="middle" x="337" y="-175.5" font-family="Helvetica,sans-Serif" font-size="10.00">Utility/General.hpp</text>
</a>
</g>
</g>
<!-- Node5&#45;&gt;Node10 -->
<g id="edge9" class="edge">
<title>Node5&#45;&gt;Node10</title>
<path fill="none" stroke="midnightblue" d="M419.66,-280.09C413.11,-267.08 399.88,-242.43 385,-224 376.23,-213.14 364.9,-202.39 355.45,-194.13"/>
<polygon fill="midnightblue" stroke="midnightblue" points="357.62,-191.38 347.73,-187.56 353.08,-196.71 357.62,-191.38"/>
</g>
<!-- Node19 -->
<g id="node19" class="node">
<title>Node19</title>
<g id="a_node19"><a xlink:href="Smith_8hpp.html" target="_top" xlink:title="Contains the class mackey::SmithNormalForm.">
<polygon fill="white" stroke="black" points="410,-168.5 410,-187.5 476,-187.5 476,-168.5 410,-168.5"/>
<text text-anchor="middle" x="443" y="-175.5" font-family="Helvetica,sans-Serif" font-size="10.00">Smith.hpp</text>
</a>
</g>
</g>
<!-- Node5&#45;&gt;Node19 -->
<g id="edge19" class="edge">
<title>Node5&#45;&gt;Node19</title>
<path fill="none" stroke="midnightblue" d="M425.49,-280.37C428.56,-262.62 435.63,-221.67 439.79,-197.6"/>
<polygon fill="midnightblue" stroke="midnightblue" points="443.26,-198.04 441.52,-187.59 436.36,-196.85 443.26,-198.04"/>
</g>
<!-- Node21 -->
<g id="node21" class="node">
<title>Node21</title>
<g id="a_node21"><a xlink:href="Abelian_8hpp.html" target="_top" xlink:title="Contains the class mackey::AbelianGroup.">
<polygon fill="white" stroke="black" points="302,-224.5 302,-243.5 376,-243.5 376,-224.5 302,-224.5"/>
<text text-anchor="middle" x="339" y="-231.5" font-family="Helvetica,sans-Serif" font-size="10.00">Abelian.hpp</text>
</a>
</g>
</g>
<!-- Node5&#45;&gt;Node21 -->
<g id="edge23" class="edge">
<title>Node5&#45;&gt;Node21</title>
<path fill="none" stroke="midnightblue" d="M410.34,-280.32C397.08,-271.9 376.73,-258.97 361.15,-249.07"/>
<polygon fill="midnightblue" stroke="midnightblue" points="362.94,-246.06 352.62,-243.65 359.19,-251.97 362.94,-246.06"/>
</g>
<!-- Node23 -->
<g id="node23" class="node">
<title>Node23</title>
<g id="a_node23"><a xlink:title=" ">
<polygon fill="white" stroke="#bfbfbf" points="470,-224.5 470,-243.5 578,-243.5 578,-224.5 470,-224.5"/>
<text text-anchor="middle" x="524" y="-231.5" font-family="Helvetica,sans-Serif" font-size="10.00">impl/Homology.ipp</text>
</a>
</g>
</g>
<!-- Node5&#45;&gt;Node23 -->
<g id="edge26" class="edge">
<title>Node5&#45;&gt;Node23</title>
<path fill="none" stroke="midnightblue" d="M440.07,-280.32C455.96,-271.74 480.51,-258.49 498.96,-248.52"/>
<polygon fill="midnightblue" stroke="midnightblue" points="500.84,-251.49 507.97,-243.65 497.51,-245.33 500.84,-251.49"/>
</g>
<!-- Node7 -->
<g id="node7" class="node">
<title>Node7</title>
<g id="a_node7"><a xlink:title=" ">
<polygon fill="white" stroke="#bfbfbf" points="505.5,-112.5 505.5,-131.5 552.5,-131.5 552.5,-112.5 505.5,-112.5"/>
<text text-anchor="middle" x="529" y="-119.5" font-family="Helvetica,sans-Serif" font-size="10.00">vector</text>
</a>
</g>
</g>
<!-- Node6&#45;&gt;Node7 -->
<g id="edge6" class="edge">
<title>Node6&#45;&gt;Node7</title>
<path fill="none" stroke="midnightblue" d="M587.75,-168.32C577.2,-160.18 561.2,-147.84 548.56,-138.09"/>
<polygon fill="midnightblue" stroke="midnightblue" points="550.51,-135.17 540.45,-131.83 546.23,-140.71 550.51,-135.17"/>
</g>
<!-- Node8 -->
<g id="node8" class="node">
<title>Node8</title>
<g id="a_node8"><a xlink:title=" ">
<polygon fill="white" stroke="#bfbfbf" points="570.5,-112.5 570.5,-131.5 627.5,-131.5 627.5,-112.5 570.5,-112.5"/>
<text text-anchor="middle" x="599" y="-119.5" font-family="Helvetica,sans-Serif" font-size="10.00">ostream</text>
</a>
</g>
</g>
<!-- Node6&#45;&gt;Node8 -->
<g id="edge7" class="edge">
<title>Node6&#45;&gt;Node8</title>
<path fill="none" stroke="midnightblue" d="M599,-168.08C599,-161.01 599,-150.86 599,-141.99"/>
<polygon fill="midnightblue" stroke="midnightblue" points="602.5,-141.75 599,-131.75 595.5,-141.75 602.5,-141.75"/>
</g>
<!-- Node9 -->
<g id="node9" class="node">
<title>Node9</title>
<g id="a_node9"><a xlink:title=" ">
<polygon fill="white" stroke="#bfbfbf" points="646,-112.5 646,-131.5 738,-131.5 738,-112.5 646,-112.5"/>
<text text-anchor="middle" x="692" y="-119.5" font-family="Helvetica,sans-Serif" font-size="10.00">impl/Chains.ipp</text>
</a>
</g>
</g>
<!-- Node6&#45;&gt;Node9 -->
<g id="edge8" class="edge">
<title>Node6&#45;&gt;Node9</title>
<path fill="none" stroke="midnightblue" d="M613.94,-168.32C628.59,-159.82 651.13,-146.73 668.24,-136.8"/>
<polygon fill="midnightblue" stroke="midnightblue" points="670.2,-139.7 677.1,-131.65 666.69,-133.65 670.2,-139.7"/>
</g>
<!-- Node10&#45;&gt;Node7 -->
<g id="edge10" class="edge">
<title>Node10&#45;&gt;Node7</title>
<path fill="none" stroke="midnightblue" d="M367.42,-168.44C402.26,-158.65 459.17,-142.64 495.32,-132.47"/>
<polygon fill="midnightblue" stroke="midnightblue" points="496.7,-135.72 505.38,-129.64 494.8,-128.98 496.7,-135.72"/>
</g>
<!-- Node11 -->
<g id="node11" class="node">
<title>Node11</title>
<g id="a_node11"><a xlink:href="Aliases_8hpp.html" target="_top" xlink:title="Contains general template aliases.">
<polygon fill="white" stroke="black" points="277,-112.5 277,-131.5 381,-131.5 381,-112.5 277,-112.5"/>
<text text-anchor="middle" x="329" y="-119.5" font-family="Helvetica,sans-Serif" font-size="10.00">Types/Aliases.hpp</text>
</a>
</g>
</g>
<!-- Node10&#45;&gt;Node11 -->
<g id="edge11" class="edge">
<title>Node10&#45;&gt;Node11</title>
<path fill="none" stroke="midnightblue" d="M335.68,-168.08C334.62,-160.93 333.09,-150.64 331.77,-141.69"/>
<polygon fill="midnightblue" stroke="midnightblue" points="335.22,-141.13 330.3,-131.75 328.3,-142.16 335.22,-141.13"/>
</g>
<!-- Node16 -->
<g id="node16" class="node">
<title>Node16</title>
<g id="a_node16"><a xlink:title=" ">
<polygon fill="white" stroke="#bfbfbf" points="0,-112.5 0,-131.5 56,-131.5 56,-112.5 0,-112.5"/>
<text text-anchor="middle" x="28" y="-119.5" font-family="Helvetica,sans-Serif" font-size="10.00">numeric</text>
</a>
</g>
</g>
<!-- Node10&#45;&gt;Node16 -->
<g id="edge16" class="edge">
<title>Node10&#45;&gt;Node16</title>
<path fill="none" stroke="midnightblue" d="M282.89,-168.48C229.06,-159.85 144.17,-145.84 71,-132 69.5,-131.72 67.97,-131.42 66.43,-131.12"/>
<polygon fill="midnightblue" stroke="midnightblue" points="66.68,-127.6 56.19,-129.06 65.3,-134.46 66.68,-127.6"/>
</g>
<!-- Node17 -->
<g id="node17" class="node">
<title>Node17</title>
<g id="a_node17"><a xlink:title=" ">
<polygon fill="white" stroke="#bfbfbf" points="80,-112.5 80,-131.5 140,-131.5 140,-112.5 80,-112.5"/>
<text text-anchor="middle" x="110" y="-119.5" font-family="Helvetica,sans-Serif" font-size="10.00">iostream</text>
</a>
</g>
</g>
<!-- Node10&#45;&gt;Node17 -->
<g id="edge17" class="edge">
<title>Node10&#45;&gt;Node17</title>
<path fill="none" stroke="midnightblue" d="M301.03,-168.44C259.83,-158.64 192.52,-142.63 149.78,-132.46"/>
<polygon fill="midnightblue" stroke="midnightblue" points="150.54,-129.05 140,-130.14 148.92,-135.86 150.54,-129.05"/>
</g>
<!-- Node18 -->
<g id="node18" class="node">
<title>Node18</title>
<g id="a_node18"><a xlink:title=" ">
<polygon fill="white" stroke="#bfbfbf" points="161,-112.5 161,-131.5 259,-131.5 259,-112.5 161,-112.5"/>
<text text-anchor="middle" x="210" y="-119.5" font-family="Helvetica,sans-Serif" font-size="10.00">impl/General.ipp</text>
</a>
</g>
</g>
<!-- Node10&#45;&gt;Node18 -->
<g id="edge18" class="edge">
<title>Node10&#45;&gt;Node18</title>
<path fill="none" stroke="midnightblue" d="M316.88,-168.44C295.98,-159.56 263.07,-145.56 239.28,-135.45"/>
<polygon fill="midnightblue" stroke="midnightblue" points="240.6,-132.21 230.03,-131.52 237.86,-138.65 240.6,-132.21"/>
</g>
<!-- Node12 -->
<g id="node12" class="node">
<title>Node12</title>
<g id="a_node12"><a xlink:title=" ">
<polygon fill="white" stroke="#bfbfbf" points="336.5,-56.5 336.5,-75.5 413.5,-75.5 413.5,-56.5 336.5,-56.5"/>
<text text-anchor="middle" x="375" y="-63.5" font-family="Helvetica,sans-Serif" font-size="10.00">Eigen/Dense</text>
</a>
</g>
</g>
<!-- Node11&#45;&gt;Node12 -->
<g id="edge12" class="edge">
<title>Node11&#45;&gt;Node12</title>
<path fill="none" stroke="midnightblue" d="M336.6,-112.08C343.23,-104.3 353.02,-92.8 361.06,-83.37"/>
<polygon fill="midnightblue" stroke="midnightblue" points="363.73,-85.63 367.55,-75.75 358.4,-81.09 363.73,-85.63"/>
</g>
<!-- Node13 -->
<g id="node13" class="node">
<title>Node13</title>
<g id="a_node13"><a xlink:title=" ">
<polygon fill="white" stroke="#bfbfbf" points="771,-56.5 771,-75.5 851,-75.5 851,-56.5 771,-56.5"/>
<text text-anchor="middle" x="811" y="-63.5" font-family="Helvetica,sans-Serif" font-size="10.00">Eigen/Sparse</text>
</a>
</g>
</g>
<!-- Node11&#45;&gt;Node13 -->
<g id="edge13" class="edge">
<title>Node11&#45;&gt;Node13</title>
<path fill="none" stroke="midnightblue" d="M381.22,-113.15C384.19,-112.75 387.13,-112.36 390,-112 523.64,-95.01 681.7,-79.28 760.73,-71.72"/>
<polygon fill="midnightblue" stroke="midnightblue" points="761.26,-75.18 770.88,-70.75 760.6,-68.21 761.26,-75.18"/>
</g>
<!-- Node14 -->
<g id="node14" class="node">
<title>Node14</title>
<g id="a_node14"><a xlink:href="SFINAE_8hpp.html" target="_top" xlink:title="Contains all the SFINAE tricks.">
<polygon fill="white" stroke="black" points="245.5,-56.5 245.5,-75.5 318.5,-75.5 318.5,-56.5 245.5,-56.5"/>
<text text-anchor="middle" x="282" y="-63.5" font-family="Helvetica,sans-Serif" font-size="10.00">SFINAE.hpp</text>
</a>
</g>
</g>
<!-- Node11&#45;&gt;Node14 -->
<g id="edge14" class="edge">
<title>Node11&#45;&gt;Node14</title>
<path fill="none" stroke="midnightblue" d="M321.24,-112.08C314.46,-104.3 304.46,-92.8 296.24,-83.37"/>
<polygon fill="midnightblue" stroke="midnightblue" points="298.82,-81 289.62,-75.75 293.54,-85.59 298.82,-81"/>
</g>
<!-- Node15 -->
<g id="node15" class="node">
<title>Node15</title>
<g id="a_node15"><a xlink:title=" ">
<polygon fill="white" stroke="#bfbfbf" points="247.5,-0.5 247.5,-19.5 316.5,-19.5 316.5,-0.5 247.5,-0.5"/>
<text text-anchor="middle" x="282" y="-7.5" font-family="Helvetica,sans-Serif" font-size="10.00">type_traits</text>
</a>
</g>
</g>
<!-- Node14&#45;&gt;Node15 -->
<g id="edge15" class="edge">
<title>Node14&#45;&gt;Node15</title>
<path fill="none" stroke="midnightblue" d="M282,-56.08C282,-49.01 282,-38.86 282,-29.99"/>
<polygon fill="midnightblue" stroke="midnightblue" points="285.5,-29.75 282,-19.75 278.5,-29.75 285.5,-29.75"/>
</g>
<!-- Node19&#45;&gt;Node7 -->
<g id="edge20" class="edge">
<title>Node19&#45;&gt;Node7</title>
<path fill="none" stroke="midnightblue" d="M456.82,-168.32C470.23,-159.9 490.82,-146.97 506.59,-137.07"/>
<polygon fill="midnightblue" stroke="midnightblue" points="508.61,-139.94 515.22,-131.65 504.89,-134.01 508.61,-139.94"/>
</g>
<!-- Node19&#45;&gt;Node11 -->
<g id="edge21" class="edge">
<title>Node19&#45;&gt;Node11</title>
<path fill="none" stroke="midnightblue" d="M424.94,-168.44C406.43,-159.68 377.42,-145.94 356.14,-135.86"/>
<polygon fill="midnightblue" stroke="midnightblue" points="357.51,-132.63 346.98,-131.52 354.52,-138.96 357.51,-132.63"/>
</g>
<!-- Node20 -->
<g id="node20" class="node">
<title>Node20</title>
<g id="a_node20"><a xlink:title=" ">
<polygon fill="white" stroke="#bfbfbf" points="399,-112.5 399,-131.5 487,-131.5 487,-112.5 399,-112.5"/>
<text text-anchor="middle" x="443" y="-119.5" font-family="Helvetica,sans-Serif" font-size="10.00">impl/Smith.ipp</text>
</a>
</g>
</g>
<!-- Node19&#45;&gt;Node20 -->
<g id="edge22" class="edge">
<title>Node19&#45;&gt;Node20</title>
<path fill="none" stroke="midnightblue" d="M443,-168.08C443,-161.01 443,-150.86 443,-141.99"/>
<polygon fill="midnightblue" stroke="midnightblue" points="446.5,-141.75 443,-131.75 439.5,-141.75 446.5,-141.75"/>
</g>
<!-- Node21&#45;&gt;Node10 -->
<g id="edge24" class="edge">
<title>Node21&#45;&gt;Node10</title>
<path fill="none" stroke="midnightblue" d="M338.67,-224.08C338.41,-217.01 338.03,-206.86 337.7,-197.99"/>
<polygon fill="midnightblue" stroke="midnightblue" points="341.19,-197.61 337.32,-187.75 334.2,-197.87 341.19,-197.61"/>
</g>
<!-- Node22 -->
<g id="node22" class="node">
<title>Node22</title>
<g id="a_node22"><a xlink:title=" ">
<polygon fill="white" stroke="#bfbfbf" points="168,-168.5 168,-187.5 264,-187.5 264,-168.5 168,-168.5"/>
<text text-anchor="middle" x="216" y="-175.5" font-family="Helvetica,sans-Serif" font-size="10.00">impl/Abelian.ipp</text>
</a>
</g>
</g>
<!-- Node21&#45;&gt;Node22 -->
<g id="edge25" class="edge">
<title>Node21&#45;&gt;Node22</title>
<path fill="none" stroke="midnightblue" d="M319.51,-224.44C299.36,-215.6 267.68,-201.69 244.67,-191.59"/>
<polygon fill="midnightblue" stroke="midnightblue" points="245.96,-188.33 235.4,-187.52 243.15,-194.74 245.96,-188.33"/>
</g>
<!-- Node25&#45;&gt;Node5 -->
<g id="edge29" class="edge">
<title>Node25&#45;&gt;Node5</title>
<path fill="none" stroke="midnightblue" d="M304.5,-336.44C328.08,-327.48 365.32,-313.31 391.96,-303.18"/>
<polygon fill="midnightblue" stroke="midnightblue" points="393.5,-306.34 401.6,-299.52 391.01,-299.8 393.5,-306.34"/>
</g>
<!-- Node26 -->
<g id="node26" class="node">
<title>Node26</title>
<g id="a_node26"><a xlink:href="MackeyFunctor_8hpp.html" target="_top" xlink:title="Contains the class mackey::MackeyFunctor.">
<polygon fill="white" stroke="black" points="119.5,-280.5 119.5,-299.5 316.5,-299.5 316.5,-280.5 119.5,-280.5"/>
<text text-anchor="middle" x="218" y="-287.5" font-family="Helvetica,sans-Serif" font-size="10.00">Mackey_Functors/MackeyFunctor.hpp</text>
</a>
</g>
</g>
<!-- Node25&#45;&gt;Node26 -->
<g id="edge30" class="edge">
<title>Node25&#45;&gt;Node26</title>
<path fill="none" stroke="midnightblue" d="M271.72,-336.32C262.16,-328.26 247.72,-316.08 236.22,-306.37"/>
<polygon fill="midnightblue" stroke="midnightblue" points="238.37,-303.61 228.47,-299.83 233.86,-308.96 238.37,-303.61"/>
</g>
<!-- Node29 -->
<g id="node29" class="node">
<title>Node29</title>
<g id="a_node29"><a xlink:title=" ">
<polygon fill="white" stroke="#bfbfbf" points="6.5,-280.5 6.5,-299.5 101.5,-299.5 101.5,-280.5 6.5,-280.5"/>
<text text-anchor="middle" x="54" y="-287.5" font-family="Helvetica,sans-Serif" font-size="10.00">impl/Identify.ipp</text>
</a>
</g>
</g>
<!-- Node25&#45;&gt;Node29 -->
<g id="edge36" class="edge">
<title>Node25&#45;&gt;Node29</title>
<path fill="none" stroke="midnightblue" d="M245.87,-336.44C206.35,-327.08 142.9,-312.06 99.89,-301.87"/>
<polygon fill="midnightblue" stroke="midnightblue" points="100.5,-298.42 89.96,-299.52 98.88,-305.23 100.5,-298.42"/>
</g>
<!-- Node26&#45;&gt;Node16 -->
<g id="edge33" class="edge">
<title>Node26&#45;&gt;Node16</title>
<path fill="none" stroke="midnightblue" d="M142.24,-280.45C116.22,-274.09 88.72,-263.07 69,-244 40.53,-216.46 31.83,-168.47 29.17,-141.95"/>
<polygon fill="midnightblue" stroke="midnightblue" points="32.64,-141.41 28.34,-131.73 25.66,-141.98 32.64,-141.41"/>
</g>
<!-- Node26&#45;&gt;Node17 -->
<g id="edge32" class="edge">
<title>Node26&#45;&gt;Node17</title>
<path fill="none" stroke="midnightblue" d="M138.71,-280.44C116.47,-273.95 94.65,-262.86 81,-244 58.08,-212.35 82.03,-165.01 98.06,-139.96"/>
<polygon fill="midnightblue" stroke="midnightblue" points="101.05,-141.79 103.7,-131.53 95.23,-137.9 101.05,-141.79"/>
</g>
<!-- Node26&#45;&gt;Node21 -->
<g id="edge34" class="edge">
<title>Node26&#45;&gt;Node21</title>
<path fill="none" stroke="midnightblue" d="M237.17,-280.44C256.91,-271.64 287.89,-257.81 310.49,-247.72"/>
<polygon fill="midnightblue" stroke="midnightblue" points="312.21,-250.79 319.92,-243.52 309.36,-244.4 312.21,-250.79"/>
</g>
<!-- Node27 -->
<g id="node27" class="node">
<title>Node27</title>
<g id="a_node27"><a xlink:title=" ">
<polygon fill="white" stroke="#bfbfbf" points="90,-224.5 90,-243.5 134,-243.5 134,-224.5 90,-224.5"/>
<text text-anchor="middle" x="112" y="-231.5" font-family="Helvetica,sans-Serif" font-size="10.00">string</text>
</a>
</g>
</g>
<!-- Node26&#45;&gt;Node27 -->
<g id="edge31" class="edge">
<title>Node26&#45;&gt;Node27</title>
<path fill="none" stroke="midnightblue" d="M200.97,-280.32C183.97,-271.66 157.62,-258.24 138.01,-248.25"/>
<polygon fill="midnightblue" stroke="midnightblue" points="139.49,-245.08 128.99,-243.65 136.31,-251.31 139.49,-245.08"/>
</g>
<!-- Node28 -->
<g id="node28" class="node">
<title>Node28</title>
<g id="a_node28"><a xlink:title=" ">
<polygon fill="white" stroke="#bfbfbf" points="152,-224.5 152,-243.5 284,-243.5 284,-224.5 152,-224.5"/>
<text text-anchor="middle" x="218" y="-231.5" font-family="Helvetica,sans-Serif" font-size="10.00">impl/MackeyFunctor.ipp</text>
</a>
</g>
</g>
<!-- Node26&#45;&gt;Node28 -->
<g id="edge35" class="edge">
<title>Node26&#45;&gt;Node28</title>
<path fill="none" stroke="midnightblue" d="M218,-280.08C218,-273.01 218,-262.86 218,-253.99"/>
<polygon fill="midnightblue" stroke="midnightblue" points="221.5,-253.75 218,-243.75 214.5,-253.75 221.5,-253.75"/>
</g>
<!-- Node30&#45;&gt;Node6 -->
<g id="edge39" class="edge">
<title>Node30&#45;&gt;Node6</title>
<path fill="none" stroke="midnightblue" d="M701.67,-224.44C681.68,-215.6 650.26,-201.69 627.44,-191.59"/>
<polygon fill="midnightblue" stroke="midnightblue" points="628.8,-188.36 618.24,-187.52 625.97,-194.76 628.8,-188.36"/>
</g>
<!-- Node30&#45;&gt;Node10 -->
<g id="edge38" class="edge">
<title>Node30&#45;&gt;Node10</title>
<path fill="none" stroke="midnightblue" d="M660.15,-224.44C589.71,-214.54 474.14,-198.28 401.98,-188.14"/>
<polygon fill="midnightblue" stroke="midnightblue" points="402.05,-184.61 391.66,-186.69 401.07,-191.54 402.05,-184.61"/>
</g>
<!-- Node31 -->
<g id="node31" class="node">
<title>Node31</title>
<g id="a_node31"><a xlink:href="ChangeBasis_8hpp.html" target="_top" xlink:title="Contains the class mackey::ChangeBasis.">
<polygon fill="white" stroke="black" points="794.5,-168.5 794.5,-187.5 895.5,-187.5 895.5,-168.5 794.5,-168.5"/>
<text text-anchor="middle" x="845" y="-175.5" font-family="Helvetica,sans-Serif" font-size="10.00">ChangeBasis.hpp</text>
</a>
</g>
</g>
<!-- Node30&#45;&gt;Node31 -->
<g id="edge40" class="edge">
<title>Node30&#45;&gt;Node31</title>
<path fill="none" stroke="midnightblue" d="M740.65,-224.44C760.96,-215.6 792.9,-201.69 816.1,-191.59"/>
<polygon fill="midnightblue" stroke="midnightblue" points="817.67,-194.72 825.44,-187.52 814.88,-188.3 817.67,-194.72"/>
</g>
<!-- Node36 -->
<g id="node36" class="node">
<title>Node36</title>
<g id="a_node36"><a xlink:title=" ">
<polygon fill="white" stroke="#bfbfbf" points="698,-168.5 698,-187.5 776,-187.5 776,-168.5 698,-168.5"/>
<text text-anchor="middle" x="737" y="-175.5" font-family="Helvetica,sans-Serif" font-size="10.00">impl/Box.ipp</text>
</a>
</g>
</g>
<!-- Node30&#45;&gt;Node36 -->
<g id="edge46" class="edge">
<title>Node30&#45;&gt;Node36</title>
<path fill="none" stroke="midnightblue" d="M723.64,-224.08C725.79,-216.85 728.88,-206.41 731.55,-197.4"/>
<polygon fill="midnightblue" stroke="midnightblue" points="734.92,-198.33 734.41,-187.75 728.21,-196.34 734.92,-198.33"/>
</g>
<!-- Node31&#45;&gt;Node7 -->
<g id="edge41" class="edge">
<title>Node31&#45;&gt;Node7</title>
<path fill="none" stroke="midnightblue" d="M794.33,-169.3C725.19,-158.75 605.65,-140.33 562.53,-132.01"/>
<polygon fill="midnightblue" stroke="midnightblue" points="563.19,-128.58 552.69,-130 561.78,-135.43 563.19,-128.58"/>
</g>
<!-- Node32 -->
<g id="node32" class="node">
<title>Node32</title>
<g id="a_node32"><a xlink:title=" ">
<polygon fill="white" stroke="#bfbfbf" points="756,-112.5 756,-131.5 794,-131.5 794,-112.5 756,-112.5"/>
<text text-anchor="middle" x="775" y="-119.5" font-family="Helvetica,sans-Serif" font-size="10.00">map</text>
</a>
</g>
</g>
<!-- Node31&#45;&gt;Node32 -->
<g id="edge42" class="edge">
<title>Node31&#45;&gt;Node32</title>
<path fill="none" stroke="midnightblue" d="M833.75,-168.32C823.2,-160.18 807.2,-147.84 794.56,-138.09"/>
<polygon fill="midnightblue" stroke="midnightblue" points="796.51,-135.17 786.45,-131.83 792.23,-140.71 796.51,-135.17"/>
</g>
<!-- Node33 -->
<g id="node33" class="node">
<title>Node33</title>
<g id="a_node33"><a xlink:title=" ">
<polygon fill="white" stroke="#bfbfbf" points="812,-112.5 812,-131.5 876,-131.5 876,-112.5 812,-112.5"/>
<text text-anchor="middle" x="844" y="-119.5" font-family="Helvetica,sans-Serif" font-size="10.00">algorithm</text>
</a>
</g>
</g>
<!-- Node31&#45;&gt;Node33 -->
<g id="edge43" class="edge">
<title>Node31&#45;&gt;Node33</title>
<path fill="none" stroke="midnightblue" d="M844.83,-168.08C844.7,-161.01 844.52,-150.86 844.35,-141.99"/>
<polygon fill="midnightblue" stroke="midnightblue" points="847.85,-141.68 844.16,-131.75 840.85,-141.81 847.85,-141.68"/>
</g>
<!-- Node34 -->
<g id="node34" class="node">
<title>Node34</title>
<g id="a_node34"><a xlink:title=" ">
<polygon fill="white" stroke="#bfbfbf" points="894,-112.5 894,-131.5 936,-131.5 936,-112.5 894,-112.5"/>
<text text-anchor="middle" x="915" y="-119.5" font-family="Helvetica,sans-Serif" font-size="10.00">array</text>
</a>
</g>
</g>
<!-- Node31&#45;&gt;Node34 -->
<g id="edge44" class="edge">
<title>Node31&#45;&gt;Node34</title>
<path fill="none" stroke="midnightblue" d="M856.25,-168.32C866.8,-160.18 882.8,-147.84 895.44,-138.09"/>
<polygon fill="midnightblue" stroke="midnightblue" points="897.77,-140.71 903.55,-131.83 893.49,-135.17 897.77,-140.71"/>
</g>
<!-- Node35 -->
<g id="node35" class="node">
<title>Node35</title>
<g id="a_node35"><a xlink:title=" ">
<polygon fill="white" stroke="#bfbfbf" points="954,-112.5 954,-131.5 1076,-131.5 1076,-112.5 954,-112.5"/>
<text text-anchor="middle" x="1015" y="-119.5" font-family="Helvetica,sans-Serif" font-size="10.00">impl/ChangeBasis.ipp</text>
</a>
</g>
</g>
<!-- Node31&#45;&gt;Node35 -->
<g id="edge45" class="edge">
<title>Node31&#45;&gt;Node35</title>
<path fill="none" stroke="midnightblue" d="M871.94,-168.44C900.66,-159.32 946.33,-144.81 978.32,-134.65"/>
<polygon fill="midnightblue" stroke="midnightblue" points="979.72,-137.88 988.19,-131.52 977.6,-131.21 979.72,-137.88"/>
</g>
<!-- Node39&#45;&gt;Node6 -->
<g id="edge50" class="edge">
<title>Node39&#45;&gt;Node6</title>
<path fill="none" stroke="midnightblue" d="M954.97,-224.44C879.02,-214.75 755.44,-198.97 675.7,-188.79"/>
<polygon fill="midnightblue" stroke="midnightblue" points="676.07,-185.31 665.71,-187.52 675.19,-192.25 676.07,-185.31"/>
</g>
<!-- Node39&#45;&gt;Node13 -->
<g id="edge51" class="edge">
<title>Node39&#45;&gt;Node13</title>
<path fill="none" stroke="midnightblue" d="M1032.98,-224.3C1058.27,-203.26 1116.12,-148.65 1085,-112 1056.86,-78.86 932.34,-70.08 861.23,-67.78"/>
<polygon fill="midnightblue" stroke="midnightblue" points="861.25,-64.28 851.15,-67.49 861.04,-71.28 861.25,-64.28"/>
</g>
<!-- Node40 -->
<g id="node40" class="node">
<title>Node40</title>
<g id="a_node40"><a xlink:title=" ">
<polygon fill="white" stroke="#bfbfbf" points="1132.5,-168.5 1132.5,-187.5 1221.5,-187.5 1221.5,-168.5 1132.5,-168.5"/>
<text text-anchor="middle" x="1177" y="-175.5" font-family="Helvetica,sans-Serif" font-size="10.00">impl/Morse.ipp</text>
</a>
</g>
</g>
<!-- Node39&#45;&gt;Node40 -->
<g id="edge52" class="edge">
<title>Node39&#45;&gt;Node40</title>
<path fill="none" stroke="midnightblue" d="M1046.56,-224.44C1072.52,-215.4 1113.67,-201.06 1142.8,-190.92"/>
<polygon fill="midnightblue" stroke="midnightblue" points="1144.26,-194.11 1152.55,-187.52 1141.96,-187.5 1144.26,-194.11"/>
</g>
</g>
</svg>
        <g id="navigator" transform="translate(0 0)" fill="#404254">
                <rect fill="#f2f5e9" fill-opacity="0.5" stroke="#606060" stroke-width=".5" x="0" y="0" width="60" height="60"/>
                <use id="zoomplus" xlink:href="#zoomPlus" x="17" y="9" onmousedown="handleZoom(evt,'in')"/>
                <use id="zoomminus" xlink:href="#zoomMin" x="42" y="9" onmousedown="handleZoom(evt,'out')"/>
                <use id="reset" xlink:href="#resetDef" x="30" y="36" onmousedown="handleReset()"/>
                <g id="arrowUp" xlink:href="#dirArrow" transform="translate(30 24)" onmousedown="handlePan(0,-1)">
                  <use xlink:href="#rim" fill="#404040">
                        <set attributeName="fill" to="#808080" begin="arrowUp.mouseover" end="arrowUp.mouseout"/>
                  </use>
                  <path fill="none" stroke="white" stroke-width="1.5" d="M0,-3.0v7 M-2.5,-0.5L0,-3.0L2.5,-0.5"/>
                </g>
                <g id="arrowRight" xlink:href="#dirArrow" transform="rotate(90) translate(36 -43)" onmousedown="handlePan(1,0)">
                  <use xlink:href="#rim" fill="#404040">
                        <set attributeName="fill" to="#808080" begin="arrowRight.mouseover" end="arrowRight.mouseout"/>
                  </use>
                  <path fill="none" stroke="white" stroke-width="1.5" d="M0,-3.0v7 M-2.5,-0.5L0,-3.0L2.5,-0.5"/>
                </g>
                <g id="arrowDown" xlink:href="#dirArrow" transform="rotate(180) translate(-30 -48)" onmousedown="handlePan(0,1)">
                  <use xlink:href="#rim" fill="#404040">
                        <set attributeName="fill" to="#808080" begin="arrowDown.mouseover" end="arrowDown.mouseout"/>
                  </use>
                  <path fill="none" stroke="white" stroke-width="1.5" d="M0,-3.0v7 M-2.5,-0.5L0,-3.0L2.5,-0.5"/>
                </g>
                <g id="arrowLeft" xlink:href="#dirArrow" transform="rotate(270) translate(-36 17)" onmousedown="handlePan(-1,0)">
                  <use xlink:href="#rim" fill="#404040">
                        <set attributeName="fill" to="#808080" begin="arrowLeft.mouseover" end="arrowLeft.mouseout"/>
                  </use>
                  <path fill="none" stroke="white" stroke-width="1.5" d="M0,-3.0v7 M-2.5,-0.5L0,-3.0L2.5,-0.5"/>
                </g>
        </g>
        <svg viewBox="0 0 15 15" width="100%" height="30px" preserveAspectRatio="xMaxYMin meet">
         <g id="arrow_out" transform="scale(0.3 0.3)">
          <a xlink:href="Point_8hpp__incl_org.svg" target="_base">
           <rect id="button" ry="5" rx="5" y="6" x="6" height="38" width="38"
                fill="#f2f5e9" fill-opacity="0.5" stroke="#606060" stroke-width="1.0"/>
           <path id="arrow"
             d="M 11.500037,31.436501 C 11.940474,20.09759 22.043105,11.32322 32.158766,21.979434 L 37.068811,17.246167 C 37.068811,17.246167 37.088388,32 37.088388,32 L 22.160133,31.978069 C 22.160133,31.978069 26.997745,27.140456 26.997745,27.140456 C 18.528582,18.264221 13.291696,25.230495 11.500037,31.436501 z"
             style="fill:#404040;"/>
          </a>
         </g>
        </svg>
</svg>
