<?xml version="1.0" encoding="UTF-8" standalone="no"?>
<!DOCTYPE svg PUBLIC "-//W3C//DTD SVG 1.1//EN"
 "http://www.w3.org/Graphics/SVG/1.1/DTD/svg11.dtd">
<!-- Generated by graphviz version 2.43.0 (0)
 -->
<!-- Title: SFINAE.hpp Pages: 1 -->
<!--zoomable 756 -->
<svg id="main" version="1.1" xmlns="http://www.w3.org/2000/svg" xmlns:xlink="http://www.w3.org/1999/xlink" xml:space="preserve" onload="init(evt)">
<style type="text/css"><![CDATA[
.edge:hover path { stroke: red; }
.edge:hover polygon { stroke: red; fill: red; }
]]></style>
<script type="text/javascript"><![CDATA[
var edges = document.getElementsByTagName('g');
if (edges && edges.length) {
  for (var i=0;i<edges.length;i++) {
    if (edges[i].id.substr(0,4)=='edge') {
      edges[i].setAttribute('class','edge');
    }
  }
}
]]></script>
        <defs>
                <circle id="rim" cx="0" cy="0" r="7"/>
                <circle id="rim2" cx="0" cy="0" r="3.5"/>
                <g id="zoomPlus">
                        <use xlink:href="#rim" fill="#404040">
                                <set attributeName="fill" to="#808080" begin="zoomplus.mouseover" end="zoomplus.mouseout"/>
                        </use>
                        <path d="M-4,0h8M0,-4v8" fill="none" stroke="white" stroke-width="1.5" pointer-events="none"/>
                </g>
                <g id="zoomMin">
                        <use xlink:href="#rim" fill="#404040">
                                <set attributeName="fill" to="#808080" begin="zoomminus.mouseover" end="zoomminus.mouseout"/>
                        </use>
                        <path d="M-4,0h8" fill="none" stroke="white" stroke-width="1.5" pointer-events="none"/>
                </g>
                <g id="dirArrow">
                        <path fill="none" stroke="white" stroke-width="1.5" d="M0,-3.0v7 M-2.5,-0.5L0,-3.0L2.5,-0.5"/>
                </g>
               <g id="resetDef">
                       <use xlink:href="#rim2" fill="#404040">
                               <set attributeName="fill" to="#808080" begin="reset.mouseover" end="reset.mouseout"/>
                       </use>
               </g>
        </defs>

<script type="text/javascript">
var viewWidth = 499;
var viewHeight = 756;
var sectionId = 'dynsection-1';
</script>
<script xlink:href="svgpan.js"/>
<svg id="graph" class="graph">
<g id="viewport">
<title>SFINAE.hpp</title>
<polygon fill="white" stroke="transparent" points="-4,4 -4,-752 495,-752 495,4 -4,4"/>
<!-- Node1 -->
<g id="node1" class="node">
<title>Node1</title>
<g id="a_node1"><a xlink:title="Contains all the SFINAE tricks.">
<polygon fill="#bfbfbf" stroke="black" points="412.5,-728.5 412.5,-747.5 485.5,-747.5 485.5,-728.5 412.5,-728.5"/>
<text text-anchor="middle" x="449" y="-735.5" font-family="Helvetica,sans-Serif" font-size="10.00">SFINAE.hpp</text>
</a>
</g>
</g>
<!-- Node2 -->
<g id="node2" class="node">
<title>Node2</title>
<g id="a_node2"><a xlink:href="Z__n_8hpp.html" target="_top" xlink:title="Contains the class for Z/N coefficients.">
<polygon fill="white" stroke="black" points="400,-56.5 400,-75.5 456,-75.5 456,-56.5 400,-56.5"/>
<text text-anchor="middle" x="428" y="-63.5" font-family="Helvetica,sans-Serif" font-size="10.00">Z_n.hpp</text>
</a>
</g>
</g>
<!-- Node1&#45;&gt;Node2 -->
<g id="edge1" class="edge">
<title>Node1&#45;&gt;Node2</title>
<path fill="none" stroke="midnightblue" d="M460.21,-719.57C472.65,-698.51 491,-661.59 491,-627 491,-627 491,-627 491,-177 491,-134.31 454.82,-93.15 437.3,-75.72"/>
<polygon fill="midnightblue" stroke="midnightblue" points="457.09,-717.96 454.84,-728.31 463.06,-721.62 457.09,-717.96"/>
</g>
<!-- Node5 -->
<g id="node5" class="node">
<title>Node5</title>
<g id="a_node5"><a xlink:href="Aliases_8hpp.html" target="_top" xlink:title="Contains general template aliases.">
<polygon fill="white" stroke="black" points="373.5,-672.5 373.5,-691.5 446.5,-691.5 446.5,-672.5 373.5,-672.5"/>
<text text-anchor="middle" x="410" y="-679.5" font-family="Helvetica,sans-Serif" font-size="10.00">Aliases.hpp</text>
</a>
</g>
</g>
<!-- Node1&#45;&gt;Node5 -->
<g id="edge4" class="edge">
<title>Node1&#45;&gt;Node5</title>
<path fill="none" stroke="midnightblue" d="M436.62,-719.86C429.86,-710.5 421.79,-699.33 416.32,-691.75"/>
<polygon fill="midnightblue" stroke="midnightblue" points="433.87,-722.03 442.56,-728.08 439.54,-717.93 433.87,-722.03"/>
</g>
<!-- Node3 -->
<g id="node3" class="node">
<title>Node3</title>
<g id="a_node3"><a xlink:href="Mackey_8hpp.html" target="_top" xlink:title="Includes the entire library.">
<polygon fill="white" stroke="black" points="169,-0.5 169,-19.5 243,-19.5 243,-0.5 169,-0.5"/>
<text text-anchor="middle" x="206" y="-7.5" font-family="Helvetica,sans-Serif" font-size="10.00">Mackey.hpp</text>
</a>
</g>
</g>
<!-- Node2&#45;&gt;Node3 -->
<g id="edge2" class="edge">
<title>Node2&#45;&gt;Node3</title>
<path fill="none" stroke="midnightblue" d="M390.1,-55.78C348.36,-45.63 281.81,-29.44 241.2,-19.56"/>
<polygon fill="midnightblue" stroke="midnightblue" points="389.34,-59.2 399.88,-58.16 390.99,-52.4 389.34,-59.2"/>
</g>
<!-- Node4 -->
<g id="node4" class="node">
<title>Node4</title>
<g id="a_node4"><a xlink:href="Cerealizer_8hpp.html" target="_top" xlink:title="Contains the methods for serializing the results of our computations (before their interpretation) vi...">
<polygon fill="white" stroke="black" points="289,-0.5 289,-19.5 375,-19.5 375,-0.5 289,-0.5"/>
<text text-anchor="middle" x="332" y="-7.5" font-family="Helvetica,sans-Serif" font-size="10.00">Cerealizer.hpp</text>
</a>
</g>
</g>
<!-- Node2&#45;&gt;Node4 -->
<g id="edge3" class="edge">
<title>Node2&#45;&gt;Node4</title>
<path fill="none" stroke="midnightblue" d="M403.43,-51.18C385.76,-41.24 362.49,-28.15 347.39,-19.65"/>
<polygon fill="midnightblue" stroke="midnightblue" points="402.14,-54.47 412.58,-56.32 405.58,-48.37 402.14,-54.47"/>
</g>
<!-- Node6 -->
<g id="node6" class="node">
<title>Node6</title>
<g id="a_node6"><a xlink:href="Smith_8hpp.html" target="_top" xlink:title="Contains the base class for all Smith implementations.">
<polygon fill="white" stroke="black" points="377,-616.5 377,-635.5 443,-635.5 443,-616.5 377,-616.5"/>
<text text-anchor="middle" x="410" y="-623.5" font-family="Helvetica,sans-Serif" font-size="10.00">Smith.hpp</text>
</a>
</g>
</g>
<!-- Node5&#45;&gt;Node6 -->
<g id="edge5" class="edge">
<title>Node5&#45;&gt;Node6</title>
<path fill="none" stroke="midnightblue" d="M410,-661.8C410,-652.91 410,-642.78 410,-635.75"/>
<polygon fill="midnightblue" stroke="midnightblue" points="406.5,-662.08 410,-672.08 413.5,-662.08 406.5,-662.08"/>
</g>
<!-- Node21 -->
<g id="node21" class="node">
<title>Node21</title>
<g id="a_node21"><a xlink:href="General_8hpp.html" target="_top" xlink:title="Contains general functions and vector overloads independent of everything else.">
<polygon fill="white" stroke="black" points="227,-616.5 227,-635.5 303,-635.5 303,-616.5 227,-616.5"/>
<text text-anchor="middle" x="265" y="-623.5" font-family="Helvetica,sans-Serif" font-size="10.00">General.hpp</text>
</a>
</g>
</g>
<!-- Node5&#45;&gt;Node21 -->
<g id="edge28" class="edge">
<title>Node5&#45;&gt;Node21</title>
<path fill="none" stroke="midnightblue" d="M377.52,-668.91C350.26,-658.75 312.01,-644.51 287.87,-635.52"/>
<polygon fill="midnightblue" stroke="midnightblue" points="376.43,-672.23 387.02,-672.44 378.87,-665.67 376.43,-672.23"/>
</g>
<!-- Node7 -->
<g id="node7" class="node">
<title>Node7</title>
<g id="a_node7"><a xlink:href="Homology_8hpp.html" target="_top" xlink:title="Contains the Homology class and algorithms.">
<polygon fill="white" stroke="black" points="258,-504.5 258,-523.5 344,-523.5 344,-504.5 258,-504.5"/>
<text text-anchor="middle" x="301" y="-511.5" font-family="Helvetica,sans-Serif" font-size="10.00">Homology.hpp</text>
</a>
</g>
</g>
<!-- Node6&#45;&gt;Node7 -->
<g id="edge6" class="edge">
<title>Node6&#45;&gt;Node7</title>
<path fill="none" stroke="midnightblue" d="M394.35,-609.21C370.99,-585.63 327.78,-542.03 309.51,-523.59"/>
<polygon fill="midnightblue" stroke="midnightblue" points="391.92,-611.73 401.45,-616.37 396.89,-606.8 391.92,-611.73"/>
</g>
<!-- Node8 -->
<g id="node8" class="node">
<title>Node8</title>
<g id="a_node8"><a xlink:href="Identify_8hpp.html" target="_top" xlink:title="Contains the identification classes.">
<polygon fill="white" stroke="black" points="148.5,-448.5 148.5,-467.5 221.5,-467.5 221.5,-448.5 148.5,-448.5"/>
<text text-anchor="middle" x="185" y="-455.5" font-family="Helvetica,sans-Serif" font-size="10.00">Identify.hpp</text>
</a>
</g>
</g>
<!-- Node7&#45;&gt;Node8 -->
<g id="edge7" class="edge">
<title>Node7&#45;&gt;Node8</title>
<path fill="none" stroke="midnightblue" d="M273.28,-500.1C251.61,-490.01 222.1,-476.27 203.29,-467.52"/>
<polygon fill="midnightblue" stroke="midnightblue" points="272.08,-503.4 282.62,-504.44 275.03,-497.05 272.08,-503.4"/>
</g>
<!-- Node20 -->
<g id="node20" class="node">
<title>Node20</title>
<g id="a_node20"><a xlink:href="Levels_8hpp.html" target="_top" xlink:title="Contains the methods for transfering, restricting and act&#45;group&#45;acting.">
<polygon fill="white" stroke="black" points="253.5,-448.5 253.5,-467.5 322.5,-467.5 322.5,-448.5 253.5,-448.5"/>
<text text-anchor="middle" x="288" y="-455.5" font-family="Helvetica,sans-Serif" font-size="10.00">Levels.hpp</text>
</a>
</g>
</g>
<!-- Node7&#45;&gt;Node20 -->
<g id="edge26" class="edge">
<title>Node7&#45;&gt;Node20</title>
<path fill="none" stroke="midnightblue" d="M296.45,-494.1C294.29,-485.14 291.82,-474.86 290.11,-467.75"/>
<polygon fill="midnightblue" stroke="midnightblue" points="293.11,-495.18 298.85,-504.08 299.92,-493.54 293.11,-495.18"/>
</g>
<!-- Node9 -->
<g id="node9" class="node">
<title>Node9</title>
<g id="a_node9"><a xlink:href="Green_8hpp.html" target="_top" xlink:title="Contains the class and methods for multiplying generators.">
<polygon fill="white" stroke="black" points="136.5,-392.5 136.5,-411.5 203.5,-411.5 203.5,-392.5 136.5,-392.5"/>
<text text-anchor="middle" x="170" y="-399.5" font-family="Helvetica,sans-Serif" font-size="10.00">Green.hpp</text>
</a>
</g>
</g>
<!-- Node8&#45;&gt;Node9 -->
<g id="edge8" class="edge">
<title>Node8&#45;&gt;Node9</title>
<path fill="none" stroke="midnightblue" d="M179.83,-438.4C177.32,-429.36 174.43,-418.94 172.43,-411.75"/>
<polygon fill="midnightblue" stroke="midnightblue" points="176.47,-439.38 182.52,-448.08 183.22,-437.51 176.47,-439.38"/>
</g>
<!-- Node10 -->
<g id="node10" class="node">
<title>Node10</title>
<g id="a_node10"><a xlink:href="Massey_8hpp.html" target="_top" xlink:title="Contains the class and methods for Massey Products.">
<polygon fill="white" stroke="black" points="125,-336.5 125,-355.5 199,-355.5 199,-336.5 125,-336.5"/>
<text text-anchor="middle" x="162" y="-343.5" font-family="Helvetica,sans-Serif" font-size="10.00">Massey.hpp</text>
</a>
</g>
</g>
<!-- Node9&#45;&gt;Node10 -->
<g id="edge9" class="edge">
<title>Node9&#45;&gt;Node10</title>
<path fill="none" stroke="midnightblue" d="M167.2,-382.1C165.87,-373.14 164.35,-362.86 163.3,-355.75"/>
<polygon fill="midnightblue" stroke="midnightblue" points="163.75,-382.7 168.68,-392.08 170.68,-381.68 163.75,-382.7"/>
</g>
<!-- Node11 -->
<g id="node11" class="node">
<title>Node11</title>
<g id="a_node11"><a xlink:href="Point_8hpp.html" target="_top" xlink:title="Contains the computations for RO(G) homology of a point.">
<polygon fill="white" stroke="black" points="127,-280.5 127,-299.5 189,-299.5 189,-280.5 127,-280.5"/>
<text text-anchor="middle" x="158" y="-287.5" font-family="Helvetica,sans-Serif" font-size="10.00">Point.hpp</text>
</a>
</g>
</g>
<!-- Node10&#45;&gt;Node11 -->
<g id="edge10" class="edge">
<title>Node10&#45;&gt;Node11</title>
<path fill="none" stroke="midnightblue" d="M160.6,-326.1C159.94,-317.14 159.17,-306.86 158.65,-299.75"/>
<polygon fill="midnightblue" stroke="midnightblue" points="157.11,-326.37 161.34,-336.08 164.09,-325.85 157.11,-326.37"/>
</g>
<!-- Node12 -->
<g id="node12" class="node">
<title>Node12</title>
<g id="a_node12"><a xlink:href="Mult__Table_8hpp.html" target="_top" xlink:title="Contains the classes mackey::MultTableData and mackey::MultTable that form the multiplication table.">
<polygon fill="white" stroke="black" points="327,-224.5 327,-243.5 417,-243.5 417,-224.5 327,-224.5"/>
<text text-anchor="middle" x="372" y="-231.5" font-family="Helvetica,sans-Serif" font-size="10.00">Mult_Table.hpp</text>
</a>
</g>
</g>
<!-- Node11&#45;&gt;Node12 -->
<g id="edge11" class="edge">
<title>Node11&#45;&gt;Node12</title>
<path fill="none" stroke="midnightblue" d="M198.91,-278.68C239.27,-268.49 300.24,-253.11 338.02,-243.58"/>
<polygon fill="midnightblue" stroke="midnightblue" points="197.96,-275.31 189.12,-281.15 199.67,-282.09 197.96,-275.31"/>
</g>
<!-- Node17 -->
<g id="node17" class="node">
<title>Node17</title>
<g id="a_node17"><a xlink:href="Additive_8hpp.html" target="_top" xlink:title="Contains the class for presenting the additive structure of the RO(G) homology.">
<polygon fill="white" stroke="black" points="138,-56.5 138,-75.5 216,-75.5 216,-56.5 138,-56.5"/>
<text text-anchor="middle" x="177" y="-63.5" font-family="Helvetica,sans-Serif" font-size="10.00">Additive.hpp</text>
</a>
</g>
</g>
<!-- Node11&#45;&gt;Node17 -->
<g id="edge20" class="edge">
<title>Node11&#45;&gt;Node17</title>
<path fill="none" stroke="midnightblue" d="M159.59,-269.89C162.31,-237.44 168.01,-169.46 173,-112 174.1,-99.34 175.41,-84.68 176.22,-75.63"/>
<polygon fill="midnightblue" stroke="midnightblue" points="156.08,-269.9 158.74,-280.16 163.06,-270.48 156.08,-269.9"/>
</g>
<!-- Node18 -->
<g id="node18" class="node">
<title>Node18</title>
<g id="a_node18"><a xlink:href="Space_8hpp.html" target="_top" xlink:title="File containing the class for spaces other than points!">
<polygon fill="white" stroke="black" points="58.5,-224.5 58.5,-243.5 125.5,-243.5 125.5,-224.5 58.5,-224.5"/>
<text text-anchor="middle" x="92" y="-231.5" font-family="Helvetica,sans-Serif" font-size="10.00">Space.hpp</text>
</a>
</g>
</g>
<!-- Node11&#45;&gt;Node18 -->
<g id="edge23" class="edge">
<title>Node11&#45;&gt;Node18</title>
<path fill="none" stroke="midnightblue" d="M139.45,-273.82C127.62,-264.15 112.71,-251.95 102.8,-243.83"/>
<polygon fill="midnightblue" stroke="midnightblue" points="137.44,-276.7 147.4,-280.32 141.87,-271.28 137.44,-276.7"/>
</g>
<!-- Node13 -->
<g id="node13" class="node">
<title>Node13</title>
<g id="a_node13"><a xlink:href="Mult__Graph_8hpp.html" target="_top" xlink:title="Contains the multiplication graph.">
<polygon fill="white" stroke="black" points="326,-168.5 326,-187.5 420,-187.5 420,-168.5 326,-168.5"/>
<text text-anchor="middle" x="373" y="-175.5" font-family="Helvetica,sans-Serif" font-size="10.00">Mult_Graph.hpp</text>
</a>
</g>
</g>
<!-- Node12&#45;&gt;Node13 -->
<g id="edge12" class="edge">
<title>Node12&#45;&gt;Node13</title>
<path fill="none" stroke="midnightblue" d="M372.36,-213.8C372.52,-204.91 372.71,-194.78 372.84,-187.75"/>
<polygon fill="midnightblue" stroke="midnightblue" points="368.85,-214.02 372.17,-224.08 375.85,-214.15 368.85,-214.02"/>
</g>
<!-- Node14 -->
<g id="node14" class="node">
<title>Node14</title>
<g id="a_node14"><a xlink:href="Factorization_8hpp.html" target="_top" xlink:title="Contains the multiplication graph and the methods for factorizing generators.">
<polygon fill="white" stroke="black" points="282,-56.5 282,-75.5 382,-75.5 382,-56.5 282,-56.5"/>
<text text-anchor="middle" x="332" y="-63.5" font-family="Helvetica,sans-Serif" font-size="10.00">Factorization.hpp</text>
</a>
</g>
</g>
<!-- Node13&#45;&gt;Node14 -->
<g id="edge13" class="edge">
<title>Node13&#45;&gt;Node14</title>
<path fill="none" stroke="midnightblue" d="M400.9,-163.56C422.58,-151.21 446.94,-131.85 434,-112 421.58,-92.95 399.07,-81.9 378.36,-75.53"/>
<polygon fill="midnightblue" stroke="midnightblue" points="399.05,-160.59 391.9,-168.41 402.36,-166.75 399.05,-160.59"/>
</g>
<!-- Node15 -->
<g id="node15" class="node">
<title>Node15</title>
<g id="a_node15"><a xlink:href="Mult__Connectivity_8hpp.html" target="_top" xlink:title="Contains methods for the finding the connectivity of the multiplication graph should identification f...">
<polygon fill="white" stroke="black" points="181.5,-112.5 181.5,-131.5 306.5,-131.5 306.5,-112.5 181.5,-112.5"/>
<text text-anchor="middle" x="244" y="-119.5" font-family="Helvetica,sans-Serif" font-size="10.00">Mult_Connectivity.hpp</text>
</a>
</g>
</g>
<!-- Node13&#45;&gt;Node15 -->
<g id="edge16" class="edge">
<title>Node13&#45;&gt;Node15</title>
<path fill="none" stroke="midnightblue" d="M343.15,-164.5C318.96,-154.38 285.54,-140.39 264.34,-131.52"/>
<polygon fill="midnightblue" stroke="midnightblue" points="341.98,-167.81 352.56,-168.44 344.69,-161.35 341.98,-167.81"/>
</g>
<!-- Node16 -->
<g id="node16" class="node">
<title>Node16</title>
<g id="a_node16"><a xlink:href="Mult__Identify_8hpp.html" target="_top" xlink:title="Contains extra identification methods for the multiplication graph.">
<polygon fill="white" stroke="black" points="325,-112.5 325,-131.5 425,-131.5 425,-112.5 325,-112.5"/>
<text text-anchor="middle" x="375" y="-119.5" font-family="Helvetica,sans-Serif" font-size="10.00">Mult_Identify.hpp</text>
</a>
</g>
</g>
<!-- Node13&#45;&gt;Node16 -->
<g id="edge18" class="edge">
<title>Node13&#45;&gt;Node16</title>
<path fill="none" stroke="midnightblue" d="M373.71,-157.8C374.04,-148.91 374.42,-138.78 374.68,-131.75"/>
<polygon fill="midnightblue" stroke="midnightblue" points="370.2,-157.96 373.33,-168.08 377.2,-158.22 370.2,-157.96"/>
</g>
<!-- Node14&#45;&gt;Node3 -->
<g id="edge14" class="edge">
<title>Node14&#45;&gt;Node3</title>
<path fill="none" stroke="midnightblue" d="M302.84,-52.5C279.22,-42.38 246.57,-28.39 225.87,-19.52"/>
<polygon fill="midnightblue" stroke="midnightblue" points="301.46,-55.72 312.03,-56.44 304.22,-49.29 301.46,-55.72"/>
</g>
<!-- Node14&#45;&gt;Node4 -->
<g id="edge15" class="edge">
<title>Node14&#45;&gt;Node4</title>
<path fill="none" stroke="midnightblue" d="M332,-45.8C332,-36.91 332,-26.78 332,-19.75"/>
<polygon fill="midnightblue" stroke="midnightblue" points="328.5,-46.08 332,-56.08 335.5,-46.08 328.5,-46.08"/>
</g>
<!-- Node15&#45;&gt;Node3 -->
<g id="edge17" class="edge">
<title>Node15&#45;&gt;Node3</title>
<path fill="none" stroke="midnightblue" d="M239.28,-102.78C235.73,-89.65 230.54,-71.58 225,-56 220.39,-43.06 214.01,-28.47 209.94,-19.51"/>
<polygon fill="midnightblue" stroke="midnightblue" points="235.9,-103.71 241.85,-112.49 242.67,-101.92 235.9,-103.71"/>
</g>
<!-- Node16&#45;&gt;Node14 -->
<g id="edge19" class="edge">
<title>Node16&#45;&gt;Node14</title>
<path fill="none" stroke="midnightblue" d="M361.58,-104.14C354.09,-94.74 345.06,-83.4 338.97,-75.75"/>
<polygon fill="midnightblue" stroke="midnightblue" points="358.93,-106.44 367.9,-112.08 364.41,-102.08 358.93,-106.44"/>
</g>
<!-- Node17&#45;&gt;Node3 -->
<g id="edge21" class="edge">
<title>Node17&#45;&gt;Node3</title>
<path fill="none" stroke="midnightblue" d="M186.68,-46.98C191.6,-37.82 197.36,-27.09 201.3,-19.75"/>
<polygon fill="midnightblue" stroke="midnightblue" points="183.44,-45.62 181.79,-56.08 189.6,-48.93 183.44,-45.62"/>
</g>
<!-- Node17&#45;&gt;Node4 -->
<g id="edge22" class="edge">
<title>Node17&#45;&gt;Node4</title>
<path fill="none" stroke="midnightblue" d="M211.33,-53.04C240.5,-42.88 281.64,-28.55 307.55,-19.52"/>
<polygon fill="midnightblue" stroke="midnightblue" points="209.85,-49.85 201.56,-56.44 212.16,-56.46 209.85,-49.85"/>
</g>
<!-- Node19 -->
<g id="node19" class="node">
<title>Node19</title>
<g id="a_node19"><a xlink:href="BC4S2_8hpp.html" target="_top" xlink:title=" ">
<polygon fill="white" stroke="black" points="56.5,-168.5 56.5,-187.5 125.5,-187.5 125.5,-168.5 56.5,-168.5"/>
<text text-anchor="middle" x="91" y="-175.5" font-family="Helvetica,sans-Serif" font-size="10.00">BC4S2.hpp</text>
</a>
</g>
</g>
<!-- Node18&#45;&gt;Node19 -->
<g id="edge24" class="edge">
<title>Node18&#45;&gt;Node19</title>
<path fill="none" stroke="midnightblue" d="M91.64,-213.8C91.48,-204.91 91.29,-194.78 91.16,-187.75"/>
<polygon fill="midnightblue" stroke="midnightblue" points="88.15,-214.15 91.83,-224.08 95.15,-214.02 88.15,-214.15"/>
</g>
<!-- Node19&#45;&gt;Node3 -->
<g id="edge25" class="edge">
<title>Node19&#45;&gt;Node3</title>
<path fill="none" stroke="midnightblue" d="M92.69,-158.21C95.85,-132.6 104.72,-86.46 129,-56 142.71,-38.81 164.9,-26.84 181.95,-19.6"/>
<polygon fill="midnightblue" stroke="midnightblue" points="89.18,-158.08 91.6,-168.4 96.14,-158.83 89.18,-158.08"/>
</g>
<!-- Node20&#45;&gt;Node9 -->
<g id="edge27" class="edge">
<title>Node20&#45;&gt;Node9</title>
<path fill="none" stroke="midnightblue" d="M260.1,-444.23C238.03,-434.13 207.82,-420.31 188.61,-411.52"/>
<polygon fill="midnightblue" stroke="midnightblue" points="258.75,-447.46 269.3,-448.44 261.67,-441.1 258.75,-447.46"/>
</g>
<!-- Node21&#45;&gt;Node7 -->
<g id="edge39" class="edge">
<title>Node21&#45;&gt;Node7</title>
<path fill="none" stroke="midnightblue" d="M281.03,-608.91C287.92,-600.92 295.23,-590.69 299,-580 305.76,-560.83 304,-536.49 302.36,-523.72"/>
<polygon fill="midnightblue" stroke="midnightblue" points="278.38,-606.63 274.19,-616.36 283.53,-611.37 278.38,-606.63"/>
</g>
<!-- Node21&#45;&gt;Node12 -->
<g id="edge31" class="edge">
<title>Node21&#45;&gt;Node12</title>
<path fill="none" stroke="midnightblue" d="M292.49,-611.77C324.2,-594.38 372,-560.59 372,-515 372,-515 372,-515 372,-345 372,-307.19 372,-262.06 372,-243.56"/>
<polygon fill="midnightblue" stroke="midnightblue" points="290.85,-608.68 283.64,-616.44 294.12,-614.87 290.85,-608.68"/>
</g>
<!-- Node22 -->
<g id="node22" class="node">
<title>Node22</title>
<g id="a_node22"><a xlink:href="Box_8hpp.html" target="_top" xlink:title="Contains the construction of box products of Chains.">
<polygon fill="white" stroke="black" points="56,-504.5 56,-523.5 112,-523.5 112,-504.5 56,-504.5"/>
<text text-anchor="middle" x="84" y="-511.5" font-family="Helvetica,sans-Serif" font-size="10.00">Box.hpp</text>
</a>
</g>
</g>
<!-- Node21&#45;&gt;Node22 -->
<g id="edge29" class="edge">
<title>Node21&#45;&gt;Node22</title>
<path fill="none" stroke="midnightblue" d="M216.82,-614.21C192.09,-607.14 162.33,-596.16 139,-580 116.64,-564.51 98.01,-537.71 89.3,-523.86"/>
<polygon fill="midnightblue" stroke="midnightblue" points="216.16,-617.66 226.73,-616.91 218.01,-610.91 216.16,-617.66"/>
</g>
<!-- Node23 -->
<g id="node23" class="node">
<title>Node23</title>
<g id="a_node23"><a xlink:href="C2n_8hpp.html" target="_top" xlink:title="Defines the groups .">
<polygon fill="white" stroke="black" points="0,-392.5 0,-411.5 56,-411.5 56,-392.5 0,-392.5"/>
<text text-anchor="middle" x="28" y="-399.5" font-family="Helvetica,sans-Serif" font-size="10.00">C2n.hpp</text>
</a>
</g>
</g>
<!-- Node21&#45;&gt;Node23 -->
<g id="edge32" class="edge">
<title>Node21&#45;&gt;Node23</title>
<path fill="none" stroke="midnightblue" d="M217.01,-618.84C164.01,-609.11 81.59,-584.57 47,-524 25.6,-486.51 26.19,-432.39 27.35,-411.59"/>
<polygon fill="midnightblue" stroke="midnightblue" points="216.42,-622.29 226.87,-620.54 217.61,-615.39 216.42,-622.29"/>
</g>
<!-- Node24 -->
<g id="node24" class="node">
<title>Node24</title>
<g id="a_node24"><a xlink:href="C4_8hpp.html" target="_top" xlink:title="Defines group .">
<polygon fill="white" stroke="black" points="240,-560.5 240,-579.5 290,-579.5 290,-560.5 240,-560.5"/>
<text text-anchor="middle" x="265" y="-567.5" font-family="Helvetica,sans-Serif" font-size="10.00">C4.hpp</text>
</a>
</g>
</g>
<!-- Node21&#45;&gt;Node24 -->
<g id="edge34" class="edge">
<title>Node21&#45;&gt;Node24</title>
<path fill="none" stroke="midnightblue" d="M265,-605.8C265,-596.91 265,-586.78 265,-579.75"/>
<polygon fill="midnightblue" stroke="midnightblue" points="261.5,-606.08 265,-616.08 268.5,-606.08 261.5,-606.08"/>
</g>
<!-- Node25 -->
<g id="node25" class="node">
<title>Node25</title>
<g id="a_node25"><a xlink:href="Abelian_8hpp.html" target="_top" xlink:title="Contains the methods for finding the automorphisms of finitely generated abelian groups.">
<polygon fill="white" stroke="black" points="148,-560.5 148,-579.5 222,-579.5 222,-560.5 148,-560.5"/>
<text text-anchor="middle" x="185" y="-567.5" font-family="Helvetica,sans-Serif" font-size="10.00">Abelian.hpp</text>
</a>
</g>
</g>
<!-- Node21&#45;&gt;Node25 -->
<g id="edge35" class="edge">
<title>Node21&#45;&gt;Node25</title>
<path fill="none" stroke="midnightblue" d="M243.7,-610.62C229.08,-600.76 210.17,-587.99 197.82,-579.65"/>
<polygon fill="midnightblue" stroke="midnightblue" points="241.9,-613.63 252.15,-616.32 245.82,-607.83 241.9,-613.63"/>
</g>
<!-- Node22&#45;&gt;Node9 -->
<g id="edge30" class="edge">
<title>Node22&#45;&gt;Node9</title>
<path fill="none" stroke="midnightblue" d="M97.08,-496.27C115.67,-472.49 149.06,-429.79 163.28,-411.59"/>
<polygon fill="midnightblue" stroke="midnightblue" points="94.15,-494.33 90.75,-504.37 99.66,-498.65 94.15,-494.33"/>
</g>
<!-- Node23&#45;&gt;Node3 -->
<g id="edge33" class="edge">
<title>Node23&#45;&gt;Node3</title>
<path fill="none" stroke="midnightblue" d="M28,-382.25C28,-360.36 28,-323.05 28,-291 28,-291 28,-291 28,-121 28,-55.43 116.49,-27.64 168.69,-16.95"/>
<polygon fill="midnightblue" stroke="midnightblue" points="24.5,-382.44 28,-392.44 31.5,-382.44 24.5,-382.44"/>
</g>
<!-- Node25&#45;&gt;Node7 -->
<g id="edge36" class="edge">
<title>Node25&#45;&gt;Node7</title>
<path fill="none" stroke="midnightblue" d="M212.72,-556.1C234.39,-546.01 263.9,-532.27 282.71,-523.52"/>
<polygon fill="midnightblue" stroke="midnightblue" points="210.97,-553.05 203.38,-560.44 213.92,-559.4 210.97,-553.05"/>
</g>
<!-- Node26 -->
<g id="node26" class="node">
<title>Node26</title>
<g id="a_node26"><a xlink:href="MackeyFunctor_8hpp.html" target="_top" xlink:title="Contains the class describing Mackey Functors.">
<polygon fill="white" stroke="black" points="130,-504.5 130,-523.5 240,-523.5 240,-504.5 130,-504.5"/>
<text text-anchor="middle" x="185" y="-511.5" font-family="Helvetica,sans-Serif" font-size="10.00">MackeyFunctor.hpp</text>
</a>
</g>
</g>
<!-- Node25&#45;&gt;Node26 -->
<g id="edge37" class="edge">
<title>Node25&#45;&gt;Node26</title>
<path fill="none" stroke="midnightblue" d="M185,-549.8C185,-540.91 185,-530.78 185,-523.75"/>
<polygon fill="midnightblue" stroke="midnightblue" points="181.5,-550.08 185,-560.08 188.5,-550.08 181.5,-550.08"/>
</g>
<!-- Node26&#45;&gt;Node8 -->
<g id="edge38" class="edge">
<title>Node26&#45;&gt;Node8</title>
<path fill="none" stroke="midnightblue" d="M185,-493.8C185,-484.91 185,-474.78 185,-467.75"/>
<polygon fill="midnightblue" stroke="midnightblue" points="181.5,-494.08 185,-504.08 188.5,-494.08 181.5,-494.08"/>
</g>
</g>
</svg>
        <g id="navigator" transform="translate(0 0)" fill="#404254">
                <rect fill="#f2f5e9" fill-opacity="0.5" stroke="#606060" stroke-width=".5" x="0" y="0" width="60" height="60"/>
                <use id="zoomplus" xlink:href="#zoomPlus" x="17" y="9" onmousedown="handleZoom(evt,'in')"/>
                <use id="zoomminus" xlink:href="#zoomMin" x="42" y="9" onmousedown="handleZoom(evt,'out')"/>
                <use id="reset" xlink:href="#resetDef" x="30" y="36" onmousedown="handleReset()"/>
                <g id="arrowUp" xlink:href="#dirArrow" transform="translate(30 24)" onmousedown="handlePan(0,-1)">
                  <use xlink:href="#rim" fill="#404040">
                        <set attributeName="fill" to="#808080" begin="arrowUp.mouseover" end="arrowUp.mouseout"/>
                  </use>
                  <path fill="none" stroke="white" stroke-width="1.5" d="M0,-3.0v7 M-2.5,-0.5L0,-3.0L2.5,-0.5"/>
                </g>
                <g id="arrowRight" xlink:href="#dirArrow" transform="rotate(90) translate(36 -43)" onmousedown="handlePan(1,0)">
                  <use xlink:href="#rim" fill="#404040">
                        <set attributeName="fill" to="#808080" begin="arrowRight.mouseover" end="arrowRight.mouseout"/>
                  </use>
                  <path fill="none" stroke="white" stroke-width="1.5" d="M0,-3.0v7 M-2.5,-0.5L0,-3.0L2.5,-0.5"/>
                </g>
                <g id="arrowDown" xlink:href="#dirArrow" transform="rotate(180) translate(-30 -48)" onmousedown="handlePan(0,1)">
                  <use xlink:href="#rim" fill="#404040">
                        <set attributeName="fill" to="#808080" begin="arrowDown.mouseover" end="arrowDown.mouseout"/>
                  </use>
                  <path fill="none" stroke="white" stroke-width="1.5" d="M0,-3.0v7 M-2.5,-0.5L0,-3.0L2.5,-0.5"/>
                </g>
                <g id="arrowLeft" xlink:href="#dirArrow" transform="rotate(270) translate(-36 17)" onmousedown="handlePan(-1,0)">
                  <use xlink:href="#rim" fill="#404040">
                        <set attributeName="fill" to="#808080" begin="arrowLeft.mouseover" end="arrowLeft.mouseout"/>
                  </use>
                  <path fill="none" stroke="white" stroke-width="1.5" d="M0,-3.0v7 M-2.5,-0.5L0,-3.0L2.5,-0.5"/>
                </g>
        </g>
        <svg viewBox="0 0 15 15" width="100%" height="30px" preserveAspectRatio="xMaxYMin meet">
         <g id="arrow_out" transform="scale(0.3 0.3)">
          <a xlink:href="SFINAE_8hpp__dep__incl_org.svg" target="_base">
           <rect id="button" ry="5" rx="5" y="6" x="6" height="38" width="38"
                fill="#f2f5e9" fill-opacity="0.5" stroke="#606060" stroke-width="1.0"/>
           <path id="arrow"
             d="M 11.500037,31.436501 C 11.940474,20.09759 22.043105,11.32322 32.158766,21.979434 L 37.068811,17.246167 C 37.068811,17.246167 37.088388,32 37.088388,32 L 22.160133,31.978069 C 22.160133,31.978069 26.997745,27.140456 26.997745,27.140456 C 18.528582,18.264221 13.291696,25.230495 11.500037,31.436501 z"
             style="fill:#404040;"/>
          </a>
         </g>
        </svg>
</svg>
