<?xml version="1.0" encoding="UTF-8" standalone="no"?>
<!DOCTYPE svg PUBLIC "-//W3C//DTD SVG 1.1//EN"
 "http://www.w3.org/Graphics/SVG/1.1/DTD/svg11.dtd">
<!-- Generated by graphviz version 2.43.0 (0)
 -->
<!-- Title: SFINAE.hpp Pages: 1 -->
<svg width="493pt" height="700pt"
 viewBox="0.00 0.00 493.00 700.00" xmlns="http://www.w3.org/2000/svg" xmlns:xlink="http://www.w3.org/1999/xlink">
<g id="graph0" class="graph" transform="scale(1 1) rotate(0) translate(4 696)">
<title>SFINAE.hpp</title>
<polygon fill="white" stroke="transparent" points="-4,4 -4,-696 489,-696 489,4 -4,4"/>
<!-- Node1 -->
<g id="node1" class="node">
<title>Node1</title>
<g id="a_node1"><a xlink:title="Contains all the SFINAE tricks.">
<polygon fill="#bfbfbf" stroke="black" points="0.5,-672.5 0.5,-691.5 73.5,-691.5 73.5,-672.5 0.5,-672.5"/>
<text text-anchor="middle" x="37" y="-679.5" font-family="Helvetica,sans-Serif" font-size="10.00">SFINAE.hpp</text>
</a>
</g>
</g>
<!-- Node2 -->
<g id="node2" class="node">
<title>Node2</title>
<g id="a_node2"><a xlink:href="Z__n_8hpp.html" target="_top" xlink:title="Contains the class for Z/N coefficients.">
<polygon fill="white" stroke="black" points="0,-56.5 0,-75.5 56,-75.5 56,-56.5 0,-56.5"/>
<text text-anchor="middle" x="28" y="-63.5" font-family="Helvetica,sans-Serif" font-size="10.00">Z_n.hpp</text>
</a>
</g>
</g>
<!-- Node1&#45;&gt;Node2 -->
<g id="edge1" class="edge">
<title>Node1&#45;&gt;Node2</title>
<path fill="none" stroke="midnightblue" d="M28.47,-663.28C18.99,-641.92 5,-604.67 5,-571 5,-571 5,-571 5,-177 5,-138.56 18.62,-94.14 24.9,-75.71"/>
<polygon fill="midnightblue" stroke="midnightblue" points="25.32,-664.79 32.68,-672.41 31.67,-661.86 25.32,-664.79"/>
</g>
<!-- Node5 -->
<g id="node5" class="node">
<title>Node5</title>
<g id="a_node5"><a xlink:href="Aliases_8hpp.html" target="_top" xlink:title="Contains general template aliases.">
<polygon fill="white" stroke="black" points="35.5,-616.5 35.5,-635.5 108.5,-635.5 108.5,-616.5 35.5,-616.5"/>
<text text-anchor="middle" x="72" y="-623.5" font-family="Helvetica,sans-Serif" font-size="10.00">Aliases.hpp</text>
</a>
</g>
</g>
<!-- Node1&#45;&gt;Node5 -->
<g id="edge4" class="edge">
<title>Node1&#45;&gt;Node5</title>
<path fill="none" stroke="midnightblue" d="M48.3,-663.57C54.32,-654.27 61.47,-643.25 66.33,-635.75"/>
<polygon fill="midnightblue" stroke="midnightblue" points="45.28,-661.79 42.78,-672.08 51.16,-665.6 45.28,-661.79"/>
</g>
<!-- Node3 -->
<g id="node3" class="node">
<title>Node3</title>
<g id="a_node3"><a xlink:href="Mackey_8hpp.html" target="_top" xlink:title="Includes the entire library.">
<polygon fill="white" stroke="black" points="197,-0.5 197,-19.5 271,-19.5 271,-0.5 197,-0.5"/>
<text text-anchor="middle" x="234" y="-7.5" font-family="Helvetica,sans-Serif" font-size="10.00">Mackey.hpp</text>
</a>
</g>
</g>
<!-- Node2&#45;&gt;Node3 -->
<g id="edge2" class="edge">
<title>Node2&#45;&gt;Node3</title>
<path fill="none" stroke="midnightblue" d="M66.1,-55.01C104.96,-44.83 164.63,-29.18 201.38,-19.55"/>
<polygon fill="midnightblue" stroke="midnightblue" points="65,-51.68 56.21,-57.6 66.77,-58.45 65,-51.68"/>
</g>
<!-- Node4 -->
<g id="node4" class="node">
<title>Node4</title>
<g id="a_node4"><a xlink:href="Cerealizer_8hpp.html" target="_top" xlink:title="Contains the methods for serializing the results of our computations (before their interpretation) vi...">
<polygon fill="white" stroke="black" points="70,-0.5 70,-19.5 156,-19.5 156,-0.5 70,-0.5"/>
<text text-anchor="middle" x="113" y="-7.5" font-family="Helvetica,sans-Serif" font-size="10.00">Cerealizer.hpp</text>
</a>
</g>
</g>
<!-- Node2&#45;&gt;Node4 -->
<g id="edge3" class="edge">
<title>Node2&#45;&gt;Node4</title>
<path fill="none" stroke="midnightblue" d="M50.19,-50.9C65.78,-41 86.13,-28.07 99.38,-19.65"/>
<polygon fill="midnightblue" stroke="midnightblue" points="48.22,-48.01 41.66,-56.32 51.97,-53.92 48.22,-48.01"/>
</g>
<!-- Node6 -->
<g id="node6" class="node">
<title>Node6</title>
<g id="a_node6"><a xlink:href="Smith_8hpp.html" target="_top" xlink:title="Contains the base class for all Smith implementations.">
<polygon fill="white" stroke="black" points="39,-560.5 39,-579.5 105,-579.5 105,-560.5 39,-560.5"/>
<text text-anchor="middle" x="72" y="-567.5" font-family="Helvetica,sans-Serif" font-size="10.00">Smith.hpp</text>
</a>
</g>
</g>
<!-- Node5&#45;&gt;Node6 -->
<g id="edge5" class="edge">
<title>Node5&#45;&gt;Node6</title>
<path fill="none" stroke="midnightblue" d="M72,-605.8C72,-596.91 72,-586.78 72,-579.75"/>
<polygon fill="midnightblue" stroke="midnightblue" points="68.5,-606.08 72,-616.08 75.5,-606.08 68.5,-606.08"/>
</g>
<!-- Node20 -->
<g id="node20" class="node">
<title>Node20</title>
<g id="a_node20"><a xlink:href="General_8hpp.html" target="_top" xlink:title="Contains general functions and vector overloads independent of everything else.">
<polygon fill="white" stroke="black" points="232,-560.5 232,-579.5 308,-579.5 308,-560.5 232,-560.5"/>
<text text-anchor="middle" x="270" y="-567.5" font-family="Helvetica,sans-Serif" font-size="10.00">General.hpp</text>
</a>
</g>
</g>
<!-- Node5&#45;&gt;Node20 -->
<g id="edge26" class="edge">
<title>Node5&#45;&gt;Node20</title>
<path fill="none" stroke="midnightblue" d="M113.44,-613.7C150.81,-603.51 204.94,-588.74 238.77,-579.52"/>
<polygon fill="midnightblue" stroke="midnightblue" points="112.1,-610.44 103.37,-616.44 113.94,-617.19 112.1,-610.44"/>
</g>
<!-- Node7 -->
<g id="node7" class="node">
<title>Node7</title>
<g id="a_node7"><a xlink:href="Homology_8hpp.html" target="_top" xlink:title="Contains the Homology class and algorithms.">
<polygon fill="white" stroke="black" points="161,-448.5 161,-467.5 247,-467.5 247,-448.5 161,-448.5"/>
<text text-anchor="middle" x="204" y="-455.5" font-family="Helvetica,sans-Serif" font-size="10.00">Homology.hpp</text>
</a>
</g>
</g>
<!-- Node6&#45;&gt;Node7 -->
<g id="edge6" class="edge">
<title>Node6&#45;&gt;Node7</title>
<path fill="none" stroke="midnightblue" d="M73.14,-550.1C74.95,-535.84 79.51,-516.63 91,-504 109.12,-484.08 137.22,-472.84 160.86,-466.58"/>
<polygon fill="midnightblue" stroke="midnightblue" points="69.64,-549.99 72.21,-560.26 76.61,-550.63 69.64,-549.99"/>
</g>
<!-- Node8 -->
<g id="node8" class="node">
<title>Node8</title>
<g id="a_node8"><a xlink:href="Identify_8hpp.html" target="_top" xlink:title="Contains the identification classes.">
<polygon fill="white" stroke="black" points="78.5,-392.5 78.5,-411.5 151.5,-411.5 151.5,-392.5 78.5,-392.5"/>
<text text-anchor="middle" x="115" y="-399.5" font-family="Helvetica,sans-Serif" font-size="10.00">Identify.hpp</text>
</a>
</g>
</g>
<!-- Node7&#45;&gt;Node8 -->
<g id="edge7" class="edge">
<title>Node7&#45;&gt;Node8</title>
<path fill="none" stroke="midnightblue" d="M180.76,-442.9C164.44,-433 143.13,-420.07 129.26,-411.65"/>
<polygon fill="midnightblue" stroke="midnightblue" points="179.34,-446.13 189.7,-448.32 182.97,-440.14 179.34,-446.13"/>
</g>
<!-- Node19 -->
<g id="node19" class="node">
<title>Node19</title>
<g id="a_node19"><a xlink:href="Levels_8hpp.html" target="_top" xlink:title="Contains the methods for transfering, restricting and Weyl&#45;group&#45;acting.">
<polygon fill="white" stroke="black" points="169.5,-392.5 169.5,-411.5 238.5,-411.5 238.5,-392.5 169.5,-392.5"/>
<text text-anchor="middle" x="204" y="-399.5" font-family="Helvetica,sans-Serif" font-size="10.00">Levels.hpp</text>
</a>
</g>
</g>
<!-- Node7&#45;&gt;Node19 -->
<g id="edge24" class="edge">
<title>Node7&#45;&gt;Node19</title>
<path fill="none" stroke="midnightblue" d="M204,-437.8C204,-428.91 204,-418.78 204,-411.75"/>
<polygon fill="midnightblue" stroke="midnightblue" points="200.5,-438.08 204,-448.08 207.5,-438.08 200.5,-438.08"/>
</g>
<!-- Node9 -->
<g id="node9" class="node">
<title>Node9</title>
<g id="a_node9"><a xlink:href="Green_8hpp.html" target="_top" xlink:title="Contains the class and methods for multiplying generators.">
<polygon fill="white" stroke="black" points="158.5,-336.5 158.5,-355.5 225.5,-355.5 225.5,-336.5 158.5,-336.5"/>
<text text-anchor="middle" x="192" y="-343.5" font-family="Helvetica,sans-Serif" font-size="10.00">Green.hpp</text>
</a>
</g>
</g>
<!-- Node8&#45;&gt;Node9 -->
<g id="edge8" class="edge">
<title>Node8&#45;&gt;Node9</title>
<path fill="none" stroke="midnightblue" d="M135.9,-386.34C149.91,-376.52 167.88,-363.91 179.66,-355.65"/>
<polygon fill="midnightblue" stroke="midnightblue" points="133.55,-383.72 127.37,-392.32 137.57,-389.45 133.55,-383.72"/>
</g>
<!-- Node10 -->
<g id="node10" class="node">
<title>Node10</title>
<g id="a_node10"><a xlink:href="Massey_8hpp.html" target="_top" xlink:title="Contains the class and methods for Massey Products.">
<polygon fill="white" stroke="black" points="152,-280.5 152,-299.5 226,-299.5 226,-280.5 152,-280.5"/>
<text text-anchor="middle" x="189" y="-287.5" font-family="Helvetica,sans-Serif" font-size="10.00">Massey.hpp</text>
</a>
</g>
</g>
<!-- Node9&#45;&gt;Node10 -->
<g id="edge9" class="edge">
<title>Node9&#45;&gt;Node10</title>
<path fill="none" stroke="midnightblue" d="M190.93,-325.8C190.44,-316.91 189.88,-306.78 189.49,-299.75"/>
<polygon fill="midnightblue" stroke="midnightblue" points="187.46,-326.29 191.5,-336.08 194.44,-325.9 187.46,-326.29"/>
</g>
<!-- Node11 -->
<g id="node11" class="node">
<title>Node11</title>
<g id="a_node11"><a xlink:href="Point_8hpp.html" target="_top" xlink:title="Contains the computations for RO(G) homology of a point.">
<polygon fill="white" stroke="black" points="157,-224.5 157,-243.5 219,-243.5 219,-224.5 157,-224.5"/>
<text text-anchor="middle" x="188" y="-231.5" font-family="Helvetica,sans-Serif" font-size="10.00">Point.hpp</text>
</a>
</g>
</g>
<!-- Node10&#45;&gt;Node11 -->
<g id="edge10" class="edge">
<title>Node10&#45;&gt;Node11</title>
<path fill="none" stroke="midnightblue" d="M188.64,-269.8C188.48,-260.91 188.29,-250.78 188.16,-243.75"/>
<polygon fill="midnightblue" stroke="midnightblue" points="185.15,-270.15 188.83,-280.08 192.15,-270.02 185.15,-270.15"/>
</g>
<!-- Node12 -->
<g id="node12" class="node">
<title>Node12</title>
<g id="a_node12"><a xlink:href="Mult__Table_8hpp.html" target="_top" xlink:title="Contains the class and methods to form the multiplication table.">
<polygon fill="white" stroke="black" points="270,-168.5 270,-187.5 360,-187.5 360,-168.5 270,-168.5"/>
<text text-anchor="middle" x="315" y="-175.5" font-family="Helvetica,sans-Serif" font-size="10.00">Mult_Table.hpp</text>
</a>
</g>
</g>
<!-- Node11&#45;&gt;Node12 -->
<g id="edge11" class="edge">
<title>Node11&#45;&gt;Node12</title>
<path fill="none" stroke="midnightblue" d="M217.39,-220.5C241.2,-210.38 274.11,-196.39 294.97,-187.52"/>
<polygon fill="midnightblue" stroke="midnightblue" points="215.96,-217.31 208.12,-224.44 218.7,-223.75 215.96,-217.31"/>
</g>
<!-- Node16 -->
<g id="node16" class="node">
<title>Node16</title>
<g id="a_node16"><a xlink:href="Additive_8hpp.html" target="_top" xlink:title="Contains the class for presenting the additive structure of the RO(G) homology.">
<polygon fill="white" stroke="black" points="74,-56.5 74,-75.5 152,-75.5 152,-56.5 74,-56.5"/>
<text text-anchor="middle" x="113" y="-63.5" font-family="Helvetica,sans-Serif" font-size="10.00">Additive.hpp</text>
</a>
</g>
</g>
<!-- Node11&#45;&gt;Node16 -->
<g id="edge18" class="edge">
<title>Node11&#45;&gt;Node16</title>
<path fill="none" stroke="midnightblue" d="M166.43,-218.09C156.63,-210.24 145.74,-199.79 139,-188 117.34,-150.14 113.68,-96.24 113.1,-75.54"/>
<polygon fill="midnightblue" stroke="midnightblue" points="164.54,-221.06 174.63,-224.3 168.76,-215.47 164.54,-221.06"/>
</g>
<!-- Node17 -->
<g id="node17" class="node">
<title>Node17</title>
<g id="a_node17"><a xlink:href="Space_8hpp.html" target="_top" xlink:title="File containing the class for spaces other than points!">
<polygon fill="white" stroke="black" points="148.5,-168.5 148.5,-187.5 215.5,-187.5 215.5,-168.5 148.5,-168.5"/>
<text text-anchor="middle" x="182" y="-175.5" font-family="Helvetica,sans-Serif" font-size="10.00">Space.hpp</text>
</a>
</g>
</g>
<!-- Node11&#45;&gt;Node17 -->
<g id="edge21" class="edge">
<title>Node11&#45;&gt;Node17</title>
<path fill="none" stroke="midnightblue" d="M185.9,-214.1C184.9,-205.14 183.76,-194.86 182.97,-187.75"/>
<polygon fill="midnightblue" stroke="midnightblue" points="182.43,-214.53 187.01,-224.08 189.38,-213.76 182.43,-214.53"/>
</g>
<!-- Node13 -->
<g id="node13" class="node">
<title>Node13</title>
<g id="a_node13"><a xlink:href="Mult__Graph_8hpp.html" target="_top" xlink:title="Contains the multiplication graph.">
<polygon fill="white" stroke="black" points="268,-112.5 268,-131.5 362,-131.5 362,-112.5 268,-112.5"/>
<text text-anchor="middle" x="315" y="-119.5" font-family="Helvetica,sans-Serif" font-size="10.00">Mult_Graph.hpp</text>
</a>
</g>
</g>
<!-- Node12&#45;&gt;Node13 -->
<g id="edge12" class="edge">
<title>Node12&#45;&gt;Node13</title>
<path fill="none" stroke="midnightblue" d="M315,-157.8C315,-148.91 315,-138.78 315,-131.75"/>
<polygon fill="midnightblue" stroke="midnightblue" points="311.5,-158.08 315,-168.08 318.5,-158.08 311.5,-158.08"/>
</g>
<!-- Node14 -->
<g id="node14" class="node">
<title>Node14</title>
<g id="a_node14"><a xlink:href="Factorization_8hpp.html" target="_top" xlink:title="Contains the multiplication graph and the methods for factorizing generators.">
<polygon fill="white" stroke="black" points="208,-56.5 208,-75.5 308,-75.5 308,-56.5 208,-56.5"/>
<text text-anchor="middle" x="258" y="-63.5" font-family="Helvetica,sans-Serif" font-size="10.00">Factorization.hpp</text>
</a>
</g>
</g>
<!-- Node13&#45;&gt;Node14 -->
<g id="edge13" class="edge">
<title>Node13&#45;&gt;Node14</title>
<path fill="none" stroke="midnightblue" d="M298.38,-105.25C288.27,-95.67 275.72,-83.79 267.32,-75.83"/>
<polygon fill="midnightblue" stroke="midnightblue" points="296.18,-107.99 305.84,-112.32 300.99,-102.91 296.18,-107.99"/>
</g>
<!-- Node15 -->
<g id="node15" class="node">
<title>Node15</title>
<g id="a_node15"><a xlink:href="Mult__Connectivity_8hpp.html" target="_top" xlink:title="Contains methods for the finding the connectivity of the multiplication graph should identification f...">
<polygon fill="white" stroke="black" points="326.5,-56.5 326.5,-75.5 451.5,-75.5 451.5,-56.5 326.5,-56.5"/>
<text text-anchor="middle" x="389" y="-63.5" font-family="Helvetica,sans-Serif" font-size="10.00">Mult_Connectivity.hpp</text>
</a>
</g>
</g>
<!-- Node13&#45;&gt;Node15 -->
<g id="edge16" class="edge">
<title>Node13&#45;&gt;Node15</title>
<path fill="none" stroke="midnightblue" d="M335.03,-106.38C348.41,-96.62 365.56,-84.11 376.89,-75.83"/>
<polygon fill="midnightblue" stroke="midnightblue" points="332.9,-103.6 326.89,-112.32 337.03,-109.26 332.9,-103.6"/>
</g>
<!-- Node14&#45;&gt;Node3 -->
<g id="edge14" class="edge">
<title>Node14&#45;&gt;Node3</title>
<path fill="none" stroke="midnightblue" d="M249.86,-46.69C245.82,-37.59 241.12,-27.01 237.89,-19.75"/>
<polygon fill="midnightblue" stroke="midnightblue" points="246.78,-48.37 254.04,-56.08 253.17,-45.52 246.78,-48.37"/>
</g>
<!-- Node14&#45;&gt;Node4 -->
<g id="edge15" class="edge">
<title>Node14&#45;&gt;Node4</title>
<path fill="none" stroke="midnightblue" d="M225.52,-52.91C198.26,-42.75 160.01,-28.51 135.87,-19.52"/>
<polygon fill="midnightblue" stroke="midnightblue" points="224.43,-56.23 235.02,-56.44 226.87,-49.67 224.43,-56.23"/>
</g>
<!-- Node15&#45;&gt;Node3 -->
<g id="edge17" class="edge">
<title>Node15&#45;&gt;Node3</title>
<path fill="none" stroke="midnightblue" d="M354.67,-53.04C325.5,-42.88 284.36,-28.55 258.45,-19.52"/>
<polygon fill="midnightblue" stroke="midnightblue" points="353.84,-56.46 364.44,-56.44 356.15,-49.85 353.84,-56.46"/>
</g>
<!-- Node16&#45;&gt;Node3 -->
<g id="edge19" class="edge">
<title>Node16&#45;&gt;Node3</title>
<path fill="none" stroke="midnightblue" d="M141.31,-52.37C163.97,-42.26 195.13,-28.35 214.92,-19.52"/>
<polygon fill="midnightblue" stroke="midnightblue" points="139.88,-49.17 132.17,-56.44 142.73,-55.56 139.88,-49.17"/>
</g>
<!-- Node16&#45;&gt;Node4 -->
<g id="edge20" class="edge">
<title>Node16&#45;&gt;Node4</title>
<path fill="none" stroke="midnightblue" d="M113,-45.8C113,-36.91 113,-26.78 113,-19.75"/>
<polygon fill="midnightblue" stroke="midnightblue" points="109.5,-46.08 113,-56.08 116.5,-46.08 109.5,-46.08"/>
</g>
<!-- Node18 -->
<g id="node18" class="node">
<title>Node18</title>
<g id="a_node18"><a xlink:href="BC4S2_8hpp.html" target="_top" xlink:title=" ">
<polygon fill="white" stroke="black" points="146.5,-112.5 146.5,-131.5 215.5,-131.5 215.5,-112.5 146.5,-112.5"/>
<text text-anchor="middle" x="181" y="-119.5" font-family="Helvetica,sans-Serif" font-size="10.00">BC4S2.hpp</text>
</a>
</g>
</g>
<!-- Node17&#45;&gt;Node18 -->
<g id="edge22" class="edge">
<title>Node17&#45;&gt;Node18</title>
<path fill="none" stroke="midnightblue" d="M181.64,-157.8C181.48,-148.91 181.29,-138.78 181.16,-131.75"/>
<polygon fill="midnightblue" stroke="midnightblue" points="178.15,-158.15 181.83,-168.08 185.15,-158.02 178.15,-158.15"/>
</g>
<!-- Node18&#45;&gt;Node3 -->
<g id="edge23" class="edge">
<title>Node18&#45;&gt;Node3</title>
<path fill="none" stroke="midnightblue" d="M184.17,-102.26C186.9,-88.88 191.61,-70.71 199,-56 206.02,-42.03 217.71,-28.16 225.63,-19.59"/>
<polygon fill="midnightblue" stroke="midnightblue" points="180.71,-101.72 182.32,-112.19 187.59,-103.01 180.71,-101.72"/>
</g>
<!-- Node19&#45;&gt;Node9 -->
<g id="edge25" class="edge">
<title>Node19&#45;&gt;Node9</title>
<path fill="none" stroke="midnightblue" d="M199.8,-382.1C197.81,-373.14 195.52,-362.86 193.94,-355.75"/>
<polygon fill="midnightblue" stroke="midnightblue" points="196.43,-383.08 202.02,-392.08 203.27,-381.56 196.43,-383.08"/>
</g>
<!-- Node20&#45;&gt;Node7 -->
<g id="edge37" class="edge">
<title>Node20&#45;&gt;Node7</title>
<path fill="none" stroke="midnightblue" d="M267.22,-550.35C264.58,-536.76 259.68,-518.29 251,-504 241.97,-489.13 226.8,-475.87 216.14,-467.66"/>
<polygon fill="midnightblue" stroke="midnightblue" points="263.81,-551.16 268.94,-560.43 270.71,-549.98 263.81,-551.16"/>
</g>
<!-- Node20&#45;&gt;Node12 -->
<g id="edge29" class="edge">
<title>Node20&#45;&gt;Node12</title>
<path fill="none" stroke="midnightblue" d="M290.34,-553.97C313.75,-534.78 349,-499.21 349,-459 349,-459 349,-459 349,-289 349,-249.62 328.87,-205.71 319.59,-187.56"/>
<polygon fill="midnightblue" stroke="midnightblue" points="288.03,-551.34 282.34,-560.28 292.36,-556.83 288.03,-551.34"/>
</g>
<!-- Node21 -->
<g id="node21" class="node">
<title>Node21</title>
<g id="a_node21"><a xlink:href="Box_8hpp.html" target="_top" xlink:title="Contains the construction of box products of Chains.">
<polygon fill="white" stroke="black" points="265,-448.5 265,-467.5 321,-467.5 321,-448.5 265,-448.5"/>
<text text-anchor="middle" x="293" y="-455.5" font-family="Helvetica,sans-Serif" font-size="10.00">Box.hpp</text>
</a>
</g>
</g>
<!-- Node20&#45;&gt;Node21 -->
<g id="edge27" class="edge">
<title>Node20&#45;&gt;Node21</title>
<path fill="none" stroke="midnightblue" d="M276.37,-550.93C279.04,-542.79 281.99,-532.99 284,-524 288.42,-504.21 291.04,-480.51 292.23,-467.91"/>
<polygon fill="midnightblue" stroke="midnightblue" points="273.02,-549.89 273.11,-560.49 279.65,-552.15 273.02,-549.89"/>
</g>
<!-- Node22 -->
<g id="node22" class="node">
<title>Node22</title>
<g id="a_node22"><a xlink:href="C2n_8hpp.html" target="_top" xlink:title="Defines the groups .">
<polygon fill="white" stroke="black" points="429,-336.5 429,-355.5 485,-355.5 485,-336.5 429,-336.5"/>
<text text-anchor="middle" x="457" y="-343.5" font-family="Helvetica,sans-Serif" font-size="10.00">C2n.hpp</text>
</a>
</g>
</g>
<!-- Node20&#45;&gt;Node22 -->
<g id="edge30" class="edge">
<title>Node20&#45;&gt;Node22</title>
<path fill="none" stroke="midnightblue" d="M308.34,-556.79C326.57,-549.51 347.67,-538.77 363,-524 416.63,-472.35 446.28,-383.37 454.57,-355.56"/>
<polygon fill="midnightblue" stroke="midnightblue" points="306.95,-553.57 298.84,-560.38 309.43,-560.12 306.95,-553.57"/>
</g>
<!-- Node23 -->
<g id="node23" class="node">
<title>Node23</title>
<g id="a_node23"><a xlink:href="C4_8hpp.html" target="_top" xlink:title="Defines group .">
<polygon fill="white" stroke="black" points="192,-504.5 192,-523.5 242,-523.5 242,-504.5 192,-504.5"/>
<text text-anchor="middle" x="217" y="-511.5" font-family="Helvetica,sans-Serif" font-size="10.00">C4.hpp</text>
</a>
</g>
</g>
<!-- Node20&#45;&gt;Node23 -->
<g id="edge32" class="edge">
<title>Node20&#45;&gt;Node23</title>
<path fill="none" stroke="midnightblue" d="M254.02,-552.72C244.68,-543.2 233.25,-531.56 225.59,-523.75"/>
<polygon fill="midnightblue" stroke="midnightblue" points="251.75,-555.4 261.25,-560.08 256.74,-550.49 251.75,-555.4"/>
</g>
<!-- Node24 -->
<g id="node24" class="node">
<title>Node24</title>
<g id="a_node24"><a xlink:href="Abelian_8hpp.html" target="_top" xlink:title="Contains the methods for finding the automorphisms of finitely generated abelian groups.">
<polygon fill="white" stroke="black" points="100,-504.5 100,-523.5 174,-523.5 174,-504.5 100,-504.5"/>
<text text-anchor="middle" x="137" y="-511.5" font-family="Helvetica,sans-Serif" font-size="10.00">Abelian.hpp</text>
</a>
</g>
</g>
<!-- Node20&#45;&gt;Node24 -->
<g id="edge33" class="edge">
<title>Node20&#45;&gt;Node24</title>
<path fill="none" stroke="midnightblue" d="M239.55,-556.64C214.59,-546.5 179.92,-532.43 157.98,-523.52"/>
<polygon fill="midnightblue" stroke="midnightblue" points="238.34,-559.92 248.93,-560.44 240.98,-553.44 238.34,-559.92"/>
</g>
<!-- Node21&#45;&gt;Node9 -->
<g id="edge28" class="edge">
<title>Node21&#45;&gt;Node9</title>
<path fill="none" stroke="midnightblue" d="M282.86,-439.56C274.45,-425.86 261.7,-406.71 248,-392 234.74,-377.76 216.85,-364.16 204.89,-355.72"/>
<polygon fill="midnightblue" stroke="midnightblue" points="280.02,-441.64 288.16,-448.43 286.03,-438.05 280.02,-441.64"/>
</g>
<!-- Node22&#45;&gt;Node3 -->
<g id="edge31" class="edge">
<title>Node22&#45;&gt;Node3</title>
<path fill="none" stroke="midnightblue" d="M463.22,-326.76C470.03,-305.14 480,-267.88 480,-235 480,-235 480,-235 480,-121 480,-90.9 483.2,-76.32 461,-56 433.73,-31.05 328.39,-18.72 271.3,-13.76"/>
<polygon fill="midnightblue" stroke="midnightblue" points="459.89,-325.7 460.1,-336.29 466.54,-327.88 459.89,-325.7"/>
</g>
<!-- Node24&#45;&gt;Node7 -->
<g id="edge34" class="edge">
<title>Node24&#45;&gt;Node7</title>
<path fill="none" stroke="midnightblue" d="M155.83,-497.82C167.84,-488.15 182.97,-475.95 193.04,-467.83"/>
<polygon fill="midnightblue" stroke="midnightblue" points="153.35,-495.32 147.76,-504.32 157.75,-500.77 153.35,-495.32"/>
</g>
<!-- Node25 -->
<g id="node25" class="node">
<title>Node25</title>
<g id="a_node25"><a xlink:href="MackeyFunctor_8hpp.html" target="_top" xlink:title="Contains the class describing Mackey Functors.">
<polygon fill="white" stroke="black" points="33,-448.5 33,-467.5 143,-467.5 143,-448.5 33,-448.5"/>
<text text-anchor="middle" x="88" y="-455.5" font-family="Helvetica,sans-Serif" font-size="10.00">MackeyFunctor.hpp</text>
</a>
</g>
</g>
<!-- Node24&#45;&gt;Node25 -->
<g id="edge35" class="edge">
<title>Node24&#45;&gt;Node25</title>
<path fill="none" stroke="midnightblue" d="M121.97,-496.43C113.38,-486.97 102.96,-475.48 95.94,-467.75"/>
<polygon fill="midnightblue" stroke="midnightblue" points="119.6,-499.03 128.91,-504.08 124.78,-494.33 119.6,-499.03"/>
</g>
<!-- Node25&#45;&gt;Node8 -->
<g id="edge36" class="edge">
<title>Node25&#45;&gt;Node8</title>
<path fill="none" stroke="midnightblue" d="M97.01,-438.98C101.59,-429.82 106.95,-419.09 110.62,-411.75"/>
<polygon fill="midnightblue" stroke="midnightblue" points="93.8,-437.57 92.46,-448.08 100.06,-440.7 93.8,-437.57"/>
</g>
</g>
</svg>
