<?xml version="1.0" encoding="UTF-8" standalone="no"?>
<!DOCTYPE svg PUBLIC "-//W3C//DTD SVG 1.1//EN"
 "http://www.w3.org/Graphics/SVG/1.1/DTD/svg11.dtd">
<!-- Generated by graphviz version 2.43.0 (0)
 -->
<!-- Title: SFINAE.hpp Pages: 1 -->
<svg width="548pt" height="756pt"
 viewBox="0.00 0.00 548.00 756.00" xmlns="http://www.w3.org/2000/svg" xmlns:xlink="http://www.w3.org/1999/xlink">
<g id="graph0" class="graph" transform="scale(1 1) rotate(0) translate(4 752)">
<title>SFINAE.hpp</title>
<polygon fill="white" stroke="transparent" points="-4,4 -4,-752 544,-752 544,4 -4,4"/>
<!-- Node1 -->
<g id="node1" class="node">
<title>Node1</title>
<g id="a_node1"><a xlink:title="Contains all the SFINAE tricks.">
<polygon fill="#bfbfbf" stroke="black" points="23.5,-728.5 23.5,-747.5 96.5,-747.5 96.5,-728.5 23.5,-728.5"/>
<text text-anchor="middle" x="60" y="-735.5" font-family="Helvetica,sans-Serif" font-size="10.00">SFINAE.hpp</text>
</a>
</g>
</g>
<!-- Node2 -->
<g id="node2" class="node">
<title>Node2</title>
<g id="a_node2"><a xlink:href="Z__n_8hpp.html" target="_top" xlink:title="Contains the class mackey::Z_mod.">
<polygon fill="white" stroke="black" points="0,-56.5 0,-75.5 56,-75.5 56,-56.5 0,-56.5"/>
<text text-anchor="middle" x="28" y="-63.5" font-family="Helvetica,sans-Serif" font-size="10.00">Z_n.hpp</text>
</a>
</g>
</g>
<!-- Node1&#45;&gt;Node2 -->
<g id="edge1" class="edge">
<title>Node1&#45;&gt;Node2</title>
<path fill="none" stroke="midnightblue" d="M51.47,-719.28C41.99,-697.92 28,-660.67 28,-627 28,-627 28,-627 28,-177 28,-139.19 28,-94.06 28,-75.56"/>
<polygon fill="midnightblue" stroke="midnightblue" points="48.32,-720.79 55.68,-728.41 54.67,-717.86 48.32,-720.79"/>
</g>
<!-- Node5 -->
<g id="node5" class="node">
<title>Node5</title>
<g id="a_node5"><a xlink:href="Aliases_8hpp.html" target="_top" xlink:title="Contains general template aliases.">
<polygon fill="white" stroke="black" points="58.5,-672.5 58.5,-691.5 131.5,-691.5 131.5,-672.5 58.5,-672.5"/>
<text text-anchor="middle" x="95" y="-679.5" font-family="Helvetica,sans-Serif" font-size="10.00">Aliases.hpp</text>
</a>
</g>
</g>
<!-- Node1&#45;&gt;Node5 -->
<g id="edge4" class="edge">
<title>Node1&#45;&gt;Node5</title>
<path fill="none" stroke="midnightblue" d="M71.3,-719.57C77.32,-710.27 84.47,-699.25 89.33,-691.75"/>
<polygon fill="midnightblue" stroke="midnightblue" points="68.28,-717.79 65.78,-728.08 74.16,-721.6 68.28,-717.79"/>
</g>
<!-- Node3 -->
<g id="node3" class="node">
<title>Node3</title>
<g id="a_node3"><a xlink:href="Mackey_8hpp.html" target="_top" xlink:title="Includes the entire library apart from Serialization/Cerealizer.hpp.">
<polygon fill="white" stroke="black" points="222,-0.5 222,-19.5 296,-19.5 296,-0.5 222,-0.5"/>
<text text-anchor="middle" x="259" y="-7.5" font-family="Helvetica,sans-Serif" font-size="10.00">Mackey.hpp</text>
</a>
</g>
</g>
<!-- Node2&#45;&gt;Node3 -->
<g id="edge2" class="edge">
<title>Node2&#45;&gt;Node3</title>
<path fill="none" stroke="midnightblue" d="M66.27,-55.72C126.09,-41.53 184.77,-28 221.78,-19.51"/>
<polygon fill="midnightblue" stroke="midnightblue" points="65.19,-52.37 56.27,-58.09 66.81,-59.18 65.19,-52.37"/>
</g>
<!-- Node4 -->
<g id="node4" class="node">
<title>Node4</title>
<g id="a_node4"><a xlink:href="Cerealizer_8hpp.html" target="_top" xlink:title="Contains the methods for serializing the results of our computations via cereal.">
<polygon fill="white" stroke="black" points="70,-0.5 70,-19.5 156,-19.5 156,-0.5 70,-0.5"/>
<text text-anchor="middle" x="113" y="-7.5" font-family="Helvetica,sans-Serif" font-size="10.00">Cerealizer.hpp</text>
</a>
</g>
</g>
<!-- Node2&#45;&gt;Node4 -->
<g id="edge3" class="edge">
<title>Node2&#45;&gt;Node4</title>
<path fill="none" stroke="midnightblue" d="M50.19,-50.9C65.78,-41 86.13,-28.07 99.38,-19.65"/>
<polygon fill="midnightblue" stroke="midnightblue" points="48.22,-48.01 41.66,-56.32 51.97,-53.92 48.22,-48.01"/>
</g>
<!-- Node6 -->
<g id="node6" class="node">
<title>Node6</title>
<g id="a_node6"><a xlink:href="Smith_8hpp.html" target="_top" xlink:title="Contains the class mackey::SmithNormalForm.">
<polygon fill="white" stroke="black" points="62,-616.5 62,-635.5 128,-635.5 128,-616.5 62,-616.5"/>
<text text-anchor="middle" x="95" y="-623.5" font-family="Helvetica,sans-Serif" font-size="10.00">Smith.hpp</text>
</a>
</g>
</g>
<!-- Node5&#45;&gt;Node6 -->
<g id="edge5" class="edge">
<title>Node5&#45;&gt;Node6</title>
<path fill="none" stroke="midnightblue" d="M95,-661.8C95,-652.91 95,-642.78 95,-635.75"/>
<polygon fill="midnightblue" stroke="midnightblue" points="91.5,-662.08 95,-672.08 98.5,-662.08 91.5,-662.08"/>
</g>
<!-- Node21 -->
<g id="node21" class="node">
<title>Node21</title>
<g id="a_node21"><a xlink:href="General_8hpp.html" target="_top" xlink:title="Contains general functions and vector overloads independent of everything else.">
<polygon fill="white" stroke="black" points="255,-616.5 255,-635.5 331,-635.5 331,-616.5 255,-616.5"/>
<text text-anchor="middle" x="293" y="-623.5" font-family="Helvetica,sans-Serif" font-size="10.00">General.hpp</text>
</a>
</g>
</g>
<!-- Node5&#45;&gt;Node21 -->
<g id="edge27" class="edge">
<title>Node5&#45;&gt;Node21</title>
<path fill="none" stroke="midnightblue" d="M136.44,-669.7C173.81,-659.51 227.94,-644.74 261.77,-635.52"/>
<polygon fill="midnightblue" stroke="midnightblue" points="135.1,-666.44 126.37,-672.44 136.94,-673.19 135.1,-666.44"/>
</g>
<!-- Node7 -->
<g id="node7" class="node">
<title>Node7</title>
<g id="a_node7"><a xlink:href="Homology_8hpp.html" target="_top" xlink:title="Contains the class mackey::Homology.">
<polygon fill="white" stroke="black" points="184,-504.5 184,-523.5 270,-523.5 270,-504.5 184,-504.5"/>
<text text-anchor="middle" x="227" y="-511.5" font-family="Helvetica,sans-Serif" font-size="10.00">Homology.hpp</text>
</a>
</g>
</g>
<!-- Node6&#45;&gt;Node7 -->
<g id="edge6" class="edge">
<title>Node6&#45;&gt;Node7</title>
<path fill="none" stroke="midnightblue" d="M96.14,-606.1C97.95,-591.84 102.51,-572.63 114,-560 132.12,-540.08 160.22,-528.84 183.86,-522.58"/>
<polygon fill="midnightblue" stroke="midnightblue" points="92.64,-605.99 95.21,-616.26 99.61,-606.63 92.64,-605.99"/>
</g>
<!-- Node8 -->
<g id="node8" class="node">
<title>Node8</title>
<g id="a_node8"><a xlink:href="Identify_8hpp.html" target="_top" xlink:title="Contains the classes mackey::IDGenerators and mackey::internal::IDGeneratorCompute">
<polygon fill="white" stroke="black" points="114.5,-448.5 114.5,-467.5 187.5,-467.5 187.5,-448.5 114.5,-448.5"/>
<text text-anchor="middle" x="151" y="-455.5" font-family="Helvetica,sans-Serif" font-size="10.00">Identify.hpp</text>
</a>
</g>
</g>
<!-- Node7&#45;&gt;Node8 -->
<g id="edge7" class="edge">
<title>Node7&#45;&gt;Node8</title>
<path fill="none" stroke="midnightblue" d="M206.42,-498.38C192.69,-488.62 175.07,-476.11 163.43,-467.83"/>
<polygon fill="midnightblue" stroke="midnightblue" points="204.61,-501.38 214.79,-504.32 208.66,-495.68 204.61,-501.38"/>
</g>
<!-- Node20 -->
<g id="node20" class="node">
<title>Node20</title>
<g id="a_node20"><a xlink:href="Levels_8hpp.html" target="_top" xlink:title="Contains the methods for transfering, restricting and Weyl&#45;group&#45;acting.">
<polygon fill="white" stroke="black" points="205.5,-448.5 205.5,-467.5 274.5,-467.5 274.5,-448.5 205.5,-448.5"/>
<text text-anchor="middle" x="240" y="-455.5" font-family="Helvetica,sans-Serif" font-size="10.00">Levels.hpp</text>
</a>
</g>
</g>
<!-- Node7&#45;&gt;Node20 -->
<g id="edge25" class="edge">
<title>Node7&#45;&gt;Node20</title>
<path fill="none" stroke="midnightblue" d="M231.55,-494.1C233.71,-485.14 236.18,-474.86 237.89,-467.75"/>
<polygon fill="midnightblue" stroke="midnightblue" points="228.08,-493.54 229.15,-504.08 234.89,-495.18 228.08,-493.54"/>
</g>
<!-- Node9 -->
<g id="node9" class="node">
<title>Node9</title>
<g id="a_node9"><a xlink:href="Green_8hpp.html" target="_top" xlink:title="Contains the classes mackey::Green, mackey::internal::GreenCompute, mackey::internal::ChainsLevelGen,...">
<polygon fill="white" stroke="black" points="206.5,-392.5 206.5,-411.5 273.5,-411.5 273.5,-392.5 206.5,-392.5"/>
<text text-anchor="middle" x="240" y="-399.5" font-family="Helvetica,sans-Serif" font-size="10.00">Green.hpp</text>
</a>
</g>
</g>
<!-- Node8&#45;&gt;Node9 -->
<g id="edge8" class="edge">
<title>Node8&#45;&gt;Node9</title>
<path fill="none" stroke="midnightblue" d="M174.24,-442.9C190.56,-433 211.87,-420.07 225.74,-411.65"/>
<polygon fill="midnightblue" stroke="midnightblue" points="172.03,-440.14 165.3,-448.32 175.66,-446.13 172.03,-440.14"/>
</g>
<!-- Node10 -->
<g id="node10" class="node">
<title>Node10</title>
<g id="a_node10"><a xlink:href="Massey_8hpp.html" target="_top" xlink:title="Contains the classes mackey::Massey and mackey::internal::MasseyCompute.">
<polygon fill="white" stroke="black" points="203,-336.5 203,-355.5 277,-355.5 277,-336.5 203,-336.5"/>
<text text-anchor="middle" x="240" y="-343.5" font-family="Helvetica,sans-Serif" font-size="10.00">Massey.hpp</text>
</a>
</g>
</g>
<!-- Node9&#45;&gt;Node10 -->
<g id="edge9" class="edge">
<title>Node9&#45;&gt;Node10</title>
<path fill="none" stroke="midnightblue" d="M240,-381.8C240,-372.91 240,-362.78 240,-355.75"/>
<polygon fill="midnightblue" stroke="midnightblue" points="236.5,-382.08 240,-392.08 243.5,-382.08 236.5,-382.08"/>
</g>
<!-- Node11 -->
<g id="node11" class="node">
<title>Node11</title>
<g id="a_node11"><a xlink:href="Point_8hpp.html" target="_top" xlink:title="Contains the methods computing the RO(G) homology of a point.">
<polygon fill="white" stroke="black" points="209,-280.5 209,-299.5 271,-299.5 271,-280.5 209,-280.5"/>
<text text-anchor="middle" x="240" y="-287.5" font-family="Helvetica,sans-Serif" font-size="10.00">Point.hpp</text>
</a>
</g>
</g>
<!-- Node10&#45;&gt;Node11 -->
<g id="edge10" class="edge">
<title>Node10&#45;&gt;Node11</title>
<path fill="none" stroke="midnightblue" d="M240,-325.8C240,-316.91 240,-306.78 240,-299.75"/>
<polygon fill="midnightblue" stroke="midnightblue" points="236.5,-326.08 240,-336.08 243.5,-326.08 236.5,-326.08"/>
</g>
<!-- Node12 -->
<g id="node12" class="node">
<title>Node12</title>
<g id="a_node12"><a xlink:href="Mult__Table_8hpp.html" target="_top" xlink:title="Contains the classes mackey::MultTableData and mackey::MultTable.">
<polygon fill="white" stroke="black" points="311,-224.5 311,-243.5 401,-243.5 401,-224.5 311,-224.5"/>
<text text-anchor="middle" x="356" y="-231.5" font-family="Helvetica,sans-Serif" font-size="10.00">Mult_Table.hpp</text>
</a>
</g>
</g>
<!-- Node11&#45;&gt;Node12 -->
<g id="edge11" class="edge">
<title>Node11&#45;&gt;Node12</title>
<path fill="none" stroke="midnightblue" d="M267.72,-276.1C289.39,-266.01 318.9,-252.27 337.71,-243.52"/>
<polygon fill="midnightblue" stroke="midnightblue" points="265.97,-273.05 258.38,-280.44 268.92,-279.4 265.97,-273.05"/>
</g>
<!-- Node17 -->
<g id="node17" class="node">
<title>Node17</title>
<g id="a_node17"><a xlink:href="Additive_8hpp.html" target="_top" xlink:title="Contains the class mackey::AdditiveStructure">
<polygon fill="white" stroke="black" points="74,-56.5 74,-75.5 152,-75.5 152,-56.5 74,-56.5"/>
<text text-anchor="middle" x="113" y="-63.5" font-family="Helvetica,sans-Serif" font-size="10.00">Additive.hpp</text>
</a>
</g>
</g>
<!-- Node11&#45;&gt;Node17 -->
<g id="edge19" class="edge">
<title>Node11&#45;&gt;Node17</title>
<path fill="none" stroke="midnightblue" d="M222.66,-273.38C214.22,-265.19 204.34,-254.66 197,-244 156.11,-184.6 125.34,-102.2 115.97,-75.62"/>
<polygon fill="midnightblue" stroke="midnightblue" points="220.49,-276.15 230.18,-280.45 225.29,-271.05 220.49,-276.15"/>
</g>
<!-- Node18 -->
<g id="node18" class="node">
<title>Node18</title>
<g id="a_node18"><a xlink:href="Space_8hpp.html" target="_top" xlink:title="Contains the class mackey::Space.">
<polygon fill="white" stroke="black" points="206.5,-224.5 206.5,-243.5 273.5,-243.5 273.5,-224.5 206.5,-224.5"/>
<text text-anchor="middle" x="240" y="-231.5" font-family="Helvetica,sans-Serif" font-size="10.00">Space.hpp</text>
</a>
</g>
</g>
<!-- Node11&#45;&gt;Node18 -->
<g id="edge22" class="edge">
<title>Node11&#45;&gt;Node18</title>
<path fill="none" stroke="midnightblue" d="M240,-269.8C240,-260.91 240,-250.78 240,-243.75"/>
<polygon fill="midnightblue" stroke="midnightblue" points="236.5,-270.08 240,-280.08 243.5,-270.08 236.5,-270.08"/>
</g>
<!-- Node13 -->
<g id="node13" class="node">
<title>Node13</title>
<g id="a_node13"><a xlink:href="Mult__Graph_8hpp.html" target="_top" xlink:title="Contains the class mackey::MultGraph.">
<polygon fill="white" stroke="black" points="309,-168.5 309,-187.5 403,-187.5 403,-168.5 309,-168.5"/>
<text text-anchor="middle" x="356" y="-175.5" font-family="Helvetica,sans-Serif" font-size="10.00">Mult_Graph.hpp</text>
</a>
</g>
</g>
<!-- Node12&#45;&gt;Node13 -->
<g id="edge12" class="edge">
<title>Node12&#45;&gt;Node13</title>
<path fill="none" stroke="midnightblue" d="M356,-213.8C356,-204.91 356,-194.78 356,-187.75"/>
<polygon fill="midnightblue" stroke="midnightblue" points="352.5,-214.08 356,-224.08 359.5,-214.08 352.5,-214.08"/>
</g>
<!-- Node14 -->
<g id="node14" class="node">
<title>Node14</title>
<g id="a_node14"><a xlink:href="Mult__Connectivity_8hpp.html" target="_top" xlink:title="Contains the class mackey::MultConnectivity.">
<polygon fill="white" stroke="black" points="386.5,-112.5 386.5,-131.5 511.5,-131.5 511.5,-112.5 386.5,-112.5"/>
<text text-anchor="middle" x="449" y="-119.5" font-family="Helvetica,sans-Serif" font-size="10.00">Mult_Connectivity.hpp</text>
</a>
</g>
</g>
<!-- Node13&#45;&gt;Node14 -->
<g id="edge13" class="edge">
<title>Node13&#45;&gt;Node14</title>
<path fill="none" stroke="midnightblue" d="M379.81,-163.18C396.92,-153.24 419.47,-140.15 434.1,-131.65"/>
<polygon fill="midnightblue" stroke="midnightblue" points="377.83,-160.28 370.94,-168.32 381.35,-166.33 377.83,-160.28"/>
</g>
<!-- Node15 -->
<g id="node15" class="node">
<title>Node15</title>
<g id="a_node15"><a xlink:href="Mult__Identify_8hpp.html" target="_top" xlink:title="Contains the class mackey::MultIdentify.">
<polygon fill="white" stroke="black" points="268,-112.5 268,-131.5 368,-131.5 368,-112.5 268,-112.5"/>
<text text-anchor="middle" x="318" y="-119.5" font-family="Helvetica,sans-Serif" font-size="10.00">Mult_Identify.hpp</text>
</a>
</g>
</g>
<!-- Node13&#45;&gt;Node15 -->
<g id="edge15" class="edge">
<title>Node13&#45;&gt;Node15</title>
<path fill="none" stroke="midnightblue" d="M343.94,-159.86C337.36,-150.5 329.49,-139.33 324.16,-131.75"/>
<polygon fill="midnightblue" stroke="midnightblue" points="341.11,-161.92 349.73,-168.08 346.83,-157.89 341.11,-161.92"/>
</g>
<!-- Node14&#45;&gt;Node3 -->
<g id="edge14" class="edge">
<title>Node14&#45;&gt;Node3</title>
<path fill="none" stroke="midnightblue" d="M425.34,-107.3C385.62,-84.3 306.66,-38.59 273.84,-19.59"/>
<polygon fill="midnightblue" stroke="midnightblue" points="423.68,-110.39 434.09,-112.37 427.19,-104.33 423.68,-110.39"/>
</g>
<!-- Node16 -->
<g id="node16" class="node">
<title>Node16</title>
<g id="a_node16"><a xlink:href="Factorization_8hpp.html" target="_top" xlink:title="Contains the class mackey::Factorization.">
<polygon fill="white" stroke="black" points="170,-56.5 170,-75.5 270,-75.5 270,-56.5 170,-56.5"/>
<text text-anchor="middle" x="220" y="-63.5" font-family="Helvetica,sans-Serif" font-size="10.00">Factorization.hpp</text>
</a>
</g>
</g>
<!-- Node15&#45;&gt;Node16 -->
<g id="edge16" class="edge">
<title>Node15&#45;&gt;Node16</title>
<path fill="none" stroke="midnightblue" d="M293.41,-107.45C275.32,-97.48 251.27,-84.23 235.71,-75.65"/>
<polygon fill="midnightblue" stroke="midnightblue" points="291.81,-110.56 302.25,-112.32 295.19,-104.43 291.81,-110.56"/>
</g>
<!-- Node16&#45;&gt;Node3 -->
<g id="edge17" class="edge">
<title>Node16&#45;&gt;Node3</title>
<path fill="none" stroke="midnightblue" d="M232.38,-47.86C239.14,-38.5 247.21,-27.33 252.68,-19.75"/>
<polygon fill="midnightblue" stroke="midnightblue" points="229.46,-45.93 226.44,-56.08 235.13,-50.03 229.46,-45.93"/>
</g>
<!-- Node16&#45;&gt;Node4 -->
<g id="edge18" class="edge">
<title>Node16&#45;&gt;Node4</title>
<path fill="none" stroke="midnightblue" d="M193.7,-51.73C173.89,-41.73 147.29,-28.31 130.15,-19.65"/>
<polygon fill="midnightblue" stroke="midnightblue" points="192.3,-54.94 202.81,-56.32 195.46,-48.69 192.3,-54.94"/>
</g>
<!-- Node17&#45;&gt;Node3 -->
<g id="edge20" class="edge">
<title>Node17&#45;&gt;Node3</title>
<path fill="none" stroke="midnightblue" d="M145.7,-52.91C173.15,-42.75 211.67,-28.51 235.97,-19.52"/>
<polygon fill="midnightblue" stroke="midnightblue" points="144.3,-49.69 136.13,-56.44 146.73,-56.26 144.3,-49.69"/>
</g>
<!-- Node17&#45;&gt;Node4 -->
<g id="edge21" class="edge">
<title>Node17&#45;&gt;Node4</title>
<path fill="none" stroke="midnightblue" d="M113,-45.8C113,-36.91 113,-26.78 113,-19.75"/>
<polygon fill="midnightblue" stroke="midnightblue" points="109.5,-46.08 113,-56.08 116.5,-46.08 109.5,-46.08"/>
</g>
<!-- Node19 -->
<g id="node19" class="node">
<title>Node19</title>
<g id="a_node19"><a xlink:href="BC4S2_8hpp.html" target="_top" xlink:title="Contains the class mackey::BC4S2.">
<polygon fill="white" stroke="black" points="205.5,-168.5 205.5,-187.5 274.5,-187.5 274.5,-168.5 205.5,-168.5"/>
<text text-anchor="middle" x="240" y="-175.5" font-family="Helvetica,sans-Serif" font-size="10.00">BC4S2.hpp</text>
</a>
</g>
</g>
<!-- Node18&#45;&gt;Node19 -->
<g id="edge23" class="edge">
<title>Node18&#45;&gt;Node19</title>
<path fill="none" stroke="midnightblue" d="M240,-213.8C240,-204.91 240,-194.78 240,-187.75"/>
<polygon fill="midnightblue" stroke="midnightblue" points="236.5,-214.08 240,-224.08 243.5,-214.08 236.5,-214.08"/>
</g>
<!-- Node19&#45;&gt;Node3 -->
<g id="edge24" class="edge">
<title>Node19&#45;&gt;Node3</title>
<path fill="none" stroke="midnightblue" d="M244.22,-158.59C247.52,-145.36 252.63,-127.26 259,-112 266.06,-95.11 274.41,-93.72 279,-76 284.27,-55.66 272.54,-32.18 264.91,-19.76"/>
<polygon fill="midnightblue" stroke="midnightblue" points="240.8,-157.84 241.87,-168.38 247.6,-159.47 240.8,-157.84"/>
</g>
<!-- Node20&#45;&gt;Node9 -->
<g id="edge26" class="edge">
<title>Node20&#45;&gt;Node9</title>
<path fill="none" stroke="midnightblue" d="M240,-437.8C240,-428.91 240,-418.78 240,-411.75"/>
<polygon fill="midnightblue" stroke="midnightblue" points="236.5,-438.08 240,-448.08 243.5,-438.08 236.5,-438.08"/>
</g>
<!-- Node21&#45;&gt;Node7 -->
<g id="edge38" class="edge">
<title>Node21&#45;&gt;Node7</title>
<path fill="none" stroke="midnightblue" d="M290.22,-606.35C287.58,-592.76 282.68,-574.29 274,-560 264.97,-545.13 249.8,-531.87 239.14,-523.66"/>
<polygon fill="midnightblue" stroke="midnightblue" points="286.81,-607.16 291.94,-616.43 293.71,-605.98 286.81,-607.16"/>
</g>
<!-- Node21&#45;&gt;Node12 -->
<g id="edge30" class="edge">
<title>Node21&#45;&gt;Node12</title>
<path fill="none" stroke="midnightblue" d="M313.34,-609.97C336.75,-590.78 372,-555.21 372,-515 372,-515 372,-515 372,-345 372,-306.98 362.53,-262.34 358.16,-243.78"/>
<polygon fill="midnightblue" stroke="midnightblue" points="311.03,-607.34 305.34,-616.28 315.36,-612.83 311.03,-607.34"/>
</g>
<!-- Node22 -->
<g id="node22" class="node">
<title>Node22</title>
<g id="a_node22"><a xlink:href="Box_8hpp.html" target="_top" xlink:title="Contains the class mackey::Tensor.">
<polygon fill="white" stroke="black" points="288,-504.5 288,-523.5 344,-523.5 344,-504.5 288,-504.5"/>
<text text-anchor="middle" x="316" y="-511.5" font-family="Helvetica,sans-Serif" font-size="10.00">Box.hpp</text>
</a>
</g>
</g>
<!-- Node21&#45;&gt;Node22 -->
<g id="edge28" class="edge">
<title>Node21&#45;&gt;Node22</title>
<path fill="none" stroke="midnightblue" d="M299.37,-606.93C302.04,-598.79 304.99,-588.99 307,-580 311.42,-560.21 314.04,-536.51 315.23,-523.91"/>
<polygon fill="midnightblue" stroke="midnightblue" points="296.02,-605.89 296.11,-616.49 302.65,-608.15 296.02,-605.89"/>
</g>
<!-- Node23 -->
<g id="node23" class="node">
<title>Node23</title>
<g id="a_node23"><a xlink:href="C2n_8hpp.html" target="_top" xlink:title="Defines the groups &#160;via mackey::C2Power.">
<polygon fill="white" stroke="black" points="456,-392.5 456,-411.5 512,-411.5 512,-392.5 456,-392.5"/>
<text text-anchor="middle" x="484" y="-399.5" font-family="Helvetica,sans-Serif" font-size="10.00">C2n.hpp</text>
</a>
</g>
</g>
<!-- Node21&#45;&gt;Node23 -->
<g id="edge31" class="edge">
<title>Node21&#45;&gt;Node23</title>
<path fill="none" stroke="midnightblue" d="M330.84,-612.83C349.13,-605.52 370.43,-594.74 386,-580 440.59,-528.33 472.39,-439.36 481.36,-411.56"/>
<polygon fill="midnightblue" stroke="midnightblue" points="329.43,-609.62 321.32,-616.44 331.91,-616.17 329.43,-609.62"/>
</g>
<!-- Node24 -->
<g id="node24" class="node">
<title>Node24</title>
<g id="a_node24"><a xlink:href="C4_8hpp.html" target="_top" xlink:title="Defines group &#160;via mackey::C_4.">
<polygon fill="white" stroke="black" points="215,-560.5 215,-579.5 265,-579.5 265,-560.5 215,-560.5"/>
<text text-anchor="middle" x="240" y="-567.5" font-family="Helvetica,sans-Serif" font-size="10.00">C4.hpp</text>
</a>
</g>
</g>
<!-- Node21&#45;&gt;Node24 -->
<g id="edge33" class="edge">
<title>Node21&#45;&gt;Node24</title>
<path fill="none" stroke="midnightblue" d="M277.02,-608.72C267.68,-599.2 256.25,-587.56 248.59,-579.75"/>
<polygon fill="midnightblue" stroke="midnightblue" points="274.75,-611.4 284.25,-616.08 279.74,-606.49 274.75,-611.4"/>
</g>
<!-- Node25 -->
<g id="node25" class="node">
<title>Node25</title>
<g id="a_node25"><a xlink:href="Abelian_8hpp.html" target="_top" xlink:title="Contains the class mackey::AbelianGroup.">
<polygon fill="white" stroke="black" points="123,-560.5 123,-579.5 197,-579.5 197,-560.5 123,-560.5"/>
<text text-anchor="middle" x="160" y="-567.5" font-family="Helvetica,sans-Serif" font-size="10.00">Abelian.hpp</text>
</a>
</g>
</g>
<!-- Node21&#45;&gt;Node25 -->
<g id="edge34" class="edge">
<title>Node21&#45;&gt;Node25</title>
<path fill="none" stroke="midnightblue" d="M262.55,-612.64C237.59,-602.5 202.92,-588.43 180.98,-579.52"/>
<polygon fill="midnightblue" stroke="midnightblue" points="261.34,-615.92 271.93,-616.44 263.98,-609.44 261.34,-615.92"/>
</g>
<!-- Node22&#45;&gt;Node9 -->
<g id="edge29" class="edge">
<title>Node22&#45;&gt;Node9</title>
<path fill="none" stroke="midnightblue" d="M308.76,-494.49C303.04,-480.99 294.32,-462.58 284,-448 274.03,-433.91 259.6,-420.07 250.02,-411.54"/>
<polygon fill="midnightblue" stroke="midnightblue" points="305.66,-496.16 312.67,-504.1 312.14,-493.52 305.66,-496.16"/>
</g>
<!-- Node23&#45;&gt;Node3 -->
<g id="edge32" class="edge">
<title>Node23&#45;&gt;Node3</title>
<path fill="none" stroke="midnightblue" d="M498.53,-384.66C515.12,-364.25 540,-327.56 540,-291 540,-291 540,-291 540,-121 540,-69.2 372.33,-31.79 296.02,-17.45"/>
<polygon fill="midnightblue" stroke="midnightblue" points="495.8,-382.46 492.02,-392.36 501.15,-386.98 495.8,-382.46"/>
</g>
<!-- Node25&#45;&gt;Node7 -->
<g id="edge35" class="edge">
<title>Node25&#45;&gt;Node7</title>
<path fill="none" stroke="midnightblue" d="M178.83,-553.82C190.84,-544.15 205.97,-531.95 216.04,-523.83"/>
<polygon fill="midnightblue" stroke="midnightblue" points="176.35,-551.32 170.76,-560.32 180.75,-556.77 176.35,-551.32"/>
</g>
<!-- Node26 -->
<g id="node26" class="node">
<title>Node26</title>
<g id="a_node26"><a xlink:href="MackeyFunctor_8hpp.html" target="_top" xlink:title="Contains the class mackey::MackeyFunctor.">
<polygon fill="white" stroke="black" points="56,-504.5 56,-523.5 166,-523.5 166,-504.5 56,-504.5"/>
<text text-anchor="middle" x="111" y="-511.5" font-family="Helvetica,sans-Serif" font-size="10.00">MackeyFunctor.hpp</text>
</a>
</g>
</g>
<!-- Node25&#45;&gt;Node26 -->
<g id="edge36" class="edge">
<title>Node25&#45;&gt;Node26</title>
<path fill="none" stroke="midnightblue" d="M144.97,-552.43C136.38,-542.97 125.96,-531.48 118.94,-523.75"/>
<polygon fill="midnightblue" stroke="midnightblue" points="142.6,-555.03 151.91,-560.08 147.78,-550.33 142.6,-555.03"/>
</g>
<!-- Node26&#45;&gt;Node8 -->
<g id="edge37" class="edge">
<title>Node26&#45;&gt;Node8</title>
<path fill="none" stroke="midnightblue" d="M123.7,-495.86C130.63,-486.5 138.91,-475.33 144.52,-467.75"/>
<polygon fill="midnightblue" stroke="midnightblue" points="120.75,-493.96 117.61,-504.08 126.37,-498.13 120.75,-493.96"/>
</g>
</g>
</svg>
