<?xml version="1.0" encoding="UTF-8" standalone="no"?>
<!DOCTYPE svg PUBLIC "-//W3C//DTD SVG 1.1//EN"
 "http://www.w3.org/Graphics/SVG/1.1/DTD/svg11.dtd">
<!-- Generated by graphviz version 2.43.0 (0)
 -->
<!-- Title: Smith.hpp Pages: 1 -->
<svg width="302pt" height="196pt"
 viewBox="0.00 0.00 301.50 196.00" xmlns="http://www.w3.org/2000/svg" xmlns:xlink="http://www.w3.org/1999/xlink">
<g id="graph0" class="graph" transform="scale(1 1) rotate(0) translate(4 192)">
<title>Smith.hpp</title>
<polygon fill="white" stroke="transparent" points="-4,4 -4,-192 297.5,-192 297.5,4 -4,4"/>
<!-- Node1 -->
<g id="node1" class="node">
<title>Node1</title>
<g id="a_node1"><a xlink:title="Contains the class mackey::SmithNormalForm.">
<polygon fill="#bfbfbf" stroke="black" points="102.5,-168.5 102.5,-187.5 168.5,-187.5 168.5,-168.5 102.5,-168.5"/>
<text text-anchor="middle" x="135.5" y="-175.5" font-family="Helvetica,sans-Serif" font-size="10.00">Smith.hpp</text>
</a>
</g>
</g>
<!-- Node2 -->
<g id="node2" class="node">
<title>Node2</title>
<g id="a_node2"><a xlink:title=" ">
<polygon fill="white" stroke="#bfbfbf" points="18,-112.5 18,-131.5 65,-131.5 65,-112.5 18,-112.5"/>
<text text-anchor="middle" x="41.5" y="-119.5" font-family="Helvetica,sans-Serif" font-size="10.00">vector</text>
</a>
</g>
</g>
<!-- Node1&#45;&gt;Node2 -->
<g id="edge1" class="edge">
<title>Node1&#45;&gt;Node2</title>
<path fill="none" stroke="midnightblue" d="M120.4,-168.32C105.6,-159.82 82.81,-146.73 65.52,-136.8"/>
<polygon fill="midnightblue" stroke="midnightblue" points="66.98,-133.6 56.57,-131.65 63.49,-139.67 66.98,-133.6"/>
</g>
<!-- Node3 -->
<g id="node3" class="node">
<title>Node3</title>
<g id="a_node3"><a xlink:href="Aliases_8hpp.html" target="_top" xlink:title="Contains general template aliases.">
<polygon fill="white" stroke="black" points="83.5,-112.5 83.5,-131.5 187.5,-131.5 187.5,-112.5 83.5,-112.5"/>
<text text-anchor="middle" x="135.5" y="-119.5" font-family="Helvetica,sans-Serif" font-size="10.00">Types/Aliases.hpp</text>
</a>
</g>
</g>
<!-- Node1&#45;&gt;Node3 -->
<g id="edge2" class="edge">
<title>Node1&#45;&gt;Node3</title>
<path fill="none" stroke="midnightblue" d="M135.5,-168.08C135.5,-161.01 135.5,-150.86 135.5,-141.99"/>
<polygon fill="midnightblue" stroke="midnightblue" points="139,-141.75 135.5,-131.75 132,-141.75 139,-141.75"/>
</g>
<!-- Node8 -->
<g id="node8" class="node">
<title>Node8</title>
<g id="a_node8"><a xlink:title=" ">
<polygon fill="white" stroke="#bfbfbf" points="205.5,-112.5 205.5,-131.5 293.5,-131.5 293.5,-112.5 205.5,-112.5"/>
<text text-anchor="middle" x="249.5" y="-119.5" font-family="Helvetica,sans-Serif" font-size="10.00">impl/Smith.ipp</text>
</a>
</g>
</g>
<!-- Node1&#45;&gt;Node8 -->
<g id="edge7" class="edge">
<title>Node1&#45;&gt;Node8</title>
<path fill="none" stroke="midnightblue" d="M153.56,-168.44C172.07,-159.68 201.08,-145.94 222.36,-135.86"/>
<polygon fill="midnightblue" stroke="midnightblue" points="223.98,-138.96 231.52,-131.52 220.99,-132.63 223.98,-138.96"/>
</g>
<!-- Node4 -->
<g id="node4" class="node">
<title>Node4</title>
<g id="a_node4"><a xlink:title=" ">
<polygon fill="white" stroke="#bfbfbf" points="0,-56.5 0,-75.5 77,-75.5 77,-56.5 0,-56.5"/>
<text text-anchor="middle" x="38.5" y="-63.5" font-family="Helvetica,sans-Serif" font-size="10.00">Eigen/Dense</text>
</a>
</g>
</g>
<!-- Node3&#45;&gt;Node4 -->
<g id="edge3" class="edge">
<title>Node3&#45;&gt;Node4</title>
<path fill="none" stroke="midnightblue" d="M119.92,-112.32C104.5,-103.74 80.69,-90.49 62.79,-80.52"/>
<polygon fill="midnightblue" stroke="midnightblue" points="64.49,-77.46 54.05,-75.65 61.08,-83.58 64.49,-77.46"/>
</g>
<!-- Node5 -->
<g id="node5" class="node">
<title>Node5</title>
<g id="a_node5"><a xlink:title=" ">
<polygon fill="white" stroke="#bfbfbf" points="95.5,-56.5 95.5,-75.5 175.5,-75.5 175.5,-56.5 95.5,-56.5"/>
<text text-anchor="middle" x="135.5" y="-63.5" font-family="Helvetica,sans-Serif" font-size="10.00">Eigen/Sparse</text>
</a>
</g>
</g>
<!-- Node3&#45;&gt;Node5 -->
<g id="edge4" class="edge">
<title>Node3&#45;&gt;Node5</title>
<path fill="none" stroke="midnightblue" d="M135.5,-112.08C135.5,-105.01 135.5,-94.86 135.5,-85.99"/>
<polygon fill="midnightblue" stroke="midnightblue" points="139,-85.75 135.5,-75.75 132,-85.75 139,-85.75"/>
</g>
<!-- Node6 -->
<g id="node6" class="node">
<title>Node6</title>
<g id="a_node6"><a xlink:href="SFINAE_8hpp.html" target="_top" xlink:title="Contains all the SFINAE tricks.">
<polygon fill="white" stroke="black" points="194,-56.5 194,-75.5 267,-75.5 267,-56.5 194,-56.5"/>
<text text-anchor="middle" x="230.5" y="-63.5" font-family="Helvetica,sans-Serif" font-size="10.00">SFINAE.hpp</text>
</a>
</g>
</g>
<!-- Node3&#45;&gt;Node6 -->
<g id="edge5" class="edge">
<title>Node3&#45;&gt;Node6</title>
<path fill="none" stroke="midnightblue" d="M150.76,-112.32C165.72,-103.82 188.75,-90.73 206.23,-80.8"/>
<polygon fill="midnightblue" stroke="midnightblue" points="208.31,-83.64 215.27,-75.65 204.85,-77.55 208.31,-83.64"/>
</g>
<!-- Node7 -->
<g id="node7" class="node">
<title>Node7</title>
<g id="a_node7"><a xlink:title=" ">
<polygon fill="white" stroke="#bfbfbf" points="196,-0.5 196,-19.5 265,-19.5 265,-0.5 196,-0.5"/>
<text text-anchor="middle" x="230.5" y="-7.5" font-family="Helvetica,sans-Serif" font-size="10.00">type_traits</text>
</a>
</g>
</g>
<!-- Node6&#45;&gt;Node7 -->
<g id="edge6" class="edge">
<title>Node6&#45;&gt;Node7</title>
<path fill="none" stroke="midnightblue" d="M230.5,-56.08C230.5,-49.01 230.5,-38.86 230.5,-29.99"/>
<polygon fill="midnightblue" stroke="midnightblue" points="234,-29.75 230.5,-19.75 227,-29.75 234,-29.75"/>
</g>
</g>
</svg>
