<?xml version="1.0" encoding="UTF-8" standalone="no"?>
<!DOCTYPE svg PUBLIC "-//W3C//DTD SVG 1.1//EN"
 "http://www.w3.org/Graphics/SVG/1.1/DTD/svg11.dtd">
<!-- Generated by graphviz version 2.43.0 (0)
 -->
<!-- Title: C2Power&lt; N,... &gt; Pages: 1 -->
<svg width="203pt" height="207pt"
 viewBox="0.00 0.00 202.50 207.00" xmlns="http://www.w3.org/2000/svg" xmlns:xlink="http://www.w3.org/1999/xlink">
<g id="graph0" class="graph" transform="scale(1 1) rotate(0) translate(4 203)">
<title>C2Power&lt; N,... &gt;</title>
<polygon fill="white" stroke="transparent" points="-4,4 -4,-203 198.5,-203 198.5,4 -4,4"/>
<!-- Node1 -->
<g id="node1" class="node">
<title>Node1</title>
<g id="a_node1"><a xlink:title="Template for groups .">
<polygon fill="#bfbfbf" stroke="black" points="15,-179.5 15,-198.5 116,-198.5 116,-179.5 15,-179.5"/>
<text text-anchor="middle" x="65.5" y="-186.5" font-family="Helvetica,sans-Serif" font-size="10.00">C2Power&lt; N,... &gt;</text>
</a>
</g>
</g>
<!-- Node2 -->
<g id="node2" class="node">
<title>Node2</title>
<g id="a_node2"><a xlink:title=" ">
<polygon fill="white" stroke="#bfbfbf" points="0,-57.5 0,-109.5 131,-109.5 131,-57.5 0,-57.5"/>
<text text-anchor="start" x="8" y="-97.5" font-family="Helvetica,sans-Serif" font-size="10.00">C2Power&lt; N, Eigen::</text>
<text text-anchor="start" x="8" y="-86.5" font-family="Helvetica,sans-Serif" font-size="10.00">Matrix&lt; short, 1,&#45;1</text>
<text text-anchor="start" x="8" y="-75.5" font-family="Helvetica,sans-Serif" font-size="10.00"> &gt;, Eigen::SparseMatrix</text>
<text text-anchor="middle" x="65.5" y="-64.5" font-family="Helvetica,sans-Serif" font-size="10.00">&lt; coeff &gt; &gt;</text>
</a>
</g>
</g>
<!-- Node1&#45;&gt;Node2 -->
<g id="edge1" class="edge">
<title>Node1&#45;&gt;Node2</title>
<path fill="none" stroke="orange" stroke-dasharray="5,2" d="M65.5,-169.02C65.5,-152.32 65.5,-127.88 65.5,-109.57"/>
<polygon fill="orange" stroke="orange" points="62,-169.18 65.5,-179.18 69,-169.18 62,-169.18"/>
<text text-anchor="start" x="65.5" y="-153" font-family="Helvetica,sans-Serif" font-size="10.00"> &lt; N, Eigen::Matrix</text>
<text text-anchor="start" x="65.5" y="-142" font-family="Helvetica,sans-Serif" font-size="10.00">&lt; short, 1,&#45;1 &gt;, Eigen</text>
<text text-anchor="middle" x="130" y="-131" font-family="Helvetica,sans-Serif" font-size="10.00">::SparseMatrix&lt; coeff &gt; &gt;</text>
</g>
<!-- Node3 -->
<g id="node3" class="node">
<title>Node3</title>
<g id="a_node3"><a xlink:href="structmackey_1_1C2Power_3_01N_00_01coeff_01_4.html" target="_top" xlink:title="Groups &#160;given coefficient type.">
<polygon fill="white" stroke="black" points="6,-0.5 6,-19.5 125,-19.5 125,-0.5 6,-0.5"/>
<text text-anchor="middle" x="65.5" y="-7.5" font-family="Helvetica,sans-Serif" font-size="10.00">C2Power&lt; N, coeff &gt;</text>
</a>
</g>
</g>
<!-- Node2&#45;&gt;Node3 -->
<g id="edge2" class="edge">
<title>Node2&#45;&gt;Node3</title>
<path fill="none" stroke="midnightblue" d="M65.5,-47.31C65.5,-36.98 65.5,-26.58 65.5,-19.58"/>
<polygon fill="midnightblue" stroke="midnightblue" points="62,-47.49 65.5,-57.49 69,-47.49 62,-47.49"/>
</g>
</g>
</svg>
