<?xml version="1.0" encoding="UTF-8" standalone="no"?>
<!DOCTYPE svg PUBLIC "-//W3C//DTD SVG 1.1//EN"
 "http://www.w3.org/Graphics/SVG/1.1/DTD/svg11.dtd">
<!-- Generated by graphviz version 2.43.0 (0)
 -->
<!-- Title: SmithNormalForm&lt; _S, _R, _C &gt; Pages: 1 -->
<svg width="163pt" height="196pt"
 viewBox="0.00 0.00 163.00 196.00" xmlns="http://www.w3.org/2000/svg" xmlns:xlink="http://www.w3.org/1999/xlink">
<g id="graph0" class="graph" transform="scale(1 1) rotate(0) translate(4 192)">
<title>SmithNormalForm&lt; _S, _R, _C &gt;</title>
<polygon fill="white" stroke="transparent" points="-4,4 -4,-192 159,-192 159,4 -4,4"/>
<!-- Node1 -->
<g id="node1" class="node">
<title>Node1</title>
<g id="a_node1"><a xlink:title="The Smith Normal Form and its coefficient matrices.">
<polygon fill="#bfbfbf" stroke="black" points="12,-0.5 12,-30.5 143,-30.5 143,-0.5 12,-0.5"/>
<text text-anchor="start" x="20" y="-18.5" font-family="Helvetica,sans-Serif" font-size="10.00">SmithNormalForm&lt; _S,</text>
<text text-anchor="middle" x="77.5" y="-7.5" font-family="Helvetica,sans-Serif" font-size="10.00"> _R, _C &gt;</text>
</a>
</g>
</g>
<!-- Node2 -->
<g id="node2" class="node">
<title>Node2</title>
<g id="a_node2"><a xlink:title=" ">
<polygon fill="white" stroke="#bfbfbf" points="0,-68.5 0,-98.5 155,-98.5 155,-68.5 0,-68.5"/>
<text text-anchor="start" x="8" y="-86.5" font-family="Helvetica,sans-Serif" font-size="10.00">smith_conditional_members</text>
<text text-anchor="middle" x="77.5" y="-75.5" font-family="Helvetica,sans-Serif" font-size="10.00">&lt; _S &gt;</text>
</a>
</g>
</g>
<!-- Node2&#45;&gt;Node1 -->
<g id="edge1" class="edge">
<title>Node2&#45;&gt;Node1</title>
<path fill="none" stroke="midnightblue" d="M77.5,-58.03C77.5,-48.86 77.5,-38.74 77.5,-30.79"/>
<polygon fill="midnightblue" stroke="midnightblue" points="74,-58.18 77.5,-68.18 81,-58.18 74,-58.18"/>
</g>
<!-- Node3 -->
<g id="node3" class="node">
<title>Node3</title>
<g id="a_node3"><a xlink:title=" ">
<polygon fill="white" stroke="#bfbfbf" points="0,-146.5 0,-187.5 155,-187.5 155,-146.5 0,-146.5"/>
<text text-anchor="start" x="8" y="-175.5" font-family="Helvetica,sans-Serif" font-size="10.00">smith_conditional_members</text>
<text text-anchor="start" x="8" y="-164.5" font-family="Helvetica,sans-Serif" font-size="10.00">&lt; T, partial_pivoting,</text>
<text text-anchor="middle" x="77.5" y="-153.5" font-family="Helvetica,sans-Serif" font-size="10.00"> sparse &gt;</text>
</a>
</g>
</g>
<!-- Node3&#45;&gt;Node2 -->
<g id="edge2" class="edge">
<title>Node3&#45;&gt;Node2</title>
<path fill="none" stroke="orange" stroke-dasharray="5,2" d="M77.5,-136.03C77.5,-123.26 77.5,-108.97 77.5,-98.68"/>
<polygon fill="orange" stroke="orange" points="74,-136.27 77.5,-146.27 81,-136.27 74,-136.27"/>
<text text-anchor="middle" x="96" y="-120" font-family="Helvetica,sans-Serif" font-size="10.00"> &lt; _S &gt;</text>
</g>
</g>
</svg>
